<?xml version="1.0" encoding="UTF-8" standalone="no"?><svg xmlns="http://www.w3.org/2000/svg" xmlns:xlink="http://www.w3.org/1999/xlink" contentScriptType="application/ecmascript" contentStyleType="text/css" height="920px" preserveAspectRatio="none" style="width:1091px;height:920px;" version="1.1" viewBox="0 0 1091 920" width="1091px" zoomAndPan="magnify"><defs><filter height="300%" id="fvmba4e" width="300%" x="-1" y="-1"><feGaussianBlur result="blurOut" stdDeviation="2.0"/><feColorMatrix in="blurOut" result="blurOut2" type="matrix" values="0 0 0 0 0 0 0 0 0 0 0 0 0 0 0 0 0 0 .4 0"/><feOffset dx="4.0" dy="4.0" in="blurOut2" result="blurOut3"/><feBlend in="SourceGraphic" in2="blurOut3" mode="normal"/></filter></defs><g><text fill="#000000" font-family="sans-serif" font-size="18" lengthAdjust="spacingAndGlyphs" textLength="689" x="214.5" y="17.4023">Software architecture for QSS integration with JModelica with extended FMI API</text><!--cluster FMU-ME--><polygon fill="#FFFFFF" filter="url(#fvmba4e)" points="22,191.1992,89,191.1992,96,213.6875,353,213.6875,353,913.1992,22,913.1992,22,191.1992" style="stroke: #000000; stroke-width: 2.0;"/><line style="stroke: #000000; stroke-width: 2.0;" x1="22" x2="96" y1="213.6875" y2="213.6875"/><text fill="#000000" font-family="sans-serif" font-size="14" font-weight="bold" lengthAdjust="spacingAndGlyphs" textLength="61" x="26" y="206.7344">FMU-ME</text><!--cluster PyFMI--><polygon fill="#FFFFFF" filter="url(#fvmba4e)" points="237,45.1992,286,45.1992,293,67.6875,1084,67.6875,1084,142.1992,237,142.1992,237,45.1992" style="stroke: #000000; stroke-width: 2.0;"/><line style="stroke: #000000; stroke-width: 2.0;" x1="237" x2="293" y1="67.6875" y2="67.6875"/><text fill="#000000" font-family="sans-serif" font-size="14" font-weight="bold" lengthAdjust="spacingAndGlyphs" textLength="43" x="241" y="60.7344">PyFMI</text><!--cluster Optimica--><polygon fill="#FFFFFF" filter="url(#fvmba4e)" points="377,707.1992,449,707.1992,456,729.6875,579,729.6875,579,804.1992,377,804.1992,377,707.1992" style="stroke: #000000; stroke-width: 2.0;"/><line style="stroke: #000000; stroke-width: 2.0;" x1="377" x2="456" y1="729.6875" y2="729.6875"/><text fill="#000000" font-family="sans-serif" font-size="14" font-weight="bold" lengthAdjust="spacingAndGlyphs" textLength="66" x="381" y="722.7344">Optimica</text><!--entity qss_sol--><rect fill="#FEFECE" filter="url(#fvmba4e)" height="46.4883" style="stroke: #A80036; stroke-width: 1.5;" width="112" x="124" y="226.1992"/><rect fill="#FEFECE" height="10" style="stroke: #A80036; stroke-width: 1.5;" width="15" x="216" y="231.1992"/><rect fill="#FEFECE" height="2" style="stroke: #A80036; stroke-width: 1.5;" width="4" x="214" y="233.1992"/><rect fill="#FEFECE" height="2" style="stroke: #A80036; stroke-width: 1.5;" width="4" x="214" y="237.1992"/><text fill="#000000" font-family="sans-serif" font-size="14" lengthAdjust="spacingAndGlyphs" textLength="72" x="139" y="259.7344">QSS solver</text><!--entity FMU_QSS--><rect fill="#FEFECE" filter="url(#fvmba4e)" height="46.4883" style="stroke: #A80036; stroke-width: 1.5;" width="98" x="218" y="851.1992"/><rect fill="#FEFECE" height="10" style="stroke: #A80036; stroke-width: 1.5;" width="15" x="296" y="856.1992"/><rect fill="#FEFECE" height="2" style="stroke: #A80036; stroke-width: 1.5;" width="4" x="294" y="858.1992"/><rect fill="#FEFECE" height="2" style="stroke: #A80036; stroke-width: 1.5;" width="4" x="294" y="862.1992"/><text fill="#000000" font-family="sans-serif" font-size="14" lengthAdjust="spacingAndGlyphs" textLength="58" x="233" y="884.7344">FMU-ME</text><!--entity Master algorithm--><rect fill="#FEFECE" filter="url(#fvmba4e)" height="46.4883" style="stroke: #A80036; stroke-width: 1.5;" width="157" x="253.5" y="80.1992"/><rect fill="#FEFECE" height="10" style="stroke: #A80036; stroke-width: 1.5;" width="15" x="390.5" y="85.1992"/><rect fill="#FEFECE" height="2" style="stroke: #A80036; stroke-width: 1.5;" width="4" x="388.5" y="87.1992"/><rect fill="#FEFECE" height="2" style="stroke: #A80036; stroke-width: 1.5;" width="4" x="388.5" y="91.1992"/><text fill="#000000" font-family="sans-serif" font-size="14" lengthAdjust="spacingAndGlyphs" textLength="117" x="268.5" y="113.7344">Master algorithm</text><!--entity Sundials--><rect fill="#FEFECE" filter="url(#fvmba4e)" height="46.4883" style="stroke: #A80036; stroke-width: 1.5;" width="98" x="970" y="80.1992"/><rect fill="#FEFECE" height="10" style="stroke: #A80036; stroke-width: 1.5;" width="15" x="1048" y="85.1992"/><rect fill="#FEFECE" height="2" style="stroke: #A80036; stroke-width: 1.5;" width="4" x="1046" y="87.1992"/><rect fill="#FEFECE" height="2" style="stroke: #A80036; stroke-width: 1.5;" width="4" x="1046" y="91.1992"/><text fill="#000000" font-family="sans-serif" font-size="14" lengthAdjust="spacingAndGlyphs" textLength="58" x="985" y="113.7344">Sundials</text><!--entity jmc--><rect fill="#FEFECE" filter="url(#fvmba4e)" height="46.4883" style="stroke: #A80036; stroke-width: 1.5;" width="169" x="393.5" y="742.1992"/><rect fill="#FEFECE" height="10" style="stroke: #A80036; stroke-width: 1.5;" width="15" x="542.5" y="747.1992"/><rect fill="#FEFECE" height="2" style="stroke: #A80036; stroke-width: 1.5;" width="4" x="540.5" y="749.1992"/><rect fill="#FEFECE" height="2" style="stroke: #A80036; stroke-width: 1.5;" width="4" x="540.5" y="753.1992"/><text fill="#000000" font-family="sans-serif" font-size="14" lengthAdjust="spacingAndGlyphs" textLength="129" x="408.5" y="775.7344">JModelica compiler</text><!--entity FMU-ME--><rect fill="#FEFECE" filter="url(#fvmba4e)" height="46.4883" style="stroke: #A80036; stroke-width: 1.5;" width="98" x="969" y="226.1992"/><rect fill="#FEFECE" height="10" style="stroke: #A80036; stroke-width: 1.5;" width="15" x="1047" y="231.1992"/><rect fill="#FEFECE" height="2" style="stroke: #A80036; stroke-width: 1.5;" width="4" x="1045" y="233.1992"/><rect fill="#FEFECE" height="2" style="stroke: #A80036; stroke-width: 1.5;" width="4" x="1045" y="237.1992"/><text fill="#000000" font-family="sans-serif" font-size="14" lengthAdjust="spacingAndGlyphs" textLength="58" x="984" y="259.7344">FMU-ME</text><!--entity FMU-CS--><rect fill="#FEFECE" filter="url(#fvmba4e)" height="46.4883" style="stroke: #A80036; stroke-width: 1.5;" width="96" x="435" y="226.1992"/><rect fill="#FEFECE" height="10" style="stroke: #A80036; stroke-width: 1.5;" width="15" x="511" y="231.1992"/><rect fill="#FEFECE" height="2" style="stroke: #A80036; stroke-width: 1.5;" width="4" x="509" y="233.1992"/><rect fill="#FEFECE" height="2" style="stroke: #A80036; stroke-width: 1.5;" width="4" x="509" y="237.1992"/><text fill="#000000" font-family="sans-serif" font-size="14" lengthAdjust="spacingAndGlyphs" textLength="56" x="450" y="259.7344">FMU-CS</text><path d="M253.2641,113.2641 C199.3856,121.9548 134.7786,136.5631 118,158.1992 C101.7878,179.1049 121.221,204.0005 142.4992,222.4632 " fill="none" style="stroke: #A80036; stroke-width: 1.0;"/><polygon fill="#A80036" points="146.4856,225.8333,142.195,216.9682,142.6673,222.6053,137.0302,223.0775,146.4856,225.8333" style="stroke: #A80036; stroke-width: 1.0;"/><text fill="#000000" font-family="sans-serif" font-size="13" lengthAdjust="spacingAndGlyphs" textLength="76" x="119" y="171.7676">inputs, time</text><path d="M276.5101,128.7726 C262.311,136.9128 247.7505,146.8118 236,158.1992 C215.7515,177.8219 199.8059,206.2237 190.1919,226.0616 " fill="none" style="stroke: #A80036; stroke-width: 1.0;"/><polygon fill="#A80036" points="280.9017,126.3031,271.0964,127.228,276.5435,128.7539,275.0176,134.2011,280.9017,126.3031" style="stroke: #A80036; stroke-width: 1.0;"/><text fill="#000000" font-family="sans-serif" font-size="13" lengthAdjust="spacingAndGlyphs" textLength="144" x="237" y="171.7676">next event time, states</text><path d="M410.8306,103.1992 C597.122,103.1992 783.4135,103.1992 969.705,103.1992 " fill="none" style="stroke: #A80036; stroke-width: 1.0;"/><path d="M997.7813,126.3432 C990.6878,135.5641 983.6596,146.7113 980,158.1992 C973.0534,180.0051 983.7218,203.8497 995.5036,221.6586 " fill="none" style="stroke: #A80036; stroke-width: 1.0;"/><polygon fill="#A80036" points="998.5129,226.0514,996.7264,216.3659,995.6871,221.9265,990.1265,220.8872,998.5129,226.0514" style="stroke: #A80036; stroke-width: 1.0;"/><text fill="#000000" font-family="sans-serif" font-size="13" lengthAdjust="spacingAndGlyphs" textLength="29" x="981" y="171.7676">(x, t)</text><path d="M1018.8051,131.6599 C1018.6161,159.2529 1018.333,200.5881 1018.1577,226.1733 " fill="none" style="stroke: #A80036; stroke-width: 1.0;"/><polygon fill="#A80036" points="1018.8415,126.3333,1014.7799,135.3057,1018.8072,131.3332,1022.7797,135.3605,1018.8415,126.3333" style="stroke: #A80036; stroke-width: 1.0;"/><text fill="#000000" font-family="sans-serif" font-size="13" lengthAdjust="spacingAndGlyphs" textLength="36" x="1019" y="171.7676">dx/dt</text><path d="M355.9264,126.3333 C382.9859,152.4968 426.9758,195.0301 455.4474,222.5589 " fill="none" style="stroke: #A80036; stroke-width: 1.0;"/><polygon fill="#A80036" points="459.1855,226.1733,455.4958,217.0417,455.591,222.6978,449.9349,222.793,459.1855,226.1733" style="stroke: #A80036; stroke-width: 1.0;"/><text fill="#000000" font-family="sans-serif" font-size="13" lengthAdjust="spacingAndGlyphs" textLength="73" x="404" y="171.7676">hRequested</text><path d="M415.8653,123.8567 C446.9912,133.3592 476.9575,145.3679 486,158.1992 C499.8407,177.8392 496.1879,206.2377 490.9358,226.0702 " fill="none" style="stroke: #A80036; stroke-width: 1.0;"/><polygon fill="#A80036" points="410.8629,122.3534,418.3309,128.7744,415.6514,123.7924,420.6333,121.1129,410.8629,122.3534" style="stroke: #A80036; stroke-width: 1.0;"/><text fill="#000000" font-family="sans-serif" font-size="13" lengthAdjust="spacingAndGlyphs" textLength="58" x="495" y="171.7676">(x, hMax)</text><path d="M433.2523,788.3153 C398.9835,806.0181 351.7418,830.4226 316.3731,848.6937 " fill="none" style="stroke: #A80036; stroke-width: 1.0;"/><polygon fill="#A80036" points="311.6832,851.1164,321.5151,850.5391,316.1254,848.8214,317.8431,843.4317,311.6832,851.1164" style="stroke: #A80036; stroke-width: 1.0;"/><path d="M267,850.8103 C267,828.7382 267,794.72 267,765.1992 C267,333.6992 267,333.6992 267,333.6992 C267,309.23 249.0719,289.5634 229.4927,275.3816 " fill="none" style="stroke: #A80036; stroke-width: 1.0;"/><polygon fill="#A80036" points="225.029,272.2583,230.1098,280.6955,229.1257,275.1249,234.6963,274.1408,225.029,272.2583" style="stroke: #A80036; stroke-width: 1.0;"/><text fill="#000000" font-family="sans-serif" font-size="13" lengthAdjust="spacingAndGlyphs" textLength="68" x="268" y="532.7676">derivatives</text><path d="M123.993,270.0181 C98.1042,283.6052 73,304.3477 73,333.6992 C73,333.6992 73,333.6992 73,765.1992 C73,829.6069 155.2788,856.3533 212.6694,867.1752 " fill="none" style="stroke: #A80036; stroke-width: 1.0;"/><polygon fill="#A80036" points="217.7948,868.1122,209.6608,862.559,212.8763,867.2131,208.2222,870.4286,217.7948,868.1122" style="stroke: #A80036; stroke-width: 1.0;"/><text fill="#000000" font-family="sans-serif" font-size="13" lengthAdjust="spacingAndGlyphs" textLength="122" x="74" y="532.7676">inputs, time, states</text></g></svg>