<?xml version="1.0" encoding="UTF-8" standalone="no"?><svg xmlns="http://www.w3.org/2000/svg" xmlns:xlink="http://www.w3.org/1999/xlink" contentScriptType="application/ecmascript" contentStyleType="text/css" height="532px" preserveAspectRatio="none" style="width:766px;height:532px;" version="1.1" viewBox="0 0 766 532" width="766px" zoomAndPan="magnify"><defs><filter height="300%" id="fxoy6yj" width="300%" x="-1" y="-1"><feGaussianBlur result="blurOut" stdDeviation="2.0"/><feColorMatrix in="blurOut" result="blurOut2" type="matrix" values="0 0 0 0 0 0 0 0 0 0 0 0 0 0 0 0 0 0 .4 0"/><feOffset dx="4.0" dy="4.0" in="blurOut2" result="blurOut3"/><feBlend in="SourceGraphic" in2="blurOut3" mode="normal"/></filter></defs><g><text fill="#000000" font-family="sans-serif" font-size="14" font-weight="bold" lengthAdjust="spacingAndGlyphs" textLength="308" x="231.25" y="22.9951">Updating an OpenStudio Model Library.</text><rect fill="#FFFFFF" filter="url(#fxoy6yj)" height="236.7344" style="stroke: #000000; stroke-width: 2.0;" width="744.5" x="13" y="239.9922"/><rect fill="#FFFFFF" height="190.4688" style="stroke: none; stroke-width: 1.0;" width="744.5" x="13" y="286.2578"/><rect fill="#FFFFFF" filter="url(#fxoy6yj)" height="119.5313" style="stroke: #000000; stroke-width: 2.0;" width="724.5" x="23" y="350.1953"/><rect fill="#FFFFFF" filter="url(#fxoy6yj)" height="46.2656" style="stroke: #000000; stroke-width: 2.0;" width="704.5" x="33" y="416.4609"/><line style="stroke: #A80036; stroke-width: 1.0; stroke-dasharray: 5.0,5.0;" x1="112" x2="112" y1="68.5938" y2="493.7266"/><line style="stroke: #A80036; stroke-width: 1.0; stroke-dasharray: 5.0,5.0;" x1="278.5" x2="278.5" y1="68.5938" y2="493.7266"/><line style="stroke: #A80036; stroke-width: 1.0; stroke-dasharray: 5.0,5.0;" x1="426.5" x2="426.5" y1="68.5938" y2="493.7266"/><line style="stroke: #A80036; stroke-width: 1.0; stroke-dasharray: 5.0,5.0;" x1="630.5" x2="630.5" y1="68.5938" y2="493.7266"/><rect fill="#FEFECE" filter="url(#fxoy6yj)" height="30.2969" style="stroke: #A80036; stroke-width: 1.5;" width="135" x="43" y="33.2969"/><text fill="#000000" font-family="sans-serif" font-size="14" lengthAdjust="spacingAndGlyphs" textLength="121" x="50" y="53.292">Conversion Script</text><rect fill="#FEFECE" filter="url(#fxoy6yj)" height="30.2969" style="stroke: #A80036; stroke-width: 1.5;" width="135" x="43" y="492.7266"/><text fill="#000000" font-family="sans-serif" font-size="14" lengthAdjust="spacingAndGlyphs" textLength="121" x="50" y="512.7217">Conversion Script</text><rect fill="#FEFECE" filter="url(#fxoy6yj)" height="30.2969" style="stroke: #A80036; stroke-width: 1.5;" width="78" x="237.5" y="33.2969"/><text fill="#000000" font-family="sans-serif" font-size="14" lengthAdjust="spacingAndGlyphs" textLength="64" x="244.5" y="53.292">JModelica</text><rect fill="#FEFECE" filter="url(#fxoy6yj)" height="30.2969" style="stroke: #A80036; stroke-width: 1.5;" width="78" x="237.5" y="492.7266"/><text fill="#000000" font-family="sans-serif" font-size="14" lengthAdjust="spacingAndGlyphs" textLength="64" x="244.5" y="512.7217">JModelica</text><rect fill="#FEFECE" filter="url(#fxoy6yj)" height="30.2969" style="stroke: #A80036; stroke-width: 1.5;" width="190" x="329.5" y="33.2969"/><text fill="#000000" font-family="sans-serif" font-size="14" lengthAdjust="spacingAndGlyphs" textLength="176" x="336.5" y="53.292">Modelica Buildings Library</text><rect fill="#FEFECE" filter="url(#fxoy6yj)" height="30.2969" style="stroke: #A80036; stroke-width: 1.5;" width="190" x="329.5" y="492.7266"/><text fill="#000000" font-family="sans-serif" font-size="14" lengthAdjust="spacingAndGlyphs" textLength="176" x="336.5" y="512.7217">Modelica Buildings Library</text><rect fill="#FEFECE" filter="url(#fxoy6yj)" height="30.2969" style="stroke: #A80036; stroke-width: 1.5;" width="190" x="533.5" y="33.2969"/><text fill="#000000" font-family="sans-serif" font-size="14" lengthAdjust="spacingAndGlyphs" textLength="176" x="540.5" y="53.292">OpenStudio Model Library</text><rect fill="#FEFECE" filter="url(#fxoy6yj)" height="30.2969" style="stroke: #A80036; stroke-width: 1.5;" width="190" x="533.5" y="492.7266"/><text fill="#000000" font-family="sans-serif" font-size="14" lengthAdjust="spacingAndGlyphs" textLength="176" x="540.5" y="512.7217">OpenStudio Model Library</text><polygon fill="#A80036" points="266.5,95.5938,276.5,99.5938,266.5,103.5938,270.5,99.5938" style="stroke: #A80036; stroke-width: 1.0;"/><line style="stroke: #A80036; stroke-width: 1.0;" x1="112.5" x2="272.5" y1="99.5938" y2="99.5938"/><text fill="#000000" font-family="sans-serif" font-size="13" lengthAdjust="spacingAndGlyphs" textLength="110" x="119.5" y="94.6606">getInstanceAST()</text><polygon fill="#A80036" points="414.5,124.7266,424.5,128.7266,414.5,132.7266,418.5,128.7266" style="stroke: #A80036; stroke-width: 1.0;"/><line style="stroke: #A80036; stroke-width: 1.0;" x1="278.5" x2="420.5" y1="128.7266" y2="128.7266"/><text fill="#000000" font-family="sans-serif" font-size="13" lengthAdjust="spacingAndGlyphs" textLength="80" x="285.5" y="123.7935">loadLibrary()</text><polygon fill="#A80036" points="289.5,138.8594,279.5,142.8594,289.5,146.8594,285.5,142.8594" style="stroke: #A80036; stroke-width: 1.0;"/><line style="stroke: #A80036; stroke-width: 1.0;" x1="283.5" x2="425.5" y1="142.8594" y2="142.8594"/><polygon fill="#A80036" points="123.5,152.8594,113.5,156.8594,123.5,160.8594,119.5,156.8594" style="stroke: #A80036; stroke-width: 1.0;"/><line style="stroke: #A80036; stroke-width: 1.0;" x1="117.5" x2="277.5" y1="156.8594" y2="156.8594"/><polygon fill="#A80036" points="618.5,206.8594,628.5,210.8594,618.5,214.8594,622.5,210.8594" style="stroke: #A80036; stroke-width: 1.0;"/><line style="stroke: #A80036; stroke-width: 1.0;" x1="112.5" x2="624.5" y1="210.8594" y2="210.8594"/><text fill="#000000" font-family="sans-serif" font-size="13" lengthAdjust="spacingAndGlyphs" textLength="110" x="119.5" y="205.9263">getInstanceAST()</text><polygon fill="#A80036" points="123.5,220.9922,113.5,224.9922,123.5,228.9922,119.5,224.9922" style="stroke: #A80036; stroke-width: 1.0;"/><line style="stroke: #A80036; stroke-width: 1.0;" x1="117.5" x2="629.5" y1="224.9922" y2="224.9922"/><rect fill="none" height="236.7344" style="stroke: #000000; stroke-width: 2.0;" width="744.5" x="13" y="239.9922"/><polygon fill="#EEEEEE" points="13,239.9922,77,239.9922,77,246.9922,67,256.9922,13,256.9922,13,239.9922" style="stroke: #000000; stroke-width: 2.0;"/><text fill="#000000" font-family="sans-serif" font-size="13" font-weight="bold" lengthAdjust="spacingAndGlyphs" textLength="19" x="28" y="253.0591">alt</text><text fill="#000000" font-family="sans-serif" font-size="11" font-weight="bold" lengthAdjust="spacingAndGlyphs" textLength="328" x="92" y="252.2026">[no OpenStudio Model Library has been populated]</text><polygon fill="#A80036" points="618.5,274.125,628.5,278.125,618.5,282.125,622.5,278.125" style="stroke: #A80036; stroke-width: 1.0;"/><line style="stroke: #A80036; stroke-width: 1.0;" x1="112.5" x2="624.5" y1="278.125" y2="278.125"/><text fill="#000000" font-family="sans-serif" font-size="13" lengthAdjust="spacingAndGlyphs" textLength="94" x="119.5" y="273.1919">createLibrary()</text><line style="stroke: #000000; stroke-width: 1.0; stroke-dasharray: 2.0,2.0;" x1="13" x2="757.5" y1="287.2578" y2="287.2578"/><text fill="#000000" font-family="sans-serif" font-size="11" font-weight="bold" lengthAdjust="spacingAndGlyphs" textLength="181" x="18" y="297.4683">[Update the existing library]</text><line style="stroke: #A80036; stroke-width: 1.0;" x1="112.5" x2="154.5" y1="322.1953" y2="322.1953"/><line style="stroke: #A80036; stroke-width: 1.0;" x1="154.5" x2="154.5" y1="322.1953" y2="335.1953"/><line style="stroke: #A80036; stroke-width: 1.0;" x1="113.5" x2="154.5" y1="335.1953" y2="335.1953"/><polygon fill="#A80036" points="123.5,331.1953,113.5,335.1953,123.5,339.1953,119.5,335.1953" style="stroke: #A80036; stroke-width: 1.0;"/><text fill="#000000" font-family="sans-serif" font-size="13" lengthAdjust="spacingAndGlyphs" textLength="60" x="119.5" y="317.1294">validate()</text><rect fill="none" height="119.5313" style="stroke: #000000; stroke-width: 2.0;" width="724.5" x="23" y="350.1953"/><polygon fill="#EEEEEE" points="23,350.1953,87,350.1953,87,357.1953,77,367.1953,23,367.1953,23,350.1953" style="stroke: #000000; stroke-width: 2.0;"/><text fill="#000000" font-family="sans-serif" font-size="13" font-weight="bold" lengthAdjust="spacingAndGlyphs" textLength="19" x="38" y="363.2622">alt</text><text fill="#000000" font-family="sans-serif" font-size="11" font-weight="bold" lengthAdjust="spacingAndGlyphs" textLength="186" x="102" y="362.4058">[incompatible changes exist]</text><line style="stroke: #A80036; stroke-width: 1.0;" x1="112.5" x2="154.5" y1="388.4609" y2="388.4609"/><line style="stroke: #A80036; stroke-width: 1.0;" x1="154.5" x2="154.5" y1="388.4609" y2="401.4609"/><line style="stroke: #A80036; stroke-width: 1.0;" x1="113.5" x2="154.5" y1="401.4609" y2="401.4609"/><polygon fill="#A80036" points="123.5,397.4609,113.5,401.4609,123.5,405.4609,119.5,401.4609" style="stroke: #A80036; stroke-width: 1.0;"/><text fill="#000000" font-family="sans-serif" font-size="13" lengthAdjust="spacingAndGlyphs" textLength="152" x="119.5" y="383.395">reportIncompatibilities()</text><rect fill="none" height="46.2656" style="stroke: #000000; stroke-width: 2.0;" width="704.5" x="33" y="416.4609"/><polygon fill="#EEEEEE" points="33,416.4609,97,416.4609,97,423.4609,87,433.4609,33,433.4609,33,416.4609" style="stroke: #000000; stroke-width: 2.0;"/><text fill="#000000" font-family="sans-serif" font-size="13" font-weight="bold" lengthAdjust="spacingAndGlyphs" textLength="19" x="48" y="429.5278">alt</text><text fill="#000000" font-family="sans-serif" font-size="11" font-weight="bold" lengthAdjust="spacingAndGlyphs" textLength="198" x="112" y="428.6714">[accept incompatible changes]</text><polygon fill="#A80036" points="618.5,450.5938,628.5,454.5938,618.5,458.5938,622.5,454.5938" style="stroke: #A80036; stroke-width: 1.0;"/><line style="stroke: #A80036; stroke-width: 1.0;" x1="112.5" x2="624.5" y1="454.5938" y2="454.5938"/><text fill="#000000" font-family="sans-serif" font-size="13" lengthAdjust="spacingAndGlyphs" textLength="94" x="119.5" y="449.6606">createLibrary()</text></g></svg>