<?xml version="1.0" encoding="UTF-8" standalone="no"?><svg xmlns="http://www.w3.org/2000/svg" xmlns:xlink="http://www.w3.org/1999/xlink" contentScriptType="application/ecmascript" contentStyleType="text/css" height="1321px" preserveAspectRatio="none" style="width:897px;height:1321px;" version="1.1" viewBox="0 0 897 1321" width="897px" zoomAndPan="magnify"><defs><filter height="300%" id="f47ispd" width="300%" x="-1" y="-1"><feGaussianBlur result="blurOut" stdDeviation="2.0"/><feColorMatrix in="blurOut" result="blurOut2" type="matrix" values="0 0 0 0 0 0 0 0 0 0 0 0 0 0 0 0 0 0 .4 0"/><feOffset dx="4.0" dy="4.0" in="blurOut2" result="blurOut3"/><feBlend in="SourceGraphic" in2="blurOut3" mode="normal"/></filter></defs><g><text fill="#000000" font-family="sans-serif" font-size="18" lengthAdjust="spacingAndGlyphs" textLength="250" x="341" y="17.4023">Overall software architecture</text><!--cluster OpenStudio--><polygon fill="#FFFFFF" filter="url(#f47ispd)" points="297,156.1992,387,156.1992,394,178.6875,890,178.6875,890,487.1992,297,487.1992,297,156.1992" style="stroke: #000000; stroke-width: 2.0;"/><line style="stroke: #000000; stroke-width: 2.0;" x1="297" x2="394" y1="178.6875" y2="178.6875"/><text fill="#000000" font-family="sans-serif" font-size="14" font-weight="bold" lengthAdjust="spacingAndGlyphs" textLength="84" x="301" y="171.7344">OpenStudio</text><!--cluster SOEP--><polygon fill="#FFFFFF" filter="url(#f47ispd)" points="249,568.1992,292,568.1992,299,590.6875,632,590.6875,632,1133.1992,249,1133.1992,249,568.1992" style="stroke: #000000; stroke-width: 2.0;"/><line style="stroke: #000000; stroke-width: 2.0;" x1="249" x2="299" y1="590.6875" y2="590.6875"/><text fill="#000000" font-family="sans-serif" font-size="14" font-weight="bold" lengthAdjust="spacingAndGlyphs" textLength="37" x="253" y="583.7344">SOEP</text><!--entity Model Library--><path d="M547.5,429.6992 C547.5,419.6992 604,419.6992 604,419.6992 C604,419.6992 660.5,419.6992 660.5,429.6992 L660.5,451.1875 C660.5,461.1875 604,461.1875 604,461.1875 C604,461.1875 547.5,461.1875 547.5,451.1875 L547.5,429.6992 " fill="#FEFECE" filter="url(#f47ispd)" style="stroke: #000000; stroke-width: 1.5;"/><path d="M547.5,429.6992 C547.5,439.6992 604,439.6992 604,439.6992 C604,439.6992 660.5,439.6992 660.5,429.6992 " fill="none" style="stroke: #000000; stroke-width: 1.5;"/><text fill="#000000" font-family="sans-serif" font-size="14" lengthAdjust="spacingAndGlyphs" textLength="93" x="557.5" y="453.2344">Model Library</text><!--entity API--><ellipse cx="604" cy="208.1992" fill="#FEFECE" filter="url(#f47ispd)" rx="8" ry="8" style="stroke: #A80036; stroke-width: 2.0;"/><text fill="#000000" font-family="sans-serif" font-size="14" lengthAdjust="spacingAndGlyphs" textLength="22" x="593" y="230.7344">API</text><!--entity Core--><rect fill="#FEFECE" filter="url(#f47ispd)" height="46.4883" style="stroke: #A80036; stroke-width: 1.5;" width="73" x="567.5" y="294.1992"/><rect fill="#FEFECE" height="10" style="stroke: #A80036; stroke-width: 1.5;" width="15" x="620.5" y="299.1992"/><rect fill="#FEFECE" height="2" style="stroke: #A80036; stroke-width: 1.5;" width="4" x="618.5" y="301.1992"/><rect fill="#FEFECE" height="2" style="stroke: #A80036; stroke-width: 1.5;" width="4" x="618.5" y="305.1992"/><text fill="#000000" font-family="sans-serif" font-size="14" lengthAdjust="spacingAndGlyphs" textLength="33" x="582.5" y="327.7344">Core</text><!--entity HVAC Systems Editor--><rect fill="#FEFECE" filter="url(#f47ispd)" height="46.4883" style="stroke: #A80036; stroke-width: 1.5;" width="183" x="329.5" y="417.1992"/><rect fill="#FEFECE" height="10" style="stroke: #A80036; stroke-width: 1.5;" width="15" x="492.5" y="422.1992"/><rect fill="#FEFECE" height="2" style="stroke: #A80036; stroke-width: 1.5;" width="4" x="490.5" y="424.1992"/><rect fill="#FEFECE" height="2" style="stroke: #A80036; stroke-width: 1.5;" width="4" x="490.5" y="428.1992"/><text fill="#000000" font-family="sans-serif" font-size="14" lengthAdjust="spacingAndGlyphs" textLength="143" x="344.5" y="450.7344">HVAC Systems Editor</text><!--entity Simulator Interface--><rect fill="#FEFECE" filter="url(#f47ispd)" height="46.4883" style="stroke: #A80036; stroke-width: 1.5;" width="170" x="696" y="417.1992"/><rect fill="#FEFECE" height="10" style="stroke: #A80036; stroke-width: 1.5;" width="15" x="846" y="422.1992"/><rect fill="#FEFECE" height="2" style="stroke: #A80036; stroke-width: 1.5;" width="4" x="844" y="424.1992"/><rect fill="#FEFECE" height="2" style="stroke: #A80036; stroke-width: 1.5;" width="4" x="844" y="428.1992"/><text fill="#000000" font-family="sans-serif" font-size="14" lengthAdjust="spacingAndGlyphs" textLength="130" x="711" y="450.7344">Simulator Interface</text><!--entity Schematic Editor--><rect fill="#FEFECE" filter="url(#f47ispd)" height="46.4883" style="stroke: #A80036; stroke-width: 1.5;" width="154" x="265" y="798.1992"/><rect fill="#FEFECE" height="10" style="stroke: #A80036; stroke-width: 1.5;" width="15" x="399" y="803.1992"/><rect fill="#FEFECE" height="2" style="stroke: #A80036; stroke-width: 1.5;" width="4" x="397" y="805.1992"/><rect fill="#FEFECE" height="2" style="stroke: #A80036; stroke-width: 1.5;" width="4" x="397" y="809.1992"/><text fill="#000000" font-family="sans-serif" font-size="14" lengthAdjust="spacingAndGlyphs" textLength="114" x="280" y="831.7344">Schematic Editor</text><!--entity JModelica--><rect fill="#FEFECE" filter="url(#f47ispd)" height="46.4883" style="stroke: #A80036; stroke-width: 1.5;" width="105" x="490.5" y="936.1992"/><rect fill="#FEFECE" height="10" style="stroke: #A80036; stroke-width: 1.5;" width="15" x="575.5" y="941.1992"/><rect fill="#FEFECE" height="2" style="stroke: #A80036; stroke-width: 1.5;" width="4" x="573.5" y="943.1992"/><rect fill="#FEFECE" height="2" style="stroke: #A80036; stroke-width: 1.5;" width="4" x="573.5" y="947.1992"/><text fill="#000000" font-family="sans-serif" font-size="14" lengthAdjust="spacingAndGlyphs" textLength="65" x="505.5" y="969.7344">JModelica</text><!--entity Conversion Script--><rect fill="#FEFECE" filter="url(#f47ispd)" height="46.4883" style="stroke: #A80036; stroke-width: 1.5;" width="161" x="454.5" y="798.1992"/><rect fill="#FEFECE" height="10" style="stroke: #A80036; stroke-width: 1.5;" width="15" x="595.5" y="803.1992"/><rect fill="#FEFECE" height="2" style="stroke: #A80036; stroke-width: 1.5;" width="4" x="593.5" y="805.1992"/><rect fill="#FEFECE" height="2" style="stroke: #A80036; stroke-width: 1.5;" width="4" x="593.5" y="809.1992"/><text fill="#000000" font-family="sans-serif" font-size="14" lengthAdjust="spacingAndGlyphs" textLength="121" x="469.5" y="831.7344">Conversion Script</text><!--entity Modelica\nLibrary AST--><path d="M265,613.1992 C265,603.1992 314,603.1992 314,603.1992 C314,603.1992 363,603.1992 363,613.1992 L363,651.1758 C363,661.1758 314,661.1758 314,661.1758 C314,661.1758 265,661.1758 265,651.1758 L265,613.1992 " fill="#FEFECE" filter="url(#f47ispd)" style="stroke: #000000; stroke-width: 1.5;"/><path d="M265,613.1992 C265,623.1992 314,623.1992 314,623.1992 C314,623.1992 363,623.1992 363,613.1992 " fill="none" style="stroke: #000000; stroke-width: 1.5;"/><text fill="#000000" font-family="sans-serif" font-size="14" lengthAdjust="spacingAndGlyphs" textLength="61" x="283.5" y="636.7344">Modelica</text><text fill="#000000" font-family="sans-serif" font-size="14" lengthAdjust="spacingAndGlyphs" textLength="78" x="275" y="653.2227">Library AST</text><!--entity Modelica\nBuildings Library--><path d="M476,1069.1992 C476,1059.1992 543,1059.1992 543,1059.1992 C543,1059.1992 610,1059.1992 610,1069.1992 L610,1107.1758 C610,1117.1758 543,1117.1758 543,1117.1758 C543,1117.1758 476,1117.1758 476,1107.1758 L476,1069.1992 " fill="#FEFECE" filter="url(#f47ispd)" style="stroke: #000000; stroke-width: 1.5;"/><path d="M476,1069.1992 C476,1079.1992 543,1079.1992 543,1079.1992 C543,1079.1992 610,1079.1992 610,1069.1992 " fill="none" style="stroke: #000000; stroke-width: 1.5;"/><text fill="#000000" font-family="sans-serif" font-size="14" lengthAdjust="spacingAndGlyphs" textLength="61" x="512.5" y="1092.7344">Modelica</text><text fill="#000000" font-family="sans-serif" font-size="14" lengthAdjust="spacingAndGlyphs" textLength="114" x="486" y="1109.2227">Buildings Library</text><!--entity Application--><rect fill="#FEFECE" filter="url(#f47ispd)" height="46.4883" style="stroke: #A80036; stroke-width: 1.5;" width="118" x="545" y="34.1992"/><rect fill="#FEFECE" height="10" style="stroke: #A80036; stroke-width: 1.5;" width="15" x="643" y="39.1992"/><rect fill="#FEFECE" height="2" style="stroke: #A80036; stroke-width: 1.5;" width="4" x="641" y="41.1992"/><rect fill="#FEFECE" height="2" style="stroke: #A80036; stroke-width: 1.5;" width="4" x="641" y="45.1992"/><text fill="#000000" font-family="sans-serif" font-size="14" lengthAdjust="spacingAndGlyphs" textLength="78" x="560" y="67.7344">Application</text><!--entity User-Provided\nModelica Library--><path d="M648,1069.1992 C648,1059.1992 714,1059.1992 714,1059.1992 C714,1059.1992 780,1059.1992 780,1069.1992 L780,1107.1758 C780,1117.1758 714,1117.1758 714,1117.1758 C714,1117.1758 648,1117.1758 648,1107.1758 L648,1069.1992 " fill="#FEFECE" filter="url(#f47ispd)" style="stroke: #000000; stroke-width: 1.5;"/><path d="M648,1069.1992 C648,1079.1992 714,1079.1992 714,1079.1992 C714,1079.1992 780,1079.1992 780,1069.1992 " fill="none" style="stroke: #000000; stroke-width: 1.5;"/><text fill="#000000" font-family="sans-serif" font-size="14" lengthAdjust="spacingAndGlyphs" textLength="99" x="664.5" y="1092.7344">User-Provided</text><text fill="#000000" font-family="sans-serif" font-size="14" lengthAdjust="spacingAndGlyphs" textLength="112" x="658" y="1109.2227">Modelica Library</text><polygon fill="#FBFB77" filter="url(#f47ispd)" points="6,558.1992,6,705.9941,230,705.9941,230,568.1992,220,558.1992,6,558.1992" style="stroke: #A80036; stroke-width: 1.0;"/><polygon fill="#FBFB77" points="6,558.1992,6,705.9941,201.567,705.9941,315.397,797.9902,209.567,705.9941,230,705.9941,230,568.1992,220,558.1992,6,558.1992" style="stroke: #A80036; stroke-width: 1.0;"/><line style="stroke: #A80036; stroke-width: 1.0;" x1="220" x2="220" y1="558.1992" y2="568.1992"/><line style="stroke: #A80036; stroke-width: 1.0;" x1="230" x2="220" y1="568.1992" y2="568.1992"/><text fill="#000000" font-family="sans-serif" font-size="13" lengthAdjust="spacingAndGlyphs" textLength="180" x="12" y="575.7676">Allows free graphical editing</text><text fill="#000000" font-family="sans-serif" font-size="13" lengthAdjust="spacingAndGlyphs" textLength="189" x="12" y="591.0781">of Modelica models. However,</text><text fill="#000000" font-family="sans-serif" font-size="13" lengthAdjust="spacingAndGlyphs" textLength="203" x="12" y="606.3887">after editing, many OS Measures</text><text fill="#000000" font-family="sans-serif" font-size="13" lengthAdjust="spacingAndGlyphs" textLength="170" x="12" y="621.6992">cannot be applied anymore</text><text fill="#000000" font-family="sans-serif" font-size="13" lengthAdjust="spacingAndGlyphs" textLength="203" x="12" y="637.0098">(as models may be incompatible</text><text fill="#000000" font-family="sans-serif" font-size="13" lengthAdjust="spacingAndGlyphs" textLength="122" x="12" y="652.3203">with the Measures).</text><text fill="#000000" font-family="sans-serif" font-size="13" lengthAdjust="spacingAndGlyphs" textLength="191" x="12" y="667.6309">However, OS can still simulate</text><text fill="#000000" font-family="sans-serif" font-size="13" lengthAdjust="spacingAndGlyphs" textLength="182" x="12" y="682.9414">these models and parse their</text><text fill="#000000" font-family="sans-serif" font-size="13" lengthAdjust="spacingAndGlyphs" textLength="53" x="12" y="698.252">outputs.</text><polygon fill="#FBFB77" filter="url(#f47ispd)" points="603,1180.1992,603,1312.6836,825,1312.6836,825,1190.1992,815,1180.1992,603,1180.1992" style="stroke: #A80036; stroke-width: 1.0;"/><polygon fill="#FBFB77" points="603,1180.1992,603,1312.6836,825,1312.6836,825,1190.1992,815,1180.1992,718,1180.1992,714,1117.4492,710,1180.1992,603,1180.1992" style="stroke: #A80036; stroke-width: 1.0;"/><line style="stroke: #A80036; stroke-width: 1.0;" x1="815" x2="815" y1="1180.1992" y2="1190.1992"/><line style="stroke: #A80036; stroke-width: 1.0;" x1="825" x2="815" y1="1190.1992" y2="1190.1992"/><text fill="#000000" font-family="sans-serif" font-size="13" lengthAdjust="spacingAndGlyphs" textLength="157" x="609" y="1197.7676">Allows companies to use</text><text fill="#000000" font-family="sans-serif" font-size="13" lengthAdjust="spacingAndGlyphs" textLength="174" x="609" y="1213.0781">their own Modelica libraries</text><text fill="#000000" font-family="sans-serif" font-size="13" lengthAdjust="spacingAndGlyphs" textLength="201" x="609" y="1228.3887">with custom HVAC systems and</text><text fill="#000000" font-family="sans-serif" font-size="13" lengthAdjust="spacingAndGlyphs" textLength="136" x="609" y="1243.6992">control sequences, or</text><text fill="#000000" font-family="sans-serif" font-size="13" lengthAdjust="spacingAndGlyphs" textLength="158" x="609" y="1259.0098">to integrate an electronic</text><text fill="#000000" font-family="sans-serif" font-size="13" lengthAdjust="spacingAndGlyphs" textLength="145" x="609" y="1274.3203">equipment catalog or a</text><text fill="#000000" font-family="sans-serif" font-size="13" lengthAdjust="spacingAndGlyphs" textLength="186" x="609" y="1289.6309">library used for an equipment</text><text fill="#000000" font-family="sans-serif" font-size="13" lengthAdjust="spacingAndGlyphs" textLength="65" x="609" y="1304.9414">sales tool.</text><polygon fill="#FBFB77" filter="url(#f47ispd)" points="226.5,29.1992,226.5,85.1309,383.5,85.1309,383.5,39.1992,373.5,29.1992,226.5,29.1992" style="stroke: #A80036; stroke-width: 1.0;"/><line style="stroke: #A80036; stroke-width: 1.0;" x1="373.5" x2="373.5" y1="29.1992" y2="39.1992"/><line style="stroke: #A80036; stroke-width: 1.0;" x1="383.5" x2="373.5" y1="39.1992" y2="39.1992"/><text fill="#000000" font-family="sans-serif" font-size="13" lengthAdjust="spacingAndGlyphs" textLength="136" x="232.5" y="46.7676">Not yet shown is how</text><text fill="#000000" font-family="sans-serif" font-size="13" lengthAdjust="spacingAndGlyphs" textLength="129" x="232.5" y="62.0781">to integrate building</text><text fill="#000000" font-family="sans-serif" font-size="13" lengthAdjust="spacingAndGlyphs" textLength="39" x="232.5" y="77.3887">model</text><polygon fill="#FBFB77" filter="url(#f47ispd)" points="732.5,36.6992,732.5,77.3203,887.5,77.3203,887.5,46.6992,877.5,36.6992,732.5,36.6992" style="stroke: #A80036; stroke-width: 1.0;"/><polygon fill="#FBFB77" points="732.5,36.6992,732.5,53.1992,663.145,57.1992,732.5,61.1992,732.5,77.3203,887.5,77.3203,887.5,46.6992,877.5,36.6992,732.5,36.6992" style="stroke: #A80036; stroke-width: 1.0;"/><line style="stroke: #A80036; stroke-width: 1.0;" x1="877.5" x2="877.5" y1="36.6992" y2="46.6992"/><line style="stroke: #A80036; stroke-width: 1.0;" x1="887.5" x2="877.5" y1="46.6992" y2="46.6992"/><text fill="#000000" font-family="sans-serif" font-size="13" lengthAdjust="spacingAndGlyphs" textLength="134" x="738.5" y="54.2676">Application that uses</text><text fill="#000000" font-family="sans-serif" font-size="13" lengthAdjust="spacingAndGlyphs" textLength="130" x="738.5" y="69.5781">the OpenStudio SDK.</text><path d="M604,233.5492 C604,250.0192 604,275.5692 604,293.8992 " fill="none" style="stroke: #A80036; stroke-width: 1.0;"/><path d="M604,340.3922 C604,361.3622 604,392.7622 604,414.5132 " fill="none" style="stroke: #A80036; stroke-width: 1.0;"/><polygon fill="#A80036" points="604,419.5482,608,410.5482,604,414.5482,600,410.5482,604,419.5482" style="stroke: #A80036; stroke-width: 1.0;"/><text fill="#000000" font-family="sans-serif" font-size="13" lengthAdjust="spacingAndGlyphs" textLength="63" x="605" y="383.7676">integrates</text><path d="M570.435,340.3922 C538.835,361.2862 491.573,392.5362 458.691,414.2772 " fill="none" style="stroke: #A80036; stroke-width: 1.0;"/><polygon fill="#A80036" points="454.352,417.1462,464.0655,415.5191,458.5228,414.3886,459.6533,408.8458,454.352,417.1462" style="stroke: #A80036; stroke-width: 1.0;"/><text fill="#000000" font-family="sans-serif" font-size="13" lengthAdjust="spacingAndGlyphs" textLength="63" x="525" y="383.7676">integrates</text><path d="M636.465,340.3922 C667.029,361.2862 712.741,392.5362 744.544,414.2772 " fill="none" style="stroke: #A80036; stroke-width: 1.0;"/><polygon fill="#A80036" points="748.741,417.1462,743.5686,408.7649,744.6133,414.3244,739.0538,415.3691,748.741,417.1462" style="stroke: #A80036; stroke-width: 1.0;"/><text fill="#000000" font-family="sans-serif" font-size="13" lengthAdjust="spacingAndGlyphs" textLength="63" x="705" y="383.7676">integrates</text><path d="M374.741,844.3522 C410.659,868.6552 468.188,907.5802 505.789,933.0212 " fill="none" style="stroke: #A80036; stroke-width: 1.0; stroke-dasharray: 7.0,7.0;"/><polygon fill="#A80036" points="510.273,936.0552,505.0609,927.6986,506.132,933.2531,500.5775,934.3242,510.273,936.0552" style="stroke: #A80036; stroke-width: 1.0;"/><text fill="#000000" font-family="sans-serif" font-size="13" lengthAdjust="spacingAndGlyphs" textLength="41" x="462" y="887.7676">parses</text><text fill="#000000" font-family="sans-serif" font-size="13" lengthAdjust="spacingAndGlyphs" textLength="24" x="470.5" y="903.0781">AST</text><path d="M426.524,463.4582 C438.994,518.7512 464.276,665.3072 411,768.1992 C405.569,778.6892 396.949,787.6462 387.618,795.0202 " fill="none" style="stroke: #A80036; stroke-width: 1.0; stroke-dasharray: 7.0,7.0;"/><polygon fill="#A80036" points="383.582,798.0832,393.1688,795.8262,387.5641,795.0595,388.3308,789.4549,383.582,798.0832" style="stroke: #A80036; stroke-width: 1.0;"/><text fill="#000000" font-family="sans-serif" font-size="13" lengthAdjust="spacingAndGlyphs" textLength="74" x="451" y="622.2676">calls editor,</text><text fill="#000000" font-family="sans-serif" font-size="13" lengthAdjust="spacingAndGlyphs" textLength="86" x="445" y="637.5781">which returns</text><text fill="#000000" font-family="sans-serif" font-size="13" lengthAdjust="spacingAndGlyphs" textLength="48" x="464" y="652.8887">.mo file</text><path d="M599.493,465.9522 C586.827,535.5272 551.049,732.0462 539.01,798.1732 " fill="none" style="stroke: #A80036; stroke-width: 1.0; stroke-dasharray: 7.0,7.0;"/><polygon fill="#A80036" points="600.436,460.7782,594.8887,468.9162,599.5404,465.6974,602.7593,470.3491,600.436,460.7782" style="stroke: #A80036; stroke-width: 1.0;"/><text fill="#000000" font-family="sans-serif" font-size="13" lengthAdjust="spacingAndGlyphs" textLength="106" x="606.5" y="629.7676">augments library</text><text fill="#000000" font-family="sans-serif" font-size="13" lengthAdjust="spacingAndGlyphs" textLength="153" x="583" y="645.0781">by generating C++ code</text><path d="M536.303,844.3522 C537.692,867.9632 539.893,905.3772 541.389,930.8172 " fill="none" style="stroke: #A80036; stroke-width: 1.0; stroke-dasharray: 7.0,7.0;"/><polygon fill="#A80036" points="541.697,936.0552,545.163,926.8364,541.4041,931.0638,537.1767,927.305,541.697,936.0552" style="stroke: #A80036; stroke-width: 1.0;"/><text fill="#000000" font-family="sans-serif" font-size="13" lengthAdjust="spacingAndGlyphs" textLength="41" x="541" y="887.7676">parses</text><text fill="#000000" font-family="sans-serif" font-size="13" lengthAdjust="spacingAndGlyphs" textLength="24" x="549.5" y="903.0781">AST</text><path d="M781.762,463.4892 C782.565,510.3682 780.248,621.7972 745,706.1992 C705.068,801.8172 617.521,890.7082 571.915,932.7552 " fill="none" style="stroke: #A80036; stroke-width: 1.0; stroke-dasharray: 7.0,7.0;"/><polygon fill="#A80036" points="568.17,936.1892,577.506,933.0525,571.8544,932.8091,572.0978,927.1575,568.17,936.1892" style="stroke: #A80036; stroke-width: 1.0;"/><text fill="#000000" font-family="sans-serif" font-size="13" lengthAdjust="spacingAndGlyphs" textLength="103" x="732" y="749.7676">runs simulation,</text><text fill="#000000" font-family="sans-serif" font-size="13" lengthAdjust="spacingAndGlyphs" textLength="87" x="740" y="765.0781">reads outputs</text><path d="M388.22,463.2972 C372.329,475.6242 354.286,492.2962 343,511.1992 C327.203,537.6572 320.003,572.2462 316.726,597.4882 " fill="none" style="stroke: #A80036; stroke-width: 1.0; stroke-dasharray: 7.0,7.0;"/><polygon fill="#A80036" points="316.084,602.7262,321.1497,594.28,316.6926,597.7634,313.2092,593.3063,316.084,602.7262" style="stroke: #A80036; stroke-width: 1.0;"/><text fill="#000000" font-family="sans-serif" font-size="13" lengthAdjust="spacingAndGlyphs" textLength="62" x="344" y="524.7676">reads AST</text><path d="M345.598,664.9042 C359.007,678.0002 374.983,693.1402 390,706.1992 C428.541,739.7152 475.343,775.7202 505.152,798.1022 " fill="none" style="stroke: #A80036; stroke-width: 1.0; stroke-dasharray: 7.0,7.0;"/><polygon fill="#A80036" points="341.886,661.2682,345.5142,670.4244,345.4571,664.7679,351.1136,664.7107,341.886,661.2682" style="stroke: #A80036; stroke-width: 1.0;"/><text fill="#000000" font-family="sans-serif" font-size="13" lengthAdjust="spacingAndGlyphs" textLength="61" x="466" y="749.7676">generates</text><text fill="#000000" font-family="sans-serif" font-size="13" lengthAdjust="spacingAndGlyphs" textLength="24" x="484.5" y="765.0781">AST</text><path d="M543,982.3212 C543,1002.1422 543,1031.4902 543,1054.1042 " fill="none" style="stroke: #A80036; stroke-width: 1.0;"/><polygon fill="#A80036" points="543,1059.1122,547,1050.1122,543,1054.1122,539,1050.1122,543,1059.1122" style="stroke: #A80036; stroke-width: 1.0;"/><text fill="#000000" font-family="sans-serif" font-size="13" lengthAdjust="spacingAndGlyphs" textLength="49" x="544" y="1025.7676">imports</text><path d="M604,80.3592 C604,110.4392 604,163.8392 604,193.6192 " fill="none" style="stroke: #A80036; stroke-width: 1.0; stroke-dasharray: 7.0,7.0;"/><polygon fill="#A80036" points="604,198.8892,608,189.8892,604,193.8892,600,189.8892,604,198.8892" style="stroke: #A80036; stroke-width: 1.0;"/><text fill="#000000" font-family="sans-serif" font-size="13" lengthAdjust="spacingAndGlyphs" textLength="29" x="605" y="128.7676">uses</text><path d="M572.786,982.3212 C600.259,1002.7252 641.326,1033.2242 672.101,1056.0812 " fill="none" style="stroke: #A80036; stroke-width: 1.0;"/><polygon fill="#A80036" points="676.182,1059.1122,671.3418,1050.5348,672.168,1056.131,666.5718,1056.9572,676.182,1059.1122" style="stroke: #A80036; stroke-width: 1.0;"/><text fill="#000000" font-family="sans-serif" font-size="13" lengthAdjust="spacingAndGlyphs" textLength="49" x="635" y="1025.7676">imports</text><path d="M305,85.5492 C305,96.6192 305,110.0923 305,124.1155 C305,131.127 305,138.2761 305,145.331 C305,148.8585 305,152.3624 305,155.8138 " fill="none" style="stroke: #A80036; stroke-width: 1.0; stroke-dasharray: 7.0,7.0;"/></g></svg>