<?xml version="1.0" encoding="UTF-8" standalone="no"?><svg xmlns="http://www.w3.org/2000/svg" xmlns:xlink="http://www.w3.org/1999/xlink" contentScriptType="application/ecmascript" contentStyleType="text/css" height="1556px" preserveAspectRatio="none" style="width:2080px;height:1556px;" version="1.1" viewBox="0 0 2080 1556" width="2080px" zoomAndPan="magnify"><defs><filter height="300%" id="f9v7w05" width="300%" x="-1" y="-1"><feGaussianBlur result="blurOut" stdDeviation="2.0"/><feColorMatrix in="blurOut" result="blurOut2" type="matrix" values="0 0 0 0 0 0 0 0 0 0 0 0 0 0 0 0 0 0 .4 0"/><feOffset dx="4.0" dy="4.0" in="blurOut2" result="blurOut3"/><feBlend in="SourceGraphic" in2="blurOut3" mode="normal"/></filter></defs><g><text fill="#000000" font-family="sans-serif" font-size="18" lengthAdjust="spacingAndGlyphs" textLength="607" x="741" y="16.708">Overall software architecture (with two editors for the SOEP mode).</text><!--cluster OpenStudio--><polygon fill="#FFFFFF" filter="url(#f9v7w05)" points="620,156.9531,718,156.9531,725,179.25,1846,179.25,1846,640.9531,620,640.9531,620,156.9531" style="stroke: #000000; stroke-width: 2.0;"/><line style="stroke: #000000; stroke-width: 2.0;" x1="620" x2="725" y1="179.25" y2="179.25"/><text fill="#000000" font-family="sans-serif" font-size="14" font-weight="bold" lengthAdjust="spacingAndGlyphs" textLength="92" x="624" y="171.9482">OpenStudio</text><!--cluster Legacy-Mode--><polygon fill="#FFFFFF" filter="url(#f9v7w05)" points="660,492.9531,771,492.9531,778,515.25,1225,515.25,1225,608.9531,660,608.9531,660,492.9531" style="stroke: #000000; stroke-width: 2.0;"/><line style="stroke: #000000; stroke-width: 2.0;" x1="660" x2="778" y1="515.25" y2="515.25"/><text fill="#000000" font-family="sans-serif" font-size="14" font-weight="bold" lengthAdjust="spacingAndGlyphs" textLength="105" x="664" y="507.9482">Legacy-Mode</text><!--cluster SOEP-Mode--><polygon fill="#FFFFFF" filter="url(#f9v7w05)" points="1249,492.9531,1345,492.9531,1352,515.25,1814,515.25,1814,608.9531,1249,608.9531,1249,492.9531" style="stroke: #000000; stroke-width: 2.0;"/><line style="stroke: #000000; stroke-width: 2.0;" x1="1249" x2="1352" y1="515.25" y2="515.25"/><text fill="#000000" font-family="sans-serif" font-size="14" font-weight="bold" lengthAdjust="spacingAndGlyphs" textLength="90" x="1253" y="507.9482">SOEP-Mode</text><!--cluster EnergyPlus--><polygon fill="#FFFFFF" filter="url(#f9v7w05)" points="30,290.9531,124,290.9531,131,313.25,580,313.25,580,404.9531,30,404.9531,30,290.9531" style="stroke: #000000; stroke-width: 2.0;"/><line style="stroke: #000000; stroke-width: 2.0;" x1="30" x2="131" y1="313.25" y2="313.25"/><text fill="#000000" font-family="sans-serif" font-size="14" font-weight="bold" lengthAdjust="spacingAndGlyphs" textLength="88" x="34" y="305.9482">EnergyPlus</text><!--cluster SOEP--><polygon fill="#FFFFFF" filter="url(#f9v7w05)" points="1335,698.9531,1382,698.9531,1389,721.25,1720,721.25,1720,1351.9531,1335,1351.9531,1335,698.9531" style="stroke: #000000; stroke-width: 2.0;"/><line style="stroke: #000000; stroke-width: 2.0;" x1="1335" x2="1389" y1="721.25" y2="721.25"/><text fill="#000000" font-family="sans-serif" font-size="14" font-weight="bold" lengthAdjust="spacingAndGlyphs" textLength="41" x="1339" y="713.9482">SOEP</text><!--entity API--><ellipse cx="1222.25" cy="209.9531" fill="#FEFECE" filter="url(#f9v7w05)" rx="8" ry="8" style="stroke: #A80036; stroke-width: 2.0;"/><text fill="#000000" font-family="sans-serif" font-size="14" lengthAdjust="spacingAndGlyphs" textLength="21" x="1211.75" y="231.9482">API</text><!--entity Core--><rect fill="#FEFECE" filter="url(#f9v7w05)" height="46.2969" style="stroke: #A80036; stroke-width: 1.5;" width="73" x="1185.75" y="334.9531"/><rect fill="#FEFECE" height="10" style="stroke: #A80036; stroke-width: 1.5;" width="15" x="1238.75" y="339.9531"/><rect fill="#FEFECE" height="2" style="stroke: #A80036; stroke-width: 1.5;" width="4" x="1236.75" y="341.9531"/><rect fill="#FEFECE" height="2" style="stroke: #A80036; stroke-width: 1.5;" width="4" x="1236.75" y="345.9531"/><text fill="#000000" font-family="sans-serif" font-size="14" lengthAdjust="spacingAndGlyphs" textLength="33" x="1200.75" y="367.9482">Core</text><!--entity Legacy\nModel Library--><path d="M1099,541.9531 C1099,531.9531 1154,531.9531 1154,531.9531 C1154,531.9531 1209,531.9531 1209,541.9531 L1209,579.5469 C1209,589.5469 1154,589.5469 1154,589.5469 C1154,589.5469 1099,589.5469 1099,579.5469 L1099,541.9531 " fill="#FEFECE" filter="url(#f9v7w05)" style="stroke: #000000; stroke-width: 1.5;"/><path d="M1099,541.9531 C1099,551.9531 1154,551.9531 1154,551.9531 C1154,551.9531 1209,551.9531 1209,541.9531 " fill="none" style="stroke: #000000; stroke-width: 1.5;"/><text fill="#000000" font-family="sans-serif" font-size="14" lengthAdjust="spacingAndGlyphs" textLength="48" x="1130" y="564.9482">Legacy</text><text fill="#000000" font-family="sans-serif" font-size="14" lengthAdjust="spacingAndGlyphs" textLength="90" x="1109" y="581.2451">Model Library</text><!--entity HVAC Systems Editor\n(Legacy Mode)--><rect fill="#FEFECE" filter="url(#f9v7w05)" height="62.5938" style="stroke: #A80036; stroke-width: 1.5;" width="185" x="878.75" y="529.4531"/><rect fill="#FEFECE" height="10" style="stroke: #A80036; stroke-width: 1.5;" width="15" x="1043.75" y="534.4531"/><rect fill="#FEFECE" height="2" style="stroke: #A80036; stroke-width: 1.5;" width="4" x="1041.75" y="536.4531"/><rect fill="#FEFECE" height="2" style="stroke: #A80036; stroke-width: 1.5;" width="4" x="1041.75" y="540.4531"/><text fill="#000000" font-family="sans-serif" font-size="14" lengthAdjust="spacingAndGlyphs" textLength="145" x="893.75" y="562.4482">HVAC Systems Editor</text><text fill="#000000" font-family="sans-serif" font-size="14" lengthAdjust="spacingAndGlyphs" textLength="101" x="915.75" y="578.7451">(Legacy Mode)</text><!--entity EnergyPlus\nSimulator Interface--><rect fill="#FEFECE" filter="url(#f9v7w05)" height="62.5938" style="stroke: #A80036; stroke-width: 1.5;" width="168" x="676.5" y="529.4531"/><rect fill="#FEFECE" height="10" style="stroke: #A80036; stroke-width: 1.5;" width="15" x="824.5" y="534.4531"/><rect fill="#FEFECE" height="2" style="stroke: #A80036; stroke-width: 1.5;" width="4" x="822.5" y="536.4531"/><rect fill="#FEFECE" height="2" style="stroke: #A80036; stroke-width: 1.5;" width="4" x="822.5" y="540.4531"/><text fill="#000000" font-family="sans-serif" font-size="14" lengthAdjust="spacingAndGlyphs" textLength="77" x="717" y="562.4482">EnergyPlus</text><text fill="#000000" font-family="sans-serif" font-size="14" lengthAdjust="spacingAndGlyphs" textLength="128" x="691.5" y="578.7451">Simulator Interface</text><!--entity SOEP\nModel Library--><path d="M1265,541.9531 C1265,531.9531 1320,531.9531 1320,531.9531 C1320,531.9531 1375,531.9531 1375,541.9531 L1375,579.5469 C1375,589.5469 1320,589.5469 1320,589.5469 C1320,589.5469 1265,589.5469 1265,579.5469 L1265,541.9531 " fill="#FEFECE" filter="url(#f9v7w05)" style="stroke: #000000; stroke-width: 1.5;"/><path d="M1265,541.9531 C1265,551.9531 1320,551.9531 1320,551.9531 C1320,551.9531 1375,551.9531 1375,541.9531 " fill="none" style="stroke: #000000; stroke-width: 1.5;"/><text fill="#000000" font-family="sans-serif" font-size="14" lengthAdjust="spacingAndGlyphs" textLength="38" x="1301" y="564.9482">SOEP</text><text fill="#000000" font-family="sans-serif" font-size="14" lengthAdjust="spacingAndGlyphs" textLength="90" x="1275" y="581.2451">Model Library</text><!--entity HVAC Systems Editor\n(SOEP Mode)--><rect fill="#FEFECE" filter="url(#f9v7w05)" height="62.5938" style="stroke: #A80036; stroke-width: 1.5;" width="185" x="1410.75" y="529.4531"/><rect fill="#FEFECE" height="10" style="stroke: #A80036; stroke-width: 1.5;" width="15" x="1575.75" y="534.4531"/><rect fill="#FEFECE" height="2" style="stroke: #A80036; stroke-width: 1.5;" width="4" x="1573.75" y="536.4531"/><rect fill="#FEFECE" height="2" style="stroke: #A80036; stroke-width: 1.5;" width="4" x="1573.75" y="540.4531"/><text fill="#000000" font-family="sans-serif" font-size="14" lengthAdjust="spacingAndGlyphs" textLength="145" x="1425.75" y="562.4482">HVAC Systems Editor</text><text fill="#000000" font-family="sans-serif" font-size="14" lengthAdjust="spacingAndGlyphs" textLength="91" x="1452.75" y="578.7451">(SOEP Mode)</text><!--entity SOEP\nSimulator Interface--><rect fill="#FEFECE" filter="url(#f9v7w05)" height="62.5938" style="stroke: #A80036; stroke-width: 1.5;" width="168" x="1630.5" y="529.4531"/><rect fill="#FEFECE" height="10" style="stroke: #A80036; stroke-width: 1.5;" width="15" x="1778.5" y="534.4531"/><rect fill="#FEFECE" height="2" style="stroke: #A80036; stroke-width: 1.5;" width="4" x="1776.5" y="536.4531"/><rect fill="#FEFECE" height="2" style="stroke: #A80036; stroke-width: 1.5;" width="4" x="1776.5" y="540.4531"/><text fill="#000000" font-family="sans-serif" font-size="14" lengthAdjust="spacingAndGlyphs" textLength="38" x="1690.5" y="562.4482">SOEP</text><text fill="#000000" font-family="sans-serif" font-size="14" lengthAdjust="spacingAndGlyphs" textLength="128" x="1645.5" y="578.7451">Simulator Interface</text><!--entity in.idf--><rect fill="#FEFECE" filter="url(#f9v7w05)" height="46.2969" style="stroke: #A80036; stroke-width: 1.5;" width="72" x="73" y="334.9531"/><rect fill="#FEFECE" height="10" style="stroke: #A80036; stroke-width: 1.5;" width="15" x="125" y="339.9531"/><rect fill="#FEFECE" height="2" style="stroke: #A80036; stroke-width: 1.5;" width="4" x="123" y="341.9531"/><rect fill="#FEFECE" height="2" style="stroke: #A80036; stroke-width: 1.5;" width="4" x="123" y="345.9531"/><text fill="#000000" font-family="sans-serif" font-size="14" lengthAdjust="spacingAndGlyphs" textLength="32" x="88" y="367.9482">in.idf</text><!--entity EnergyPlus.exe--><rect fill="#FEFECE" filter="url(#f9v7w05)" height="46.2969" style="stroke: #A80036; stroke-width: 1.5;" width="146" x="215" y="334.9531"/><rect fill="#FEFECE" height="10" style="stroke: #A80036; stroke-width: 1.5;" width="15" x="341" y="339.9531"/><rect fill="#FEFECE" height="2" style="stroke: #A80036; stroke-width: 1.5;" width="4" x="339" y="341.9531"/><rect fill="#FEFECE" height="2" style="stroke: #A80036; stroke-width: 1.5;" width="4" x="339" y="345.9531"/><text fill="#000000" font-family="sans-serif" font-size="14" lengthAdjust="spacingAndGlyphs" textLength="106" x="230" y="367.9482">EnergyPlus.exe</text><!--entity eplusout.sql--><rect fill="#FEFECE" filter="url(#f9v7w05)" height="46.2969" style="stroke: #A80036; stroke-width: 1.5;" width="125" x="430.75" y="334.9531"/><rect fill="#FEFECE" height="10" style="stroke: #A80036; stroke-width: 1.5;" width="15" x="535.75" y="339.9531"/><rect fill="#FEFECE" height="2" style="stroke: #A80036; stroke-width: 1.5;" width="4" x="533.75" y="341.9531"/><rect fill="#FEFECE" height="2" style="stroke: #A80036; stroke-width: 1.5;" width="4" x="533.75" y="345.9531"/><text fill="#000000" font-family="sans-serif" font-size="14" lengthAdjust="spacingAndGlyphs" textLength="85" x="445.75" y="367.9482">eplusout.sql</text><!--entity Schematic Editor--><rect fill="#FEFECE" filter="url(#f9v7w05)" height="46.2969" style="stroke: #A80036; stroke-width: 1.5;" width="156" x="1548" y="913.9531"/><rect fill="#FEFECE" height="10" style="stroke: #A80036; stroke-width: 1.5;" width="15" x="1684" y="918.9531"/><rect fill="#FEFECE" height="2" style="stroke: #A80036; stroke-width: 1.5;" width="4" x="1682" y="920.9531"/><rect fill="#FEFECE" height="2" style="stroke: #A80036; stroke-width: 1.5;" width="4" x="1682" y="924.9531"/><text fill="#000000" font-family="sans-serif" font-size="14" lengthAdjust="spacingAndGlyphs" textLength="116" x="1563" y="946.9482">Schematic Editor</text><!--entity JModelica--><rect fill="#FEFECE" filter="url(#f9v7w05)" height="46.2969" style="stroke: #A80036; stroke-width: 1.5;" width="104" x="1581" y="1103.9531"/><rect fill="#FEFECE" height="10" style="stroke: #A80036; stroke-width: 1.5;" width="15" x="1665" y="1108.9531"/><rect fill="#FEFECE" height="2" style="stroke: #A80036; stroke-width: 1.5;" width="4" x="1663" y="1110.9531"/><rect fill="#FEFECE" height="2" style="stroke: #A80036; stroke-width: 1.5;" width="4" x="1663" y="1114.9531"/><text fill="#000000" font-family="sans-serif" font-size="14" lengthAdjust="spacingAndGlyphs" textLength="64" x="1596" y="1136.9482">JModelica</text><!--entity Conversion Script--><rect fill="#FEFECE" filter="url(#f9v7w05)" height="46.2969" style="stroke: #A80036; stroke-width: 1.5;" width="161" x="1351.75" y="913.9531"/><rect fill="#FEFECE" height="10" style="stroke: #A80036; stroke-width: 1.5;" width="15" x="1492.75" y="918.9531"/><rect fill="#FEFECE" height="2" style="stroke: #A80036; stroke-width: 1.5;" width="4" x="1490.75" y="920.9531"/><rect fill="#FEFECE" height="2" style="stroke: #A80036; stroke-width: 1.5;" width="4" x="1490.75" y="924.9531"/><text fill="#000000" font-family="sans-serif" font-size="14" lengthAdjust="spacingAndGlyphs" textLength="121" x="1366.75" y="946.9482">Conversion Script</text><!--entity Modelica\nLibrary AST--><path d="M1455.75,744.9531 C1455.75,734.9531 1503.25,734.9531 1503.25,734.9531 C1503.25,734.9531 1550.75,734.9531 1550.75,744.9531 L1550.75,782.5469 C1550.75,792.5469 1503.25,792.5469 1503.25,792.5469 C1503.25,792.5469 1455.75,792.5469 1455.75,782.5469 L1455.75,744.9531 " fill="#FEFECE" filter="url(#f9v7w05)" style="stroke: #000000; stroke-width: 1.5;"/><path d="M1455.75,744.9531 C1455.75,754.9531 1503.25,754.9531 1503.25,754.9531 C1503.25,754.9531 1550.75,754.9531 1550.75,744.9531 " fill="none" style="stroke: #000000; stroke-width: 1.5;"/><text fill="#000000" font-family="sans-serif" font-size="14" lengthAdjust="spacingAndGlyphs" textLength="61" x="1472.75" y="767.9482">Modelica</text><text fill="#000000" font-family="sans-serif" font-size="14" lengthAdjust="spacingAndGlyphs" textLength="75" x="1465.75" y="784.2451">Library AST</text><!--entity Modelica\nBuildings Library--><path d="M1567.75,1287.9531 C1567.75,1277.9531 1633.25,1277.9531 1633.25,1277.9531 C1633.25,1277.9531 1698.75,1277.9531 1698.75,1287.9531 L1698.75,1325.5469 C1698.75,1335.5469 1633.25,1335.5469 1633.25,1335.5469 C1633.25,1335.5469 1567.75,1335.5469 1567.75,1325.5469 L1567.75,1287.9531 " fill="#FEFECE" filter="url(#f9v7w05)" style="stroke: #000000; stroke-width: 1.5;"/><path d="M1567.75,1287.9531 C1567.75,1297.9531 1633.25,1297.9531 1633.25,1297.9531 C1633.25,1297.9531 1698.75,1297.9531 1698.75,1287.9531 " fill="none" style="stroke: #000000; stroke-width: 1.5;"/><text fill="#000000" font-family="sans-serif" font-size="14" lengthAdjust="spacingAndGlyphs" textLength="61" x="1602.75" y="1310.9482">Modelica</text><text fill="#000000" font-family="sans-serif" font-size="14" lengthAdjust="spacingAndGlyphs" textLength="111" x="1577.75" y="1327.2451">Buildings Library</text><!--entity epdev--><ellipse cx="1153.25" cy="732.4531" fill="#FEFECE" filter="url(#f9v7w05)" rx="8" ry="8" style="stroke: #A80036; stroke-width: 2.0;"/><path d="M1153.25,740.4531 L1153.25,767.4531 M1140.25,748.4531 L1166.25,748.4531 M1153.25,767.4531 L1140.25,782.4531 M1153.25,767.4531 L1166.25,782.4531 " fill="#FEFECE" filter="url(#f9v7w05)" style="stroke: #A80036; stroke-width: 2.0;"/><text fill="#000000" font-family="sans-serif" font-size="14" lengthAdjust="spacingAndGlyphs" textLength="71" x="1117.75" y="802.4482">Developer</text><!--entity modev--><ellipse cx="991.25" cy="1095.4531" fill="#FEFECE" filter="url(#f9v7w05)" rx="8" ry="8" style="stroke: #A80036; stroke-width: 2.0;"/><path d="M991.25,1103.4531 L991.25,1130.4531 M978.25,1111.4531 L1004.25,1111.4531 M991.25,1130.4531 L978.25,1145.4531 M991.25,1130.4531 L1004.25,1145.4531 " fill="#FEFECE" filter="url(#f9v7w05)" style="stroke: #A80036; stroke-width: 2.0;"/><text fill="#000000" font-family="sans-serif" font-size="14" lengthAdjust="spacingAndGlyphs" textLength="125" x="928.75" y="1165.4482">Developer or User</text><!--entity budev--><ellipse cx="1633.25" cy="1450.4531" fill="#FEFECE" filter="url(#f9v7w05)" rx="8" ry="8" style="stroke: #A80036; stroke-width: 2.0;"/><path d="M1633.25,1458.4531 L1633.25,1485.4531 M1620.25,1466.4531 L1646.25,1466.4531 M1633.25,1485.4531 L1620.25,1500.4531 M1633.25,1485.4531 L1646.25,1500.4531 " fill="#FEFECE" filter="url(#f9v7w05)" style="stroke: #A80036; stroke-width: 2.0;"/><text fill="#000000" font-family="sans-serif" font-size="14" lengthAdjust="spacingAndGlyphs" textLength="71" x="1597.75" y="1520.4482">Developer</text><!--entity mouse--><ellipse cx="1795" cy="1450.4531" fill="#FEFECE" filter="url(#f9v7w05)" rx="8" ry="8" style="stroke: #A80036; stroke-width: 2.0;"/><path d="M1795,1458.4531 L1795,1485.4531 M1782,1466.4531 L1808,1466.4531 M1795,1485.4531 L1782,1500.4531 M1795,1485.4531 L1808,1500.4531 " fill="#FEFECE" filter="url(#f9v7w05)" style="stroke: #A80036; stroke-width: 2.0;"/><text fill="#000000" font-family="sans-serif" font-size="14" lengthAdjust="spacingAndGlyphs" textLength="32" x="1779" y="1520.4482">User</text><!--entity User-Provided\nModelica Library--><path d="M1736.75,1287.9531 C1736.75,1277.9531 1801.25,1277.9531 1801.25,1277.9531 C1801.25,1277.9531 1865.75,1277.9531 1865.75,1287.9531 L1865.75,1325.5469 C1865.75,1335.5469 1801.25,1335.5469 1801.25,1335.5469 C1801.25,1335.5469 1736.75,1335.5469 1736.75,1325.5469 L1736.75,1287.9531 " fill="#FEFECE" filter="url(#f9v7w05)" style="stroke: #000000; stroke-width: 1.5;"/><path d="M1736.75,1287.9531 C1736.75,1297.9531 1801.25,1297.9531 1801.25,1297.9531 C1801.25,1297.9531 1865.75,1297.9531 1865.75,1287.9531 " fill="none" style="stroke: #000000; stroke-width: 1.5;"/><text fill="#000000" font-family="sans-serif" font-size="14" lengthAdjust="spacingAndGlyphs" textLength="97" x="1752.75" y="1310.9482">User-Provided</text><text fill="#000000" font-family="sans-serif" font-size="14" lengthAdjust="spacingAndGlyphs" textLength="109" x="1746.75" y="1327.2451">Modelica Library</text><!--entity Application--><rect fill="#FEFECE" filter="url(#f9v7w05)" height="46.2969" style="stroke: #A80036; stroke-width: 1.5;" width="115" x="1274.75" y="33.9531"/><rect fill="#FEFECE" height="10" style="stroke: #A80036; stroke-width: 1.5;" width="15" x="1369.75" y="38.9531"/><rect fill="#FEFECE" height="2" style="stroke: #A80036; stroke-width: 1.5;" width="4" x="1367.75" y="40.9531"/><rect fill="#FEFECE" height="2" style="stroke: #A80036; stroke-width: 1.5;" width="4" x="1367.75" y="44.9531"/><text fill="#000000" font-family="sans-serif" font-size="14" lengthAdjust="spacingAndGlyphs" textLength="75" x="1289.75" y="66.9482">Application</text><!--entity Measures--><rect fill="#FEFECE" filter="url(#f9v7w05)" height="46.2969" style="stroke: #A80036; stroke-width: 1.5;" width="108" x="1131" y="33.9531"/><rect fill="#FEFECE" height="10" style="stroke: #A80036; stroke-width: 1.5;" width="15" x="1219" y="38.9531"/><rect fill="#FEFECE" height="2" style="stroke: #A80036; stroke-width: 1.5;" width="4" x="1217" y="40.9531"/><rect fill="#FEFECE" height="2" style="stroke: #A80036; stroke-width: 1.5;" width="4" x="1217" y="44.9531"/><text fill="#000000" font-family="sans-serif" font-size="14" lengthAdjust="spacingAndGlyphs" textLength="68" x="1146" y="66.9482">Measures</text><polygon fill="#FBFB77" filter="url(#f9v7w05)" points="1088.75,1053.9531,1088.75,1200.1484,1319.75,1200.1484,1319.75,1063.9531,1309.75,1053.9531,1088.75,1053.9531" style="stroke: #A80036; stroke-width: 1.0;"/><line style="stroke: #A80036; stroke-width: 1.0;" x1="1309.75" x2="1309.75" y1="1053.9531" y2="1063.9531"/><line style="stroke: #A80036; stroke-width: 1.0;" x1="1319.75" x2="1309.75" y1="1063.9531" y2="1063.9531"/><text fill="#000000" font-family="sans-serif" font-size="13" lengthAdjust="spacingAndGlyphs" textLength="177" x="1094.75" y="1071.02">Allows free graphical editing</text><text fill="#000000" font-family="sans-serif" font-size="13" lengthAdjust="spacingAndGlyphs" textLength="190" x="1094.75" y="1086.1528">of Modelica models. However,</text><text fill="#000000" font-family="sans-serif" font-size="13" lengthAdjust="spacingAndGlyphs" textLength="210" x="1094.75" y="1101.2856">after editing, many OS Measures</text><text fill="#000000" font-family="sans-serif" font-size="13" lengthAdjust="spacingAndGlyphs" textLength="175" x="1094.75" y="1116.4185">cannot be applied anymore</text><text fill="#000000" font-family="sans-serif" font-size="13" lengthAdjust="spacingAndGlyphs" textLength="209" x="1094.75" y="1131.5513">(as models may be incompatible</text><text fill="#000000" font-family="sans-serif" font-size="13" lengthAdjust="spacingAndGlyphs" textLength="125" x="1094.75" y="1146.6841">with the Measures).</text><text fill="#000000" font-family="sans-serif" font-size="13" lengthAdjust="spacingAndGlyphs" textLength="193" x="1094.75" y="1161.8169">However, OS can still simulate</text><text fill="#000000" font-family="sans-serif" font-size="13" lengthAdjust="spacingAndGlyphs" textLength="188" x="1094.75" y="1176.9497">these models and parse their</text><text fill="#000000" font-family="sans-serif" font-size="13" lengthAdjust="spacingAndGlyphs" textLength="53" x="1094.75" y="1192.0825">outputs.</text><polygon fill="#FBFB77" filter="url(#f9v7w05)" points="1846.75,1416.4531,1846.75,1547.5156,2071.75,1547.5156,2071.75,1426.4531,2061.75,1416.4531,1846.75,1416.4531" style="stroke: #A80036; stroke-width: 1.0;"/><line style="stroke: #A80036; stroke-width: 1.0;" x1="2061.75" x2="2061.75" y1="1416.4531" y2="1426.4531"/><line style="stroke: #A80036; stroke-width: 1.0;" x1="2071.75" x2="2061.75" y1="1426.4531" y2="1426.4531"/><text fill="#000000" font-family="sans-serif" font-size="13" lengthAdjust="spacingAndGlyphs" textLength="157" x="1852.75" y="1433.52">Allows companies to use</text><text fill="#000000" font-family="sans-serif" font-size="13" lengthAdjust="spacingAndGlyphs" textLength="172" x="1852.75" y="1448.6528">their own Modelica libraries</text><text fill="#000000" font-family="sans-serif" font-size="13" lengthAdjust="spacingAndGlyphs" textLength="204" x="1852.75" y="1463.7856">with custom HVAC systems and</text><text fill="#000000" font-family="sans-serif" font-size="13" lengthAdjust="spacingAndGlyphs" textLength="138" x="1852.75" y="1478.9185">control sequences, or</text><text fill="#000000" font-family="sans-serif" font-size="13" lengthAdjust="spacingAndGlyphs" textLength="161" x="1852.75" y="1494.0513">to integrate an electronic</text><text fill="#000000" font-family="sans-serif" font-size="13" lengthAdjust="spacingAndGlyphs" textLength="149" x="1852.75" y="1509.1841">equipment catalog or a</text><text fill="#000000" font-family="sans-serif" font-size="13" lengthAdjust="spacingAndGlyphs" textLength="188" x="1852.75" y="1524.3169">library used for an equipment</text><text fill="#000000" font-family="sans-serif" font-size="13" lengthAdjust="spacingAndGlyphs" textLength="65" x="1852.75" y="1539.4497">sales tool.</text><polygon fill="#FBFB77" filter="url(#f9v7w05)" points="556.75,29.4531,556.75,84.8516,699.75,84.8516,699.75,39.4531,689.75,29.4531,556.75,29.4531" style="stroke: #A80036; stroke-width: 1.0;"/><line style="stroke: #A80036; stroke-width: 1.0;" x1="689.75" x2="689.75" y1="29.4531" y2="39.4531"/><line style="stroke: #A80036; stroke-width: 1.0;" x1="699.75" x2="689.75" y1="39.4531" y2="39.4531"/><text fill="#000000" font-family="sans-serif" font-size="13" lengthAdjust="spacingAndGlyphs" textLength="105" x="562.75" y="46.52">Not yet shown is</text><text fill="#000000" font-family="sans-serif" font-size="13" lengthAdjust="spacingAndGlyphs" textLength="104" x="562.75" y="61.6528">how to integrate</text><text fill="#000000" font-family="sans-serif" font-size="13" lengthAdjust="spacingAndGlyphs" textLength="122" x="562.75" y="76.7856">the building model.</text><polygon fill="#FBFB77" filter="url(#f9v7w05)" points="1459,36.9531,1459,77.2188,1615,77.2188,1615,46.9531,1605,36.9531,1459,36.9531" style="stroke: #A80036; stroke-width: 1.0;"/><polygon fill="#FBFB77" points="1459,36.9531,1459,52.9531,1389.26,56.9531,1459,60.9531,1459,77.2188,1615,77.2188,1615,46.9531,1605,36.9531,1459,36.9531" style="stroke: #A80036; stroke-width: 1.0;"/><line style="stroke: #A80036; stroke-width: 1.0;" x1="1605" x2="1605" y1="36.9531" y2="46.9531"/><line style="stroke: #A80036; stroke-width: 1.0;" x1="1615" x2="1605" y1="46.9531" y2="46.9531"/><text fill="#000000" font-family="sans-serif" font-size="13" lengthAdjust="spacingAndGlyphs" textLength="134" x="1465" y="54.02">Application that uses</text><text fill="#000000" font-family="sans-serif" font-size="13" lengthAdjust="spacingAndGlyphs" textLength="135" x="1465" y="69.1528">the OpenStudio SDK.</text><path d="M1222,235.0531 C1222,259.6531 1222,306.6731 1222,334.5831 " fill="none" style="stroke: #A80036; stroke-width: 1.0;"/><path d="M1212.56,381.1531 C1206.89,394.8331 1199.69,412.7831 1194,428.9531 C1182.37,462.0031 1170.88,500.4031 1163.22,527.0431 " fill="none" style="stroke: #A80036; stroke-width: 1.0;"/><polygon fill="#A80036" points="1161.83,531.8731,1168.1693,524.3357,1163.2168,527.0693,1160.4832,522.1168,1161.83,531.8731" style="stroke: #A80036; stroke-width: 1.0;"/><text fill="#000000" font-family="sans-serif" font-size="13" lengthAdjust="spacingAndGlyphs" textLength="65" x="1195" y="457.02">integrates</text><path d="M1185.62,377.2731 C1161.26,390.2731 1129.01,408.9031 1103,428.9531 C1065.1,458.1631 1026.84,497.4631 1001.34,525.3731 " fill="none" style="stroke: #A80036; stroke-width: 1.0;"/><polygon fill="#A80036" points="997.672,529.4031,1006.6828,525.4274,1001.0325,525.7008,1000.7591,520.0506,997.672,529.4031" style="stroke: #A80036; stroke-width: 1.0;"/><text fill="#000000" font-family="sans-serif" font-size="13" lengthAdjust="spacingAndGlyphs" textLength="65" x="1104" y="457.02">integrates</text><path d="M1185.59,366.9931 C1136.63,378.3131 1047.27,400.7331 974,428.9531 C921.694,449.0931 908.802,455.6831 861,484.9531 C840.74,497.3631 819.462,512.7631 801.69,526.3731 " fill="none" style="stroke: #A80036; stroke-width: 1.0;"/><polygon fill="#A80036" points="797.719,529.4331,807.2933,527.1237,801.6845,526.3877,802.4205,520.7789,797.719,529.4331" style="stroke: #A80036; stroke-width: 1.0;"/><text fill="#000000" font-family="sans-serif" font-size="13" lengthAdjust="spacingAndGlyphs" textLength="65" x="975" y="457.02">integrates</text><path d="M1237.27,381.0831 C1246.24,394.5731 1257.45,412.3631 1266,428.9531 C1282.66,461.2731 1298.09,499.9331 1308.14,526.8531 " fill="none" style="stroke: #A80036; stroke-width: 1.0;"/><polygon fill="#A80036" points="1309.96,531.7331,1310.5715,521.9033,1308.2169,527.0468,1303.0734,524.6922,1309.96,531.7331" style="stroke: #A80036; stroke-width: 1.0;"/><text fill="#000000" font-family="sans-serif" font-size="13" lengthAdjust="spacingAndGlyphs" textLength="65" x="1288" y="457.02">integrates</text><path d="M1258.37,373.5031 C1287.83,386.1031 1329.77,405.8931 1363,428.9531 C1403.96,457.3731 1444.92,497.3731 1471.85,525.6831 " fill="none" style="stroke: #A80036; stroke-width: 1.0;"/><polygon fill="#A80036" points="1475.39,529.4231,1472.1163,520.1343,1471.956,525.7889,1466.3015,525.6286,1475.39,529.4231" style="stroke: #A80036; stroke-width: 1.0;"/><text fill="#000000" font-family="sans-serif" font-size="13" lengthAdjust="spacingAndGlyphs" textLength="65" x="1421" y="457.02">integrates</text><path d="M1258.59,365.9131 C1311.78,376.5631 1413.16,398.8731 1496,428.9531 C1550.19,448.6231 1563.63,455.1831 1613,484.9531 C1633.34,497.2231 1654.64,512.6031 1672.39,526.2431 " fill="none" style="stroke: #A80036; stroke-width: 1.0;"/><polygon fill="#A80036" points="1676.36,529.3031,1671.6833,520.6354,1672.4033,526.2463,1666.7924,526.9662,1676.36,529.3031" style="stroke: #A80036; stroke-width: 1.0;"/><text fill="#000000" font-family="sans-serif" font-size="13" lengthAdjust="spacingAndGlyphs" textLength="65" x="1600" y="457.02">integrates</text><path d="M1153.83,595.7461 C1153.66,630.6051 1153.39,684.9871 1153.2,722.2041 " fill="none" style="stroke: #A80036; stroke-width: 1.0; stroke-dasharray: 7.0,7.0;"/><polygon fill="#A80036" points="1153.86,590.3251,1149.8138,599.3044,1153.8343,595.3251,1157.8137,599.3456,1153.86,590.3251" style="stroke: #A80036; stroke-width: 1.0;"/><text fill="#000000" font-family="sans-serif" font-size="13" lengthAdjust="spacingAndGlyphs" textLength="52" x="1155" y="678.02">updates</text><path d="M45.8003,404.9567 C45.9811,405.3581 46.1659,405.7576 46.3549,406.155 C46.733,406.9497 47.1277,407.7359 47.5399,408.5116 C48.3643,410.063 49.2585,411.5728 50.2282,413.0262 C52.1677,415.933 54.4094,418.6144 57,420.9531 C147.329,502.4931 510.117,540.5831 676.212,554.0121 " fill="none" style="stroke: #A80036; stroke-width: 1.0; stroke-dasharray: 7.0,7.0;"/><polygon fill="#A80036" points="45.8003,404.9567,45.8481,414.8054,47.8532,409.5158,53.1428,411.5209,45.8003,404.9567" style="stroke: #A80036; stroke-width: 1.0;"/><text fill="#000000" font-family="sans-serif" font-size="13" lengthAdjust="spacingAndGlyphs" textLength="84" x="186" y="442.02">writes inputs,</text><text fill="#000000" font-family="sans-serif" font-size="13" lengthAdjust="spacingAndGlyphs" textLength="102" x="177" y="457.1528">runs simulation,</text><text fill="#000000" font-family="sans-serif" font-size="13" lengthAdjust="spacingAndGlyphs" textLength="89" x="183.5" y="472.2856">reads outputs</text><path d="M145.01,357.9531 C166.556,357.9531 188.101,357.9531 209.647,357.9531 " fill="none" style="stroke: #A80036; stroke-width: 1.0;"/><polygon fill="#A80036" points="214.829,357.9531,205.829,353.9531,209.829,357.9531,205.829,361.9531,214.829,357.9531" style="stroke: #A80036; stroke-width: 1.0;"/><path d="M361.271,357.9531 C382.708,357.9531 404.145,357.9531 425.582,357.9531 " fill="none" style="stroke: #A80036; stroke-width: 1.0;"/><polygon fill="#A80036" points="430.738,357.9531,421.738,353.9531,425.738,357.9531,421.738,361.9531,430.738,357.9531" style="stroke: #A80036; stroke-width: 1.0;"/><path d="M1626.83,960.2571 C1628.11,994.7441 1630.58,1060.9281 1631.97,1098.3691 " fill="none" style="stroke: #A80036; stroke-width: 1.0; stroke-dasharray: 7.0,7.0;"/><polygon fill="#A80036" points="1632.17,1103.6781,1635.8322,1094.5355,1631.9839,1098.6816,1627.8378,1094.8333,1632.17,1103.6781" style="stroke: #A80036; stroke-width: 1.0;"/><text fill="#000000" font-family="sans-serif" font-size="13" lengthAdjust="spacingAndGlyphs" textLength="43" x="1630" y="1003.52">parses</text><text fill="#000000" font-family="sans-serif" font-size="13" lengthAdjust="spacingAndGlyphs" textLength="25" x="1639" y="1018.6528">AST</text><path d="M1531.48,592.4941 C1547.93,611.8381 1567.56,638.1811 1579,664.9531 C1614.84,748.8431 1623.36,858.4431 1625.38,908.6641 " fill="none" style="stroke: #A80036; stroke-width: 1.0; stroke-dasharray: 7.0,7.0;"/><polygon fill="#A80036" points="1625.57,913.9141,1629.2332,904.7719,1625.3844,908.9176,1621.2387,905.0688,1625.57,913.9141" style="stroke: #A80036; stroke-width: 1.0;"/><text fill="#000000" font-family="sans-serif" font-size="13" lengthAdjust="spacingAndGlyphs" textLength="73" x="1622" y="753.02">calls editor,</text><text fill="#000000" font-family="sans-serif" font-size="13" lengthAdjust="spacingAndGlyphs" textLength="85" x="1616" y="768.1528">which returns</text><text fill="#000000" font-family="sans-serif" font-size="13" lengthAdjust="spacingAndGlyphs" textLength="47" x="1635" y="783.2856">.mo file</text><path d="M1302.49,594.6051 C1279.08,642.9731 1244.15,735.5241 1277,805.9531 C1299.86,854.9701 1351.31,892.0571 1388.68,913.8301 " fill="none" style="stroke: #A80036; stroke-width: 1.0; stroke-dasharray: 7.0,7.0;"/><polygon fill="#A80036" points="1304.71,590.0651,1297.1556,596.3843,1302.5083,594.5543,1304.3383,599.907,1304.71,590.0651" style="stroke: #A80036; stroke-width: 1.0;"/><text fill="#000000" font-family="sans-serif" font-size="13" lengthAdjust="spacingAndGlyphs" textLength="108" x="1303" y="760.52">augments library</text><text fill="#000000" font-family="sans-serif" font-size="13" lengthAdjust="spacingAndGlyphs" textLength="158" x="1278" y="775.6528">by generating C++ code</text><path d="M1455.85,960.2571 C1493.32,995.3091 1565.81,1063.1061 1605.45,1100.1871 " fill="none" style="stroke: #A80036; stroke-width: 1.0; stroke-dasharray: 7.0,7.0;"/><polygon fill="#A80036" points="1609.18,1103.6781,1605.3381,1094.6095,1605.5279,1100.2632,1599.8742,1100.4529,1609.18,1103.6781" style="stroke: #A80036; stroke-width: 1.0;"/><text fill="#000000" font-family="sans-serif" font-size="13" lengthAdjust="spacingAndGlyphs" textLength="43" x="1521" y="1003.52">parses</text><text fill="#000000" font-family="sans-serif" font-size="13" lengthAdjust="spacingAndGlyphs" textLength="25" x="1530" y="1018.6528">AST</text><path d="M1720,592.5211 C1732.08,660.0571 1755.5,826.5651 1722,959.9531 C1708.64,1013.1551 1674.57,1067.9111 1652.67,1099.3401 " fill="none" style="stroke: #A80036; stroke-width: 1.0; stroke-dasharray: 7.0,7.0;"/><polygon fill="#A80036" points="1649.53,1103.8051,1657.9811,1098.7476,1652.4079,1099.7164,1651.4391,1094.1431,1649.53,1103.8051" style="stroke: #A80036; stroke-width: 1.0;"/><text fill="#000000" font-family="sans-serif" font-size="13" lengthAdjust="spacingAndGlyphs" textLength="84" x="1748" y="849.02">writes inputs,</text><text fill="#000000" font-family="sans-serif" font-size="13" lengthAdjust="spacingAndGlyphs" textLength="102" x="1739" y="864.1528">runs simulation,</text><text fill="#000000" font-family="sans-serif" font-size="13" lengthAdjust="spacingAndGlyphs" textLength="89" x="1745.5" y="879.2856">reads outputs</text><path d="M1503,592.4811 C1503,629.3261 1503,691.0821 1503,729.2811 " fill="none" style="stroke: #A80036; stroke-width: 1.0; stroke-dasharray: 7.0,7.0;"/><polygon fill="#A80036" points="1503,734.7401,1507,725.7401,1503,729.7401,1499,725.7401,1503,734.7401" style="stroke: #A80036; stroke-width: 1.0;"/><text fill="#000000" font-family="sans-serif" font-size="13" lengthAdjust="spacingAndGlyphs" textLength="65" x="1504" y="678.02">reads AST</text><path d="M1489.24,798.0941 C1475.06,832.2551 1453.34,884.5481 1441.14,913.9341 " fill="none" style="stroke: #A80036; stroke-width: 1.0; stroke-dasharray: 7.0,7.0;"/><polygon fill="#A80036" points="1491.28,793.1901,1484.133,799.9666,1489.3616,797.8075,1491.5207,803.036,1491.28,793.1901" style="stroke: #A80036; stroke-width: 1.0;"/><text fill="#000000" font-family="sans-serif" font-size="13" lengthAdjust="spacingAndGlyphs" textLength="65" x="1472" y="856.52">generates</text><text fill="#000000" font-family="sans-serif" font-size="13" lengthAdjust="spacingAndGlyphs" textLength="25" x="1492" y="871.6528">AST</text><path d="M1633,1150.1371 C1633,1180.9601 1633,1236.9791 1633,1272.7821 " fill="none" style="stroke: #A80036; stroke-width: 1.0;"/><polygon fill="#A80036" points="1633,1277.9121,1637,1268.9121,1633,1272.9121,1629,1268.9121,1633,1277.9121" style="stroke: #A80036; stroke-width: 1.0;"/><text fill="#000000" font-family="sans-serif" font-size="13" lengthAdjust="spacingAndGlyphs" textLength="49" x="1634" y="1243.02">imports</text><path d="M1346.68,954.6641 C1270.77,971.9591 1158.53,1003.6191 1071,1053.9531 C1056.26,1062.4291 1041.89,1073.9771 1029.49,1085.3421 " fill="none" style="stroke: #A80036; stroke-width: 1.0; stroke-dasharray: 7.0,7.0;"/><polygon fill="#A80036" points="1351.63,953.5461,1341.9652,951.6512,1346.7556,954.6598,1343.747,959.4502,1351.63,953.5461" style="stroke: #A80036; stroke-width: 1.0;"/><text fill="#000000" font-family="sans-serif" font-size="13" lengthAdjust="spacingAndGlyphs" textLength="48" x="1215" y="1011.02">invokes</text><path d="M1633,1341.2531 C1633,1369.4681 1633,1410.0291 1633,1440.1831 " fill="none" style="stroke: #A80036; stroke-width: 1.0; stroke-dasharray: 7.0,7.0;"/><polygon fill="#A80036" points="1633,1336.1331,1629,1345.1331,1633,1341.1331,1637,1345.1331,1633,1336.1331" style="stroke: #A80036; stroke-width: 1.0;"/><text fill="#000000" font-family="sans-serif" font-size="13" lengthAdjust="spacingAndGlyphs" textLength="111" x="1634" y="1381.02">adds annotations</text><path d="M1799.85,1341.2531 C1798.87,1369.4681 1797.46,1410.0291 1796.41,1440.1831 " fill="none" style="stroke: #A80036; stroke-width: 1.0; stroke-dasharray: 7.0,7.0;"/><polygon fill="#A80036" points="1800.02,1336.1331,1795.7114,1344.9895,1799.8472,1341.1301,1803.7067,1345.266,1800.02,1336.1331" style="stroke: #A80036; stroke-width: 1.0;"/><text fill="#000000" font-family="sans-serif" font-size="13" lengthAdjust="spacingAndGlyphs" textLength="111" x="1799" y="1381.02">adds annotations</text><path d="M1316.7,80.0631 C1295.1,111.2931 1255.99,167.8231 1235.44,197.5231 " fill="none" style="stroke: #A80036; stroke-width: 1.0; stroke-dasharray: 7.0,7.0;"/><polygon fill="#A80036" points="1232.55,201.7031,1240.957,196.5726,1235.3923,197.5896,1234.3754,192.0249,1232.55,201.7031" style="stroke: #A80036; stroke-width: 1.0;"/><text fill="#000000" font-family="sans-serif" font-size="13" lengthAdjust="spacingAndGlyphs" textLength="30" x="1291" y="128.02">uses</text><path d="M1191.27,80.0531 C1195.9,96.7231 1202.2,120.1831 1207,140.9531 C1211.27,159.4331 1215.39,180.6231 1218.23,195.9231 " fill="none" style="stroke: #A80036; stroke-width: 1.0; stroke-dasharray: 7.0,7.0;"/><polygon fill="#A80036" points="1219.14,200.8731,1221.4533,191.2998,1218.2393,195.9549,1213.5841,192.7409,1219.14,200.8731" style="stroke: #A80036; stroke-width: 1.0;"/><text fill="#000000" font-family="sans-serif" font-size="13" lengthAdjust="spacingAndGlyphs" textLength="30" x="1206" y="128.02">uses</text><path d="M1653.94,1150.1371 C1683.39,1181.3391 1737.2,1238.3611 1770.93,1274.0931 " fill="none" style="stroke: #A80036; stroke-width: 1.0;"/><polygon fill="#A80036" points="1774.53,1277.9121,1771.2505,1268.6253,1771.0938,1274.28,1765.4391,1274.1233,1774.53,1277.9121" style="stroke: #A80036; stroke-width: 1.0;"/><text fill="#000000" font-family="sans-serif" font-size="13" lengthAdjust="spacingAndGlyphs" textLength="49" x="1742" y="1243.02">imports</text><path d="M1562.65,960.0411 C1502.88,981.6161 1411.32,1016.5811 1335,1053.9531 C1329.87,1056.4641 1324.66,1059.0751 1319.41,1061.7501 " fill="none" style="stroke: #A80036; stroke-width: 1.0; stroke-dasharray: 7.0,7.0;"/><path d="M1865.53,1329.5111 C1885.21,1338.7381 1905.46,1351.3131 1920,1367.9531 C1931.95,1381.6291 1940.28,1399.1571 1946.08,1416.3061 " fill="none" style="stroke: #A80036; stroke-width: 1.0; stroke-dasharray: 7.0,7.0;"/><path d="M628,84.5631 C628,95.7031 628,109.3781 628,123.6658 C628,130.8096 628,138.1066 628,145.3165 C628,148.9214 628,152.5045 628,156.0359 C628,156.2566 628,156.4771 628,156.6974 " fill="none" style="stroke: #A80036; stroke-width: 1.0; stroke-dasharray: 7.0,7.0;"/></g></svg>