<?xml version="1.0" encoding="UTF-8" standalone="no"?><svg xmlns="http://www.w3.org/2000/svg" xmlns:xlink="http://www.w3.org/1999/xlink" contentScriptType="application/ecmascript" contentStyleType="text/css" height="1398px" preserveAspectRatio="none" style="width:2369px;height:1398px;" version="1.1" viewBox="0 0 2369 1398" width="2369px" zoomAndPan="magnify"><defs><filter height="300%" id="fcbhx53" width="300%" x="-1" y="-1"><feGaussianBlur result="blurOut" stdDeviation="2.0"/><feColorMatrix in="blurOut" result="blurOut2" type="matrix" values="0 0 0 0 0 0 0 0 0 0 0 0 0 0 0 0 0 0 .4 0"/><feOffset dx="4.0" dy="4.0" in="blurOut2" result="blurOut3"/><feBlend in="SourceGraphic" in2="blurOut3" mode="normal"/></filter></defs><g><text fill="#000000" font-family="sans-serif" font-size="18" lengthAdjust="spacingAndGlyphs" textLength="576" x="901" y="17.4023">Overall software architecture (with one editor for the SOEP mode).</text><!--cluster OpenStudio--><polygon fill="#FFFFFF" filter="url(#fcbhx53)" points="620,156.1992,710,156.1992,717,178.6875,1855,178.6875,1855,634.1992,620,634.1992,620,156.1992" style="stroke: #000000; stroke-width: 2.0;"/><line style="stroke: #000000; stroke-width: 2.0;" x1="620" x2="717" y1="178.6875" y2="178.6875"/><text fill="#000000" font-family="sans-serif" font-size="14" font-weight="bold" lengthAdjust="spacingAndGlyphs" textLength="84" x="624" y="171.7344">OpenStudio</text><!--cluster Legacy-Mode--><polygon fill="#FFFFFF" filter="url(#fcbhx53)" points="660,488.1992,762,488.1992,769,510.6875,1229,510.6875,1229,602.1992,660,602.1992,660,488.1992" style="stroke: #000000; stroke-width: 2.0;"/><line style="stroke: #000000; stroke-width: 2.0;" x1="660" x2="769" y1="510.6875" y2="510.6875"/><text fill="#000000" font-family="sans-serif" font-size="14" font-weight="bold" lengthAdjust="spacingAndGlyphs" textLength="96" x="664" y="503.7344">Legacy-Mode</text><!--cluster SOEP-Mode--><polygon fill="#FFFFFF" filter="url(#fcbhx53)" points="1253,488.1992,1344,488.1992,1351,510.6875,1823,510.6875,1823,602.1992,1253,602.1992,1253,488.1992" style="stroke: #000000; stroke-width: 2.0;"/><line style="stroke: #000000; stroke-width: 2.0;" x1="1253" x2="1351" y1="510.6875" y2="510.6875"/><text fill="#000000" font-family="sans-serif" font-size="14" font-weight="bold" lengthAdjust="spacingAndGlyphs" textLength="85" x="1257" y="503.7344">SOEP-Mode</text><!--cluster EnergyPlus--><polygon fill="#FFFFFF" filter="url(#fcbhx53)" points="30,288.1992,115,288.1992,122,310.6875,580,310.6875,580,401.1992,30,401.1992,30,288.1992" style="stroke: #000000; stroke-width: 2.0;"/><line style="stroke: #000000; stroke-width: 2.0;" x1="30" x2="122" y1="310.6875" y2="310.6875"/><text fill="#000000" font-family="sans-serif" font-size="14" font-weight="bold" lengthAdjust="spacingAndGlyphs" textLength="79" x="34" y="303.7344">EnergyPlus</text><!--cluster SOEP--><polygon fill="#FFFFFF" filter="url(#fcbhx53)" points="1697,730.1992,1740,730.1992,1747,752.6875,2086,752.6875,2086,1194.1992,1697,1194.1992,1697,730.1992" style="stroke: #000000; stroke-width: 2.0;"/><line style="stroke: #000000; stroke-width: 2.0;" x1="1697" x2="1747" y1="752.6875" y2="752.6875"/><text fill="#000000" font-family="sans-serif" font-size="14" font-weight="bold" lengthAdjust="spacingAndGlyphs" textLength="37" x="1701" y="745.7344">SOEP</text><!--entity API--><ellipse cx="1233" cy="208.1992" fill="#FEFECE" filter="url(#fcbhx53)" rx="8" ry="8" style="stroke: #A80036; stroke-width: 2.0;"/><text fill="#000000" font-family="sans-serif" font-size="14" lengthAdjust="spacingAndGlyphs" textLength="22" x="1222" y="230.7344">API</text><!--entity Core--><rect fill="#FEFECE" filter="url(#fcbhx53)" height="46.4883" style="stroke: #A80036; stroke-width: 1.5;" width="73" x="1196.5" y="331.1992"/><rect fill="#FEFECE" height="10" style="stroke: #A80036; stroke-width: 1.5;" width="15" x="1249.5" y="336.1992"/><rect fill="#FEFECE" height="2" style="stroke: #A80036; stroke-width: 1.5;" width="4" x="1247.5" y="338.1992"/><rect fill="#FEFECE" height="2" style="stroke: #A80036; stroke-width: 1.5;" width="4" x="1247.5" y="342.1992"/><text fill="#000000" font-family="sans-serif" font-size="14" lengthAdjust="spacingAndGlyphs" textLength="33" x="1211.5" y="364.7344">Core</text><!--entity Legacy\nModel Library--><path d="M1099.5,535.6992 C1099.5,525.6992 1156,525.6992 1156,525.6992 C1156,525.6992 1212.5,525.6992 1212.5,535.6992 L1212.5,573.6758 C1212.5,583.6758 1156,583.6758 1156,583.6758 C1156,583.6758 1099.5,583.6758 1099.5,573.6758 L1099.5,535.6992 " fill="#FEFECE" filter="url(#fcbhx53)" style="stroke: #000000; stroke-width: 1.5;"/><path d="M1099.5,535.6992 C1099.5,545.6992 1156,545.6992 1156,545.6992 C1156,545.6992 1212.5,545.6992 1212.5,535.6992 " fill="none" style="stroke: #000000; stroke-width: 1.5;"/><text fill="#000000" font-family="sans-serif" font-size="14" lengthAdjust="spacingAndGlyphs" textLength="46" x="1133" y="559.2344">Legacy</text><text fill="#000000" font-family="sans-serif" font-size="14" lengthAdjust="spacingAndGlyphs" textLength="93" x="1109.5" y="575.7227">Model Library</text><!--entity HVAC Systems Editor\n(Legacy Mode)--><rect fill="#FEFECE" filter="url(#fcbhx53)" height="62.9766" style="stroke: #A80036; stroke-width: 1.5;" width="183" x="881.5" y="523.1992"/><rect fill="#FEFECE" height="10" style="stroke: #A80036; stroke-width: 1.5;" width="15" x="1044.5" y="528.1992"/><rect fill="#FEFECE" height="2" style="stroke: #A80036; stroke-width: 1.5;" width="4" x="1042.5" y="530.1992"/><rect fill="#FEFECE" height="2" style="stroke: #A80036; stroke-width: 1.5;" width="4" x="1042.5" y="534.1992"/><text fill="#000000" font-family="sans-serif" font-size="14" lengthAdjust="spacingAndGlyphs" textLength="143" x="896.5" y="556.7344">HVAC Systems Editor</text><text fill="#000000" font-family="sans-serif" font-size="14" lengthAdjust="spacingAndGlyphs" textLength="98" x="919" y="573.2227">(Legacy Mode)</text><!--entity EnergyPlus\nSimulator Interface--><rect fill="#FEFECE" filter="url(#fcbhx53)" height="62.9766" style="stroke: #A80036; stroke-width: 1.5;" width="170" x="676" y="523.1992"/><rect fill="#FEFECE" height="10" style="stroke: #A80036; stroke-width: 1.5;" width="15" x="826" y="528.1992"/><rect fill="#FEFECE" height="2" style="stroke: #A80036; stroke-width: 1.5;" width="4" x="824" y="530.1992"/><rect fill="#FEFECE" height="2" style="stroke: #A80036; stroke-width: 1.5;" width="4" x="824" y="534.1992"/><text fill="#000000" font-family="sans-serif" font-size="14" lengthAdjust="spacingAndGlyphs" textLength="75" x="718.5" y="556.7344">EnergyPlus</text><text fill="#000000" font-family="sans-serif" font-size="14" lengthAdjust="spacingAndGlyphs" textLength="130" x="691" y="573.2227">Simulator Interface</text><!--entity SOEP\nModel Library--><path d="M1693.5,535.6992 C1693.5,525.6992 1750,525.6992 1750,525.6992 C1750,525.6992 1806.5,525.6992 1806.5,535.6992 L1806.5,573.6758 C1806.5,583.6758 1750,583.6758 1750,583.6758 C1750,583.6758 1693.5,583.6758 1693.5,573.6758 L1693.5,535.6992 " fill="#FEFECE" filter="url(#fcbhx53)" style="stroke: #000000; stroke-width: 1.5;"/><path d="M1693.5,535.6992 C1693.5,545.6992 1750,545.6992 1750,545.6992 C1750,545.6992 1806.5,545.6992 1806.5,535.6992 " fill="none" style="stroke: #000000; stroke-width: 1.5;"/><text fill="#000000" font-family="sans-serif" font-size="14" lengthAdjust="spacingAndGlyphs" textLength="35" x="1732.5" y="559.2344">SOEP</text><text fill="#000000" font-family="sans-serif" font-size="14" lengthAdjust="spacingAndGlyphs" textLength="93" x="1703.5" y="575.7227">Model Library</text><!--entity HVAC Systems Editor\n(SOEP Mode)--><rect fill="#FEFECE" filter="url(#fcbhx53)" height="62.9766" style="stroke: #A80036; stroke-width: 1.5;" width="183" x="1269.5" y="523.1992"/><rect fill="#FEFECE" height="10" style="stroke: #A80036; stroke-width: 1.5;" width="15" x="1432.5" y="528.1992"/><rect fill="#FEFECE" height="2" style="stroke: #A80036; stroke-width: 1.5;" width="4" x="1430.5" y="530.1992"/><rect fill="#FEFECE" height="2" style="stroke: #A80036; stroke-width: 1.5;" width="4" x="1430.5" y="534.1992"/><text fill="#000000" font-family="sans-serif" font-size="14" lengthAdjust="spacingAndGlyphs" textLength="143" x="1284.5" y="556.7344">HVAC Systems Editor</text><text fill="#000000" font-family="sans-serif" font-size="14" lengthAdjust="spacingAndGlyphs" textLength="87" x="1312.5" y="573.2227">(SOEP Mode)</text><!--entity SOEP\nSimulator Interface--><rect fill="#FEFECE" filter="url(#fcbhx53)" height="62.9766" style="stroke: #A80036; stroke-width: 1.5;" width="170" x="1488" y="523.1992"/><rect fill="#FEFECE" height="10" style="stroke: #A80036; stroke-width: 1.5;" width="15" x="1638" y="528.1992"/><rect fill="#FEFECE" height="2" style="stroke: #A80036; stroke-width: 1.5;" width="4" x="1636" y="530.1992"/><rect fill="#FEFECE" height="2" style="stroke: #A80036; stroke-width: 1.5;" width="4" x="1636" y="534.1992"/><text fill="#000000" font-family="sans-serif" font-size="14" lengthAdjust="spacingAndGlyphs" textLength="35" x="1550.5" y="556.7344">SOEP</text><text fill="#000000" font-family="sans-serif" font-size="14" lengthAdjust="spacingAndGlyphs" textLength="130" x="1503" y="573.2227">Simulator Interface</text><!--entity in.idf--><rect fill="#FEFECE" filter="url(#fcbhx53)" height="46.4883" style="stroke: #A80036; stroke-width: 1.5;" width="75" x="73.5" y="331.1992"/><rect fill="#FEFECE" height="10" style="stroke: #A80036; stroke-width: 1.5;" width="15" x="128.5" y="336.1992"/><rect fill="#FEFECE" height="2" style="stroke: #A80036; stroke-width: 1.5;" width="4" x="126.5" y="338.1992"/><rect fill="#FEFECE" height="2" style="stroke: #A80036; stroke-width: 1.5;" width="4" x="126.5" y="342.1992"/><text fill="#000000" font-family="sans-serif" font-size="14" lengthAdjust="spacingAndGlyphs" textLength="35" x="88.5" y="364.7344">in.idf</text><!--entity EnergyPlus.exe--><rect fill="#FEFECE" filter="url(#fcbhx53)" height="46.4883" style="stroke: #A80036; stroke-width: 1.5;" width="144" x="218" y="331.1992"/><rect fill="#FEFECE" height="10" style="stroke: #A80036; stroke-width: 1.5;" width="15" x="342" y="336.1992"/><rect fill="#FEFECE" height="2" style="stroke: #A80036; stroke-width: 1.5;" width="4" x="340" y="338.1992"/><rect fill="#FEFECE" height="2" style="stroke: #A80036; stroke-width: 1.5;" width="4" x="340" y="342.1992"/><text fill="#000000" font-family="sans-serif" font-size="14" lengthAdjust="spacingAndGlyphs" textLength="104" x="233" y="364.7344">EnergyPlus.exe</text><!--entity eplusout.sql--><rect fill="#FEFECE" filter="url(#fcbhx53)" height="46.4883" style="stroke: #A80036; stroke-width: 1.5;" width="124" x="432" y="331.1992"/><rect fill="#FEFECE" height="10" style="stroke: #A80036; stroke-width: 1.5;" width="15" x="536" y="336.1992"/><rect fill="#FEFECE" height="2" style="stroke: #A80036; stroke-width: 1.5;" width="4" x="534" y="338.1992"/><rect fill="#FEFECE" height="2" style="stroke: #A80036; stroke-width: 1.5;" width="4" x="534" y="342.1992"/><text fill="#000000" font-family="sans-serif" font-size="14" lengthAdjust="spacingAndGlyphs" textLength="84" x="447" y="364.7344">eplusout.sql</text><!--entity JModelica--><rect fill="#FEFECE" filter="url(#fcbhx53)" height="46.4883" style="stroke: #A80036; stroke-width: 1.5;" width="105" x="1731.5" y="978.6992"/><rect fill="#FEFECE" height="10" style="stroke: #A80036; stroke-width: 1.5;" width="15" x="1816.5" y="983.6992"/><rect fill="#FEFECE" height="2" style="stroke: #A80036; stroke-width: 1.5;" width="4" x="1814.5" y="985.6992"/><rect fill="#FEFECE" height="2" style="stroke: #A80036; stroke-width: 1.5;" width="4" x="1814.5" y="989.6992"/><text fill="#000000" font-family="sans-serif" font-size="14" lengthAdjust="spacingAndGlyphs" textLength="65" x="1746.5" y="1012.2344">JModelica</text><!--entity Conversion Script--><rect fill="#FEFECE" filter="url(#fcbhx53)" height="46.4883" style="stroke: #A80036; stroke-width: 1.5;" width="161" x="1713.5" y="771.1992"/><rect fill="#FEFECE" height="10" style="stroke: #A80036; stroke-width: 1.5;" width="15" x="1854.5" y="776.1992"/><rect fill="#FEFECE" height="2" style="stroke: #A80036; stroke-width: 1.5;" width="4" x="1852.5" y="778.1992"/><rect fill="#FEFECE" height="2" style="stroke: #A80036; stroke-width: 1.5;" width="4" x="1852.5" y="782.1992"/><text fill="#000000" font-family="sans-serif" font-size="14" lengthAdjust="spacingAndGlyphs" textLength="121" x="1728.5" y="804.7344">Conversion Script</text><!--entity mod_AST--><path d="M1972,775.1992 C1972,765.1992 2021,765.1992 2021,765.1992 C2021,765.1992 2070,765.1992 2070,775.1992 L2070,813.1758 C2070,823.1758 2021,823.1758 2021,823.1758 C2021,823.1758 1972,823.1758 1972,813.1758 L1972,775.1992 " fill="#FEFECE" filter="url(#fcbhx53)" style="stroke: #000000; stroke-width: 1.5;"/><path d="M1972,775.1992 C1972,785.1992 2021,785.1992 2021,785.1992 C2021,785.1992 2070,785.1992 2070,775.1992 " fill="none" style="stroke: #000000; stroke-width: 1.5;"/><text fill="#000000" font-family="sans-serif" font-size="14" lengthAdjust="spacingAndGlyphs" textLength="61" x="1990.5" y="798.7344">Modelica</text><text fill="#000000" font-family="sans-serif" font-size="14" lengthAdjust="spacingAndGlyphs" textLength="78" x="1982" y="815.2227">Library AST</text><!--entity Modelica\nBuildings Library--><path d="M1717,1130.1992 C1717,1120.1992 1784,1120.1992 1784,1120.1992 C1784,1120.1992 1851,1120.1992 1851,1130.1992 L1851,1168.1758 C1851,1178.1758 1784,1178.1758 1784,1178.1758 C1784,1178.1758 1717,1178.1758 1717,1168.1758 L1717,1130.1992 " fill="#FEFECE" filter="url(#fcbhx53)" style="stroke: #000000; stroke-width: 1.5;"/><path d="M1717,1130.1992 C1717,1140.1992 1784,1140.1992 1784,1140.1992 C1784,1140.1992 1851,1140.1992 1851,1130.1992 " fill="none" style="stroke: #000000; stroke-width: 1.5;"/><text fill="#000000" font-family="sans-serif" font-size="14" lengthAdjust="spacingAndGlyphs" textLength="61" x="1753.5" y="1153.7344">Modelica</text><text fill="#000000" font-family="sans-serif" font-size="14" lengthAdjust="spacingAndGlyphs" textLength="114" x="1727" y="1170.2227">Buildings Library</text><!--entity epdev--><ellipse cx="1096" cy="762.6992" fill="#FEFECE" filter="url(#fcbhx53)" rx="8" ry="8" style="stroke: #A80036; stroke-width: 2.0;"/><path d="M1096,770.6992 L1096,797.6992 M1083,778.6992 L1109,778.6992 M1096,797.6992 L1083,812.6992 M1096,797.6992 L1109,812.6992 " fill="#FEFECE" filter="url(#fcbhx53)" style="stroke: #A80036; stroke-width: 2.0;"/><text fill="#000000" font-family="sans-serif" font-size="14" lengthAdjust="spacingAndGlyphs" textLength="69" x="1061.5" y="833.2344">Developer</text><!--entity modev--><ellipse cx="2164" cy="970.1992" fill="#FEFECE" filter="url(#fcbhx53)" rx="8" ry="8" style="stroke: #A80036; stroke-width: 2.0;"/><path d="M2164,978.1992 L2164,1005.1992 M2151,986.1992 L2177,986.1992 M2164,1005.1992 L2151,1020.1992 M2164,1005.1992 L2177,1020.1992 " fill="#FEFECE" filter="url(#fcbhx53)" style="stroke: #A80036; stroke-width: 2.0;"/><text fill="#000000" font-family="sans-serif" font-size="14" lengthAdjust="spacingAndGlyphs" textLength="123" x="2102.5" y="1040.7344">Developer or User</text><!--entity budev--><ellipse cx="1784" cy="1291.6992" fill="#FEFECE" filter="url(#fcbhx53)" rx="8" ry="8" style="stroke: #A80036; stroke-width: 2.0;"/><path d="M1784,1299.6992 L1784,1326.6992 M1771,1307.6992 L1797,1307.6992 M1784,1326.6992 L1771,1341.6992 M1784,1326.6992 L1797,1341.6992 " fill="#FEFECE" filter="url(#fcbhx53)" style="stroke: #A80036; stroke-width: 2.0;"/><text fill="#000000" font-family="sans-serif" font-size="14" lengthAdjust="spacingAndGlyphs" textLength="69" x="1749.5" y="1362.2344">Developer</text><!--entity mouse--><ellipse cx="2087" cy="1291.6992" fill="#FEFECE" filter="url(#fcbhx53)" rx="8" ry="8" style="stroke: #A80036; stroke-width: 2.0;"/><path d="M2087,1299.6992 L2087,1326.6992 M2074,1307.6992 L2100,1307.6992 M2087,1326.6992 L2074,1341.6992 M2087,1326.6992 L2100,1341.6992 " fill="#FEFECE" filter="url(#fcbhx53)" style="stroke: #A80036; stroke-width: 2.0;"/><text fill="#000000" font-family="sans-serif" font-size="14" lengthAdjust="spacingAndGlyphs" textLength="31" x="2071.5" y="1362.2344">User</text><!--entity User-Provided\nModelica Library--><path d="M2102,1130.1992 C2102,1120.1992 2168,1120.1992 2168,1120.1992 C2168,1120.1992 2234,1120.1992 2234,1130.1992 L2234,1168.1758 C2234,1178.1758 2168,1178.1758 2168,1178.1758 C2168,1178.1758 2102,1178.1758 2102,1168.1758 L2102,1130.1992 " fill="#FEFECE" filter="url(#fcbhx53)" style="stroke: #000000; stroke-width: 1.5;"/><path d="M2102,1130.1992 C2102,1140.1992 2168,1140.1992 2168,1140.1992 C2168,1140.1992 2234,1140.1992 2234,1130.1992 " fill="none" style="stroke: #000000; stroke-width: 1.5;"/><text fill="#000000" font-family="sans-serif" font-size="14" lengthAdjust="spacingAndGlyphs" textLength="99" x="2118.5" y="1153.7344">User-Provided</text><text fill="#000000" font-family="sans-serif" font-size="14" lengthAdjust="spacingAndGlyphs" textLength="112" x="2112" y="1170.2227">Modelica Library</text><!--entity Application--><rect fill="#FEFECE" filter="url(#fcbhx53)" height="46.4883" style="stroke: #A80036; stroke-width: 1.5;" width="118" x="1284" y="34.1992"/><rect fill="#FEFECE" height="10" style="stroke: #A80036; stroke-width: 1.5;" width="15" x="1382" y="39.1992"/><rect fill="#FEFECE" height="2" style="stroke: #A80036; stroke-width: 1.5;" width="4" x="1380" y="41.1992"/><rect fill="#FEFECE" height="2" style="stroke: #A80036; stroke-width: 1.5;" width="4" x="1380" y="45.1992"/><text fill="#000000" font-family="sans-serif" font-size="14" lengthAdjust="spacingAndGlyphs" textLength="78" x="1299" y="67.7344">Application</text><!--entity Measures--><rect fill="#FEFECE" filter="url(#fcbhx53)" height="46.4883" style="stroke: #A80036; stroke-width: 1.5;" width="105" x="1143.5" y="34.1992"/><rect fill="#FEFECE" height="10" style="stroke: #A80036; stroke-width: 1.5;" width="15" x="1228.5" y="39.1992"/><rect fill="#FEFECE" height="2" style="stroke: #A80036; stroke-width: 1.5;" width="4" x="1226.5" y="41.1992"/><rect fill="#FEFECE" height="2" style="stroke: #A80036; stroke-width: 1.5;" width="4" x="1226.5" y="45.1992"/><text fill="#000000" font-family="sans-serif" font-size="14" lengthAdjust="spacingAndGlyphs" textLength="65" x="1158.5" y="67.7344">Measures</text><polygon fill="#FBFB77" filter="url(#fcbhx53)" points="1898.5,534.1992,1898.5,574.8203,2143.5,574.8203,2143.5,544.1992,2133.5,534.1992,1898.5,534.1992" style="stroke: #A80036; stroke-width: 1.0;"/><polygon fill="#FBFB77" points="1898.5,534.1992,1898.5,574.8203,2017,574.8203,2021,764.9362,2025,574.8203,2143.5,574.8203,2143.5,544.1992,2133.5,534.1992,1898.5,534.1992" style="stroke: #A80036; stroke-width: 1.0;"/><line style="stroke: #A80036; stroke-width: 1.0;" x1="2133.5" x2="2133.5" y1="534.1992" y2="544.1992"/><line style="stroke: #A80036; stroke-width: 1.0;" x1="2143.5" x2="2133.5" y1="544.1992" y2="544.1992"/><text fill="#000000" font-family="sans-serif" font-size="13" lengthAdjust="spacingAndGlyphs" textLength="224" x="1904.5" y="551.7676">Used as an intermediate format and</text><text fill="#000000" font-family="sans-serif" font-size="13" lengthAdjust="spacingAndGlyphs" textLength="198" x="1904.5" y="567.0781">to verify incompatible changes.</text><polygon fill="#FBFB77" filter="url(#fcbhx53)" points="1166,720.1992,1166,867.9941,1390,867.9941,1390,730.1992,1380,720.1992,1166,720.1992" style="stroke: #A80036; stroke-width: 1.0;"/><polygon fill="#FBFB77" points="1166,720.1992,1166,867.9941,1390,867.9941,1390,730.1992,1380,720.1992,1307.54,720.1992,1350.32,586.2622,1299.54,720.1992,1166,720.1992" style="stroke: #A80036; stroke-width: 1.0;"/><line style="stroke: #A80036; stroke-width: 1.0;" x1="1380" x2="1380" y1="720.1992" y2="730.1992"/><line style="stroke: #A80036; stroke-width: 1.0;" x1="1390" x2="1380" y1="730.1992" y2="730.1992"/><text fill="#000000" font-family="sans-serif" font-size="13" lengthAdjust="spacingAndGlyphs" textLength="180" x="1172" y="737.7676">Allows free graphical editing</text><text fill="#000000" font-family="sans-serif" font-size="13" lengthAdjust="spacingAndGlyphs" textLength="189" x="1172" y="753.0781">of Modelica models. However,</text><text fill="#000000" font-family="sans-serif" font-size="13" lengthAdjust="spacingAndGlyphs" textLength="203" x="1172" y="768.3887">after editing, many OS Measures</text><text fill="#000000" font-family="sans-serif" font-size="13" lengthAdjust="spacingAndGlyphs" textLength="170" x="1172" y="783.6992">cannot be applied anymore</text><text fill="#000000" font-family="sans-serif" font-size="13" lengthAdjust="spacingAndGlyphs" textLength="203" x="1172" y="799.0098">(as models may be incompatible</text><text fill="#000000" font-family="sans-serif" font-size="13" lengthAdjust="spacingAndGlyphs" textLength="122" x="1172" y="814.3203">with the Measures).</text><text fill="#000000" font-family="sans-serif" font-size="13" lengthAdjust="spacingAndGlyphs" textLength="191" x="1172" y="829.6309">However, OS can still simulate</text><text fill="#000000" font-family="sans-serif" font-size="13" lengthAdjust="spacingAndGlyphs" textLength="182" x="1172" y="844.9414">these models and parse their</text><text fill="#000000" font-family="sans-serif" font-size="13" lengthAdjust="spacingAndGlyphs" textLength="53" x="1172" y="860.252">outputs.</text><polygon fill="#FBFB77" filter="url(#fcbhx53)" points="2138,1257.1992,2138,1389.6836,2360,1389.6836,2360,1267.1992,2350,1257.1992,2138,1257.1992" style="stroke: #A80036; stroke-width: 1.0;"/><line style="stroke: #A80036; stroke-width: 1.0;" x1="2350" x2="2350" y1="1257.1992" y2="1267.1992"/><line style="stroke: #A80036; stroke-width: 1.0;" x1="2360" x2="2350" y1="1267.1992" y2="1267.1992"/><text fill="#000000" font-family="sans-serif" font-size="13" lengthAdjust="spacingAndGlyphs" textLength="157" x="2144" y="1274.7676">Allows companies to use</text><text fill="#000000" font-family="sans-serif" font-size="13" lengthAdjust="spacingAndGlyphs" textLength="174" x="2144" y="1290.0781">their own Modelica libraries</text><text fill="#000000" font-family="sans-serif" font-size="13" lengthAdjust="spacingAndGlyphs" textLength="201" x="2144" y="1305.3887">with custom HVAC systems and</text><text fill="#000000" font-family="sans-serif" font-size="13" lengthAdjust="spacingAndGlyphs" textLength="136" x="2144" y="1320.6992">control sequences, or</text><text fill="#000000" font-family="sans-serif" font-size="13" lengthAdjust="spacingAndGlyphs" textLength="158" x="2144" y="1336.0098">to integrate an electronic</text><text fill="#000000" font-family="sans-serif" font-size="13" lengthAdjust="spacingAndGlyphs" textLength="145" x="2144" y="1351.3203">equipment catalog or a</text><text fill="#000000" font-family="sans-serif" font-size="13" lengthAdjust="spacingAndGlyphs" textLength="186" x="2144" y="1366.6309">library used for an equipment</text><text fill="#000000" font-family="sans-serif" font-size="13" lengthAdjust="spacingAndGlyphs" textLength="65" x="2144" y="1381.9414">sales tool.</text><polygon fill="#FBFB77" filter="url(#fcbhx53)" points="556,29.1992,556,85.1309,700,85.1309,700,39.1992,690,29.1992,556,29.1992" style="stroke: #A80036; stroke-width: 1.0;"/><line style="stroke: #A80036; stroke-width: 1.0;" x1="690" x2="690" y1="29.1992" y2="39.1992"/><line style="stroke: #A80036; stroke-width: 1.0;" x1="700" x2="690" y1="39.1992" y2="39.1992"/><text fill="#000000" font-family="sans-serif" font-size="13" lengthAdjust="spacingAndGlyphs" textLength="106" x="562" y="46.7676">Not yet shown is</text><text fill="#000000" font-family="sans-serif" font-size="13" lengthAdjust="spacingAndGlyphs" textLength="103" x="562" y="62.0781">how to integrate</text><text fill="#000000" font-family="sans-serif" font-size="13" lengthAdjust="spacingAndGlyphs" textLength="123" x="562" y="77.3887">the building model.</text><polygon fill="#FBFB77" filter="url(#fcbhx53)" points="1471.5,36.6992,1471.5,77.3203,1626.5,77.3203,1626.5,46.6992,1616.5,36.6992,1471.5,36.6992" style="stroke: #A80036; stroke-width: 1.0;"/><polygon fill="#FBFB77" points="1471.5,36.6992,1471.5,53.1992,1402.14,57.1992,1471.5,61.1992,1471.5,77.3203,1626.5,77.3203,1626.5,46.6992,1616.5,36.6992,1471.5,36.6992" style="stroke: #A80036; stroke-width: 1.0;"/><line style="stroke: #A80036; stroke-width: 1.0;" x1="1616.5" x2="1616.5" y1="36.6992" y2="46.6992"/><line style="stroke: #A80036; stroke-width: 1.0;" x1="1626.5" x2="1616.5" y1="46.6992" y2="46.6992"/><text fill="#000000" font-family="sans-serif" font-size="13" lengthAdjust="spacingAndGlyphs" textLength="134" x="1477.5" y="54.2676">Application that uses</text><text fill="#000000" font-family="sans-serif" font-size="13" lengthAdjust="spacingAndGlyphs" textLength="130" x="1477.5" y="69.5781">the OpenStudio SDK.</text><path d="M1233,233.3392 C1233,257.5392 1233,303.3292 1233,330.7692 " fill="none" style="stroke: #A80036; stroke-width: 1.0;"/><path d="M1224.47,377.1992 C1210.96,412.0232 1184.57,480.0472 1168.79,520.7232 " fill="none" style="stroke: #A80036; stroke-width: 1.0;"/><polygon fill="#A80036" points="1166.92,525.5442,1173.9067,518.6027,1168.73,520.8833,1166.4493,515.7066,1166.92,525.5442" style="stroke: #A80036; stroke-width: 1.0;"/><text fill="#000000" font-family="sans-serif" font-size="13" lengthAdjust="spacingAndGlyphs" textLength="63" x="1205" y="453.7676">integrates</text><path d="M1196.35,374.9892 C1172.95,388.1792 1142.36,406.4832 1117,425.1992 C1077.39,454.4272 1035.82,492.4252 1007.59,519.5032 " fill="none" style="stroke: #A80036; stroke-width: 1.0;"/><polygon fill="#A80036" points="1003.866,523.0832,1013.13,519.74,1007.4744,519.6221,1007.5923,513.9665,1003.866,523.0832" style="stroke: #A80036; stroke-width: 1.0;"/><text fill="#000000" font-family="sans-serif" font-size="13" lengthAdjust="spacingAndGlyphs" textLength="63" x="1118" y="453.7676">integrates</text><path d="M1196.47,362.6292 C1127.91,377.6192 976.691,415.6562 864,480.1992 C843.442,491.9732 821.926,506.8712 803.907,520.1712 " fill="none" style="stroke: #A80036; stroke-width: 1.0;"/><polygon fill="#A80036" points="799.881,523.1592,809.4921,521.0081,803.8962,520.1796,804.7247,514.5837,799.881,523.1592" style="stroke: #A80036; stroke-width: 1.0;"/><text fill="#000000" font-family="sans-serif" font-size="13" lengthAdjust="spacingAndGlyphs" textLength="63" x="982" y="453.7676">integrates</text><path d="M1269.8,358.3292 C1349.66,366.5892 1542.45,394.5972 1676,480.1992 C1693.56,491.4532 1710.29,507.4582 1723.4,521.6602 " fill="none" style="stroke: #A80036; stroke-width: 1.0;"/><polygon fill="#A80036" points="1726.99,525.6132,1723.8948,516.2634,1723.6263,521.9138,1717.9758,521.6453,1726.99,525.6132" style="stroke: #A80036; stroke-width: 1.0;"/><text fill="#000000" font-family="sans-serif" font-size="13" lengthAdjust="spacingAndGlyphs" textLength="63" x="1655" y="453.7676">integrates</text><path d="M1247.19,377.1992 C1269.29,411.4832 1312.15,477.9452 1338.5,518.8102 " fill="none" style="stroke: #A80036; stroke-width: 1.0;"/><polygon fill="#A80036" points="1341.32,523.1732,1339.8015,513.4421,1338.6091,518.9719,1333.0794,517.7795,1341.32,523.1732" style="stroke: #A80036; stroke-width: 1.0;"/><text fill="#000000" font-family="sans-serif" font-size="13" lengthAdjust="spacingAndGlyphs" textLength="63" x="1306" y="453.7676">integrates</text><path d="M1269.5,371.7192 C1299.1,385.3792 1341.7,405.6392 1378,425.1992 C1419.94,447.7992 1430.13,454.1202 1470,480.1992 C1488.98,492.6162 1509.41,506.9732 1527.02,519.6852 " fill="none" style="stroke: #A80036; stroke-width: 1.0;"/><polygon fill="#A80036" points="1531.44,522.8802,1526.4894,514.366,1527.3878,519.9511,1521.8028,520.8496,1531.44,522.8802" style="stroke: #A80036; stroke-width: 1.0;"/><text fill="#000000" font-family="sans-serif" font-size="13" lengthAdjust="spacingAndGlyphs" textLength="63" x="1457" y="453.7676">integrates</text><path d="M1147.6,588.9362 C1136.79,631.7472 1118,706.1312 1106.32,752.3462 " fill="none" style="stroke: #A80036; stroke-width: 1.0; stroke-dasharray: 7.0,7.0;"/><polygon fill="#A80036" points="1148.88,583.8762,1142.7962,591.6214,1147.6545,588.7237,1150.5522,593.5821,1148.88,583.8762" style="stroke: #A80036; stroke-width: 1.0;"/><text fill="#000000" font-family="sans-serif" font-size="13" lengthAdjust="spacingAndGlyphs" textLength="50" x="1131" y="679.2676">updates</text><path d="M45.7858,401.2193 C45.9667,401.6206 46.1517,402.0199 46.3409,402.4171 C46.7192,403.2115 47.1143,403.9973 47.5269,404.7725 C48.3521,406.3231 49.2473,407.8317 50.2182,409.2838 C52.1601,412.1878 54.4051,414.8655 57,417.1992 C147.311,498.4232 508.946,535.1292 675.828,547.9932 " fill="none" style="stroke: #A80036; stroke-width: 1.0; stroke-dasharray: 7.0,7.0;"/><polygon fill="#A80036" points="45.7858,401.2193,45.8377,411.068,47.8405,405.7776,53.1309,407.7805,45.7858,401.2193" style="stroke: #A80036; stroke-width: 1.0;"/><text fill="#000000" font-family="sans-serif" font-size="13" lengthAdjust="spacingAndGlyphs" textLength="86" x="170.5" y="438.7676">writes inputs,</text><text fill="#000000" font-family="sans-serif" font-size="13" lengthAdjust="spacingAndGlyphs" textLength="103" x="162" y="454.0781">runs simulation,</text><text fill="#000000" font-family="sans-serif" font-size="13" lengthAdjust="spacingAndGlyphs" textLength="87" x="170" y="469.3887">reads outputs</text><path d="M148.758,354.1992 C170.125,354.1992 191.493,354.1992 212.861,354.1992 " fill="none" style="stroke: #A80036; stroke-width: 1.0;"/><polygon fill="#A80036" points="218,354.1992,209,350.1992,213,354.1992,209,358.1992,218,354.1992" style="stroke: #A80036; stroke-width: 1.0;"/><path d="M362.117,354.1992 C383.659,354.1992 405.2,354.1992 426.741,354.1992 " fill="none" style="stroke: #A80036; stroke-width: 1.0;"/><polygon fill="#A80036" points="431.922,354.1992,422.922,350.1992,426.922,354.1992,422.922,358.1992,431.922,354.1992" style="stroke: #A80036; stroke-width: 1.0;"/><path d="M1368.6,586.5602 C1384.71,646.7602 1427.27,781.5392 1504,868.1992 C1563.15,935.0082 1663.26,970.8762 1726.37,987.8452 " fill="none" style="stroke: #A80036; stroke-width: 1.0; stroke-dasharray: 7.0,7.0;"/><polygon fill="#A80036" points="1731.23,989.1332,1723.5439,982.975,1726.3945,987.8611,1721.5085,990.7118,1731.23,989.1332" style="stroke: #A80036; stroke-width: 1.0;"/><text fill="#000000" font-family="sans-serif" font-size="13" lengthAdjust="spacingAndGlyphs" textLength="41" x="1505" y="791.7676">parses</text><text fill="#000000" font-family="sans-serif" font-size="13" lengthAdjust="spacingAndGlyphs" textLength="24" x="1513.5" y="807.0781">AST</text><path d="M1756.13,588.7932 C1765.25,637.9912 1782.13,729.1122 1789.89,771.0372 " fill="none" style="stroke: #A80036; stroke-width: 1.0; stroke-dasharray: 7.0,7.0;"/><polygon fill="#A80036" points="1755.22,583.8762,1752.9256,593.4541,1756.1304,588.7926,1760.7918,591.9975,1755.22,583.8762" style="stroke: #A80036; stroke-width: 1.0;"/><text fill="#000000" font-family="sans-serif" font-size="13" lengthAdjust="spacingAndGlyphs" textLength="106" x="1798.5" y="671.7676">augments library</text><text fill="#000000" font-family="sans-serif" font-size="13" lengthAdjust="spacingAndGlyphs" textLength="153" x="1775" y="687.0781">by generating C++ code</text><path d="M1792.91,817.5822 C1791.06,855.5902 1787.31,932.6052 1785.32,973.5982 " fill="none" style="stroke: #A80036; stroke-width: 1.0; stroke-dasharray: 7.0,7.0;"/><polygon fill="#A80036" points="1785.07,978.6542,1789.5031,969.8595,1785.3133,973.6601,1781.5126,969.4703,1785.07,978.6542" style="stroke: #A80036; stroke-width: 1.0;"/><text fill="#000000" font-family="sans-serif" font-size="13" lengthAdjust="spacingAndGlyphs" textLength="41" x="1789" y="911.7676">parses</text><text fill="#000000" font-family="sans-serif" font-size="13" lengthAdjust="spacingAndGlyphs" textLength="24" x="1797.5" y="927.0781">AST</text><path d="M1566.38,586.5612 C1555.42,645.6142 1539.49,776.8352 1591,868.1992 C1620.72,920.9122 1681.15,957.1282 1726.52,978.2062 " fill="none" style="stroke: #A80036; stroke-width: 1.0; stroke-dasharray: 7.0,7.0;"/><polygon fill="#A80036" points="1731.14,980.3242,1724.629,972.9346,1726.5958,978.2385,1721.2919,980.2054,1731.14,980.3242" style="stroke: #A80036; stroke-width: 1.0;"/><text fill="#000000" font-family="sans-serif" font-size="13" lengthAdjust="spacingAndGlyphs" textLength="86" x="1600.5" y="784.2676">writes inputs,</text><text fill="#000000" font-family="sans-serif" font-size="13" lengthAdjust="spacingAndGlyphs" textLength="103" x="1592" y="799.5781">runs simulation,</text><text fill="#000000" font-family="sans-serif" font-size="13" lengthAdjust="spacingAndGlyphs" textLength="87" x="1600" y="814.8887">reads outputs</text><path d="M1966.9,794.1992 C1939.34,794.1992 1905.26,794.1992 1874.67,794.1992 " fill="none" style="stroke: #A80036; stroke-width: 1.0;"/><polygon fill="#A80036" points="1971.97,794.1992,1962.97,790.1992,1966.97,794.1992,1962.97,798.1992,1971.97,794.1992" style="stroke: #A80036; stroke-width: 1.0;"/><text fill="#000000" font-family="sans-serif" font-size="13" lengthAdjust="spacingAndGlyphs" textLength="61" x="1892.75" y="787.7676">generates</text><path d="M1784,1024.7972 C1784,1048.8212 1784,1087.4742 1784,1115.1192 " fill="none" style="stroke: #A80036; stroke-width: 1.0;"/><polygon fill="#A80036" points="1784,1120.1462,1788,1111.1462,1784,1115.1462,1780,1111.1462,1784,1120.1462" style="stroke: #A80036; stroke-width: 1.0;"/><text fill="#000000" font-family="sans-serif" font-size="13" lengthAdjust="spacingAndGlyphs" textLength="49" x="1785" y="1086.7676">imports</text><path d="M1838.59,819.9652 C1904.47,856.5532 2028.02,925.1742 2102.47,966.5262 " fill="none" style="stroke: #A80036; stroke-width: 1.0; stroke-dasharray: 7.0,7.0;"/><polygon fill="#A80036" points="1833.95,817.3862,1839.8748,825.2536,1838.3208,819.8144,1843.76,818.2604,1833.95,817.3862" style="stroke: #A80036; stroke-width: 1.0;"/><text fill="#000000" font-family="sans-serif" font-size="13" lengthAdjust="spacingAndGlyphs" textLength="49" x="2034" y="919.2676">invokes</text><path d="M1784,1183.3062 C1784,1211.3582 1784,1251.6852 1784,1281.6652 " fill="none" style="stroke: #A80036; stroke-width: 1.0; stroke-dasharray: 7.0,7.0;"/><polygon fill="#A80036" points="1784,1178.2172,1780,1187.2172,1784,1183.2172,1788,1187.2172,1784,1178.2172" style="stroke: #A80036; stroke-width: 1.0;"/><text fill="#000000" font-family="sans-serif" font-size="13" lengthAdjust="spacingAndGlyphs" textLength="109" x="1785" y="1223.7676">adds annotations</text><path d="M2132.26,1182.2852 C2124.61,1190.7012 2117.25,1200.2342 2112,1210.1992 C2100.38,1232.2282 2094.15,1259.4472 2090.81,1281.5362 " fill="none" style="stroke: #A80036; stroke-width: 1.0; stroke-dasharray: 7.0,7.0;"/><polygon fill="#A80036" points="2136.03,1178.2452,2126.9577,1182.0784,2132.6115,1181.8941,2132.7958,1187.5479,2136.03,1178.2452" style="stroke: #A80036; stroke-width: 1.0;"/><text fill="#000000" font-family="sans-serif" font-size="13" lengthAdjust="spacingAndGlyphs" textLength="109" x="2113" y="1223.7676">adds annotations</text><path d="M1327.47,80.3592 C1306.02,110.9792 1267.65,165.7492 1247.02,195.1892 " fill="none" style="stroke: #A80036; stroke-width: 1.0; stroke-dasharray: 7.0,7.0;"/><polygon fill="#A80036" points="1244.11,199.3392,1252.5493,194.262,1246.9783,195.2437,1245.9965,189.6727,1244.11,199.3392" style="stroke: #A80036; stroke-width: 1.0;"/><text fill="#000000" font-family="sans-serif" font-size="13" lengthAdjust="spacingAndGlyphs" textLength="29" x="1303" y="128.7676">uses</text><path d="M1202.37,80.3792 C1206.99,96.8192 1213.23,119.8192 1218,140.1992 C1222.2,158.1592 1226.26,178.7192 1229.09,193.7592 " fill="none" style="stroke: #A80036; stroke-width: 1.0; stroke-dasharray: 7.0,7.0;"/><polygon fill="#A80036" points="1230.08,199.0392,1232.3663,189.4594,1229.1655,194.1236,1224.5013,190.9227,1230.08,199.0392" style="stroke: #A80036; stroke-width: 1.0;"/><text fill="#000000" font-family="sans-serif" font-size="13" lengthAdjust="spacingAndGlyphs" textLength="29" x="1217" y="128.7676">uses</text><path d="M1836.59,1022.6252 C1904.12,1048.2142 2021.58,1092.7202 2097,1121.2972 " fill="none" style="stroke: #A80036; stroke-width: 1.0;"/><polygon fill="#A80036" points="2101.91,1123.1562,2094.9109,1116.2271,2097.2343,1121.3848,2092.0766,1123.7082,2101.91,1123.1562" style="stroke: #A80036; stroke-width: 1.0;"/><text fill="#000000" font-family="sans-serif" font-size="13" lengthAdjust="spacingAndGlyphs" textLength="49" x="2011" y="1086.7676">imports</text><path d="M2202.51,1178.4972 C2211.75,1187.7022 2220.86,1198.5702 2227,1210.1992 C2234.54,1224.4832 2239.5,1241.0242 2242.77,1256.9362 " fill="none" style="stroke: #A80036; stroke-width: 1.0; stroke-dasharray: 7.0,7.0;"/><path d="M628,85.5492 C628,96.6192 628,110.0923 628,124.1155 C628,131.127 628,138.2761 628,145.331 C628,148.8585 628,152.3624 628,155.8138 " fill="none" style="stroke: #A80036; stroke-width: 1.0; stroke-dasharray: 7.0,7.0;"/></g></svg>