<?xml version="1.0" encoding="UTF-8" standalone="no"?><svg xmlns="http://www.w3.org/2000/svg" xmlns:xlink="http://www.w3.org/1999/xlink" contentScriptType="application/ecmascript" contentStyleType="text/css" height="1326px" preserveAspectRatio="none" style="width:971px;height:1326px;" version="1.1" viewBox="0 0 971 1326" width="971px" zoomAndPan="magnify"><defs><filter height="300%" id="fmswile" width="300%" x="-1" y="-1"><feGaussianBlur result="blurOut" stdDeviation="2.0"/><feColorMatrix in="blurOut" result="blurOut2" type="matrix" values="0 0 0 0 0 0 0 0 0 0 0 0 0 0 0 0 0 0 .4 0"/><feOffset dx="4.0" dy="4.0" in="blurOut2" result="blurOut3"/><feBlend in="SourceGraphic" in2="blurOut3" mode="normal"/></filter></defs><g><text fill="#000000" font-family="sans-serif" font-size="18" lengthAdjust="spacingAndGlyphs" textLength="250" x="378" y="17.4023">Overall software architecture</text><!--cluster OpenStudio--><polygon fill="#FFFFFF" filter="url(#fmswile)" points="351,156.1992,441,156.1992,448,178.6875,964,178.6875,964,487.1992,351,487.1992,351,156.1992" style="stroke: #000000; stroke-width: 2.0;"/><line style="stroke: #000000; stroke-width: 2.0;" x1="351" x2="448" y1="178.6875" y2="178.6875"/><text fill="#000000" font-family="sans-serif" font-size="14" font-weight="bold" lengthAdjust="spacingAndGlyphs" textLength="84" x="355" y="171.7344">OpenStudio</text><!--cluster SOEP--><polygon fill="#FFFFFF" filter="url(#fmswile)" points="249,576.6992,292,576.6992,299,599.1875,632,599.1875,632,1138.1992,249,1138.1992,249,576.6992" style="stroke: #000000; stroke-width: 2.0;"/><line style="stroke: #000000; stroke-width: 2.0;" x1="249" x2="299" y1="599.1875" y2="599.1875"/><text fill="#000000" font-family="sans-serif" font-size="14" font-weight="bold" lengthAdjust="spacingAndGlyphs" textLength="37" x="253" y="592.2344">SOEP</text><!--entity API--><ellipse cx="668" cy="208.1992" fill="#FEFECE" filter="url(#fmswile)" rx="8" ry="8" style="stroke: #A80036; stroke-width: 2.0;"/><text fill="#000000" font-family="sans-serif" font-size="14" lengthAdjust="spacingAndGlyphs" textLength="22" x="657" y="230.7344">API</text><!--entity Core--><rect fill="#FEFECE" filter="url(#fmswile)" height="46.4883" style="stroke: #A80036; stroke-width: 1.5;" width="73" x="631.5" y="294.1992"/><rect fill="#FEFECE" height="10" style="stroke: #A80036; stroke-width: 1.5;" width="15" x="684.5" y="299.1992"/><rect fill="#FEFECE" height="2" style="stroke: #A80036; stroke-width: 1.5;" width="4" x="682.5" y="301.1992"/><rect fill="#FEFECE" height="2" style="stroke: #A80036; stroke-width: 1.5;" width="4" x="682.5" y="305.1992"/><text fill="#000000" font-family="sans-serif" font-size="14" lengthAdjust="spacingAndGlyphs" textLength="33" x="646.5" y="327.7344">Core</text><!--entity Model Library--><rect fill="#FEFECE" filter="url(#fmswile)" height="46.4883" style="stroke: #A80036; stroke-width: 1.5;" width="133" x="601.5" y="417.1992"/><rect fill="#FEFECE" height="10" style="stroke: #A80036; stroke-width: 1.5;" width="15" x="714.5" y="422.1992"/><rect fill="#FEFECE" height="2" style="stroke: #A80036; stroke-width: 1.5;" width="4" x="712.5" y="424.1992"/><rect fill="#FEFECE" height="2" style="stroke: #A80036; stroke-width: 1.5;" width="4" x="712.5" y="428.1992"/><text fill="#000000" font-family="sans-serif" font-size="14" lengthAdjust="spacingAndGlyphs" textLength="93" x="616.5" y="450.7344">Model Library</text><!--entity HVAC Systems Editor--><rect fill="#FEFECE" filter="url(#fmswile)" height="46.4883" style="stroke: #A80036; stroke-width: 1.5;" width="183" x="383.5" y="417.1992"/><rect fill="#FEFECE" height="10" style="stroke: #A80036; stroke-width: 1.5;" width="15" x="546.5" y="422.1992"/><rect fill="#FEFECE" height="2" style="stroke: #A80036; stroke-width: 1.5;" width="4" x="544.5" y="424.1992"/><rect fill="#FEFECE" height="2" style="stroke: #A80036; stroke-width: 1.5;" width="4" x="544.5" y="428.1992"/><text fill="#000000" font-family="sans-serif" font-size="14" lengthAdjust="spacingAndGlyphs" textLength="143" x="398.5" y="450.7344">HVAC Systems Editor</text><!--entity Simulator Interface--><rect fill="#FEFECE" filter="url(#fmswile)" height="46.4883" style="stroke: #A80036; stroke-width: 1.5;" width="170" x="770" y="417.1992"/><rect fill="#FEFECE" height="10" style="stroke: #A80036; stroke-width: 1.5;" width="15" x="920" y="422.1992"/><rect fill="#FEFECE" height="2" style="stroke: #A80036; stroke-width: 1.5;" width="4" x="918" y="424.1992"/><rect fill="#FEFECE" height="2" style="stroke: #A80036; stroke-width: 1.5;" width="4" x="918" y="428.1992"/><text fill="#000000" font-family="sans-serif" font-size="14" lengthAdjust="spacingAndGlyphs" textLength="130" x="785" y="450.7344">Simulator Interface</text><!--entity Schematic Editor--><rect fill="#FEFECE" filter="url(#fmswile)" height="46.4883" style="stroke: #A80036; stroke-width: 1.5;" width="154" x="265" y="798.1992"/><rect fill="#FEFECE" height="10" style="stroke: #A80036; stroke-width: 1.5;" width="15" x="399" y="803.1992"/><rect fill="#FEFECE" height="2" style="stroke: #A80036; stroke-width: 1.5;" width="4" x="397" y="805.1992"/><rect fill="#FEFECE" height="2" style="stroke: #A80036; stroke-width: 1.5;" width="4" x="397" y="809.1992"/><text fill="#000000" font-family="sans-serif" font-size="14" lengthAdjust="spacingAndGlyphs" textLength="114" x="280" y="831.7344">Schematic Editor</text><!--entity JModelica--><rect fill="#FEFECE" filter="url(#fmswile)" height="46.4883" style="stroke: #A80036; stroke-width: 1.5;" width="105" x="482.5" y="936.1992"/><rect fill="#FEFECE" height="10" style="stroke: #A80036; stroke-width: 1.5;" width="15" x="567.5" y="941.1992"/><rect fill="#FEFECE" height="2" style="stroke: #A80036; stroke-width: 1.5;" width="4" x="565.5" y="943.1992"/><rect fill="#FEFECE" height="2" style="stroke: #A80036; stroke-width: 1.5;" width="4" x="565.5" y="947.1992"/><text fill="#000000" font-family="sans-serif" font-size="14" lengthAdjust="spacingAndGlyphs" textLength="65" x="497.5" y="969.7344">JModelica</text><!--entity Conversion Script--><rect fill="#FEFECE" filter="url(#fmswile)" height="46.4883" style="stroke: #A80036; stroke-width: 1.5;" width="161" x="454.5" y="798.1992"/><rect fill="#FEFECE" height="10" style="stroke: #A80036; stroke-width: 1.5;" width="15" x="595.5" y="803.1992"/><rect fill="#FEFECE" height="2" style="stroke: #A80036; stroke-width: 1.5;" width="4" x="593.5" y="805.1992"/><rect fill="#FEFECE" height="2" style="stroke: #A80036; stroke-width: 1.5;" width="4" x="593.5" y="809.1992"/><text fill="#000000" font-family="sans-serif" font-size="14" lengthAdjust="spacingAndGlyphs" textLength="121" x="469.5" y="831.7344">Conversion Script</text><!--entity Modelica Library AST--><path d="M265.5,621.6992 C265.5,611.6992 347,611.6992 347,611.6992 C347,611.6992 428.5,611.6992 428.5,621.6992 L428.5,643.1875 C428.5,653.1875 347,653.1875 347,653.1875 C347,653.1875 265.5,653.1875 265.5,643.1875 L265.5,621.6992 " fill="#FEFECE" filter="url(#fmswile)" style="stroke: #000000; stroke-width: 1.5;"/><path d="M265.5,621.6992 C265.5,631.6992 347,631.6992 347,631.6992 C347,631.6992 428.5,631.6992 428.5,621.6992 " fill="none" style="stroke: #000000; stroke-width: 1.5;"/><text fill="#000000" font-family="sans-serif" font-size="14" lengthAdjust="spacingAndGlyphs" textLength="143" x="275.5" y="645.2344">Modelica Library AST</text><!--entity Modelica\nBuildings Library--><rect fill="#FEFECE" filter="url(#fmswile)" height="62.9766" style="stroke: #A80036; stroke-width: 1.5;" width="154" x="458" y="1059.1992"/><rect fill="#FEFECE" height="10" style="stroke: #A80036; stroke-width: 1.5;" width="15" x="592" y="1064.1992"/><rect fill="#FEFECE" height="2" style="stroke: #A80036; stroke-width: 1.5;" width="4" x="590" y="1066.1992"/><rect fill="#FEFECE" height="2" style="stroke: #A80036; stroke-width: 1.5;" width="4" x="590" y="1070.1992"/><text fill="#000000" font-family="sans-serif" font-size="14" lengthAdjust="spacingAndGlyphs" textLength="61" x="499.5" y="1092.7344">Modelica</text><text fill="#000000" font-family="sans-serif" font-size="14" lengthAdjust="spacingAndGlyphs" textLength="114" x="473" y="1109.2227">Buildings Library</text><!--entity Application--><rect fill="#FEFECE" filter="url(#fmswile)" height="46.4883" style="stroke: #A80036; stroke-width: 1.5;" width="118" x="609" y="34.1992"/><rect fill="#FEFECE" height="10" style="stroke: #A80036; stroke-width: 1.5;" width="15" x="707" y="39.1992"/><rect fill="#FEFECE" height="2" style="stroke: #A80036; stroke-width: 1.5;" width="4" x="705" y="41.1992"/><rect fill="#FEFECE" height="2" style="stroke: #A80036; stroke-width: 1.5;" width="4" x="705" y="45.1992"/><text fill="#000000" font-family="sans-serif" font-size="14" lengthAdjust="spacingAndGlyphs" textLength="78" x="624" y="67.7344">Application</text><!--entity User-Provided\nModelica Library--><rect fill="#FEFECE" filter="url(#fmswile)" height="62.9766" style="stroke: #A80036; stroke-width: 1.5;" width="152" x="648" y="1059.1992"/><rect fill="#FEFECE" height="10" style="stroke: #A80036; stroke-width: 1.5;" width="15" x="780" y="1064.1992"/><rect fill="#FEFECE" height="2" style="stroke: #A80036; stroke-width: 1.5;" width="4" x="778" y="1066.1992"/><rect fill="#FEFECE" height="2" style="stroke: #A80036; stroke-width: 1.5;" width="4" x="778" y="1070.1992"/><text fill="#000000" font-family="sans-serif" font-size="14" lengthAdjust="spacingAndGlyphs" textLength="99" x="669.5" y="1092.7344">User-Provided</text><text fill="#000000" font-family="sans-serif" font-size="14" lengthAdjust="spacingAndGlyphs" textLength="112" x="663" y="1109.2227">Modelica Library</text><polygon fill="#FBFB77" filter="url(#fmswile)" points="6,558.1992,6,705.9941,230,705.9941,230,568.1992,220,558.1992,6,558.1992" style="stroke: #A80036; stroke-width: 1.0;"/><polygon fill="#FBFB77" points="6,558.1992,6,705.9941,201.567,705.9941,315.397,797.9902,209.567,705.9941,230,705.9941,230,568.1992,220,558.1992,6,558.1992" style="stroke: #A80036; stroke-width: 1.0;"/><line style="stroke: #A80036; stroke-width: 1.0;" x1="220" x2="220" y1="558.1992" y2="568.1992"/><line style="stroke: #A80036; stroke-width: 1.0;" x1="230" x2="220" y1="568.1992" y2="568.1992"/><text fill="#000000" font-family="sans-serif" font-size="13" lengthAdjust="spacingAndGlyphs" textLength="180" x="12" y="575.7676">Allows free graphical editing</text><text fill="#000000" font-family="sans-serif" font-size="13" lengthAdjust="spacingAndGlyphs" textLength="189" x="12" y="591.0781">of Modelica models. However,</text><text fill="#000000" font-family="sans-serif" font-size="13" lengthAdjust="spacingAndGlyphs" textLength="203" x="12" y="606.3887">after editing, many OS Measures</text><text fill="#000000" font-family="sans-serif" font-size="13" lengthAdjust="spacingAndGlyphs" textLength="170" x="12" y="621.6992">cannot be applied anymore</text><text fill="#000000" font-family="sans-serif" font-size="13" lengthAdjust="spacingAndGlyphs" textLength="203" x="12" y="637.0098">(as models may be incompatible</text><text fill="#000000" font-family="sans-serif" font-size="13" lengthAdjust="spacingAndGlyphs" textLength="122" x="12" y="652.3203">with the Measures).</text><text fill="#000000" font-family="sans-serif" font-size="13" lengthAdjust="spacingAndGlyphs" textLength="191" x="12" y="667.6309">However, OS can still simulate</text><text fill="#000000" font-family="sans-serif" font-size="13" lengthAdjust="spacingAndGlyphs" textLength="182" x="12" y="682.9414">these models and parse their</text><text fill="#000000" font-family="sans-serif" font-size="13" lengthAdjust="spacingAndGlyphs" textLength="53" x="12" y="698.252">outputs.</text><polygon fill="#FBFB77" filter="url(#fmswile)" points="613,1185.1992,613,1317.6836,835,1317.6836,835,1195.1992,825,1185.1992,613,1185.1992" style="stroke: #A80036; stroke-width: 1.0;"/><polygon fill="#FBFB77" points="613,1185.1992,613,1317.6836,835,1317.6836,835,1195.1992,825,1185.1992,728,1185.1992,724,1122.2592,720,1185.1992,613,1185.1992" style="stroke: #A80036; stroke-width: 1.0;"/><line style="stroke: #A80036; stroke-width: 1.0;" x1="825" x2="825" y1="1185.1992" y2="1195.1992"/><line style="stroke: #A80036; stroke-width: 1.0;" x1="835" x2="825" y1="1195.1992" y2="1195.1992"/><text fill="#000000" font-family="sans-serif" font-size="13" lengthAdjust="spacingAndGlyphs" textLength="157" x="619" y="1202.7676">Allows companies to use</text><text fill="#000000" font-family="sans-serif" font-size="13" lengthAdjust="spacingAndGlyphs" textLength="174" x="619" y="1218.0781">their own Modelica libraries</text><text fill="#000000" font-family="sans-serif" font-size="13" lengthAdjust="spacingAndGlyphs" textLength="201" x="619" y="1233.3887">with custom HVAC systems and</text><text fill="#000000" font-family="sans-serif" font-size="13" lengthAdjust="spacingAndGlyphs" textLength="136" x="619" y="1248.6992">control sequences, or</text><text fill="#000000" font-family="sans-serif" font-size="13" lengthAdjust="spacingAndGlyphs" textLength="158" x="619" y="1264.0098">to integrate an electronic</text><text fill="#000000" font-family="sans-serif" font-size="13" lengthAdjust="spacingAndGlyphs" textLength="145" x="619" y="1279.3203">equipment catalog or a</text><text fill="#000000" font-family="sans-serif" font-size="13" lengthAdjust="spacingAndGlyphs" textLength="186" x="619" y="1294.6309">library used for an equipment</text><text fill="#000000" font-family="sans-serif" font-size="13" lengthAdjust="spacingAndGlyphs" textLength="65" x="619" y="1309.9414">sales tool.</text><polygon fill="#FBFB77" filter="url(#fmswile)" points="280.5,29.1992,280.5,85.1309,437.5,85.1309,437.5,39.1992,427.5,29.1992,280.5,29.1992" style="stroke: #A80036; stroke-width: 1.0;"/><line style="stroke: #A80036; stroke-width: 1.0;" x1="427.5" x2="427.5" y1="29.1992" y2="39.1992"/><line style="stroke: #A80036; stroke-width: 1.0;" x1="437.5" x2="427.5" y1="39.1992" y2="39.1992"/><text fill="#000000" font-family="sans-serif" font-size="13" lengthAdjust="spacingAndGlyphs" textLength="136" x="286.5" y="46.7676">Not yet shown is how</text><text fill="#000000" font-family="sans-serif" font-size="13" lengthAdjust="spacingAndGlyphs" textLength="129" x="286.5" y="62.0781">to integrate building</text><text fill="#000000" font-family="sans-serif" font-size="13" lengthAdjust="spacingAndGlyphs" textLength="39" x="286.5" y="77.3887">model</text><polygon fill="#FBFB77" filter="url(#fmswile)" points="796.5,36.6992,796.5,77.3203,951.5,77.3203,951.5,46.6992,941.5,36.6992,796.5,36.6992" style="stroke: #A80036; stroke-width: 1.0;"/><polygon fill="#FBFB77" points="796.5,36.6992,796.5,53.1992,727.145,57.1992,796.5,61.1992,796.5,77.3203,951.5,77.3203,951.5,46.6992,941.5,36.6992,796.5,36.6992" style="stroke: #A80036; stroke-width: 1.0;"/><line style="stroke: #A80036; stroke-width: 1.0;" x1="941.5" x2="941.5" y1="36.6992" y2="46.6992"/><line style="stroke: #A80036; stroke-width: 1.0;" x1="951.5" x2="941.5" y1="46.6992" y2="46.6992"/><text fill="#000000" font-family="sans-serif" font-size="13" lengthAdjust="spacingAndGlyphs" textLength="134" x="802.5" y="54.2676">Application that uses</text><text fill="#000000" font-family="sans-serif" font-size="13" lengthAdjust="spacingAndGlyphs" textLength="130" x="802.5" y="69.5781">the OpenStudio SDK.</text><path d="M668,233.5492 C668,250.0192 668,275.5692 668,293.8992 " fill="none" style="stroke: #A80036; stroke-width: 1.0;"/><path d="M668,340.3922 C668,360.6042 668,390.5062 668,412.1182 " fill="none" style="stroke: #A80036; stroke-width: 1.0;"/><polygon fill="#A80036" points="668,417.1462,672,408.1462,668,412.1462,664,408.1462,668,417.1462" style="stroke: #A80036; stroke-width: 1.0;"/><text fill="#000000" font-family="sans-serif" font-size="13" lengthAdjust="spacingAndGlyphs" textLength="63" x="669" y="383.7676">integrates</text><path d="M632.601,340.3922 C599.274,361.2862 549.43,392.5362 514.751,414.2772 " fill="none" style="stroke: #A80036; stroke-width: 1.0;"/><polygon fill="#A80036" points="510.175,417.1462,519.9247,415.752,514.4106,414.4892,515.6734,408.9751,510.175,417.1462" style="stroke: #A80036; stroke-width: 1.0;"/><text fill="#000000" font-family="sans-serif" font-size="13" lengthAdjust="spacingAndGlyphs" textLength="63" x="585" y="383.7676">integrates</text><path d="M702.299,340.3922 C734.59,361.2862 782.884,392.5362 816.485,414.2772 " fill="none" style="stroke: #A80036; stroke-width: 1.0;"/><polygon fill="#A80036" points="820.919,417.1462,815.5377,408.8975,816.7218,414.429,811.1902,415.613,820.919,417.1462" style="stroke: #A80036; stroke-width: 1.0;"/><text fill="#000000" font-family="sans-serif" font-size="13" lengthAdjust="spacingAndGlyphs" textLength="63" x="774" y="383.7676">integrates</text><path d="M373.438,844.3522 C407.926,868.6552 463.166,907.5802 499.27,933.0212 " fill="none" style="stroke: #A80036; stroke-width: 1.0; stroke-dasharray: 7.0,7.0;"/><polygon fill="#A80036" points="503.575,936.0552,498.5221,927.6014,499.4878,933.1752,493.914,934.1409,503.575,936.0552" style="stroke: #A80036; stroke-width: 1.0;"/><text fill="#000000" font-family="sans-serif" font-size="13" lengthAdjust="spacingAndGlyphs" textLength="41" x="457" y="887.7676">parses</text><text fill="#000000" font-family="sans-serif" font-size="13" lengthAdjust="spacingAndGlyphs" textLength="24" x="465.5" y="903.0781">AST</text><path d="M483.049,463.5382 C501.96,520.2792 542.865,672.2472 477,768.1992 C469.971,778.4392 448.222,788.5292 424.176,797.0552 " fill="none" style="stroke: #A80036; stroke-width: 1.0; stroke-dasharray: 7.0,7.0;"/><polygon fill="#A80036" points="419.34,798.7402,429.1548,799.5586,424.062,797.0962,426.5244,792.0034,419.34,798.7402" style="stroke: #A80036; stroke-width: 1.0;"/><text fill="#000000" font-family="sans-serif" font-size="13" lengthAdjust="spacingAndGlyphs" textLength="74" x="521" y="622.2676">calls editor,</text><text fill="#000000" font-family="sans-serif" font-size="13" lengthAdjust="spacingAndGlyphs" textLength="86" x="515" y="637.5781">which returns</text><text fill="#000000" font-family="sans-serif" font-size="13" lengthAdjust="spacingAndGlyphs" textLength="48" x="534" y="652.8887">.mo file</text><path d="M665.356,468.4572 C659.872,517.6222 644.751,623.7022 610,706.1992 C595.469,740.6952 570.306,776.0352 553.169,798.0372 " fill="none" style="stroke: #A80036; stroke-width: 1.0; stroke-dasharray: 7.0,7.0;"/><polygon fill="#A80036" points="665.917,463.3132,660.9634,471.8257,665.3741,468.2837,668.9161,472.6943,665.917,463.3132" style="stroke: #A80036; stroke-width: 1.0;"/><text fill="#000000" font-family="sans-serif" font-size="13" lengthAdjust="spacingAndGlyphs" textLength="106" x="676.5" y="629.7676">augments library</text><text fill="#000000" font-family="sans-serif" font-size="13" lengthAdjust="spacingAndGlyphs" textLength="153" x="653" y="645.0781">by generating C++ code</text><path d="M535,844.3522 C535,867.9632 535,905.3772 535,930.8172 " fill="none" style="stroke: #A80036; stroke-width: 1.0; stroke-dasharray: 7.0,7.0;"/><polygon fill="#A80036" points="535,936.0552,539,927.0552,535,931.0552,531,927.0552,535,936.0552" style="stroke: #A80036; stroke-width: 1.0;"/><text fill="#000000" font-family="sans-serif" font-size="13" lengthAdjust="spacingAndGlyphs" textLength="41" x="536" y="887.7676">parses</text><text fill="#000000" font-family="sans-serif" font-size="13" lengthAdjust="spacingAndGlyphs" textLength="24" x="544.5" y="903.0781">AST</text><path d="M856.496,463.3522 C858.718,510.9192 858.673,625.0832 815,706.1992 C758.685,810.7952 641.322,893.8282 577.894,933.2412 " fill="none" style="stroke: #A80036; stroke-width: 1.0; stroke-dasharray: 7.0,7.0;"/><polygon fill="#A80036" points="573.422,936.0032,583.1813,934.6778,577.6762,933.3761,578.9779,927.8711,573.422,936.0032" style="stroke: #A80036; stroke-width: 1.0;"/><text fill="#000000" font-family="sans-serif" font-size="13" lengthAdjust="spacingAndGlyphs" textLength="103" x="796" y="749.7676">runs simulation,</text><text fill="#000000" font-family="sans-serif" font-size="13" lengthAdjust="spacingAndGlyphs" textLength="87" x="804" y="765.0781">reads outputs</text><path d="M450.955,463.4242 C437.603,476.5282 421.264,493.8912 409,511.1992 C387.139,542.0522 368.219,581.6482 357.209,606.7312 " fill="none" style="stroke: #A80036; stroke-width: 1.0; stroke-dasharray: 7.0,7.0;"/><polygon fill="#A80036" points="355.113,611.5482,362.3704,604.8902,357.107,606.9631,355.0342,601.6997,355.113,611.5482" style="stroke: #A80036; stroke-width: 1.0;"/><text fill="#000000" font-family="sans-serif" font-size="13" lengthAdjust="spacingAndGlyphs" textLength="62" x="410" y="524.7676">reads AST</text><path d="M370.621,656.6952 C407.146,693.0262 476.842,762.3502 512.607,797.9252 " fill="none" style="stroke: #A80036; stroke-width: 1.0; stroke-dasharray: 7.0,7.0;"/><polygon fill="#A80036" points="366.764,652.8582,370.3255,662.0406,370.3095,656.3837,375.9664,656.3677,366.764,652.8582" style="stroke: #A80036; stroke-width: 1.0;"/><text fill="#000000" font-family="sans-serif" font-size="13" lengthAdjust="spacingAndGlyphs" textLength="61" x="481" y="749.7676">generates</text><text fill="#000000" font-family="sans-serif" font-size="13" lengthAdjust="spacingAndGlyphs" textLength="24" x="499.5" y="765.0781">AST</text><path d="M535,982.4612 C535,1002.0922 535,1031.0542 535,1053.9322 " fill="none" style="stroke: #A80036; stroke-width: 1.0;"/><polygon fill="#A80036" points="535,1059.0122,539,1050.0122,535,1054.0122,531,1050.0122,535,1059.0122" style="stroke: #A80036; stroke-width: 1.0;"/><text fill="#000000" font-family="sans-serif" font-size="13" lengthAdjust="spacingAndGlyphs" textLength="49" x="536" y="1025.7676">imports</text><path d="M668,80.3592 C668,110.4392 668,163.8392 668,193.6192 " fill="none" style="stroke: #A80036; stroke-width: 1.0; stroke-dasharray: 7.0,7.0;"/><polygon fill="#A80036" points="668,198.8892,672,189.8892,668,193.8892,664,189.8892,668,198.8892" style="stroke: #A80036; stroke-width: 1.0;"/><text fill="#000000" font-family="sans-serif" font-size="13" lengthAdjust="spacingAndGlyphs" textLength="29" x="669" y="128.7676">uses</text><path d="M567.49,982.4612 C596.985,1002.6702 640.907,1032.7652 674.722,1055.9352 " fill="none" style="stroke: #A80036; stroke-width: 1.0;"/><polygon fill="#A80036" points="679.213,1059.0122,674.0493,1050.6256,675.0883,1056.1862,669.5276,1057.2252,679.213,1059.0122" style="stroke: #A80036; stroke-width: 1.0;"/><text fill="#000000" font-family="sans-serif" font-size="13" lengthAdjust="spacingAndGlyphs" textLength="49" x="637" y="1025.7676">imports</text><path d="M359,85.5492 C359,96.6192 359,110.0923 359,124.1155 C359,131.127 359,138.2761 359,145.331 C359,148.8585 359,152.3624 359,155.8138 " fill="none" style="stroke: #A80036; stroke-width: 1.0; stroke-dasharray: 7.0,7.0;"/></g></svg>