<?xml version="1.0" encoding="UTF-8" standalone="no"?><svg xmlns="http://www.w3.org/2000/svg" xmlns:xlink="http://www.w3.org/1999/xlink" contentScriptType="application/ecmascript" contentStyleType="text/css" height="1321px" preserveAspectRatio="none" style="width:963px;height:1321px;" version="1.1" viewBox="0 0 963 1321" width="963px" zoomAndPan="magnify"><defs><filter height="300%" id="fhvpu71" width="300%" x="-1" y="-1"><feGaussianBlur result="blurOut" stdDeviation="2.0"/><feColorMatrix in="blurOut" result="blurOut2" type="matrix" values="0 0 0 0 0 0 0 0 0 0 0 0 0 0 0 0 0 0 .4 0"/><feOffset dx="4.0" dy="4.0" in="blurOut2" result="blurOut3"/><feBlend in="SourceGraphic" in2="blurOut3" mode="normal"/></filter></defs><g><text fill="#000000" font-family="sans-serif" font-size="18" lengthAdjust="spacingAndGlyphs" textLength="250" x="374" y="17.4023">Overall software architecture</text><!--cluster OpenStudio--><polygon fill="#FFFFFF" filter="url(#fhvpu71)" points="363,156.1992,453,156.1992,460,178.6875,956,178.6875,956,487.1992,363,487.1992,363,156.1992" style="stroke: #000000; stroke-width: 2.0;"/><line style="stroke: #000000; stroke-width: 2.0;" x1="363" x2="460" y1="178.6875" y2="178.6875"/><text fill="#000000" font-family="sans-serif" font-size="14" font-weight="bold" lengthAdjust="spacingAndGlyphs" textLength="84" x="367" y="171.7344">OpenStudio</text><!--cluster SOEP--><polygon fill="#FFFFFF" filter="url(#fhvpu71)" points="249,576.6992,292,576.6992,299,599.1875,632,599.1875,632,1133.1992,249,1133.1992,249,576.6992" style="stroke: #000000; stroke-width: 2.0;"/><line style="stroke: #000000; stroke-width: 2.0;" x1="249" x2="299" y1="599.1875" y2="599.1875"/><text fill="#000000" font-family="sans-serif" font-size="14" font-weight="bold" lengthAdjust="spacingAndGlyphs" textLength="37" x="253" y="592.2344">SOEP</text><!--entity Model Library--><path d="M613.5,429.6992 C613.5,419.6992 670,419.6992 670,419.6992 C670,419.6992 726.5,419.6992 726.5,429.6992 L726.5,451.1875 C726.5,461.1875 670,461.1875 670,461.1875 C670,461.1875 613.5,461.1875 613.5,451.1875 L613.5,429.6992 " fill="#FEFECE" filter="url(#fhvpu71)" style="stroke: #000000; stroke-width: 1.5;"/><path d="M613.5,429.6992 C613.5,439.6992 670,439.6992 670,439.6992 C670,439.6992 726.5,439.6992 726.5,429.6992 " fill="none" style="stroke: #000000; stroke-width: 1.5;"/><text fill="#000000" font-family="sans-serif" font-size="14" lengthAdjust="spacingAndGlyphs" textLength="93" x="623.5" y="453.2344">Model Library</text><!--entity API--><ellipse cx="670" cy="208.1992" fill="#FEFECE" filter="url(#fhvpu71)" rx="8" ry="8" style="stroke: #A80036; stroke-width: 2.0;"/><text fill="#000000" font-family="sans-serif" font-size="14" lengthAdjust="spacingAndGlyphs" textLength="22" x="659" y="230.7344">API</text><!--entity Core--><rect fill="#FEFECE" filter="url(#fhvpu71)" height="46.4883" style="stroke: #A80036; stroke-width: 1.5;" width="73" x="633.5" y="294.1992"/><rect fill="#FEFECE" height="10" style="stroke: #A80036; stroke-width: 1.5;" width="15" x="686.5" y="299.1992"/><rect fill="#FEFECE" height="2" style="stroke: #A80036; stroke-width: 1.5;" width="4" x="684.5" y="301.1992"/><rect fill="#FEFECE" height="2" style="stroke: #A80036; stroke-width: 1.5;" width="4" x="684.5" y="305.1992"/><text fill="#000000" font-family="sans-serif" font-size="14" lengthAdjust="spacingAndGlyphs" textLength="33" x="648.5" y="327.7344">Core</text><!--entity HVAC Systems Editor--><rect fill="#FEFECE" filter="url(#fhvpu71)" height="46.4883" style="stroke: #A80036; stroke-width: 1.5;" width="183" x="395.5" y="417.1992"/><rect fill="#FEFECE" height="10" style="stroke: #A80036; stroke-width: 1.5;" width="15" x="558.5" y="422.1992"/><rect fill="#FEFECE" height="2" style="stroke: #A80036; stroke-width: 1.5;" width="4" x="556.5" y="424.1992"/><rect fill="#FEFECE" height="2" style="stroke: #A80036; stroke-width: 1.5;" width="4" x="556.5" y="428.1992"/><text fill="#000000" font-family="sans-serif" font-size="14" lengthAdjust="spacingAndGlyphs" textLength="143" x="410.5" y="450.7344">HVAC Systems Editor</text><!--entity Simulator Interface--><rect fill="#FEFECE" filter="url(#fhvpu71)" height="46.4883" style="stroke: #A80036; stroke-width: 1.5;" width="170" x="762" y="417.1992"/><rect fill="#FEFECE" height="10" style="stroke: #A80036; stroke-width: 1.5;" width="15" x="912" y="422.1992"/><rect fill="#FEFECE" height="2" style="stroke: #A80036; stroke-width: 1.5;" width="4" x="910" y="424.1992"/><rect fill="#FEFECE" height="2" style="stroke: #A80036; stroke-width: 1.5;" width="4" x="910" y="428.1992"/><text fill="#000000" font-family="sans-serif" font-size="14" lengthAdjust="spacingAndGlyphs" textLength="130" x="777" y="450.7344">Simulator Interface</text><!--entity Schematic Editor--><rect fill="#FEFECE" filter="url(#fhvpu71)" height="46.4883" style="stroke: #A80036; stroke-width: 1.5;" width="154" x="265" y="798.1992"/><rect fill="#FEFECE" height="10" style="stroke: #A80036; stroke-width: 1.5;" width="15" x="399" y="803.1992"/><rect fill="#FEFECE" height="2" style="stroke: #A80036; stroke-width: 1.5;" width="4" x="397" y="805.1992"/><rect fill="#FEFECE" height="2" style="stroke: #A80036; stroke-width: 1.5;" width="4" x="397" y="809.1992"/><text fill="#000000" font-family="sans-serif" font-size="14" lengthAdjust="spacingAndGlyphs" textLength="114" x="280" y="831.7344">Schematic Editor</text><!--entity JModelica--><rect fill="#FEFECE" filter="url(#fhvpu71)" height="46.4883" style="stroke: #A80036; stroke-width: 1.5;" width="105" x="490.5" y="936.1992"/><rect fill="#FEFECE" height="10" style="stroke: #A80036; stroke-width: 1.5;" width="15" x="575.5" y="941.1992"/><rect fill="#FEFECE" height="2" style="stroke: #A80036; stroke-width: 1.5;" width="4" x="573.5" y="943.1992"/><rect fill="#FEFECE" height="2" style="stroke: #A80036; stroke-width: 1.5;" width="4" x="573.5" y="947.1992"/><text fill="#000000" font-family="sans-serif" font-size="14" lengthAdjust="spacingAndGlyphs" textLength="65" x="505.5" y="969.7344">JModelica</text><!--entity Conversion Script--><rect fill="#FEFECE" filter="url(#fhvpu71)" height="46.4883" style="stroke: #A80036; stroke-width: 1.5;" width="161" x="454.5" y="798.1992"/><rect fill="#FEFECE" height="10" style="stroke: #A80036; stroke-width: 1.5;" width="15" x="595.5" y="803.1992"/><rect fill="#FEFECE" height="2" style="stroke: #A80036; stroke-width: 1.5;" width="4" x="593.5" y="805.1992"/><rect fill="#FEFECE" height="2" style="stroke: #A80036; stroke-width: 1.5;" width="4" x="593.5" y="809.1992"/><text fill="#000000" font-family="sans-serif" font-size="14" lengthAdjust="spacingAndGlyphs" textLength="121" x="469.5" y="831.7344">Conversion Script</text><!--entity Modelica Library AST--><path d="M265.5,621.6992 C265.5,611.6992 347,611.6992 347,611.6992 C347,611.6992 428.5,611.6992 428.5,621.6992 L428.5,643.1875 C428.5,653.1875 347,653.1875 347,653.1875 C347,653.1875 265.5,653.1875 265.5,643.1875 L265.5,621.6992 " fill="#FEFECE" filter="url(#fhvpu71)" style="stroke: #000000; stroke-width: 1.5;"/><path d="M265.5,621.6992 C265.5,631.6992 347,631.6992 347,631.6992 C347,631.6992 428.5,631.6992 428.5,621.6992 " fill="none" style="stroke: #000000; stroke-width: 1.5;"/><text fill="#000000" font-family="sans-serif" font-size="14" lengthAdjust="spacingAndGlyphs" textLength="143" x="275.5" y="645.2344">Modelica Library AST</text><!--entity Modelica\nBuildings Library--><path d="M476,1069.1992 C476,1059.1992 543,1059.1992 543,1059.1992 C543,1059.1992 610,1059.1992 610,1069.1992 L610,1107.1758 C610,1117.1758 543,1117.1758 543,1117.1758 C543,1117.1758 476,1117.1758 476,1107.1758 L476,1069.1992 " fill="#FEFECE" filter="url(#fhvpu71)" style="stroke: #000000; stroke-width: 1.5;"/><path d="M476,1069.1992 C476,1079.1992 543,1079.1992 543,1079.1992 C543,1079.1992 610,1079.1992 610,1069.1992 " fill="none" style="stroke: #000000; stroke-width: 1.5;"/><text fill="#000000" font-family="sans-serif" font-size="14" lengthAdjust="spacingAndGlyphs" textLength="61" x="512.5" y="1092.7344">Modelica</text><text fill="#000000" font-family="sans-serif" font-size="14" lengthAdjust="spacingAndGlyphs" textLength="114" x="486" y="1109.2227">Buildings Library</text><!--entity Application--><rect fill="#FEFECE" filter="url(#fhvpu71)" height="46.4883" style="stroke: #A80036; stroke-width: 1.5;" width="118" x="611" y="34.1992"/><rect fill="#FEFECE" height="10" style="stroke: #A80036; stroke-width: 1.5;" width="15" x="709" y="39.1992"/><rect fill="#FEFECE" height="2" style="stroke: #A80036; stroke-width: 1.5;" width="4" x="707" y="41.1992"/><rect fill="#FEFECE" height="2" style="stroke: #A80036; stroke-width: 1.5;" width="4" x="707" y="45.1992"/><text fill="#000000" font-family="sans-serif" font-size="14" lengthAdjust="spacingAndGlyphs" textLength="78" x="626" y="67.7344">Application</text><!--entity User-Provided\nModelica Library--><path d="M648,1069.1992 C648,1059.1992 714,1059.1992 714,1059.1992 C714,1059.1992 780,1059.1992 780,1069.1992 L780,1107.1758 C780,1117.1758 714,1117.1758 714,1117.1758 C714,1117.1758 648,1117.1758 648,1107.1758 L648,1069.1992 " fill="#FEFECE" filter="url(#fhvpu71)" style="stroke: #000000; stroke-width: 1.5;"/><path d="M648,1069.1992 C648,1079.1992 714,1079.1992 714,1079.1992 C714,1079.1992 780,1079.1992 780,1069.1992 " fill="none" style="stroke: #000000; stroke-width: 1.5;"/><text fill="#000000" font-family="sans-serif" font-size="14" lengthAdjust="spacingAndGlyphs" textLength="99" x="664.5" y="1092.7344">User-Provided</text><text fill="#000000" font-family="sans-serif" font-size="14" lengthAdjust="spacingAndGlyphs" textLength="112" x="658" y="1109.2227">Modelica Library</text><polygon fill="#FBFB77" filter="url(#fhvpu71)" points="6,558.1992,6,705.9941,230,705.9941,230,568.1992,220,558.1992,6,558.1992" style="stroke: #A80036; stroke-width: 1.0;"/><polygon fill="#FBFB77" points="6,558.1992,6,705.9941,201.567,705.9941,315.397,797.9902,209.567,705.9941,230,705.9941,230,568.1992,220,558.1992,6,558.1992" style="stroke: #A80036; stroke-width: 1.0;"/><line style="stroke: #A80036; stroke-width: 1.0;" x1="220" x2="220" y1="558.1992" y2="568.1992"/><line style="stroke: #A80036; stroke-width: 1.0;" x1="230" x2="220" y1="568.1992" y2="568.1992"/><text fill="#000000" font-family="sans-serif" font-size="13" lengthAdjust="spacingAndGlyphs" textLength="180" x="12" y="575.7676">Allows free graphical editing</text><text fill="#000000" font-family="sans-serif" font-size="13" lengthAdjust="spacingAndGlyphs" textLength="189" x="12" y="591.0781">of Modelica models. However,</text><text fill="#000000" font-family="sans-serif" font-size="13" lengthAdjust="spacingAndGlyphs" textLength="203" x="12" y="606.3887">after editing, many OS Measures</text><text fill="#000000" font-family="sans-serif" font-size="13" lengthAdjust="spacingAndGlyphs" textLength="170" x="12" y="621.6992">cannot be applied anymore</text><text fill="#000000" font-family="sans-serif" font-size="13" lengthAdjust="spacingAndGlyphs" textLength="203" x="12" y="637.0098">(as models may be incompatible</text><text fill="#000000" font-family="sans-serif" font-size="13" lengthAdjust="spacingAndGlyphs" textLength="122" x="12" y="652.3203">with the Measures).</text><text fill="#000000" font-family="sans-serif" font-size="13" lengthAdjust="spacingAndGlyphs" textLength="191" x="12" y="667.6309">However, OS can still simulate</text><text fill="#000000" font-family="sans-serif" font-size="13" lengthAdjust="spacingAndGlyphs" textLength="182" x="12" y="682.9414">these models and parse their</text><text fill="#000000" font-family="sans-serif" font-size="13" lengthAdjust="spacingAndGlyphs" textLength="53" x="12" y="698.252">outputs.</text><polygon fill="#FBFB77" filter="url(#fhvpu71)" points="603,1180.1992,603,1312.6836,825,1312.6836,825,1190.1992,815,1180.1992,603,1180.1992" style="stroke: #A80036; stroke-width: 1.0;"/><polygon fill="#FBFB77" points="603,1180.1992,603,1312.6836,825,1312.6836,825,1190.1992,815,1180.1992,718,1180.1992,714,1117.4492,710,1180.1992,603,1180.1992" style="stroke: #A80036; stroke-width: 1.0;"/><line style="stroke: #A80036; stroke-width: 1.0;" x1="815" x2="815" y1="1180.1992" y2="1190.1992"/><line style="stroke: #A80036; stroke-width: 1.0;" x1="825" x2="815" y1="1190.1992" y2="1190.1992"/><text fill="#000000" font-family="sans-serif" font-size="13" lengthAdjust="spacingAndGlyphs" textLength="157" x="609" y="1197.7676">Allows companies to use</text><text fill="#000000" font-family="sans-serif" font-size="13" lengthAdjust="spacingAndGlyphs" textLength="174" x="609" y="1213.0781">their own Modelica libraries</text><text fill="#000000" font-family="sans-serif" font-size="13" lengthAdjust="spacingAndGlyphs" textLength="201" x="609" y="1228.3887">with custom HVAC systems and</text><text fill="#000000" font-family="sans-serif" font-size="13" lengthAdjust="spacingAndGlyphs" textLength="136" x="609" y="1243.6992">control sequences, or</text><text fill="#000000" font-family="sans-serif" font-size="13" lengthAdjust="spacingAndGlyphs" textLength="158" x="609" y="1259.0098">to integrate an electronic</text><text fill="#000000" font-family="sans-serif" font-size="13" lengthAdjust="spacingAndGlyphs" textLength="145" x="609" y="1274.3203">equipment catalog or a</text><text fill="#000000" font-family="sans-serif" font-size="13" lengthAdjust="spacingAndGlyphs" textLength="186" x="609" y="1289.6309">library used for an equipment</text><text fill="#000000" font-family="sans-serif" font-size="13" lengthAdjust="spacingAndGlyphs" textLength="65" x="609" y="1304.9414">sales tool.</text><polygon fill="#FBFB77" filter="url(#fhvpu71)" points="292.5,29.1992,292.5,85.1309,449.5,85.1309,449.5,39.1992,439.5,29.1992,292.5,29.1992" style="stroke: #A80036; stroke-width: 1.0;"/><line style="stroke: #A80036; stroke-width: 1.0;" x1="439.5" x2="439.5" y1="29.1992" y2="39.1992"/><line style="stroke: #A80036; stroke-width: 1.0;" x1="449.5" x2="439.5" y1="39.1992" y2="39.1992"/><text fill="#000000" font-family="sans-serif" font-size="13" lengthAdjust="spacingAndGlyphs" textLength="136" x="298.5" y="46.7676">Not yet shown is how</text><text fill="#000000" font-family="sans-serif" font-size="13" lengthAdjust="spacingAndGlyphs" textLength="129" x="298.5" y="62.0781">to integrate building</text><text fill="#000000" font-family="sans-serif" font-size="13" lengthAdjust="spacingAndGlyphs" textLength="39" x="298.5" y="77.3887">model</text><polygon fill="#FBFB77" filter="url(#fhvpu71)" points="798.5,36.6992,798.5,77.3203,953.5,77.3203,953.5,46.6992,943.5,36.6992,798.5,36.6992" style="stroke: #A80036; stroke-width: 1.0;"/><polygon fill="#FBFB77" points="798.5,36.6992,798.5,53.1992,729.145,57.1992,798.5,61.1992,798.5,77.3203,953.5,77.3203,953.5,46.6992,943.5,36.6992,798.5,36.6992" style="stroke: #A80036; stroke-width: 1.0;"/><line style="stroke: #A80036; stroke-width: 1.0;" x1="943.5" x2="943.5" y1="36.6992" y2="46.6992"/><line style="stroke: #A80036; stroke-width: 1.0;" x1="953.5" x2="943.5" y1="46.6992" y2="46.6992"/><text fill="#000000" font-family="sans-serif" font-size="13" lengthAdjust="spacingAndGlyphs" textLength="134" x="804.5" y="54.2676">Application that uses</text><text fill="#000000" font-family="sans-serif" font-size="13" lengthAdjust="spacingAndGlyphs" textLength="130" x="804.5" y="69.5781">the OpenStudio SDK.</text><path d="M670,233.5492 C670,250.0192 670,275.5692 670,293.8992 " fill="none" style="stroke: #A80036; stroke-width: 1.0;"/><path d="M670,340.3922 C670,361.3622 670,392.7622 670,414.5132 " fill="none" style="stroke: #A80036; stroke-width: 1.0;"/><polygon fill="#A80036" points="670,419.5482,674,410.5482,670,414.5482,666,410.5482,670,419.5482" style="stroke: #A80036; stroke-width: 1.0;"/><text fill="#000000" font-family="sans-serif" font-size="13" lengthAdjust="spacingAndGlyphs" textLength="63" x="671" y="383.7676">integrates</text><path d="M636.435,340.3922 C604.835,361.2862 557.573,392.5362 524.691,414.2772 " fill="none" style="stroke: #A80036; stroke-width: 1.0;"/><polygon fill="#A80036" points="520.352,417.1462,530.0655,415.5191,524.5228,414.3886,525.6533,408.8458,520.352,417.1462" style="stroke: #A80036; stroke-width: 1.0;"/><text fill="#000000" font-family="sans-serif" font-size="13" lengthAdjust="spacingAndGlyphs" textLength="63" x="591" y="383.7676">integrates</text><path d="M702.465,340.3922 C733.029,361.2862 778.741,392.5362 810.544,414.2772 " fill="none" style="stroke: #A80036; stroke-width: 1.0;"/><polygon fill="#A80036" points="814.741,417.1462,809.5686,408.7649,810.6133,414.3244,805.0538,415.3691,814.741,417.1462" style="stroke: #A80036; stroke-width: 1.0;"/><text fill="#000000" font-family="sans-serif" font-size="13" lengthAdjust="spacingAndGlyphs" textLength="63" x="771" y="383.7676">integrates</text><path d="M374.741,844.3522 C410.659,868.6552 468.188,907.5802 505.789,933.0212 " fill="none" style="stroke: #A80036; stroke-width: 1.0; stroke-dasharray: 7.0,7.0;"/><polygon fill="#A80036" points="510.273,936.0552,505.0609,927.6986,506.132,933.2531,500.5775,934.3242,510.273,936.0552" style="stroke: #A80036; stroke-width: 1.0;"/><text fill="#000000" font-family="sans-serif" font-size="13" lengthAdjust="spacingAndGlyphs" textLength="41" x="462" y="887.7676">parses</text><text fill="#000000" font-family="sans-serif" font-size="13" lengthAdjust="spacingAndGlyphs" textLength="24" x="470.5" y="903.0781">AST</text><path d="M489.395,463.4282 C495.979,528.8722 511.662,719.3212 477,768.1992 C469.815,778.3312 448.031,788.3952 424.001,796.9332 " fill="none" style="stroke: #A80036; stroke-width: 1.0; stroke-dasharray: 7.0,7.0;"/><polygon fill="#A80036" points="419.168,798.6192,428.9835,799.4288,423.8885,796.971,426.3463,791.876,419.168,798.6192" style="stroke: #A80036; stroke-width: 1.0;"/><text fill="#000000" font-family="sans-serif" font-size="13" lengthAdjust="spacingAndGlyphs" textLength="74" x="506" y="622.2676">calls editor,</text><text fill="#000000" font-family="sans-serif" font-size="13" lengthAdjust="spacingAndGlyphs" textLength="86" x="500" y="637.5781">which returns</text><text fill="#000000" font-family="sans-serif" font-size="13" lengthAdjust="spacingAndGlyphs" textLength="48" x="519" y="652.8887">.mo file</text><path d="M664.825,465.9012 C654.473,513.4372 629.236,620.5202 595,706.1992 C581.722,739.4292 561.604,775.6532 548.383,798.1482 " fill="none" style="stroke: #A80036; stroke-width: 1.0; stroke-dasharray: 7.0,7.0;"/><polygon fill="#A80036" points="665.897,460.9452,660.0846,468.8961,664.8399,465.8322,667.9038,470.5875,665.897,460.9452" style="stroke: #A80036; stroke-width: 1.0;"/><text fill="#000000" font-family="sans-serif" font-size="13" lengthAdjust="spacingAndGlyphs" textLength="106" x="667.5" y="629.7676">augments library</text><text fill="#000000" font-family="sans-serif" font-size="13" lengthAdjust="spacingAndGlyphs" textLength="153" x="644" y="645.0781">by generating C++ code</text><path d="M536.303,844.3522 C537.692,867.9632 539.893,905.3772 541.389,930.8172 " fill="none" style="stroke: #A80036; stroke-width: 1.0; stroke-dasharray: 7.0,7.0;"/><polygon fill="#A80036" points="541.697,936.0552,545.163,926.8364,541.4041,931.0638,537.1767,927.305,541.697,936.0552" style="stroke: #A80036; stroke-width: 1.0;"/><text fill="#000000" font-family="sans-serif" font-size="13" lengthAdjust="spacingAndGlyphs" textLength="41" x="541" y="887.7676">parses</text><text fill="#000000" font-family="sans-serif" font-size="13" lengthAdjust="spacingAndGlyphs" textLength="24" x="549.5" y="903.0781">AST</text><path d="M848.196,463.2532 C849.819,510.6292 848.576,624.4432 806,706.1992 C752.66,808.6232 641.588,893.1532 582.293,933.1992 " fill="none" style="stroke: #A80036; stroke-width: 1.0; stroke-dasharray: 7.0,7.0;"/><polygon fill="#A80036" points="578.115,936.0052,587.8164,934.3073,582.2656,933.2172,583.3556,927.6664,578.115,936.0052" style="stroke: #A80036; stroke-width: 1.0;"/><text fill="#000000" font-family="sans-serif" font-size="13" lengthAdjust="spacingAndGlyphs" textLength="103" x="788" y="749.7676">runs simulation,</text><text fill="#000000" font-family="sans-serif" font-size="13" lengthAdjust="spacingAndGlyphs" textLength="87" x="796" y="765.0781">reads outputs</text><path d="M457.558,463.2942 C441.834,476.0952 422.911,493.2062 409,511.1992 C385.737,541.2882 367.065,581.4172 356.504,606.7872 " fill="none" style="stroke: #A80036; stroke-width: 1.0; stroke-dasharray: 7.0,7.0;"/><polygon fill="#A80036" points="354.501,611.6572,361.6249,604.8565,356.4037,607.0334,354.2267,601.8122,354.501,611.6572" style="stroke: #A80036; stroke-width: 1.0;"/><text fill="#000000" font-family="sans-serif" font-size="13" lengthAdjust="spacingAndGlyphs" textLength="62" x="410" y="524.7676">reads AST</text><path d="M370.621,656.6952 C407.146,693.0262 476.842,762.3502 512.607,797.9252 " fill="none" style="stroke: #A80036; stroke-width: 1.0; stroke-dasharray: 7.0,7.0;"/><polygon fill="#A80036" points="366.764,652.8582,370.3255,662.0406,370.3095,656.3837,375.9664,656.3677,366.764,652.8582" style="stroke: #A80036; stroke-width: 1.0;"/><text fill="#000000" font-family="sans-serif" font-size="13" lengthAdjust="spacingAndGlyphs" textLength="61" x="481" y="749.7676">generates</text><text fill="#000000" font-family="sans-serif" font-size="13" lengthAdjust="spacingAndGlyphs" textLength="24" x="499.5" y="765.0781">AST</text><path d="M543,982.3212 C543,1002.1422 543,1031.4902 543,1054.1042 " fill="none" style="stroke: #A80036; stroke-width: 1.0;"/><polygon fill="#A80036" points="543,1059.1122,547,1050.1122,543,1054.1122,539,1050.1122,543,1059.1122" style="stroke: #A80036; stroke-width: 1.0;"/><text fill="#000000" font-family="sans-serif" font-size="13" lengthAdjust="spacingAndGlyphs" textLength="49" x="544" y="1025.7676">imports</text><path d="M670,80.3592 C670,110.4392 670,163.8392 670,193.6192 " fill="none" style="stroke: #A80036; stroke-width: 1.0; stroke-dasharray: 7.0,7.0;"/><polygon fill="#A80036" points="670,198.8892,674,189.8892,670,193.8892,666,189.8892,670,198.8892" style="stroke: #A80036; stroke-width: 1.0;"/><text fill="#000000" font-family="sans-serif" font-size="13" lengthAdjust="spacingAndGlyphs" textLength="29" x="671" y="128.7676">uses</text><path d="M572.786,982.3212 C600.259,1002.7252 641.326,1033.2242 672.101,1056.0812 " fill="none" style="stroke: #A80036; stroke-width: 1.0;"/><polygon fill="#A80036" points="676.182,1059.1122,671.3418,1050.5348,672.168,1056.131,666.5718,1056.9572,676.182,1059.1122" style="stroke: #A80036; stroke-width: 1.0;"/><text fill="#000000" font-family="sans-serif" font-size="13" lengthAdjust="spacingAndGlyphs" textLength="49" x="635" y="1025.7676">imports</text><path d="M371,85.5492 C371,96.6192 371,110.0923 371,124.1155 C371,131.127 371,138.2761 371,145.331 C371,148.8585 371,152.3624 371,155.8138 " fill="none" style="stroke: #A80036; stroke-width: 1.0; stroke-dasharray: 7.0,7.0;"/></g></svg>