<?xml version="1.0" encoding="UTF-8" standalone="no"?><svg xmlns="http://www.w3.org/2000/svg" xmlns:xlink="http://www.w3.org/1999/xlink" contentScriptType="application/ecmascript" contentStyleType="text/css" height="720.8083px" preserveAspectRatio="none" style="width:1035px;height:720px;" version="1.1" viewBox="0 0 1035 720" width="1035.9906px" zoomAndPan="magnify"><defs><filter height="300%" id="f1irxjv3zcamop" width="300%" x="-1" y="-1"><feGaussianBlur result="blurOut" stdDeviation="1.3703579792572766"/><feColorMatrix in="blurOut" result="blurOut2" type="matrix" values="0 0 0 0 0 0 0 0 0 0 0 0 0 0 0 0 0 0 .4 0"/><feOffset dx="2.7407159585145533" dy="2.7407159585145533" in="blurOut2" result="blurOut3"/><feBlend in="SourceGraphic" in2="blurOut3" mode="normal"/></filter></defs><g><!--MD5=[5061238a99609e858bb8c078406b1270]
cluster OpenStudio--><polygon fill="#FFFFFF" filter="url(#f1irxjv3zcamop)" points="66.1198,73.9993,133.2673,73.9993,138.0636,89.2767,856.1311,89.2767,856.1311,334.3673,66.1198,334.3673,66.1198,73.9993" style="stroke: #000000; stroke-width: 1.0277684844429575;"/><line style="stroke: #000000; stroke-width: 1.0277684844429575;" x1="66.1198" x2="138.0636" y1="89.2767" y2="89.2767"/><text fill="#000000" font-family="sans-serif" font-size="9.5925" font-weight="bold" lengthAdjust="spacingAndGlyphs" textLength="63.0365" x="68.8605" y="84.2737">OpenStudio</text><!--MD5=[0c93c1d15229d3a8907a8d88bd02b231]
cluster Legacy-Mode--><polygon fill="#FFFFFF" filter="url(#f1irxjv3zcamop)" points="71.6012,248.72,147.6561,248.72,152.4523,263.9973,447.7645,263.9973,447.7645,328.8859,71.6012,328.8859,71.6012,248.72" style="stroke: #000000; stroke-width: 1.0277684844429575;"/><line style="stroke: #000000; stroke-width: 1.0277684844429575;" x1="71.6012" x2="152.4523" y1="263.9973" y2="263.9973"/><text fill="#000000" font-family="sans-serif" font-size="9.5925" font-weight="bold" lengthAdjust="spacingAndGlyphs" textLength="71.9438" x="74.3419" y="258.9943">Legacy-Mode</text><!--MD5=[8b0087d604a0b9388d8d626944800054]
cluster SOEP-Mode--><polygon fill="#FFFFFF" filter="url(#f1irxjv3zcamop)" points="460.7829,248.72,526.5601,248.72,531.3563,263.9973,850.6497,263.9973,850.6497,328.8859,460.7829,328.8859,460.7829,248.72" style="stroke: #000000; stroke-width: 1.0277684844429575;"/><line style="stroke: #000000; stroke-width: 1.0277684844429575;" x1="460.7829" x2="531.3563" y1="263.9973" y2="263.9973"/><text fill="#000000" font-family="sans-serif" font-size="9.5925" font-weight="bold" lengthAdjust="spacingAndGlyphs" textLength="61.6661" x="463.5236" y="258.9943">SOEP-Mode</text><!--MD5=[6eae77d3db54ff22090f0b7ffc48c1b7]
cluster SOEP--><polygon fill="#FFFFFF" filter="url(#f1irxjv3zcamop)" points="361.4319,387.8113,393.6353,387.8113,398.4316,403.0887,835.5758,403.0887,835.5758,467.2921,361.4319,467.2921,361.4319,387.8113" style="stroke: #000000; stroke-width: 1.0277684844429575;"/><line style="stroke: #000000; stroke-width: 1.0277684844429575;" x1="361.4319" x2="398.4316" y1="403.0887" y2="403.0887"/><text fill="#000000" font-family="sans-serif" font-size="9.5925" font-weight="bold" lengthAdjust="spacingAndGlyphs" textLength="28.0923" x="364.1726" y="398.0856">SOEP</text><!--MD5=[2607094e3125d8784ce93fba7bad1676]
cluster EnergyPlus--><polygon fill="#FFFFFF" filter="url(#f1irxjv3zcamop)" points="864.3533,254.544,928.7601,254.544,933.5564,269.8213,999.3336,269.8213,999.3336,323.0619,864.3533,323.0619,864.3533,254.544" style="stroke: #000000; stroke-width: 1.0277684844429575;"/><line style="stroke: #000000; stroke-width: 1.0277684844429575;" x1="864.3533" x2="933.5564" y1="269.8213" y2="269.8213"/><text fill="#000000" font-family="sans-serif" font-size="9.5925" font-weight="bold" lengthAdjust="spacingAndGlyphs" textLength="60.2958" x="867.094" y="264.8183">EnergyPlus</text><!--MD5=[645d8587175d8f7ad110cd370775931d]
entity API--><ellipse cx="398.4316" cy="121.2767" fill="#FEFECE" filter="url(#f1irxjv3zcamop)" rx="5.4814" ry="5.4814" style="stroke: #A80036; stroke-width: 1.3703579792572766;"/><text fill="#000000" font-family="sans-serif" font-size="9.5925" lengthAdjust="spacingAndGlyphs" textLength="14.3888" x="391.2372" y="141.8287">API</text><!--MD5=[82f4cbc36554b3e8e13bf55fbb33759a]
entity Core--><rect fill="#FEFECE" filter="url(#f1irxjv3zcamop)" height="31.7216" style="stroke: #A80036; stroke-width: 1.0277684844429575;" width="50.0181" x="428.922" y="105.5176"/><rect fill="#FEFECE" height="6.8518" style="stroke: #A80036; stroke-width: 1.0277684844429575;" width="10.2777" x="465.2365" y="108.9435"/><rect fill="#FEFECE" height="1.3704" style="stroke: #A80036; stroke-width: 1.0277684844429575;" width="2.7407" x="463.8662" y="110.3138"/><rect fill="#FEFECE" height="1.3704" style="stroke: #A80036; stroke-width: 1.0277684844429575;" width="2.7407" x="463.8662" y="113.0545"/><text fill="#000000" font-family="sans-serif" font-size="9.5925" lengthAdjust="spacingAndGlyphs" textLength="22.6109" x="439.1997" y="128.1251">Core</text><!--MD5=[e82bdc028fb976024c7911d8783f27c4]
entity Legacy\nModel Library--><path d="M227.822,287.4326 C227.822,280.5808 265.5069,280.5808 265.5069,280.5808 C265.5069,280.5808 303.1917,280.5808 303.1917,287.4326 L303.1917,315.9317 C303.1917,322.7835 265.5069,322.7835 265.5069,322.7835 C265.5069,322.7835 227.822,322.7835 227.822,315.9317 L227.822,287.4326 " fill="#FEFECE" filter="url(#f1irxjv3zcamop)" style="stroke: #000000; stroke-width: 1.0277684844429575;"/><path d="M227.822,287.4326 C227.822,294.2844 265.5069,294.2844 265.5069,294.2844 C265.5069,294.2844 303.1917,294.2844 303.1917,287.4326 " fill="none" style="stroke: #000000; stroke-width: 1.0277684844429575;"/><text fill="#000000" font-family="sans-serif" font-size="9.5925" lengthAdjust="spacingAndGlyphs" textLength="32.8886" x="234.6738" y="305.9291">Legacy</text><text fill="#000000" font-family="sans-serif" font-size="9.5925" lengthAdjust="spacingAndGlyphs" textLength="61.6661" x="234.6738" y="317.0953">Model Library</text><!--MD5=[0ff4458ee6abfa109ec36b31d34540fb]
entity HVAC Systems Editor\n(Legacy Mode)--><rect fill="#FEFECE" filter="url(#f1irxjv3zcamop)" height="42.8879" style="stroke: #A80036; stroke-width: 1.0277684844429575;" width="126.7581" x="76.74" y="280.2382"/><rect fill="#FEFECE" height="6.8518" style="stroke: #A80036; stroke-width: 1.0277684844429575;" width="10.2777" x="189.7946" y="283.6641"/><rect fill="#FEFECE" height="1.3704" style="stroke: #A80036; stroke-width: 1.0277684844429575;" width="2.7407" x="188.4242" y="285.0345"/><rect fill="#FEFECE" height="1.3704" style="stroke: #A80036; stroke-width: 1.0277684844429575;" width="2.7407" x="188.4242" y="287.7752"/><text fill="#000000" font-family="sans-serif" font-size="9.5925" lengthAdjust="spacingAndGlyphs" textLength="99.351" x="87.0177" y="302.8458">HVAC Systems Editor</text><text fill="#000000" font-family="sans-serif" font-size="9.5925" lengthAdjust="spacingAndGlyphs" textLength="69.2031" x="87.0177" y="314.012">(Legacy Mode)</text><!--MD5=[f8bb759a20809b016b1fe42169e1fb10]
entity EnergyPlus\nSimulator Interface--><rect fill="#FEFECE" filter="url(#f1irxjv3zcamop)" height="42.8879" style="stroke: #A80036; stroke-width: 1.0277684844429575;" width="115.1101" x="327.173" y="280.2382"/><rect fill="#FEFECE" height="6.8518" style="stroke: #A80036; stroke-width: 1.0277684844429575;" width="10.2777" x="428.5795" y="283.6641"/><rect fill="#FEFECE" height="1.3704" style="stroke: #A80036; stroke-width: 1.0277684844429575;" width="2.7407" x="427.2091" y="285.0345"/><rect fill="#FEFECE" height="1.3704" style="stroke: #A80036; stroke-width: 1.0277684844429575;" width="2.7407" x="427.2091" y="287.7752"/><text fill="#000000" font-family="sans-serif" font-size="9.5925" lengthAdjust="spacingAndGlyphs" textLength="52.7588" x="337.4507" y="302.8458">EnergyPlus</text><text fill="#000000" font-family="sans-serif" font-size="9.5925" lengthAdjust="spacingAndGlyphs" textLength="87.7029" x="337.4507" y="314.012">Simulator Interface</text><!--MD5=[3688fc84bdf7811b488b7db59e5a413a]
entity Model Library--><rect fill="#FEFECE" filter="url(#f1irxjv3zcamop)" height="31.7216" style="stroke: #A80036; stroke-width: 1.0277684844429575;" width="89.0733" x="605.3556" y="286.0622"/><rect fill="#FEFECE" height="6.8518" style="stroke: #A80036; stroke-width: 1.0277684844429575;" width="10.2777" x="680.7253" y="289.4881"/><rect fill="#FEFECE" height="1.3704" style="stroke: #A80036; stroke-width: 1.0277684844429575;" width="2.7407" x="679.355" y="290.8585"/><rect fill="#FEFECE" height="1.3704" style="stroke: #A80036; stroke-width: 1.0277684844429575;" width="2.7407" x="679.355" y="293.5992"/><text fill="#000000" font-family="sans-serif" font-size="9.5925" lengthAdjust="spacingAndGlyphs" textLength="61.6661" x="615.6333" y="308.6698">Model Library</text><!--MD5=[943a10dc84f17775551d57e00cd813a1]
entity HVAC Systems Editor\n(SOEP Mode)--><rect fill="#FEFECE" filter="url(#f1irxjv3zcamop)" height="42.8879" style="stroke: #A80036; stroke-width: 1.0277684844429575;" width="126.7581" x="718.7528" y="280.2382"/><rect fill="#FEFECE" height="6.8518" style="stroke: #A80036; stroke-width: 1.0277684844429575;" width="10.2777" x="831.8073" y="283.6641"/><rect fill="#FEFECE" height="1.3704" style="stroke: #A80036; stroke-width: 1.0277684844429575;" width="2.7407" x="830.4369" y="285.0345"/><rect fill="#FEFECE" height="1.3704" style="stroke: #A80036; stroke-width: 1.0277684844429575;" width="2.7407" x="830.4369" y="287.7752"/><text fill="#000000" font-family="sans-serif" font-size="9.5925" lengthAdjust="spacingAndGlyphs" textLength="99.351" x="729.0304" y="302.8458">HVAC Systems Editor</text><text fill="#000000" font-family="sans-serif" font-size="9.5925" lengthAdjust="spacingAndGlyphs" textLength="62.3513" x="729.0304" y="314.012">(SOEP Mode)</text><!--MD5=[38641fe90f43869b89366792121e2c81]
entity SOEP\nSimulator Interface--><rect fill="#FEFECE" filter="url(#f1irxjv3zcamop)" height="42.8879" style="stroke: #A80036; stroke-width: 1.0277684844429575;" width="115.1101" x="466.2643" y="280.2382"/><rect fill="#FEFECE" height="6.8518" style="stroke: #A80036; stroke-width: 1.0277684844429575;" width="10.2777" x="567.6708" y="283.6641"/><rect fill="#FEFECE" height="1.3704" style="stroke: #A80036; stroke-width: 1.0277684844429575;" width="2.7407" x="566.3004" y="285.0345"/><rect fill="#FEFECE" height="1.3704" style="stroke: #A80036; stroke-width: 1.0277684844429575;" width="2.7407" x="566.3004" y="287.7752"/><text fill="#000000" font-family="sans-serif" font-size="9.5925" lengthAdjust="spacingAndGlyphs" textLength="26.0368" x="476.542" y="302.8458">SOEP</text><text fill="#000000" font-family="sans-serif" font-size="9.5925" lengthAdjust="spacingAndGlyphs" textLength="87.7029" x="476.542" y="314.012">Simulator Interface</text><!--MD5=[d70def9751c1cabd18cb792e3e4d53da]
entity mod_AST--><path d="M628.9943,426.1813 C628.9943,419.3295 661.5403,419.3295 661.5403,419.3295 C661.5403,419.3295 694.0863,419.3295 694.0863,426.1813 L694.0863,454.6805 C694.0863,461.5323 661.5403,461.5323 661.5403,461.5323 C661.5403,461.5323 628.9943,461.5323 628.9943,454.6805 L628.9943,426.1813 " fill="#FEFECE" filter="url(#f1irxjv3zcamop)" style="stroke: #000000; stroke-width: 1.0277684844429575;"/><path d="M628.9943,426.1813 C628.9943,433.0331 661.5403,433.0331 661.5403,433.0331 C661.5403,433.0331 694.0863,433.0331 694.0863,426.1813 " fill="none" style="stroke: #000000; stroke-width: 1.0277684844429575;"/><text fill="#000000" font-family="sans-serif" font-size="9.5925" lengthAdjust="spacingAndGlyphs" textLength="41.7959" x="635.8461" y="444.6778">Modelica</text><text fill="#000000" font-family="sans-serif" font-size="9.5925" lengthAdjust="spacingAndGlyphs" textLength="51.3884" x="635.8461" y="455.8441">Library AST</text><!--MD5=[13d11603b768e671a8f2aff8203fee03]
entity Modelica\nBuildings Library--><path d="M739.9933,426.1813 C739.9933,419.3295 784.8725,419.3295 784.8725,419.3295 C784.8725,419.3295 829.7518,419.3295 829.7518,426.1813 L829.7518,454.6805 C829.7518,461.5323 784.8725,461.5323 784.8725,461.5323 C784.8725,461.5323 739.9933,461.5323 739.9933,454.6805 L739.9933,426.1813 " fill="#FEFECE" filter="url(#f1irxjv3zcamop)" style="stroke: #000000; stroke-width: 1.0277684844429575;"/><path d="M739.9933,426.1813 C739.9933,433.0331 784.8725,433.0331 784.8725,433.0331 C784.8725,433.0331 829.7518,433.0331 829.7518,426.1813 " fill="none" style="stroke: #000000; stroke-width: 1.0277684844429575;"/><text fill="#000000" font-family="sans-serif" font-size="9.5925" lengthAdjust="spacingAndGlyphs" textLength="41.7959" x="746.8451" y="444.6778">Modelica</text><text fill="#000000" font-family="sans-serif" font-size="9.5925" lengthAdjust="spacingAndGlyphs" textLength="76.0549" x="746.8451" y="455.8441">Buildings Library</text><!--MD5=[f7edd7f00a15d77523143dade350b708]
entity Conversion Script--><rect fill="#FEFECE" filter="url(#f1irxjv3zcamop)" height="31.7216" style="stroke: #A80036; stroke-width: 1.0277684844429575;" width="110.3138" x="367.2559" y="424.811"/><rect fill="#FEFECE" height="6.8518" style="stroke: #A80036; stroke-width: 1.0277684844429575;" width="10.2777" x="463.8662" y="428.2369"/><rect fill="#FEFECE" height="1.3704" style="stroke: #A80036; stroke-width: 1.0277684844429575;" width="2.7407" x="462.4958" y="429.6072"/><rect fill="#FEFECE" height="1.3704" style="stroke: #A80036; stroke-width: 1.0277684844429575;" width="2.7407" x="462.4958" y="432.3479"/><text fill="#000000" font-family="sans-serif" font-size="9.5925" lengthAdjust="spacingAndGlyphs" textLength="82.9067" x="377.5336" y="447.4185">Conversion Script</text><!--MD5=[232ae75ae0319b50331eaf1a421bc539]
entity OPTIMICA--><rect fill="#FEFECE" filter="url(#f1irxjv3zcamop)" height="31.7216" style="stroke: #A80036; stroke-width: 1.0277684844429575;" width="72.629" x="532.0415" y="424.811"/><rect fill="#FEFECE" height="6.8518" style="stroke: #A80036; stroke-width: 1.0277684844429575;" width="10.2777" x="590.9669" y="428.2369"/><rect fill="#FEFECE" height="1.3704" style="stroke: #A80036; stroke-width: 1.0277684844429575;" width="2.7407" x="589.5965" y="429.6072"/><rect fill="#FEFECE" height="1.3704" style="stroke: #A80036; stroke-width: 1.0277684844429575;" width="2.7407" x="589.5965" y="432.3479"/><text fill="#000000" font-family="sans-serif" font-size="9.5925" lengthAdjust="spacingAndGlyphs" textLength="45.2218" x="542.3192" y="447.4185">OPTIMICA</text><!--MD5=[3aedfb338b648fd3e161c9d50861cb51]
entity EnergyPlus.exe--><rect fill="#FEFECE" filter="url(#f1irxjv3zcamop)" height="31.7216" style="stroke: #A80036; stroke-width: 1.0277684844429575;" width="100.0361" x="869.8347" y="286.0622"/><rect fill="#FEFECE" height="6.8518" style="stroke: #A80036; stroke-width: 1.0277684844429575;" width="10.2777" x="956.1673" y="289.4881"/><rect fill="#FEFECE" height="1.3704" style="stroke: #A80036; stroke-width: 1.0277684844429575;" width="2.7407" x="954.7969" y="290.8585"/><rect fill="#FEFECE" height="1.3704" style="stroke: #A80036; stroke-width: 1.0277684844429575;" width="2.7407" x="954.7969" y="293.5992"/><text fill="#000000" font-family="sans-serif" font-size="9.5925" lengthAdjust="spacingAndGlyphs" textLength="72.629" x="880.1124" y="308.6698">EnergyPlus.exe</text><!--MD5=[5963daf68f54f0178428bea7c00df4f2]
entity epdev--><ellipse cx="28.4349" cy="280.5808" fill="#FEFECE" filter="url(#f1irxjv3zcamop)" rx="5.4814" ry="5.4814" style="stroke: #A80036; stroke-width: 1.0277684844429575;"/><path d="M28.4349,286.0622 L28.4349,304.5621 M19.5276,291.5437 L37.3423,291.5437 M28.4349,304.5621 L19.5276,314.8397 M28.4349,304.5621 L37.3423,314.8397 " fill="none" filter="url(#f1irxjv3zcamop)" style="stroke: #A80036; stroke-width: 1.0277684844429575;"/><text fill="#000000" font-family="sans-serif" font-size="9.5925" lengthAdjust="spacingAndGlyphs" textLength="48.6477" x="4.1111" y="327.5122">Developer</text><!--MD5=[a03eb34c0261a719cc306108e0095ace]
entity modev--><ellipse cx="422.4128" cy="521.0786" fill="#FEFECE" filter="url(#f1irxjv3zcamop)" rx="5.4814" ry="5.4814" style="stroke: #A80036; stroke-width: 1.0277684844429575;"/><path d="M422.4128,526.5601 L422.4128,545.0599 M413.5055,532.0415 L431.3202,532.0415 M422.4128,545.0599 L413.5055,555.3376 M422.4128,545.0599 L431.3202,555.3376 " fill="none" filter="url(#f1irxjv3zcamop)" style="stroke: #A80036; stroke-width: 1.0277684844429575;"/><text fill="#000000" font-family="sans-serif" font-size="9.5925" lengthAdjust="spacingAndGlyphs" textLength="85.6474" x="379.5892" y="568.01">Developer or User</text><!--MD5=[5690132f6d7246e5890a1f2026a86c90]
entity budev--><ellipse cx="784.8725" cy="521.0786" fill="#FEFECE" filter="url(#f1irxjv3zcamop)" rx="5.4814" ry="5.4814" style="stroke: #A80036; stroke-width: 1.0277684844429575;"/><path d="M784.8725,526.5601 L784.8725,545.0599 M775.9652,532.0415 L793.7799,532.0415 M784.8725,545.0599 L775.9652,555.3376 M784.8725,545.0599 L793.7799,555.3376 " fill="none" filter="url(#f1irxjv3zcamop)" style="stroke: #A80036; stroke-width: 1.0277684844429575;"/><text fill="#000000" font-family="sans-serif" font-size="9.5925" lengthAdjust="spacingAndGlyphs" textLength="48.6477" x="760.5487" y="568.01">Developer</text><!--MD5=[e5b7da8fa23ec8cac7d321a34f6e9ee1]
entity Application--><rect fill="#FEFECE" filter="url(#f1irxjv3zcamop)" height="31.7216" style="stroke: #A80036; stroke-width: 1.0277684844429575;" width="78.7956" x="198.0167" y="4.7963"/><rect fill="#FEFECE" height="6.8518" style="stroke: #A80036; stroke-width: 1.0277684844429575;" width="10.2777" x="263.1087" y="8.2221"/><rect fill="#FEFECE" height="1.3704" style="stroke: #A80036; stroke-width: 1.0277684844429575;" width="2.7407" x="261.7384" y="9.5925"/><rect fill="#FEFECE" height="1.3704" style="stroke: #A80036; stroke-width: 1.0277684844429575;" width="2.7407" x="261.7384" y="12.3332"/><text fill="#000000" font-family="sans-serif" font-size="9.5925" lengthAdjust="spacingAndGlyphs" textLength="51.3884" x="208.2944" y="27.4038">Application</text><!--MD5=[d71d74ac420ecda2fd28c4c5d9c238e7]
entity Measures--><rect fill="#FEFECE" filter="url(#f1irxjv3zcamop)" height="31.7216" style="stroke: #A80036; stroke-width: 1.0277684844429575;" width="73.9993" x="432.0054" y="4.7963"/><rect fill="#FEFECE" height="6.8518" style="stroke: #A80036; stroke-width: 1.0277684844429575;" width="10.2777" x="492.3011" y="8.2221"/><rect fill="#FEFECE" height="1.3704" style="stroke: #A80036; stroke-width: 1.0277684844429575;" width="2.7407" x="490.9307" y="9.5925"/><rect fill="#FEFECE" height="1.3704" style="stroke: #A80036; stroke-width: 1.0277684844429575;" width="2.7407" x="490.9307" y="12.3332"/><text fill="#000000" font-family="sans-serif" font-size="9.5925" lengthAdjust="spacingAndGlyphs" textLength="46.5922" x="442.283" y="27.4038">Measures</text><!--MD5=[148e0797da32aee5cafe4ca904954e78]
entity User-Provided\nModelica Library--><path d="M524.1619,527.9304 C524.1619,521.0786 568.356,521.0786 568.356,521.0786 C568.356,521.0786 612.55,521.0786 612.55,527.9304 L612.55,556.4296 C612.55,563.2814 568.356,563.2814 568.356,563.2814 C568.356,563.2814 524.1619,563.2814 524.1619,556.4296 L524.1619,527.9304 " fill="#FEFECE" filter="url(#f1irxjv3zcamop)" style="stroke: #000000; stroke-width: 1.0277684844429575;"/><path d="M524.1619,527.9304 C524.1619,534.7822 568.356,534.7822 568.356,534.7822 C568.356,534.7822 612.55,534.7822 612.55,527.9304 " fill="none" style="stroke: #000000; stroke-width: 1.0277684844429575;"/><text fill="#000000" font-family="sans-serif" font-size="9.5925" lengthAdjust="spacingAndGlyphs" textLength="66.4624" x="531.0137" y="546.4269">User-Provided</text><text fill="#000000" font-family="sans-serif" font-size="9.5925" lengthAdjust="spacingAndGlyphs" textLength="74.6845" x="531.0137" y="557.5932">Modelica Library</text><!--MD5=[7905bee618fc0bfe434b1d5b87776b5a]
entity mouse--><ellipse cx="512.1713" cy="646.4664" fill="#FEFECE" filter="url(#f1irxjv3zcamop)" rx="5.4814" ry="5.4814" style="stroke: #A80036; stroke-width: 1.0277684844429575;"/><path d="M512.1713,651.9478 L512.1713,670.4476 M503.264,657.4292 L521.0786,657.4292 M512.1713,670.4476 L503.264,680.7253 M512.1713,670.4476 L521.0786,680.7253 " fill="none" filter="url(#f1irxjv3zcamop)" style="stroke: #A80036; stroke-width: 1.0277684844429575;"/><text fill="#000000" font-family="sans-serif" font-size="9.5925" lengthAdjust="spacingAndGlyphs" textLength="21.9257" x="501.2084" y="693.3978">User</text><path d="M854.0756,426.8665 L854.0756,454.4557 L1028.1111,454.4557 L1028.1111,433.7183 L1021.2593,426.8665 L854.0756,426.8665 " fill="#FBFB77" filter="url(#f1irxjv3zcamop)" style="stroke: #A80036; stroke-width: 0.6851789896286383;"/><path d="M1021.2593,426.8665 L1021.2593,433.7183 L1028.1111,433.7183 L1021.2593,426.8665 " fill="#FBFB77" style="stroke: #A80036; stroke-width: 0.6851789896286383;"/><text fill="#000000" font-family="sans-serif" font-size="8.9073" lengthAdjust="spacingAndGlyphs" textLength="159.6467" x="858.1867" y="438.5604">Used as an intermediate format and</text><text fill="#000000" font-family="sans-serif" font-size="8.9073" lengthAdjust="spacingAndGlyphs" textLength="136.3506" x="858.1867" y="448.9291">to verify incompatible changes.</text><path d="M547.458,622.8277 L547.458,712.629 L701.6233,712.629 L701.6233,629.6795 L694.7715,622.8277 L547.458,622.8277 " fill="#FBFB77" filter="url(#f1irxjv3zcamop)" style="stroke: #A80036; stroke-width: 0.6851789896286383;"/><path d="M694.7715,622.8277 L694.7715,629.6795 L701.6233,629.6795 L694.7715,622.8277 " fill="#FBFB77" style="stroke: #A80036; stroke-width: 0.6851789896286383;"/><text fill="#000000" font-family="sans-serif" font-size="8.9073" lengthAdjust="spacingAndGlyphs" textLength="107.5731" x="551.5691" y="634.5216">Allows companies to use</text><text fill="#000000" font-family="sans-serif" font-size="8.9073" lengthAdjust="spacingAndGlyphs" textLength="117.8508" x="551.5691" y="644.8903">their own Modelica libraries</text><text fill="#000000" font-family="sans-serif" font-size="8.9073" lengthAdjust="spacingAndGlyphs" textLength="139.7765" x="551.5691" y="655.2589">with custom HVAC systems and</text><text fill="#000000" font-family="sans-serif" font-size="8.9073" lengthAdjust="spacingAndGlyphs" textLength="94.5547" x="551.5691" y="665.6276">control sequences, or</text><text fill="#000000" font-family="sans-serif" font-size="8.9073" lengthAdjust="spacingAndGlyphs" textLength="110.3138" x="551.5691" y="675.9963">to integrate an electronic</text><text fill="#000000" font-family="sans-serif" font-size="8.9073" lengthAdjust="spacingAndGlyphs" textLength="102.0917" x="551.5691" y="686.365">equipment catalog or a</text><text fill="#000000" font-family="sans-serif" font-size="8.9073" lengthAdjust="spacingAndGlyphs" textLength="128.8137" x="551.5691" y="696.7337">library used for an equipment</text><text fill="#000000" font-family="sans-serif" font-size="8.9073" lengthAdjust="spacingAndGlyphs" textLength="44.5366" x="551.5691" y="707.1024">sales tool.</text><path d="M301.1362,6.8518 L301.1362,17.8147 L277.0037,20.5554 L301.1362,23.2961 L301.1362,34.441 A0,0 0 0 0 301.1362,34.441 L408.0241,34.441 A0,0 0 0 0 408.0241,34.441 L408.0241,13.7036 L401.1723,6.8518 L301.1362,6.8518 A0,0 0 0 0 301.1362,6.8518 " fill="#FBFB77" filter="url(#f1irxjv3zcamop)" style="stroke: #A80036; stroke-width: 0.6851789896286383;"/><path d="M401.1723,6.8518 L401.1723,13.7036 L408.0241,13.7036 L401.1723,6.8518 " fill="#FBFB77" style="stroke: #A80036; stroke-width: 0.6851789896286383;"/><text fill="#000000" font-family="sans-serif" font-size="8.9073" lengthAdjust="spacingAndGlyphs" textLength="91.814" x="305.2472" y="18.5457">Application that uses</text><text fill="#000000" font-family="sans-serif" font-size="8.9073" lengthAdjust="spacingAndGlyphs" textLength="92.4992" x="305.2472" y="28.9144">the OpenStudio SDK.</text><!--MD5=[31577fd4e21e054a3fb43100feb45951]
link API to Core--><path d="M404.7186,121.2767 C412.7285,121.2767 420.7383,121.2767 428.7481,121.2767 " fill="none" id="API-Core" style="stroke: #A80036; stroke-width: 0.6851789896286383;"/><!--MD5=[2a7ccccbf5f9e76ec3dc3e8a3c5ccb6d]
link Core to Legacy\nModel Library--><path d="M430.1263,137.1376 C414.3102,148.1092 393.421,163.4511 376.5059,178.8317 C341.7035,210.4768 306.0675,251.883 284.866,277.6643 " fill="none" id="Core-to-Legacy\nModel Library" style="stroke: #A80036; stroke-width: 0.6851789896286383;"/><polygon fill="#A80036" points="282.6066,280.419,288.6363,277.389,284.7791,277.7701,284.398,273.9129,282.6066,280.419" style="stroke: #A80036; stroke-width: 0.6851789896286383;"/><text fill="#000000" font-family="sans-serif" font-size="8.9073" lengthAdjust="spacingAndGlyphs" textLength="44.5366" x="377.191" y="187.7849">integrates</text><!--MD5=[b8566d576825d34068d798e25ee5c0ed]
link Core to HVAC Systems Editor\n(Legacy Mode)--><path d="M428.8142,132.452 C424.8682,134.0689 420.8114,135.6519 416.9314,137.0358 C305.8264,176.6637 243.533,125.7452 162.0448,211.0351 C145.3147,228.5457 140.6431,256.527 139.6541,276.8005 " fill="none" id="Core-to-HVAC Systems Editor\n(Legacy Mode)" style="stroke: #A80036; stroke-width: 0.6851789896286383;"/><polygon fill="#A80036" points="139.5178,280.2382,142.5009,274.1851,139.6536,276.815,137.0238,273.9678,139.5178,280.2382" style="stroke: #A80036; stroke-width: 0.6851789896286383;"/><text fill="#000000" font-family="sans-serif" font-size="8.9073" lengthAdjust="spacingAndGlyphs" textLength="44.5366" x="199.0445" y="187.7849">integrates</text><!--MD5=[3509e76fd005bae0a7416f6cf4a87057]
link Core to EnergyPlus\nSimulator Interface--><path d="M447.7898,137.2988 C435.7164,168.7973 408.8102,238.9931 394.3539,276.7081 " fill="none" id="Core-to-EnergyPlus\nSimulator Interface" style="stroke: #A80036; stroke-width: 0.6851789896286383;"/><polygon fill="#A80036" points="393.0798,280.0322,397.8461,275.2551,394.306,276.8333,392.7278,273.2932,393.0798,280.0322" style="stroke: #A80036; stroke-width: 0.6851789896286383;"/><text fill="#000000" font-family="sans-serif" font-size="8.9073" lengthAdjust="spacingAndGlyphs" textLength="44.5366" x="432.0054" y="187.7849">integrates</text><!--MD5=[57eacc2d1dd9205404df33a0ebe26264]
link Core to Model Library--><path d="M479.0117,136.2201 C496.3838,147.0818 519.6337,162.6601 538.2081,178.8317 C576.4611,212.1363 614.8598,257.7195 635.154,282.9974 " fill="none" id="Core-to-Model Library" style="stroke: #A80036; stroke-width: 0.6851789896286383;"/><polygon fill="#A80036" points="637.5379,285.9772,635.8257,279.4498,635.3977,283.3021,631.5455,282.8741,637.5379,285.9772" style="stroke: #A80036; stroke-width: 0.6851789896286383;"/><text fill="#000000" font-family="sans-serif" font-size="8.9073" lengthAdjust="spacingAndGlyphs" textLength="44.5366" x="549.8561" y="187.7849">integrates</text><!--MD5=[65ac4758a20d28304cea39de76158f26]
link Core to HVAC Systems Editor\n(SOEP Mode)--><path d="M478.965,122.667 C532.7363,126.908 660.6715,143.8822 738.2804,211.0351 C758.0504,228.1417 769.6783,256.1904 775.9351,276.5902 " fill="none" id="Core-to-HVAC Systems Editor\n(SOEP Mode)" style="stroke: #A80036; stroke-width: 0.6851789896286383;"/><polygon fill="#A80036" points="776.9677,280.0503,777.8305,273.3574,775.988,276.7674,772.578,274.9249,776.9677,280.0503" style="stroke: #A80036; stroke-width: 0.6851789896286383;"/><text fill="#000000" font-family="sans-serif" font-size="8.9073" lengthAdjust="spacingAndGlyphs" textLength="44.5366" x="710.188" y="187.7849">integrates</text><!--MD5=[f2681455aef4ddc23454f5b52b6a48da]
link Core to SOEP\nSimulator Interface--><path d="M462.6119,137.1202 C468.6724,148.5258 476.7173,164.3845 482.7086,178.8317 C496.4923,212.0693 509.0889,251.7428 516.6082,276.8613 " fill="none" id="Core-to-SOEP\nSimulator Interface" style="stroke: #A80036; stroke-width: 0.6851789896286383;"/><polygon fill="#A80036" points="517.59,280.1548,518.4548,273.4622,516.6113,276.8716,513.2018,275.0281,517.59,280.1548" style="stroke: #A80036; stroke-width: 0.6851789896286383;"/><text fill="#000000" font-family="sans-serif" font-size="8.9073" lengthAdjust="spacingAndGlyphs" textLength="44.5366" x="487.5049" y="187.7849">integrates</text><!--MD5=[2887897e9622db9c80ac644e6334f4d0]
link Model Library to mod_AST--><path d="M649.3284,317.701 C649.0222,327.1237 648.6754,339.3049 648.5219,350.1265 C648.319,364.4377 646.9513,368.1037 648.5219,382.3299 C649.7477,393.4325 652.25,405.5131 654.7361,415.7788 " fill="none" id="Model Library-to-mod_AST" style="stroke: #A80036; stroke-width: 0.6851789896286383;"/><polygon fill="#A80036" points="655.5768,419.1865,656.7607,412.543,654.7562,415.8604,651.4388,413.8559,655.5768,419.1865" style="stroke: #A80036; stroke-width: 0.6851789896286383;"/><text fill="#000000" font-family="sans-serif" font-size="8.9073" lengthAdjust="spacingAndGlyphs" textLength="50.0181" x="649.2071" y="364.2185">parses json</text><text fill="#000000" font-family="sans-serif" font-size="8.9073" lengthAdjust="spacingAndGlyphs" textLength="17.1295" x="665.6514" y="374.5872">AST</text><!--MD5=[cd4dd835692b7a11c9ffb38a5179edac]
link HVAC Systems Editor\n(SOEP Mode) to mod_AST--><path d="M777.6277,323.4333 C772.7588,341.5891 763.2391,366.964 745.8173,382.3299 C739.6046,387.8095 735.3323,383.9513 728.0027,387.8113 C713.2181,395.5974 698.4879,406.8406 686.666,416.9491 " fill="none" id="HVAC Systems Editor\n(SOEP Mode)-to-mod_AST" style="stroke: #A80036; stroke-width: 0.6851789896286383; stroke-dasharray: 7.0,7.0;"/><polygon fill="#A80036" points="684.0349,419.2211,690.4935,417.2651,686.6279,416.9821,686.9109,413.1165,684.0349,419.2211" style="stroke: #A80036; stroke-width: 0.6851789896286383;"/><text fill="#000000" font-family="sans-serif" font-size="8.9073" lengthAdjust="spacingAndGlyphs" textLength="50.0181" x="767.7431" y="364.2185">parses json</text><text fill="#000000" font-family="sans-serif" font-size="8.9073" lengthAdjust="spacingAndGlyphs" textLength="17.1295" x="784.1874" y="374.5872">AST</text><!--MD5=[8f533c4b9a6e96ce5a979a3034ba4946]
link Conversion Script to OPTIMICA--><path d="M477.5877,440.5701 C494.4726,440.5701 512.7115,440.5701 528.3795,440.5701 " fill="none" id="Conversion Script-to-OPTIMICA" style="stroke: #A80036; stroke-width: 0.6851789896286383; stroke-dasharray: 7.0,7.0;"/><polygon fill="#A80036" points="531.8887,440.5701,525.7221,437.8294,528.4628,440.5701,525.7221,443.3108,531.8887,440.5701" style="stroke: #A80036; stroke-width: 0.6851789896286383;"/><text fill="#000000" font-family="sans-serif" font-size="8.9073" lengthAdjust="spacingAndGlyphs" textLength="29.4627" x="490.0743" y="425.542">parses</text><text fill="#000000" font-family="sans-serif" font-size="8.9073" lengthAdjust="spacingAndGlyphs" textLength="17.1295" x="496.2409" y="435.9107">AST</text><!--MD5=[8e0c2fbec0d17c8e846b36e7326249c1]
link SOEP\nSimulator Interface to OPTIMICA--><path d="M530.7782,323.5008 C539.3943,350.3435 553.9373,395.6503 562.1765,421.3187 " fill="none" id="SOEP\nSimulator Interface-to-OPTIMICA" style="stroke: #A80036; stroke-width: 0.6851789896286383; stroke-dasharray: 7.0,7.0;"/><polygon fill="#A80036" points="563.2471,424.6539,563.9718,417.9447,562.1999,421.3919,558.7527,419.6201,563.2471,424.6539" style="stroke: #A80036; stroke-width: 0.6851789896286383;"/><text fill="#000000" font-family="sans-serif" font-size="8.9073" lengthAdjust="spacingAndGlyphs" textLength="57.555" x="555.3376" y="359.0796">writes inputs,</text><text fill="#000000" font-family="sans-serif" font-size="8.9073" lengthAdjust="spacingAndGlyphs" textLength="69.8883" x="549.171" y="369.4483">runs simulation,</text><text fill="#000000" font-family="sans-serif" font-size="8.9073" lengthAdjust="spacingAndGlyphs" textLength="60.9809" x="553.6246" y="379.817">reads outputs</text><!--MD5=[7d2721807fa30f4524d2fb0f482a7769]
link Conversion Script to mod_AST--><path d="M430.711,424.8026 C439.8522,409.3189 456.1443,386.6399 477.5698,376.8484 C503.405,365.0417 603.5595,380.5851 617.0037,387.8113 C629.1638,394.3473 639.3967,405.6808 646.9753,416.1722 " fill="none" id="Conversion Script-to-mod_AST" style="stroke: #A80036; stroke-width: 0.6851789896286383;"/><polygon fill="#A80036" points="649.0418,419.1043,647.7293,412.4849,647.0681,416.304,643.249,415.6428,649.0418,419.1043" style="stroke: #A80036; stroke-width: 0.6851789896286383;"/><text fill="#000000" font-family="sans-serif" font-size="8.9073" lengthAdjust="spacingAndGlyphs" textLength="44.5366" x="478.2549" y="369.3573">generates</text><!--MD5=[87e88b4a70f6554b6d5ae84a10cda04b]
link OPTIMICA to Modelica\nBuildings Library--><path d="M578.4452,424.5757 C587.0929,412.3386 600.7156,396.1857 617.0037,387.8113 C665.8096,362.7182 691.2806,351.575 739.9933,376.8484 C755.8495,385.075 767.2869,401.7626 774.6462,415.997 " fill="none" id="OPTIMICA-to-Modelica\nBuildings Library" style="stroke: #A80036; stroke-width: 0.6851789896286383;"/><polygon fill="#A80036" points="776.2462,419.1798,775.9255,412.4392,774.7076,416.1189,771.0279,414.901,776.2462,419.1798" style="stroke: #A80036; stroke-width: 0.6851789896286383;"/><text fill="#000000" font-family="sans-serif" font-size="8.9073" lengthAdjust="spacingAndGlyphs" textLength="33.5738" x="705.7344" y="369.3573">imports</text><!--MD5=[8c884e82b73f8a874d122f88572e7cf7]
link epdev to Legacy\nModel Library--><path d="M41.9872,273.9415 C48.039,264.3998 56.097,254.6462 66.1198,248.72 C119.2572,217.3007 147.854,212.5966 204.5259,237.0719 C223.6638,245.3372 239.5755,262.8914 250.3415,277.6392 " fill="none" id="epdev-to-Legacy\nModel Library" style="stroke: #A80036; stroke-width: 0.6851789896286383; stroke-dasharray: 7.0,7.0;"/><polygon fill="#A80036" points="252.4256,280.5477,251.0618,273.9387,250.4302,277.7628,246.6061,277.1312,252.4256,280.5477" style="stroke: #A80036; stroke-width: 0.6851789896286383;"/><text fill="#000000" font-family="sans-serif" font-size="8.9073" lengthAdjust="spacingAndGlyphs" textLength="35.6293" x="168.2114" y="230.266">updates</text><!--MD5=[46fdbb397c3b008bef3c359ae499d6a8]
reverse link Conversion Script to modev--><path d="M422.4128,460.0484 C422.4128,475.4633 422.4128,497.1923 422.4128,514.4485 " fill="none" id="Conversion Script-backto-modev" style="stroke: #A80036; stroke-width: 0.6851789896286383; stroke-dasharray: 7.0,7.0;"/><polygon fill="#A80036" points="422.4128,456.4684,419.6721,462.635,422.4128,459.8943,425.1536,462.635,422.4128,456.4684" style="stroke: #A80036; stroke-width: 0.6851789896286383;"/><text fill="#000000" font-family="sans-serif" font-size="8.9073" lengthAdjust="spacingAndGlyphs" textLength="32.8886" x="423.098" y="491.3192">invokes</text><!--MD5=[124cc63ebb4b8157d1b02ee86516699e]
reverse link Modelica\nBuildings Library to budev--><path d="M784.8725,465.3854 C784.8725,480.2177 784.8725,499.0983 784.8725,514.4433 " fill="none" id="Modelica\nBuildings Library-backto-budev" style="stroke: #A80036; stroke-width: 0.6851789896286383; stroke-dasharray: 7.0,7.0;"/><polygon fill="#A80036" points="784.8725,461.9001,782.1318,468.0667,784.8725,465.3259,787.6132,468.0667,784.8725,461.9001" style="stroke: #A80036; stroke-width: 0.6851789896286383;"/><text fill="#000000" font-family="sans-serif" font-size="8.9073" lengthAdjust="spacingAndGlyphs" textLength="76.0549" x="785.5577" y="491.3192">adds annotations</text><!--MD5=[5c13075721c514c1670da1ecc246072a]
link Application to API--><path d="M262.7506,36.4039 C299.1966,59.2021 364.7084,100.1818 389.0174,115.3878 " fill="none" id="Application-to-API" style="stroke: #A80036; stroke-width: 0.6851789896286383; stroke-dasharray: 7.0,7.0;"/><polygon fill="#A80036" points="392.0361,117.2761,388.2616,111.6822,389.1317,115.4593,385.3546,116.3293,392.0361,117.2761" style="stroke: #A80036; stroke-width: 0.6851789896286383;"/><text fill="#000000" font-family="sans-serif" font-size="8.9073" lengthAdjust="spacingAndGlyphs" textLength="20.5554" x="313.4694" y="65.823">uses</text><!--MD5=[963b59af1eec109a1d726fa360b85d9b]
link Measures to API--><path d="M450.2108,36.3648 C439.3434,46.2849 426.0576,59.8455 416.9314,73.9993 C409.1894,86.0065 403.8346,101.7625 400.948,111.7062 " fill="none" id="Measures-to-API" style="stroke: #A80036; stroke-width: 0.6851789896286383; stroke-dasharray: 7.0,7.0;"/><polygon fill="#A80036" points="399.9963,115.0889,404.3046,109.895,400.9241,111.791,399.0281,108.4105,399.9963,115.0889" style="stroke: #A80036; stroke-width: 0.6851789896286383;"/><text fill="#000000" font-family="sans-serif" font-size="8.9073" lengthAdjust="spacingAndGlyphs" textLength="20.5554" x="429.2646" y="65.823">uses</text><!--MD5=[78eee877672f2cacaa31a2c87c0ca050]
link OPTIMICA to User-Provided\nModelica Library--><path d="M568.356,456.4684 C568.356,472.8324 568.356,498.5539 568.356,517.5802 " fill="none" id="OPTIMICA-to-User-Provided\nModelica Library" style="stroke: #A80036; stroke-width: 0.6851789896286383;"/><polygon fill="#A80036" points="568.356,521.0512,571.0967,514.8846,568.356,517.6253,565.6153,514.8846,568.356,521.0512" style="stroke: #A80036; stroke-width: 0.6851789896286383;"/><text fill="#000000" font-family="sans-serif" font-size="8.9073" lengthAdjust="spacingAndGlyphs" textLength="33.5738" x="569.0412" y="491.3192">imports</text><!--MD5=[1d7c5ca03e2fa694c2607bca2a1e9530]
link EnergyPlus\nSimulator Interface to EnergyPlus--><path d="M406.9367,280.1295 C419.9504,268.7795 437.3275,255.805 455.3014,248.72 C541.0577,214.9161 569.4912,231.6735 661.5403,226.7942 C732.8652,223.0136 928.5664,201.5551 982.2041,248.72 C983.2672,249.6548 984.2458,250.6625 985.146,251.7311 C985.5961,252.2654 986.0267,252.815 986.4384,253.3783 C986.6443,253.66 986.8454,253.9451 987.042,254.2335 C987.0911,254.3056 987.14,254.3779 987.1886,254.4504 " fill="none" id="EnergyPlus\nSimulator Interface-to-EnergyPlus" style="stroke: #A80036; stroke-width: 0.6851789896286383; stroke-dasharray: 7.0,7.0;"/><polygon fill="#A80036" points="987.1886,254.4504,986.0337,247.8018,985.2819,251.6041,981.4796,250.8524,987.1886,254.4504" style="stroke: #A80036; stroke-width: 0.6851789896286383;"/><text fill="#000000" font-family="sans-serif" font-size="8.9073" lengthAdjust="spacingAndGlyphs" textLength="57.555" x="668.3921" y="219.9883">writes inputs,</text><text fill="#000000" font-family="sans-serif" font-size="8.9073" lengthAdjust="spacingAndGlyphs" textLength="69.8883" x="662.2255" y="230.357">runs simulation,</text><text fill="#000000" font-family="sans-serif" font-size="8.9073" lengthAdjust="spacingAndGlyphs" textLength="60.9809" x="666.6792" y="240.7257">reads outputs</text><!--MD5=[f4064eb770ef6045837a92666c4f19fe]
reverse link User-Provided\nModelica Library to mouse--><path d="M545.3332,566.3373 C539.3487,573.6638 533.4307,582.0591 529.3008,590.6243 C521.8581,606.0597 517.5997,624.7994 515.1904,639.9365 " fill="none" id="User-Provided\nModelica Library-backto-mouse" style="stroke: #A80036; stroke-width: 0.6851789896286383; stroke-dasharray: 7.0,7.0;"/><polygon fill="#A80036" points="547.5378,563.6881,541.4866,566.675,545.3464,566.3215,545.7,570.1813,547.5378,563.6881" style="stroke: #A80036; stroke-width: 0.6851789896286383;"/><text fill="#000000" font-family="sans-serif" font-size="8.9073" lengthAdjust="spacingAndGlyphs" textLength="76.0549" x="529.9859" y="599.5775">adds annotations</text><!--MD5=[03da7173867992cc59d53c830e3189a1]
link GMN52 to mod_AST--><path d="M927.8234,426.8419 C908.3029,407.7454 869.7369,374.0513 829.0666,361.0893 C791.3477,349.0681 776.5185,345.8207 739.9933,361.0893 C711.9978,372.7923 688.9116,399.8903 675.1948,419.1868 " fill="none" id="GMN52-mod_AST" style="stroke: #A80036; stroke-width: 0.6851789896286383; stroke-dasharray: 7.0,7.0;"/><!--MD5=[36b7243a48e7b5fc322ef494b151adf7]
link User-Provided\nModelica Library to GMN55--><path d="M590.651,563.6976 C597.6583,571.545 604.7811,580.9025 609.4667,590.6243 C614.2325,600.5126 617.4916,611.8041 619.7203,622.6385 " fill="none" id="User-Provided\nModelica Library-GMN55" style="stroke: #A80036; stroke-width: 0.6851789896286383; stroke-dasharray: 7.0,7.0;"/><!--MD5=[5b06c95d33862dd2646b250f3bf5d96b]
@startuml
scale max 1024 width

skinparam componentStyle uml2

package OpenStudio {
interface API
API - [Core]

package Legacy-Mode {
database "Legacy\nModel Library"
[Core] -down-> [Legacy\nModel Library]: integrates
[Core] -down-> [HVAC Systems Editor\n(Legacy Mode)]: integrates
[Core] -down-> [EnergyPlus\nSimulator Interface]: integrates
}

package SOEP-Mode {
[Core] -down-> [Model Library]: integrates
[Core] -down-> [HVAC Systems Editor\n(SOEP Mode)]: integrates
[Core] -down-> [SOEP\nSimulator Interface]: integrates
}
}

package SOEP {
database "Modelica\nLibrary AST" as mod_AST
database "Modelica\nBuildings Library"

[Model Library] - -> mod_AST : parses json\nAST

[HVAC Systems Editor\n(SOEP Mode)] ..> mod_AST : parses json\nAST

[Conversion Script] .> [OPTIMICA]: parses\nAST
[SOEP\nSimulator Interface] .> [OPTIMICA] : writes inputs,\nruns simulation,\nreads outputs

[Conversion Script] -> mod_AST: generates
[OPTIMICA] -> [Modelica\nBuildings Library]: imports
}


actor Developer as epdev
[Legacy\nModel Library] <.left. epdev : updates

actor "Developer or User" as modev
[Conversion Script] <.. modev : invokes

actor Developer as budev
[Modelica\nBuildings Library] <.. budev : adds annotations

[Application] ..> () API : uses
[Measures] ..> () API : uses

database "User-Provided\nModelica Library"
[OPTIMICA] - -> [User-Provided\nModelica Library]: imports

EnergyPlus <.left. [EnergyPlus\nSimulator Interface]: writes inputs,\nruns simulation,\nreads outputs

package EnergyPlus {
  [EnergyPlus.exe]
}

actor User as mouse
[User-Provided\nModelica Library] <.. mouse : adds annotations

note left of mod_AST
  Used as an intermediate format and
  to verify incompatible changes.
end note

note bottom of [User-Provided\nModelica Library]
  Allows companies to use
  their own Modelica libraries
  with custom HVAC systems and
  control sequences, or
  to integrate an electronic
  equipment catalog or a
  library used for an equipment
  sales tool.
end note

note right of Application
  Application that uses
  the OpenStudio SDK.
end note
@enduml

PlantUML version 1.2020.16(Sun Aug 23 13:20:43 PDT 2020)
(GPL source distribution)
Java Runtime: OpenJDK Runtime Environment
JVM: OpenJDK 64-Bit Server VM
Default Encoding: UTF-8
Language: en
Country: US
--></g></svg>