<?xml version="1.0" encoding="UTF-8" standalone="no"?><svg xmlns="http://www.w3.org/2000/svg" xmlns:xlink="http://www.w3.org/1999/xlink" contentScriptType="application/ecmascript" contentStyleType="text/css" height="586px" preserveAspectRatio="none" style="width:591px;height:586px;" version="1.1" viewBox="0 0 591 586" width="591px" zoomAndPan="magnify"><defs><filter height="300%" id="f6kkulm" width="300%" x="-1" y="-1"><feGaussianBlur result="blurOut" stdDeviation="2.0"/><feColorMatrix in="blurOut" result="blurOut2" type="matrix" values="0 0 0 0 0 0 0 0 0 0 0 0 0 0 0 0 0 0 .4 0"/><feOffset dx="4.0" dy="4.0" in="blurOut2" result="blurOut3"/><feBlend in="SourceGraphic" in2="blurOut3" mode="normal"/></filter></defs><g><text fill="#000000" font-family="sans-serif" font-size="14" font-weight="bold" lengthAdjust="spacingAndGlyphs" textLength="260" x="167.5" y="23.5352">Apply OS measure to set of models.</text><rect fill="#FFFFFF" filter="url(#f6kkulm)" height="249.1738" style="stroke: #000000; stroke-width: 2.0;" width="569" x="13" y="282.2188"/><rect fill="#FFFFFF" height="147.2422" style="stroke: none; stroke-width: 1.0;" width="569" x="13" y="384.1504"/><rect fill="#FFFFFF" filter="url(#f6kkulm)" height="59.6211" style="stroke: #000000; stroke-width: 2.0;" width="549" x="23" y="393.1504"/><line style="stroke: #A80036; stroke-width: 1.0; stroke-dasharray: 5.0,5.0;" x1="71" x2="71" y1="68.9766" y2="548.3926"/><line style="stroke: #A80036; stroke-width: 1.0; stroke-dasharray: 5.0,5.0;" x1="199.5" x2="199.5" y1="68.9766" y2="548.3926"/><line style="stroke: #A80036; stroke-width: 1.0; stroke-dasharray: 5.0,5.0;" x1="328.5" x2="328.5" y1="68.9766" y2="548.3926"/><rect fill="#FEFECE" filter="url(#f6kkulm)" height="30.4883" style="stroke: #A80036; stroke-width: 1.5;" width="72" x="33" y="33.4883"/><text fill="#000000" font-family="sans-serif" font-size="14" lengthAdjust="spacingAndGlyphs" textLength="58" x="40" y="54.0234">Measure</text><rect fill="#FEFECE" filter="url(#f6kkulm)" height="30.4883" style="stroke: #A80036; stroke-width: 1.5;" width="72" x="33" y="547.3926"/><text fill="#000000" font-family="sans-serif" font-size="14" lengthAdjust="spacingAndGlyphs" textLength="58" x="40" y="567.9277">Measure</text><rect fill="#FEFECE" filter="url(#f6kkulm)" height="30.4883" style="stroke: #A80036; stroke-width: 1.5;" width="101" x="147.5" y="33.4883"/><text fill="#000000" font-family="sans-serif" font-size="14" lengthAdjust="spacingAndGlyphs" textLength="87" x="154.5" y="54.0234">Model Editor</text><rect fill="#FEFECE" filter="url(#f6kkulm)" height="30.4883" style="stroke: #A80036; stroke-width: 1.5;" width="101" x="147.5" y="547.3926"/><text fill="#000000" font-family="sans-serif" font-size="14" lengthAdjust="spacingAndGlyphs" textLength="87" x="154.5" y="567.9277">Model Editor</text><rect fill="#FEFECE" filter="url(#f6kkulm)" height="30.4883" style="stroke: #A80036; stroke-width: 1.5;" width="79" x="287.5" y="33.4883"/><text fill="#000000" font-family="sans-serif" font-size="14" lengthAdjust="spacingAndGlyphs" textLength="65" x="294.5" y="54.0234">JModelica</text><rect fill="#FEFECE" filter="url(#f6kkulm)" height="30.4883" style="stroke: #A80036; stroke-width: 1.5;" width="79" x="287.5" y="547.3926"/><text fill="#000000" font-family="sans-serif" font-size="14" lengthAdjust="spacingAndGlyphs" textLength="65" x="294.5" y="567.9277">JModelica</text><polygon fill="#A80036" points="188,95.9766,198,99.9766,188,103.9766,192,99.9766" style="stroke: #A80036; stroke-width: 1.0;"/><line style="stroke: #A80036; stroke-width: 1.0;" x1="71" x2="194" y1="99.9766" y2="99.9766"/><text fill="#000000" font-family="sans-serif" font-size="13" lengthAdjust="spacingAndGlyphs" textLength="105" x="78" y="95.5449">getInstanceAST()</text><polygon fill="#A80036" points="317,125.2871,327,129.2871,317,133.2871,321,129.2871" style="stroke: #A80036; stroke-width: 1.0;"/><line style="stroke: #A80036; stroke-width: 1.0;" x1="200" x2="323" y1="129.2871" y2="129.2871"/><text fill="#000000" font-family="sans-serif" font-size="13" lengthAdjust="spacingAndGlyphs" textLength="105" x="207" y="124.8555">getInstanceAST()</text><polygon fill="#A80036" points="211,139.5977,201,143.5977,211,147.5977,207,143.5977" style="stroke: #A80036; stroke-width: 1.0;"/><line style="stroke: #A80036; stroke-width: 1.0;" x1="205" x2="328" y1="143.5977" y2="143.5977"/><polygon fill="#A80036" points="82,153.5977,72,157.5977,82,161.5977,78,157.5977" style="stroke: #A80036; stroke-width: 1.0;"/><line style="stroke: #A80036; stroke-width: 1.0;" x1="76" x2="199" y1="157.5977" y2="157.5977"/><line style="stroke: #A80036; stroke-width: 1.0;" x1="71" x2="113" y1="211.9082" y2="211.9082"/><line style="stroke: #A80036; stroke-width: 1.0;" x1="113" x2="113" y1="211.9082" y2="224.9082"/><line style="stroke: #A80036; stroke-width: 1.0;" x1="72" x2="113" y1="224.9082" y2="224.9082"/><polygon fill="#A80036" points="82,220.9082,72,224.9082,82,228.9082,78,224.9082" style="stroke: #A80036; stroke-width: 1.0;"/><text fill="#000000" font-family="sans-serif" font-size="13" lengthAdjust="spacingAndGlyphs" textLength="111" x="78" y="207.166">searchParameter()</text><line style="stroke: #A80036; stroke-width: 1.0;" x1="71" x2="113" y1="254.2188" y2="254.2188"/><line style="stroke: #A80036; stroke-width: 1.0;" x1="113" x2="113" y1="254.2188" y2="267.2188"/><line style="stroke: #A80036; stroke-width: 1.0;" x1="72" x2="113" y1="267.2188" y2="267.2188"/><polygon fill="#A80036" points="82,263.2188,72,267.2188,82,271.2188,78,267.2188" style="stroke: #A80036; stroke-width: 1.0;"/><text fill="#000000" font-family="sans-serif" font-size="13" lengthAdjust="spacingAndGlyphs" textLength="57" x="78" y="249.4766">validate()</text><rect fill="none" height="249.1738" style="stroke: #000000; stroke-width: 2.0;" width="569" x="13" y="282.2188"/><polygon fill="#EEEEEE" points="13,282.2188,75,282.2188,75,289.2188,65,299.2188,13,299.2188,13,282.2188" style="stroke: #000000; stroke-width: 2.0;"/><text fill="#000000" font-family="sans-serif" font-size="13" font-weight="bold" lengthAdjust="spacingAndGlyphs" textLength="17" x="28" y="295.7871">alt</text><text fill="#000000" font-family="sans-serif" font-size="11" font-weight="bold" lengthAdjust="spacingAndGlyphs" textLength="177" x="90" y="294.8535">[no non-final parameter found]</text><line style="stroke: #A80036; stroke-width: 1.0;" x1="71" x2="113" y1="320.8398" y2="320.8398"/><line style="stroke: #A80036; stroke-width: 1.0;" x1="113" x2="113" y1="320.8398" y2="333.8398"/><line style="stroke: #A80036; stroke-width: 1.0;" x1="72" x2="113" y1="333.8398" y2="333.8398"/><polygon fill="#A80036" points="82,329.8398,72,333.8398,82,337.8398,78,333.8398" style="stroke: #A80036; stroke-width: 1.0;"/><text fill="#000000" font-family="sans-serif" font-size="13" lengthAdjust="spacingAndGlyphs" textLength="76" x="78" y="316.0977">reportError()</text><line style="stroke: #A80036; stroke-width: 1.0;" x1="71" x2="113" y1="363.1504" y2="363.1504"/><line style="stroke: #A80036; stroke-width: 1.0;" x1="113" x2="113" y1="363.1504" y2="376.1504"/><line style="stroke: #A80036; stroke-width: 1.0;" x1="72" x2="113" y1="376.1504" y2="376.1504"/><polygon fill="#A80036" points="82,372.1504,72,376.1504,82,380.1504,78,376.1504" style="stroke: #A80036; stroke-width: 1.0;"/><text fill="#000000" font-family="sans-serif" font-size="13" lengthAdjust="spacingAndGlyphs" textLength="28" x="78" y="358.4082">stop</text><line style="stroke: #000000; stroke-width: 1.0; stroke-dasharray: 2.0,2.0;" x1="13" x2="582" y1="385.1504" y2="385.1504"/><rect fill="none" height="59.6211" style="stroke: #000000; stroke-width: 2.0;" width="549" x="23" y="393.1504"/><polygon fill="#EEEEEE" points="23,393.1504,85,393.1504,85,400.1504,75,410.1504,23,410.1504,23,393.1504" style="stroke: #000000; stroke-width: 2.0;"/><text fill="#000000" font-family="sans-serif" font-size="13" font-weight="bold" lengthAdjust="spacingAndGlyphs" textLength="17" x="38" y="406.7188">alt</text><text fill="#000000" font-family="sans-serif" font-size="11" font-weight="bold" lengthAdjust="spacingAndGlyphs" textLength="131" x="100" y="405.7852">[found final parameter]</text><line style="stroke: #A80036; stroke-width: 1.0;" x1="71" x2="113" y1="431.7715" y2="431.7715"/><line style="stroke: #A80036; stroke-width: 1.0;" x1="113" x2="113" y1="431.7715" y2="444.7715"/><line style="stroke: #A80036; stroke-width: 1.0;" x1="72" x2="113" y1="444.7715" y2="444.7715"/><polygon fill="#A80036" points="82,440.7715,72,444.7715,82,448.7715,78,444.7715" style="stroke: #A80036; stroke-width: 1.0;"/><text fill="#000000" font-family="sans-serif" font-size="13" lengthAdjust="spacingAndGlyphs" textLength="97" x="78" y="427.0293">reportWarning()</text><polygon fill="#FBFB77" filter="url(#f6kkulm)" points="187,416.9609,187,441.9609,553,441.9609,553,426.9609,543,416.9609,187,416.9609" style="stroke: #A80036; stroke-width: 1.0;"/><line style="stroke: #A80036; stroke-width: 1.0;" x1="543" x2="543" y1="416.9609" y2="426.9609"/><line style="stroke: #A80036; stroke-width: 1.0;" x1="553" x2="543" y1="426.9609" y2="426.9609"/><text fill="#000000" font-family="sans-serif" font-size="13" lengthAdjust="spacingAndGlyphs" textLength="345" x="193" y="434.5293">This alerts users that not all parameters have been set.</text><line style="stroke: #A80036; stroke-width: 1.0;" x1="71" x2="113" y1="481.082" y2="481.082"/><line style="stroke: #A80036; stroke-width: 1.0;" x1="113" x2="113" y1="481.082" y2="494.082"/><line style="stroke: #A80036; stroke-width: 1.0;" x1="72" x2="113" y1="494.082" y2="494.082"/><polygon fill="#A80036" points="82,490.082,72,494.082,82,498.082,78,494.082" style="stroke: #A80036; stroke-width: 1.0;"/><text fill="#000000" font-family="sans-serif" font-size="13" lengthAdjust="spacingAndGlyphs" textLength="107" x="78" y="476.3398">getCodeSnippet()</text><polygon fill="#A80036" points="188,519.082,198,523.082,188,527.082,192,523.082" style="stroke: #A80036; stroke-width: 1.0;"/><line style="stroke: #A80036; stroke-width: 1.0;" x1="71" x2="194" y1="523.082" y2="523.082"/><text fill="#000000" font-family="sans-serif" font-size="13" lengthAdjust="spacingAndGlyphs" textLength="61" x="78" y="518.6504">setValue()</text></g></svg>