<?xml version="1.0" encoding="UTF-8" standalone="no"?><svg xmlns="http://www.w3.org/2000/svg" xmlns:xlink="http://www.w3.org/1999/xlink" contentScriptType="application/ecmascript" contentStyleType="text/css" height="548px" preserveAspectRatio="none" style="width:779px;height:548px;" version="1.1" viewBox="0 0 779 548" width="779px" zoomAndPan="magnify"><defs><filter height="300%" id="fuxickl" width="300%" x="-1" y="-1"><feGaussianBlur result="blurOut" stdDeviation="2.0"/><feColorMatrix in="blurOut" result="blurOut2" type="matrix" values="0 0 0 0 0 0 0 0 0 0 0 0 0 0 0 0 0 0 .4 0"/><feOffset dx="4.0" dy="4.0" in="blurOut2" result="blurOut3"/><feBlend in="SourceGraphic" in2="blurOut3" mode="normal"/></filter></defs><g><text fill="#000000" font-family="sans-serif" font-size="14" font-weight="bold" lengthAdjust="spacingAndGlyphs" textLength="317" x="235.5" y="22.9951">Modeling of an AHU with custom control</text><line style="stroke: #A80036; stroke-width: 1.0; stroke-dasharray: 5.0,5.0;" x1="33" x2="33" y1="68.5938" y2="509.7891"/><line style="stroke: #A80036; stroke-width: 1.0; stroke-dasharray: 5.0,5.0;" x1="249.5" x2="249.5" y1="68.5938" y2="509.7891"/><line style="stroke: #A80036; stroke-width: 1.0; stroke-dasharray: 5.0,5.0;" x1="563" x2="563" y1="68.5938" y2="509.7891"/><rect fill="#FEFECE" filter="url(#fuxickl)" height="30.2969" style="stroke: #A80036; stroke-width: 1.5;" width="46" x="8" y="33.2969"/><text fill="#000000" font-family="sans-serif" font-size="14" lengthAdjust="spacingAndGlyphs" textLength="32" x="15" y="53.292">User</text><rect fill="#FEFECE" filter="url(#fuxickl)" height="30.2969" style="stroke: #A80036; stroke-width: 1.5;" width="46" x="8" y="508.7891"/><text fill="#000000" font-family="sans-serif" font-size="14" lengthAdjust="spacingAndGlyphs" textLength="32" x="15" y="528.7842">User</text><rect fill="#FEFECE" filter="url(#fuxickl)" height="30.2969" style="stroke: #A80036; stroke-width: 1.5;" width="151" x="172.5" y="33.2969"/><text fill="#000000" font-family="sans-serif" font-size="14" lengthAdjust="spacingAndGlyphs" textLength="137" x="179.5" y="53.292">HVAC System Editor</text><rect fill="#FEFECE" filter="url(#fuxickl)" height="30.2969" style="stroke: #A80036; stroke-width: 1.5;" width="151" x="172.5" y="508.7891"/><text fill="#000000" font-family="sans-serif" font-size="14" lengthAdjust="spacingAndGlyphs" textLength="137" x="179.5" y="528.7842">HVAC System Editor</text><rect fill="#FEFECE" filter="url(#fuxickl)" height="30.2969" style="stroke: #A80036; stroke-width: 1.5;" width="130" x="496" y="33.2969"/><text fill="#000000" font-family="sans-serif" font-size="14" lengthAdjust="spacingAndGlyphs" textLength="116" x="503" y="53.292">Schematic Editor</text><rect fill="#FEFECE" filter="url(#fuxickl)" height="30.2969" style="stroke: #A80036; stroke-width: 1.5;" width="130" x="496" y="508.7891"/><text fill="#000000" font-family="sans-serif" font-size="14" lengthAdjust="spacingAndGlyphs" textLength="116" x="503" y="528.7842">Schematic Editor</text><polygon fill="#A80036" points="238,95.5938,248,99.5938,238,103.5938,242,99.5938" style="stroke: #A80036; stroke-width: 1.0;"/><line style="stroke: #A80036; stroke-width: 1.0;" x1="33" x2="244" y1="99.5938" y2="99.5938"/><text fill="#000000" font-family="sans-serif" font-size="13" lengthAdjust="spacingAndGlyphs" textLength="100" x="40" y="94.6606">setSOEPMode()</text><polygon fill="#A80036" points="44,109.7266,34,113.7266,44,117.7266,40,113.7266" style="stroke: #A80036; stroke-width: 1.0;"/><line style="stroke: #A80036; stroke-width: 1.0;" x1="38" x2="249" y1="113.7266" y2="113.7266"/><polygon fill="#A80036" points="238,138.7266,248,142.7266,238,146.7266,242,142.7266" style="stroke: #A80036; stroke-width: 1.0;"/><line style="stroke: #A80036; stroke-width: 1.0;" x1="33" x2="244" y1="142.7266" y2="142.7266"/><text fill="#000000" font-family="sans-serif" font-size="13" lengthAdjust="spacingAndGlyphs" textLength="154" x="40" y="137.7935">drag &amp; drop AHU model</text><line style="stroke: #A80036; stroke-width: 1.0;" x1="250" x2="292" y1="196.9922" y2="196.9922"/><line style="stroke: #A80036; stroke-width: 1.0;" x1="292" x2="292" y1="196.9922" y2="209.9922"/><line style="stroke: #A80036; stroke-width: 1.0;" x1="251" x2="292" y1="209.9922" y2="209.9922"/><polygon fill="#A80036" points="261,205.9922,251,209.9922,261,213.9922,257,209.9922" style="stroke: #A80036; stroke-width: 1.0;"/><text fill="#000000" font-family="sans-serif" font-size="13" lengthAdjust="spacingAndGlyphs" textLength="119" x="257" y="191.9263">instantiates model</text><polygon fill="#A80036" points="44,219.9922,34,223.9922,44,227.9922,40,223.9922" style="stroke: #A80036; stroke-width: 1.0;"/><line style="stroke: #A80036; stroke-width: 1.0;" x1="38" x2="249" y1="223.9922" y2="223.9922"/><polygon fill="#A80036" points="238,248.9922,248,252.9922,238,256.9922,242,252.9922" style="stroke: #A80036; stroke-width: 1.0;"/><line style="stroke: #A80036; stroke-width: 1.0;" x1="33" x2="244" y1="252.9922" y2="252.9922"/><text fill="#000000" font-family="sans-serif" font-size="13" lengthAdjust="spacingAndGlyphs" textLength="192" x="40" y="248.0591">select "Edit in Modelica editor"</text><polygon fill="#A80036" points="44,263.125,34,267.125,44,271.125,40,267.125" style="stroke: #A80036; stroke-width: 1.0;"/><line style="stroke: #A80036; stroke-width: 1.0;" x1="38" x2="249" y1="267.125" y2="267.125"/><polygon fill="#A80036" points="551,292.125,561,296.125,551,300.125,555,296.125" style="stroke: #A80036; stroke-width: 1.0;"/><line style="stroke: #A80036; stroke-width: 1.0;" x1="33" x2="557" y1="296.125" y2="296.125"/><text fill="#000000" font-family="sans-serif" font-size="13" lengthAdjust="spacingAndGlyphs" textLength="110" x="40" y="291.1919">customize model</text><line style="stroke: #A80036; stroke-width: 1.0;" x1="563" x2="605" y1="325.3906" y2="325.3906"/><line style="stroke: #A80036; stroke-width: 1.0;" x1="605" x2="605" y1="325.3906" y2="338.3906"/><line style="stroke: #A80036; stroke-width: 1.0;" x1="564" x2="605" y1="338.3906" y2="338.3906"/><polygon fill="#A80036" points="574,334.3906,564,338.3906,574,342.3906,570,338.3906" style="stroke: #A80036; stroke-width: 1.0;"/><text fill="#000000" font-family="sans-serif" font-size="13" lengthAdjust="spacingAndGlyphs" textLength="208" x="570" y="320.3247">write Custom/ControlVAV.mo file</text><polygon fill="#A80036" points="44,348.3906,34,352.3906,44,356.3906,40,352.3906" style="stroke: #A80036; stroke-width: 1.0;"/><line style="stroke: #A80036; stroke-width: 1.0;" x1="38" x2="562" y1="352.3906" y2="352.3906"/><polygon fill="#A80036" points="551,402.3906,561,406.3906,551,410.3906,555,406.3906" style="stroke: #A80036; stroke-width: 1.0;"/><line style="stroke: #A80036; stroke-width: 1.0;" x1="33" x2="557" y1="406.3906" y2="406.3906"/><text fill="#000000" font-family="sans-serif" font-size="13" lengthAdjust="spacingAndGlyphs" textLength="191" x="40" y="401.4575">switch to HVAC System Editor</text><line style="stroke: #A80036; stroke-width: 1.0;" x1="250" x2="292" y1="435.6563" y2="435.6563"/><line style="stroke: #A80036; stroke-width: 1.0;" x1="292" x2="292" y1="435.6563" y2="448.6563"/><line style="stroke: #A80036; stroke-width: 1.0;" x1="251" x2="292" y1="448.6563" y2="448.6563"/><polygon fill="#A80036" points="261,444.6563,251,448.6563,261,452.6563,257,448.6563" style="stroke: #A80036; stroke-width: 1.0;"/><text fill="#000000" font-family="sans-serif" font-size="13" lengthAdjust="spacingAndGlyphs" textLength="299" x="257" y="430.5903">read Custom/ControlVAV.mo file to get new I/O</text><polygon fill="#A80036" points="238,473.6563,248,477.6563,238,481.6563,242,477.6563" style="stroke: #A80036; stroke-width: 1.0;"/><line style="stroke: #A80036; stroke-width: 1.0;" x1="33" x2="244" y1="477.6563" y2="477.6563"/><text fill="#000000" font-family="sans-serif" font-size="13" lengthAdjust="spacingAndGlyphs" textLength="193" x="40" y="472.7231">Connect new inputs &amp; outputs</text><polygon fill="#A80036" points="44,487.7891,34,491.7891,44,495.7891,40,491.7891" style="stroke: #A80036; stroke-width: 1.0;"/><line style="stroke: #A80036; stroke-width: 1.0;" x1="38" x2="249" y1="491.7891" y2="491.7891"/></g></svg>