<?xml version="1.0" encoding="UTF-8" standalone="no"?><svg xmlns="http://www.w3.org/2000/svg" xmlns:xlink="http://www.w3.org/1999/xlink" contentScriptType="application/ecmascript" contentStyleType="text/css" height="1326px" preserveAspectRatio="none" style="width:991px;height:1326px;" version="1.1" viewBox="0 0 991 1326" width="991px" zoomAndPan="magnify"><defs><filter height="300%" id="fhefx2d" width="300%" x="-1" y="-1"><feGaussianBlur result="blurOut" stdDeviation="2.0"/><feColorMatrix in="blurOut" result="blurOut2" type="matrix" values="0 0 0 0 0 0 0 0 0 0 0 0 0 0 0 0 0 0 .4 0"/><feOffset dx="4.0" dy="4.0" in="blurOut2" result="blurOut3"/><feBlend in="SourceGraphic" in2="blurOut3" mode="normal"/></filter></defs><g><text fill="#000000" font-family="sans-serif" font-size="18" lengthAdjust="spacingAndGlyphs" textLength="250" x="388" y="17.4023">Overall software architecture</text><!--cluster OpenStudio--><polygon fill="#FFFFFF" filter="url(#fhefx2d)" points="371,156.1992,461,156.1992,468,178.6875,984,178.6875,984,487.1992,371,487.1992,371,156.1992" style="stroke: #000000; stroke-width: 2.0;"/><line style="stroke: #000000; stroke-width: 2.0;" x1="371" x2="468" y1="178.6875" y2="178.6875"/><text fill="#000000" font-family="sans-serif" font-size="14" font-weight="bold" lengthAdjust="spacingAndGlyphs" textLength="84" x="375" y="171.7344">OpenStudio</text><!--cluster SOEP--><polygon fill="#FFFFFF" filter="url(#fhefx2d)" points="249,574.1992,292,574.1992,299,596.6875,632,596.6875,632,1138.1992,249,1138.1992,249,574.1992" style="stroke: #000000; stroke-width: 2.0;"/><line style="stroke: #000000; stroke-width: 2.0;" x1="249" x2="299" y1="596.6875" y2="596.6875"/><text fill="#000000" font-family="sans-serif" font-size="14" font-weight="bold" lengthAdjust="spacingAndGlyphs" textLength="37" x="253" y="589.7344">SOEP</text><!--entity API--><ellipse cx="688" cy="208.1992" fill="#FEFECE" filter="url(#fhefx2d)" rx="8" ry="8" style="stroke: #A80036; stroke-width: 2.0;"/><text fill="#000000" font-family="sans-serif" font-size="14" lengthAdjust="spacingAndGlyphs" textLength="22" x="677" y="230.7344">API</text><!--entity Core--><rect fill="#FEFECE" filter="url(#fhefx2d)" height="46.4883" style="stroke: #A80036; stroke-width: 1.5;" width="73" x="651.5" y="294.1992"/><rect fill="#FEFECE" height="10" style="stroke: #A80036; stroke-width: 1.5;" width="15" x="704.5" y="299.1992"/><rect fill="#FEFECE" height="2" style="stroke: #A80036; stroke-width: 1.5;" width="4" x="702.5" y="301.1992"/><rect fill="#FEFECE" height="2" style="stroke: #A80036; stroke-width: 1.5;" width="4" x="702.5" y="305.1992"/><text fill="#000000" font-family="sans-serif" font-size="14" lengthAdjust="spacingAndGlyphs" textLength="33" x="666.5" y="327.7344">Core</text><!--entity Model Library--><rect fill="#FEFECE" filter="url(#fhefx2d)" height="46.4883" style="stroke: #A80036; stroke-width: 1.5;" width="133" x="621.5" y="417.1992"/><rect fill="#FEFECE" height="10" style="stroke: #A80036; stroke-width: 1.5;" width="15" x="734.5" y="422.1992"/><rect fill="#FEFECE" height="2" style="stroke: #A80036; stroke-width: 1.5;" width="4" x="732.5" y="424.1992"/><rect fill="#FEFECE" height="2" style="stroke: #A80036; stroke-width: 1.5;" width="4" x="732.5" y="428.1992"/><text fill="#000000" font-family="sans-serif" font-size="14" lengthAdjust="spacingAndGlyphs" textLength="93" x="636.5" y="450.7344">Model Library</text><!--entity HVAC Systems Editor--><rect fill="#FEFECE" filter="url(#fhefx2d)" height="46.4883" style="stroke: #A80036; stroke-width: 1.5;" width="183" x="403.5" y="417.1992"/><rect fill="#FEFECE" height="10" style="stroke: #A80036; stroke-width: 1.5;" width="15" x="566.5" y="422.1992"/><rect fill="#FEFECE" height="2" style="stroke: #A80036; stroke-width: 1.5;" width="4" x="564.5" y="424.1992"/><rect fill="#FEFECE" height="2" style="stroke: #A80036; stroke-width: 1.5;" width="4" x="564.5" y="428.1992"/><text fill="#000000" font-family="sans-serif" font-size="14" lengthAdjust="spacingAndGlyphs" textLength="143" x="418.5" y="450.7344">HVAC Systems Editor</text><!--entity Simulator Interface--><rect fill="#FEFECE" filter="url(#fhefx2d)" height="46.4883" style="stroke: #A80036; stroke-width: 1.5;" width="170" x="790" y="417.1992"/><rect fill="#FEFECE" height="10" style="stroke: #A80036; stroke-width: 1.5;" width="15" x="940" y="422.1992"/><rect fill="#FEFECE" height="2" style="stroke: #A80036; stroke-width: 1.5;" width="4" x="938" y="424.1992"/><rect fill="#FEFECE" height="2" style="stroke: #A80036; stroke-width: 1.5;" width="4" x="938" y="428.1992"/><text fill="#000000" font-family="sans-serif" font-size="14" lengthAdjust="spacingAndGlyphs" textLength="130" x="805" y="450.7344">Simulator Interface</text><!--entity Schematic Editor--><rect fill="#FEFECE" filter="url(#fhefx2d)" height="46.4883" style="stroke: #A80036; stroke-width: 1.5;" width="154" x="265" y="798.1992"/><rect fill="#FEFECE" height="10" style="stroke: #A80036; stroke-width: 1.5;" width="15" x="399" y="803.1992"/><rect fill="#FEFECE" height="2" style="stroke: #A80036; stroke-width: 1.5;" width="4" x="397" y="805.1992"/><rect fill="#FEFECE" height="2" style="stroke: #A80036; stroke-width: 1.5;" width="4" x="397" y="809.1992"/><text fill="#000000" font-family="sans-serif" font-size="14" lengthAdjust="spacingAndGlyphs" textLength="114" x="280" y="831.7344">Schematic Editor</text><!--entity JModelica--><rect fill="#FEFECE" filter="url(#fhefx2d)" height="46.4883" style="stroke: #A80036; stroke-width: 1.5;" width="105" x="482.5" y="936.1992"/><rect fill="#FEFECE" height="10" style="stroke: #A80036; stroke-width: 1.5;" width="15" x="567.5" y="941.1992"/><rect fill="#FEFECE" height="2" style="stroke: #A80036; stroke-width: 1.5;" width="4" x="565.5" y="943.1992"/><rect fill="#FEFECE" height="2" style="stroke: #A80036; stroke-width: 1.5;" width="4" x="565.5" y="947.1992"/><text fill="#000000" font-family="sans-serif" font-size="14" lengthAdjust="spacingAndGlyphs" textLength="65" x="497.5" y="969.7344">JModelica</text><!--entity Conversion Script--><rect fill="#FEFECE" filter="url(#fhefx2d)" height="46.4883" style="stroke: #A80036; stroke-width: 1.5;" width="161" x="454.5" y="798.1992"/><rect fill="#FEFECE" height="10" style="stroke: #A80036; stroke-width: 1.5;" width="15" x="595.5" y="803.1992"/><rect fill="#FEFECE" height="2" style="stroke: #A80036; stroke-width: 1.5;" width="4" x="593.5" y="805.1992"/><rect fill="#FEFECE" height="2" style="stroke: #A80036; stroke-width: 1.5;" width="4" x="593.5" y="809.1992"/><text fill="#000000" font-family="sans-serif" font-size="14" lengthAdjust="spacingAndGlyphs" textLength="121" x="469.5" y="831.7344">Conversion Script</text><!--entity Modelica Library AST--><rect fill="#FEFECE" filter="url(#fhefx2d)" height="46.4883" style="stroke: #A80036; stroke-width: 1.5;" width="183" x="265.5" y="609.1992"/><rect fill="#FEFECE" height="10" style="stroke: #A80036; stroke-width: 1.5;" width="15" x="428.5" y="614.1992"/><rect fill="#FEFECE" height="2" style="stroke: #A80036; stroke-width: 1.5;" width="4" x="426.5" y="616.1992"/><rect fill="#FEFECE" height="2" style="stroke: #A80036; stroke-width: 1.5;" width="4" x="426.5" y="620.1992"/><text fill="#000000" font-family="sans-serif" font-size="14" lengthAdjust="spacingAndGlyphs" textLength="143" x="280.5" y="642.7344">Modelica Library AST</text><!--entity Modelica\nBuildings Library--><rect fill="#FEFECE" filter="url(#fhefx2d)" height="62.9766" style="stroke: #A80036; stroke-width: 1.5;" width="154" x="458" y="1059.1992"/><rect fill="#FEFECE" height="10" style="stroke: #A80036; stroke-width: 1.5;" width="15" x="592" y="1064.1992"/><rect fill="#FEFECE" height="2" style="stroke: #A80036; stroke-width: 1.5;" width="4" x="590" y="1066.1992"/><rect fill="#FEFECE" height="2" style="stroke: #A80036; stroke-width: 1.5;" width="4" x="590" y="1070.1992"/><text fill="#000000" font-family="sans-serif" font-size="14" lengthAdjust="spacingAndGlyphs" textLength="61" x="499.5" y="1092.7344">Modelica</text><text fill="#000000" font-family="sans-serif" font-size="14" lengthAdjust="spacingAndGlyphs" textLength="114" x="473" y="1109.2227">Buildings Library</text><!--entity Application--><rect fill="#FEFECE" filter="url(#fhefx2d)" height="46.4883" style="stroke: #A80036; stroke-width: 1.5;" width="118" x="629" y="34.1992"/><rect fill="#FEFECE" height="10" style="stroke: #A80036; stroke-width: 1.5;" width="15" x="727" y="39.1992"/><rect fill="#FEFECE" height="2" style="stroke: #A80036; stroke-width: 1.5;" width="4" x="725" y="41.1992"/><rect fill="#FEFECE" height="2" style="stroke: #A80036; stroke-width: 1.5;" width="4" x="725" y="45.1992"/><text fill="#000000" font-family="sans-serif" font-size="14" lengthAdjust="spacingAndGlyphs" textLength="78" x="644" y="67.7344">Application</text><!--entity User-Provided\nModelica Library--><rect fill="#FEFECE" filter="url(#fhefx2d)" height="62.9766" style="stroke: #A80036; stroke-width: 1.5;" width="152" x="648" y="1059.1992"/><rect fill="#FEFECE" height="10" style="stroke: #A80036; stroke-width: 1.5;" width="15" x="780" y="1064.1992"/><rect fill="#FEFECE" height="2" style="stroke: #A80036; stroke-width: 1.5;" width="4" x="778" y="1066.1992"/><rect fill="#FEFECE" height="2" style="stroke: #A80036; stroke-width: 1.5;" width="4" x="778" y="1070.1992"/><text fill="#000000" font-family="sans-serif" font-size="14" lengthAdjust="spacingAndGlyphs" textLength="99" x="669.5" y="1092.7344">User-Provided</text><text fill="#000000" font-family="sans-serif" font-size="14" lengthAdjust="spacingAndGlyphs" textLength="112" x="663" y="1109.2227">Modelica Library</text><polygon fill="#FBFB77" filter="url(#fhefx2d)" points="6,558.1992,6,705.9941,230,705.9941,230,568.1992,220,558.1992,6,558.1992" style="stroke: #A80036; stroke-width: 1.0;"/><polygon fill="#FBFB77" points="6,558.1992,6,705.9941,201.567,705.9941,315.397,797.9902,209.567,705.9941,230,705.9941,230,568.1992,220,558.1992,6,558.1992" style="stroke: #A80036; stroke-width: 1.0;"/><line style="stroke: #A80036; stroke-width: 1.0;" x1="220" x2="220" y1="558.1992" y2="568.1992"/><line style="stroke: #A80036; stroke-width: 1.0;" x1="230" x2="220" y1="568.1992" y2="568.1992"/><text fill="#000000" font-family="sans-serif" font-size="13" lengthAdjust="spacingAndGlyphs" textLength="180" x="12" y="575.7676">Allows free graphical editing</text><text fill="#000000" font-family="sans-serif" font-size="13" lengthAdjust="spacingAndGlyphs" textLength="189" x="12" y="591.0781">of Modelica models. However,</text><text fill="#000000" font-family="sans-serif" font-size="13" lengthAdjust="spacingAndGlyphs" textLength="203" x="12" y="606.3887">after editing, many OS Measures</text><text fill="#000000" font-family="sans-serif" font-size="13" lengthAdjust="spacingAndGlyphs" textLength="170" x="12" y="621.6992">cannot be applied anymore</text><text fill="#000000" font-family="sans-serif" font-size="13" lengthAdjust="spacingAndGlyphs" textLength="203" x="12" y="637.0098">(as models may be incompatible</text><text fill="#000000" font-family="sans-serif" font-size="13" lengthAdjust="spacingAndGlyphs" textLength="122" x="12" y="652.3203">with the Measures).</text><text fill="#000000" font-family="sans-serif" font-size="13" lengthAdjust="spacingAndGlyphs" textLength="191" x="12" y="667.6309">However, OS can still simulate</text><text fill="#000000" font-family="sans-serif" font-size="13" lengthAdjust="spacingAndGlyphs" textLength="182" x="12" y="682.9414">these models and parse their</text><text fill="#000000" font-family="sans-serif" font-size="13" lengthAdjust="spacingAndGlyphs" textLength="53" x="12" y="698.252">outputs.</text><polygon fill="#FBFB77" filter="url(#fhefx2d)" points="613,1185.1992,613,1317.6836,835,1317.6836,835,1195.1992,825,1185.1992,613,1185.1992" style="stroke: #A80036; stroke-width: 1.0;"/><polygon fill="#FBFB77" points="613,1185.1992,613,1317.6836,835,1317.6836,835,1195.1992,825,1185.1992,728,1185.1992,724,1122.2592,720,1185.1992,613,1185.1992" style="stroke: #A80036; stroke-width: 1.0;"/><line style="stroke: #A80036; stroke-width: 1.0;" x1="825" x2="825" y1="1185.1992" y2="1195.1992"/><line style="stroke: #A80036; stroke-width: 1.0;" x1="835" x2="825" y1="1195.1992" y2="1195.1992"/><text fill="#000000" font-family="sans-serif" font-size="13" lengthAdjust="spacingAndGlyphs" textLength="157" x="619" y="1202.7676">Allows companies to use</text><text fill="#000000" font-family="sans-serif" font-size="13" lengthAdjust="spacingAndGlyphs" textLength="174" x="619" y="1218.0781">their own Modelica libraries</text><text fill="#000000" font-family="sans-serif" font-size="13" lengthAdjust="spacingAndGlyphs" textLength="201" x="619" y="1233.3887">with custom HVAC systems and</text><text fill="#000000" font-family="sans-serif" font-size="13" lengthAdjust="spacingAndGlyphs" textLength="136" x="619" y="1248.6992">control sequences, or</text><text fill="#000000" font-family="sans-serif" font-size="13" lengthAdjust="spacingAndGlyphs" textLength="158" x="619" y="1264.0098">to integrate an electronic</text><text fill="#000000" font-family="sans-serif" font-size="13" lengthAdjust="spacingAndGlyphs" textLength="145" x="619" y="1279.3203">equipment catalog or a</text><text fill="#000000" font-family="sans-serif" font-size="13" lengthAdjust="spacingAndGlyphs" textLength="186" x="619" y="1294.6309">library used for an equipment</text><text fill="#000000" font-family="sans-serif" font-size="13" lengthAdjust="spacingAndGlyphs" textLength="65" x="619" y="1309.9414">sales tool.</text><polygon fill="#FBFB77" filter="url(#fhefx2d)" points="300.5,29.1992,300.5,85.1309,457.5,85.1309,457.5,39.1992,447.5,29.1992,300.5,29.1992" style="stroke: #A80036; stroke-width: 1.0;"/><line style="stroke: #A80036; stroke-width: 1.0;" x1="447.5" x2="447.5" y1="29.1992" y2="39.1992"/><line style="stroke: #A80036; stroke-width: 1.0;" x1="457.5" x2="447.5" y1="39.1992" y2="39.1992"/><text fill="#000000" font-family="sans-serif" font-size="13" lengthAdjust="spacingAndGlyphs" textLength="136" x="306.5" y="46.7676">Not yet shown is how</text><text fill="#000000" font-family="sans-serif" font-size="13" lengthAdjust="spacingAndGlyphs" textLength="129" x="306.5" y="62.0781">to integrate building</text><text fill="#000000" font-family="sans-serif" font-size="13" lengthAdjust="spacingAndGlyphs" textLength="39" x="306.5" y="77.3887">model</text><polygon fill="#FBFB77" filter="url(#fhefx2d)" points="816.5,36.6992,816.5,77.3203,971.5,77.3203,971.5,46.6992,961.5,36.6992,816.5,36.6992" style="stroke: #A80036; stroke-width: 1.0;"/><polygon fill="#FBFB77" points="816.5,36.6992,816.5,53.1992,747.145,57.1992,816.5,61.1992,816.5,77.3203,971.5,77.3203,971.5,46.6992,961.5,36.6992,816.5,36.6992" style="stroke: #A80036; stroke-width: 1.0;"/><line style="stroke: #A80036; stroke-width: 1.0;" x1="961.5" x2="961.5" y1="36.6992" y2="46.6992"/><line style="stroke: #A80036; stroke-width: 1.0;" x1="971.5" x2="961.5" y1="46.6992" y2="46.6992"/><text fill="#000000" font-family="sans-serif" font-size="13" lengthAdjust="spacingAndGlyphs" textLength="134" x="822.5" y="54.2676">Application that uses</text><text fill="#000000" font-family="sans-serif" font-size="13" lengthAdjust="spacingAndGlyphs" textLength="130" x="822.5" y="69.5781">the OpenStudio SDK.</text><path d="M688,233.5492 C688,250.0192 688,275.5692 688,293.8992 " fill="none" style="stroke: #A80036; stroke-width: 1.0;"/><path d="M688,340.3922 C688,360.6042 688,390.5062 688,412.1182 " fill="none" style="stroke: #A80036; stroke-width: 1.0;"/><polygon fill="#A80036" points="688,417.1462,692,408.1462,688,412.1462,684,408.1462,688,417.1462" style="stroke: #A80036; stroke-width: 1.0;"/><text fill="#000000" font-family="sans-serif" font-size="13" lengthAdjust="spacingAndGlyphs" textLength="63" x="689" y="383.7676">integrates</text><path d="M652.601,340.3922 C619.274,361.2862 569.43,392.5362 534.751,414.2772 " fill="none" style="stroke: #A80036; stroke-width: 1.0;"/><polygon fill="#A80036" points="530.175,417.1462,539.9247,415.752,534.4106,414.4892,535.6734,408.9751,530.175,417.1462" style="stroke: #A80036; stroke-width: 1.0;"/><text fill="#000000" font-family="sans-serif" font-size="13" lengthAdjust="spacingAndGlyphs" textLength="63" x="605" y="383.7676">integrates</text><path d="M722.299,340.3922 C754.59,361.2862 802.884,392.5362 836.485,414.2772 " fill="none" style="stroke: #A80036; stroke-width: 1.0;"/><polygon fill="#A80036" points="840.919,417.1462,835.5377,408.8975,836.7218,414.429,831.1902,415.613,840.919,417.1462" style="stroke: #A80036; stroke-width: 1.0;"/><text fill="#000000" font-family="sans-serif" font-size="13" lengthAdjust="spacingAndGlyphs" textLength="63" x="794" y="383.7676">integrates</text><path d="M373.438,844.3522 C407.926,868.6552 463.166,907.5802 499.27,933.0212 " fill="none" style="stroke: #A80036; stroke-width: 1.0; stroke-dasharray: 7.0,7.0;"/><polygon fill="#A80036" points="503.575,936.0552,498.5221,927.6014,499.4878,933.1752,493.914,934.1409,503.575,936.0552" style="stroke: #A80036; stroke-width: 1.0;"/><text fill="#000000" font-family="sans-serif" font-size="13" lengthAdjust="spacingAndGlyphs" textLength="41" x="457" y="887.7676">parses</text><text fill="#000000" font-family="sans-serif" font-size="13" lengthAdjust="spacingAndGlyphs" textLength="24" x="465.5" y="903.0781">AST</text><path d="M503.156,463.2962 C522.588,520.1202 565.124,673.4882 497,768.1992 C487.639,781.2132 456.362,792.8662 424.332,801.8262 " fill="none" style="stroke: #A80036; stroke-width: 1.0; stroke-dasharray: 7.0,7.0;"/><polygon fill="#A80036" points="419.188,803.2412,428.9264,804.712,424.0091,801.9156,426.8054,796.9983,419.188,803.2412" style="stroke: #A80036; stroke-width: 1.0;"/><text fill="#000000" font-family="sans-serif" font-size="13" lengthAdjust="spacingAndGlyphs" textLength="74" x="542" y="622.2676">calls editor,</text><text fill="#000000" font-family="sans-serif" font-size="13" lengthAdjust="spacingAndGlyphs" textLength="86" x="536" y="637.5781">which returns</text><text fill="#000000" font-family="sans-serif" font-size="13" lengthAdjust="spacingAndGlyphs" textLength="48" x="555" y="652.8887">.mo file</text><path d="M686.47,468.5132 C682.767,518.2032 670.479,625.6832 631,706.1992 C613.23,742.4412 581.468,776.8462 559.367,798.1942 " fill="none" style="stroke: #A80036; stroke-width: 1.0; stroke-dasharray: 7.0,7.0;"/><polygon fill="#A80036" points="686.841,463.3162,682.2083,472.0075,686.4839,468.3034,690.1879,472.5789,686.841,463.3162" style="stroke: #A80036; stroke-width: 1.0;"/><text fill="#000000" font-family="sans-serif" font-size="13" lengthAdjust="spacingAndGlyphs" textLength="106" x="700.5" y="629.7676">augments library</text><text fill="#000000" font-family="sans-serif" font-size="13" lengthAdjust="spacingAndGlyphs" textLength="153" x="677" y="645.0781">by generating C++ code</text><path d="M535,844.3522 C535,867.9632 535,905.3772 535,930.8172 " fill="none" style="stroke: #A80036; stroke-width: 1.0; stroke-dasharray: 7.0,7.0;"/><polygon fill="#A80036" points="535,936.0552,539,927.0552,535,931.0552,531,927.0552,535,936.0552" style="stroke: #A80036; stroke-width: 1.0;"/><text fill="#000000" font-family="sans-serif" font-size="13" lengthAdjust="spacingAndGlyphs" textLength="41" x="536" y="887.7676">parses</text><text fill="#000000" font-family="sans-serif" font-size="13" lengthAdjust="spacingAndGlyphs" textLength="24" x="544.5" y="903.0781">AST</text><path d="M877.165,463.4662 C880.756,511.2552 883.624,625.8262 839,706.1992 C778.923,814.4032 652.392,895.3202 583.014,933.6232 " fill="none" style="stroke: #A80036; stroke-width: 1.0; stroke-dasharray: 7.0,7.0;"/><polygon fill="#A80036" points="578.528,936.0852,588.3426,935.265,582.9121,933.6811,584.496,928.2505,578.528,936.0852" style="stroke: #A80036; stroke-width: 1.0;"/><text fill="#000000" font-family="sans-serif" font-size="13" lengthAdjust="spacingAndGlyphs" textLength="103" x="821" y="749.7676">runs simulation,</text><text fill="#000000" font-family="sans-serif" font-size="13" lengthAdjust="spacingAndGlyphs" textLength="87" x="829" y="765.0781">reads outputs</text><path d="M471.681,463.4172 C458.408,476.6562 441.908,494.1562 429,511.1992 C406.077,541.4662 384.31,579.4972 370.83,604.5352 " fill="none" style="stroke: #A80036; stroke-width: 1.0; stroke-dasharray: 7.0,7.0;"/><polygon fill="#A80036" points="368.411,609.0542,376.1835,603.0054,370.7696,604.6455,369.1296,599.2316,368.411,609.0542" style="stroke: #A80036; stroke-width: 1.0;"/><text fill="#000000" font-family="sans-serif" font-size="13" lengthAdjust="spacingAndGlyphs" textLength="62" x="430" y="524.7676">reads AST</text><path d="M381.851,659.3062 C417.066,696.3022 480.873,763.3362 513.91,798.0422 " fill="none" style="stroke: #A80036; stroke-width: 1.0; stroke-dasharray: 7.0,7.0;"/><polygon fill="#A80036" points="378.118,655.3852,381.4259,664.662,381.5653,659.0068,387.2204,659.1463,378.118,655.3852" style="stroke: #A80036; stroke-width: 1.0;"/><text fill="#000000" font-family="sans-serif" font-size="13" lengthAdjust="spacingAndGlyphs" textLength="61" x="484" y="749.7676">generates</text><text fill="#000000" font-family="sans-serif" font-size="13" lengthAdjust="spacingAndGlyphs" textLength="24" x="502.5" y="765.0781">AST</text><path d="M535,982.4612 C535,1002.0922 535,1031.0542 535,1053.9322 " fill="none" style="stroke: #A80036; stroke-width: 1.0;"/><polygon fill="#A80036" points="535,1059.0122,539,1050.0122,535,1054.0122,531,1050.0122,535,1059.0122" style="stroke: #A80036; stroke-width: 1.0;"/><text fill="#000000" font-family="sans-serif" font-size="13" lengthAdjust="spacingAndGlyphs" textLength="49" x="536" y="1025.7676">imports</text><path d="M688,80.3592 C688,110.4392 688,163.8392 688,193.6192 " fill="none" style="stroke: #A80036; stroke-width: 1.0; stroke-dasharray: 7.0,7.0;"/><polygon fill="#A80036" points="688,198.8892,692,189.8892,688,193.8892,684,189.8892,688,198.8892" style="stroke: #A80036; stroke-width: 1.0;"/><text fill="#000000" font-family="sans-serif" font-size="13" lengthAdjust="spacingAndGlyphs" textLength="29" x="689" y="128.7676">uses</text><path d="M567.49,982.4612 C596.985,1002.6702 640.907,1032.7652 674.722,1055.9352 " fill="none" style="stroke: #A80036; stroke-width: 1.0;"/><polygon fill="#A80036" points="679.213,1059.0122,674.0493,1050.6256,675.0883,1056.1862,669.5276,1057.2252,679.213,1059.0122" style="stroke: #A80036; stroke-width: 1.0;"/><text fill="#000000" font-family="sans-serif" font-size="13" lengthAdjust="spacingAndGlyphs" textLength="49" x="637" y="1025.7676">imports</text><path d="M379,85.5492 C379,96.6192 379,110.0923 379,124.1155 C379,131.127 379,138.2761 379,145.331 C379,148.8585 379,152.3624 379,155.8138 " fill="none" style="stroke: #A80036; stroke-width: 1.0; stroke-dasharray: 7.0,7.0;"/></g></svg>