<?xml version="1.0" encoding="UTF-8" standalone="no"?><svg xmlns="http://www.w3.org/2000/svg" xmlns:xlink="http://www.w3.org/1999/xlink" contentScriptType="application/ecmascript" contentStyleType="text/css" height="417px" preserveAspectRatio="none" style="width:873px;height:417px;" version="1.1" viewBox="0 0 873 417" width="873px" zoomAndPan="magnify"><defs><filter height="300%" id="f82ruom" width="300%" x="-1" y="-1"><feGaussianBlur result="blurOut" stdDeviation="2.0"/><feColorMatrix in="blurOut" result="blurOut2" type="matrix" values="0 0 0 0 0 0 0 0 0 0 0 0 0 0 0 0 0 0 .4 0"/><feOffset dx="4.0" dy="4.0" in="blurOut2" result="blurOut3"/><feBlend in="SourceGraphic" in2="blurOut3" mode="normal"/></filter></defs><g><text fill="#000000" font-family="sans-serif" font-size="18" lengthAdjust="spacingAndGlyphs" textLength="712" x="94" y="16.708">Software architecture for QSS integration with JModelica with extended FMI API</text><!--cluster FMU-ME--><polygon fill="#FFFFFF" filter="url(#f82ruom)" points="234,188.9531,301,188.9531,308,211.25,538,211.25,538,410.9531,234,410.9531,234,188.9531" style="stroke: #000000; stroke-width: 2.0;"/><line style="stroke: #000000; stroke-width: 2.0;" x1="234" x2="308" y1="211.25" y2="211.25"/><text fill="#000000" font-family="sans-serif" font-size="14" font-weight="bold" lengthAdjust="spacingAndGlyphs" textLength="61" x="238" y="203.9482">FMU-ME</text><!--cluster PyFMI--><polygon fill="#FFFFFF" filter="url(#f82ruom)" points="22,44.9531,73,44.9531,80,67.25,210,67.25,210,285.9531,22,285.9531,22,44.9531" style="stroke: #000000; stroke-width: 2.0;"/><line style="stroke: #000000; stroke-width: 2.0;" x1="22" x2="80" y1="67.25" y2="67.25"/><text fill="#000000" font-family="sans-serif" font-size="14" font-weight="bold" lengthAdjust="spacingAndGlyphs" textLength="45" x="26" y="59.9482">PyFMI</text><!--cluster Optimica--><polygon fill="#FFFFFF" filter="url(#f82ruom)" points="668,188.9531,742,188.9531,749,211.25,866,211.25,866,285.9531,668,285.9531,668,188.9531" style="stroke: #000000; stroke-width: 2.0;"/><line style="stroke: #000000; stroke-width: 2.0;" x1="668" x2="749" y1="211.25" y2="211.25"/><text fill="#000000" font-family="sans-serif" font-size="14" font-weight="bold" lengthAdjust="spacingAndGlyphs" textLength="68" x="672" y="203.9482">Optimica</text><!--entity qss_sol--><rect fill="#FEFECE" filter="url(#f82ruom)" height="46.2969" style="stroke: #A80036; stroke-width: 1.5;" width="114" x="250" y="223.9531"/><rect fill="#FEFECE" height="10" style="stroke: #A80036; stroke-width: 1.5;" width="15" x="344" y="228.9531"/><rect fill="#FEFECE" height="2" style="stroke: #A80036; stroke-width: 1.5;" width="4" x="342" y="230.9531"/><rect fill="#FEFECE" height="2" style="stroke: #A80036; stroke-width: 1.5;" width="4" x="342" y="234.9531"/><text fill="#000000" font-family="sans-serif" font-size="14" lengthAdjust="spacingAndGlyphs" textLength="74" x="265" y="256.9482">QSS solver</text><!--entity FMU_QSS--><rect fill="#FEFECE" filter="url(#f82ruom)" height="46.2969" style="stroke: #A80036; stroke-width: 1.5;" width="96" x="403" y="348.9531"/><rect fill="#FEFECE" height="10" style="stroke: #A80036; stroke-width: 1.5;" width="15" x="479" y="353.9531"/><rect fill="#FEFECE" height="2" style="stroke: #A80036; stroke-width: 1.5;" width="4" x="477" y="355.9531"/><rect fill="#FEFECE" height="2" style="stroke: #A80036; stroke-width: 1.5;" width="4" x="477" y="359.9531"/><text fill="#000000" font-family="sans-serif" font-size="14" lengthAdjust="spacingAndGlyphs" textLength="56" x="418" y="381.9482">FMU-ME</text><!--entity Master algorithm--><rect fill="#FEFECE" filter="url(#f82ruom)" height="46.2969" style="stroke: #A80036; stroke-width: 1.5;" width="155" x="38.5" y="79.9531"/><rect fill="#FEFECE" height="10" style="stroke: #A80036; stroke-width: 1.5;" width="15" x="173.5" y="84.9531"/><rect fill="#FEFECE" height="2" style="stroke: #A80036; stroke-width: 1.5;" width="4" x="171.5" y="86.9531"/><rect fill="#FEFECE" height="2" style="stroke: #A80036; stroke-width: 1.5;" width="4" x="171.5" y="90.9531"/><text fill="#000000" font-family="sans-serif" font-size="14" lengthAdjust="spacingAndGlyphs" textLength="115" x="53.5" y="112.9482">Master algorithm</text><!--entity Sundials--><rect fill="#FEFECE" filter="url(#f82ruom)" height="46.2969" style="stroke: #A80036; stroke-width: 1.5;" width="98" x="67" y="223.9531"/><rect fill="#FEFECE" height="10" style="stroke: #A80036; stroke-width: 1.5;" width="15" x="145" y="228.9531"/><rect fill="#FEFECE" height="2" style="stroke: #A80036; stroke-width: 1.5;" width="4" x="143" y="230.9531"/><rect fill="#FEFECE" height="2" style="stroke: #A80036; stroke-width: 1.5;" width="4" x="143" y="234.9531"/><text fill="#000000" font-family="sans-serif" font-size="14" lengthAdjust="spacingAndGlyphs" textLength="58" x="82" y="256.9482">Sundials</text><!--entity jmc--><rect fill="#FEFECE" filter="url(#f82ruom)" height="46.2969" style="stroke: #A80036; stroke-width: 1.5;" width="167" x="683.5" y="223.9531"/><rect fill="#FEFECE" height="10" style="stroke: #A80036; stroke-width: 1.5;" width="15" x="830.5" y="228.9531"/><rect fill="#FEFECE" height="2" style="stroke: #A80036; stroke-width: 1.5;" width="4" x="828.5" y="230.9531"/><rect fill="#FEFECE" height="2" style="stroke: #A80036; stroke-width: 1.5;" width="4" x="828.5" y="234.9531"/><text fill="#000000" font-family="sans-serif" font-size="14" lengthAdjust="spacingAndGlyphs" textLength="127" x="698.5" y="256.9482">JModelica compiler</text><!--entity FMU-ME--><rect fill="#FEFECE" filter="url(#f82ruom)" height="46.2969" style="stroke: #A80036; stroke-width: 1.5;" width="96" x="66" y="348.9531"/><rect fill="#FEFECE" height="10" style="stroke: #A80036; stroke-width: 1.5;" width="15" x="142" y="353.9531"/><rect fill="#FEFECE" height="2" style="stroke: #A80036; stroke-width: 1.5;" width="4" x="140" y="355.9531"/><rect fill="#FEFECE" height="2" style="stroke: #A80036; stroke-width: 1.5;" width="4" x="140" y="359.9531"/><text fill="#000000" font-family="sans-serif" font-size="14" lengthAdjust="spacingAndGlyphs" textLength="56" x="81" y="381.9482">FMU-ME</text><!--entity FMU-CS--><rect fill="#FEFECE" filter="url(#f82ruom)" height="46.2969" style="stroke: #A80036; stroke-width: 1.5;" width="94" x="554" y="223.9531"/><rect fill="#FEFECE" height="10" style="stroke: #A80036; stroke-width: 1.5;" width="15" x="628" y="228.9531"/><rect fill="#FEFECE" height="2" style="stroke: #A80036; stroke-width: 1.5;" width="4" x="626" y="230.9531"/><rect fill="#FEFECE" height="2" style="stroke: #A80036; stroke-width: 1.5;" width="4" x="626" y="234.9531"/><text fill="#000000" font-family="sans-serif" font-size="14" lengthAdjust="spacingAndGlyphs" textLength="54" x="569" y="256.9482">FMU-CS</text><path d="M126.338,126.1581 C134.782,141.7571 148.222,161.7631 166,172.9531 C182.821,183.5411 191.58,173.4861 210,180.9531 C234.103,190.7231 258.41,207.0261 276.662,220.8601 " fill="none" style="stroke: #A80036; stroke-width: 1.0;"/><polygon fill="#A80036" points="280.697,223.9521,275.9867,215.3027,276.7284,220.9107,271.1204,221.6524,280.697,223.9521" style="stroke: #A80036; stroke-width: 1.0;"/><text fill="#000000" font-family="sans-serif" font-size="13" lengthAdjust="spacingAndGlyphs" textLength="76" x="167" y="169.02">inputs, time</text><path d="M198.56,127.4441 C216.007,134.7911 233.504,144.1611 248,155.9531 C270.61,174.3451 287.573,203.7421 297.375,223.9021 " fill="none" style="stroke: #A80036; stroke-width: 1.0;"/><polygon fill="#A80036" points="193.643,125.4241,200.4502,132.5419,198.2685,127.3226,203.4878,125.141,193.643,125.4241" style="stroke: #A80036; stroke-width: 1.0;"/><text fill="#000000" font-family="sans-serif" font-size="13" lengthAdjust="spacingAndGlyphs" textLength="149" x="266" y="169.02">next event time, states</text><path d="M116,126.1411 C116,152.8181 116,197.3141 116,223.9211 " fill="none" style="stroke: #A80036; stroke-width: 1.0;"/><path d="M93.9324,270.1871 C86.4043,279.2631 78.9055,290.3511 75,301.9531 C69.9911,316.8331 77.1948,332.1564 86.7197,344.5714 " fill="none" style="stroke: #A80036; stroke-width: 1.0;"/><polygon fill="#A80036" points="90.0246,348.6654,87.4838,339.1499,86.8839,344.7749,81.259,344.175,90.0246,348.6654" style="stroke: #A80036; stroke-width: 1.0;"/><text fill="#000000" font-family="sans-serif" font-size="13" lengthAdjust="spacingAndGlyphs" textLength="30" x="76" y="315.02">(x, t)</text><path d="M115.554,275.3761 C115.194,297.5141 114.694,328.2615 114.359,348.8444 " fill="none" style="stroke: #A80036; stroke-width: 1.0;"/><polygon fill="#A80036" points="115.638,270.2271,111.4919,279.1608,115.5566,275.2265,119.4909,279.2911,115.638,270.2271" style="stroke: #A80036; stroke-width: 1.0;"/><text fill="#000000" font-family="sans-serif" font-size="13" lengthAdjust="spacingAndGlyphs" textLength="32" x="117" y="315.02">dx/dt</text><path d="M193.81,114.0641 C256.444,122.9271 346.495,137.3041 424,155.9531 C448.463,161.8391 453.439,167.4921 478,172.9531 C504.261,178.7921 513.975,168.8461 538,180.9531 C555.679,189.8621 571.213,205.7421 582.433,219.5751 " fill="none" style="stroke: #A80036; stroke-width: 1.0;"/><polygon fill="#A80036" points="585.775,223.7921,583.3196,214.2543,582.6693,219.8736,577.05,219.2233,585.775,223.7921" style="stroke: #A80036; stroke-width: 1.0;"/><text fill="#000000" font-family="sans-serif" font-size="13" lengthAdjust="spacingAndGlyphs" textLength="76" x="479" y="169.02">hRequested</text><path d="M199.134,104.1631 C311.493,106.0241 504.209,115.2781 560,155.9531 C582.06,172.0361 592.533,202.8591 597.303,223.9081 " fill="none" style="stroke: #A80036; stroke-width: 1.0;"/><polygon fill="#A80036" points="193.845,104.0801,202.781,108.2211,198.8444,104.1587,202.9068,100.2221,193.845,104.0801" style="stroke: #A80036; stroke-width: 1.0;"/><text fill="#000000" font-family="sans-serif" font-size="13" lengthAdjust="spacingAndGlyphs" textLength="59" x="575" y="169.02">(x, hMax)</text><path d="M720.842,269.9551 C703.749,277.8431 684.12,286.5971 666,293.9531 C611.526,316.0681 548.022,338.3981 504.227,353.2742 " fill="none" style="stroke: #A80036; stroke-width: 1.0;"/><polygon fill="#A80036" points="499.253,354.9605,509.0608,355.8584,503.9882,353.3549,506.4918,348.2822,499.253,354.9605" style="stroke: #A80036; stroke-width: 1.0;"/><path d="M442.506,348.8759 C435.953,334.1355 425.69,315.1131 412,301.9531 C399.612,290.0441 384.078,280.1451 368.787,272.2151 " fill="none" style="stroke: #A80036; stroke-width: 1.0;"/><polygon fill="#A80036" points="364.054,269.8171,370.2751,277.4524,368.5144,272.0766,373.8902,270.3159,364.054,269.8171" style="stroke: #A80036; stroke-width: 1.0;"/><text fill="#000000" font-family="sans-serif" font-size="13" lengthAdjust="spacingAndGlyphs" textLength="69" x="427" y="315.02">derivatives</text><path d="M286.971,270.2261 C276.186,285.0101 267.115,304.3151 278,318.9531 C305.224,355.5626 357.369,367.3568 397.323,370.7167 " fill="none" style="stroke: #A80036; stroke-width: 1.0;"/><polygon fill="#A80036" points="402.627,371.1197,393.9557,366.4498,397.6414,370.7411,393.35,374.4268,402.627,371.1197" style="stroke: #A80036; stroke-width: 1.0;"/><text fill="#000000" font-family="sans-serif" font-size="13" lengthAdjust="spacingAndGlyphs" textLength="124" x="279" y="315.02">inputs, time, states</text></g></svg>