<?xml version="1.0" encoding="UTF-8" standalone="no"?><svg xmlns="http://www.w3.org/2000/svg" xmlns:xlink="http://www.w3.org/1999/xlink" contentScriptType="application/ecmascript" contentStyleType="text/css" height="426px" preserveAspectRatio="none" style="width:409px;height:426px;" version="1.1" viewBox="0 0 409 426" width="409px" zoomAndPan="magnify"><defs><filter height="300%" id="fw9sl35" width="300%" x="-1" y="-1"><feGaussianBlur result="blurOut" stdDeviation="2.0"/><feColorMatrix in="blurOut" result="blurOut2" type="matrix" values="0 0 0 0 0 0 0 0 0 0 0 0 0 0 0 0 0 0 .4 0"/><feOffset dx="4.0" dy="4.0" in="blurOut2" result="blurOut3"/><feBlend in="SourceGraphic" in2="blurOut3" mode="normal"/></filter></defs><g><text fill="#000000" font-family="sans-serif" font-size="14" font-weight="bold" lengthAdjust="spacingAndGlyphs" textLength="389" x="15" y="22.9951">Apply OpenStudio measure to a single parameter</text><rect fill="#FFFFFF" filter="url(#fw9sl35)" height="90.3984" style="stroke: #000000; stroke-width: 2.0;" width="302" x="20" y="281.125"/><rect fill="#FFFFFF" height="44.1328" style="stroke: none; stroke-width: 1.0;" width="302" x="20" y="327.3906"/><line style="stroke: #A80036; stroke-width: 1.0; stroke-dasharray: 5.0,5.0;" x1="69" x2="69" y1="68.5938" y2="388.5234"/><line style="stroke: #A80036; stroke-width: 1.0; stroke-dasharray: 5.0,5.0;" x1="215" x2="215" y1="68.5938" y2="388.5234"/><line style="stroke: #A80036; stroke-width: 1.0; stroke-dasharray: 5.0,5.0;" x1="363" x2="363" y1="68.5938" y2="388.5234"/><rect fill="#FEFECE" filter="url(#fw9sl35)" height="30.2969" style="stroke: #A80036; stroke-width: 1.5;" width="74" x="30" y="33.2969"/><text fill="#000000" font-family="sans-serif" font-size="14" lengthAdjust="spacingAndGlyphs" textLength="60" x="37" y="53.292">Measure</text><rect fill="#FEFECE" filter="url(#fw9sl35)" height="30.2969" style="stroke: #A80036; stroke-width: 1.5;" width="74" x="30" y="387.5234"/><text fill="#000000" font-family="sans-serif" font-size="14" lengthAdjust="spacingAndGlyphs" textLength="60" x="37" y="407.5186">Measure</text><rect fill="#FEFECE" filter="url(#fw9sl35)" height="30.2969" style="stroke: #A80036; stroke-width: 1.5;" width="190" x="118" y="33.2969"/><text fill="#000000" font-family="sans-serif" font-size="14" lengthAdjust="spacingAndGlyphs" textLength="176" x="125" y="53.292">OpenStudio Model Library</text><rect fill="#FEFECE" filter="url(#fw9sl35)" height="30.2969" style="stroke: #A80036; stroke-width: 1.5;" width="190" x="118" y="387.5234"/><text fill="#000000" font-family="sans-serif" font-size="14" lengthAdjust="spacingAndGlyphs" textLength="176" x="125" y="407.5186">OpenStudio Model Library</text><rect fill="#FEFECE" filter="url(#fw9sl35)" height="30.2969" style="stroke: #A80036; stroke-width: 1.5;" width="78" x="322" y="33.2969"/><text fill="#000000" font-family="sans-serif" font-size="14" lengthAdjust="spacingAndGlyphs" textLength="64" x="329" y="53.292">JModelica</text><rect fill="#FEFECE" filter="url(#fw9sl35)" height="30.2969" style="stroke: #A80036; stroke-width: 1.5;" width="78" x="322" y="387.5234"/><text fill="#000000" font-family="sans-serif" font-size="14" lengthAdjust="spacingAndGlyphs" textLength="64" x="329" y="407.5186">JModelica</text><polygon fill="#A80036" points="203,95.5938,213,99.5938,203,103.5938,207,99.5938" style="stroke: #A80036; stroke-width: 1.0;"/><line style="stroke: #A80036; stroke-width: 1.0;" x1="69" x2="209" y1="99.5938" y2="99.5938"/><text fill="#000000" font-family="sans-serif" font-size="13" lengthAdjust="spacingAndGlyphs" textLength="110" x="76" y="94.6606">getInstanceAST()</text><polygon fill="#A80036" points="351,124.7266,361,128.7266,351,132.7266,355,128.7266" style="stroke: #A80036; stroke-width: 1.0;"/><line style="stroke: #A80036; stroke-width: 1.0;" x1="215" x2="357" y1="128.7266" y2="128.7266"/><text fill="#000000" font-family="sans-serif" font-size="13" lengthAdjust="spacingAndGlyphs" textLength="110" x="222" y="123.7935">getInstanceAST()</text><polygon fill="#A80036" points="226,138.8594,216,142.8594,226,146.8594,222,142.8594" style="stroke: #A80036; stroke-width: 1.0;"/><line style="stroke: #A80036; stroke-width: 1.0;" x1="220" x2="362" y1="142.8594" y2="142.8594"/><polygon fill="#A80036" points="80,152.8594,70,156.8594,80,160.8594,76,156.8594" style="stroke: #A80036; stroke-width: 1.0;"/><line style="stroke: #A80036; stroke-width: 1.0;" x1="74" x2="214" y1="156.8594" y2="156.8594"/><line style="stroke: #A80036; stroke-width: 1.0;" x1="69" x2="111" y1="210.9922" y2="210.9922"/><line style="stroke: #A80036; stroke-width: 1.0;" x1="111" x2="111" y1="210.9922" y2="223.9922"/><line style="stroke: #A80036; stroke-width: 1.0;" x1="70" x2="111" y1="223.9922" y2="223.9922"/><polygon fill="#A80036" points="80,219.9922,70,223.9922,80,227.9922,76,223.9922" style="stroke: #A80036; stroke-width: 1.0;"/><text fill="#000000" font-family="sans-serif" font-size="13" lengthAdjust="spacingAndGlyphs" textLength="121" x="76" y="205.9263">searchParameter()</text><line style="stroke: #A80036; stroke-width: 1.0;" x1="69" x2="111" y1="253.125" y2="253.125"/><line style="stroke: #A80036; stroke-width: 1.0;" x1="111" x2="111" y1="253.125" y2="266.125"/><line style="stroke: #A80036; stroke-width: 1.0;" x1="70" x2="111" y1="266.125" y2="266.125"/><polygon fill="#A80036" points="80,262.125,70,266.125,80,270.125,76,266.125" style="stroke: #A80036; stroke-width: 1.0;"/><text fill="#000000" font-family="sans-serif" font-size="13" lengthAdjust="spacingAndGlyphs" textLength="60" x="76" y="248.0591">validate()</text><rect fill="none" height="90.3984" style="stroke: #000000; stroke-width: 2.0;" width="302" x="20" y="281.125"/><polygon fill="#EEEEEE" points="20,281.125,84,281.125,84,288.125,74,298.125,20,298.125,20,281.125" style="stroke: #000000; stroke-width: 2.0;"/><text fill="#000000" font-family="sans-serif" font-size="13" font-weight="bold" lengthAdjust="spacingAndGlyphs" textLength="19" x="35" y="294.1919">alt</text><text fill="#000000" font-family="sans-serif" font-size="11" font-weight="bold" lengthAdjust="spacingAndGlyphs" textLength="117" x="99" y="293.3354">[found parameter]</text><polygon fill="#A80036" points="203,315.2578,213,319.2578,203,323.2578,207,319.2578" style="stroke: #A80036; stroke-width: 1.0;"/><line style="stroke: #A80036; stroke-width: 1.0;" x1="69" x2="209" y1="319.2578" y2="319.2578"/><text fill="#000000" font-family="sans-serif" font-size="13" lengthAdjust="spacingAndGlyphs" textLength="66" x="76" y="314.3247">setValue()</text><line style="stroke: #000000; stroke-width: 1.0; stroke-dasharray: 2.0,2.0;" x1="20" x2="322" y1="328.3906" y2="328.3906"/><line style="stroke: #A80036; stroke-width: 1.0;" x1="69" x2="111" y1="350.5234" y2="350.5234"/><line style="stroke: #A80036; stroke-width: 1.0;" x1="111" x2="111" y1="350.5234" y2="363.5234"/><line style="stroke: #A80036; stroke-width: 1.0;" x1="70" x2="111" y1="363.5234" y2="363.5234"/><polygon fill="#A80036" points="80,359.5234,70,363.5234,80,367.5234,76,363.5234" style="stroke: #A80036; stroke-width: 1.0;"/><text fill="#000000" font-family="sans-serif" font-size="13" lengthAdjust="spacingAndGlyphs" textLength="80" x="76" y="345.4575">reportError()</text></g></svg>