<?xml version="1.0" encoding="UTF-8" standalone="no"?><svg xmlns="http://www.w3.org/2000/svg" xmlns:xlink="http://www.w3.org/1999/xlink" contentScriptType="application/ecmascript" contentStyleType="text/css" height="1314px" preserveAspectRatio="none" style="width:1813px;height:1314px;" version="1.1" viewBox="0 0 1813 1314" width="1813px" zoomAndPan="magnify"><defs><filter height="300%" id="feq48io" width="300%" x="-1" y="-1"><feGaussianBlur result="blurOut" stdDeviation="2.0"/><feColorMatrix in="blurOut" result="blurOut2" type="matrix" values="0 0 0 0 0 0 0 0 0 0 0 0 0 0 0 0 0 0 .4 0"/><feOffset dx="4.0" dy="4.0" in="blurOut2" result="blurOut3"/><feBlend in="SourceGraphic" in2="blurOut3" mode="normal"/></filter></defs><g><text fill="#000000" font-family="sans-serif" font-size="18" lengthAdjust="spacingAndGlyphs" textLength="260" x="794" y="16.708">Overall software architecture</text><!--cluster OpenStudio--><polygon fill="#FFFFFF" filter="url(#feq48io)" points="22,138.9531,120,138.9531,127,161.25,1224,161.25,1224,606.9531,22,606.9531,22,138.9531" style="stroke: #000000; stroke-width: 2.0;"/><line style="stroke: #000000; stroke-width: 2.0;" x1="22" x2="127" y1="161.25" y2="161.25"/><text fill="#000000" font-family="sans-serif" font-size="14" font-weight="bold" lengthAdjust="spacingAndGlyphs" textLength="92" x="26" y="153.9482">OpenStudio</text><!--cluster Legacy-Mode--><polygon fill="#FFFFFF" filter="url(#feq48io)" points="635,466.9531,746,466.9531,753,489.25,1200,489.25,1200,582.9531,635,582.9531,635,466.9531" style="stroke: #000000; stroke-width: 2.0;"/><line style="stroke: #000000; stroke-width: 2.0;" x1="635" x2="753" y1="489.25" y2="489.25"/><text fill="#000000" font-family="sans-serif" font-size="14" font-weight="bold" lengthAdjust="spacingAndGlyphs" textLength="105" x="639" y="481.9482">Legacy-Mode</text><!--cluster SOEP-Mode--><polygon fill="#FFFFFF" filter="url(#feq48io)" points="46,466.9531,142,466.9531,149,489.25,611,489.25,611,582.9531,46,582.9531,46,466.9531" style="stroke: #000000; stroke-width: 2.0;"/><line style="stroke: #000000; stroke-width: 2.0;" x1="46" x2="149" y1="489.25" y2="489.25"/><text fill="#000000" font-family="sans-serif" font-size="14" font-weight="bold" lengthAdjust="spacingAndGlyphs" textLength="90" x="50" y="481.9482">SOEP-Mode</text><!--cluster SOEP--><polygon fill="#FFFFFF" filter="url(#feq48io)" points="666,672.9531,713,672.9531,720,695.25,1058,695.25,1058,1109.9531,666,1109.9531,666,672.9531" style="stroke: #000000; stroke-width: 2.0;"/><line style="stroke: #000000; stroke-width: 2.0;" x1="666" x2="720" y1="695.25" y2="695.25"/><text fill="#000000" font-family="sans-serif" font-size="14" font-weight="bold" lengthAdjust="spacingAndGlyphs" textLength="41" x="670" y="687.9482">SOEP</text><!--cluster EnergyPlus--><polygon fill="#FFFFFF" filter="url(#feq48io)" points="1256,264.9531,1350,264.9531,1357,287.25,1806,287.25,1806,378.9531,1256,378.9531,1256,264.9531" style="stroke: #000000; stroke-width: 2.0;"/><line style="stroke: #000000; stroke-width: 2.0;" x1="1256" x2="1357" y1="287.25" y2="287.25"/><text fill="#000000" font-family="sans-serif" font-size="14" font-weight="bold" lengthAdjust="spacingAndGlyphs" textLength="88" x="1260" y="279.9482">EnergyPlus</text><!--entity API--><ellipse cx="637.25" cy="183.9531" fill="#FEFECE" filter="url(#feq48io)" rx="8" ry="8" style="stroke: #A80036; stroke-width: 2.0;"/><text fill="#000000" font-family="sans-serif" font-size="14" lengthAdjust="spacingAndGlyphs" textLength="21" x="626.75" y="205.9482">API</text><!--entity Core--><rect fill="#FEFECE" filter="url(#feq48io)" height="46.2969" style="stroke: #A80036; stroke-width: 1.5;" width="73" x="600.75" y="308.9531"/><rect fill="#FEFECE" height="10" style="stroke: #A80036; stroke-width: 1.5;" width="15" x="653.75" y="313.9531"/><rect fill="#FEFECE" height="2" style="stroke: #A80036; stroke-width: 1.5;" width="4" x="651.75" y="315.9531"/><rect fill="#FEFECE" height="2" style="stroke: #A80036; stroke-width: 1.5;" width="4" x="651.75" y="319.9531"/><text fill="#000000" font-family="sans-serif" font-size="14" lengthAdjust="spacingAndGlyphs" textLength="33" x="615.75" y="341.9482">Core</text><!--entity Legacy\nModel Library--><path d="M651,515.9531 C651,505.9531 706,505.9531 706,505.9531 C706,505.9531 761,505.9531 761,515.9531 L761,553.5469 C761,563.5469 706,563.5469 706,563.5469 C706,563.5469 651,563.5469 651,553.5469 L651,515.9531 " fill="#FEFECE" filter="url(#feq48io)" style="stroke: #000000; stroke-width: 1.5;"/><path d="M651,515.9531 C651,525.9531 706,525.9531 706,525.9531 C706,525.9531 761,525.9531 761,515.9531 " fill="none" style="stroke: #000000; stroke-width: 1.5;"/><text fill="#000000" font-family="sans-serif" font-size="14" lengthAdjust="spacingAndGlyphs" textLength="48" x="682" y="538.9482">Legacy</text><text fill="#000000" font-family="sans-serif" font-size="14" lengthAdjust="spacingAndGlyphs" textLength="90" x="661" y="555.2451">Model Library</text><!--entity HVAC Systems Editor\n(Legacy Mode)--><rect fill="#FEFECE" filter="url(#feq48io)" height="62.5938" style="stroke: #A80036; stroke-width: 1.5;" width="185" x="796.75" y="503.4531"/><rect fill="#FEFECE" height="10" style="stroke: #A80036; stroke-width: 1.5;" width="15" x="961.75" y="508.4531"/><rect fill="#FEFECE" height="2" style="stroke: #A80036; stroke-width: 1.5;" width="4" x="959.75" y="510.4531"/><rect fill="#FEFECE" height="2" style="stroke: #A80036; stroke-width: 1.5;" width="4" x="959.75" y="514.4531"/><text fill="#000000" font-family="sans-serif" font-size="14" lengthAdjust="spacingAndGlyphs" textLength="145" x="811.75" y="536.4482">HVAC Systems Editor</text><text fill="#000000" font-family="sans-serif" font-size="14" lengthAdjust="spacingAndGlyphs" textLength="101" x="833.75" y="552.7451">(Legacy Mode)</text><!--entity EnergyPlus\nSimulator Interface--><rect fill="#FEFECE" filter="url(#feq48io)" height="62.5938" style="stroke: #A80036; stroke-width: 1.5;" width="168" x="1016.5" y="503.4531"/><rect fill="#FEFECE" height="10" style="stroke: #A80036; stroke-width: 1.5;" width="15" x="1164.5" y="508.4531"/><rect fill="#FEFECE" height="2" style="stroke: #A80036; stroke-width: 1.5;" width="4" x="1162.5" y="510.4531"/><rect fill="#FEFECE" height="2" style="stroke: #A80036; stroke-width: 1.5;" width="4" x="1162.5" y="514.4531"/><text fill="#000000" font-family="sans-serif" font-size="14" lengthAdjust="spacingAndGlyphs" textLength="77" x="1057" y="536.4482">EnergyPlus</text><text fill="#000000" font-family="sans-serif" font-size="14" lengthAdjust="spacingAndGlyphs" textLength="128" x="1031.5" y="552.7451">Simulator Interface</text><!--entity SOEP\nModel Library--><path d="M485,515.9531 C485,505.9531 540,505.9531 540,505.9531 C540,505.9531 595,505.9531 595,515.9531 L595,553.5469 C595,563.5469 540,563.5469 540,563.5469 C540,563.5469 485,563.5469 485,553.5469 L485,515.9531 " fill="#FEFECE" filter="url(#feq48io)" style="stroke: #000000; stroke-width: 1.5;"/><path d="M485,515.9531 C485,525.9531 540,525.9531 540,525.9531 C540,525.9531 595,525.9531 595,515.9531 " fill="none" style="stroke: #000000; stroke-width: 1.5;"/><text fill="#000000" font-family="sans-serif" font-size="14" lengthAdjust="spacingAndGlyphs" textLength="38" x="521" y="538.9482">SOEP</text><text fill="#000000" font-family="sans-serif" font-size="14" lengthAdjust="spacingAndGlyphs" textLength="90" x="495" y="555.2451">Model Library</text><!--entity HVAC Systems Editor\n(SOEP Mode)--><rect fill="#FEFECE" filter="url(#feq48io)" height="62.5938" style="stroke: #A80036; stroke-width: 1.5;" width="185" x="264.75" y="503.4531"/><rect fill="#FEFECE" height="10" style="stroke: #A80036; stroke-width: 1.5;" width="15" x="429.75" y="508.4531"/><rect fill="#FEFECE" height="2" style="stroke: #A80036; stroke-width: 1.5;" width="4" x="427.75" y="510.4531"/><rect fill="#FEFECE" height="2" style="stroke: #A80036; stroke-width: 1.5;" width="4" x="427.75" y="514.4531"/><text fill="#000000" font-family="sans-serif" font-size="14" lengthAdjust="spacingAndGlyphs" textLength="145" x="279.75" y="536.4482">HVAC Systems Editor</text><text fill="#000000" font-family="sans-serif" font-size="14" lengthAdjust="spacingAndGlyphs" textLength="91" x="306.75" y="552.7451">(SOEP Mode)</text><!--entity SOEP\nSimulator Interface--><rect fill="#FEFECE" filter="url(#feq48io)" height="62.5938" style="stroke: #A80036; stroke-width: 1.5;" width="168" x="62.5" y="503.4531"/><rect fill="#FEFECE" height="10" style="stroke: #A80036; stroke-width: 1.5;" width="15" x="210.5" y="508.4531"/><rect fill="#FEFECE" height="2" style="stroke: #A80036; stroke-width: 1.5;" width="4" x="208.5" y="510.4531"/><rect fill="#FEFECE" height="2" style="stroke: #A80036; stroke-width: 1.5;" width="4" x="208.5" y="514.4531"/><text fill="#000000" font-family="sans-serif" font-size="14" lengthAdjust="spacingAndGlyphs" textLength="38" x="122.5" y="536.4482">SOEP</text><text fill="#000000" font-family="sans-serif" font-size="14" lengthAdjust="spacingAndGlyphs" textLength="128" x="77.5" y="552.7451">Simulator Interface</text><!--entity JModelica--><rect fill="#FEFECE" filter="url(#feq48io)" height="46.2969" style="stroke: #A80036; stroke-width: 1.5;" width="104" x="700" y="892.9531"/><rect fill="#FEFECE" height="10" style="stroke: #A80036; stroke-width: 1.5;" width="15" x="784" y="897.9531"/><rect fill="#FEFECE" height="2" style="stroke: #A80036; stroke-width: 1.5;" width="4" x="782" y="899.9531"/><rect fill="#FEFECE" height="2" style="stroke: #A80036; stroke-width: 1.5;" width="4" x="782" y="903.9531"/><text fill="#000000" font-family="sans-serif" font-size="14" lengthAdjust="spacingAndGlyphs" textLength="64" x="715" y="925.9482">JModelica</text><!--entity Conversion Script--><rect fill="#FEFECE" filter="url(#feq48io)" height="46.2969" style="stroke: #A80036; stroke-width: 1.5;" width="161" x="682.75" y="714.9531"/><rect fill="#FEFECE" height="10" style="stroke: #A80036; stroke-width: 1.5;" width="15" x="823.75" y="719.9531"/><rect fill="#FEFECE" height="2" style="stroke: #A80036; stroke-width: 1.5;" width="4" x="821.75" y="721.9531"/><rect fill="#FEFECE" height="2" style="stroke: #A80036; stroke-width: 1.5;" width="4" x="821.75" y="725.9531"/><text fill="#000000" font-family="sans-serif" font-size="14" lengthAdjust="spacingAndGlyphs" textLength="121" x="697.75" y="747.9482">Conversion Script</text><!--entity mod_AST--><path d="M946.75,718.9531 C946.75,708.9531 994.25,708.9531 994.25,708.9531 C994.25,708.9531 1041.75,708.9531 1041.75,718.9531 L1041.75,756.5469 C1041.75,766.5469 994.25,766.5469 994.25,766.5469 C994.25,766.5469 946.75,766.5469 946.75,756.5469 L946.75,718.9531 " fill="#FEFECE" filter="url(#feq48io)" style="stroke: #000000; stroke-width: 1.5;"/><path d="M946.75,718.9531 C946.75,728.9531 994.25,728.9531 994.25,728.9531 C994.25,728.9531 1041.75,728.9531 1041.75,718.9531 " fill="none" style="stroke: #000000; stroke-width: 1.5;"/><text fill="#000000" font-family="sans-serif" font-size="14" lengthAdjust="spacingAndGlyphs" textLength="61" x="963.75" y="741.9482">Modelica</text><text fill="#000000" font-family="sans-serif" font-size="14" lengthAdjust="spacingAndGlyphs" textLength="75" x="956.75" y="758.2451">Library AST</text><!--entity Modelica\nBuildings Library--><path d="M686.75,1045.9531 C686.75,1035.9531 752.25,1035.9531 752.25,1035.9531 C752.25,1035.9531 817.75,1035.9531 817.75,1045.9531 L817.75,1083.5469 C817.75,1093.5469 752.25,1093.5469 752.25,1093.5469 C752.25,1093.5469 686.75,1093.5469 686.75,1083.5469 L686.75,1045.9531 " fill="#FEFECE" filter="url(#feq48io)" style="stroke: #000000; stroke-width: 1.5;"/><path d="M686.75,1045.9531 C686.75,1055.9531 752.25,1055.9531 752.25,1055.9531 C752.25,1055.9531 817.75,1055.9531 817.75,1045.9531 " fill="none" style="stroke: #000000; stroke-width: 1.5;"/><text fill="#000000" font-family="sans-serif" font-size="14" lengthAdjust="spacingAndGlyphs" textLength="61" x="721.75" y="1068.9482">Modelica</text><text fill="#000000" font-family="sans-serif" font-size="14" lengthAdjust="spacingAndGlyphs" textLength="111" x="696.75" y="1085.2451">Buildings Library</text><!--entity in.idf--><rect fill="#FEFECE" filter="url(#feq48io)" height="46.2969" style="stroke: #A80036; stroke-width: 1.5;" width="72" x="1299" y="308.9531"/><rect fill="#FEFECE" height="10" style="stroke: #A80036; stroke-width: 1.5;" width="15" x="1351" y="313.9531"/><rect fill="#FEFECE" height="2" style="stroke: #A80036; stroke-width: 1.5;" width="4" x="1349" y="315.9531"/><rect fill="#FEFECE" height="2" style="stroke: #A80036; stroke-width: 1.5;" width="4" x="1349" y="319.9531"/><text fill="#000000" font-family="sans-serif" font-size="14" lengthAdjust="spacingAndGlyphs" textLength="32" x="1314" y="341.9482">in.idf</text><!--entity EnergyPlus.exe--><rect fill="#FEFECE" filter="url(#feq48io)" height="46.2969" style="stroke: #A80036; stroke-width: 1.5;" width="146" x="1441" y="308.9531"/><rect fill="#FEFECE" height="10" style="stroke: #A80036; stroke-width: 1.5;" width="15" x="1567" y="313.9531"/><rect fill="#FEFECE" height="2" style="stroke: #A80036; stroke-width: 1.5;" width="4" x="1565" y="315.9531"/><rect fill="#FEFECE" height="2" style="stroke: #A80036; stroke-width: 1.5;" width="4" x="1565" y="319.9531"/><text fill="#000000" font-family="sans-serif" font-size="14" lengthAdjust="spacingAndGlyphs" textLength="106" x="1456" y="341.9482">EnergyPlus.exe</text><!--entity eplusout.sql--><rect fill="#FEFECE" filter="url(#feq48io)" height="46.2969" style="stroke: #A80036; stroke-width: 1.5;" width="125" x="1656.75" y="308.9531"/><rect fill="#FEFECE" height="10" style="stroke: #A80036; stroke-width: 1.5;" width="15" x="1761.75" y="313.9531"/><rect fill="#FEFECE" height="2" style="stroke: #A80036; stroke-width: 1.5;" width="4" x="1759.75" y="315.9531"/><rect fill="#FEFECE" height="2" style="stroke: #A80036; stroke-width: 1.5;" width="4" x="1759.75" y="319.9531"/><text fill="#000000" font-family="sans-serif" font-size="14" lengthAdjust="spacingAndGlyphs" textLength="85" x="1671.75" y="341.9482">eplusout.sql</text><!--entity epdev--><ellipse cx="612.25" cy="706.4531" fill="#FEFECE" filter="url(#feq48io)" rx="8" ry="8" style="stroke: #A80036; stroke-width: 2.0;"/><path d="M612.25,714.4531 L612.25,741.4531 M599.25,722.4531 L625.25,722.4531 M612.25,741.4531 L599.25,756.4531 M612.25,741.4531 L625.25,756.4531 " fill="#FEFECE" filter="url(#feq48io)" style="stroke: #A80036; stroke-width: 2.0;"/><text fill="#000000" font-family="sans-serif" font-size="14" lengthAdjust="spacingAndGlyphs" textLength="71" x="576.75" y="776.4482">Developer</text><!--entity modev--><ellipse cx="1137.25" cy="884.4531" fill="#FEFECE" filter="url(#feq48io)" rx="8" ry="8" style="stroke: #A80036; stroke-width: 2.0;"/><path d="M1137.25,892.4531 L1137.25,919.4531 M1124.25,900.4531 L1150.25,900.4531 M1137.25,919.4531 L1124.25,934.4531 M1137.25,919.4531 L1150.25,934.4531 " fill="#FEFECE" filter="url(#feq48io)" style="stroke: #A80036; stroke-width: 2.0;"/><text fill="#000000" font-family="sans-serif" font-size="14" lengthAdjust="spacingAndGlyphs" textLength="125" x="1074.75" y="954.4482">Developer or User</text><!--entity budev--><ellipse cx="752.25" cy="1208.4531" fill="#FEFECE" filter="url(#feq48io)" rx="8" ry="8" style="stroke: #A80036; stroke-width: 2.0;"/><path d="M752.25,1216.4531 L752.25,1243.4531 M739.25,1224.4531 L765.25,1224.4531 M752.25,1243.4531 L739.25,1258.4531 M752.25,1243.4531 L765.25,1258.4531 " fill="#FEFECE" filter="url(#feq48io)" style="stroke: #A80036; stroke-width: 2.0;"/><text fill="#000000" font-family="sans-serif" font-size="14" lengthAdjust="spacingAndGlyphs" textLength="71" x="716.75" y="1278.4482">Developer</text><!--entity mouse--><ellipse cx="1221" cy="1208.4531" fill="#FEFECE" filter="url(#feq48io)" rx="8" ry="8" style="stroke: #A80036; stroke-width: 2.0;"/><path d="M1221,1216.4531 L1221,1243.4531 M1208,1224.4531 L1234,1224.4531 M1221,1243.4531 L1208,1258.4531 M1221,1243.4531 L1234,1258.4531 " fill="#FEFECE" filter="url(#feq48io)" style="stroke: #A80036; stroke-width: 2.0;"/><text fill="#000000" font-family="sans-serif" font-size="14" lengthAdjust="spacingAndGlyphs" textLength="32" x="1205" y="1278.4482">User</text><!--entity User-Provided\nModelica Library--><path d="M1074.75,1045.9531 C1074.75,1035.9531 1139.25,1035.9531 1139.25,1035.9531 C1139.25,1035.9531 1203.75,1035.9531 1203.75,1045.9531 L1203.75,1083.5469 C1203.75,1093.5469 1139.25,1093.5469 1139.25,1093.5469 C1139.25,1093.5469 1074.75,1093.5469 1074.75,1083.5469 L1074.75,1045.9531 " fill="#FEFECE" filter="url(#feq48io)" style="stroke: #000000; stroke-width: 1.5;"/><path d="M1074.75,1045.9531 C1074.75,1055.9531 1139.25,1055.9531 1139.25,1055.9531 C1139.25,1055.9531 1203.75,1055.9531 1203.75,1045.9531 " fill="none" style="stroke: #000000; stroke-width: 1.5;"/><text fill="#000000" font-family="sans-serif" font-size="14" lengthAdjust="spacingAndGlyphs" textLength="97" x="1090.75" y="1068.9482">User-Provided</text><text fill="#000000" font-family="sans-serif" font-size="14" lengthAdjust="spacingAndGlyphs" textLength="109" x="1084.75" y="1085.2451">Modelica Library</text><!--entity Application--><rect fill="#FEFECE" filter="url(#feq48io)" height="46.2969" style="stroke: #A80036; stroke-width: 1.5;" width="115" x="300.75" y="28.9531"/><rect fill="#FEFECE" height="10" style="stroke: #A80036; stroke-width: 1.5;" width="15" x="395.75" y="33.9531"/><rect fill="#FEFECE" height="2" style="stroke: #A80036; stroke-width: 1.5;" width="4" x="393.75" y="35.9531"/><rect fill="#FEFECE" height="2" style="stroke: #A80036; stroke-width: 1.5;" width="4" x="393.75" y="39.9531"/><text fill="#000000" font-family="sans-serif" font-size="14" lengthAdjust="spacingAndGlyphs" textLength="75" x="315.75" y="61.9482">Application</text><!--entity Measures--><rect fill="#FEFECE" filter="url(#feq48io)" height="46.2969" style="stroke: #A80036; stroke-width: 1.5;" width="108" x="676" y="28.9531"/><rect fill="#FEFECE" height="10" style="stroke: #A80036; stroke-width: 1.5;" width="15" x="764" y="33.9531"/><rect fill="#FEFECE" height="2" style="stroke: #A80036; stroke-width: 1.5;" width="4" x="762" y="35.9531"/><rect fill="#FEFECE" height="2" style="stroke: #A80036; stroke-width: 1.5;" width="4" x="762" y="39.9531"/><text fill="#000000" font-family="sans-serif" font-size="14" lengthAdjust="spacingAndGlyphs" textLength="68" x="691" y="61.9482">Measures</text><polygon fill="#FBFB77" filter="url(#feq48io)" points="1240,514.9531,1240,555.2188,1494,555.2188,1494,524.9531,1484,514.9531,1240,514.9531" style="stroke: #A80036; stroke-width: 1.0;"/><polygon fill="#FBFB77" points="1240,514.9531,1240,555.2188,1327.57,555.2188,1041.35,711.4351,1335.57,555.2188,1494,555.2188,1494,524.9531,1484,514.9531,1240,514.9531" style="stroke: #A80036; stroke-width: 1.0;"/><line style="stroke: #A80036; stroke-width: 1.0;" x1="1484" x2="1484" y1="514.9531" y2="524.9531"/><line style="stroke: #A80036; stroke-width: 1.0;" x1="1494" x2="1484" y1="524.9531" y2="524.9531"/><text fill="#000000" font-family="sans-serif" font-size="13" lengthAdjust="spacingAndGlyphs" textLength="233" x="1246" y="532.02">Used as an intermediate format and</text><text fill="#000000" font-family="sans-serif" font-size="13" lengthAdjust="spacingAndGlyphs" textLength="199" x="1246" y="547.1528">to verify incompatible changes.</text><polygon fill="#FBFB77" filter="url(#feq48io)" points="944.75,1174.4531,944.75,1305.5156,1169.75,1305.5156,1169.75,1184.4531,1159.75,1174.4531,944.75,1174.4531" style="stroke: #A80036; stroke-width: 1.0;"/><polygon fill="#FBFB77" points="944.75,1174.4531,944.75,1305.5156,1169.75,1305.5156,1169.75,1184.4531,1159.75,1174.4531,1091.73,1174.4531,1125.64,1094.1331,1083.73,1174.4531,944.75,1174.4531" style="stroke: #A80036; stroke-width: 1.0;"/><line style="stroke: #A80036; stroke-width: 1.0;" x1="1159.75" x2="1159.75" y1="1174.4531" y2="1184.4531"/><line style="stroke: #A80036; stroke-width: 1.0;" x1="1169.75" x2="1159.75" y1="1184.4531" y2="1184.4531"/><text fill="#000000" font-family="sans-serif" font-size="13" lengthAdjust="spacingAndGlyphs" textLength="157" x="950.75" y="1191.52">Allows companies to use</text><text fill="#000000" font-family="sans-serif" font-size="13" lengthAdjust="spacingAndGlyphs" textLength="172" x="950.75" y="1206.6528">their own Modelica libraries</text><text fill="#000000" font-family="sans-serif" font-size="13" lengthAdjust="spacingAndGlyphs" textLength="204" x="950.75" y="1221.7856">with custom HVAC systems and</text><text fill="#000000" font-family="sans-serif" font-size="13" lengthAdjust="spacingAndGlyphs" textLength="138" x="950.75" y="1236.9185">control sequences, or</text><text fill="#000000" font-family="sans-serif" font-size="13" lengthAdjust="spacingAndGlyphs" textLength="161" x="950.75" y="1252.0513">to integrate an electronic</text><text fill="#000000" font-family="sans-serif" font-size="13" lengthAdjust="spacingAndGlyphs" textLength="149" x="950.75" y="1267.1841">equipment catalog or a</text><text fill="#000000" font-family="sans-serif" font-size="13" lengthAdjust="spacingAndGlyphs" textLength="188" x="950.75" y="1282.3169">library used for an equipment</text><text fill="#000000" font-family="sans-serif" font-size="13" lengthAdjust="spacingAndGlyphs" textLength="65" x="950.75" y="1297.4497">sales tool.</text><polygon fill="#FBFB77" filter="url(#feq48io)" points="485,31.9531,485,72.2188,641,72.2188,641,41.9531,631,31.9531,485,31.9531" style="stroke: #A80036; stroke-width: 1.0;"/><polygon fill="#FBFB77" points="485,31.9531,485,47.9531,415.256,51.9531,485,55.9531,485,72.2188,641,72.2188,641,41.9531,631,31.9531,485,31.9531" style="stroke: #A80036; stroke-width: 1.0;"/><line style="stroke: #A80036; stroke-width: 1.0;" x1="631" x2="631" y1="31.9531" y2="41.9531"/><line style="stroke: #A80036; stroke-width: 1.0;" x1="641" x2="631" y1="41.9531" y2="41.9531"/><text fill="#000000" font-family="sans-serif" font-size="13" lengthAdjust="spacingAndGlyphs" textLength="134" x="491" y="49.02">Application that uses</text><text fill="#000000" font-family="sans-serif" font-size="13" lengthAdjust="spacingAndGlyphs" textLength="135" x="491" y="64.1528">the OpenStudio SDK.</text><path d="M637,209.0531 C637,233.6531 637,280.6731 637,308.5781 " fill="none" style="stroke: #A80036; stroke-width: 1.0;"/><path d="M644.648,355.2311 C656.786,390.5911 680.53,459.7571 694.655,500.9051 " fill="none" style="stroke: #A80036; stroke-width: 1.0;"/><polygon fill="#A80036" points="696.329,505.7801,697.1908,495.969,694.7059,501.0509,689.6241,498.566,696.329,505.7801" style="stroke: #A80036; stroke-width: 1.0;"/><text fill="#000000" font-family="sans-serif" font-size="13" lengthAdjust="spacingAndGlyphs" textLength="65" x="677" y="431.02">integrates</text><path d="M673.275,352.3501 C696.589,365.4551 727.067,383.8051 752,402.9531 C790.717,432.6861 830.564,471.9471 857.232,499.7101 " fill="none" style="stroke: #A80036; stroke-width: 1.0;"/><polygon fill="#A80036" points="860.743,503.3781,857.4089,494.1108,857.2855,499.7663,851.63,499.6428,860.743,503.3781" style="stroke: #A80036; stroke-width: 1.0;"/><text fill="#000000" font-family="sans-serif" font-size="13" lengthAdjust="spacingAndGlyphs" textLength="65" x="808" y="431.02">integrates</text><path d="M673.332,340.2941 C741.109,355.0991 889.835,392.8851 999,458.9531 C1019.32,471.2541 1040.61,486.6411 1058.37,500.2721 " fill="none" style="stroke: #A80036; stroke-width: 1.0;"/><polygon fill="#A80036" points="1062.34,503.3331,1057.6603,494.6671,1058.3822,500.2777,1052.7716,500.9996,1062.34,503.3331" style="stroke: #A80036; stroke-width: 1.0;"/><text fill="#000000" font-family="sans-serif" font-size="13" lengthAdjust="spacingAndGlyphs" textLength="65" x="982" y="431.02">integrates</text><path d="M618.213,355.1741 C607.7,368.4141 594.95,385.9141 586,402.9531 C569.327,434.6941 556.5,473.7741 548.678,500.9501 " fill="none" style="stroke: #A80036; stroke-width: 1.0;"/><polygon fill="#A80036" points="547.276,505.8821,553.5842,498.3186,548.643,501.0726,545.889,496.1314,547.276,505.8821" style="stroke: #A80036; stroke-width: 1.0;"/><text fill="#000000" font-family="sans-serif" font-size="13" lengthAdjust="spacingAndGlyphs" textLength="65" x="587" y="431.02">integrates</text><path d="M600.71,346.4611 C570.029,358.7681 525.662,378.6981 491,402.9531 C451.076,430.8911 412.001,470.9791 386.446,499.4371 " fill="none" style="stroke: #A80036; stroke-width: 1.0;"/><polygon fill="#A80036" points="383.087,503.1971,392.0663,499.1509,386.4184,499.4686,386.1007,493.8207,383.087,503.1971" style="stroke: #A80036; stroke-width: 1.0;"/><text fill="#000000" font-family="sans-serif" font-size="13" lengthAdjust="spacingAndGlyphs" textLength="65" x="492" y="431.02">integrates</text><path d="M600.4,339.6191 C546.673,349.9791 443.753,372.0181 360,402.9531 C307.421,422.3731 294.802,429.6841 247,458.9531 C226.74,471.3591 205.462,486.7621 187.69,500.3771 " fill="none" style="stroke: #A80036; stroke-width: 1.0;"/><polygon fill="#A80036" points="183.719,503.4331,193.2909,501.1137,187.6813,500.3835,188.4115,494.774,183.719,503.4331" style="stroke: #A80036; stroke-width: 1.0;"/><text fill="#000000" font-family="sans-serif" font-size="13" lengthAdjust="spacingAndGlyphs" textLength="65" x="361" y="431.02">integrates</text><path d="M698.114,569.0841 C691.529,593.9841 680.971,628.5441 667,656.9531 C660.38,670.4141 651.716,684.1851 643.228,696.4221 " fill="none" style="stroke: #A80036; stroke-width: 1.0; stroke-dasharray: 7.0,7.0;"/><polygon fill="#A80036" points="699.377,564.2371,693.2359,571.937,698.1156,569.0754,700.9772,573.9551,699.377,564.2371" style="stroke: #A80036; stroke-width: 1.0;"/><text fill="#000000" font-family="sans-serif" font-size="13" lengthAdjust="spacingAndGlyphs" textLength="52" x="682" y="644.02">updates</text><path d="M370.567,566.6861 C393.788,616.5211 445.272,715.8301 513,779.9531 C566.747,830.8391 643.248,869.6711 695.11,892.3451 " fill="none" style="stroke: #A80036; stroke-width: 1.0; stroke-dasharray: 7.0,7.0;"/><polygon fill="#A80036" points="699.738,894.3541,693.0753,887.101,695.1516,892.363,689.8895,894.4393,699.738,894.3541" style="stroke: #A80036; stroke-width: 1.0;"/><text fill="#000000" font-family="sans-serif" font-size="13" lengthAdjust="spacingAndGlyphs" textLength="43" x="514" y="734.52">parses</text><text fill="#000000" font-family="sans-serif" font-size="13" lengthAdjust="spacingAndGlyphs" textLength="25" x="523" y="749.6528">AST</text><path d="M512.698,568.3481 C493.475,595.1901 474.92,632.7341 498,656.9531 C510.739,670.3211 646.582,658.8211 664,664.9531 C693.669,675.3971 722.122,697.8301 740.848,714.8981 " fill="none" style="stroke: #A80036; stroke-width: 1.0; stroke-dasharray: 7.0,7.0;"/><polygon fill="#A80036" points="515.783,564.1351,507.2384,569.0331,512.8289,568.1691,513.6929,573.7596,515.783,564.1351" style="stroke: #A80036; stroke-width: 1.0;"/><text fill="#000000" font-family="sans-serif" font-size="13" lengthAdjust="spacingAndGlyphs" textLength="108" x="524" y="636.52">augments library</text><text fill="#000000" font-family="sans-serif" font-size="13" lengthAdjust="spacingAndGlyphs" textLength="158" x="499" y="651.6528">by generating C++ code</text><path d="M761.607,761.2441 C759.598,793.3791 755.892,852.6751 753.717,887.4761 " fill="none" style="stroke: #A80036; stroke-width: 1.0; stroke-dasharray: 7.0,7.0;"/><polygon fill="#A80036" points="753.382,892.8431,757.9348,884.1098,753.6934,887.8528,749.9504,883.6114,753.382,892.8431" style="stroke: #A80036; stroke-width: 1.0;"/><text fill="#000000" font-family="sans-serif" font-size="13" lengthAdjust="spacingAndGlyphs" textLength="43" x="760" y="823.52">parses</text><text fill="#000000" font-family="sans-serif" font-size="13" lengthAdjust="spacingAndGlyphs" textLength="25" x="769" y="838.6528">AST</text><path d="M158.69,566.7651 C181.579,618.5431 234.692,722.9271 312,779.9531 C430.172,867.1221 605.429,898.7101 694.913,909.5951 " fill="none" style="stroke: #A80036; stroke-width: 1.0; stroke-dasharray: 7.0,7.0;"/><polygon fill="#A80036" points="699.895,910.1901,691.4328,905.1511,694.9303,909.5972,690.4842,913.0947,699.895,910.1901" style="stroke: #A80036; stroke-width: 1.0;"/><text fill="#000000" font-family="sans-serif" font-size="13" lengthAdjust="spacingAndGlyphs" textLength="84" x="322" y="727.02">writes inputs,</text><text fill="#000000" font-family="sans-serif" font-size="13" lengthAdjust="spacingAndGlyphs" textLength="102" x="313" y="742.1528">runs simulation,</text><text fill="#000000" font-family="sans-serif" font-size="13" lengthAdjust="spacingAndGlyphs" textLength="89" x="319.5" y="757.2856">reads outputs</text><path d="M941.149,737.9531 C912.242,737.9531 875.829,737.9531 843.468,737.9531 " fill="none" style="stroke: #A80036; stroke-width: 1.0;"/><polygon fill="#A80036" points="946.456,737.9531,937.456,733.9531,941.456,737.9531,937.456,741.9531,946.456,737.9531" style="stroke: #A80036; stroke-width: 1.0;"/><text fill="#000000" font-family="sans-serif" font-size="13" lengthAdjust="spacingAndGlyphs" textLength="65" x="861.75" y="730.02">generates</text><path d="M752,938.9601 C752,963.2391 752,1002.5831 752,1030.6431 " fill="none" style="stroke: #A80036; stroke-width: 1.0;"/><polygon fill="#A80036" points="752,1035.7441,756,1026.7441,752,1030.7441,748,1026.7441,752,1035.7441" style="stroke: #A80036; stroke-width: 1.0;"/><text fill="#000000" font-family="sans-serif" font-size="13" lengthAdjust="spacingAndGlyphs" textLength="49" x="753" y="1001.02">imports</text><path d="M817.774,763.0441 C877.291,789.4471 974.996,833.4521 1058,873.9531 C1063.42,876.5961 1069.02,879.3851 1074.62,882.2141 " fill="none" style="stroke: #A80036; stroke-width: 1.0; stroke-dasharray: 7.0,7.0;"/><polygon fill="#A80036" points="813.201,761.0161,819.8069,768.3211,817.7718,763.043,823.0499,761.0078,813.201,761.0161" style="stroke: #A80036; stroke-width: 1.0;"/><text fill="#000000" font-family="sans-serif" font-size="13" lengthAdjust="spacingAndGlyphs" textLength="48" x="994" y="831.02">invokes</text><path d="M752,1099.2531 C752,1127.4681 752,1168.0291 752,1198.1831 " fill="none" style="stroke: #A80036; stroke-width: 1.0; stroke-dasharray: 7.0,7.0;"/><polygon fill="#A80036" points="752,1094.1331,748,1103.1331,752,1099.1331,756,1103.1331,752,1094.1331" style="stroke: #A80036; stroke-width: 1.0;"/><text fill="#000000" font-family="sans-serif" font-size="13" lengthAdjust="spacingAndGlyphs" textLength="111" x="753" y="1139.02">adds annotations</text><path d="M1154.61,1098.8921 C1169.05,1129.3471 1190.41,1174.4111 1204.97,1205.1421 " fill="none" style="stroke: #A80036; stroke-width: 1.0; stroke-dasharray: 7.0,7.0;"/><polygon fill="#A80036" points="1152.36,1094.1331,1152.6033,1103.979,1154.503,1098.6506,1159.8313,1100.5503,1152.36,1094.1331" style="stroke: #A80036; stroke-width: 1.0;"/><text fill="#000000" font-family="sans-serif" font-size="13" lengthAdjust="spacingAndGlyphs" textLength="111" x="1176" y="1139.02">adds annotations</text><path d="M402.517,74.9731 C466.382,106.5631 580.83,163.1731 621.852,183.4631 " fill="none" style="stroke: #A80036; stroke-width: 1.0; stroke-dasharray: 7.0,7.0;"/><polygon fill="#A80036" points="626.483,185.7531,620.1871,178.1794,622.0006,183.5376,616.6423,185.3511,626.483,185.7531" style="stroke: #A80036; stroke-width: 1.0;"/><text fill="#000000" font-family="sans-serif" font-size="13" lengthAdjust="spacingAndGlyphs" textLength="30" x="499" y="118.02">uses</text><path d="M715.058,75.1231 C697.099,101.7731 667.249,146.0631 650.136,171.4631 " fill="none" style="stroke: #A80036; stroke-width: 1.0; stroke-dasharray: 7.0,7.0;"/><polygon fill="#A80036" points="647.298,175.6731,655.6492,170.4523,650.0958,171.5292,649.019,165.9758,647.298,175.6731" style="stroke: #A80036; stroke-width: 1.0;"/><text fill="#000000" font-family="sans-serif" font-size="13" lengthAdjust="spacingAndGlyphs" textLength="30" x="696" y="118.02">uses</text><path d="M804.193,936.7781 C872.732,962.8131 993.281,1008.6021 1069.49,1037.5511 " fill="none" style="stroke: #A80036; stroke-width: 1.0;"/><polygon fill="#A80036" points="1074.45,1039.4331,1067.4701,1032.4847,1069.7792,1037.6488,1064.6151,1039.9579,1074.45,1039.4331" style="stroke: #A80036; stroke-width: 1.0;"/><text fill="#000000" font-family="sans-serif" font-size="13" lengthAdjust="spacingAndGlyphs" textLength="49" x="981" y="1001.02">imports</text><path d="M1255.9922,346.673 C1255.9445,346.7527 1255.8965,346.8328 1255.8484,346.913 C1254.3091,349.4822 1252.5925,352.3134 1250.735,355.3254 C1243.305,367.3734 1233.62,382.3146 1224,394.9531 C1194.13,434.1921 1155.84,476.0081 1129.77,503.4051 " fill="none" style="stroke: #A80036; stroke-width: 1.0; stroke-dasharray: 7.0,7.0;"/><polygon fill="#A80036" points="1255.9922,346.673,1247.9373,352.3402,1253.4239,350.9629,1254.8012,356.4495,1255.9922,346.673" style="stroke: #A80036; stroke-width: 1.0;"/><text fill="#000000" font-family="sans-serif" font-size="13" lengthAdjust="spacingAndGlyphs" textLength="84" x="1224" y="416.02">writes inputs,</text><text fill="#000000" font-family="sans-serif" font-size="13" lengthAdjust="spacingAndGlyphs" textLength="102" x="1215" y="431.1528">runs simulation,</text><text fill="#000000" font-family="sans-serif" font-size="13" lengthAdjust="spacingAndGlyphs" textLength="89" x="1221.5" y="446.2856">reads outputs</text><path d="M1371.01,331.9531 C1392.56,331.9531 1414.1,331.9531 1435.65,331.9531 " fill="none" style="stroke: #A80036; stroke-width: 1.0;"/><polygon fill="#A80036" points="1440.83,331.9531,1431.83,327.9531,1435.83,331.9531,1431.83,335.9531,1440.83,331.9531" style="stroke: #A80036; stroke-width: 1.0;"/><path d="M1587.27,331.9531 C1608.71,331.9531 1630.15,331.9531 1651.58,331.9531 " fill="none" style="stroke: #A80036; stroke-width: 1.0;"/><polygon fill="#A80036" points="1656.74,331.9531,1647.74,327.9531,1651.74,331.9531,1647.74,335.9531,1656.74,331.9531" style="stroke: #A80036; stroke-width: 1.0;"/></g></svg>