<?xml version="1.0" encoding="UTF-8" standalone="no"?><svg xmlns="http://www.w3.org/2000/svg" xmlns:xlink="http://www.w3.org/1999/xlink" contentScriptType="application/ecmascript" contentStyleType="text/css" height="404px" preserveAspectRatio="none" style="width:708px;height:404px;" version="1.1" viewBox="0 0 708 404" width="708px" zoomAndPan="magnify"><defs><filter height="300%" id="f7k273u" width="300%" x="-1" y="-1"><feGaussianBlur result="blurOut" stdDeviation="2.0"/><feColorMatrix in="blurOut" result="blurOut2" type="matrix" values="0 0 0 0 0 0 0 0 0 0 0 0 0 0 0 0 0 0 .4 0"/><feOffset dx="4.0" dy="4.0" in="blurOut2" result="blurOut3"/><feBlend in="SourceGraphic" in2="blurOut3" mode="normal"/></filter></defs><g><text fill="#000000" font-family="sans-serif" font-size="18" lengthAdjust="spacingAndGlyphs" textLength="689" x="18.5" y="17.4023">Software architecture for QSS integration with JModelica with extended FMI API</text><!--cluster PyFMI--><polygon fill="#FFFFFF" filter="url(#f7k273u)" points="22,45.1992,71,45.1992,78,67.6875,212,67.6875,212,286.1992,22,286.1992,22,45.1992" style="stroke: #000000; stroke-width: 2.0;"/><line style="stroke: #000000; stroke-width: 2.0;" x1="22" x2="78" y1="67.6875" y2="67.6875"/><text fill="#000000" font-family="sans-serif" font-size="14" font-weight="bold" lengthAdjust="spacingAndGlyphs" textLength="43" x="26" y="60.7344">PyFMI</text><!--cluster Optimica--><polygon fill="#FFFFFF" filter="url(#f7k273u)" points="490,189.1992,562,189.1992,569,211.6875,692,211.6875,692,286.1992,490,286.1992,490,189.1992" style="stroke: #000000; stroke-width: 2.0;"/><line style="stroke: #000000; stroke-width: 2.0;" x1="490" x2="569" y1="211.6875" y2="211.6875"/><text fill="#000000" font-family="sans-serif" font-size="14" font-weight="bold" lengthAdjust="spacingAndGlyphs" textLength="66" x="494" y="204.7344">Optimica</text><!--entity Master algorithm--><rect fill="#FEFECE" filter="url(#f7k273u)" height="46.4883" style="stroke: #A80036; stroke-width: 1.5;" width="157" x="38.5" y="80.1992"/><rect fill="#FEFECE" height="10" style="stroke: #A80036; stroke-width: 1.5;" width="15" x="175.5" y="85.1992"/><rect fill="#FEFECE" height="2" style="stroke: #A80036; stroke-width: 1.5;" width="4" x="173.5" y="87.1992"/><rect fill="#FEFECE" height="2" style="stroke: #A80036; stroke-width: 1.5;" width="4" x="173.5" y="91.1992"/><text fill="#000000" font-family="sans-serif" font-size="14" lengthAdjust="spacingAndGlyphs" textLength="117" x="53.5" y="113.7344">Master algorithm</text><!--entity Sundials--><rect fill="#FEFECE" filter="url(#f7k273u)" height="46.4883" style="stroke: #A80036; stroke-width: 1.5;" width="98" x="38" y="224.1992"/><rect fill="#FEFECE" height="10" style="stroke: #A80036; stroke-width: 1.5;" width="15" x="116" y="229.1992"/><rect fill="#FEFECE" height="2" style="stroke: #A80036; stroke-width: 1.5;" width="4" x="114" y="231.1992"/><rect fill="#FEFECE" height="2" style="stroke: #A80036; stroke-width: 1.5;" width="4" x="114" y="235.1992"/><text fill="#000000" font-family="sans-serif" font-size="14" lengthAdjust="spacingAndGlyphs" textLength="58" x="53" y="257.7344">Sundials</text><!--entity jmc--><rect fill="#FEFECE" filter="url(#f7k273u)" height="46.4883" style="stroke: #A80036; stroke-width: 1.5;" width="169" x="506.5" y="224.1992"/><rect fill="#FEFECE" height="10" style="stroke: #A80036; stroke-width: 1.5;" width="15" x="655.5" y="229.1992"/><rect fill="#FEFECE" height="2" style="stroke: #A80036; stroke-width: 1.5;" width="4" x="653.5" y="231.1992"/><rect fill="#FEFECE" height="2" style="stroke: #A80036; stroke-width: 1.5;" width="4" x="653.5" y="235.1992"/><text fill="#000000" font-family="sans-serif" font-size="14" lengthAdjust="spacingAndGlyphs" textLength="129" x="521.5" y="257.7344">JModelica compiler</text><!--entity qss_sol--><rect fill="#FEFECE" filter="url(#f7k273u)" height="46.4883" style="stroke: #A80036; stroke-width: 1.5;" width="112" x="228" y="224.1992"/><rect fill="#FEFECE" height="10" style="stroke: #A80036; stroke-width: 1.5;" width="15" x="320" y="229.1992"/><rect fill="#FEFECE" height="2" style="stroke: #A80036; stroke-width: 1.5;" width="4" x="318" y="231.1992"/><rect fill="#FEFECE" height="2" style="stroke: #A80036; stroke-width: 1.5;" width="4" x="318" y="235.1992"/><text fill="#000000" font-family="sans-serif" font-size="14" lengthAdjust="spacingAndGlyphs" textLength="72" x="243" y="257.7344">QSS solver</text><!--entity FMU-ME--><rect fill="#FEFECE" filter="url(#f7k273u)" height="46.4883" style="stroke: #A80036; stroke-width: 1.5;" width="98" x="39" y="349.1992"/><rect fill="#FEFECE" height="10" style="stroke: #A80036; stroke-width: 1.5;" width="15" x="117" y="354.1992"/><rect fill="#FEFECE" height="2" style="stroke: #A80036; stroke-width: 1.5;" width="4" x="115" y="356.1992"/><rect fill="#FEFECE" height="2" style="stroke: #A80036; stroke-width: 1.5;" width="4" x="115" y="360.1992"/><text fill="#000000" font-family="sans-serif" font-size="14" lengthAdjust="spacingAndGlyphs" textLength="58" x="54" y="382.7344">FMU-ME</text><!--entity FMU-CS--><rect fill="#FEFECE" filter="url(#f7k273u)" height="46.4883" style="stroke: #A80036; stroke-width: 1.5;" width="96" x="375" y="224.1992"/><rect fill="#FEFECE" height="10" style="stroke: #A80036; stroke-width: 1.5;" width="15" x="451" y="229.1992"/><rect fill="#FEFECE" height="2" style="stroke: #A80036; stroke-width: 1.5;" width="4" x="449" y="231.1992"/><rect fill="#FEFECE" height="2" style="stroke: #A80036; stroke-width: 1.5;" width="4" x="449" y="235.1992"/><text fill="#000000" font-family="sans-serif" font-size="14" lengthAdjust="spacingAndGlyphs" textLength="56" x="390" y="257.7344">FMU-CS</text><!--entity FMU_QSS--><rect fill="#FEFECE" filter="url(#f7k273u)" height="46.4883" style="stroke: #A80036; stroke-width: 1.5;" width="98" x="399" y="349.1992"/><rect fill="#FEFECE" height="10" style="stroke: #A80036; stroke-width: 1.5;" width="15" x="477" y="354.1992"/><rect fill="#FEFECE" height="2" style="stroke: #A80036; stroke-width: 1.5;" width="4" x="475" y="356.1992"/><rect fill="#FEFECE" height="2" style="stroke: #A80036; stroke-width: 1.5;" width="4" x="475" y="360.1992"/><text fill="#000000" font-family="sans-serif" font-size="14" lengthAdjust="spacingAndGlyphs" textLength="58" x="414" y="382.7344">FMU-ME</text><path d="M109.139,126.2602 C105.298,141.3782 103.6343,160.8572 115,173.1992 C129.652,189.1092 192.149,172.6112 212,181.1992 C231.779,189.7562 249.775,206.0002 262.828,220.1082 " fill="none" style="stroke: #A80036; stroke-width: 1.0;"/><polygon fill="#A80036" points="266.376,224.0222,263.2959,214.6674,263.0183,220.3174,257.3682,220.0398,266.376,224.0222" style="stroke: #A80036; stroke-width: 1.0;"/><text fill="#000000" font-family="sans-serif" font-size="13" lengthAdjust="spacingAndGlyphs" textLength="76" x="116" y="169.7676">inputs, time</text><path d="M159.1,129.0392 C171.707,137.1372 185.286,146.5442 197,156.1992 C222.49,177.2092 248.381,204.9982 265.211,224.1092 " fill="none" style="stroke: #A80036; stroke-width: 1.0;"/><polygon fill="#A80036" points="154.865,126.3452,160.3108,134.5515,159.0834,129.0294,164.6055,127.802,154.865,126.3452" style="stroke: #A80036; stroke-width: 1.0;"/><text fill="#000000" font-family="sans-serif" font-size="13" lengthAdjust="spacingAndGlyphs" textLength="144" x="216" y="169.7676">next event time, states</text><path d="M97.9443,126.2312 C91.5767,134.9672 85.2718,145.4782 82,156.1992 C75.1937,178.5012 78.0042,205.3302 81.5426,223.8622 " fill="none" style="stroke: #A80036; stroke-width: 1.0;"/><path d="M64.2683,270.3362 C53.1415,283.9172 43.2525,301.9568 49,319.1992 C52.0411,328.3224 57.3792,337.1339 63.148,344.8303 " fill="none" style="stroke: #A80036; stroke-width: 1.0;"/><polygon fill="#A80036" points="66.3854,348.9862,64.0101,339.4281,63.3127,345.0418,57.699,344.3444,66.3854,348.9862" style="stroke: #A80036; stroke-width: 1.0;"/><text fill="#000000" font-family="sans-serif" font-size="13" lengthAdjust="spacingAndGlyphs" textLength="29" x="50" y="315.7676">(x, t)</text><path d="M87.223,275.6222 C87.4029,297.7605 87.6529,328.5076 87.8203,349.0905 " fill="none" style="stroke: #A80036; stroke-width: 1.0;"/><polygon fill="#A80036" points="87.1811,270.4732,83.2532,279.5049,87.2211,275.4731,91.253,279.4409,87.1811,270.4732" style="stroke: #A80036; stroke-width: 1.0;"/><text fill="#000000" font-family="sans-serif" font-size="13" lengthAdjust="spacingAndGlyphs" textLength="36" x="89" y="315.7676">dx/dt</text><path d="M195.521,113.4192 C258.759,122.1012 341.49,136.6872 369,156.1992 C390.74,171.6192 405.266,198.8012 413.724,219.2692 " fill="none" style="stroke: #A80036; stroke-width: 1.0;"/><polygon fill="#A80036" points="415.642,224.0522,416.0045,214.21,413.7809,219.4115,408.5794,217.1879,415.642,224.0522" style="stroke: #A80036; stroke-width: 1.0;"/><text fill="#000000" font-family="sans-serif" font-size="13" lengthAdjust="spacingAndGlyphs" textLength="73" x="387" y="169.7676">hRequested</text><path d="M201.046,104.4802 C293.975,106.7892 435.08,116.9002 469,156.1992 C486.542,176.5232 466.685,204.7012 447.867,224.0852 " fill="none" style="stroke: #A80036; stroke-width: 1.0;"/><polygon fill="#A80036" points="195.828,104.3572,204.7318,108.567,200.8266,104.4744,204.9192,100.5692,195.828,104.3572" style="stroke: #A80036; stroke-width: 1.0;"/><text fill="#000000" font-family="sans-serif" font-size="13" lengthAdjust="spacingAndGlyphs" textLength="58" x="477" y="169.7676">(x, hMax)</text><path d="M573.189,270.3012 C560.775,285.0112 543.382,304.2971 526,319.1992 C514.776,328.8224 501.695,338.1639 489.49,346.2119 " fill="none" style="stroke: #A80036; stroke-width: 1.0;"/><polygon fill="#A80036" points="485.037,349.1165,494.7605,347.5499,489.2249,346.3849,490.3899,340.8493,485.037,349.1165" style="stroke: #A80036; stroke-width: 1.0;"/><path d="M441.251,348.9434 C435.318,333.3196 425.077,313.3045 409,302.1992 C389.761,288.9092 378.905,302.381 357,294.1992 C343.252,289.0642 329.336,281.1222 317.393,273.2742 " fill="none" style="stroke: #A80036; stroke-width: 1.0;"/><polygon fill="#A80036" points="313.086,270.3932,318.3405,278.7233,317.2412,273.1743,322.7902,272.075,313.086,270.3932" style="stroke: #A80036; stroke-width: 1.0;"/><text fill="#000000" font-family="sans-serif" font-size="13" lengthAdjust="spacingAndGlyphs" textLength="68" x="427" y="315.7676">derivatives</text><path d="M274.526,270.4662 C269.693,285.6242 266.749,305.3671 277,319.1992 C303.611,355.1062 354.409,367.0692 393.752,370.665 " fill="none" style="stroke: #A80036; stroke-width: 1.0;"/><polygon fill="#A80036" points="398.979,371.1002,390.3427,366.3658,393.9963,370.6845,389.6776,374.3381,398.979,371.1002" style="stroke: #A80036; stroke-width: 1.0;"/><text fill="#000000" font-family="sans-serif" font-size="13" lengthAdjust="spacingAndGlyphs" textLength="122" x="278" y="315.7676">inputs, time, states</text></g></svg>