<?xml version="1.0" encoding="UTF-8" standalone="no"?><svg xmlns="http://www.w3.org/2000/svg" xmlns:xlink="http://www.w3.org/1999/xlink" contentScriptType="application/ecmascript" contentStyleType="text/css" height="747.4997px" preserveAspectRatio="none" style="width:1005px;height:747px;" version="1.1" viewBox="0 0 1005 747" width="1005.7022px" zoomAndPan="magnify"><defs><filter height="300%" id="f6eg40b" width="300%" x="-1" y="-1"><feGaussianBlur result="blurOut" stdDeviation="1.3553937789543349"/><feColorMatrix in="blurOut" result="blurOut2" type="matrix" values="0 0 0 0 0 0 0 0 0 0 0 0 0 0 0 0 0 0 .4 0"/><feOffset dx="2.7107875579086698" dy="2.7107875579086698" in="blurOut2" result="blurOut3"/><feBlend in="SourceGraphic" in2="blurOut3" mode="normal"/></filter></defs><g><text fill="#000000" font-family="sans-serif" font-size="12.1985" lengthAdjust="spacingAndGlyphs" textLength="176.2012" x="423.8994" y="11.323">Overall software architecture</text><!--cluster OpenStudio--><polygon fill="#FFFFFF" filter="url(#f6eg40b)" points="187.0443,104.6724,253.4586,104.6724,258.2025,119.7829,1000.9583,119.7829,1000.9583,354.0649,187.0443,354.0649,187.0443,104.6724" style="stroke: #000000; stroke-width: 1.3553937789543349;"/><line style="stroke: #000000; stroke-width: 1.3553937789543349;" x1="187.0443" x2="258.2025" y1="119.7829" y2="119.7829"/><text fill="#000000" font-family="sans-serif" font-size="9.4878" font-weight="bold" lengthAdjust="spacingAndGlyphs" textLength="62.3481" x="189.7551" y="114.8345">OpenStudio</text><!--cluster Legacy-Mode--><polygon fill="#FFFFFF" filter="url(#f6eg40b)" points="601.7948,247.6664,677.0192,247.6664,681.7631,262.777,984.6936,262.777,984.6936,337.8001,601.7948,337.8001,601.7948,247.6664" style="stroke: #000000; stroke-width: 1.3553937789543349;"/><line style="stroke: #000000; stroke-width: 1.3553937789543349;" x1="601.7948" x2="681.7631" y1="262.777" y2="262.777"/><text fill="#000000" font-family="sans-serif" font-size="9.4878" font-weight="bold" lengthAdjust="spacingAndGlyphs" textLength="71.1582" x="604.5056" y="257.8286">Legacy-Mode</text><!--cluster SOEP-Mode--><polygon fill="#FFFFFF" filter="url(#f6eg40b)" points="203.3091,247.6664,268.368,247.6664,273.1118,262.777,585.5301,262.777,585.5301,337.8001,203.3091,337.8001,203.3091,247.6664" style="stroke: #000000; stroke-width: 1.3553937789543349;"/><line style="stroke: #000000; stroke-width: 1.3553937789543349;" x1="203.3091" x2="273.1118" y1="262.777" y2="262.777"/><text fill="#000000" font-family="sans-serif" font-size="9.4878" font-weight="bold" lengthAdjust="spacingAndGlyphs" textLength="60.9927" x="206.0199" y="257.8286">SOEP-Mode</text><!--cluster SOEP--><polygon fill="#FFFFFF" filter="url(#f6eg40b)" points="189.0774,407.6029,220.9292,407.6029,225.6731,422.7134,645.8451,422.7134,645.8451,494.3481,189.0774,494.3481,189.0774,407.6029" style="stroke: #000000; stroke-width: 1.3553937789543349;"/><line style="stroke: #000000; stroke-width: 1.3553937789543349;" x1="189.0774" x2="225.6731" y1="422.7134" y2="422.7134"/><text fill="#000000" font-family="sans-serif" font-size="9.4878" font-weight="bold" lengthAdjust="spacingAndGlyphs" textLength="27.7856" x="191.7882" y="417.7651">SOEP</text><!--cluster EnergyPlus--><polygon fill="#FFFFFF" filter="url(#f6eg40b)" points="21.0086,99.2508,84.7121,99.2508,89.456,114.3614,165.358,114.3614,165.358,188.7068,21.0086,188.7068,21.0086,99.2508" style="stroke: #000000; stroke-width: 1.3553937789543349;"/><line style="stroke: #000000; stroke-width: 1.3553937789543349;" x1="21.0086" x2="89.456" y1="114.3614" y2="114.3614"/><text fill="#000000" font-family="sans-serif" font-size="9.4878" font-weight="bold" lengthAdjust="spacingAndGlyphs" textLength="59.6373" x="23.7194" y="109.413">EnergyPlus</text><!--entity API--><ellipse cx="508.9504" cy="151.4335" fill="#FEFECE" filter="url(#f6eg40b)" rx="5.4216" ry="5.4216" style="stroke: #A80036; stroke-width: 1.3553937789543349;"/><text fill="#000000" font-family="sans-serif" font-size="9.4878" lengthAdjust="spacingAndGlyphs" textLength="14.2316" x="501.8345" y="166.3395">API</text><!--entity Core--><rect fill="#FEFECE" filter="url(#f6eg40b)" height="31.3752" style="stroke: #A80036; stroke-width: 1.016545334215751;" width="49.4719" x="563.505" y="141.268"/><rect fill="#FEFECE" height="6.777" style="stroke: #A80036; stroke-width: 1.016545334215751;" width="10.1655" x="599.4229" y="144.6565"/><rect fill="#FEFECE" height="1.3554" style="stroke: #A80036; stroke-width: 1.016545334215751;" width="2.7108" x="598.0675" y="146.0119"/><rect fill="#FEFECE" height="1.3554" style="stroke: #A80036; stroke-width: 1.016545334215751;" width="2.7108" x="598.0675" y="148.7227"/><text fill="#000000" font-family="sans-serif" font-size="9.4878" lengthAdjust="spacingAndGlyphs" textLength="22.364" x="573.6704" y="163.6287">Core</text><!--entity Legacy\nModel Library--><path d="M750.2105,292.7333 C750.2105,285.9563 787.4838,285.9563 787.4838,285.9563 C787.4838,285.9563 824.7571,285.9563 824.7571,292.7333 L824.7571,318.2105 C824.7571,324.9874 787.4838,324.9874 787.4838,324.9874 C787.4838,324.9874 750.2105,324.9874 750.2105,318.2105 L750.2105,292.7333 " fill="#FEFECE" filter="url(#f6eg40b)" style="stroke: #000000; stroke-width: 1.016545334215751;"/><path d="M750.2105,292.7333 C750.2105,299.5103 787.4838,299.5103 787.4838,299.5103 C787.4838,299.5103 824.7571,299.5103 824.7571,292.7333 " fill="none" style="stroke: #000000; stroke-width: 1.016545334215751;"/><text fill="#000000" font-family="sans-serif" font-size="9.4878" lengthAdjust="spacingAndGlyphs" textLength="32.5295" x="771.2191" y="308.317">Legacy</text><text fill="#000000" font-family="sans-serif" font-size="9.4878" lengthAdjust="spacingAndGlyphs" textLength="60.9927" x="756.9874" y="319.3614">Model Library</text><!--entity HVAC Systems Editor\n(Legacy Mode)--><rect fill="#FEFECE" filter="url(#f6eg40b)" height="42.4196" style="stroke: #A80036; stroke-width: 1.016545334215751;" width="125.3739" x="848.8154" y="284.2621"/><rect fill="#FEFECE" height="6.777" style="stroke: #A80036; stroke-width: 1.016545334215751;" width="10.1655" x="960.6353" y="287.6506"/><rect fill="#FEFECE" height="1.3554" style="stroke: #A80036; stroke-width: 1.016545334215751;" width="2.7108" x="959.2799" y="289.006"/><rect fill="#FEFECE" height="1.3554" style="stroke: #A80036; stroke-width: 1.016545334215751;" width="2.7108" x="959.2799" y="291.7167"/><text fill="#000000" font-family="sans-serif" font-size="9.4878" lengthAdjust="spacingAndGlyphs" textLength="98.266" x="858.9808" y="306.6228">HVAC Systems Editor</text><text fill="#000000" font-family="sans-serif" font-size="9.4878" lengthAdjust="spacingAndGlyphs" textLength="68.4474" x="873.8901" y="317.6671">(Legacy Mode)</text><!--entity EnergyPlus\nSimulator Interface--><rect fill="#FEFECE" filter="url(#f6eg40b)" height="42.4196" style="stroke: #A80036; stroke-width: 1.016545334215751;" width="113.8531" x="612.638" y="284.2621"/><rect fill="#FEFECE" height="6.777" style="stroke: #A80036; stroke-width: 1.016545334215751;" width="10.1655" x="712.9371" y="287.6506"/><rect fill="#FEFECE" height="1.3554" style="stroke: #A80036; stroke-width: 1.016545334215751;" width="2.7108" x="711.5817" y="289.006"/><rect fill="#FEFECE" height="1.3554" style="stroke: #A80036; stroke-width: 1.016545334215751;" width="2.7108" x="711.5817" y="291.7167"/><text fill="#000000" font-family="sans-serif" font-size="9.4878" lengthAdjust="spacingAndGlyphs" textLength="52.1827" x="640.0847" y="306.6228">EnergyPlus</text><text fill="#000000" font-family="sans-serif" font-size="9.4878" lengthAdjust="spacingAndGlyphs" textLength="86.7452" x="622.8034" y="317.6671">Simulator Interface</text><!--entity SOEP\nModel Library--><path d="M500.1403,292.7333 C500.1403,285.9563 537.4136,285.9563 537.4136,285.9563 C537.4136,285.9563 574.687,285.9563 574.687,292.7333 L574.687,318.2105 C574.687,324.9874 537.4136,324.9874 537.4136,324.9874 C537.4136,324.9874 500.1403,324.9874 500.1403,318.2105 L500.1403,292.7333 " fill="#FEFECE" filter="url(#f6eg40b)" style="stroke: #000000; stroke-width: 1.016545334215751;"/><path d="M500.1403,292.7333 C500.1403,299.5103 537.4136,299.5103 537.4136,299.5103 C537.4136,299.5103 574.687,299.5103 574.687,292.7333 " fill="none" style="stroke: #000000; stroke-width: 1.016545334215751;"/><text fill="#000000" font-family="sans-serif" font-size="9.4878" lengthAdjust="spacingAndGlyphs" textLength="25.7525" x="524.5374" y="308.317">SOEP</text><text fill="#000000" font-family="sans-serif" font-size="9.4878" lengthAdjust="spacingAndGlyphs" textLength="60.9927" x="506.9173" y="319.3614">Model Library</text><!--entity HVAC Systems Editor\n(SOEP Mode)--><rect fill="#FEFECE" filter="url(#f6eg40b)" height="42.4196" style="stroke: #A80036; stroke-width: 1.016545334215751;" width="125.3739" x="213.8134" y="284.2621"/><rect fill="#FEFECE" height="6.777" style="stroke: #A80036; stroke-width: 1.016545334215751;" width="10.1655" x="325.6334" y="287.6506"/><rect fill="#FEFECE" height="1.3554" style="stroke: #A80036; stroke-width: 1.016545334215751;" width="2.7108" x="324.278" y="289.006"/><rect fill="#FEFECE" height="1.3554" style="stroke: #A80036; stroke-width: 1.016545334215751;" width="2.7108" x="324.278" y="291.7167"/><text fill="#000000" font-family="sans-serif" font-size="9.4878" lengthAdjust="spacingAndGlyphs" textLength="98.266" x="223.9788" y="306.6228">HVAC Systems Editor</text><text fill="#000000" font-family="sans-serif" font-size="9.4878" lengthAdjust="spacingAndGlyphs" textLength="61.6704" x="242.2766" y="317.6671">(SOEP Mode)</text><!--entity SOEP\nSimulator Interface--><rect fill="#FEFECE" filter="url(#f6eg40b)" height="42.4196" style="stroke: #A80036; stroke-width: 1.016545334215751;" width="113.8531" x="362.5678" y="284.2621"/><rect fill="#FEFECE" height="6.777" style="stroke: #A80036; stroke-width: 1.016545334215751;" width="10.1655" x="462.867" y="287.6506"/><rect fill="#FEFECE" height="1.3554" style="stroke: #A80036; stroke-width: 1.016545334215751;" width="2.7108" x="461.5116" y="289.006"/><rect fill="#FEFECE" height="1.3554" style="stroke: #A80036; stroke-width: 1.016545334215751;" width="2.7108" x="461.5116" y="291.7167"/><text fill="#000000" font-family="sans-serif" font-size="9.4878" lengthAdjust="spacingAndGlyphs" textLength="25.7525" x="403.2296" y="306.6228">SOEP</text><text fill="#000000" font-family="sans-serif" font-size="9.4878" lengthAdjust="spacingAndGlyphs" textLength="86.7452" x="372.7333" y="317.6671">Simulator Interface</text><!--entity JModelica--><rect fill="#FEFECE" filter="url(#f6eg40b)" height="31.3752" style="stroke: #A80036; stroke-width: 1.016545334215751;" width="70.4805" x="288.6989" y="448.2647"/><rect fill="#FEFECE" height="6.777" style="stroke: #A80036; stroke-width: 1.016545334215751;" width="10.1655" x="345.6254" y="451.6532"/><rect fill="#FEFECE" height="1.3554" style="stroke: #A80036; stroke-width: 1.016545334215751;" width="2.7108" x="344.27" y="453.0086"/><rect fill="#FEFECE" height="1.3554" style="stroke: #A80036; stroke-width: 1.016545334215751;" width="2.7108" x="344.27" y="455.7194"/><text fill="#000000" font-family="sans-serif" font-size="9.4878" lengthAdjust="spacingAndGlyphs" textLength="43.3726" x="298.8643" y="470.6254">JModelica</text><!--entity Conversion Script--><rect fill="#FEFECE" filter="url(#f6eg40b)" height="31.3752" style="stroke: #A80036; stroke-width: 1.016545334215751;" width="109.1092" x="413.0563" y="448.2647"/><rect fill="#FEFECE" height="6.777" style="stroke: #A80036; stroke-width: 1.016545334215751;" width="10.1655" x="508.6115" y="451.6532"/><rect fill="#FEFECE" height="1.3554" style="stroke: #A80036; stroke-width: 1.016545334215751;" width="2.7108" x="507.2561" y="453.0086"/><rect fill="#FEFECE" height="1.3554" style="stroke: #A80036; stroke-width: 1.016545334215751;" width="2.7108" x="507.2561" y="455.7194"/><text fill="#000000" font-family="sans-serif" font-size="9.4878" lengthAdjust="spacingAndGlyphs" textLength="82.0013" x="423.2217" y="470.6254">Conversion Script</text><!--entity mod_AST--><path d="M200.2594,450.9755 C200.2594,444.1985 232.45,444.1985 232.45,444.1985 C232.45,444.1985 264.6406,444.1985 264.6406,450.9755 L264.6406,476.4527 C264.6406,483.2296 232.45,483.2296 232.45,483.2296 C232.45,483.2296 200.2594,483.2296 200.2594,476.4527 L200.2594,450.9755 " fill="#FEFECE" filter="url(#f6eg40b)" style="stroke: #000000; stroke-width: 1.016545334215751;"/><path d="M200.2594,450.9755 C200.2594,457.7525 232.45,457.7525 232.45,457.7525 C232.45,457.7525 264.6406,457.7525 264.6406,450.9755 " fill="none" style="stroke: #000000; stroke-width: 1.016545334215751;"/><text fill="#000000" font-family="sans-serif" font-size="9.4878" lengthAdjust="spacingAndGlyphs" textLength="41.3395" x="211.7803" y="466.5592">Modelica</text><text fill="#000000" font-family="sans-serif" font-size="9.4878" lengthAdjust="spacingAndGlyphs" textLength="50.8273" x="207.0364" y="477.6036">Library AST</text><!--entity Modelica\nBuildings Library--><path d="M545.8848,450.9755 C545.8848,444.1985 590.274,444.1985 590.274,444.1985 C590.274,444.1985 634.6631,444.1985 634.6631,450.9755 L634.6631,476.4527 C634.6631,483.2296 590.274,483.2296 590.274,483.2296 C590.274,483.2296 545.8848,483.2296 545.8848,476.4527 L545.8848,450.9755 " fill="#FEFECE" filter="url(#f6eg40b)" style="stroke: #000000; stroke-width: 1.016545334215751;"/><path d="M545.8848,450.9755 C545.8848,457.7525 590.274,457.7525 590.274,457.7525 C590.274,457.7525 634.6631,457.7525 634.6631,450.9755 " fill="none" style="stroke: #000000; stroke-width: 1.016545334215751;"/><text fill="#000000" font-family="sans-serif" font-size="9.4878" lengthAdjust="spacingAndGlyphs" textLength="41.3395" x="569.6042" y="466.5592">Modelica</text><text fill="#000000" font-family="sans-serif" font-size="9.4878" lengthAdjust="spacingAndGlyphs" textLength="75.2244" x="552.6618" y="477.6036">Buildings Library</text><!--entity EnergyPlus.exe--><rect fill="#FEFECE" filter="url(#f6eg40b)" height="31.3752" style="stroke: #A80036; stroke-width: 1.016545334215751;" width="98.9437" x="50.1496" y="141.268"/><rect fill="#FEFECE" height="6.777" style="stroke: #A80036; stroke-width: 1.016545334215751;" width="10.1655" x="135.5394" y="144.6565"/><rect fill="#FEFECE" height="1.3554" style="stroke: #A80036; stroke-width: 1.016545334215751;" width="2.7108" x="134.184" y="146.0119"/><rect fill="#FEFECE" height="1.3554" style="stroke: #A80036; stroke-width: 1.016545334215751;" width="2.7108" x="134.184" y="148.7227"/><text fill="#000000" font-family="sans-serif" font-size="9.4878" lengthAdjust="spacingAndGlyphs" textLength="71.8359" x="60.315" y="163.6287">EnergyPlus.exe</text><!--entity epdev--><ellipse cx="787.4838" cy="442.5043" fill="#FEFECE" filter="url(#f6eg40b)" rx="5.4216" ry="5.4216" style="stroke: #A80036; stroke-width: 1.3553937789543349;"/><path d="M787.4838,447.9259 L787.4838,466.2237 M778.6737,453.3475 L796.2938,453.3475 M787.4838,466.2237 L778.6737,476.3891 M787.4838,466.2237 L796.2938,476.3891 " fill="#FEFECE" filter="url(#f6eg40b)" style="stroke: #A80036; stroke-width: 1.3553937789543349;"/><text fill="#000000" font-family="sans-serif" font-size="9.4878" lengthAdjust="spacingAndGlyphs" textLength="48.1165" x="763.4255" y="489.9398">Developer</text><!--entity modev--><ellipse cx="467.6109" cy="550.9358" fill="#FEFECE" filter="url(#f6eg40b)" rx="5.4216" ry="5.4216" style="stroke: #A80036; stroke-width: 1.3553937789543349;"/><path d="M467.6109,556.3574 L467.6109,574.6552 M458.8008,561.779 L476.4209,561.779 M467.6109,574.6552 L458.8008,584.8206 M467.6109,574.6552 L476.4209,584.8206 " fill="#FEFECE" filter="url(#f6eg40b)" style="stroke: #A80036; stroke-width: 1.3553937789543349;"/><text fill="#000000" font-family="sans-serif" font-size="9.4878" lengthAdjust="spacingAndGlyphs" textLength="84.7121" x="425.2548" y="598.3713">Developer or User</text><!--entity budev--><ellipse cx="590.274" cy="550.9358" fill="#FEFECE" filter="url(#f6eg40b)" rx="5.4216" ry="5.4216" style="stroke: #A80036; stroke-width: 1.3553937789543349;"/><path d="M590.274,556.3574 L590.274,574.6552 M581.4639,561.779 L599.0841,561.779 M590.274,574.6552 L581.4639,584.8206 M590.274,574.6552 L599.0841,584.8206 " fill="#FEFECE" filter="url(#f6eg40b)" style="stroke: #A80036; stroke-width: 1.3553937789543349;"/><text fill="#000000" font-family="sans-serif" font-size="9.4878" lengthAdjust="spacingAndGlyphs" textLength="48.1165" x="566.2158" y="598.3713">Developer</text><!--entity mouse--><ellipse cx="268.368" cy="675.632" fill="#FEFECE" filter="url(#f6eg40b)" rx="5.4216" ry="5.4216" style="stroke: #A80036; stroke-width: 1.3553937789543349;"/><path d="M268.368,681.0536 L268.368,699.3514 M259.5579,686.4752 L277.178,686.4752 M268.368,699.3514 L259.5579,709.5169 M268.368,699.3514 L277.178,709.5169 " fill="#FEFECE" filter="url(#f6eg40b)" style="stroke: #A80036; stroke-width: 1.3553937789543349;"/><text fill="#000000" font-family="sans-serif" font-size="9.4878" lengthAdjust="spacingAndGlyphs" textLength="21.6863" x="257.5248" y="723.0675">User</text><!--entity User-Provided\nModelica Library--><path d="M280.2277,559.407 C280.2277,552.63 323.9391,552.63 323.9391,552.63 C323.9391,552.63 367.6506,552.63 367.6506,559.407 L367.6506,584.8842 C367.6506,591.6612 323.9391,591.6612 323.9391,591.6612 C323.9391,591.6612 280.2277,591.6612 280.2277,584.8842 L280.2277,559.407 " fill="#FEFECE" filter="url(#f6eg40b)" style="stroke: #000000; stroke-width: 1.016545334215751;"/><path d="M280.2277,559.407 C280.2277,566.184 323.9391,566.184 323.9391,566.184 C323.9391,566.184 367.6506,566.184 367.6506,559.407 " fill="none" style="stroke: #000000; stroke-width: 1.016545334215751;"/><text fill="#000000" font-family="sans-serif" font-size="9.4878" lengthAdjust="spacingAndGlyphs" textLength="65.7366" x="291.0708" y="574.9907">User-Provided</text><text fill="#000000" font-family="sans-serif" font-size="9.4878" lengthAdjust="spacingAndGlyphs" textLength="73.869" x="287.0046" y="586.0351">Modelica Library</text><!--entity Application--><rect fill="#FEFECE" filter="url(#f6eg40b)" height="31.3752" style="stroke: #A80036; stroke-width: 1.016545334215751;" width="77.9351" x="280.9054" y="19.9603"/><rect fill="#FEFECE" height="6.777" style="stroke: #A80036; stroke-width: 1.016545334215751;" width="10.1655" x="345.2866" y="23.3488"/><rect fill="#FEFECE" height="1.3554" style="stroke: #A80036; stroke-width: 1.016545334215751;" width="2.7108" x="343.9312" y="24.7042"/><rect fill="#FEFECE" height="1.3554" style="stroke: #A80036; stroke-width: 1.016545334215751;" width="2.7108" x="343.9312" y="27.415"/><text fill="#000000" font-family="sans-serif" font-size="9.4878" lengthAdjust="spacingAndGlyphs" textLength="50.8273" x="291.0708" y="42.321">Application</text><!--entity Measures--><rect fill="#FEFECE" filter="url(#f6eg40b)" height="31.3752" style="stroke: #A80036; stroke-width: 1.016545334215751;" width="73.1913" x="535.3805" y="19.9603"/><rect fill="#FEFECE" height="6.777" style="stroke: #A80036; stroke-width: 1.016545334215751;" width="10.1655" x="595.0179" y="23.3488"/><rect fill="#FEFECE" height="1.3554" style="stroke: #A80036; stroke-width: 1.016545334215751;" width="2.7108" x="593.6625" y="24.7042"/><rect fill="#FEFECE" height="1.3554" style="stroke: #A80036; stroke-width: 1.016545334215751;" width="2.7108" x="593.6625" y="27.415"/><text fill="#000000" font-family="sans-serif" font-size="9.4878" lengthAdjust="spacingAndGlyphs" textLength="46.0834" x="545.546" y="42.321">Measures</text><polygon fill="#FBFB77" filter="url(#f6eg40b)" points="4.0662,292.0556,4.0662,319.3435,176.2012,319.3435,176.2012,298.8326,169.4242,292.0556,4.0662,292.0556" style="stroke: #A80036; stroke-width: 0.6776968894771674;"/><polygon fill="#FBFB77" points="4.0662,292.0556,4.0662,319.3435,99.3117,319.3435,215.0481,443.9905,104.7333,319.3435,176.2012,319.3435,176.2012,298.8326,169.4242,292.0556,4.0662,292.0556" style="stroke: #A80036; stroke-width: 0.6776968894771674;"/><line style="stroke: #A80036; stroke-width: 0.6776968894771674;" x1="169.4242" x2="169.4242" y1="292.0556" y2="298.8326"/><line style="stroke: #A80036; stroke-width: 0.6776968894771674;" x1="176.2012" x2="169.4242" y1="298.8326" y2="298.8326"/><text fill="#000000" font-family="sans-serif" font-size="8.8101" lengthAdjust="spacingAndGlyphs" textLength="157.9034" x="8.1324" y="303.6218">Used as an intermediate format and</text><text fill="#000000" font-family="sans-serif" font-size="8.8101" lengthAdjust="spacingAndGlyphs" textLength="134.8617" x="8.1324" y="313.8772">to verify incompatible changes.</text><polygon fill="#FBFB77" filter="url(#f6eg40b)" points="303.2694,652.5903,303.2694,741.411,455.7512,741.411,455.7512,659.3673,448.9742,652.5903,303.2694,652.5903" style="stroke: #A80036; stroke-width: 0.6776968894771674;"/><line style="stroke: #A80036; stroke-width: 0.6776968894771674;" x1="448.9742" x2="448.9742" y1="652.5903" y2="659.3673"/><line style="stroke: #A80036; stroke-width: 0.6776968894771674;" x1="455.7512" x2="448.9742" y1="659.3673" y2="659.3673"/><text fill="#000000" font-family="sans-serif" font-size="8.8101" lengthAdjust="spacingAndGlyphs" textLength="106.3984" x="307.3355" y="664.1565">Allows companies to use</text><text fill="#000000" font-family="sans-serif" font-size="8.8101" lengthAdjust="spacingAndGlyphs" textLength="116.5639" x="307.3355" y="674.412">their own Modelica libraries</text><text fill="#000000" font-family="sans-serif" font-size="8.8101" lengthAdjust="spacingAndGlyphs" textLength="138.2502" x="307.3355" y="684.6674">with custom HVAC systems and</text><text fill="#000000" font-family="sans-serif" font-size="8.8101" lengthAdjust="spacingAndGlyphs" textLength="93.5222" x="307.3355" y="694.9229">control sequences, or</text><text fill="#000000" font-family="sans-serif" font-size="8.8101" lengthAdjust="spacingAndGlyphs" textLength="109.1092" x="307.3355" y="705.1784">to integrate an electronic</text><text fill="#000000" font-family="sans-serif" font-size="8.8101" lengthAdjust="spacingAndGlyphs" textLength="100.9768" x="307.3355" y="715.4338">equipment catalog or a</text><text fill="#000000" font-family="sans-serif" font-size="8.8101" lengthAdjust="spacingAndGlyphs" textLength="127.407" x="307.3355" y="725.6893">library used for an equipment</text><text fill="#000000" font-family="sans-serif" font-size="8.8101" lengthAdjust="spacingAndGlyphs" textLength="44.0503" x="307.3355" y="735.9447">sales tool.</text><polygon fill="#FBFB77" filter="url(#f6eg40b)" points="405.9404,21.9934,405.9404,49.2813,511.6612,49.2813,511.6612,28.7704,504.8842,21.9934,405.9404,21.9934" style="stroke: #A80036; stroke-width: 0.6776968894771674;"/><polygon fill="#FBFB77" points="405.9404,21.9934,405.9404,32.8365,358.9462,35.5473,405.9404,38.2581,405.9404,49.2813,511.6612,49.2813,511.6612,28.7704,504.8842,21.9934,405.9404,21.9934" style="stroke: #A80036; stroke-width: 0.6776968894771674;"/><line style="stroke: #A80036; stroke-width: 0.6776968894771674;" x1="504.8842" x2="504.8842" y1="21.9934" y2="28.7704"/><line style="stroke: #A80036; stroke-width: 0.6776968894771674;" x1="511.6612" x2="504.8842" y1="28.7704" y2="28.7704"/><text fill="#000000" font-family="sans-serif" font-size="8.8101" lengthAdjust="spacingAndGlyphs" textLength="90.8114" x="410.0066" y="33.5596">Application that uses</text><text fill="#000000" font-family="sans-serif" font-size="8.8101" lengthAdjust="spacingAndGlyphs" textLength="91.4891" x="410.0066" y="43.815">the OpenStudio SDK.</text><path d="M516.0743,156.8551 C531.8606,156.8551 547.6469,156.8551 563.4338,156.8551 " fill="none" style="stroke: #A80036; stroke-width: 0.6776968894771674;"/><path d="M613.0155,167.171 C634.2484,175.859 665.312,189.6021 690.5731,204.9715 C713.6826,219.0317 719.5379,223.1392 738.6896,242.2449 C751.2134,254.7416 763.4391,270.4574 772.5202,283.0266 " fill="none" style="stroke: #A80036; stroke-width: 0.6776968894771674;"/><polygon fill="#A80036" points="774.5262,285.8221,773.1696,279.2869,772.5494,283.0701,768.7662,282.4499,774.5262,285.8221" style="stroke: #A80036; stroke-width: 0.6776968894771674;"/><text fill="#000000" font-family="sans-serif" font-size="8.8101" lengthAdjust="spacingAndGlyphs" textLength="44.0503" x="733.9457" y="223.9924">integrates</text><path d="M613.025,160.4957 C651.1718,165.7153 725.9489,178.5929 784.0953,204.9715 C810.2747,216.8482 814.185,224.6952 836.9557,242.2449 C853.3491,254.8785 871.1048,269.7594 885.1738,281.8515 " fill="none" style="stroke: #A80036; stroke-width: 0.6776968894771674;"/><polygon fill="#A80036" points="887.7558,284.0757,884.898,278.0439,885.1864,281.8667,881.3636,282.155,887.7558,284.0757" style="stroke: #A80036; stroke-width: 0.6776968894771674;"/><text fill="#000000" font-family="sans-serif" font-size="8.8101" lengthAdjust="spacingAndGlyphs" textLength="44.0503" x="830.1787" y="223.9924">integrates</text><path d="M600.3832,172.6183 C607.3933,181.6967 616.1173,193.654 622.8034,204.9715 C637.5576,229.946 651.2152,260.3428 659.9134,281.0132 " fill="none" style="stroke: #A80036; stroke-width: 0.6776968894771674;"/><polygon fill="#A80036" points="661.2661,284.2445,661.4109,277.5715,659.9574,281.1189,656.41,279.6654,661.2661,284.2445" style="stroke: #A80036; stroke-width: 0.6776968894771674;"/><text fill="#000000" font-family="sans-serif" font-size="8.8101" lengthAdjust="spacingAndGlyphs" textLength="44.0503" x="640.4236" y="223.9924">integrates</text><path d="M583.0877,172.4773 C574.1265,198.4643 555.6288,252.1081 545.1306,282.5516 " fill="none" style="stroke: #A80036; stroke-width: 0.6776968894771674;"/><polygon fill="#A80036" points="544.0158,285.7849,548.5667,280.9024,545.1203,282.5815,543.4413,279.1351,544.0158,285.7849" style="stroke: #A80036; stroke-width: 0.6776968894771674;"/><text fill="#000000" font-family="sans-serif" font-size="8.8101" lengthAdjust="spacingAndGlyphs" textLength="44.0503" x="572.6539" y="223.9924">integrates</text><path d="M572.229,172.4448 C560.8111,182.0762 544.5857,193.8404 527.9259,199.55 C505.957,207.0792 445.995,198.9685 423.5606,204.9715 C388.2966,214.4078 380.7559,222.0149 350.3693,242.2449 C332.8393,253.9155 314.7861,269.1657 300.9157,281.7017 " fill="none" style="stroke: #A80036; stroke-width: 0.6776968894771674;"/><polygon fill="#A80036" points="298.3757,284.0093,304.713,281.9144,300.8837,281.7308,301.0673,277.9015,298.3757,284.0093" style="stroke: #A80036; stroke-width: 0.6776968894771674;"/><text fill="#000000" font-family="sans-serif" font-size="8.8101" lengthAdjust="spacingAndGlyphs" textLength="44.0503" x="424.2383" y="223.9924">integrates</text><path d="M569.8631,172.5044 C558.3551,181.3131 542.9125,192.1421 527.9259,199.55 C520.8385,203.0537 517.6411,200.7075 510.9835,204.9715 C479.6061,225.0686 452.0333,258.5618 435.5687,281.1813 " fill="none" style="stroke: #A80036; stroke-width: 0.6776968894771674;"/><polygon fill="#A80036" points="433.419,284.1604,439.1871,280.8021,435.4025,281.4131,434.7915,277.6285,433.419,284.1604" style="stroke: #A80036; stroke-width: 0.6776968894771674;"/><text fill="#000000" font-family="sans-serif" font-size="8.8101" lengthAdjust="spacingAndGlyphs" textLength="44.0503" x="511.6612" y="223.9924">integrates</text><path d="M787.4838,329.0321 C787.4838,357.2426 787.4838,405.3035 787.4838,435.5884 " fill="none" style="stroke: #A80036; stroke-width: 0.6776968894771674; stroke-dasharray: 7.0,7.0;"/><polygon fill="#A80036" points="787.4838,325.5243,784.773,331.6236,787.4838,328.9128,790.1946,331.6236,787.4838,325.5243" style="stroke: #A80036; stroke-width: 0.6776968894771674;"/><text fill="#000000" font-family="sans-serif" font-size="8.8101" lengthAdjust="spacingAndGlyphs" textLength="35.2402" x="788.1615" y="383.9289">updates</text><path d="M272.7106,326.9712 C270.1239,345.6831 268.3632,373.7492 275.8226,396.7598 C281.823,415.2704 295.1295,432.9447 306.2316,445.4001 " fill="none" style="stroke: #A80036; stroke-width: 0.6776968894771674; stroke-dasharray: 7.0,7.0;"/><polygon fill="#A80036" points="308.7086,448.1346,306.6239,441.794,306.4341,445.6229,302.6052,445.4331,308.7086,448.1346" style="stroke: #A80036; stroke-width: 0.6776968894771674;"/><text fill="#000000" font-family="sans-serif" font-size="8.8101" lengthAdjust="spacingAndGlyphs" textLength="29.141" x="276.5003" y="378.8461">parses</text><text fill="#000000" font-family="sans-serif" font-size="8.8101" lengthAdjust="spacingAndGlyphs" textLength="16.9424" x="282.5996" y="389.1016">AST</text><path d="M529.427,328.7739 C522.6805,347.252 512.4934,373.9966 502.1734,396.7598 C494.016,414.754 483.3605,434.7941 476.0495,448.1061 " fill="none" style="stroke: #A80036; stroke-width: 0.6776968894771674; stroke-dasharray: 7.0,7.0;"/><polygon fill="#A80036" points="530.6455,325.4227,526.0135,330.2283,529.4875,328.6072,531.1087,332.0811,530.6455,325.4227" style="stroke: #A80036; stroke-width: 0.6776968894771674;"/><text fill="#000000" font-family="sans-serif" font-size="8.8101" lengthAdjust="spacingAndGlyphs" textLength="73.1913" x="532.6698" y="378.8461">augments library</text><text fill="#000000" font-family="sans-serif" font-size="8.8101" lengthAdjust="spacingAndGlyphs" textLength="107.0761" x="515.7273" y="389.1016">by generating C++ code</text><path d="M412.7994,463.8518 C396.1084,463.8518 378.1169,463.8518 362.7169,463.8518 " fill="none" style="stroke: #A80036; stroke-width: 0.6776968894771674; stroke-dasharray: 7.0,7.0;"/><polygon fill="#A80036" points="359.2695,463.8518,365.3688,466.5625,362.658,463.8518,365.3688,461.141,359.2695,463.8518" style="stroke: #A80036; stroke-width: 0.6776968894771674;"/><text fill="#000000" font-family="sans-serif" font-size="8.8101" lengthAdjust="spacingAndGlyphs" textLength="29.141" x="371.5473" y="448.9878">parses</text><text fill="#000000" font-family="sans-serif" font-size="8.8101" lengthAdjust="spacingAndGlyphs" textLength="16.9424" x="377.6466" y="459.2432">AST</text><path d="M406.8052,327.1203 C387.909,358.1459 352.6918,415.9664 334.871,445.2259 " fill="none" style="stroke: #A80036; stroke-width: 0.6776968894771674; stroke-dasharray: 7.0,7.0;"/><polygon fill="#A80036" points="333.0975,448.1373,338.5858,444.3389,334.8605,445.2436,333.9559,441.5182,333.0975,448.1373" style="stroke: #A80036; stroke-width: 0.6776968894771674;"/><text fill="#000000" font-family="sans-serif" font-size="8.8101" lengthAdjust="spacingAndGlyphs" textLength="56.9265" x="390.3534" y="373.7634">writes inputs,</text><text fill="#000000" font-family="sans-serif" font-size="8.8101" lengthAdjust="spacingAndGlyphs" textLength="69.1251" x="384.2541" y="384.0189">runs simulation,</text><text fill="#000000" font-family="sans-serif" font-size="8.8101" lengthAdjust="spacingAndGlyphs" textLength="60.315" x="388.6592" y="394.2743">reads outputs</text><path d="M450.5214,448.243 C430.1295,430.7768 394.1648,403.513 357.4851,392.6936 C322.726,382.4407 306.2953,381.5529 276.5003,402.1813 C262.4388,411.9165 251.3002,427.6655 243.7411,440.8107 " fill="none" style="stroke: #A80036; stroke-width: 0.6776968894771674;"/><polygon fill="#A80036" points="241.8971,444.0915,247.2498,440.1042,243.5582,441.1381,242.5244,437.4465,241.8971,444.0915" style="stroke: #A80036; stroke-width: 0.6776968894771674;"/><text fill="#000000" font-family="sans-serif" font-size="8.8101" lengthAdjust="spacingAndGlyphs" textLength="44.0503" x="312.7571" y="383.9289">generates</text><path d="M338.5835,448.1475 C353.036,433.7051 376.4979,412.9499 401.1966,402.1813 C441.2796,384.7056 455.781,386.9074 499.1238,392.6936 C515.0571,394.8209 520.3079,393.8016 534.0251,402.1813 C550.2357,412.0838 564.5933,428.0151 574.7452,441.2045 " fill="none" style="stroke: #A80036; stroke-width: 0.6776968894771674;"/><polygon fill="#A80036" points="576.9755,444.1464,575.4512,437.6482,574.9285,441.4461,571.1307,440.9234,576.9755,444.1464" style="stroke: #A80036; stroke-width: 0.6776968894771674;"/><text fill="#000000" font-family="sans-serif" font-size="8.8101" lengthAdjust="spacingAndGlyphs" textLength="33.2071" x="465.2389" y="383.9289">imports</text><path d="M467.6109,483.0963 C467.6109,499.8808 467.6109,524.8167 467.6109,543.9474 " fill="none" style="stroke: #A80036; stroke-width: 0.6776968894771674; stroke-dasharray: 7.0,7.0;"/><polygon fill="#A80036" points="467.6109,479.6434,464.9001,485.7427,467.6109,483.0319,470.3216,485.7427,467.6109,479.6434" style="stroke: #A80036; stroke-width: 0.6776968894771674;"/><text fill="#000000" font-family="sans-serif" font-size="8.8101" lengthAdjust="spacingAndGlyphs" textLength="32.5295" x="468.2886" y="521.1625">invokes</text><path d="M590.274,487.1157 C590.274,503.6983 590.274,526.3144 590.274,543.9752 " fill="none" style="stroke: #A80036; stroke-width: 0.6776968894771674; stroke-dasharray: 7.0,7.0;"/><polygon fill="#A80036" points="590.274,483.6724,587.5632,489.7716,590.274,487.0608,592.9848,489.7716,590.274,483.6724" style="stroke: #A80036; stroke-width: 0.6776968894771674;"/><text fill="#000000" font-family="sans-serif" font-size="8.8101" lengthAdjust="spacingAndGlyphs" textLength="75.2244" x="590.9517" y="521.1625">adds annotations</text><path d="M302.7929,594.7726 C296.3386,602.4604 289.7751,611.5009 285.3104,620.7386 C278.0556,635.7482 273.8539,653.9457 271.4495,668.7216 " fill="none" style="stroke: #A80036; stroke-width: 0.6776968894771674; stroke-dasharray: 7.0,7.0;"/><polygon fill="#A80036" points="305.1615,592.0036,299.1359,594.8744,302.958,594.5778,303.2547,598.3999,305.1615,592.0036" style="stroke: #A80036; stroke-width: 0.6776968894771674;"/><text fill="#000000" font-family="sans-serif" font-size="8.8101" lengthAdjust="spacingAndGlyphs" textLength="75.2244" x="285.9881" y="629.594">adds annotations</text><path d="M343.4371,51.175 C384.9867,77.5334 469.6372,131.2368 498.8052,149.7413 " fill="none" style="stroke: #A80036; stroke-width: 0.6776968894771674; stroke-dasharray: 7.0,7.0;"/><polygon fill="#A80036" points="501.7681,151.6205,498.0705,146.0639,498.907,149.8051,495.1658,150.6417,501.7681,151.6205" style="stroke: #A80036; stroke-width: 0.6776968894771674;"/><text fill="#000000" font-family="sans-serif" font-size="8.8101" lengthAdjust="spacingAndGlyphs" textLength="20.3309" x="393.0642" y="80.3206">uses</text><path d="M564.1217,51.175 C551.8554,74.5196 528.3196,119.3134 516.3434,142.107 " fill="none" style="stroke: #A80036; stroke-width: 0.6776968894771674; stroke-dasharray: 7.0,7.0;"/><polygon fill="#A80036" points="514.6627,145.3051,519.8996,141.1669,516.2389,142.3055,515.1003,138.6449,514.6627,145.3051" style="stroke: #A80036; stroke-width: 0.6776968894771674;"/><text fill="#000000" font-family="sans-serif" font-size="8.8101" lengthAdjust="spacingAndGlyphs" textLength="20.3309" x="554.3561" y="80.3206">uses</text><path d="M323.9391,479.6434 C323.9391,497.7359 323.9391,528.2018 323.9391,549.0735 " fill="none" style="stroke: #A80036; stroke-width: 0.6776968894771674;"/><polygon fill="#A80036" points="323.9391,552.5955,326.6499,546.4962,323.9391,549.207,321.2283,546.4962,323.9391,552.5955" style="stroke: #A80036; stroke-width: 0.6776968894771674;"/><text fill="#000000" font-family="sans-serif" font-size="8.8101" lengthAdjust="spacingAndGlyphs" textLength="33.2071" x="324.6168" y="521.1625">imports</text><path d="M32.7938,188.837 C33.0346,189.3907 33.2844,189.9407 33.5438,190.486 C34.0624,191.5765 34.6188,192.648 35.2158,193.6917 C36.4098,195.7791 37.766,197.7553 39.3064,199.55 C64.1373,228.4788 79.4484,228.1122 116.5639,236.8233 C141.9301,242.7769 560.8491,233.8943 585.5301,242.2449 C610.3575,250.6449 633.8431,269.4293 649.6409,284.258 " fill="none" style="stroke: #A80036; stroke-width: 0.6776968894771674; stroke-dasharray: 7.0,7.0;"/><polygon fill="#A80036" points="32.7938,188.837,32.7401,195.5114,34.145,191.9445,37.712,193.3494,32.7938,188.837" style="stroke: #A80036; stroke-width: 0.6776968894771674;"/><text fill="#000000" font-family="sans-serif" font-size="8.8101" lengthAdjust="spacingAndGlyphs" textLength="56.9265" x="123.3408" y="213.8269">writes inputs,</text><text fill="#000000" font-family="sans-serif" font-size="8.8101" lengthAdjust="spacingAndGlyphs" textLength="69.1251" x="117.2416" y="224.0824">runs simulation,</text><text fill="#000000" font-family="sans-serif" font-size="8.8101" lengthAdjust="spacingAndGlyphs" textLength="60.315" x="121.6466" y="234.3379">reads outputs</text><path d="M344.0769,592.0103 C351.5966,600.1759 359.5318,610.2444 364.6009,620.7386 C369.3407,630.5516 372.5734,641.775 374.7786,652.5165 " fill="none" style="stroke: #A80036; stroke-width: 0.6776968894771674; stroke-dasharray: 7.0,7.0;"/></g></svg>