<?xml version="1.0" encoding="UTF-8" standalone="no"?><svg xmlns="http://www.w3.org/2000/svg" xmlns:xlink="http://www.w3.org/1999/xlink" contentScriptType="application/ecmascript" contentStyleType="text/css" height="547px" preserveAspectRatio="none" style="width:713px;height:547px;" version="1.1" viewBox="0 0 713 547" width="713px" zoomAndPan="magnify"><defs><filter height="300%" id="fxi9gz7" width="300%" x="-1" y="-1"><feGaussianBlur result="blurOut" stdDeviation="2.0"/><feColorMatrix in="blurOut" result="blurOut2" type="matrix" values="0 0 0 0 0 0 0 0 0 0 0 0 0 0 0 0 0 0 .4 0"/><feOffset dx="4.0" dy="4.0" in="blurOut2" result="blurOut3"/><feBlend in="SourceGraphic" in2="blurOut3" mode="normal"/></filter></defs><g><text fill="#000000" font-family="sans-serif" font-size="18" lengthAdjust="spacingAndGlyphs" textLength="712" x="0" y="16.708">Software architecture for QSS integration with JModelica with extended FMI API</text><!--cluster FMU-QSS--><polygon fill="#FFFFFF" filter="url(#fxi9gz7)" points="136,190.9531,213,190.9531,220,213.25,440,213.25,440,410.9531,136,410.9531,136,190.9531" style="stroke: #000000; stroke-width: 2.0;"/><line style="stroke: #000000; stroke-width: 2.0;" x1="136" x2="220" y1="213.25" y2="213.25"/><text fill="#000000" font-family="sans-serif" font-size="14" font-weight="bold" lengthAdjust="spacingAndGlyphs" textLength="71" x="140" y="205.9482">FMU-QSS</text><!--cluster PyFMI--><polygon fill="#FFFFFF" filter="url(#fxi9gz7)" points="200,44.9531,251,44.9531,258,67.25,555,67.25,555,141.9531,200,141.9531,200,44.9531" style="stroke: #000000; stroke-width: 2.0;"/><line style="stroke: #000000; stroke-width: 2.0;" x1="200" x2="258" y1="67.25" y2="67.25"/><text fill="#000000" font-family="sans-serif" font-size="14" font-weight="bold" lengthAdjust="spacingAndGlyphs" textLength="45" x="204" y="59.9482">PyFMI</text><!--cluster Optimica--><polygon fill="#FFFFFF" filter="url(#fxi9gz7)" points="118,443.9531,192,443.9531,199,466.25,316,466.25,316,540.9531,118,540.9531,118,443.9531" style="stroke: #000000; stroke-width: 2.0;"/><line style="stroke: #000000; stroke-width: 2.0;" x1="118" x2="199" y1="466.25" y2="466.25"/><text fill="#000000" font-family="sans-serif" font-size="14" font-weight="bold" lengthAdjust="spacingAndGlyphs" textLength="68" x="122" y="458.9482">Optimica</text><!--entity qss_sol--><rect fill="#FEFECE" filter="url(#fxi9gz7)" height="46.2969" style="stroke: #A80036; stroke-width: 1.5;" width="114" x="176" y="225.9531"/><rect fill="#FEFECE" height="10" style="stroke: #A80036; stroke-width: 1.5;" width="15" x="270" y="230.9531"/><rect fill="#FEFECE" height="2" style="stroke: #A80036; stroke-width: 1.5;" width="4" x="268" y="232.9531"/><rect fill="#FEFECE" height="2" style="stroke: #A80036; stroke-width: 1.5;" width="4" x="268" y="236.9531"/><text fill="#000000" font-family="sans-serif" font-size="14" lengthAdjust="spacingAndGlyphs" textLength="74" x="191" y="258.9482">QSS solver</text><!--entity FMU_QSS--><rect fill="#FEFECE" filter="url(#fxi9gz7)" height="46.2969" style="stroke: #A80036; stroke-width: 1.5;" width="96" x="169" y="348.9531"/><rect fill="#FEFECE" height="10" style="stroke: #A80036; stroke-width: 1.5;" width="15" x="245" y="353.9531"/><rect fill="#FEFECE" height="2" style="stroke: #A80036; stroke-width: 1.5;" width="4" x="243" y="355.9531"/><rect fill="#FEFECE" height="2" style="stroke: #A80036; stroke-width: 1.5;" width="4" x="243" y="359.9531"/><text fill="#000000" font-family="sans-serif" font-size="14" lengthAdjust="spacingAndGlyphs" textLength="56" x="184" y="381.9482">FMU-ME</text><!--entity Master algorithm--><rect fill="#FEFECE" filter="url(#fxi9gz7)" height="46.2969" style="stroke: #A80036; stroke-width: 1.5;" width="155" x="216.5" y="79.9531"/><rect fill="#FEFECE" height="10" style="stroke: #A80036; stroke-width: 1.5;" width="15" x="351.5" y="84.9531"/><rect fill="#FEFECE" height="2" style="stroke: #A80036; stroke-width: 1.5;" width="4" x="349.5" y="86.9531"/><rect fill="#FEFECE" height="2" style="stroke: #A80036; stroke-width: 1.5;" width="4" x="349.5" y="90.9531"/><text fill="#000000" font-family="sans-serif" font-size="14" lengthAdjust="spacingAndGlyphs" textLength="115" x="231.5" y="112.9482">Master algorithm</text><!--entity Sundials--><rect fill="#FEFECE" filter="url(#fxi9gz7)" height="46.2969" style="stroke: #A80036; stroke-width: 1.5;" width="98" x="441" y="79.9531"/><rect fill="#FEFECE" height="10" style="stroke: #A80036; stroke-width: 1.5;" width="15" x="519" y="84.9531"/><rect fill="#FEFECE" height="2" style="stroke: #A80036; stroke-width: 1.5;" width="4" x="517" y="86.9531"/><rect fill="#FEFECE" height="2" style="stroke: #A80036; stroke-width: 1.5;" width="4" x="517" y="90.9531"/><text fill="#000000" font-family="sans-serif" font-size="14" lengthAdjust="spacingAndGlyphs" textLength="58" x="456" y="112.9482">Sundials</text><!--entity jmc--><rect fill="#FEFECE" filter="url(#fxi9gz7)" height="46.2969" style="stroke: #A80036; stroke-width: 1.5;" width="167" x="133.5" y="478.9531"/><rect fill="#FEFECE" height="10" style="stroke: #A80036; stroke-width: 1.5;" width="15" x="280.5" y="483.9531"/><rect fill="#FEFECE" height="2" style="stroke: #A80036; stroke-width: 1.5;" width="4" x="278.5" y="485.9531"/><rect fill="#FEFECE" height="2" style="stroke: #A80036; stroke-width: 1.5;" width="4" x="278.5" y="489.9531"/><text fill="#000000" font-family="sans-serif" font-size="14" lengthAdjust="spacingAndGlyphs" textLength="127" x="148.5" y="511.9482">JModelica compiler</text><!--entity ode--><rect fill="#FEFECE" filter="url(#fxi9gz7)" height="46.2969" style="stroke: #A80036; stroke-width: 1.5;" width="96" x="502" y="225.9531"/><rect fill="#FEFECE" height="10" style="stroke: #A80036; stroke-width: 1.5;" width="15" x="578" y="230.9531"/><rect fill="#FEFECE" height="2" style="stroke: #A80036; stroke-width: 1.5;" width="4" x="576" y="232.9531"/><rect fill="#FEFECE" height="2" style="stroke: #A80036; stroke-width: 1.5;" width="4" x="576" y="236.9531"/><text fill="#000000" font-family="sans-serif" font-size="14" lengthAdjust="spacingAndGlyphs" textLength="56" x="517" y="258.9482">FMU-ME</text><path d="M216.165,114.5081 C190.13,122.1641 163.7525,135.3311 148,157.9531 C131.2126,182.0611 156.5844,206.0821 183.8807,223.2371 " fill="none" style="stroke: #A80036; stroke-width: 1.0;"/><polygon fill="#A80036" points="188.2719,225.9301,182.6907,217.8153,184.0095,223.3163,178.5086,224.6351,188.2719,225.9301" style="stroke: #A80036; stroke-width: 1.0;"/><text fill="#000000" font-family="sans-serif" font-size="13" lengthAdjust="spacingAndGlyphs" textLength="76" x="149" y="171.02">inputs, time</text><path d="M282.517,131.0611 C270.951,158.3641 253.316,199.9951 242.509,225.5061 " fill="none" style="stroke: #A80036; stroke-width: 1.0;"/><polygon fill="#A80036" points="284.602,126.1371,277.4081,132.8638,282.6516,130.741,284.7743,135.9845,284.602,126.1371" style="stroke: #A80036; stroke-width: 1.0;"/><text fill="#000000" font-family="sans-serif" font-size="13" lengthAdjust="spacingAndGlyphs" textLength="204" x="272" y="171.02">next event time, discrete states</text><path d="M371.711,102.9531 C394.66,102.9531 417.61,102.9531 440.559,102.9531 " fill="none" style="stroke: #A80036; stroke-width: 1.0;"/><path d="M495.746,126.0631 C499.703,140.2571 505.422,158.9611 512,174.9531 C518.494,190.7431 527.205,207.6971 534.648,221.2881 " fill="none" style="stroke: #A80036; stroke-width: 1.0;"/><polygon fill="#A80036" points="537.119,225.7621,536.2699,215.9499,534.702,221.3852,529.2667,219.8172,537.119,225.7621" style="stroke: #A80036; stroke-width: 1.0;"/><text fill="#000000" font-family="sans-serif" font-size="13" lengthAdjust="spacingAndGlyphs" textLength="30" x="513" y="171.02">(x, t)</text><path d="M526.43,129.5531 C535.07,137.5771 543.172,147.1891 548,157.9531 C557.659,179.4861 556.619,206.9291 554.141,225.8191 " fill="none" style="stroke: #A80036; stroke-width: 1.0;"/><polygon fill="#A80036" points="522.703,126.2131,526.7366,135.1981,526.4269,129.5497,532.0752,129.2399,522.703,126.2131" style="stroke: #A80036; stroke-width: 1.0;"/><text fill="#000000" font-family="sans-serif" font-size="13" lengthAdjust="spacingAndGlyphs" textLength="32" x="555" y="171.02">dx/dt</text><path d="M217,400.0931 C217,423.5261 217,456.9613 217,478.8079 " fill="none" style="stroke: #A80036; stroke-width: 1.0;"/><polygon fill="#A80036" points="217,394.9571,213,403.9571,217,399.9571,221,403.9571,217,394.9571" style="stroke: #A80036; stroke-width: 1.0;"/><path d="M265.13,357.1021 C283.778,349.1241 303.205,336.9881 314,318.9531 C324.452,301.4911 310.907,286.2791 292.084,274.6161 " fill="none" style="stroke: #A80036; stroke-width: 1.0;"/><polygon fill="#A80036" points="287.73,272.0311,293.4257,280.066,292.029,274.5842,297.5107,273.1875,287.73,272.0311" style="stroke: #A80036; stroke-width: 1.0;"/><text fill="#000000" font-family="sans-serif" font-size="13" lengthAdjust="spacingAndGlyphs" textLength="69" x="319" y="315.02">derivatives</text><path d="M202.383,272.1281 C193.4407,280.3781 184.7901,290.5431 180,301.9531 C173.902,316.4791 180.9091,331.9941 190.4051,344.6271 " fill="none" style="stroke: #A80036; stroke-width: 1.0;"/><polygon fill="#A80036" points="193.7056,348.7941,191.2539,339.2553,190.6014,344.8744,184.9823,344.222,193.7056,348.7941" style="stroke: #A80036; stroke-width: 1.0;"/><text fill="#000000" font-family="sans-serif" font-size="13" lengthAdjust="spacingAndGlyphs" textLength="124" x="181" y="315.02">inputs, time, states</text></g></svg>