<?xml version="1.0" encoding="UTF-8" standalone="no"?><svg xmlns="http://www.w3.org/2000/svg" xmlns:xlink="http://www.w3.org/1999/xlink" contentScriptType="application/ecmascript" contentStyleType="text/css" height="778.335px" preserveAspectRatio="none" style="width:1011px;height:778px;" version="1.1" viewBox="0 0 1011 778" width="1011.1703px" zoomAndPan="magnify"><defs><filter height="300%" id="fq476rv" width="300%" x="-1" y="-1"><feGaussianBlur result="blurOut" stdDeviation="0.9503480278422274"/><feColorMatrix in="blurOut" result="blurOut2" type="matrix" values="0 0 0 0 0 0 0 0 0 0 0 0 0 0 0 0 0 0 .4 0"/><feOffset dx="1.9006960556844548" dy="1.9006960556844548" in="blurOut2" result="blurOut3"/><feBlend in="SourceGraphic" in2="blurOut3" mode="normal"/></filter></defs><g><text fill="#000000" font-family="sans-serif" font-size="8.5531" lengthAdjust="spacingAndGlyphs" textLength="123.5452" x="450.2274" y="7.9392">Overall software architecture</text><!--cluster OpenStudio--><polygon fill="#FFFFFF" filter="url(#fq476rv)" points="427.1814,65.7893,473.7485,65.7893,477.0747,76.3842,1007.8441,76.3842,1007.8441,502.4742,427.1814,502.4742,427.1814,65.7893" style="stroke: #000000; stroke-width: 0.9503480278422274;"/><line style="stroke: #000000; stroke-width: 0.9503480278422274;" x1="427.1814" x2="477.0747" y1="76.3842" y2="76.3842"/><text fill="#000000" font-family="sans-serif" font-size="6.6524" font-weight="bold" lengthAdjust="spacingAndGlyphs" textLength="43.716" x="429.0821" y="72.9146">OpenStudio</text><!--cluster Legacy-Mode--><polygon fill="#FFFFFF" filter="url(#fq476rv)" points="727.9666,427.8719,780.7109,427.8719,784.0371,438.4668,996.4399,438.4668,996.4399,491.0701,727.9666,491.0701,727.9666,427.8719" style="stroke: #000000; stroke-width: 0.9503480278422274;"/><line style="stroke: #000000; stroke-width: 0.9503480278422274;" x1="727.9666" x2="784.0371" y1="438.4668" y2="438.4668"/><text fill="#000000" font-family="sans-serif" font-size="6.6524" font-weight="bold" lengthAdjust="spacingAndGlyphs" textLength="49.8933" x="729.8673" y="434.9972">Legacy-Mode</text><!--cluster SOEP-Mode--><polygon fill="#FFFFFF" filter="url(#fq476rv)" points="438.5856,427.8719,484.2023,427.8719,487.5285,438.4668,716.5624,438.4668,716.5624,491.0701,438.5856,491.0701,438.5856,427.8719" style="stroke: #000000; stroke-width: 0.9503480278422274;"/><line style="stroke: #000000; stroke-width: 0.9503480278422274;" x1="438.5856" x2="487.5285" y1="438.4668" y2="438.4668"/><text fill="#000000" font-family="sans-serif" font-size="6.6524" font-weight="bold" lengthAdjust="spacingAndGlyphs" textLength="42.7657" x="440.4863" y="434.9972">SOEP-Mode</text><!--cluster SOEP--><polygon fill="#FFFFFF" filter="url(#fq476rv)" points="10.4538,540.013,32.787,540.013,36.1132,550.6079,770.2571,550.6079,770.2571,600.8353,10.4538,600.8353,10.4538,540.013" style="stroke: #000000; stroke-width: 0.9503480278422274;"/><line style="stroke: #000000; stroke-width: 0.9503480278422274;" x1="10.4538" x2="36.1132" y1="550.6079" y2="550.6079"/><text fill="#000000" font-family="sans-serif" font-size="6.6524" font-weight="bold" lengthAdjust="spacingAndGlyphs" textLength="19.4821" x="12.3545" y="547.1383">SOEP</text><!--cluster EnergyPlus--><polygon fill="#FFFFFF" filter="url(#fq476rv)" points="310.7638,323.8088,355.4302,323.8088,358.7564,334.4037,411.9759,334.4037,411.9759,386.5318,310.7638,386.5318,310.7638,323.8088" style="stroke: #000000; stroke-width: 0.9503480278422274;"/><line style="stroke: #000000; stroke-width: 0.9503480278422274;" x1="310.7638" x2="358.7564" y1="334.4037" y2="334.4037"/><text fill="#000000" font-family="sans-serif" font-size="6.6524" font-weight="bold" lengthAdjust="spacingAndGlyphs" textLength="41.8153" x="312.6645" y="330.9341">EnergyPlus</text><!--entity API--><ellipse cx="459.4933" cy="98.5763" fill="#FEFECE" filter="url(#fq476rv)" rx="3.8014" ry="3.8014" style="stroke: #A80036; stroke-width: 0.9503480278422274;"/><text fill="#000000" font-family="sans-serif" font-size="6.6524" lengthAdjust="spacingAndGlyphs" textLength="9.9787" x="454.5039" y="109.0278">API</text><!--entity Core--><rect fill="#FEFECE" filter="url(#fq476rv)" height="21.9991" style="stroke: #A80036; stroke-width: 0.7127610208816706;" width="34.6877" x="730.58" y="91.4487"/><rect fill="#FEFECE" height="4.7517" style="stroke: #A80036; stroke-width: 0.7127610208816706;" width="7.1276" x="755.7643" y="93.8246"/><rect fill="#FEFECE" height="0.9503" style="stroke: #A80036; stroke-width: 0.7127610208816706;" width="1.9007" x="754.8139" y="94.7749"/><rect fill="#FEFECE" height="0.9503" style="stroke: #A80036; stroke-width: 0.7127610208816706;" width="1.9007" x="754.8139" y="96.6756"/><text fill="#000000" font-family="sans-serif" font-size="6.6524" lengthAdjust="spacingAndGlyphs" textLength="15.6807" x="737.7077" y="107.1271">Core</text><!--entity Legacy\nModel Library--><path d="M832.0297,459.471 C832.0297,454.7193 858.1643,454.7193 858.1643,454.7193 C858.1643,454.7193 884.2988,454.7193 884.2988,459.471 L884.2988,477.3346 C884.2988,482.0863 858.1643,482.0863 858.1643,482.0863 C858.1643,482.0863 832.0297,482.0863 832.0297,477.3346 L832.0297,459.471 " fill="#FEFECE" filter="url(#fq476rv)" style="stroke: #000000; stroke-width: 0.7127610208816706;"/><path d="M832.0297,459.471 C832.0297,464.2227 858.1643,464.2227 858.1643,464.2227 C858.1643,464.2227 884.2988,464.2227 884.2988,459.471 " fill="none" style="stroke: #000000; stroke-width: 0.7127610208816706;"/><text fill="#000000" font-family="sans-serif" font-size="6.6524" lengthAdjust="spacingAndGlyphs" textLength="22.8084" x="846.7601" y="470.3977">Legacy</text><text fill="#000000" font-family="sans-serif" font-size="6.6524" lengthAdjust="spacingAndGlyphs" textLength="42.7657" x="836.7814" y="478.1415">Model Library</text><!--entity HVAC Systems Editor\n(Legacy Mode)--><rect fill="#FEFECE" filter="url(#fq476rv)" height="29.7429" style="stroke: #A80036; stroke-width: 0.7127610208816706;" width="87.9072" x="901.1675" y="453.5313"/><rect fill="#FEFECE" height="4.7517" style="stroke: #A80036; stroke-width: 0.7127610208816706;" width="7.1276" x="979.5712" y="455.9072"/><rect fill="#FEFECE" height="0.9503" style="stroke: #A80036; stroke-width: 0.7127610208816706;" width="1.9007" x="978.6209" y="456.8575"/><rect fill="#FEFECE" height="0.9503" style="stroke: #A80036; stroke-width: 0.7127610208816706;" width="1.9007" x="978.6209" y="458.7582"/><text fill="#000000" font-family="sans-serif" font-size="6.6524" lengthAdjust="spacingAndGlyphs" textLength="68.9002" x="908.2951" y="469.2097">HVAC Systems Editor</text><text fill="#000000" font-family="sans-serif" font-size="6.6524" lengthAdjust="spacingAndGlyphs" textLength="47.9926" x="918.749" y="476.9536">(Legacy Mode)</text><!--entity EnergyPlus\nSimulator Interface--><rect fill="#FEFECE" filter="url(#fq476rv)" height="29.7429" style="stroke: #A80036; stroke-width: 0.7127610208816706;" width="79.8292" x="735.5694" y="453.5313"/><rect fill="#FEFECE" height="4.7517" style="stroke: #A80036; stroke-width: 0.7127610208816706;" width="7.1276" x="805.8951" y="455.9072"/><rect fill="#FEFECE" height="0.9503" style="stroke: #A80036; stroke-width: 0.7127610208816706;" width="1.9007" x="804.9448" y="456.8575"/><rect fill="#FEFECE" height="0.9503" style="stroke: #A80036; stroke-width: 0.7127610208816706;" width="1.9007" x="804.9448" y="458.7582"/><text fill="#000000" font-family="sans-serif" font-size="6.6524" lengthAdjust="spacingAndGlyphs" textLength="36.5884" x="754.8139" y="469.2097">EnergyPlus</text><text fill="#000000" font-family="sans-serif" font-size="6.6524" lengthAdjust="spacingAndGlyphs" textLength="60.8223" x="742.697" y="476.9536">Simulator Interface</text><!--entity Model Library--><rect fill="#FEFECE" filter="url(#fq476rv)" height="21.9991" style="stroke: #A80036; stroke-width: 0.7127610208816706;" width="61.7726" x="647.187" y="457.5703"/><rect fill="#FEFECE" height="4.7517" style="stroke: #A80036; stroke-width: 0.7127610208816706;" width="7.1276" x="699.4561" y="459.9462"/><rect fill="#FEFECE" height="0.9503" style="stroke: #A80036; stroke-width: 0.7127610208816706;" width="1.9007" x="698.5058" y="460.8965"/><rect fill="#FEFECE" height="0.9503" style="stroke: #A80036; stroke-width: 0.7127610208816706;" width="1.9007" x="698.5058" y="462.7972"/><text fill="#000000" font-family="sans-serif" font-size="6.6524" lengthAdjust="spacingAndGlyphs" textLength="42.7657" x="654.3146" y="473.2487">Model Library</text><!--entity HVAC Systems Editor\n(SOEP Mode)--><rect fill="#FEFECE" filter="url(#fq476rv)" height="29.7429" style="stroke: #A80036; stroke-width: 0.7127610208816706;" width="87.9072" x="542.4111" y="453.5313"/><rect fill="#FEFECE" height="4.7517" style="stroke: #A80036; stroke-width: 0.7127610208816706;" width="7.1276" x="620.8148" y="455.9072"/><rect fill="#FEFECE" height="0.9503" style="stroke: #A80036; stroke-width: 0.7127610208816706;" width="1.9007" x="619.8645" y="456.8575"/><rect fill="#FEFECE" height="0.9503" style="stroke: #A80036; stroke-width: 0.7127610208816706;" width="1.9007" x="619.8645" y="458.7582"/><text fill="#000000" font-family="sans-serif" font-size="6.6524" lengthAdjust="spacingAndGlyphs" textLength="68.9002" x="549.5387" y="469.2097">HVAC Systems Editor</text><text fill="#000000" font-family="sans-serif" font-size="6.6524" lengthAdjust="spacingAndGlyphs" textLength="43.2408" x="562.3684" y="476.9536">(SOEP Mode)</text><!--entity SOEP\nSimulator Interface--><rect fill="#FEFECE" filter="url(#fq476rv)" height="29.7429" style="stroke: #A80036; stroke-width: 0.7127610208816706;" width="79.8292" x="446.1884" y="453.5313"/><rect fill="#FEFECE" height="4.7517" style="stroke: #A80036; stroke-width: 0.7127610208816706;" width="7.1276" x="516.5142" y="455.9072"/><rect fill="#FEFECE" height="0.9503" style="stroke: #A80036; stroke-width: 0.7127610208816706;" width="1.9007" x="515.5638" y="456.8575"/><rect fill="#FEFECE" height="0.9503" style="stroke: #A80036; stroke-width: 0.7127610208816706;" width="1.9007" x="515.5638" y="458.7582"/><text fill="#000000" font-family="sans-serif" font-size="6.6524" lengthAdjust="spacingAndGlyphs" textLength="18.0566" x="474.6988" y="469.2097">SOEP</text><text fill="#000000" font-family="sans-serif" font-size="6.6524" lengthAdjust="spacingAndGlyphs" textLength="60.8223" x="453.316" y="476.9536">Simulator Interface</text><!--entity mod_AST--><path d="M426.9439,570.4241 C426.9439,565.6724 449.5146,565.6724 449.5146,565.6724 C449.5146,565.6724 472.0854,565.6724 472.0854,570.4241 L472.0854,588.2877 C472.0854,593.0394 449.5146,593.0394 449.5146,593.0394 C449.5146,593.0394 426.9439,593.0394 426.9439,588.2877 L426.9439,570.4241 " fill="#FEFECE" filter="url(#fq476rv)" style="stroke: #000000; stroke-width: 0.7127610208816706;"/><path d="M426.9439,570.4241 C426.9439,575.1759 449.5146,575.1759 449.5146,575.1759 C449.5146,575.1759 472.0854,575.1759 472.0854,570.4241 " fill="none" style="stroke: #000000; stroke-width: 0.7127610208816706;"/><text fill="#000000" font-family="sans-serif" font-size="6.6524" lengthAdjust="spacingAndGlyphs" textLength="28.9856" x="435.0218" y="581.3508">Modelica</text><text fill="#000000" font-family="sans-serif" font-size="6.6524" lengthAdjust="spacingAndGlyphs" textLength="35.6381" x="431.6956" y="589.0947">Library AST</text><!--entity Modelica\nBuildings Library--><path d="M700.1689,570.4241 C700.1689,565.6724 731.2928,565.6724 731.2928,565.6724 C731.2928,565.6724 762.4167,565.6724 762.4167,570.4241 L762.4167,588.2877 C762.4167,593.0394 731.2928,593.0394 731.2928,593.0394 C731.2928,593.0394 700.1689,593.0394 700.1689,588.2877 L700.1689,570.4241 " fill="#FEFECE" filter="url(#fq476rv)" style="stroke: #000000; stroke-width: 0.7127610208816706;"/><path d="M700.1689,570.4241 C700.1689,575.1759 731.2928,575.1759 731.2928,575.1759 C731.2928,575.1759 762.4167,575.1759 762.4167,570.4241 " fill="none" style="stroke: #000000; stroke-width: 0.7127610208816706;"/><text fill="#000000" font-family="sans-serif" font-size="6.6524" lengthAdjust="spacingAndGlyphs" textLength="28.9856" x="716.8" y="581.3508">Modelica</text><text fill="#000000" font-family="sans-serif" font-size="6.6524" lengthAdjust="spacingAndGlyphs" textLength="52.7443" x="704.9206" y="589.0947">Buildings Library</text><!--entity Conversion Script--><rect fill="#FEFECE" filter="url(#fq476rv)" height="21.9991" style="stroke: #A80036; stroke-width: 0.7127610208816706;" width="76.503" x="18.2942" y="568.5234"/><rect fill="#FEFECE" height="4.7517" style="stroke: #A80036; stroke-width: 0.7127610208816706;" width="7.1276" x="85.2937" y="570.8993"/><rect fill="#FEFECE" height="0.9503" style="stroke: #A80036; stroke-width: 0.7127610208816706;" width="1.9007" x="84.3434" y="571.8497"/><rect fill="#FEFECE" height="0.9503" style="stroke: #A80036; stroke-width: 0.7127610208816706;" width="1.9007" x="84.3434" y="573.7503"/><text fill="#000000" font-family="sans-serif" font-size="6.6524" lengthAdjust="spacingAndGlyphs" textLength="57.4961" x="25.4218" y="584.2019">Conversion Script</text><!--entity JModelica--><rect fill="#FEFECE" filter="url(#fq476rv)" height="21.9991" style="stroke: #A80036; stroke-width: 0.7127610208816706;" width="49.4181" x="360.6571" y="568.5234"/><rect fill="#FEFECE" height="4.7517" style="stroke: #A80036; stroke-width: 0.7127610208816706;" width="7.1276" x="400.5717" y="570.8993"/><rect fill="#FEFECE" height="0.9503" style="stroke: #A80036; stroke-width: 0.7127610208816706;" width="1.9007" x="399.6213" y="571.8497"/><rect fill="#FEFECE" height="0.9503" style="stroke: #A80036; stroke-width: 0.7127610208816706;" width="1.9007" x="399.6213" y="573.7503"/><text fill="#000000" font-family="sans-serif" font-size="6.6524" lengthAdjust="spacingAndGlyphs" textLength="30.4111" x="367.7847" y="584.2019">JModelica</text><!--entity EnergyPlus.exe--><rect fill="#FEFECE" filter="url(#fq476rv)" height="21.9991" style="stroke: #A80036; stroke-width: 0.7127610208816706;" width="69.3754" x="331.1963" y="353.2696"/><rect fill="#FEFECE" height="4.7517" style="stroke: #A80036; stroke-width: 0.7127610208816706;" width="7.1276" x="391.0682" y="355.6455"/><rect fill="#FEFECE" height="0.9503" style="stroke: #A80036; stroke-width: 0.7127610208816706;" width="1.9007" x="390.1179" y="356.5958"/><rect fill="#FEFECE" height="0.9503" style="stroke: #A80036; stroke-width: 0.7127610208816706;" width="1.9007" x="390.1179" y="358.4965"/><text fill="#000000" font-family="sans-serif" font-size="6.6524" lengthAdjust="spacingAndGlyphs" textLength="50.3684" x="338.3239" y="368.948">EnergyPlus.exe</text><!--entity epdev--><ellipse cx="858.1643" cy="564.4845" fill="#FEFECE" filter="url(#fq476rv)" rx="3.8014" ry="3.8014" style="stroke: #A80036; stroke-width: 0.9503480278422274;"/><path d="M858.1643,568.2858 L858.1643,581.1155 M851.987,572.0872 L864.3415,572.0872 M858.1643,581.1155 L851.987,588.2432 M858.1643,581.1155 L864.3415,588.2432 " fill="#FEFECE" filter="url(#fq476rv)" style="stroke: #A80036; stroke-width: 0.9503480278422274;"/><text fill="#000000" font-family="sans-serif" font-size="6.6524" lengthAdjust="spacingAndGlyphs" textLength="33.7374" x="841.2956" y="597.7443">Developer</text><!--entity modev--><ellipse cx="56.5457" cy="640.5123" fill="#FEFECE" filter="url(#fq476rv)" rx="3.8014" ry="3.8014" style="stroke: #A80036; stroke-width: 0.9503480278422274;"/><path d="M56.5457,644.3137 L56.5457,657.1434 M50.3684,648.1151 L62.723,648.1151 M56.5457,657.1434 L50.3684,664.271 M56.5457,657.1434 L62.723,664.271 " fill="#FEFECE" filter="url(#fq476rv)" style="stroke: #A80036; stroke-width: 0.9503480278422274;"/><text fill="#000000" font-family="sans-serif" font-size="6.6524" lengthAdjust="spacingAndGlyphs" textLength="59.3968" x="26.8473" y="673.7722">Developer or User</text><!--entity budev--><ellipse cx="731.2928" cy="640.5123" fill="#FEFECE" filter="url(#fq476rv)" rx="3.8014" ry="3.8014" style="stroke: #A80036; stroke-width: 0.9503480278422274;"/><path d="M731.2928,644.3137 L731.2928,657.1434 M725.1155,648.1151 L737.4701,648.1151 M731.2928,657.1434 L725.1155,664.271 M731.2928,657.1434 L737.4701,664.271 " fill="#FEFECE" filter="url(#fq476rv)" style="stroke: #A80036; stroke-width: 0.9503480278422274;"/><text fill="#000000" font-family="sans-serif" font-size="6.6524" lengthAdjust="spacingAndGlyphs" textLength="33.7374" x="714.4241" y="673.7722">Developer</text><!--entity mouse--><ellipse cx="346.4019" cy="727.9443" fill="#FEFECE" filter="url(#fq476rv)" rx="3.8014" ry="3.8014" style="stroke: #A80036; stroke-width: 0.9503480278422274;"/><path d="M346.4019,731.7457 L346.4019,744.5754 M340.2246,735.5471 L352.5791,735.5471 M346.4019,744.5754 L340.2246,751.703 M346.4019,744.5754 L352.5791,751.703 " fill="#FEFECE" filter="url(#fq476rv)" style="stroke: #A80036; stroke-width: 0.9503480278422274;"/><text fill="#000000" font-family="sans-serif" font-size="6.6524" lengthAdjust="spacingAndGlyphs" textLength="15.2056" x="338.7991" y="761.2042">User</text><!--entity User-Provided\nModelica Library--><path d="M354.7174,646.452 C354.7174,641.7002 385.3661,641.7002 385.3661,641.7002 C385.3661,641.7002 416.0148,641.7002 416.0148,646.452 L416.0148,664.3155 C416.0148,669.0673 385.3661,669.0673 385.3661,669.0673 C385.3661,669.0673 354.7174,669.0673 354.7174,664.3155 L354.7174,646.452 " fill="#FEFECE" filter="url(#fq476rv)" style="stroke: #000000; stroke-width: 0.7127610208816706;"/><path d="M354.7174,646.452 C354.7174,651.2037 385.3661,651.2037 385.3661,651.2037 C385.3661,651.2037 416.0148,651.2037 416.0148,646.452 " fill="none" style="stroke: #000000; stroke-width: 0.7127610208816706;"/><text fill="#000000" font-family="sans-serif" font-size="6.6524" lengthAdjust="spacingAndGlyphs" textLength="46.0919" x="362.3202" y="657.3787">User-Provided</text><text fill="#000000" font-family="sans-serif" font-size="6.6524" lengthAdjust="spacingAndGlyphs" textLength="51.794" x="359.4691" y="665.1225">Modelica Library</text><!--entity Application--><rect fill="#FEFECE" filter="url(#fq476rv)" height="21.9991" style="stroke: #A80036; stroke-width: 0.7127610208816706;" width="54.645" x="308.1503" y="13.9954"/><rect fill="#FEFECE" height="4.7517" style="stroke: #A80036; stroke-width: 0.7127610208816706;" width="7.1276" x="353.2919" y="16.3712"/><rect fill="#FEFECE" height="0.9503" style="stroke: #A80036; stroke-width: 0.7127610208816706;" width="1.9007" x="352.3415" y="17.3216"/><rect fill="#FEFECE" height="0.9503" style="stroke: #A80036; stroke-width: 0.7127610208816706;" width="1.9007" x="352.3415" y="19.2223"/><text fill="#000000" font-family="sans-serif" font-size="6.6524" lengthAdjust="spacingAndGlyphs" textLength="35.6381" x="315.278" y="29.6738">Application</text><!--entity Measures--><rect fill="#FEFECE" filter="url(#fq476rv)" height="21.9991" style="stroke: #A80036; stroke-width: 0.7127610208816706;" width="51.3188" x="486.5782" y="13.9954"/><rect fill="#FEFECE" height="4.7517" style="stroke: #A80036; stroke-width: 0.7127610208816706;" width="7.1276" x="528.3935" y="16.3712"/><rect fill="#FEFECE" height="0.9503" style="stroke: #A80036; stroke-width: 0.7127610208816706;" width="1.9007" x="527.4432" y="17.3216"/><rect fill="#FEFECE" height="0.9503" style="stroke: #A80036; stroke-width: 0.7127610208816706;" width="1.9007" x="527.4432" y="19.2223"/><text fill="#000000" font-family="sans-serif" font-size="6.6524" lengthAdjust="spacingAndGlyphs" textLength="32.3118" x="493.7058" y="29.6738">Measures</text><polygon fill="#FBFB77" filter="url(#fq476rv)" points="298.8845,458.9958,298.8845,478.129,419.5787,478.129,419.5787,463.7476,414.8269,458.9958,298.8845,458.9958" style="stroke: #A80036; stroke-width: 0.4751740139211137;"/><line style="stroke: #A80036; stroke-width: 0.4751740139211137;" x1="414.8269" x2="414.8269" y1="458.9958" y2="463.7476"/><line style="stroke: #A80036; stroke-width: 0.4751740139211137;" x1="419.5787" x2="414.8269" y1="463.7476" y2="463.7476"/><text fill="#000000" font-family="sans-serif" font-size="6.1773" lengthAdjust="spacingAndGlyphs" textLength="110.7155" x="301.7355" y="467.1056">Used as an intermediate format and</text><text fill="#000000" font-family="sans-serif" font-size="6.1773" lengthAdjust="spacingAndGlyphs" textLength="94.5596" x="301.7355" y="474.2963">to verify incompatible changes.</text><polygon fill="#FBFB77" filter="url(#fq476rv)" points="370.8733,711.7884,370.8733,774.0659,477.7875,774.0659,477.7875,716.5401,473.0357,711.7884,370.8733,711.7884" style="stroke: #A80036; stroke-width: 0.4751740139211137;"/><line style="stroke: #A80036; stroke-width: 0.4751740139211137;" x1="473.0357" x2="473.0357" y1="711.7884" y2="716.5401"/><line style="stroke: #A80036; stroke-width: 0.4751740139211137;" x1="477.7875" x2="473.0357" y1="716.5401" y2="716.5401"/><text fill="#000000" font-family="sans-serif" font-size="6.1773" lengthAdjust="spacingAndGlyphs" textLength="74.6023" x="373.7244" y="719.8981">Allows companies to use</text><text fill="#000000" font-family="sans-serif" font-size="6.1773" lengthAdjust="spacingAndGlyphs" textLength="81.7299" x="373.7244" y="727.0889">their own Modelica libraries</text><text fill="#000000" font-family="sans-serif" font-size="6.1773" lengthAdjust="spacingAndGlyphs" textLength="96.9355" x="373.7244" y="734.2796">with custom HVAC systems and</text><text fill="#000000" font-family="sans-serif" font-size="6.1773" lengthAdjust="spacingAndGlyphs" textLength="65.574" x="373.7244" y="741.4703">control sequences, or</text><text fill="#000000" font-family="sans-serif" font-size="6.1773" lengthAdjust="spacingAndGlyphs" textLength="76.503" x="373.7244" y="748.661">to integrate an electronic</text><text fill="#000000" font-family="sans-serif" font-size="6.1773" lengthAdjust="spacingAndGlyphs" textLength="70.8009" x="373.7244" y="755.8517">equipment catalog or a</text><text fill="#000000" font-family="sans-serif" font-size="6.1773" lengthAdjust="spacingAndGlyphs" textLength="89.3327" x="373.7244" y="763.0425">library used for an equipment</text><text fill="#000000" font-family="sans-serif" font-size="6.1773" lengthAdjust="spacingAndGlyphs" textLength="30.8863" x="373.7244" y="770.2332">sales tool.</text><polygon fill="#FBFB77" filter="url(#fq476rv)" points="395.82,15.4209,395.82,34.5541,469.9471,34.5541,469.9471,20.1726,465.1954,15.4209,395.82,15.4209" style="stroke: #A80036; stroke-width: 0.4751740139211137;"/><polygon fill="#FBFB77" points="395.82,15.4209,395.82,23.0237,362.8696,24.9244,395.82,26.8251,395.82,34.5541,469.9471,34.5541,469.9471,20.1726,465.1954,15.4209,395.82,15.4209" style="stroke: #A80036; stroke-width: 0.4751740139211137;"/><line style="stroke: #A80036; stroke-width: 0.4751740139211137;" x1="465.1954" x2="465.1954" y1="15.4209" y2="20.1726"/><line style="stroke: #A80036; stroke-width: 0.4751740139211137;" x1="469.9471" x2="465.1954" y1="20.1726" y2="20.1726"/><text fill="#000000" font-family="sans-serif" font-size="6.1773" lengthAdjust="spacingAndGlyphs" textLength="63.6733" x="398.671" y="23.5306">Application that uses</text><text fill="#000000" font-family="sans-serif" font-size="6.1773" lengthAdjust="spacingAndGlyphs" textLength="64.1485" x="398.671" y="30.7213">the OpenStudio SDK.</text><path d="M464.5633,102.3777 C553.2058,102.3777 641.8482,102.3777 730.4906,102.3777 " fill="none" style="stroke: #A80036; stroke-width: 0.4751740139211137;"/><path d="M765.3229,105.5641 C794.2609,111.3647 849.136,124.7131 849.136,142.5299 C849.136,142.5299 849.136,142.5299 849.136,364.1986 C849.136,395.4618 853.2119,431.8005 855.8864,452.2801 " fill="none" style="stroke: #A80036; stroke-width: 0.4751740139211137;"/><polygon fill="#A80036" points="856.2053,454.6976,857.5303,450.2092,855.8945,452.3422,853.7615,450.7064,856.2053,454.6976" style="stroke: #A80036; stroke-width: 0.4751740139211137;"/><text fill="#000000" font-family="sans-serif" font-size="6.1773" lengthAdjust="spacingAndGlyphs" textLength="30.8863" x="849.6111" y="236.8838">integrates</text><path d="M765.4028,104.3118 C811.6535,109.664 933.7169,125.411 933.7169,142.5299 C933.7169,142.5299 933.7169,142.5299 933.7169,364.1986 C933.7169,394.9184 938.6661,430.4276 942.0436,451.0845 " fill="none" style="stroke: #A80036; stroke-width: 0.4751740139211137;"/><polygon fill="#A80036" points="942.4474,453.5287,943.6257,448.9995,942.0602,451.1846,939.8751,449.619,942.4474,453.5287" style="stroke: #A80036; stroke-width: 0.4751740139211137;"/><text fill="#000000" font-family="sans-serif" font-size="6.1773" lengthAdjust="spacingAndGlyphs" textLength="30.8863" x="934.1921" y="236.8838">integrates</text><path d="M756.6393,113.4589 C761.8265,121.1621 767.406,131.915 767.406,142.5299 C767.406,142.5299 767.406,142.5299 767.406,364.1986 C767.406,394.8278 770.9117,430.3658 773.3041,451.0528 " fill="none" style="stroke: #A80036; stroke-width: 0.4751740139211137;"/><polygon fill="#A80036" points="773.5901,453.5007,774.9816,449.0324,773.3143,451.1409,771.2059,449.4736,773.5901,453.5007" style="stroke: #A80036; stroke-width: 0.4751740139211137;"/><text fill="#000000" font-family="sans-serif" font-size="6.1773" lengthAdjust="spacingAndGlyphs" textLength="30.8863" x="767.8812" y="236.8838">integrates</text><path d="M730.5524,105.8601 C712.2816,110.6541 686.1513,121.2332 686.1513,142.5299 C686.1513,142.5299 686.1513,142.5299 686.1513,364.1986 C686.1513,396.9427 682.1448,435.2969 679.775,455.1191 " fill="none" style="stroke: #A80036; stroke-width: 0.4751740139211137;"/><polygon fill="#A80036" points="679.4804,457.5589,681.8802,453.5411,679.7653,455.2002,678.1063,453.0853,679.4804,457.5589" style="stroke: #A80036; stroke-width: 0.4751740139211137;"/><text fill="#000000" font-family="sans-serif" font-size="6.1773" lengthAdjust="spacingAndGlyphs" textLength="30.8863" x="686.6265" y="236.8838">integrates</text><path d="M730.4813,103.4199 C691.2915,106.2385 599.6696,115.6974 599.6696,142.5299 C599.6696,142.5299 599.6696,142.5299 599.6696,364.1986 C599.6696,394.8961 593.9285,430.2701 589.9888,450.9306 " fill="none" style="stroke: #A80036; stroke-width: 0.4751740139211137;"/><polygon fill="#A80036" points="589.5178,453.3759,592.1931,449.5361,589.9672,451.043,588.4603,448.8171,589.5178,453.3759" style="stroke: #A80036; stroke-width: 0.4751740139211137;"/><text fill="#000000" font-family="sans-serif" font-size="6.1773" lengthAdjust="spacingAndGlyphs" textLength="30.8863" x="600.1448" y="236.8838">integrates</text><path d="M730.4536,104.4071 C675.5858,110.896 510.3369,131.3659 510.3369,142.5299 C510.3369,142.5299 510.3369,142.5299 510.3369,364.1986 C510.3369,395.4345 499.8972,430.5989 492.7219,451.0789 " fill="none" style="stroke: #A80036; stroke-width: 0.4751740139211137;"/><polygon fill="#A80036" points="491.9076,453.3803,495.126,449.9826,492.7002,451.1405,491.5423,448.7146,491.9076,453.3803" style="stroke: #A80036; stroke-width: 0.4751740139211137;"/><text fill="#000000" font-family="sans-serif" font-size="6.1773" lengthAdjust="spacingAndGlyphs" textLength="30.8863" x="510.8121" y="236.8838">integrates</text><path d="M670.8792,479.5111 C660.949,493.834 641.6911,518.6453 619.1517,532.4102 C572.9207,560.6438 509.388,572.3321 474.6737,576.8516 " fill="none" style="stroke: #A80036; stroke-width: 0.4751740139211137;"/><polygon fill="#A80036" points="472.2247,577.1647,476.7078,578.5076,474.5814,576.8633,476.2256,574.7369,472.2247,577.1647" style="stroke: #A80036; stroke-width: 0.4751740139211137;"/><text fill="#000000" font-family="sans-serif" font-size="6.1773" lengthAdjust="spacingAndGlyphs" textLength="34.6877" x="644.8111" y="519.8499">parses json</text><text fill="#000000" font-family="sans-serif" font-size="6.1773" lengthAdjust="spacingAndGlyphs" textLength="11.8794" x="656.2153" y="527.0406">AST</text><path d="M585.6917,483.4855 C584.2874,497.7196 580.1044,518.8975 567.8329,532.4102 C543.3812,559.3352 501.4855,571.0823 474.6693,576.0394 " fill="none" style="stroke: #A80036; stroke-width: 0.4751740139211137; stroke-dasharray: 7.0,7.0;"/><polygon fill="#A80036" points="472.2834,576.4699,476.8295,577.5809,474.6215,576.048,476.1544,573.8399,472.2834,576.4699" style="stroke: #A80036; stroke-width: 0.4751740139211137;"/><text fill="#000000" font-family="sans-serif" font-size="6.1773" lengthAdjust="spacingAndGlyphs" textLength="34.6877" x="580.1875" y="519.8499">parses json</text><text fill="#000000" font-family="sans-serif" font-size="6.1773" lengthAdjust="spacingAndGlyphs" textLength="11.8794" x="591.5916" y="527.0406">AST</text><path d="M94.9091,579.4524 C162.1654,579.4524 299.7517,579.4524 358.1665,579.4524 " fill="none" style="stroke: #A80036; stroke-width: 0.4751740139211137; stroke-dasharray: 7.0,7.0;"/><polygon fill="#A80036" points="360.5495,579.4524,356.273,577.5517,358.1737,579.4524,356.273,581.3531,360.5495,579.4524" style="stroke: #A80036; stroke-width: 0.4751740139211137;"/><text fill="#000000" font-family="sans-serif" font-size="6.1773" lengthAdjust="spacingAndGlyphs" textLength="20.4325" x="217.5109" y="569.0304">parses</text><text fill="#000000" font-family="sans-serif" font-size="6.1773" lengthAdjust="spacingAndGlyphs" textLength="11.8794" x="221.7875" y="576.2211">AST</text><path d="M469.9755,483.5525 C455.9253,496.927 435.2554,517.2413 418.6283,536.2116 C410.0386,546.0118 401.0736,557.7687 394.6182,566.5478 " fill="none" style="stroke: #A80036; stroke-width: 0.4751740139211137; stroke-dasharray: 7.0,7.0;"/><polygon fill="#A80036" points="393.1978,568.4865,397.2585,566.1601,394.602,566.57,394.1921,563.9134,393.1978,568.4865" style="stroke: #A80036; stroke-width: 0.4751740139211137;"/><text fill="#000000" font-family="sans-serif" font-size="6.1773" lengthAdjust="spacingAndGlyphs" textLength="39.9146" x="446.1884" y="516.2861">writes inputs,</text><text fill="#000000" font-family="sans-serif" font-size="6.1773" lengthAdjust="spacingAndGlyphs" textLength="48.4677" x="441.9118" y="523.4768">runs simulation,</text><text fill="#000000" font-family="sans-serif" font-size="6.1773" lengthAdjust="spacingAndGlyphs" textLength="42.2905" x="445.0005" y="530.6675">reads outputs</text><path d="M87.8806,568.475 C124.8685,556.1481 188.4978,536.9076 244.9522,529.5592 C296.535,522.8449 381.1461,515.7979 418.6283,536.2116 C429.4746,542.1188 437.4235,553.673 442.5391,563.3525 " fill="none" style="stroke: #A80036; stroke-width: 0.4751740139211137;"/><polygon fill="#A80036" points="443.6512,565.5133,443.3841,560.841,442.5639,563.4008,440.0041,562.5806,443.6512,565.5133" style="stroke: #A80036; stroke-width: 0.4751740139211137;"/><text fill="#000000" font-family="sans-serif" font-size="6.1773" lengthAdjust="spacingAndGlyphs" textLength="30.8863" x="245.4274" y="523.4137">generates</text><path d="M390.435,568.3568 C395.8184,558.0172 405.3847,543.1788 418.6283,536.2116 C477.094,505.454 501.7751,519.849 567.1202,529.5592 C613.5922,536.4648 665.115,553.7985 697.827,566.0904 " fill="none" style="stroke: #A80036; stroke-width: 0.4751740139211137;"/><polygon fill="#A80036" points="700.1494,566.9664,696.819,563.6786,697.9265,566.1278,695.4772,567.2353,700.1494,566.9664" style="stroke: #A80036; stroke-width: 0.4751740139211137;"/><text fill="#000000" font-family="sans-serif" font-size="6.1773" lengthAdjust="spacingAndGlyphs" textLength="23.2835" x="543.3615" y="523.4137">imports</text><path d="M858.1643,484.8011 C858.1643,504.6838 858.1643,538.2757 858.1643,559.6327 " fill="none" style="stroke: #A80036; stroke-width: 0.4751740139211137; stroke-dasharray: 7.0,7.0;"/><polygon fill="#A80036" points="858.1643,482.3272,856.2636,486.6038,858.1643,484.7031,860.065,486.6038,858.1643,482.3272" style="stroke: #A80036; stroke-width: 0.4751740139211137;"/><text fill="#000000" font-family="sans-serif" font-size="6.1773" lengthAdjust="spacingAndGlyphs" textLength="24.709" x="858.6394" y="523.4137">updates</text><path d="M56.5457,592.9536 C56.5457,604.8284 56.5457,622.2677 56.5457,635.7138 " fill="none" style="stroke: #A80036; stroke-width: 0.4751740139211137; stroke-dasharray: 7.0,7.0;"/><polygon fill="#A80036" points="56.5457,590.5075,54.645,594.7841,56.5457,592.8834,58.4464,594.7841,56.5457,590.5075" style="stroke: #A80036; stroke-width: 0.4751740139211137;"/><text fill="#000000" font-family="sans-serif" font-size="6.1773" lengthAdjust="spacingAndGlyphs" textLength="22.8084" x="57.0209" y="619.6364">invokes</text><path d="M731.2928,595.8304 C731.2928,607.5385 731.2928,623.3514 731.2928,635.7544 " fill="none" style="stroke: #A80036; stroke-width: 0.4751740139211137; stroke-dasharray: 7.0,7.0;"/><polygon fill="#A80036" points="731.2928,593.3971,729.3921,597.6737,731.2928,595.773,733.1935,597.6737,731.2928,593.3971" style="stroke: #A80036; stroke-width: 0.4751740139211137;"/><text fill="#000000" font-family="sans-serif" font-size="6.1773" lengthAdjust="spacingAndGlyphs" textLength="52.7443" x="731.768" y="619.6364">adds annotations</text><path d="M370.2855,671.3214 C365.8415,676.7232 361.3522,683.03 358.2812,689.4552 C353.2386,700.0058 350.2992,712.7586 348.6061,723.1617 " fill="none" style="stroke: #A80036; stroke-width: 0.4751740139211137; stroke-dasharray: 7.0,7.0;"/><polygon fill="#A80036" points="371.918,669.3737,367.7142,671.4303,370.3919,671.1946,370.6276,673.8722,371.918,669.3737" style="stroke: #A80036; stroke-width: 0.4751740139211137;"/><text fill="#000000" font-family="sans-serif" font-size="6.1773" lengthAdjust="spacingAndGlyphs" textLength="52.7443" x="358.7564" y="695.6643">adds annotations</text><path d="M352.9789,35.8573 C380.6327,53.1277 433.2442,85.9847 452.3411,97.911 " fill="none" style="stroke: #A80036; stroke-width: 0.4751740139211137; stroke-dasharray: 7.0,7.0;"/><polygon fill="#A80036" points="454.5,99.2593,451.8795,95.3818,452.4848,98.0008,449.8658,98.6061,454.5,99.2593" style="stroke: #A80036; stroke-width: 0.4751740139211137;"/><text fill="#000000" font-family="sans-serif" font-size="6.1773" lengthAdjust="spacingAndGlyphs" textLength="14.2552" x="386.7916" y="56.3176">uses</text><path d="M504.7925,35.8573 C494.3994,51.1192 475.7172,78.5534 465.9076,92.9584 " fill="none" style="stroke: #A80036; stroke-width: 0.4751740139211137; stroke-dasharray: 7.0,7.0;"/><polygon fill="#A80036" points="464.5267,94.9863,468.5049,92.5214,465.8641,93.0225,465.3629,90.3816,464.5267,94.9863" style="stroke: #A80036; stroke-width: 0.4751740139211137;"/><text fill="#000000" font-family="sans-serif" font-size="6.1773" lengthAdjust="spacingAndGlyphs" textLength="14.2552" x="493.7058" y="56.3176">uses</text><path d="M385.3661,590.5075 C385.3661,603.2771 385.3661,624.4085 385.3661,639.091 " fill="none" style="stroke: #A80036; stroke-width: 0.4751740139211137;"/><polygon fill="#A80036" points="385.3661,641.5716,387.2668,637.295,385.3661,639.1957,383.4654,637.295,385.3661,641.5716" style="stroke: #A80036; stroke-width: 0.4751740139211137;"/><text fill="#000000" font-family="sans-serif" font-size="6.1773" lengthAdjust="spacingAndGlyphs" textLength="23.2835" x="385.8413" y="619.6364">imports</text><path d="M319.0381,386.6237 C319.0588,386.6714 319.0795,386.719 319.1004,386.7666 C319.2676,387.1472 319.4409,387.5252 319.6205,387.8999 C319.9799,388.6494 320.3648,389.3856 320.7771,390.1029 C321.6016,391.5375 322.5356,392.8965 323.5935,394.1346 C340.9587,414.4568 351.7385,414.1655 377.7633,420.2691 C396.0894,424.5672 698.7465,417.9951 716.5624,424.0705 C733.7812,429.9424 750.0268,442.9699 761.0809,453.4082 " fill="none" style="stroke: #A80036; stroke-width: 0.4751740139211137; stroke-dasharray: 7.0,7.0;"/><polygon fill="#A80036" points="319.0381,386.6237,318.9984,391.3035,319.9846,388.8029,322.4851,389.789,319.0381,386.6237" style="stroke: #A80036; stroke-width: 0.4751740139211137;"/><text fill="#000000" font-family="sans-serif" font-size="6.1773" lengthAdjust="spacingAndGlyphs" textLength="39.9146" x="382.5151" y="404.145">writes inputs,</text><text fill="#000000" font-family="sans-serif" font-size="6.1773" lengthAdjust="spacingAndGlyphs" textLength="48.4677" x="378.2385" y="411.3357">runs simulation,</text><text fill="#000000" font-family="sans-serif" font-size="6.1773" lengthAdjust="spacingAndGlyphs" textLength="42.2905" x="381.3271" y="418.5265">reads outputs</text><path d="M389.6103,478.0606 C405.5461,484.6049 424.0371,494.8939 435.2594,510.077 C447.3186,526.3925 449.7546,550.4962 449.9628,565.5709 " fill="none" style="stroke: #A80036; stroke-width: 0.4751740139211137; stroke-dasharray: 7.0,7.0;"/><path d="M399.7848,669.3825 C404.9691,675.1333 410.3916,682.1598 413.8766,689.4552 C417.1578,696.3242 419.4092,704.1592 420.9539,711.6733 " fill="none" style="stroke: #A80036; stroke-width: 0.4751740139211137; stroke-dasharray: 7.0,7.0;"/></g></svg>