<?xml version="1.0" encoding="UTF-8" standalone="no"?><svg xmlns="http://www.w3.org/2000/svg" xmlns:xlink="http://www.w3.org/1999/xlink" contentScriptType="application/ecmascript" contentStyleType="text/css" height="584px" preserveAspectRatio="none" style="width:605px;height:584px;" version="1.1" viewBox="0 0 605 584" width="605px" zoomAndPan="magnify"><defs><filter height="300%" id="fi93ymx" width="300%" x="-1" y="-1"><feGaussianBlur result="blurOut" stdDeviation="2.0"/><feColorMatrix in="blurOut" result="blurOut2" type="matrix" values="0 0 0 0 0 0 0 0 0 0 0 0 0 0 0 0 0 0 .4 0"/><feOffset dx="4.0" dy="4.0" in="blurOut2" result="blurOut3"/><feBlend in="SourceGraphic" in2="blurOut3" mode="normal"/></filter></defs><g><text fill="#000000" font-family="sans-serif" font-size="14" font-weight="bold" lengthAdjust="spacingAndGlyphs" textLength="354" x="127.5" y="22.9951">Apply OpenStudio measure to set of models.</text><rect fill="#FFFFFF" filter="url(#fi93ymx)" height="247.9297" style="stroke: #000000; stroke-width: 2.0;" width="583" x="13" y="281.125"/><rect fill="#FFFFFF" height="146.5313" style="stroke: none; stroke-width: 1.0;" width="583" x="13" y="382.5234"/><rect fill="#FFFFFF" filter="url(#fi93ymx)" height="59.2656" style="stroke: #000000; stroke-width: 2.0;" width="563" x="23" y="391.5234"/><line style="stroke: #A80036; stroke-width: 1.0; stroke-dasharray: 5.0,5.0;" x1="72" x2="72" y1="68.5938" y2="546.0547"/><line style="stroke: #A80036; stroke-width: 1.0; stroke-dasharray: 5.0,5.0;" x1="218" x2="218" y1="68.5938" y2="546.0547"/><line style="stroke: #A80036; stroke-width: 1.0; stroke-dasharray: 5.0,5.0;" x1="366" x2="366" y1="68.5938" y2="546.0547"/><rect fill="#FEFECE" filter="url(#fi93ymx)" height="30.2969" style="stroke: #A80036; stroke-width: 1.5;" width="74" x="33" y="33.2969"/><text fill="#000000" font-family="sans-serif" font-size="14" lengthAdjust="spacingAndGlyphs" textLength="60" x="40" y="53.292">Measure</text><rect fill="#FEFECE" filter="url(#fi93ymx)" height="30.2969" style="stroke: #A80036; stroke-width: 1.5;" width="74" x="33" y="545.0547"/><text fill="#000000" font-family="sans-serif" font-size="14" lengthAdjust="spacingAndGlyphs" textLength="60" x="40" y="565.0498">Measure</text><rect fill="#FEFECE" filter="url(#fi93ymx)" height="30.2969" style="stroke: #A80036; stroke-width: 1.5;" width="190" x="121" y="33.2969"/><text fill="#000000" font-family="sans-serif" font-size="14" lengthAdjust="spacingAndGlyphs" textLength="176" x="128" y="53.292">OpenStudio Model Library</text><rect fill="#FEFECE" filter="url(#fi93ymx)" height="30.2969" style="stroke: #A80036; stroke-width: 1.5;" width="190" x="121" y="545.0547"/><text fill="#000000" font-family="sans-serif" font-size="14" lengthAdjust="spacingAndGlyphs" textLength="176" x="128" y="565.0498">OpenStudio Model Library</text><rect fill="#FEFECE" filter="url(#fi93ymx)" height="30.2969" style="stroke: #A80036; stroke-width: 1.5;" width="78" x="325" y="33.2969"/><text fill="#000000" font-family="sans-serif" font-size="14" lengthAdjust="spacingAndGlyphs" textLength="64" x="332" y="53.292">JModelica</text><rect fill="#FEFECE" filter="url(#fi93ymx)" height="30.2969" style="stroke: #A80036; stroke-width: 1.5;" width="78" x="325" y="545.0547"/><text fill="#000000" font-family="sans-serif" font-size="14" lengthAdjust="spacingAndGlyphs" textLength="64" x="332" y="565.0498">JModelica</text><polygon fill="#A80036" points="206,95.5938,216,99.5938,206,103.5938,210,99.5938" style="stroke: #A80036; stroke-width: 1.0;"/><line style="stroke: #A80036; stroke-width: 1.0;" x1="72" x2="212" y1="99.5938" y2="99.5938"/><text fill="#000000" font-family="sans-serif" font-size="13" lengthAdjust="spacingAndGlyphs" textLength="110" x="79" y="94.6606">getInstanceAST()</text><polygon fill="#A80036" points="354,124.7266,364,128.7266,354,132.7266,358,128.7266" style="stroke: #A80036; stroke-width: 1.0;"/><line style="stroke: #A80036; stroke-width: 1.0;" x1="218" x2="360" y1="128.7266" y2="128.7266"/><text fill="#000000" font-family="sans-serif" font-size="13" lengthAdjust="spacingAndGlyphs" textLength="110" x="225" y="123.7935">getInstanceAST()</text><polygon fill="#A80036" points="229,138.8594,219,142.8594,229,146.8594,225,142.8594" style="stroke: #A80036; stroke-width: 1.0;"/><line style="stroke: #A80036; stroke-width: 1.0;" x1="223" x2="365" y1="142.8594" y2="142.8594"/><polygon fill="#A80036" points="83,152.8594,73,156.8594,83,160.8594,79,156.8594" style="stroke: #A80036; stroke-width: 1.0;"/><line style="stroke: #A80036; stroke-width: 1.0;" x1="77" x2="217" y1="156.8594" y2="156.8594"/><line style="stroke: #A80036; stroke-width: 1.0;" x1="72" x2="114" y1="210.9922" y2="210.9922"/><line style="stroke: #A80036; stroke-width: 1.0;" x1="114" x2="114" y1="210.9922" y2="223.9922"/><line style="stroke: #A80036; stroke-width: 1.0;" x1="73" x2="114" y1="223.9922" y2="223.9922"/><polygon fill="#A80036" points="83,219.9922,73,223.9922,83,227.9922,79,223.9922" style="stroke: #A80036; stroke-width: 1.0;"/><text fill="#000000" font-family="sans-serif" font-size="13" lengthAdjust="spacingAndGlyphs" textLength="121" x="79" y="205.9263">searchParameter()</text><line style="stroke: #A80036; stroke-width: 1.0;" x1="72" x2="114" y1="253.125" y2="253.125"/><line style="stroke: #A80036; stroke-width: 1.0;" x1="114" x2="114" y1="253.125" y2="266.125"/><line style="stroke: #A80036; stroke-width: 1.0;" x1="73" x2="114" y1="266.125" y2="266.125"/><polygon fill="#A80036" points="83,262.125,73,266.125,83,270.125,79,266.125" style="stroke: #A80036; stroke-width: 1.0;"/><text fill="#000000" font-family="sans-serif" font-size="13" lengthAdjust="spacingAndGlyphs" textLength="60" x="79" y="248.0591">validate()</text><rect fill="none" height="247.9297" style="stroke: #000000; stroke-width: 2.0;" width="583" x="13" y="281.125"/><polygon fill="#EEEEEE" points="13,281.125,77,281.125,77,288.125,67,298.125,13,298.125,13,281.125" style="stroke: #000000; stroke-width: 2.0;"/><text fill="#000000" font-family="sans-serif" font-size="13" font-weight="bold" lengthAdjust="spacingAndGlyphs" textLength="19" x="28" y="294.1919">alt</text><text fill="#000000" font-family="sans-serif" font-size="11" font-weight="bold" lengthAdjust="spacingAndGlyphs" textLength="199" x="92" y="293.3354">[no non-final parameter found]</text><line style="stroke: #A80036; stroke-width: 1.0;" x1="72" x2="114" y1="319.3906" y2="319.3906"/><line style="stroke: #A80036; stroke-width: 1.0;" x1="114" x2="114" y1="319.3906" y2="332.3906"/><line style="stroke: #A80036; stroke-width: 1.0;" x1="73" x2="114" y1="332.3906" y2="332.3906"/><polygon fill="#A80036" points="83,328.3906,73,332.3906,83,336.3906,79,332.3906" style="stroke: #A80036; stroke-width: 1.0;"/><text fill="#000000" font-family="sans-serif" font-size="13" lengthAdjust="spacingAndGlyphs" textLength="80" x="79" y="314.3247">reportError()</text><line style="stroke: #A80036; stroke-width: 1.0;" x1="72" x2="114" y1="361.5234" y2="361.5234"/><line style="stroke: #A80036; stroke-width: 1.0;" x1="114" x2="114" y1="361.5234" y2="374.5234"/><line style="stroke: #A80036; stroke-width: 1.0;" x1="73" x2="114" y1="374.5234" y2="374.5234"/><polygon fill="#A80036" points="83,370.5234,73,374.5234,83,378.5234,79,374.5234" style="stroke: #A80036; stroke-width: 1.0;"/><text fill="#000000" font-family="sans-serif" font-size="13" lengthAdjust="spacingAndGlyphs" textLength="28" x="79" y="356.4575">stop</text><line style="stroke: #000000; stroke-width: 1.0; stroke-dasharray: 2.0,2.0;" x1="13" x2="596" y1="383.5234" y2="383.5234"/><rect fill="none" height="59.2656" style="stroke: #000000; stroke-width: 2.0;" width="563" x="23" y="391.5234"/><polygon fill="#EEEEEE" points="23,391.5234,87,391.5234,87,398.5234,77,408.5234,23,408.5234,23,391.5234" style="stroke: #000000; stroke-width: 2.0;"/><text fill="#000000" font-family="sans-serif" font-size="13" font-weight="bold" lengthAdjust="spacingAndGlyphs" textLength="19" x="38" y="404.5903">alt</text><text fill="#000000" font-family="sans-serif" font-size="11" font-weight="bold" lengthAdjust="spacingAndGlyphs" textLength="150" x="102" y="403.7339">[found final parameter]</text><line style="stroke: #A80036; stroke-width: 1.0;" x1="72" x2="114" y1="429.7891" y2="429.7891"/><line style="stroke: #A80036; stroke-width: 1.0;" x1="114" x2="114" y1="429.7891" y2="442.7891"/><line style="stroke: #A80036; stroke-width: 1.0;" x1="73" x2="114" y1="442.7891" y2="442.7891"/><polygon fill="#A80036" points="83,438.7891,73,442.7891,83,446.7891,79,442.7891" style="stroke: #A80036; stroke-width: 1.0;"/><text fill="#000000" font-family="sans-serif" font-size="13" lengthAdjust="spacingAndGlyphs" textLength="100" x="79" y="424.7231">reportWarning()</text><polygon fill="#FBFB77" filter="url(#fi93ymx)" points="191,415.1563,191,440.1563,567,440.1563,567,425.1563,557,415.1563,191,415.1563" style="stroke: #A80036; stroke-width: 1.0;"/><line style="stroke: #A80036; stroke-width: 1.0;" x1="557" x2="557" y1="415.1563" y2="425.1563"/><line style="stroke: #A80036; stroke-width: 1.0;" x1="567" x2="557" y1="425.1563" y2="425.1563"/><text fill="#000000" font-family="sans-serif" font-size="13" lengthAdjust="spacingAndGlyphs" textLength="355" x="197" y="432.2231">This alerts users that not all parameters have been set.</text><line style="stroke: #A80036; stroke-width: 1.0;" x1="72" x2="114" y1="478.9219" y2="478.9219"/><line style="stroke: #A80036; stroke-width: 1.0;" x1="114" x2="114" y1="478.9219" y2="491.9219"/><line style="stroke: #A80036; stroke-width: 1.0;" x1="73" x2="114" y1="491.9219" y2="491.9219"/><polygon fill="#A80036" points="83,487.9219,73,491.9219,83,495.9219,79,491.9219" style="stroke: #A80036; stroke-width: 1.0;"/><text fill="#000000" font-family="sans-serif" font-size="13" lengthAdjust="spacingAndGlyphs" textLength="113" x="79" y="473.856">getCodeSnippet()</text><polygon fill="#A80036" points="206,516.9219,216,520.9219,206,524.9219,210,520.9219" style="stroke: #A80036; stroke-width: 1.0;"/><line style="stroke: #A80036; stroke-width: 1.0;" x1="72" x2="212" y1="520.9219" y2="520.9219"/><text fill="#000000" font-family="sans-serif" font-size="13" lengthAdjust="spacingAndGlyphs" textLength="66" x="79" y="515.9888">setValue()</text></g></svg>