<?xml version="1.0" encoding="UTF-8" standalone="no"?><svg xmlns="http://www.w3.org/2000/svg" xmlns:xlink="http://www.w3.org/1999/xlink" contentScriptType="application/ecmascript" contentStyleType="text/css" height="550px" preserveAspectRatio="none" style="width:783px;height:550px;" version="1.1" viewBox="0 0 783 550" width="783px" zoomAndPan="magnify"><defs><filter height="300%" id="fik9cso" width="300%" x="-1" y="-1"><feGaussianBlur result="blurOut" stdDeviation="2.0"/><feColorMatrix in="blurOut" result="blurOut2" type="matrix" values="0 0 0 0 0 0 0 0 0 0 0 0 0 0 0 0 0 0 .4 0"/><feOffset dx="4.0" dy="4.0" in="blurOut2" result="blurOut3"/><feBlend in="SourceGraphic" in2="blurOut3" mode="normal"/></filter></defs><g><text fill="#000000" font-family="sans-serif" font-size="14" font-weight="bold" lengthAdjust="spacingAndGlyphs" textLength="296" x="248.25" y="23.5352">Modeling of an AHU with custom control</text><line style="stroke: #A80036; stroke-width: 1.0; stroke-dasharray: 5.0,5.0;" x1="32" x2="32" y1="68.9766" y2="511.7715"/><line style="stroke: #A80036; stroke-width: 1.0; stroke-dasharray: 5.0,5.0;" x1="248.5" x2="248.5" y1="68.9766" y2="511.7715"/><line style="stroke: #A80036; stroke-width: 1.0; stroke-dasharray: 5.0,5.0;" x1="564.5" x2="564.5" y1="68.9766" y2="511.7715"/><rect fill="#FEFECE" filter="url(#fik9cso)" height="30.4883" style="stroke: #A80036; stroke-width: 1.5;" width="45" x="8" y="33.4883"/><text fill="#000000" font-family="sans-serif" font-size="14" lengthAdjust="spacingAndGlyphs" textLength="31" x="15" y="54.0234">User</text><rect fill="#FEFECE" filter="url(#fik9cso)" height="30.4883" style="stroke: #A80036; stroke-width: 1.5;" width="45" x="8" y="510.7715"/><text fill="#000000" font-family="sans-serif" font-size="14" lengthAdjust="spacingAndGlyphs" textLength="31" x="15" y="531.3066">User</text><rect fill="#FEFECE" filter="url(#fik9cso)" height="30.4883" style="stroke: #A80036; stroke-width: 1.5;" width="150" x="171.5" y="33.4883"/><text fill="#000000" font-family="sans-serif" font-size="14" lengthAdjust="spacingAndGlyphs" textLength="136" x="178.5" y="54.0234">HVAC System Editor</text><rect fill="#FEFECE" filter="url(#fik9cso)" height="30.4883" style="stroke: #A80036; stroke-width: 1.5;" width="150" x="171.5" y="510.7715"/><text fill="#000000" font-family="sans-serif" font-size="14" lengthAdjust="spacingAndGlyphs" textLength="136" x="178.5" y="531.3066">HVAC System Editor</text><rect fill="#FEFECE" filter="url(#fik9cso)" height="30.4883" style="stroke: #A80036; stroke-width: 1.5;" width="128" x="498.5" y="33.4883"/><text fill="#000000" font-family="sans-serif" font-size="14" lengthAdjust="spacingAndGlyphs" textLength="114" x="505.5" y="54.0234">Schematic Editor</text><rect fill="#FEFECE" filter="url(#fik9cso)" height="30.4883" style="stroke: #A80036; stroke-width: 1.5;" width="128" x="498.5" y="510.7715"/><text fill="#000000" font-family="sans-serif" font-size="14" lengthAdjust="spacingAndGlyphs" textLength="114" x="505.5" y="531.3066">Schematic Editor</text><polygon fill="#A80036" points="236.5,95.9766,246.5,99.9766,236.5,103.9766,240.5,99.9766" style="stroke: #A80036; stroke-width: 1.0;"/><line style="stroke: #A80036; stroke-width: 1.0;" x1="32.5" x2="242.5" y1="99.9766" y2="99.9766"/><text fill="#000000" font-family="sans-serif" font-size="13" lengthAdjust="spacingAndGlyphs" textLength="92" x="39.5" y="95.5449">setSOEPMode()</text><polygon fill="#A80036" points="43.5,110.2871,33.5,114.2871,43.5,118.2871,39.5,114.2871" style="stroke: #A80036; stroke-width: 1.0;"/><line style="stroke: #A80036; stroke-width: 1.0;" x1="37.5" x2="247.5" y1="114.2871" y2="114.2871"/><polygon fill="#A80036" points="236.5,139.2871,246.5,143.2871,236.5,147.2871,240.5,143.2871" style="stroke: #A80036; stroke-width: 1.0;"/><line style="stroke: #A80036; stroke-width: 1.0;" x1="32.5" x2="242.5" y1="143.2871" y2="143.2871"/><text fill="#000000" font-family="sans-serif" font-size="13" lengthAdjust="spacingAndGlyphs" textLength="149" x="39.5" y="138.8555">drag &amp; drop AHU model</text><line style="stroke: #A80036; stroke-width: 1.0;" x1="248.5" x2="290.5" y1="197.9082" y2="197.9082"/><line style="stroke: #A80036; stroke-width: 1.0;" x1="290.5" x2="290.5" y1="197.9082" y2="210.9082"/><line style="stroke: #A80036; stroke-width: 1.0;" x1="249.5" x2="290.5" y1="210.9082" y2="210.9082"/><polygon fill="#A80036" points="259.5,206.9082,249.5,210.9082,259.5,214.9082,255.5,210.9082" style="stroke: #A80036; stroke-width: 1.0;"/><text fill="#000000" font-family="sans-serif" font-size="13" lengthAdjust="spacingAndGlyphs" textLength="117" x="255.5" y="193.166">instantiates model</text><polygon fill="#A80036" points="43.5,220.9082,33.5,224.9082,43.5,228.9082,39.5,224.9082" style="stroke: #A80036; stroke-width: 1.0;"/><line style="stroke: #A80036; stroke-width: 1.0;" x1="37.5" x2="247.5" y1="224.9082" y2="224.9082"/><polygon fill="#A80036" points="236.5,249.9082,246.5,253.9082,236.5,257.9082,240.5,253.9082" style="stroke: #A80036; stroke-width: 1.0;"/><line style="stroke: #A80036; stroke-width: 1.0;" x1="32.5" x2="242.5" y1="253.9082" y2="253.9082"/><text fill="#000000" font-family="sans-serif" font-size="13" lengthAdjust="spacingAndGlyphs" textLength="192" x="39.5" y="249.4766">select "Edit in Modelica editor"</text><polygon fill="#A80036" points="43.5,264.2188,33.5,268.2188,43.5,272.2188,39.5,268.2188" style="stroke: #A80036; stroke-width: 1.0;"/><line style="stroke: #A80036; stroke-width: 1.0;" x1="37.5" x2="247.5" y1="268.2188" y2="268.2188"/><polygon fill="#A80036" points="552.5,293.2188,562.5,297.2188,552.5,301.2188,556.5,297.2188" style="stroke: #A80036; stroke-width: 1.0;"/><line style="stroke: #A80036; stroke-width: 1.0;" x1="32.5" x2="558.5" y1="297.2188" y2="297.2188"/><text fill="#000000" font-family="sans-serif" font-size="13" lengthAdjust="spacingAndGlyphs" textLength="108" x="39.5" y="292.7871">customize model</text><line style="stroke: #A80036; stroke-width: 1.0;" x1="564.5" x2="606.5" y1="326.8398" y2="326.8398"/><line style="stroke: #A80036; stroke-width: 1.0;" x1="606.5" x2="606.5" y1="326.8398" y2="339.8398"/><line style="stroke: #A80036; stroke-width: 1.0;" x1="565.5" x2="606.5" y1="339.8398" y2="339.8398"/><polygon fill="#A80036" points="575.5,335.8398,565.5,339.8398,575.5,343.8398,571.5,339.8398" style="stroke: #A80036; stroke-width: 1.0;"/><text fill="#000000" font-family="sans-serif" font-size="13" lengthAdjust="spacingAndGlyphs" textLength="211" x="571.5" y="322.0977">write Custom/ControlVAV.mo file</text><polygon fill="#A80036" points="43.5,349.8398,33.5,353.8398,43.5,357.8398,39.5,353.8398" style="stroke: #A80036; stroke-width: 1.0;"/><line style="stroke: #A80036; stroke-width: 1.0;" x1="37.5" x2="563.5" y1="353.8398" y2="353.8398"/><polygon fill="#A80036" points="552.5,403.8398,562.5,407.8398,552.5,411.8398,556.5,407.8398" style="stroke: #A80036; stroke-width: 1.0;"/><line style="stroke: #A80036; stroke-width: 1.0;" x1="32.5" x2="558.5" y1="407.8398" y2="407.8398"/><text fill="#000000" font-family="sans-serif" font-size="13" lengthAdjust="spacingAndGlyphs" textLength="188" x="39.5" y="403.4082">switch to HVAC System Editor</text><line style="stroke: #A80036; stroke-width: 1.0;" x1="248.5" x2="290.5" y1="437.4609" y2="437.4609"/><line style="stroke: #A80036; stroke-width: 1.0;" x1="290.5" x2="290.5" y1="437.4609" y2="450.4609"/><line style="stroke: #A80036; stroke-width: 1.0;" x1="249.5" x2="290.5" y1="450.4609" y2="450.4609"/><polygon fill="#A80036" points="259.5,446.4609,249.5,450.4609,259.5,454.4609,255.5,450.4609" style="stroke: #A80036; stroke-width: 1.0;"/><text fill="#000000" font-family="sans-serif" font-size="13" lengthAdjust="spacingAndGlyphs" textLength="302" x="255.5" y="432.7188">read Custom/ControlVAV.mo file to get new I/O</text><polygon fill="#A80036" points="236.5,475.4609,246.5,479.4609,236.5,483.4609,240.5,479.4609" style="stroke: #A80036; stroke-width: 1.0;"/><line style="stroke: #A80036; stroke-width: 1.0;" x1="32.5" x2="242.5" y1="479.4609" y2="479.4609"/><text fill="#000000" font-family="sans-serif" font-size="13" lengthAdjust="spacingAndGlyphs" textLength="191" x="39.5" y="475.0293">Connect new inputs &amp; outputs</text><polygon fill="#A80036" points="43.5,489.7715,33.5,493.7715,43.5,497.7715,39.5,493.7715" style="stroke: #A80036; stroke-width: 1.0;"/><line style="stroke: #A80036; stroke-width: 1.0;" x1="37.5" x2="247.5" y1="493.7715" y2="493.7715"/></g></svg>