<?xml version="1.0" encoding="UTF-8" standalone="no"?><svg xmlns="http://www.w3.org/2000/svg" xmlns:xlink="http://www.w3.org/1999/xlink" contentScriptType="application/ecmascript" contentStyleType="text/css" height="1299px" preserveAspectRatio="none" style="width:1813px;height:1299px;" version="1.1" viewBox="0 0 1813 1299" width="1813px" zoomAndPan="magnify"><defs><filter height="300%" id="foh55rr" width="300%" x="-1" y="-1"><feGaussianBlur result="blurOut" stdDeviation="2.0"/><feColorMatrix in="blurOut" result="blurOut2" type="matrix" values="0 0 0 0 0 0 0 0 0 0 0 0 0 0 0 0 0 0 .4 0"/><feOffset dx="4.0" dy="4.0" in="blurOut2" result="blurOut3"/><feBlend in="SourceGraphic" in2="blurOut3" mode="normal"/></filter></defs><g><text fill="#000000" font-family="sans-serif" font-size="18" lengthAdjust="spacingAndGlyphs" textLength="260" x="794" y="16.708">Overall software architecture</text><!--cluster OpenStudio--><polygon fill="#FFFFFF" filter="url(#foh55rr)" points="22,138.4531,120,138.4531,127,160.75,1224,160.75,1224,600.4531,22,600.4531,22,138.4531" style="stroke: #000000; stroke-width: 2.0;"/><line style="stroke: #000000; stroke-width: 2.0;" x1="22" x2="127" y1="160.75" y2="160.75"/><text fill="#000000" font-family="sans-serif" font-size="14" font-weight="bold" lengthAdjust="spacingAndGlyphs" textLength="92" x="26" y="153.4482">OpenStudio</text><!--cluster Legacy-Mode--><polygon fill="#FFFFFF" filter="url(#foh55rr)" points="635,462.4531,746,462.4531,753,484.75,1200,484.75,1200,576.4531,635,576.4531,635,462.4531" style="stroke: #000000; stroke-width: 2.0;"/><line style="stroke: #000000; stroke-width: 2.0;" x1="635" x2="753" y1="484.75" y2="484.75"/><text fill="#000000" font-family="sans-serif" font-size="14" font-weight="bold" lengthAdjust="spacingAndGlyphs" textLength="105" x="639" y="477.4482">Legacy-Mode</text><!--cluster SOEP-Mode--><polygon fill="#FFFFFF" filter="url(#foh55rr)" points="46,462.4531,142,462.4531,149,484.75,611,484.75,611,576.4531,46,576.4531,46,462.4531" style="stroke: #000000; stroke-width: 2.0;"/><line style="stroke: #000000; stroke-width: 2.0;" x1="46" x2="149" y1="484.75" y2="484.75"/><text fill="#000000" font-family="sans-serif" font-size="14" font-weight="bold" lengthAdjust="spacingAndGlyphs" textLength="90" x="50" y="477.4482">SOEP-Mode</text><!--cluster SOEP--><polygon fill="#FFFFFF" filter="url(#foh55rr)" points="666,664.4531,713,664.4531,720,686.75,1057,686.75,1057,1095.9531,666,1095.9531,666,664.4531" style="stroke: #000000; stroke-width: 2.0;"/><line style="stroke: #000000; stroke-width: 2.0;" x1="666" x2="720" y1="686.75" y2="686.75"/><text fill="#000000" font-family="sans-serif" font-size="14" font-weight="bold" lengthAdjust="spacingAndGlyphs" textLength="41" x="670" y="679.4482">SOEP</text><!--cluster EnergyPlus--><polygon fill="#FFFFFF" filter="url(#foh55rr)" points="1256,262.4531,1350,262.4531,1357,284.75,1806,284.75,1806,375.4531,1256,375.4531,1256,262.4531" style="stroke: #000000; stroke-width: 2.0;"/><line style="stroke: #000000; stroke-width: 2.0;" x1="1256" x2="1357" y1="284.75" y2="284.75"/><text fill="#000000" font-family="sans-serif" font-size="14" font-weight="bold" lengthAdjust="spacingAndGlyphs" textLength="88" x="1260" y="277.4482">EnergyPlus</text><!--entity API--><ellipse cx="638" cy="182.4531" fill="#FEFECE" filter="url(#foh55rr)" rx="8" ry="8" style="stroke: #A80036; stroke-width: 2.0;"/><text fill="#000000" font-family="sans-serif" font-size="14" lengthAdjust="spacingAndGlyphs" textLength="21" x="627.5" y="204.4482">API</text><!--entity Core--><rect fill="#FEFECE" filter="url(#foh55rr)" height="46.2969" style="stroke: #A80036; stroke-width: 1.5;" width="73" x="601.5" y="305.4531"/><rect fill="#FEFECE" height="10" style="stroke: #A80036; stroke-width: 1.5;" width="15" x="654.5" y="310.4531"/><rect fill="#FEFECE" height="2" style="stroke: #A80036; stroke-width: 1.5;" width="4" x="652.5" y="312.4531"/><rect fill="#FEFECE" height="2" style="stroke: #A80036; stroke-width: 1.5;" width="4" x="652.5" y="316.4531"/><text fill="#000000" font-family="sans-serif" font-size="14" lengthAdjust="spacingAndGlyphs" textLength="33" x="616.5" y="338.4482">Core</text><!--entity Legacy\nModel Library--><path d="M651,509.9531 C651,499.9531 706,499.9531 706,499.9531 C706,499.9531 761,499.9531 761,509.9531 L761,547.5469 C761,557.5469 706,557.5469 706,557.5469 C706,557.5469 651,557.5469 651,547.5469 L651,509.9531 " fill="#FEFECE" filter="url(#foh55rr)" style="stroke: #000000; stroke-width: 1.5;"/><path d="M651,509.9531 C651,519.9531 706,519.9531 706,519.9531 C706,519.9531 761,519.9531 761,509.9531 " fill="none" style="stroke: #000000; stroke-width: 1.5;"/><text fill="#000000" font-family="sans-serif" font-size="14" lengthAdjust="spacingAndGlyphs" textLength="48" x="682" y="532.9482">Legacy</text><text fill="#000000" font-family="sans-serif" font-size="14" lengthAdjust="spacingAndGlyphs" textLength="90" x="661" y="549.2451">Model Library</text><!--entity HVAC Systems Editor\n(Legacy Mode)--><rect fill="#FEFECE" filter="url(#foh55rr)" height="62.5938" style="stroke: #A80036; stroke-width: 1.5;" width="185" x="796.5" y="497.4531"/><rect fill="#FEFECE" height="10" style="stroke: #A80036; stroke-width: 1.5;" width="15" x="961.5" y="502.4531"/><rect fill="#FEFECE" height="2" style="stroke: #A80036; stroke-width: 1.5;" width="4" x="959.5" y="504.4531"/><rect fill="#FEFECE" height="2" style="stroke: #A80036; stroke-width: 1.5;" width="4" x="959.5" y="508.4531"/><text fill="#000000" font-family="sans-serif" font-size="14" lengthAdjust="spacingAndGlyphs" textLength="145" x="811.5" y="530.4482">HVAC Systems Editor</text><text fill="#000000" font-family="sans-serif" font-size="14" lengthAdjust="spacingAndGlyphs" textLength="101" x="833.5" y="546.7451">(Legacy Mode)</text><!--entity EnergyPlus\nSimulator Interface--><rect fill="#FEFECE" filter="url(#foh55rr)" height="62.5938" style="stroke: #A80036; stroke-width: 1.5;" width="168" x="1016" y="497.4531"/><rect fill="#FEFECE" height="10" style="stroke: #A80036; stroke-width: 1.5;" width="15" x="1164" y="502.4531"/><rect fill="#FEFECE" height="2" style="stroke: #A80036; stroke-width: 1.5;" width="4" x="1162" y="504.4531"/><rect fill="#FEFECE" height="2" style="stroke: #A80036; stroke-width: 1.5;" width="4" x="1162" y="508.4531"/><text fill="#000000" font-family="sans-serif" font-size="14" lengthAdjust="spacingAndGlyphs" textLength="77" x="1056.5" y="530.4482">EnergyPlus</text><text fill="#000000" font-family="sans-serif" font-size="14" lengthAdjust="spacingAndGlyphs" textLength="128" x="1031" y="546.7451">Simulator Interface</text><!--entity SOEP\nModel Library--><path d="M485,509.9531 C485,499.9531 540,499.9531 540,499.9531 C540,499.9531 595,499.9531 595,509.9531 L595,547.5469 C595,557.5469 540,557.5469 540,557.5469 C540,557.5469 485,557.5469 485,547.5469 L485,509.9531 " fill="#FEFECE" filter="url(#foh55rr)" style="stroke: #000000; stroke-width: 1.5;"/><path d="M485,509.9531 C485,519.9531 540,519.9531 540,519.9531 C540,519.9531 595,519.9531 595,509.9531 " fill="none" style="stroke: #000000; stroke-width: 1.5;"/><text fill="#000000" font-family="sans-serif" font-size="14" lengthAdjust="spacingAndGlyphs" textLength="38" x="521" y="532.9482">SOEP</text><text fill="#000000" font-family="sans-serif" font-size="14" lengthAdjust="spacingAndGlyphs" textLength="90" x="495" y="549.2451">Model Library</text><!--entity HVAC Systems Editor\n(SOEP Mode)--><rect fill="#FEFECE" filter="url(#foh55rr)" height="62.5938" style="stroke: #A80036; stroke-width: 1.5;" width="185" x="264.5" y="497.4531"/><rect fill="#FEFECE" height="10" style="stroke: #A80036; stroke-width: 1.5;" width="15" x="429.5" y="502.4531"/><rect fill="#FEFECE" height="2" style="stroke: #A80036; stroke-width: 1.5;" width="4" x="427.5" y="504.4531"/><rect fill="#FEFECE" height="2" style="stroke: #A80036; stroke-width: 1.5;" width="4" x="427.5" y="508.4531"/><text fill="#000000" font-family="sans-serif" font-size="14" lengthAdjust="spacingAndGlyphs" textLength="145" x="279.5" y="530.4482">HVAC Systems Editor</text><text fill="#000000" font-family="sans-serif" font-size="14" lengthAdjust="spacingAndGlyphs" textLength="91" x="306.5" y="546.7451">(SOEP Mode)</text><!--entity SOEP\nSimulator Interface--><rect fill="#FEFECE" filter="url(#foh55rr)" height="62.5938" style="stroke: #A80036; stroke-width: 1.5;" width="168" x="62" y="497.4531"/><rect fill="#FEFECE" height="10" style="stroke: #A80036; stroke-width: 1.5;" width="15" x="210" y="502.4531"/><rect fill="#FEFECE" height="2" style="stroke: #A80036; stroke-width: 1.5;" width="4" x="208" y="504.4531"/><rect fill="#FEFECE" height="2" style="stroke: #A80036; stroke-width: 1.5;" width="4" x="208" y="508.4531"/><text fill="#000000" font-family="sans-serif" font-size="14" lengthAdjust="spacingAndGlyphs" textLength="38" x="122" y="530.4482">SOEP</text><text fill="#000000" font-family="sans-serif" font-size="14" lengthAdjust="spacingAndGlyphs" textLength="128" x="77" y="546.7451">Simulator Interface</text><!--entity JModelica--><rect fill="#FEFECE" filter="url(#foh55rr)" height="46.2969" style="stroke: #A80036; stroke-width: 1.5;" width="104" x="700" y="880.4531"/><rect fill="#FEFECE" height="10" style="stroke: #A80036; stroke-width: 1.5;" width="15" x="784" y="885.4531"/><rect fill="#FEFECE" height="2" style="stroke: #A80036; stroke-width: 1.5;" width="4" x="782" y="887.4531"/><rect fill="#FEFECE" height="2" style="stroke: #A80036; stroke-width: 1.5;" width="4" x="782" y="891.4531"/><text fill="#000000" font-family="sans-serif" font-size="14" lengthAdjust="spacingAndGlyphs" textLength="64" x="715" y="913.4482">JModelica</text><!--entity Conversion Script--><rect fill="#FEFECE" filter="url(#foh55rr)" height="46.2969" style="stroke: #A80036; stroke-width: 1.5;" width="161" x="682.5" y="705.4531"/><rect fill="#FEFECE" height="10" style="stroke: #A80036; stroke-width: 1.5;" width="15" x="823.5" y="710.4531"/><rect fill="#FEFECE" height="2" style="stroke: #A80036; stroke-width: 1.5;" width="4" x="821.5" y="712.4531"/><rect fill="#FEFECE" height="2" style="stroke: #A80036; stroke-width: 1.5;" width="4" x="821.5" y="716.4531"/><text fill="#000000" font-family="sans-serif" font-size="14" lengthAdjust="spacingAndGlyphs" textLength="121" x="697.5" y="738.4482">Conversion Script</text><!--entity mod_AST--><path d="M945.5,709.4531 C945.5,699.4531 993,699.4531 993,699.4531 C993,699.4531 1040.5,699.4531 1040.5,709.4531 L1040.5,747.0469 C1040.5,757.0469 993,757.0469 993,757.0469 C993,757.0469 945.5,757.0469 945.5,747.0469 L945.5,709.4531 " fill="#FEFECE" filter="url(#foh55rr)" style="stroke: #000000; stroke-width: 1.5;"/><path d="M945.5,709.4531 C945.5,719.4531 993,719.4531 993,719.4531 C993,719.4531 1040.5,719.4531 1040.5,709.4531 " fill="none" style="stroke: #000000; stroke-width: 1.5;"/><text fill="#000000" font-family="sans-serif" font-size="14" lengthAdjust="spacingAndGlyphs" textLength="61" x="962.5" y="732.4482">Modelica</text><text fill="#000000" font-family="sans-serif" font-size="14" lengthAdjust="spacingAndGlyphs" textLength="75" x="955.5" y="748.7451">Library AST</text><!--entity Modelica\nBuildings Library--><path d="M686.5,1031.9531 C686.5,1021.9531 752,1021.9531 752,1021.9531 C752,1021.9531 817.5,1021.9531 817.5,1031.9531 L817.5,1069.5469 C817.5,1079.5469 752,1079.5469 752,1079.5469 C752,1079.5469 686.5,1079.5469 686.5,1069.5469 L686.5,1031.9531 " fill="#FEFECE" filter="url(#foh55rr)" style="stroke: #000000; stroke-width: 1.5;"/><path d="M686.5,1031.9531 C686.5,1041.9531 752,1041.9531 752,1041.9531 C752,1041.9531 817.5,1041.9531 817.5,1031.9531 " fill="none" style="stroke: #000000; stroke-width: 1.5;"/><text fill="#000000" font-family="sans-serif" font-size="14" lengthAdjust="spacingAndGlyphs" textLength="61" x="721.5" y="1054.9482">Modelica</text><text fill="#000000" font-family="sans-serif" font-size="14" lengthAdjust="spacingAndGlyphs" textLength="111" x="696.5" y="1071.2451">Buildings Library</text><!--entity in.idf--><rect fill="#FEFECE" filter="url(#foh55rr)" height="46.2969" style="stroke: #A80036; stroke-width: 1.5;" width="72" x="1299" y="305.4531"/><rect fill="#FEFECE" height="10" style="stroke: #A80036; stroke-width: 1.5;" width="15" x="1351" y="310.4531"/><rect fill="#FEFECE" height="2" style="stroke: #A80036; stroke-width: 1.5;" width="4" x="1349" y="312.4531"/><rect fill="#FEFECE" height="2" style="stroke: #A80036; stroke-width: 1.5;" width="4" x="1349" y="316.4531"/><text fill="#000000" font-family="sans-serif" font-size="14" lengthAdjust="spacingAndGlyphs" textLength="32" x="1314" y="338.4482">in.idf</text><!--entity EnergyPlus.exe--><rect fill="#FEFECE" filter="url(#foh55rr)" height="46.2969" style="stroke: #A80036; stroke-width: 1.5;" width="146" x="1441" y="305.4531"/><rect fill="#FEFECE" height="10" style="stroke: #A80036; stroke-width: 1.5;" width="15" x="1567" y="310.4531"/><rect fill="#FEFECE" height="2" style="stroke: #A80036; stroke-width: 1.5;" width="4" x="1565" y="312.4531"/><rect fill="#FEFECE" height="2" style="stroke: #A80036; stroke-width: 1.5;" width="4" x="1565" y="316.4531"/><text fill="#000000" font-family="sans-serif" font-size="14" lengthAdjust="spacingAndGlyphs" textLength="106" x="1456" y="338.4482">EnergyPlus.exe</text><!--entity eplusout.sql--><rect fill="#FEFECE" filter="url(#foh55rr)" height="46.2969" style="stroke: #A80036; stroke-width: 1.5;" width="125" x="1656.5" y="305.4531"/><rect fill="#FEFECE" height="10" style="stroke: #A80036; stroke-width: 1.5;" width="15" x="1761.5" y="310.4531"/><rect fill="#FEFECE" height="2" style="stroke: #A80036; stroke-width: 1.5;" width="4" x="1759.5" y="312.4531"/><rect fill="#FEFECE" height="2" style="stroke: #A80036; stroke-width: 1.5;" width="4" x="1759.5" y="316.4531"/><text fill="#000000" font-family="sans-serif" font-size="14" lengthAdjust="spacingAndGlyphs" textLength="85" x="1671.5" y="338.4482">eplusout.sql</text><!--entity epdev--><ellipse cx="612" cy="696.9531" fill="#FEFECE" filter="url(#foh55rr)" rx="8" ry="8" style="stroke: #A80036; stroke-width: 2.0;"/><path d="M612,704.9531 L612,731.9531 M599,712.9531 L625,712.9531 M612,731.9531 L599,746.9531 M612,731.9531 L625,746.9531 " fill="#FEFECE" filter="url(#foh55rr)" style="stroke: #A80036; stroke-width: 2.0;"/><text fill="#000000" font-family="sans-serif" font-size="14" lengthAdjust="spacingAndGlyphs" textLength="71" x="576.5" y="766.9482">Developer</text><!--entity modev--><ellipse cx="1136" cy="871.9531" fill="#FEFECE" filter="url(#foh55rr)" rx="8" ry="8" style="stroke: #A80036; stroke-width: 2.0;"/><path d="M1136,879.9531 L1136,906.9531 M1123,887.9531 L1149,887.9531 M1136,906.9531 L1123,921.9531 M1136,906.9531 L1149,921.9531 " fill="#FEFECE" filter="url(#foh55rr)" style="stroke: #A80036; stroke-width: 2.0;"/><text fill="#000000" font-family="sans-serif" font-size="14" lengthAdjust="spacingAndGlyphs" textLength="125" x="1073.5" y="941.9482">Developer or User</text><!--entity budev--><ellipse cx="752" cy="1192.9531" fill="#FEFECE" filter="url(#foh55rr)" rx="8" ry="8" style="stroke: #A80036; stroke-width: 2.0;"/><path d="M752,1200.9531 L752,1227.9531 M739,1208.9531 L765,1208.9531 M752,1227.9531 L739,1242.9531 M752,1227.9531 L765,1242.9531 " fill="#FEFECE" filter="url(#foh55rr)" style="stroke: #A80036; stroke-width: 2.0;"/><text fill="#000000" font-family="sans-serif" font-size="14" lengthAdjust="spacingAndGlyphs" textLength="71" x="716.5" y="1262.9482">Developer</text><!--entity mouse--><ellipse cx="1220" cy="1192.9531" fill="#FEFECE" filter="url(#foh55rr)" rx="8" ry="8" style="stroke: #A80036; stroke-width: 2.0;"/><path d="M1220,1200.9531 L1220,1227.9531 M1207,1208.9531 L1233,1208.9531 M1220,1227.9531 L1207,1242.9531 M1220,1227.9531 L1233,1242.9531 " fill="#FEFECE" filter="url(#foh55rr)" style="stroke: #A80036; stroke-width: 2.0;"/><text fill="#000000" font-family="sans-serif" font-size="14" lengthAdjust="spacingAndGlyphs" textLength="32" x="1204" y="1262.9482">User</text><!--entity User-Provided\nModelica Library--><path d="M1073.5,1031.9531 C1073.5,1021.9531 1138,1021.9531 1138,1021.9531 C1138,1021.9531 1202.5,1021.9531 1202.5,1031.9531 L1202.5,1069.5469 C1202.5,1079.5469 1138,1079.5469 1138,1079.5469 C1138,1079.5469 1073.5,1079.5469 1073.5,1069.5469 L1073.5,1031.9531 " fill="#FEFECE" filter="url(#foh55rr)" style="stroke: #000000; stroke-width: 1.5;"/><path d="M1073.5,1031.9531 C1073.5,1041.9531 1138,1041.9531 1138,1041.9531 C1138,1041.9531 1202.5,1041.9531 1202.5,1031.9531 " fill="none" style="stroke: #000000; stroke-width: 1.5;"/><text fill="#000000" font-family="sans-serif" font-size="14" lengthAdjust="spacingAndGlyphs" textLength="97" x="1089.5" y="1054.9482">User-Provided</text><text fill="#000000" font-family="sans-serif" font-size="14" lengthAdjust="spacingAndGlyphs" textLength="109" x="1083.5" y="1071.2451">Modelica Library</text><!--entity Application--><rect fill="#FEFECE" filter="url(#foh55rr)" height="46.2969" style="stroke: #A80036; stroke-width: 1.5;" width="115" x="301.5" y="29.4531"/><rect fill="#FEFECE" height="10" style="stroke: #A80036; stroke-width: 1.5;" width="15" x="396.5" y="34.4531"/><rect fill="#FEFECE" height="2" style="stroke: #A80036; stroke-width: 1.5;" width="4" x="394.5" y="36.4531"/><rect fill="#FEFECE" height="2" style="stroke: #A80036; stroke-width: 1.5;" width="4" x="394.5" y="40.4531"/><text fill="#000000" font-family="sans-serif" font-size="14" lengthAdjust="spacingAndGlyphs" textLength="75" x="316.5" y="62.4482">Application</text><!--entity Measures--><rect fill="#FEFECE" filter="url(#foh55rr)" height="46.2969" style="stroke: #A80036; stroke-width: 1.5;" width="108" x="677" y="29.4531"/><rect fill="#FEFECE" height="10" style="stroke: #A80036; stroke-width: 1.5;" width="15" x="765" y="34.4531"/><rect fill="#FEFECE" height="2" style="stroke: #A80036; stroke-width: 1.5;" width="4" x="763" y="36.4531"/><rect fill="#FEFECE" height="2" style="stroke: #A80036; stroke-width: 1.5;" width="4" x="763" y="40.4531"/><text fill="#000000" font-family="sans-serif" font-size="14" lengthAdjust="spacingAndGlyphs" textLength="68" x="692" y="62.4482">Measures</text><polygon fill="#FBFB77" filter="url(#foh55rr)" points="1240,508.9531,1240,549.2188,1494,549.2188,1494,518.9531,1484,508.9531,1240,508.9531" style="stroke: #A80036; stroke-width: 1.0;"/><polygon fill="#FBFB77" points="1240,508.9531,1240,549.2188,1326.8,549.2188,1040.58,702.3281,1334.8,549.2188,1494,549.2188,1494,518.9531,1484,508.9531,1240,508.9531" style="stroke: #A80036; stroke-width: 1.0;"/><line style="stroke: #A80036; stroke-width: 1.0;" x1="1484" x2="1484" y1="508.9531" y2="518.9531"/><line style="stroke: #A80036; stroke-width: 1.0;" x1="1494" x2="1484" y1="518.9531" y2="518.9531"/><text fill="#000000" font-family="sans-serif" font-size="13" lengthAdjust="spacingAndGlyphs" textLength="233" x="1246" y="526.02">Used as an intermediate format and</text><text fill="#000000" font-family="sans-serif" font-size="13" lengthAdjust="spacingAndGlyphs" textLength="199" x="1246" y="541.1528">to verify incompatible changes.</text><polygon fill="#FBFB77" filter="url(#foh55rr)" points="943.5,1158.9531,943.5,1290.0156,1168.5,1290.0156,1168.5,1168.9531,1158.5,1158.9531,943.5,1158.9531" style="stroke: #A80036; stroke-width: 1.0;"/><polygon fill="#FBFB77" points="943.5,1158.9531,943.5,1290.0156,1168.5,1290.0156,1168.5,1168.9531,1158.5,1158.9531,1090.94,1158.9531,1124.46,1080.2731,1082.94,1158.9531,943.5,1158.9531" style="stroke: #A80036; stroke-width: 1.0;"/><line style="stroke: #A80036; stroke-width: 1.0;" x1="1158.5" x2="1158.5" y1="1158.9531" y2="1168.9531"/><line style="stroke: #A80036; stroke-width: 1.0;" x1="1168.5" x2="1158.5" y1="1168.9531" y2="1168.9531"/><text fill="#000000" font-family="sans-serif" font-size="13" lengthAdjust="spacingAndGlyphs" textLength="157" x="949.5" y="1176.02">Allows companies to use</text><text fill="#000000" font-family="sans-serif" font-size="13" lengthAdjust="spacingAndGlyphs" textLength="172" x="949.5" y="1191.1528">their own Modelica libraries</text><text fill="#000000" font-family="sans-serif" font-size="13" lengthAdjust="spacingAndGlyphs" textLength="204" x="949.5" y="1206.2856">with custom HVAC systems and</text><text fill="#000000" font-family="sans-serif" font-size="13" lengthAdjust="spacingAndGlyphs" textLength="138" x="949.5" y="1221.4185">control sequences, or</text><text fill="#000000" font-family="sans-serif" font-size="13" lengthAdjust="spacingAndGlyphs" textLength="161" x="949.5" y="1236.5513">to integrate an electronic</text><text fill="#000000" font-family="sans-serif" font-size="13" lengthAdjust="spacingAndGlyphs" textLength="149" x="949.5" y="1251.6841">equipment catalog or a</text><text fill="#000000" font-family="sans-serif" font-size="13" lengthAdjust="spacingAndGlyphs" textLength="188" x="949.5" y="1266.8169">library used for an equipment</text><text fill="#000000" font-family="sans-serif" font-size="13" lengthAdjust="spacingAndGlyphs" textLength="65" x="949.5" y="1281.9497">sales tool.</text><polygon fill="#FBFB77" filter="url(#foh55rr)" points="486,32.4531,486,72.7188,642,72.7188,642,42.4531,632,32.4531,486,32.4531" style="stroke: #A80036; stroke-width: 1.0;"/><polygon fill="#FBFB77" points="486,32.4531,486,48.4531,416.656,52.4531,486,56.4531,486,72.7188,642,72.7188,642,42.4531,632,32.4531,486,32.4531" style="stroke: #A80036; stroke-width: 1.0;"/><line style="stroke: #A80036; stroke-width: 1.0;" x1="632" x2="632" y1="32.4531" y2="42.4531"/><line style="stroke: #A80036; stroke-width: 1.0;" x1="642" x2="632" y1="42.4531" y2="42.4531"/><text fill="#000000" font-family="sans-serif" font-size="13" lengthAdjust="spacingAndGlyphs" textLength="134" x="492" y="49.52">Application that uses</text><text fill="#000000" font-family="sans-serif" font-size="13" lengthAdjust="spacingAndGlyphs" textLength="135" x="492" y="64.6528">the OpenStudio SDK.</text><path d="M638,207.5931 C638,231.7931 638,277.5831 638,305.0241 " fill="none" style="stroke: #A80036; stroke-width: 1.0;"/><path d="M645.537,351.4541 C657.466,386.2771 680.769,454.3011 694.703,494.9771 " fill="none" style="stroke: #A80036; stroke-width: 1.0;"/><polygon fill="#A80036" points="696.355,499.7981,697.2204,489.9874,694.7336,495.0683,689.6527,492.5815,696.355,499.7981" style="stroke: #A80036; stroke-width: 1.0;"/><text fill="#000000" font-family="sans-serif" font-size="13" lengthAdjust="spacingAndGlyphs" textLength="65" x="680" y="427.52">integrates</text><path d="M674.59,348.8201 C698.107,361.9131 728.85,380.2611 754,399.4531 C791.757,428.2661 830.598,466.2821 856.867,493.4761 " fill="none" style="stroke: #A80036; stroke-width: 1.0;"/><polygon fill="#A80036" points="860.65,497.4071,857.2915,488.1486,857.183,493.8044,851.5272,493.6958,860.65,497.4071" style="stroke: #A80036; stroke-width: 1.0;"/><text fill="#000000" font-family="sans-serif" font-size="13" lengthAdjust="spacingAndGlyphs" textLength="65" x="809" y="427.52">integrates</text><path d="M674.67,336.9671 C742.351,351.9241 889.938,389.6821 999,454.4531 C1018.77,466.1931 1039.48,480.8141 1056.97,493.9171 " fill="none" style="stroke: #A80036; stroke-width: 1.0;"/><polygon fill="#A80036" points="1061.35,497.2131,1056.577,488.5981,1057.3594,494.2006,1051.757,494.983,1061.35,497.2131" style="stroke: #A80036; stroke-width: 1.0;"/><text fill="#000000" font-family="sans-serif" font-size="13" lengthAdjust="spacingAndGlyphs" textLength="65" x="982" y="427.52">integrates</text><path d="M620.406,351.5601 C610.336,364.9041 597.964,382.5461 589,399.4531 C572.522,430.5311 558.781,468.3981 550.085,494.9471 " fill="none" style="stroke: #A80036; stroke-width: 1.0;"/><polygon fill="#A80036" points="548.52,499.7681,555.1041,492.4435,550.0642,495.0126,547.4952,489.9727,548.52,499.7681" style="stroke: #A80036; stroke-width: 1.0;"/><text fill="#000000" font-family="sans-serif" font-size="13" lengthAdjust="spacingAndGlyphs" textLength="65" x="590" y="427.52">integrates</text><path d="M601.439,343.6081 C571.299,356.1061 528.115,375.9661 494,399.4531 C454.027,426.9721 414.232,465.9211 387.915,493.7111 " fill="none" style="stroke: #A80036; stroke-width: 1.0;"/><polygon fill="#A80036" points="384.453,497.3851,393.5363,493.5781,387.882,493.7461,387.7139,488.0918,384.453,497.3851" style="stroke: #A80036; stroke-width: 1.0;"/><text fill="#000000" font-family="sans-serif" font-size="13" lengthAdjust="spacingAndGlyphs" textLength="65" x="495" y="427.52">integrates</text><path d="M601.292,336.4361 C547.921,347.1141 446.191,369.4631 363,399.4531 C309.324,418.8031 296.058,425.3181 247,454.4531 C227.232,466.1931 206.516,480.8141 189.027,493.9171 " fill="none" style="stroke: #A80036; stroke-width: 1.0;"/><polygon fill="#A80036" points="184.652,497.2131,194.2471,494.9917,188.6453,494.2042,189.4328,488.6024,184.652,497.2131" style="stroke: #A80036; stroke-width: 1.0;"/><text fill="#000000" font-family="sans-serif" font-size="13" lengthAdjust="spacingAndGlyphs" textLength="65" x="364" y="427.52">integrates</text><path d="M697.846,563.2001 C691.221,587.5311 680.729,620.9551 667,648.4531 C660.505,661.4611 652.073,674.7521 643.77,686.6311 " fill="none" style="stroke: #A80036; stroke-width: 1.0; stroke-dasharray: 7.0,7.0;"/><polygon fill="#A80036" points="699.201,558.1511,693.0051,565.8069,697.9051,562.9803,700.7318,567.8803,699.201,558.1511" style="stroke: #A80036; stroke-width: 1.0;"/><text fill="#000000" font-family="sans-serif" font-size="13" lengthAdjust="spacingAndGlyphs" textLength="52" x="682" y="637.02">updates</text><path d="M370.974,560.6111 C394.616,609.8001 446.587,707.1831 514,769.9531 C567.587,819.8491 643.41,857.8561 694.972,880.1051 " fill="none" style="stroke: #A80036; stroke-width: 1.0; stroke-dasharray: 7.0,7.0;"/><polygon fill="#A80036" points="699.573,882.0761,692.8769,874.8538,694.9774,880.1062,689.725,882.2067,699.573,882.0761" style="stroke: #A80036; stroke-width: 1.0;"/><text fill="#000000" font-family="sans-serif" font-size="13" lengthAdjust="spacingAndGlyphs" textLength="43" x="515" y="725.52">parses</text><text fill="#000000" font-family="sans-serif" font-size="13" lengthAdjust="spacingAndGlyphs" textLength="25" x="524" y="740.6528">AST</text><path d="M512.96,562.1811 C494.302,588.4361 476.547,624.8921 499,648.4531 C511.739,661.8211 647.576,650.3371 665,656.4531 C694.141,666.6821 722.129,688.5741 740.679,705.3621 " fill="none" style="stroke: #A80036; stroke-width: 1.0; stroke-dasharray: 7.0,7.0;"/><polygon fill="#A80036" points="515.956,558.0591,507.4297,562.9888,513.0169,562.1041,513.9016,567.6913,515.956,558.0591" style="stroke: #A80036; stroke-width: 1.0;"/><text fill="#000000" font-family="sans-serif" font-size="13" lengthAdjust="spacingAndGlyphs" textLength="108" x="525" y="629.52">augments library</text><text fill="#000000" font-family="sans-serif" font-size="13" lengthAdjust="spacingAndGlyphs" textLength="158" x="500" y="644.6528">by generating C++ code</text><path d="M761.584,751.7161 C759.58,783.2471 755.916,840.8681 753.745,875.0061 " fill="none" style="stroke: #A80036; stroke-width: 1.0; stroke-dasharray: 7.0,7.0;"/><polygon fill="#A80036" points="753.41,880.2761,757.9728,871.548,753.7271,875.2862,749.9889,871.0405,753.41,880.2761" style="stroke: #A80036; stroke-width: 1.0;"/><text fill="#000000" font-family="sans-serif" font-size="13" lengthAdjust="spacingAndGlyphs" textLength="43" x="760" y="813.02">parses</text><text fill="#000000" font-family="sans-serif" font-size="13" lengthAdjust="spacingAndGlyphs" textLength="25" x="769" y="828.1528">AST</text><path d="M159.116,560.7061 C182.485,611.8291 236.187,714.1831 313,769.9531 C431.233,855.7971 605.572,886.6561 694.802,897.2481 " fill="none" style="stroke: #A80036; stroke-width: 1.0; stroke-dasharray: 7.0,7.0;"/><polygon fill="#A80036" points="699.771,897.8271,691.2944,892.8124,694.8046,897.2485,690.3686,900.7587,699.771,897.8271" style="stroke: #A80036; stroke-width: 1.0;"/><text fill="#000000" font-family="sans-serif" font-size="13" lengthAdjust="spacingAndGlyphs" textLength="84" x="323" y="718.02">writes inputs,</text><text fill="#000000" font-family="sans-serif" font-size="13" lengthAdjust="spacingAndGlyphs" textLength="102" x="314" y="733.1528">runs simulation,</text><text fill="#000000" font-family="sans-serif" font-size="13" lengthAdjust="spacingAndGlyphs" textLength="89" x="320.5" y="748.2856">reads outputs</text><path d="M940.022,728.4531 C911.49,728.4531 875.692,728.4531 843.766,728.4531 " fill="none" style="stroke: #A80036; stroke-width: 1.0;"/><polygon fill="#A80036" points="945.262,728.4531,936.262,724.4531,940.262,728.4531,936.262,732.4531,945.262,728.4531" style="stroke: #A80036; stroke-width: 1.0;"/><text fill="#000000" font-family="sans-serif" font-size="13" lengthAdjust="spacingAndGlyphs" textLength="65" x="862" y="721.52">generates</text><path d="M752,926.5511 C752,950.5751 752,989.2281 752,1016.8731 " fill="none" style="stroke: #A80036; stroke-width: 1.0;"/><polygon fill="#A80036" points="752,1021.9001,756,1012.9001,752,1016.9001,748,1012.9001,752,1021.9001" style="stroke: #A80036; stroke-width: 1.0;"/><text fill="#000000" font-family="sans-serif" font-size="13" lengthAdjust="spacingAndGlyphs" textLength="49" x="753" y="988.02">imports</text><path d="M819.008,753.6931 C878.448,779.6521 974.934,822.4551 1057,861.9531 C1062.28,864.4931 1067.73,867.1711 1073.19,869.8911 " fill="none" style="stroke: #A80036; stroke-width: 1.0; stroke-dasharray: 7.0,7.0;"/><polygon fill="#A80036" points="814.084,751.5441,820.7328,758.81,818.6666,753.544,823.9326,751.4778,814.084,751.5441" style="stroke: #A80036; stroke-width: 1.0;"/><text fill="#000000" font-family="sans-serif" font-size="13" lengthAdjust="spacingAndGlyphs" textLength="48" x="994" y="820.52">invokes</text><path d="M752,1085.3401 C752,1113.2501 752,1153.1531 752,1182.8981 " fill="none" style="stroke: #A80036; stroke-width: 1.0; stroke-dasharray: 7.0,7.0;"/><polygon fill="#A80036" points="752,1080.2731,748,1089.2731,752,1085.2731,756,1089.2731,752,1080.2731" style="stroke: #A80036; stroke-width: 1.0;"/><text fill="#000000" font-family="sans-serif" font-size="13" lengthAdjust="spacingAndGlyphs" textLength="111" x="753" y="1125.02">adds annotations</text><path d="M1153.79,1084.9831 C1168.2,1115.1201 1189.4,1159.4531 1203.9,1189.7881 " fill="none" style="stroke: #A80036; stroke-width: 1.0; stroke-dasharray: 7.0,7.0;"/><polygon fill="#A80036" points="1151.54,1080.2731,1151.8113,1090.1182,1153.6958,1084.7845,1159.0295,1086.669,1151.54,1080.2731" style="stroke: #A80036; stroke-width: 1.0;"/><text fill="#000000" font-family="sans-serif" font-size="13" lengthAdjust="spacingAndGlyphs" textLength="111" x="1175" y="1125.02">adds annotations</text><path d="M404.136,75.4531 C468.011,106.5931 581.574,161.9431 622.643,181.9631 " fill="none" style="stroke: #A80036; stroke-width: 1.0; stroke-dasharray: 7.0,7.0;"/><polygon fill="#A80036" points="627.283,184.2331,620.9428,176.6964,622.7877,182.044,617.4402,183.8889,627.283,184.2331" style="stroke: #A80036; stroke-width: 1.0;"/><text fill="#000000" font-family="sans-serif" font-size="13" lengthAdjust="spacingAndGlyphs" textLength="30" x="500" y="118.52">uses</text><path d="M715.851,75.6031 C697.946,101.7931 668.432,144.9531 651.351,169.9331 " fill="none" style="stroke: #A80036; stroke-width: 1.0; stroke-dasharray: 7.0,7.0;"/><polygon fill="#A80036" points="648.516,174.0731,656.8904,168.8895,651.3322,169.9417,650.2801,164.3835,648.516,174.0731" style="stroke: #A80036; stroke-width: 1.0;"/><text fill="#000000" font-family="sans-serif" font-size="13" lengthAdjust="spacingAndGlyphs" textLength="30" x="694" y="118.52">uses</text><path d="M804.058,924.0761 C872.32,949.8071 992.304,995.0341 1068.34,1023.6941 " fill="none" style="stroke: #A80036; stroke-width: 1.0;"/><polygon fill="#A80036" points="1073.28,1025.5571,1066.2795,1018.6294,1068.604,1023.7867,1063.4467,1026.1111,1073.28,1025.5571" style="stroke: #A80036; stroke-width: 1.0;"/><text fill="#000000" font-family="sans-serif" font-size="13" lengthAdjust="spacingAndGlyphs" textLength="49" x="980" y="988.02">imports</text><path d="M1255.8845,343.4384 C1254.3499,346.0112 1252.6378,348.8457 1250.7837,351.8603 C1243.3675,363.9186 1233.68,378.8586 1224,391.4531 C1194.54,429.7861 1156.69,470.3891 1130.6,497.2471 " fill="none" style="stroke: #A80036; stroke-width: 1.0; stroke-dasharray: 7.0,7.0;"/><polygon fill="#A80036" points="1255.8845,343.4384,1247.8388,349.1188,1253.3231,347.7326,1254.7094,353.217,1255.8845,343.4384" style="stroke: #A80036; stroke-width: 1.0;"/><text fill="#000000" font-family="sans-serif" font-size="13" lengthAdjust="spacingAndGlyphs" textLength="84" x="1224" y="412.52">writes inputs,</text><text fill="#000000" font-family="sans-serif" font-size="13" lengthAdjust="spacingAndGlyphs" textLength="102" x="1215" y="427.6528">runs simulation,</text><text fill="#000000" font-family="sans-serif" font-size="13" lengthAdjust="spacingAndGlyphs" textLength="89" x="1221.5" y="442.7856">reads outputs</text><path d="M1371.01,328.4531 C1392.56,328.4531 1414.1,328.4531 1435.65,328.4531 " fill="none" style="stroke: #A80036; stroke-width: 1.0;"/><polygon fill="#A80036" points="1440.83,328.4531,1431.83,324.4531,1435.83,328.4531,1431.83,332.4531,1440.83,328.4531" style="stroke: #A80036; stroke-width: 1.0;"/><path d="M1587.27,328.4531 C1608.63,328.4531 1629.99,328.4531 1651.34,328.4531 " fill="none" style="stroke: #A80036; stroke-width: 1.0;"/><polygon fill="#A80036" points="1656.48,328.4531,1647.48,324.4531,1651.48,328.4531,1647.48,332.4531,1656.48,328.4531" style="stroke: #A80036; stroke-width: 1.0;"/></g></svg>