<?xml version="1.0" encoding="UTF-8" standalone="no"?><svg xmlns="http://www.w3.org/2000/svg" xmlns:xlink="http://www.w3.org/1999/xlink" contentScriptType="application/ecmascript" contentStyleType="text/css" height="72px" preserveAspectRatio="none" style="width:851px;height:72px;" version="1.1" viewBox="0 0 851 72" width="851px" zoomAndPan="magnify"><defs><filter height="300%" id="f1rpvw37l3kohj" width="300%" x="-1" y="-1"><feGaussianBlur result="blurOut" stdDeviation="2.0"/><feColorMatrix in="blurOut" result="blurOut2" type="matrix" values="0 0 0 0 0 0 0 0 0 0 0 0 0 0 0 0 0 0 .4 0"/><feOffset dx="4.0" dy="4.0" in="blurOut2" result="blurOut3"/><feBlend in="SourceGraphic" in2="blurOut3" mode="normal"/></filter></defs><g><!--MD5=[3a280457b32f690d5669f7a3c69a5297]
entity qss_sol--><rect fill="#FEFECE" filter="url(#f1rpvw37l3kohj)" height="46.2969" style="stroke: #A80036; stroke-width: 1.5;" width="114" x="718.5" y="7"/><rect fill="#FEFECE" height="10" style="stroke: #A80036; stroke-width: 1.5;" width="15" x="812.5" y="12"/><rect fill="#FEFECE" height="2" style="stroke: #A80036; stroke-width: 1.5;" width="4" x="810.5" y="14"/><rect fill="#FEFECE" height="2" style="stroke: #A80036; stroke-width: 1.5;" width="4" x="810.5" y="18"/><text fill="#000000" font-family="sans-serif" font-size="14" lengthAdjust="spacingAndGlyphs" textLength="74" x="733.5" y="39.9951">QSS solver</text><!--MD5=[45abc01225ac1aa05e1c99c80557fb31]
entity FMU_QSS--><rect fill="#FEFECE" filter="url(#f1rpvw37l3kohj)" height="46.2969" style="stroke: #A80036; stroke-width: 1.5;" width="96" x="461.5" y="7"/><rect fill="#FEFECE" height="10" style="stroke: #A80036; stroke-width: 1.5;" width="15" x="537.5" y="12"/><rect fill="#FEFECE" height="2" style="stroke: #A80036; stroke-width: 1.5;" width="4" x="535.5" y="14"/><rect fill="#FEFECE" height="2" style="stroke: #A80036; stroke-width: 1.5;" width="4" x="535.5" y="18"/><text fill="#000000" font-family="sans-serif" font-size="14" lengthAdjust="spacingAndGlyphs" textLength="56" x="476.5" y="39.9951">FMU-ME</text><!--MD5=[c10ac351028904883bc263483650cbcf]
entity oct--><rect fill="#FEFECE" filter="url(#f1rpvw37l3kohj)" height="46.2969" style="stroke: #A80036; stroke-width: 1.5;" width="169" x="7" y="7"/><rect fill="#FEFECE" height="10" style="stroke: #A80036; stroke-width: 1.5;" width="15" x="156" y="12"/><rect fill="#FEFECE" height="2" style="stroke: #A80036; stroke-width: 1.5;" width="4" x="154" y="14"/><rect fill="#FEFECE" height="2" style="stroke: #A80036; stroke-width: 1.5;" width="4" x="154" y="18"/><text fill="#000000" font-family="sans-serif" font-size="14" lengthAdjust="spacingAndGlyphs" textLength="129" x="22" y="39.9951">OPTIMICA compiler</text><!--MD5=[431f902dfb925862c6a91c78af50fe95]
reverse link FMU_QSS to qss_sol--><path d="M562.7947,30 C607.879,30 672.3238,30 718.444,30 " fill="none" id="FMU_QSS-backto-qss_sol" style="stroke: #A80036; stroke-width: 1.0;"/><polygon fill="#A80036" points="557.6706,30,566.6706,34,562.6706,30,566.6706,26,557.6706,30" style="stroke: #A80036; stroke-width: 1.0;"/><text fill="#000000" font-family="sans-serif" font-size="13" lengthAdjust="spacingAndGlyphs" textLength="124" x="576" y="23.0669">inputs, time, states</text><!--MD5=[2cf382a5dd28fe847b670c0f0dfde1fa]
link FMU_QSS to qss_sol--><path d="M557.9347,42.4452 C572.1903,45.5554 587.884,48.4462 602.5,50 C633.8787,53.3359 642.0922,53.0502 673.5,50 C686.4228,48.745 700.1387,46.6156 713.181,44.2025 " fill="none" id="FMU_QSS-to-qss_sol" style="stroke: #A80036; stroke-width: 1.0;"/><polygon fill="#A80036" points="718.3358,43.2279,708.7493,40.9698,713.4229,44.1569,710.2357,48.8305,718.3358,43.2279" style="stroke: #A80036; stroke-width: 1.0;"/><text fill="#000000" font-family="sans-serif" font-size="13" lengthAdjust="spacingAndGlyphs" textLength="69" x="603.5" y="46.0669">derivatives</text><!--MD5=[72bc1aa5ca7675601a97f97e43132109]
link oct to FMU_QSS--><path d="M176.0885,30 C259.7883,30 385.3432,30 456.0836,30 " fill="none" id="oct-to-FMU_QSS" style="stroke: #A80036; stroke-width: 1.0;"/><polygon fill="#A80036" points="461.4991,30,452.4991,26,456.4991,30,452.4991,34,461.4991,30" style="stroke: #A80036; stroke-width: 1.0;"/><text fill="#000000" font-family="sans-serif" font-size="13" lengthAdjust="spacingAndGlyphs" textLength="249" x="194.25" y="23.0669">generate FMU with information for QSS</text><!--MD5=[0d4170d80f080156ab7fecc1d58c3554]
@startuml
skinparam componentStyle uml2

[QSS solver] as qss_sol
[FMU-ME] as FMU_QSS
[OPTIMICA compiler] as oct

qss_sol -left-> FMU_QSS : "inputs, time, states"
FMU_QSS -right-> qss_sol : "derivatives"
oct -right-> FMU_QSS : generate FMU with information for QSS
@enduml

PlantUML version 1.2020.16(Sun Aug 23 13:20:43 PDT 2020)
(GPL source distribution)
Java Runtime: OpenJDK Runtime Environment
JVM: OpenJDK 64-Bit Server VM
Default Encoding: UTF-8
Language: en
Country: US
--></g></svg>