<?xml version="1.0" encoding="UTF-8" standalone="no"?><svg xmlns="http://www.w3.org/2000/svg" xmlns:xlink="http://www.w3.org/1999/xlink" contentScriptType="application/ecmascript" contentStyleType="text/css" height="1052.9084px" preserveAspectRatio="none" style="width:1006px;height:1052px;" version="1.1" viewBox="0 0 1006 1052" width="1006.0125px" zoomAndPan="magnify"><defs><filter height="300%" id="fygu9ii" width="300%" x="-1" y="-1"><feGaussianBlur result="blurOut" stdDeviation="1.2848180677540777"/><feColorMatrix in="blurOut" result="blurOut2" type="matrix" values="0 0 0 0 0 0 0 0 0 0 0 0 0 0 0 0 0 0 .4 0"/><feOffset dx="2.5696361355081554" dy="2.5696361355081554" in="blurOut2" result="blurOut3"/><feBlend in="SourceGraphic" in2="blurOut3" mode="normal"/></filter></defs><g><text fill="#000000" font-family="sans-serif" font-size="11.5634" lengthAdjust="spacingAndGlyphs" textLength="160.6023" x="431.6989" y="11.1794">Overall software architecture</text><!--cluster OpenStudio--><polygon fill="#FFFFFF" filter="url(#fygu9ii)" points="224.522,89.1016,282.3388,89.1016,286.8356,103.5483,1001.8369,103.5483,1001.8369,679.4755,224.522,679.4755,224.522,89.1016" style="stroke: #000000; stroke-width: 1.2848180677540777;"/><line style="stroke: #000000; stroke-width: 1.2848180677540777;" x1="224.522" x2="286.8356" y1="103.5483" y2="103.5483"/><text fill="#000000" font-family="sans-serif" font-size="8.9937" font-weight="bold" lengthAdjust="spacingAndGlyphs" textLength="53.9624" x="227.0916" y="99.0816">OpenStudio</text><!--cluster Legacy-Mode--><polygon fill="#FFFFFF" filter="url(#fygu9ii)" points="620.8883,578.6173,686.4141,578.6173,690.9109,593.064,986.4191,593.064,986.4191,664.0577,620.8883,664.0577,620.8883,578.6173" style="stroke: #000000; stroke-width: 1.2848180677540777;"/><line style="stroke: #000000; stroke-width: 1.2848180677540777;" x1="620.8883" x2="690.9109" y1="593.064" y2="593.064"/><text fill="#000000" font-family="sans-serif" font-size="8.9937" font-weight="bold" lengthAdjust="spacingAndGlyphs" textLength="61.6713" x="623.458" y="588.5972">Legacy-Mode</text><!--cluster SOEP-Mode--><polygon fill="#FFFFFF" filter="url(#fygu9ii)" points="239.9398,578.6173,298.399,578.6173,302.8959,593.064,605.4705,593.064,605.4705,664.0577,239.9398,664.0577,239.9398,578.6173" style="stroke: #000000; stroke-width: 1.2848180677540777;"/><line style="stroke: #000000; stroke-width: 1.2848180677540777;" x1="239.9398" x2="302.8959" y1="593.064" y2="593.064"/><text fill="#000000" font-family="sans-serif" font-size="8.9937" font-weight="bold" lengthAdjust="spacingAndGlyphs" textLength="54.6048" x="242.5094" y="588.5972">SOEP-Mode</text><!--cluster SOEP--><polygon fill="#FFFFFF" filter="url(#fygu9ii)" points="40.793,730.2258,68.4166,730.2258,72.9134,744.6725,786.6299,744.6725,786.6299,812.4542,40.793,812.4542,40.793,730.2258" style="stroke: #000000; stroke-width: 1.2848180677540777;"/><line style="stroke: #000000; stroke-width: 1.2848180677540777;" x1="40.793" x2="72.9134" y1="744.6725" y2="744.6725"/><text fill="#000000" font-family="sans-serif" font-size="8.9937" font-weight="bold" lengthAdjust="spacingAndGlyphs" textLength="23.7691" x="43.3626" y="740.2058">SOEP</text><!--cluster EnergyPlus--><polygon fill="#FFFFFF" filter="url(#fygu9ii)" points="68.4166,437.9297,123.0213,437.9297,127.5182,452.3764,203.9649,452.3764,203.9649,522.7277,68.4166,522.7277,68.4166,437.9297" style="stroke: #000000; stroke-width: 1.2848180677540777;"/><line style="stroke: #000000; stroke-width: 1.2848180677540777;" x1="68.4166" x2="127.5182" y1="452.3764" y2="452.3764"/><text fill="#000000" font-family="sans-serif" font-size="8.9937" font-weight="bold" lengthAdjust="spacingAndGlyphs" textLength="50.7503" x="70.9862" y="447.9097">EnergyPlus</text><!--entity API--><ellipse cx="263.7089" cy="133.4279" fill="#FEFECE" filter="url(#fygu9ii)" rx="5.1393" ry="5.1393" style="stroke: #A80036; stroke-width: 1.2848180677540777;"/><text fill="#000000" font-family="sans-serif" font-size="8.9937" lengthAdjust="spacingAndGlyphs" textLength="14.133" x="256.6424" y="147.9046">API</text><!--entity Core--><rect fill="#FEFECE" filter="url(#fygu9ii)" height="29.8645" style="stroke: #A80036; stroke-width: 0.9636135508155583;" width="46.8959" x="630.2033" y="123.7917"/><rect fill="#FEFECE" height="6.4241" style="stroke: #A80036; stroke-width: 0.9636135508155583;" width="9.6361" x="664.2509" y="127.0038"/><rect fill="#FEFECE" height="1.2848" style="stroke: #A80036; stroke-width: 0.9636135508155583;" width="2.5696" x="662.9661" y="128.2886"/><rect fill="#FEFECE" height="1.2848" style="stroke: #A80036; stroke-width: 0.9636135508155583;" width="2.5696" x="662.9661" y="130.8582"/><text fill="#000000" font-family="sans-serif" font-size="8.9937" lengthAdjust="spacingAndGlyphs" textLength="21.1995" x="639.8394" y="145.335">Core</text><!--entity Legacy\nModel Library--><path d="M763.1819,621.3375 C763.1819,614.9134 799.478,614.9134 799.478,614.9134 C799.478,614.9134 835.7742,614.9134 835.7742,621.3375 L835.7742,645.734 C835.7742,652.1581 799.478,652.1581 799.478,652.1581 C799.478,652.1581 763.1819,652.1581 763.1819,645.734 L763.1819,621.3375 " fill="#FEFECE" filter="url(#fygu9ii)" style="stroke: #000000; stroke-width: 0.9636135508155583;"/><path d="M763.1819,621.3375 C763.1819,627.7616 799.478,627.7616 799.478,627.7616 C799.478,627.7616 835.7742,627.7616 835.7742,621.3375 " fill="none" style="stroke: #000000; stroke-width: 0.9636135508155583;"/><text fill="#000000" font-family="sans-serif" font-size="8.9937" lengthAdjust="spacingAndGlyphs" textLength="29.5508" x="784.7026" y="636.4567">Legacy</text><text fill="#000000" font-family="sans-serif" font-size="8.9937" lengthAdjust="spacingAndGlyphs" textLength="59.744" x="769.606" y="647.0489">Model Library</text><!--entity HVAC Systems Editor\n(Legacy Mode)--><rect fill="#FEFECE" filter="url(#fygu9ii)" height="40.4567" style="stroke: #A80036; stroke-width: 0.9636135508155583;" width="117.5609" x="858.2585" y="613.3074"/><rect fill="#FEFECE" height="6.4241" style="stroke: #A80036; stroke-width: 0.9636135508155583;" width="9.6361" x="962.9711" y="616.5194"/><rect fill="#FEFECE" height="1.2848" style="stroke: #A80036; stroke-width: 0.9636135508155583;" width="2.5696" x="961.6863" y="617.8043"/><rect fill="#FEFECE" height="1.2848" style="stroke: #A80036; stroke-width: 0.9636135508155583;" width="2.5696" x="961.6863" y="620.3739"/><text fill="#000000" font-family="sans-serif" font-size="8.9937" lengthAdjust="spacingAndGlyphs" textLength="91.8645" x="867.8946" y="634.8507">HVAC Systems Editor</text><text fill="#000000" font-family="sans-serif" font-size="8.9937" lengthAdjust="spacingAndGlyphs" textLength="62.9561" x="882.3488" y="645.4429">(Legacy Mode)</text><!--entity EnergyPlus\nSimulator Interface--><rect fill="#FEFECE" filter="url(#fygu9ii)" height="40.4567" style="stroke: #A80036; stroke-width: 0.9636135508155583;" width="109.2095" x="631.1669" y="613.3074"/><rect fill="#FEFECE" height="6.4241" style="stroke: #A80036; stroke-width: 0.9636135508155583;" width="9.6361" x="727.5282" y="616.5194"/><rect fill="#FEFECE" height="1.2848" style="stroke: #A80036; stroke-width: 0.9636135508155583;" width="2.5696" x="726.2434" y="617.8043"/><rect fill="#FEFECE" height="1.2848" style="stroke: #A80036; stroke-width: 0.9636135508155583;" width="2.5696" x="726.2434" y="620.3739"/><text fill="#000000" font-family="sans-serif" font-size="8.9937" lengthAdjust="spacingAndGlyphs" textLength="48.1807" x="658.4693" y="634.8507">EnergyPlus</text><text fill="#000000" font-family="sans-serif" font-size="8.9937" lengthAdjust="spacingAndGlyphs" textLength="83.5132" x="640.803" y="645.4429">Simulator Interface</text><!--entity SOEP\nModel Library--><path d="M522.2785,621.3375 C522.2785,614.9134 558.5747,614.9134 558.5747,614.9134 C558.5747,614.9134 594.8708,614.9134 594.8708,621.3375 L594.8708,645.734 C594.8708,652.1581 558.5747,652.1581 558.5747,652.1581 C558.5747,652.1581 522.2785,652.1581 522.2785,645.734 L522.2785,621.3375 " fill="#FEFECE" filter="url(#fygu9ii)" style="stroke: #000000; stroke-width: 0.9636135508155583;"/><path d="M522.2785,621.3375 C522.2785,627.7616 558.5747,627.7616 558.5747,627.7616 C558.5747,627.7616 594.8708,627.7616 594.8708,621.3375 " fill="none" style="stroke: #000000; stroke-width: 0.9636135508155583;"/><text fill="#000000" font-family="sans-serif" font-size="8.9937" lengthAdjust="spacingAndGlyphs" textLength="22.4843" x="547.3325" y="636.4567">SOEP</text><text fill="#000000" font-family="sans-serif" font-size="8.9937" lengthAdjust="spacingAndGlyphs" textLength="59.744" x="528.7026" y="647.0489">Model Library</text><!--entity HVAC Systems Editor\n(SOEP Mode)--><rect fill="#FEFECE" filter="url(#fygu9ii)" height="40.4567" style="stroke: #A80036; stroke-width: 0.9636135508155583;" width="117.5609" x="382.2334" y="613.3074"/><rect fill="#FEFECE" height="6.4241" style="stroke: #A80036; stroke-width: 0.9636135508155583;" width="9.6361" x="486.946" y="616.5194"/><rect fill="#FEFECE" height="1.2848" style="stroke: #A80036; stroke-width: 0.9636135508155583;" width="2.5696" x="485.6612" y="617.8043"/><rect fill="#FEFECE" height="1.2848" style="stroke: #A80036; stroke-width: 0.9636135508155583;" width="2.5696" x="485.6612" y="620.3739"/><text fill="#000000" font-family="sans-serif" font-size="8.9937" lengthAdjust="spacingAndGlyphs" textLength="91.8645" x="391.8695" y="634.8507">HVAC Systems Editor</text><text fill="#000000" font-family="sans-serif" font-size="8.9937" lengthAdjust="spacingAndGlyphs" textLength="55.8896" x="409.857" y="645.4429">(SOEP Mode)</text><!--entity SOEP\nSimulator Interface--><rect fill="#FEFECE" filter="url(#fygu9ii)" height="40.4567" style="stroke: #A80036; stroke-width: 0.9636135508155583;" width="109.2095" x="250.2183" y="613.3074"/><rect fill="#FEFECE" height="6.4241" style="stroke: #A80036; stroke-width: 0.9636135508155583;" width="9.6361" x="346.5797" y="616.5194"/><rect fill="#FEFECE" height="1.2848" style="stroke: #A80036; stroke-width: 0.9636135508155583;" width="2.5696" x="345.2949" y="617.8043"/><rect fill="#FEFECE" height="1.2848" style="stroke: #A80036; stroke-width: 0.9636135508155583;" width="2.5696" x="345.2949" y="620.3739"/><text fill="#000000" font-family="sans-serif" font-size="8.9937" lengthAdjust="spacingAndGlyphs" textLength="22.4843" x="290.3689" y="634.8507">SOEP</text><text fill="#000000" font-family="sans-serif" font-size="8.9937" lengthAdjust="spacingAndGlyphs" textLength="83.5132" x="259.8545" y="645.4429">Simulator Interface</text><!--entity JModelica--><rect fill="#FEFECE" filter="url(#fygu9ii)" height="29.8645" style="stroke: #A80036; stroke-width: 0.9636135508155583;" width="67.4529" x="136.8331" y="768.7704"/><rect fill="#FEFECE" height="6.4241" style="stroke: #A80036; stroke-width: 0.9636135508155583;" width="9.6361" x="191.4379" y="771.9824"/><rect fill="#FEFECE" height="1.2848" style="stroke: #A80036; stroke-width: 0.9636135508155583;" width="2.5696" x="190.1531" y="773.2673"/><rect fill="#FEFECE" height="1.2848" style="stroke: #A80036; stroke-width: 0.9636135508155583;" width="2.5696" x="190.1531" y="775.8369"/><text fill="#000000" font-family="sans-serif" font-size="8.9937" lengthAdjust="spacingAndGlyphs" textLength="41.7566" x="146.4693" y="790.3137">JModelica</text><!--entity Conversion Script--><rect fill="#FEFECE" filter="url(#fygu9ii)" height="29.8645" style="stroke: #A80036; stroke-width: 0.9636135508155583;" width="103.4279" x="564.0351" y="768.7704"/><rect fill="#FEFECE" height="6.4241" style="stroke: #A80036; stroke-width: 0.9636135508155583;" width="9.6361" x="654.6148" y="771.9824"/><rect fill="#FEFECE" height="1.2848" style="stroke: #A80036; stroke-width: 0.9636135508155583;" width="2.5696" x="653.33" y="773.2673"/><rect fill="#FEFECE" height="1.2848" style="stroke: #A80036; stroke-width: 0.9636135508155583;" width="2.5696" x="653.33" y="775.8369"/><text fill="#000000" font-family="sans-serif" font-size="8.9937" lengthAdjust="spacingAndGlyphs" textLength="77.7315" x="573.6713" y="790.3137">Conversion Script</text><!--entity mod_AST--><path d="M51.0715,771.34 C51.0715,764.9159 82.5496,764.9159 82.5496,764.9159 C82.5496,764.9159 114.0276,764.9159 114.0276,771.34 L114.0276,795.7365 C114.0276,802.1606 82.5496,802.1606 82.5496,802.1606 C82.5496,802.1606 51.0715,802.1606 51.0715,795.7365 L51.0715,771.34 " fill="#FEFECE" filter="url(#fygu9ii)" style="stroke: #000000; stroke-width: 0.9636135508155583;"/><path d="M51.0715,771.34 C51.0715,777.7641 82.5496,777.7641 82.5496,777.7641 C82.5496,777.7641 114.0276,777.7641 114.0276,771.34 " fill="none" style="stroke: #000000; stroke-width: 0.9636135508155583;"/><text fill="#000000" font-family="sans-serif" font-size="8.9937" lengthAdjust="spacingAndGlyphs" textLength="39.187" x="62.9561" y="786.4592">Modelica</text><text fill="#000000" font-family="sans-serif" font-size="8.9937" lengthAdjust="spacingAndGlyphs" textLength="50.1079" x="57.4956" y="797.0514">Library AST</text><!--entity Modelica\nBuildings Library--><path d="M690.2685,771.34 C690.2685,764.9159 733.3099,764.9159 733.3099,764.9159 C733.3099,764.9159 776.3513,764.9159 776.3513,771.34 L776.3513,795.7365 C776.3513,802.1606 733.3099,802.1606 733.3099,802.1606 C733.3099,802.1606 690.2685,802.1606 690.2685,795.7365 L690.2685,771.34 " fill="#FEFECE" filter="url(#fygu9ii)" style="stroke: #000000; stroke-width: 0.9636135508155583;"/><path d="M690.2685,771.34 C690.2685,777.7641 733.3099,777.7641 733.3099,777.7641 C733.3099,777.7641 776.3513,777.7641 776.3513,771.34 " fill="none" style="stroke: #000000; stroke-width: 0.9636135508155583;"/><text fill="#000000" font-family="sans-serif" font-size="8.9937" lengthAdjust="spacingAndGlyphs" textLength="39.187" x="713.7164" y="786.4592">Modelica</text><text fill="#000000" font-family="sans-serif" font-size="8.9937" lengthAdjust="spacingAndGlyphs" textLength="73.2346" x="696.6926" y="797.0514">Buildings Library</text><!--entity EnergyPlus.exe--><rect fill="#FEFECE" filter="url(#fygu9ii)" height="29.8645" style="stroke: #A80036; stroke-width: 0.9636135508155583;" width="92.5069" x="96.0402" y="477.7591"/><rect fill="#FEFECE" height="6.4241" style="stroke: #A80036; stroke-width: 0.9636135508155583;" width="9.6361" x="175.6989" y="480.9711"/><rect fill="#FEFECE" height="1.2848" style="stroke: #A80036; stroke-width: 0.9636135508155583;" width="2.5696" x="174.4141" y="482.256"/><rect fill="#FEFECE" height="1.2848" style="stroke: #A80036; stroke-width: 0.9636135508155583;" width="2.5696" x="174.4141" y="484.8256"/><text fill="#000000" font-family="sans-serif" font-size="8.9937" lengthAdjust="spacingAndGlyphs" textLength="66.8105" x="105.6763" y="499.3024">EnergyPlus.exe</text><!--entity epdev--><ellipse cx="821.3199" cy="763.3099" fill="#FEFECE" filter="url(#fygu9ii)" rx="5.1393" ry="5.1393" style="stroke: #A80036; stroke-width: 1.2848180677540777;"/><path d="M821.3199,768.4492 L821.3199,785.7942 M812.9686,773.5885 L829.6713,773.5885 M821.3199,785.7942 L812.9686,795.4304 M821.3199,785.7942 L829.6713,795.4304 " fill="#FEFECE" filter="url(#fygu9ii)" style="stroke: #A80036; stroke-width: 1.2848180677540777;"/><text fill="#000000" font-family="sans-serif" font-size="8.9937" lengthAdjust="spacingAndGlyphs" textLength="44.3262" x="799.1568" y="808.6223">Developer</text><!--entity modev--><ellipse cx="615.7491" cy="866.0954" fill="#FEFECE" filter="url(#fygu9ii)" rx="5.1393" ry="5.1393" style="stroke: #A80036; stroke-width: 1.2848180677540777;"/><path d="M615.7491,871.2346 L615.7491,888.5797 M607.3977,876.3739 L624.1004,876.3739 M615.7491,888.5797 L607.3977,898.2158 M615.7491,888.5797 L624.1004,898.2158 " fill="#FEFECE" filter="url(#fygu9ii)" style="stroke: #A80036; stroke-width: 1.2848180677540777;"/><text fill="#000000" font-family="sans-serif" font-size="8.9937" lengthAdjust="spacingAndGlyphs" textLength="79.0163" x="576.2409" y="911.4078">Developer or User</text><!--entity budev--><ellipse cx="733.3099" cy="866.0954" fill="#FEFECE" filter="url(#fygu9ii)" rx="5.1393" ry="5.1393" style="stroke: #A80036; stroke-width: 1.2848180677540777;"/><path d="M733.3099,871.2346 L733.3099,888.5797 M724.9586,876.3739 L741.6612,876.3739 M733.3099,888.5797 L724.9586,898.2158 M733.3099,888.5797 L741.6612,898.2158 " fill="#FEFECE" filter="url(#fygu9ii)" style="stroke: #A80036; stroke-width: 1.2848180677540777;"/><text fill="#000000" font-family="sans-serif" font-size="8.9937" lengthAdjust="spacingAndGlyphs" textLength="44.3262" x="711.1468" y="911.4078">Developer</text><!--entity mouse--><ellipse cx="118.5245" cy="984.6198" fill="#FEFECE" filter="url(#fygu9ii)" rx="5.1393" ry="5.1393" style="stroke: #A80036; stroke-width: 1.2848180677540777;"/><path d="M118.5245,989.7591 L118.5245,1007.1041 M110.1731,994.8984 L126.8758,994.8984 M118.5245,1007.1041 L110.1731,1016.7403 M118.5245,1007.1041 L126.8758,1016.7403 " fill="#FEFECE" filter="url(#fygu9ii)" style="stroke: #A80036; stroke-width: 1.2848180677540777;"/><text fill="#000000" font-family="sans-serif" font-size="8.9937" lengthAdjust="spacingAndGlyphs" textLength="19.9147" x="108.5671" y="1029.9322">User</text><!--entity User-Provided\nModelica Library--><path d="M128.1606,874.1255 C128.1606,867.7014 170.5596,867.7014 170.5596,867.7014 C170.5596,867.7014 212.9586,867.7014 212.9586,874.1255 L212.9586,898.522 C212.9586,904.946 170.5596,904.946 170.5596,904.946 C170.5596,904.946 128.1606,904.946 128.1606,898.522 L128.1606,874.1255 " fill="#FEFECE" filter="url(#fygu9ii)" style="stroke: #000000; stroke-width: 0.9636135508155583;"/><path d="M128.1606,874.1255 C128.1606,880.5496 170.5596,880.5496 170.5596,880.5496 C170.5596,880.5496 212.9586,880.5496 212.9586,874.1255 " fill="none" style="stroke: #000000; stroke-width: 0.9636135508155583;"/><text fill="#000000" font-family="sans-serif" font-size="8.9937" lengthAdjust="spacingAndGlyphs" textLength="63.5985" x="138.7604" y="889.2447">User-Provided</text><text fill="#000000" font-family="sans-serif" font-size="8.9937" lengthAdjust="spacingAndGlyphs" textLength="71.9498" x="134.5847" y="899.8369">Modelica Library</text><!--entity Application--><rect fill="#FEFECE" filter="url(#fygu9ii)" height="29.8645" style="stroke: #A80036; stroke-width: 0.9636135508155583;" width="75.8043" x="58.138" y="19.079"/><rect fill="#FEFECE" height="6.4241" style="stroke: #A80036; stroke-width: 0.9636135508155583;" width="9.6361" x="121.0941" y="22.2911"/><rect fill="#FEFECE" height="1.2848" style="stroke: #A80036; stroke-width: 0.9636135508155583;" width="2.5696" x="119.8093" y="23.5759"/><rect fill="#FEFECE" height="1.2848" style="stroke: #A80036; stroke-width: 0.9636135508155583;" width="2.5696" x="119.8093" y="26.1455"/><text fill="#000000" font-family="sans-serif" font-size="8.9937" lengthAdjust="spacingAndGlyphs" textLength="50.1079" x="67.7742" y="40.6223">Application</text><!--entity Measures--><rect fill="#FEFECE" filter="url(#fygu9ii)" height="29.8645" style="stroke: #A80036; stroke-width: 0.9636135508155583;" width="67.4529" x="300.6474" y="19.079"/><rect fill="#FEFECE" height="6.4241" style="stroke: #A80036; stroke-width: 0.9636135508155583;" width="9.6361" x="355.2522" y="22.2911"/><rect fill="#FEFECE" height="1.2848" style="stroke: #A80036; stroke-width: 0.9636135508155583;" width="2.5696" x="353.9674" y="23.5759"/><rect fill="#FEFECE" height="1.2848" style="stroke: #A80036; stroke-width: 0.9636135508155583;" width="2.5696" x="353.9674" y="26.1455"/><text fill="#000000" font-family="sans-serif" font-size="8.9937" lengthAdjust="spacingAndGlyphs" textLength="41.7566" x="310.2836" y="40.6223">Measures</text><polygon fill="#FBFB77" filter="url(#fygu9ii)" points="3.8545,620.3739,3.8545,646.4693,161.2447,646.4693,161.2447,626.798,154.8206,620.3739,3.8545,620.3739" style="stroke: #A80036; stroke-width: 0.6424090338770388;"/><polygon fill="#FBFB77" points="3.8545,620.3739,3.8545,646.4693,79.9799,646.4693,82.5496,764.7057,85.1192,646.4693,161.2447,646.4693,161.2447,626.798,154.8206,620.3739,3.8545,620.3739" style="stroke: #A80036; stroke-width: 0.6424090338770388;"/><line style="stroke: #A80036; stroke-width: 0.6424090338770388;" x1="154.8206" x2="154.8206" y1="620.3739" y2="626.798"/><line style="stroke: #A80036; stroke-width: 0.6424090338770388;" x1="161.2447" x2="154.8206" y1="626.798" y2="626.798"/><text fill="#000000" font-family="sans-serif" font-size="8.3513" lengthAdjust="spacingAndGlyphs" textLength="143.8996" x="7.7089" y="631.66">Used as an intermediate format and</text><text fill="#000000" font-family="sans-serif" font-size="8.3513" lengthAdjust="spacingAndGlyphs" textLength="127.197" x="7.7089" y="641.4956">to verify incompatible changes.</text><polygon fill="#FBFB77" filter="url(#fygu9ii)" points="151.2873,962.4567,151.2873,1047.5659,293.9021,1047.5659,293.9021,968.8808,287.478,962.4567,151.2873,962.4567" style="stroke: #A80036; stroke-width: 0.6424090338770388;"/><line style="stroke: #A80036; stroke-width: 0.6424090338770388;" x1="287.478" x2="287.478" y1="962.4567" y2="968.8808"/><line style="stroke: #A80036; stroke-width: 0.6424090338770388;" x1="293.9021" x2="287.478" y1="968.8808" y2="968.8808"/><text fill="#000000" font-family="sans-serif" font-size="8.3513" lengthAdjust="spacingAndGlyphs" textLength="100.8582" x="155.1418" y="973.7428">Allows companies to use</text><text fill="#000000" font-family="sans-serif" font-size="8.3513" lengthAdjust="spacingAndGlyphs" textLength="111.7792" x="155.1418" y="983.5784">their own Modelica libraries</text><text fill="#000000" font-family="sans-serif" font-size="8.3513" lengthAdjust="spacingAndGlyphs" textLength="129.1242" x="155.1418" y="993.4141">with custom HVAC systems and</text><text fill="#000000" font-family="sans-serif" font-size="8.3513" lengthAdjust="spacingAndGlyphs" textLength="87.3676" x="155.1418" y="1003.2497">control sequences, or</text><text fill="#000000" font-family="sans-serif" font-size="8.3513" lengthAdjust="spacingAndGlyphs" textLength="101.5006" x="155.1418" y="1013.0853">to integrate an electronic</text><text fill="#000000" font-family="sans-serif" font-size="8.3513" lengthAdjust="spacingAndGlyphs" textLength="93.1493" x="155.1418" y="1022.921">equipment catalog or a</text><text fill="#000000" font-family="sans-serif" font-size="8.3513" lengthAdjust="spacingAndGlyphs" textLength="119.4881" x="155.1418" y="1032.7566">library used for an equipment</text><text fill="#000000" font-family="sans-serif" font-size="8.3513" lengthAdjust="spacingAndGlyphs" textLength="41.7566" x="155.1418" y="1042.5922">sales tool.</text><polygon fill="#FBFB77" filter="url(#fygu9ii)" points="178.5897,20.6851,178.5897,46.7804,278.1631,46.7804,278.1631,27.1092,271.739,20.6851,178.5897,20.6851" style="stroke: #A80036; stroke-width: 0.6424090338770388;"/><polygon fill="#FBFB77" points="178.5897,20.6851,178.5897,31.2848,134.0351,33.8545,178.5897,36.4241,178.5897,46.7804,278.1631,46.7804,278.1631,27.1092,271.739,20.6851,178.5897,20.6851" style="stroke: #A80036; stroke-width: 0.6424090338770388;"/><line style="stroke: #A80036; stroke-width: 0.6424090338770388;" x1="271.739" x2="271.739" y1="20.6851" y2="27.1092"/><line style="stroke: #A80036; stroke-width: 0.6424090338770388;" x1="278.1631" x2="271.739" y1="27.1092" y2="27.1092"/><text fill="#000000" font-family="sans-serif" font-size="8.3513" lengthAdjust="spacingAndGlyphs" textLength="86.0828" x="182.4442" y="31.9711">Application that uses</text><text fill="#000000" font-family="sans-serif" font-size="8.3513" lengthAdjust="spacingAndGlyphs" textLength="83.5132" x="182.4442" y="41.8068">the OpenStudio SDK.</text><path d="M270.9442,138.5671 C390.6647,138.5671 510.3852,138.5671 630.1057,138.5671 " fill="none" style="stroke: #A80036; stroke-width: 0.6424090338770388;"/><path d="M677.3103,143.2116 C715.3749,151.3695 785.9875,169.632 785.9875,192.8507 C785.9875,192.8507 785.9875,192.8507 785.9875,492.5345 C785.9875,534.8355 792.0779,583.9514 796.0744,611.6271 " fill="none" style="stroke: #A80036; stroke-width: 0.6424090338770388;"/><polygon fill="#A80036" points="796.5508,614.894,798.2589,608.802,796.0871,611.7156,793.1735,609.5438,796.5508,614.894" style="stroke: #A80036; stroke-width: 0.6424090338770388;"/><text fill="#000000" font-family="sans-serif" font-size="8.3513" lengthAdjust="spacingAndGlyphs" textLength="40.4718" x="786.6299" y="320.734">integrates</text><path d="M677.2428,141.2841 C738.8253,148.6931 899.6939,170.2137 899.6939,192.8507 C899.6939,192.8507 899.6939,192.8507 899.6939,492.5345 C899.6939,534.0125 907.1784,581.8436 912.3143,609.7831 " fill="none" style="stroke: #A80036; stroke-width: 0.6424090338770388;"/><polygon fill="#A80036" points="912.9284,613.09,914.3991,606.9363,912.3419,609.932,909.3462,607.8747,912.9284,613.09" style="stroke: #A80036; stroke-width: 0.6424090338770388;"/><text fill="#000000" font-family="sans-serif" font-size="8.3513" lengthAdjust="spacingAndGlyphs" textLength="40.4718" x="900.3363" y="320.734">integrates</text><path d="M663.1678,153.3705 C669.0538,163.9402 675.4931,178.7303 675.4931,192.8507 C675.4931,192.8507 675.4931,192.8507 675.4931,492.5345 C675.4931,533.9294 679.9537,581.9793 682.998,609.9517 " fill="none" style="stroke: #A80036; stroke-width: 0.6424090338770388;"/><polygon fill="#A80036" points="683.3618,613.2617,685.2842,607.2338,683.0107,610.0689,680.1757,607.7954,683.3618,613.2617" style="stroke: #A80036; stroke-width: 0.6424090338770388;"/><text fill="#000000" font-family="sans-serif" font-size="8.3513" lengthAdjust="spacingAndGlyphs" textLength="40.4718" x="676.1355" y="320.734">integrates</text><path d="M630.0302,143.1034 C604.9392,149.4529 568.8532,163.6591 568.8532,192.8507 C568.8532,192.8507 568.8532,192.8507 568.8532,492.5345 C568.8532,534.7549 564.2129,583.8985 561.1679,611.6011 " fill="none" style="stroke: #A80036; stroke-width: 0.6424090338770388;"/><polygon fill="#A80036" points="560.805,614.8713,563.9969,609.4085,561.1594,611.6789,558.889,608.8414,560.805,614.8713" style="stroke: #A80036; stroke-width: 0.6424090338770388;"/><text fill="#000000" font-family="sans-serif" font-size="8.3513" lengthAdjust="spacingAndGlyphs" textLength="40.4718" x="569.4956" y="320.734">integrates</text><path d="M630.0578,140.0801 C577.7094,144.0834 456.4316,157.2047 456.4316,192.8507 C456.4316,192.8507 456.4316,192.8507 456.4316,492.5345 C456.4316,534.0659 449.7407,582.0725 445.1744,609.9994 " fill="none" style="stroke: #A80036; stroke-width: 0.6424090338770388;"/><polygon fill="#A80036" points="444.6286,613.3038,448.1061,608.0182,445.152,610.1347,443.0355,607.1806,444.6286,613.3038" style="stroke: #A80036; stroke-width: 0.6424090338770388;"/><text fill="#000000" font-family="sans-serif" font-size="8.3513" lengthAdjust="spacingAndGlyphs" textLength="40.4718" x="457.074" y="320.734">integrates</text><path d="M630.1054,140.1148 C556.7076,145.2502 336.9435,163.1099 336.9435,192.8507 C336.9435,192.8507 336.9435,192.8507 336.9435,492.5345 C336.9435,534.7217 323.1064,582.2753 313.596,609.977 " fill="none" style="stroke: #A80036; stroke-width: 0.6424090338770388;"/><polygon fill="#A80036" points="312.5167,613.0899,316.8386,608.4691,313.569,610.0551,311.9829,606.7854,312.5167,613.0899" style="stroke: #A80036; stroke-width: 0.6424090338770388;"/><text fill="#000000" font-family="sans-serif" font-size="8.3513" lengthAdjust="spacingAndGlyphs" textLength="40.4718" x="337.5859" y="320.734">integrates</text><path d="M802.6633,655.4185 C806.5743,682.2777 813.2054,727.8183 817.4183,756.7507 " fill="none" style="stroke: #A80036; stroke-width: 0.6424090338770388; stroke-dasharray: 7.0,7.0;"/><polygon fill="#A80036" points="802.2002,652.2379,800.4904,658.3295,802.663,655.4164,805.5761,657.589,802.2002,652.2379" style="stroke: #A80036; stroke-width: 0.6424090338770388;"/><text fill="#000000" font-family="sans-serif" font-size="8.3513" lengthAdjust="spacingAndGlyphs" textLength="32.1205" x="812.3262" y="708.1066">updates</text><path d="M427.8659,653.8221 C414.2223,673.3579 391.1771,702.4516 364.5671,719.9473 C315.5225,752.1935 248.7505,769.3335 207.7066,777.4177 " fill="none" style="stroke: #A80036; stroke-width: 0.6424090338770388; stroke-dasharray: 7.0,7.0;"/><polygon fill="#A80036" points="204.307,778.0782,210.4726,779.498,207.4601,777.4656,209.4925,774.4531,204.307,778.0782" style="stroke: #A80036; stroke-width: 0.6424090338770388;"/><text fill="#000000" font-family="sans-serif" font-size="8.3513" lengthAdjust="spacingAndGlyphs" textLength="26.3388" x="397.9724" y="703.2886">parses</text><text fill="#000000" font-family="sans-serif" font-size="8.3513" lengthAdjust="spacingAndGlyphs" textLength="15.4178" x="403.4329" y="713.1242">AST</text><path d="M566.8805,655.3344 C578.6699,686.265 599.9483,742.0909 610.0842,768.6836 " fill="none" style="stroke: #A80036; stroke-width: 0.6424090338770388; stroke-dasharray: 7.0,7.0;"/><polygon fill="#A80036" points="565.7003,652.2379,565.3586,658.5557,566.8444,655.2393,570.1608,656.7251,565.7003,652.2379" style="stroke: #A80036; stroke-width: 0.6424090338770388;"/><text fill="#000000" font-family="sans-serif" font-size="8.3513" lengthAdjust="spacingAndGlyphs" textLength="68.0954" x="605.7917" y="703.2886">augments library</text><text fill="#000000" font-family="sans-serif" font-size="8.3513" lengthAdjust="spacingAndGlyphs" textLength="98.2886" x="590.6951" y="713.1242">by generating C++ code</text><path d="M563.9241,783.5458 C472.9979,783.5458 286.8746,783.5458 207.6202,783.5458 " fill="none" style="stroke: #A80036; stroke-width: 0.6424090338770388; stroke-dasharray: 7.0,7.0;"/><polygon fill="#A80036" points="204.3865,783.5458,210.1682,786.1154,207.5986,783.5458,210.1682,780.9762,204.3865,783.5458" style="stroke: #A80036; stroke-width: 0.6424090338770388;"/><text fill="#000000" font-family="sans-serif" font-size="8.3513" lengthAdjust="spacingAndGlyphs" textLength="26.3388" x="370.9912" y="769.7779">parses</text><text fill="#000000" font-family="sans-serif" font-size="8.3513" lengthAdjust="spacingAndGlyphs" textLength="15.4178" x="376.4517" y="779.6136">AST</text><path d="M282.2475,654.0005 C271.119,664.3938 257.6908,677.4079 246.3639,689.7541 C223.0929,715.1192 198.4457,746.59 183.7888,765.8613 " fill="none" style="stroke: #A80036; stroke-width: 0.6424090338770388; stroke-dasharray: 7.0,7.0;"/><polygon fill="#A80036" points="181.7001,768.6139,187.2421,765.5614,183.6417,766.0551,183.148,762.4548,181.7001,768.6139" style="stroke: #A80036; stroke-width: 0.6424090338770388;"/><text fill="#000000" font-family="sans-serif" font-size="8.3513" lengthAdjust="spacingAndGlyphs" textLength="55.2472" x="252.4668" y="698.4705">writes inputs,</text><text fill="#000000" font-family="sans-serif" font-size="8.3513" lengthAdjust="spacingAndGlyphs" textLength="66.1681" x="247.0063" y="708.3061">runs simulation,</text><text fill="#000000" font-family="sans-serif" font-size="8.3513" lengthAdjust="spacingAndGlyphs" textLength="55.8896" x="252.1455" y="718.1418">reads outputs</text><path d="M573.0554,768.7044 C522.6621,752.0388 435.979,726.0263 359.1066,716.0928 C307.604,709.4377 171.3782,700.5847 125.591,725.0866 C110.7144,733.0474 99.6264,748.6692 92.4329,761.7623 " fill="none" style="stroke: #A80036; stroke-width: 0.6424090338770388;"/><polygon fill="#A80036" points="90.8677,764.6852,95.8625,760.8016,92.3841,761.8536,91.332,758.3753,90.8677,764.6852" style="stroke: #A80036; stroke-width: 0.6424090338770388;"/><text fill="#000000" font-family="sans-serif" font-size="8.3513" lengthAdjust="spacingAndGlyphs" textLength="39.187" x="319.2773" y="708.1066">generates</text><path d="M204.4176,772.9823 C257.9991,756.8759 365.9159,726.9081 459.9649,716.0928 C528.1166,708.2557 609.9781,693.242 678.7051,725.0866 C695.8347,733.0235 710.1692,749.0149 719.8471,762.2689 " fill="none" style="stroke: #A80036; stroke-width: 0.6424090338770388;"/><polygon fill="#A80036" points="721.72,764.88,720.4381,758.6842,719.8478,762.2699,716.2621,761.6797,721.72,764.88" style="stroke: #A80036; stroke-width: 0.6424090338770388;"/><text fill="#000000" font-family="sans-serif" font-size="8.3513" lengthAdjust="spacingAndGlyphs" textLength="31.478" x="460.6073" y="708.1066">imports</text><path d="M615.7491,801.7986 C615.7491,817.8527 615.7491,841.4297 615.7491,859.6081 " fill="none" style="stroke: #A80036; stroke-width: 0.6424090338770388; stroke-dasharray: 7.0,7.0;"/><polygon fill="#A80036" points="615.7491,798.4917,613.1794,804.2734,615.7491,801.7037,618.3187,804.2734,615.7491,798.4917" style="stroke: #A80036; stroke-width: 0.6424090338770388;"/><text fill="#000000" font-family="sans-serif" font-size="8.3513" lengthAdjust="spacingAndGlyphs" textLength="31.478" x="616.3915" y="838.1945">invokes</text><path d="M733.3099,805.688 C733.3099,821.5165 733.3099,842.8948 733.3099,859.6629 " fill="none" style="stroke: #A80036; stroke-width: 0.6424090338770388; stroke-dasharray: 7.0,7.0;"/><polygon fill="#A80036" points="733.3099,802.3983,730.7403,808.1799,733.3099,805.6103,735.8795,808.1799,733.3099,802.3983" style="stroke: #A80036; stroke-width: 0.6424090338770388;"/><text fill="#000000" font-family="sans-serif" font-size="8.3513" lengthAdjust="spacingAndGlyphs" textLength="70.0226" x="733.9523" y="838.1945">adds annotations</text><path d="M150.5333,907.7946 C144.6309,915.1002 138.6671,923.6162 134.5847,932.2635 C127.8069,946.6203 123.8346,963.9391 121.5366,978.0592 " fill="none" style="stroke: #A80036; stroke-width: 0.6424090338770388; stroke-dasharray: 7.0,7.0;"/><polygon fill="#A80036" points="152.7015,905.1598,147.0434,907.9913,150.6604,907.64,151.0117,911.257,152.7015,905.1598" style="stroke: #A80036; stroke-width: 0.6424090338770388;"/><text fill="#000000" font-family="sans-serif" font-size="8.3513" lengthAdjust="spacingAndGlyphs" textLength="70.0226" x="135.2271" y="940.9799">adds annotations</text><path d="M119.7074,48.6351 C156.9203,71.8754 227.5623,115.9928 253.6773,132.3022 " fill="none" style="stroke: #A80036; stroke-width: 0.6424090338770388; stroke-dasharray: 7.0,7.0;"/><polygon fill="#A80036" points="256.636,134.15,253.0934,128.9078,253.9117,132.4485,250.371,133.2668,256.636,134.15" style="stroke: #A80036; stroke-width: 0.6424090338770388;"/><text fill="#000000" font-family="sans-serif" font-size="8.3513" lengthAdjust="spacingAndGlyphs" textLength="18.6299" x="166.0627" y="76.6186">uses</text><path d="M324.3992,48.6351 C310.6199,69.0535 285.9654,105.5871 272.7172,125.2185 " fill="none" style="stroke: #A80036; stroke-width: 0.6424090338770388; stroke-dasharray: 7.0,7.0;"/><polygon fill="#A80036" points="270.8479,127.9884,276.2121,124.6334,272.6447,125.3259,271.9522,121.7585,270.8479,127.9884" style="stroke: #A80036; stroke-width: 0.6424090338770388;"/><text fill="#000000" font-family="sans-serif" font-size="8.3513" lengthAdjust="spacingAndGlyphs" textLength="18.6299" x="309.9624" y="76.6186">uses</text><path d="M170.5596,798.4917 C170.5596,815.7554 170.5596,844.3239 170.5596,864.1738 " fill="none" style="stroke: #A80036; stroke-width: 0.6424090338770388;"/><polygon fill="#A80036" points="170.5596,867.5274,173.1292,861.7457,170.5596,864.3154,167.99,861.7457,170.5596,867.5274" style="stroke: #A80036; stroke-width: 0.6424090338770388;"/><text fill="#000000" font-family="sans-serif" font-size="8.3513" lengthAdjust="spacingAndGlyphs" textLength="31.478" x="171.202" y="838.1945">imports</text><path d="M79.6324,522.8269 C79.6603,522.8914 79.6883,522.9559 79.7165,523.0203 C79.9418,523.5354 80.1753,524.0471 80.4174,524.5545 C80.9015,525.5691 81.4197,526.5662 81.9746,527.5381 C83.0842,529.4819 84.3402,531.3249 85.7616,533.0063 C108.5967,560.0164 122.678,560.0775 157.069,568.3388 C181.2927,574.1577 581.8765,565.4797 605.4705,573.478 C628.8836,581.4151 651.0297,599.0277 666.1107,613.1401 " fill="none" style="stroke: #A80036; stroke-width: 0.6424090338770388; stroke-dasharray: 7.0,7.0;"/><polygon fill="#A80036" points="79.6324,522.8269,79.5696,529.1536,80.9078,525.7749,84.2864,527.1131,79.6324,522.8269" style="stroke: #A80036; stroke-width: 0.6424090338770388;"/><text fill="#000000" font-family="sans-serif" font-size="8.3513" lengthAdjust="spacingAndGlyphs" textLength="55.2472" x="163.1719" y="546.862">writes inputs,</text><text fill="#000000" font-family="sans-serif" font-size="8.3513" lengthAdjust="spacingAndGlyphs" textLength="66.1681" x="157.7114" y="556.6976">runs simulation,</text><text fill="#000000" font-family="sans-serif" font-size="8.3513" lengthAdjust="spacingAndGlyphs" textLength="55.8896" x="162.8507" y="566.5332">reads outputs</text><path d="M189.7263,905.1748 C196.6182,912.9558 203.8271,922.4468 208.4617,932.2635 C212.8469,941.5519 215.8716,952.1241 217.9578,962.2707 " fill="none" style="stroke: #A80036; stroke-width: 0.6424090338770388; stroke-dasharray: 7.0,7.0;"/></g></svg>