<?xml version="1.0" encoding="UTF-8" standalone="no"?><svg xmlns="http://www.w3.org/2000/svg" xmlns:xlink="http://www.w3.org/1999/xlink" contentScriptType="application/ecmascript" contentStyleType="text/css" height="419px" preserveAspectRatio="none" style="width:820px;height:419px;" version="1.1" viewBox="0 0 820 419" width="820px" zoomAndPan="magnify"><defs><filter height="300%" id="f9tq27p" width="300%" x="-1" y="-1"><feGaussianBlur result="blurOut" stdDeviation="2.0"/><feColorMatrix in="blurOut" result="blurOut2" type="matrix" values="0 0 0 0 0 0 0 0 0 0 0 0 0 0 0 0 0 0 .4 0"/><feOffset dx="4.0" dy="4.0" in="blurOut2" result="blurOut3"/><feBlend in="SourceGraphic" in2="blurOut3" mode="normal"/></filter></defs><g><text fill="#000000" font-family="sans-serif" font-size="18" lengthAdjust="spacingAndGlyphs" textLength="712" x="67.5" y="16.708">Software architecture for QSS integration with JModelica with extended FMI API</text><!--cluster FMU-ME--><polygon fill="#FFFFFF" filter="url(#f9tq27p)" points="50.4224,190.9531,117.4224,190.9531,124.4224,213.25,354.422,213.25,354.422,412.9531,50.4224,412.9531,50.4224,190.9531" style="stroke: #000000; stroke-width: 2.0;"/><line style="stroke: #000000; stroke-width: 2.0;" x1="50.4224" x2="124.4224" y1="213.25" y2="213.25"/><text fill="#000000" font-family="sans-serif" font-size="14" font-weight="bold" lengthAdjust="spacingAndGlyphs" textLength="61" x="54.4224" y="205.9482">FMU-ME</text><!--cluster PyFMI--><polygon fill="#FFFFFF" filter="url(#f9tq27p)" points="242.422,44.9531,293.422,44.9531,300.422,67.25,597.422,67.25,597.422,141.9531,242.422,141.9531,242.422,44.9531" style="stroke: #000000; stroke-width: 2.0;"/><line style="stroke: #000000; stroke-width: 2.0;" x1="242.422" x2="300.422" y1="67.25" y2="67.25"/><text fill="#000000" font-family="sans-serif" font-size="14" font-weight="bold" lengthAdjust="spacingAndGlyphs" textLength="45" x="246.422" y="59.9482">PyFMI</text><!--cluster Optimica--><polygon fill="#FFFFFF" filter="url(#f9tq27p)" points="615.422,190.9531,689.422,190.9531,696.422,213.25,813.422,213.25,813.422,287.9531,615.422,287.9531,615.422,190.9531" style="stroke: #000000; stroke-width: 2.0;"/><line style="stroke: #000000; stroke-width: 2.0;" x1="615.422" x2="696.422" y1="213.25" y2="213.25"/><text fill="#000000" font-family="sans-serif" font-size="14" font-weight="bold" lengthAdjust="spacingAndGlyphs" textLength="68" x="619.422" y="205.9482">Optimica</text><!--entity qss_sol--><rect fill="#FEFECE" filter="url(#f9tq27p)" height="46.2969" style="stroke: #A80036; stroke-width: 1.5;" width="114" x="73.4224" y="225.9531"/><rect fill="#FEFECE" height="10" style="stroke: #A80036; stroke-width: 1.5;" width="15" x="167.4224" y="230.9531"/><rect fill="#FEFECE" height="2" style="stroke: #A80036; stroke-width: 1.5;" width="4" x="165.4224" y="232.9531"/><rect fill="#FEFECE" height="2" style="stroke: #A80036; stroke-width: 1.5;" width="4" x="165.4224" y="236.9531"/><text fill="#000000" font-family="sans-serif" font-size="14" lengthAdjust="spacingAndGlyphs" textLength="74" x="88.4224" y="258.9482">QSS solver</text><!--entity FMU_QSS--><rect fill="#FEFECE" filter="url(#f9tq27p)" height="46.2969" style="stroke: #A80036; stroke-width: 1.5;" width="96" x="219.422" y="350.9531"/><rect fill="#FEFECE" height="10" style="stroke: #A80036; stroke-width: 1.5;" width="15" x="295.422" y="355.9531"/><rect fill="#FEFECE" height="2" style="stroke: #A80036; stroke-width: 1.5;" width="4" x="293.422" y="357.9531"/><rect fill="#FEFECE" height="2" style="stroke: #A80036; stroke-width: 1.5;" width="4" x="293.422" y="361.9531"/><text fill="#000000" font-family="sans-serif" font-size="14" lengthAdjust="spacingAndGlyphs" textLength="56" x="234.422" y="383.9482">FMU-ME</text><!--entity Master algorithm--><rect fill="#FEFECE" filter="url(#f9tq27p)" height="46.2969" style="stroke: #A80036; stroke-width: 1.5;" width="155" x="258.922" y="79.9531"/><rect fill="#FEFECE" height="10" style="stroke: #A80036; stroke-width: 1.5;" width="15" x="393.922" y="84.9531"/><rect fill="#FEFECE" height="2" style="stroke: #A80036; stroke-width: 1.5;" width="4" x="391.922" y="86.9531"/><rect fill="#FEFECE" height="2" style="stroke: #A80036; stroke-width: 1.5;" width="4" x="391.922" y="90.9531"/><text fill="#000000" font-family="sans-serif" font-size="14" lengthAdjust="spacingAndGlyphs" textLength="115" x="273.922" y="112.9482">Master algorithm</text><!--entity Sundials--><rect fill="#FEFECE" filter="url(#f9tq27p)" height="46.2969" style="stroke: #A80036; stroke-width: 1.5;" width="98" x="483.422" y="79.9531"/><rect fill="#FEFECE" height="10" style="stroke: #A80036; stroke-width: 1.5;" width="15" x="561.422" y="84.9531"/><rect fill="#FEFECE" height="2" style="stroke: #A80036; stroke-width: 1.5;" width="4" x="559.422" y="86.9531"/><rect fill="#FEFECE" height="2" style="stroke: #A80036; stroke-width: 1.5;" width="4" x="559.422" y="90.9531"/><text fill="#000000" font-family="sans-serif" font-size="14" lengthAdjust="spacingAndGlyphs" textLength="58" x="498.422" y="112.9482">Sundials</text><!--entity jmc--><rect fill="#FEFECE" filter="url(#f9tq27p)" height="46.2969" style="stroke: #A80036; stroke-width: 1.5;" width="167" x="630.922" y="225.9531"/><rect fill="#FEFECE" height="10" style="stroke: #A80036; stroke-width: 1.5;" width="15" x="777.922" y="230.9531"/><rect fill="#FEFECE" height="2" style="stroke: #A80036; stroke-width: 1.5;" width="4" x="775.922" y="232.9531"/><rect fill="#FEFECE" height="2" style="stroke: #A80036; stroke-width: 1.5;" width="4" x="775.922" y="236.9531"/><text fill="#000000" font-family="sans-serif" font-size="14" lengthAdjust="spacingAndGlyphs" textLength="127" x="645.922" y="258.9482">JModelica compiler</text><!--entity FMU-ME--><rect fill="#FEFECE" filter="url(#f9tq27p)" height="46.2969" style="stroke: #A80036; stroke-width: 1.5;" width="96" x="499.422" y="225.9531"/><rect fill="#FEFECE" height="10" style="stroke: #A80036; stroke-width: 1.5;" width="15" x="575.422" y="230.9531"/><rect fill="#FEFECE" height="2" style="stroke: #A80036; stroke-width: 1.5;" width="4" x="573.422" y="232.9531"/><rect fill="#FEFECE" height="2" style="stroke: #A80036; stroke-width: 1.5;" width="4" x="573.422" y="236.9531"/><text fill="#000000" font-family="sans-serif" font-size="14" lengthAdjust="spacingAndGlyphs" textLength="56" x="514.422" y="258.9482">FMU-ME</text><!--entity FMU-CS--><rect fill="#FEFECE" filter="url(#f9tq27p)" height="46.2969" style="stroke: #A80036; stroke-width: 1.5;" width="94" x="370.422" y="225.9531"/><rect fill="#FEFECE" height="10" style="stroke: #A80036; stroke-width: 1.5;" width="15" x="444.422" y="230.9531"/><rect fill="#FEFECE" height="2" style="stroke: #A80036; stroke-width: 1.5;" width="4" x="442.422" y="232.9531"/><rect fill="#FEFECE" height="2" style="stroke: #A80036; stroke-width: 1.5;" width="4" x="442.422" y="236.9531"/><text fill="#000000" font-family="sans-serif" font-size="14" lengthAdjust="spacingAndGlyphs" textLength="54" x="385.422" y="258.9482">FMU-CS</text><path d="M258.72,105.8051 C173.358,109.6751 44.2368,121.5591 13.4224,157.9531 C-10.2877,185.9561 29.123,210.7881 68.465,227.2371 " fill="none" style="stroke: #A80036; stroke-width: 1.0;"/><polygon fill="#A80036" points="73.2582,229.2011,66.4474,222.0868,68.6317,227.3049,63.4136,229.4892,73.2582,229.2011" style="stroke: #A80036; stroke-width: 1.0;"/><text fill="#000000" font-family="sans-serif" font-size="13" lengthAdjust="spacingAndGlyphs" textLength="76" x="14.4224" y="171.02">inputs, time</text><path d="M253.88,112.0771 C220.411,119.2961 183.758,132.7961 158.422,157.9531 C140.308,175.9401 133.873,205.4251 131.61,225.7171 " fill="none" style="stroke: #A80036; stroke-width: 1.0;"/><polygon fill="#A80036" points="258.793,111.0571,249.1675,108.9715,253.8975,112.0742,250.7948,116.8043,258.793,111.0571" style="stroke: #A80036; stroke-width: 1.0;"/><text fill="#000000" font-family="sans-serif" font-size="13" lengthAdjust="spacingAndGlyphs" textLength="149" x="159.422" y="171.02">next event time, states</text><path d="M414.133,102.9531 C437.083,102.9531 460.032,102.9531 482.981,102.9531 " fill="none" style="stroke: #A80036; stroke-width: 1.0;"/><path d="M534.733,126.1371 C537.368,151.4321 541.679,192.8171 544.534,220.2211 " fill="none" style="stroke: #A80036; stroke-width: 1.0;"/><polygon fill="#A80036" points="545.084,225.5061,548.1319,216.1407,544.567,220.5329,540.1748,216.968,545.084,225.5061" style="stroke: #A80036; stroke-width: 1.0;"/><text fill="#000000" font-family="sans-serif" font-size="13" lengthAdjust="spacingAndGlyphs" textLength="30" x="541.422" y="171.02">(x, t)</text><path d="M560.281,130.0081 C567.231,138.2071 573.745,147.7961 577.422,157.9531 C585.721,180.8731 574.397,207.3721 563.366,225.6521 " fill="none" style="stroke: #A80036; stroke-width: 1.0;"/><polygon fill="#A80036" points="556.845,126.0981,559.7827,135.4986,560.1461,129.8535,565.7913,130.2169,556.845,126.0981" style="stroke: #A80036; stroke-width: 1.0;"/><text fill="#000000" font-family="sans-serif" font-size="13" lengthAdjust="spacingAndGlyphs" textLength="32" x="580.422" y="171.02">dx/dt</text><path d="M323.588,126.2631 C316.726,141.4391 311.675,161.1881 322.422,174.9531 C331.444,186.5081 341.722,175.6311 354.422,182.9531 C371.326,192.6991 386.652,208.2801 397.954,221.7441 " fill="none" style="stroke: #A80036; stroke-width: 1.0;"/><polygon fill="#A80036" points="401.33,225.8461,398.6967,216.3558,398.1516,221.9864,392.5211,221.4412,401.33,225.8461" style="stroke: #A80036; stroke-width: 1.0;"/><text fill="#000000" font-family="sans-serif" font-size="13" lengthAdjust="spacingAndGlyphs" textLength="76" x="323.422" y="171.02">hRequested</text><path d="M378.454,129.2461 C388.453,137.2141 398.057,146.8751 404.422,157.9531 C416.378,178.7591 418.719,206.5861 418.649,225.7621 " fill="none" style="stroke: #A80036; stroke-width: 1.0;"/><polygon fill="#A80036" points="374.457,126.1621,379.1391,134.8269,378.4157,129.2165,384.0261,128.493,374.457,126.1621" style="stroke: #A80036; stroke-width: 1.0;"/><text fill="#000000" font-family="sans-serif" font-size="13" lengthAdjust="spacingAndGlyphs" textLength="59" x="412.422" y="171.02">(x, hMax)</text><path d="M670.978,272.1441 C653.434,280.4651 632.789,289.4671 613.422,295.9531 C512.333,329.8095 389.615,353.1049 320.833,364.6288 " fill="none" style="stroke: #A80036; stroke-width: 1.0;"/><polygon fill="#A80036" points="315.568,365.5055,325.1029,367.9726,320.5001,364.6841,323.7886,360.0813,315.568,365.5055" style="stroke: #A80036; stroke-width: 1.0;"/><path d="M258.663,350.6799 C252.051,336.0397 241.824,317.2111 228.422,303.9531 C216.658,292.3151 201.871,282.4431 187.376,274.4501 " fill="none" style="stroke: #A80036; stroke-width: 1.0;"/><polygon fill="#A80036" points="182.891,272.0301,188.913,279.8235,187.2916,274.4039,192.7111,272.7825,182.891,272.0301" style="stroke: #A80036; stroke-width: 1.0;"/><text fill="#000000" font-family="sans-serif" font-size="13" lengthAdjust="spacingAndGlyphs" textLength="69" x="243.422" y="317.02">derivatives</text><path d="M106.714,272.1871 C94.0678,286.7751 83.2066,305.8701 94.4224,320.9531 C121.646,357.5626 173.791,369.3568 213.745,372.7167 " fill="none" style="stroke: #A80036; stroke-width: 1.0;"/><polygon fill="#A80036" points="219.049,373.1197,210.3777,368.4498,214.0634,372.7411,209.772,376.4268,219.049,373.1197" style="stroke: #A80036; stroke-width: 1.0;"/><text fill="#000000" font-family="sans-serif" font-size="13" lengthAdjust="spacingAndGlyphs" textLength="124" x="95.4224" y="317.02">inputs, time, states</text></g></svg>