<?xml version="1.0" encoding="UTF-8" standalone="no"?><svg xmlns="http://www.w3.org/2000/svg" xmlns:xlink="http://www.w3.org/1999/xlink" contentScriptType="application/ecmascript" contentStyleType="text/css" height="1409px" preserveAspectRatio="none" style="width:2067px;height:1409px;" version="1.1" viewBox="0 0 2067 1409" width="2067px" zoomAndPan="magnify"><defs><filter height="300%" id="fghahr6" width="300%" x="-1" y="-1"><feGaussianBlur result="blurOut" stdDeviation="2.0"/><feColorMatrix in="blurOut" result="blurOut2" type="matrix" values="0 0 0 0 0 0 0 0 0 0 0 0 0 0 0 0 0 0 .4 0"/><feOffset dx="4.0" dy="4.0" in="blurOut2" result="blurOut3"/><feBlend in="SourceGraphic" in2="blurOut3" mode="normal"/></filter></defs><g><text fill="#000000" font-family="sans-serif" font-size="18" lengthAdjust="spacingAndGlyphs" textLength="598" x="752.25" y="16.708">Overall software architecture (with one editor for the SOEP mode).</text><!--cluster OpenStudio--><polygon fill="#FFFFFF" filter="url(#fghahr6)" points="244.25,156.9531,342.25,156.9531,349.25,179.25,1470.25,179.25,1470.25,640.9531,244.25,640.9531,244.25,156.9531" style="stroke: #000000; stroke-width: 2.0;"/><line style="stroke: #000000; stroke-width: 2.0;" x1="244.25" x2="349.25" y1="179.25" y2="179.25"/><text fill="#000000" font-family="sans-serif" font-size="14" font-weight="bold" lengthAdjust="spacingAndGlyphs" textLength="92" x="248.25" y="171.9482">OpenStudio</text><!--cluster Legacy-Mode--><polygon fill="#FFFFFF" filter="url(#fghahr6)" points="873.25,492.9531,984.25,492.9531,991.25,515.25,1438.25,515.25,1438.25,608.9531,873.25,608.9531,873.25,492.9531" style="stroke: #000000; stroke-width: 2.0;"/><line style="stroke: #000000; stroke-width: 2.0;" x1="873.25" x2="991.25" y1="515.25" y2="515.25"/><text fill="#000000" font-family="sans-serif" font-size="14" font-weight="bold" lengthAdjust="spacingAndGlyphs" textLength="105" x="877.25" y="507.9482">Legacy-Mode</text><!--cluster SOEP-Mode--><polygon fill="#FFFFFF" filter="url(#fghahr6)" points="284.25,492.9531,380.25,492.9531,387.25,515.25,849.25,515.25,849.25,608.9531,284.25,608.9531,284.25,492.9531" style="stroke: #000000; stroke-width: 2.0;"/><line style="stroke: #000000; stroke-width: 2.0;" x1="284.25" x2="387.25" y1="515.25" y2="515.25"/><text fill="#000000" font-family="sans-serif" font-size="14" font-weight="bold" lengthAdjust="spacingAndGlyphs" textLength="90" x="288.25" y="507.9482">SOEP-Mode</text><!--cluster EnergyPlus--><polygon fill="#FFFFFF" filter="url(#fghahr6)" points="1510.25,290.9531,1604.25,290.9531,1611.25,313.25,2060.25,313.25,2060.25,404.9531,1510.25,404.9531,1510.25,290.9531" style="stroke: #000000; stroke-width: 2.0;"/><line style="stroke: #000000; stroke-width: 2.0;" x1="1510.25" x2="1611.25" y1="313.25" y2="313.25"/><text fill="#000000" font-family="sans-serif" font-size="14" font-weight="bold" lengthAdjust="spacingAndGlyphs" textLength="88" x="1514.25" y="305.9482">EnergyPlus</text><!--cluster SOEP--><polygon fill="#FFFFFF" filter="url(#fghahr6)" points="255.25,736.9531,302.25,736.9531,309.25,759.25,579.25,759.25,579.25,1204.9531,255.25,1204.9531,255.25,736.9531" style="stroke: #000000; stroke-width: 2.0;"/><line style="stroke: #000000; stroke-width: 2.0;" x1="255.25" x2="309.25" y1="759.25" y2="759.25"/><text fill="#000000" font-family="sans-serif" font-size="14" font-weight="bold" lengthAdjust="spacingAndGlyphs" textLength="41" x="259.25" y="751.9482">SOEP</text><!--entity API--><ellipse cx="778.5" cy="209.9531" fill="#FEFECE" filter="url(#fghahr6)" rx="8" ry="8" style="stroke: #A80036; stroke-width: 2.0;"/><text fill="#000000" font-family="sans-serif" font-size="14" lengthAdjust="spacingAndGlyphs" textLength="21" x="768" y="231.9482">API</text><!--entity Core--><rect fill="#FEFECE" filter="url(#fghahr6)" height="46.2969" style="stroke: #A80036; stroke-width: 1.5;" width="73" x="742" y="334.9531"/><rect fill="#FEFECE" height="10" style="stroke: #A80036; stroke-width: 1.5;" width="15" x="795" y="339.9531"/><rect fill="#FEFECE" height="2" style="stroke: #A80036; stroke-width: 1.5;" width="4" x="793" y="341.9531"/><rect fill="#FEFECE" height="2" style="stroke: #A80036; stroke-width: 1.5;" width="4" x="793" y="345.9531"/><text fill="#000000" font-family="sans-serif" font-size="14" lengthAdjust="spacingAndGlyphs" textLength="33" x="757" y="367.9482">Core</text><!--entity Legacy\nModel Library--><path d="M889.25,541.9531 C889.25,531.9531 944.25,531.9531 944.25,531.9531 C944.25,531.9531 999.25,531.9531 999.25,541.9531 L999.25,579.5469 C999.25,589.5469 944.25,589.5469 944.25,589.5469 C944.25,589.5469 889.25,589.5469 889.25,579.5469 L889.25,541.9531 " fill="#FEFECE" filter="url(#fghahr6)" style="stroke: #000000; stroke-width: 1.5;"/><path d="M889.25,541.9531 C889.25,551.9531 944.25,551.9531 944.25,551.9531 C944.25,551.9531 999.25,551.9531 999.25,541.9531 " fill="none" style="stroke: #000000; stroke-width: 1.5;"/><text fill="#000000" font-family="sans-serif" font-size="14" lengthAdjust="spacingAndGlyphs" textLength="48" x="920.25" y="564.9482">Legacy</text><text fill="#000000" font-family="sans-serif" font-size="14" lengthAdjust="spacingAndGlyphs" textLength="90" x="899.25" y="581.2451">Model Library</text><!--entity HVAC Systems Editor\n(Legacy Mode)--><rect fill="#FEFECE" filter="url(#fghahr6)" height="62.5938" style="stroke: #A80036; stroke-width: 1.5;" width="185" x="1035" y="529.4531"/><rect fill="#FEFECE" height="10" style="stroke: #A80036; stroke-width: 1.5;" width="15" x="1200" y="534.4531"/><rect fill="#FEFECE" height="2" style="stroke: #A80036; stroke-width: 1.5;" width="4" x="1198" y="536.4531"/><rect fill="#FEFECE" height="2" style="stroke: #A80036; stroke-width: 1.5;" width="4" x="1198" y="540.4531"/><text fill="#000000" font-family="sans-serif" font-size="14" lengthAdjust="spacingAndGlyphs" textLength="145" x="1050" y="562.4482">HVAC Systems Editor</text><text fill="#000000" font-family="sans-serif" font-size="14" lengthAdjust="spacingAndGlyphs" textLength="101" x="1072" y="578.7451">(Legacy Mode)</text><!--entity EnergyPlus\nSimulator Interface--><rect fill="#FEFECE" filter="url(#fghahr6)" height="62.5938" style="stroke: #A80036; stroke-width: 1.5;" width="168" x="1254.75" y="529.4531"/><rect fill="#FEFECE" height="10" style="stroke: #A80036; stroke-width: 1.5;" width="15" x="1402.75" y="534.4531"/><rect fill="#FEFECE" height="2" style="stroke: #A80036; stroke-width: 1.5;" width="4" x="1400.75" y="536.4531"/><rect fill="#FEFECE" height="2" style="stroke: #A80036; stroke-width: 1.5;" width="4" x="1400.75" y="540.4531"/><text fill="#000000" font-family="sans-serif" font-size="14" lengthAdjust="spacingAndGlyphs" textLength="77" x="1295.25" y="562.4482">EnergyPlus</text><text fill="#000000" font-family="sans-serif" font-size="14" lengthAdjust="spacingAndGlyphs" textLength="128" x="1269.75" y="578.7451">Simulator Interface</text><!--entity SOEP\nModel Library--><path d="M300.25,541.9531 C300.25,531.9531 355.25,531.9531 355.25,531.9531 C355.25,531.9531 410.25,531.9531 410.25,541.9531 L410.25,579.5469 C410.25,589.5469 355.25,589.5469 355.25,589.5469 C355.25,589.5469 300.25,589.5469 300.25,579.5469 L300.25,541.9531 " fill="#FEFECE" filter="url(#fghahr6)" style="stroke: #000000; stroke-width: 1.5;"/><path d="M300.25,541.9531 C300.25,551.9531 355.25,551.9531 355.25,551.9531 C355.25,551.9531 410.25,551.9531 410.25,541.9531 " fill="none" style="stroke: #000000; stroke-width: 1.5;"/><text fill="#000000" font-family="sans-serif" font-size="14" lengthAdjust="spacingAndGlyphs" textLength="38" x="336.25" y="564.9482">SOEP</text><text fill="#000000" font-family="sans-serif" font-size="14" lengthAdjust="spacingAndGlyphs" textLength="90" x="310.25" y="581.2451">Model Library</text><!--entity HVAC Systems Editor\n(SOEP Mode)--><rect fill="#FEFECE" filter="url(#fghahr6)" height="62.5938" style="stroke: #A80036; stroke-width: 1.5;" width="185" x="446" y="529.4531"/><rect fill="#FEFECE" height="10" style="stroke: #A80036; stroke-width: 1.5;" width="15" x="611" y="534.4531"/><rect fill="#FEFECE" height="2" style="stroke: #A80036; stroke-width: 1.5;" width="4" x="609" y="536.4531"/><rect fill="#FEFECE" height="2" style="stroke: #A80036; stroke-width: 1.5;" width="4" x="609" y="540.4531"/><text fill="#000000" font-family="sans-serif" font-size="14" lengthAdjust="spacingAndGlyphs" textLength="145" x="461" y="562.4482">HVAC Systems Editor</text><text fill="#000000" font-family="sans-serif" font-size="14" lengthAdjust="spacingAndGlyphs" textLength="91" x="488" y="578.7451">(SOEP Mode)</text><!--entity SOEP\nSimulator Interface--><rect fill="#FEFECE" filter="url(#fghahr6)" height="62.5938" style="stroke: #A80036; stroke-width: 1.5;" width="168" x="665.75" y="529.4531"/><rect fill="#FEFECE" height="10" style="stroke: #A80036; stroke-width: 1.5;" width="15" x="813.75" y="534.4531"/><rect fill="#FEFECE" height="2" style="stroke: #A80036; stroke-width: 1.5;" width="4" x="811.75" y="536.4531"/><rect fill="#FEFECE" height="2" style="stroke: #A80036; stroke-width: 1.5;" width="4" x="811.75" y="540.4531"/><text fill="#000000" font-family="sans-serif" font-size="14" lengthAdjust="spacingAndGlyphs" textLength="38" x="725.75" y="562.4482">SOEP</text><text fill="#000000" font-family="sans-serif" font-size="14" lengthAdjust="spacingAndGlyphs" textLength="128" x="680.75" y="578.7451">Simulator Interface</text><!--entity in.idf--><rect fill="#FEFECE" filter="url(#fghahr6)" height="46.2969" style="stroke: #A80036; stroke-width: 1.5;" width="72" x="1553.25" y="334.9531"/><rect fill="#FEFECE" height="10" style="stroke: #A80036; stroke-width: 1.5;" width="15" x="1605.25" y="339.9531"/><rect fill="#FEFECE" height="2" style="stroke: #A80036; stroke-width: 1.5;" width="4" x="1603.25" y="341.9531"/><rect fill="#FEFECE" height="2" style="stroke: #A80036; stroke-width: 1.5;" width="4" x="1603.25" y="345.9531"/><text fill="#000000" font-family="sans-serif" font-size="14" lengthAdjust="spacingAndGlyphs" textLength="32" x="1568.25" y="367.9482">in.idf</text><!--entity EnergyPlus.exe--><rect fill="#FEFECE" filter="url(#fghahr6)" height="46.2969" style="stroke: #A80036; stroke-width: 1.5;" width="146" x="1695.25" y="334.9531"/><rect fill="#FEFECE" height="10" style="stroke: #A80036; stroke-width: 1.5;" width="15" x="1821.25" y="339.9531"/><rect fill="#FEFECE" height="2" style="stroke: #A80036; stroke-width: 1.5;" width="4" x="1819.25" y="341.9531"/><rect fill="#FEFECE" height="2" style="stroke: #A80036; stroke-width: 1.5;" width="4" x="1819.25" y="345.9531"/><text fill="#000000" font-family="sans-serif" font-size="14" lengthAdjust="spacingAndGlyphs" textLength="106" x="1710.25" y="367.9482">EnergyPlus.exe</text><!--entity eplusout.sql--><rect fill="#FEFECE" filter="url(#fghahr6)" height="46.2969" style="stroke: #A80036; stroke-width: 1.5;" width="125" x="1911" y="334.9531"/><rect fill="#FEFECE" height="10" style="stroke: #A80036; stroke-width: 1.5;" width="15" x="2016" y="339.9531"/><rect fill="#FEFECE" height="2" style="stroke: #A80036; stroke-width: 1.5;" width="4" x="2014" y="341.9531"/><rect fill="#FEFECE" height="2" style="stroke: #A80036; stroke-width: 1.5;" width="4" x="2014" y="345.9531"/><text fill="#000000" font-family="sans-serif" font-size="14" lengthAdjust="spacingAndGlyphs" textLength="85" x="1926" y="367.9482">eplusout.sql</text><!--entity JModelica--><rect fill="#FEFECE" filter="url(#fghahr6)" height="46.2969" style="stroke: #A80036; stroke-width: 1.5;" width="104" x="459.25" y="987.9531"/><rect fill="#FEFECE" height="10" style="stroke: #A80036; stroke-width: 1.5;" width="15" x="543.25" y="992.9531"/><rect fill="#FEFECE" height="2" style="stroke: #A80036; stroke-width: 1.5;" width="4" x="541.25" y="994.9531"/><rect fill="#FEFECE" height="2" style="stroke: #A80036; stroke-width: 1.5;" width="4" x="541.25" y="998.9531"/><text fill="#000000" font-family="sans-serif" font-size="14" lengthAdjust="spacingAndGlyphs" textLength="64" x="474.25" y="1020.9482">JModelica</text><!--entity Conversion Script--><rect fill="#FEFECE" filter="url(#fghahr6)" height="46.2969" style="stroke: #A80036; stroke-width: 1.5;" width="161" x="402" y="778.9531"/><rect fill="#FEFECE" height="10" style="stroke: #A80036; stroke-width: 1.5;" width="15" x="543" y="783.9531"/><rect fill="#FEFECE" height="2" style="stroke: #A80036; stroke-width: 1.5;" width="4" x="541" y="785.9531"/><rect fill="#FEFECE" height="2" style="stroke: #A80036; stroke-width: 1.5;" width="4" x="541" y="789.9531"/><text fill="#000000" font-family="sans-serif" font-size="14" lengthAdjust="spacingAndGlyphs" textLength="121" x="417" y="811.9482">Conversion Script</text><!--entity Modelica\nLibrary AST--><path d="M272,782.9531 C272,772.9531 319.5,772.9531 319.5,772.9531 C319.5,772.9531 367,772.9531 367,782.9531 L367,820.5469 C367,830.5469 319.5,830.5469 319.5,830.5469 C319.5,830.5469 272,830.5469 272,820.5469 L272,782.9531 " fill="#FEFECE" filter="url(#fghahr6)" style="stroke: #000000; stroke-width: 1.5;"/><path d="M272,782.9531 C272,792.9531 319.5,792.9531 319.5,792.9531 C319.5,792.9531 367,792.9531 367,782.9531 " fill="none" style="stroke: #000000; stroke-width: 1.5;"/><text fill="#000000" font-family="sans-serif" font-size="14" lengthAdjust="spacingAndGlyphs" textLength="61" x="289" y="805.9482">Modelica</text><text fill="#000000" font-family="sans-serif" font-size="14" lengthAdjust="spacingAndGlyphs" textLength="75" x="282" y="822.2451">Library AST</text><!--entity Modelica\nBuildings Library--><path d="M427,1140.9531 C427,1130.9531 492.5,1130.9531 492.5,1130.9531 C492.5,1130.9531 558,1130.9531 558,1140.9531 L558,1178.5469 C558,1188.5469 492.5,1188.5469 492.5,1188.5469 C492.5,1188.5469 427,1188.5469 427,1178.5469 L427,1140.9531 " fill="#FEFECE" filter="url(#fghahr6)" style="stroke: #000000; stroke-width: 1.5;"/><path d="M427,1140.9531 C427,1150.9531 492.5,1150.9531 492.5,1150.9531 C492.5,1150.9531 558,1150.9531 558,1140.9531 " fill="none" style="stroke: #000000; stroke-width: 1.5;"/><text fill="#000000" font-family="sans-serif" font-size="14" lengthAdjust="spacingAndGlyphs" textLength="61" x="462" y="1163.9482">Modelica</text><text fill="#000000" font-family="sans-serif" font-size="14" lengthAdjust="spacingAndGlyphs" textLength="111" x="437" y="1180.2451">Buildings Library</text><!--entity epdev--><ellipse cx="944.5" cy="770.4531" fill="#FEFECE" filter="url(#fghahr6)" rx="8" ry="8" style="stroke: #A80036; stroke-width: 2.0;"/><path d="M944.5,778.4531 L944.5,805.4531 M931.5,786.4531 L957.5,786.4531 M944.5,805.4531 L931.5,820.4531 M944.5,805.4531 L957.5,820.4531 " fill="#FEFECE" filter="url(#fghahr6)" style="stroke: #A80036; stroke-width: 2.0;"/><text fill="#000000" font-family="sans-serif" font-size="14" lengthAdjust="spacingAndGlyphs" textLength="71" x="909" y="840.4482">Developer</text><!--entity modev--><ellipse cx="176.5" cy="979.4531" fill="#FEFECE" filter="url(#fghahr6)" rx="8" ry="8" style="stroke: #A80036; stroke-width: 2.0;"/><path d="M176.5,987.4531 L176.5,1014.4531 M163.5,995.4531 L189.5,995.4531 M176.5,1014.4531 L163.5,1029.4531 M176.5,1014.4531 L189.5,1029.4531 " fill="#FEFECE" filter="url(#fghahr6)" style="stroke: #A80036; stroke-width: 2.0;"/><text fill="#000000" font-family="sans-serif" font-size="14" lengthAdjust="spacingAndGlyphs" textLength="125" x="114" y="1049.4482">Developer or User</text><!--entity budev--><ellipse cx="487.5" cy="1303.4531" fill="#FEFECE" filter="url(#fghahr6)" rx="8" ry="8" style="stroke: #A80036; stroke-width: 2.0;"/><path d="M487.5,1311.4531 L487.5,1338.4531 M474.5,1319.4531 L500.5,1319.4531 M487.5,1338.4531 L474.5,1353.4531 M487.5,1338.4531 L500.5,1353.4531 " fill="#FEFECE" filter="url(#fghahr6)" style="stroke: #A80036; stroke-width: 2.0;"/><text fill="#000000" font-family="sans-serif" font-size="14" lengthAdjust="spacingAndGlyphs" textLength="71" x="452" y="1373.4482">Developer</text><!--entity mouse--><ellipse cx="834.25" cy="1303.4531" fill="#FEFECE" filter="url(#fghahr6)" rx="8" ry="8" style="stroke: #A80036; stroke-width: 2.0;"/><path d="M834.25,1311.4531 L834.25,1338.4531 M821.25,1319.4531 L847.25,1319.4531 M834.25,1338.4531 L821.25,1353.4531 M834.25,1338.4531 L847.25,1353.4531 " fill="#FEFECE" filter="url(#fghahr6)" style="stroke: #A80036; stroke-width: 2.0;"/><text fill="#000000" font-family="sans-serif" font-size="14" lengthAdjust="spacingAndGlyphs" textLength="32" x="818.25" y="1373.4482">User</text><!--entity User-Provided\nModelica Library--><path d="M606,1140.9531 C606,1130.9531 670.5,1130.9531 670.5,1130.9531 C670.5,1130.9531 735,1130.9531 735,1140.9531 L735,1178.5469 C735,1188.5469 670.5,1188.5469 670.5,1188.5469 C670.5,1188.5469 606,1188.5469 606,1178.5469 L606,1140.9531 " fill="#FEFECE" filter="url(#fghahr6)" style="stroke: #000000; stroke-width: 1.5;"/><path d="M606,1140.9531 C606,1150.9531 670.5,1150.9531 670.5,1150.9531 C670.5,1150.9531 735,1150.9531 735,1140.9531 " fill="none" style="stroke: #000000; stroke-width: 1.5;"/><text fill="#000000" font-family="sans-serif" font-size="14" lengthAdjust="spacingAndGlyphs" textLength="97" x="622" y="1163.9482">User-Provided</text><text fill="#000000" font-family="sans-serif" font-size="14" lengthAdjust="spacingAndGlyphs" textLength="109" x="616" y="1180.2451">Modelica Library</text><!--entity Application--><rect fill="#FEFECE" filter="url(#fghahr6)" height="46.2969" style="stroke: #A80036; stroke-width: 1.5;" width="115" x="465" y="33.9531"/><rect fill="#FEFECE" height="10" style="stroke: #A80036; stroke-width: 1.5;" width="15" x="560" y="38.9531"/><rect fill="#FEFECE" height="2" style="stroke: #A80036; stroke-width: 1.5;" width="4" x="558" y="40.9531"/><rect fill="#FEFECE" height="2" style="stroke: #A80036; stroke-width: 1.5;" width="4" x="558" y="44.9531"/><text fill="#000000" font-family="sans-serif" font-size="14" lengthAdjust="spacingAndGlyphs" textLength="75" x="480" y="66.9482">Application</text><!--entity Measures--><rect fill="#FEFECE" filter="url(#fghahr6)" height="46.2969" style="stroke: #A80036; stroke-width: 1.5;" width="108" x="840.25" y="33.9531"/><rect fill="#FEFECE" height="10" style="stroke: #A80036; stroke-width: 1.5;" width="15" x="928.25" y="38.9531"/><rect fill="#FEFECE" height="2" style="stroke: #A80036; stroke-width: 1.5;" width="4" x="926.25" y="40.9531"/><rect fill="#FEFECE" height="2" style="stroke: #A80036; stroke-width: 1.5;" width="4" x="926.25" y="44.9531"/><text fill="#000000" font-family="sans-serif" font-size="14" lengthAdjust="spacingAndGlyphs" textLength="68" x="855.25" y="66.9482">Measures</text><polygon fill="#FBFB77" filter="url(#fghahr6)" points="6,728.9531,6,875.1484,237,875.1484,237,738.9531,227,728.9531,6,728.9531" style="stroke: #A80036; stroke-width: 1.0;"/><line style="stroke: #A80036; stroke-width: 1.0;" x1="227" x2="227" y1="728.9531" y2="738.9531"/><line style="stroke: #A80036; stroke-width: 1.0;" x1="237" x2="227" y1="738.9531" y2="738.9531"/><text fill="#000000" font-family="sans-serif" font-size="13" lengthAdjust="spacingAndGlyphs" textLength="177" x="12" y="746.02">Allows free graphical editing</text><text fill="#000000" font-family="sans-serif" font-size="13" lengthAdjust="spacingAndGlyphs" textLength="190" x="12" y="761.1528">of Modelica models. However,</text><text fill="#000000" font-family="sans-serif" font-size="13" lengthAdjust="spacingAndGlyphs" textLength="210" x="12" y="776.2856">after editing, many OS Measures</text><text fill="#000000" font-family="sans-serif" font-size="13" lengthAdjust="spacingAndGlyphs" textLength="175" x="12" y="791.4185">cannot be applied anymore</text><text fill="#000000" font-family="sans-serif" font-size="13" lengthAdjust="spacingAndGlyphs" textLength="209" x="12" y="806.5513">(as models may be incompatible</text><text fill="#000000" font-family="sans-serif" font-size="13" lengthAdjust="spacingAndGlyphs" textLength="125" x="12" y="821.6841">with the Measures).</text><text fill="#000000" font-family="sans-serif" font-size="13" lengthAdjust="spacingAndGlyphs" textLength="193" x="12" y="836.8169">However, OS can still simulate</text><text fill="#000000" font-family="sans-serif" font-size="13" lengthAdjust="spacingAndGlyphs" textLength="188" x="12" y="851.9497">these models and parse their</text><text fill="#000000" font-family="sans-serif" font-size="13" lengthAdjust="spacingAndGlyphs" textLength="53" x="12" y="867.0825">outputs.</text><polygon fill="#FBFB77" filter="url(#fghahr6)" points="558,1269.4531,558,1400.5156,783,1400.5156,783,1279.4531,773,1269.4531,558,1269.4531" style="stroke: #A80036; stroke-width: 1.0;"/><polygon fill="#FBFB77" points="558,1269.4531,558,1400.5156,783,1400.5156,783,1279.4531,773,1269.4531,674.25,1269.4531,670.25,1189.1331,666.25,1269.4531,558,1269.4531" style="stroke: #A80036; stroke-width: 1.0;"/><line style="stroke: #A80036; stroke-width: 1.0;" x1="773" x2="773" y1="1269.4531" y2="1279.4531"/><line style="stroke: #A80036; stroke-width: 1.0;" x1="783" x2="773" y1="1279.4531" y2="1279.4531"/><text fill="#000000" font-family="sans-serif" font-size="13" lengthAdjust="spacingAndGlyphs" textLength="157" x="564" y="1286.52">Allows companies to use</text><text fill="#000000" font-family="sans-serif" font-size="13" lengthAdjust="spacingAndGlyphs" textLength="172" x="564" y="1301.6528">their own Modelica libraries</text><text fill="#000000" font-family="sans-serif" font-size="13" lengthAdjust="spacingAndGlyphs" textLength="204" x="564" y="1316.7856">with custom HVAC systems and</text><text fill="#000000" font-family="sans-serif" font-size="13" lengthAdjust="spacingAndGlyphs" textLength="138" x="564" y="1331.9185">control sequences, or</text><text fill="#000000" font-family="sans-serif" font-size="13" lengthAdjust="spacingAndGlyphs" textLength="161" x="564" y="1347.0513">to integrate an electronic</text><text fill="#000000" font-family="sans-serif" font-size="13" lengthAdjust="spacingAndGlyphs" textLength="149" x="564" y="1362.1841">equipment catalog or a</text><text fill="#000000" font-family="sans-serif" font-size="13" lengthAdjust="spacingAndGlyphs" textLength="188" x="564" y="1377.3169">library used for an equipment</text><text fill="#000000" font-family="sans-serif" font-size="13" lengthAdjust="spacingAndGlyphs" textLength="65" x="564" y="1392.4497">sales tool.</text><polygon fill="#FBFB77" filter="url(#fghahr6)" points="181,29.4531,181,84.8516,324,84.8516,324,39.4531,314,29.4531,181,29.4531" style="stroke: #A80036; stroke-width: 1.0;"/><line style="stroke: #A80036; stroke-width: 1.0;" x1="314" x2="314" y1="29.4531" y2="39.4531"/><line style="stroke: #A80036; stroke-width: 1.0;" x1="324" x2="314" y1="39.4531" y2="39.4531"/><text fill="#000000" font-family="sans-serif" font-size="13" lengthAdjust="spacingAndGlyphs" textLength="105" x="187" y="46.52">Not yet shown is</text><text fill="#000000" font-family="sans-serif" font-size="13" lengthAdjust="spacingAndGlyphs" textLength="104" x="187" y="61.6528">how to integrate</text><text fill="#000000" font-family="sans-serif" font-size="13" lengthAdjust="spacingAndGlyphs" textLength="122" x="187" y="76.7856">the building model.</text><polygon fill="#FBFB77" filter="url(#fghahr6)" points="649.25,36.9531,649.25,77.2188,805.25,77.2188,805.25,46.9531,795.25,36.9531,649.25,36.9531" style="stroke: #A80036; stroke-width: 1.0;"/><polygon fill="#FBFB77" points="649.25,36.9531,649.25,52.9531,579.506,56.9531,649.25,60.9531,649.25,77.2188,805.25,77.2188,805.25,46.9531,795.25,36.9531,649.25,36.9531" style="stroke: #A80036; stroke-width: 1.0;"/><line style="stroke: #A80036; stroke-width: 1.0;" x1="795.25" x2="795.25" y1="36.9531" y2="46.9531"/><line style="stroke: #A80036; stroke-width: 1.0;" x1="805.25" x2="795.25" y1="46.9531" y2="46.9531"/><text fill="#000000" font-family="sans-serif" font-size="13" lengthAdjust="spacingAndGlyphs" textLength="134" x="655.25" y="54.02">Application that uses</text><text fill="#000000" font-family="sans-serif" font-size="13" lengthAdjust="spacingAndGlyphs" textLength="135" x="655.25" y="69.1528">the OpenStudio SDK.</text><path d="M778.25,235.0531 C778.25,259.6531 778.25,306.6731 778.25,334.5831 " fill="none" style="stroke: #A80036; stroke-width: 1.0;"/><path d="M800.263,381.1031 C813.395,394.6131 830.195,412.4021 844.25,428.9531 C871.937,461.5591 901.391,500.7591 921.105,527.7311 " fill="none" style="stroke: #A80036; stroke-width: 1.0;"/><polygon fill="#A80036" points="924.184,531.9521,922.1098,522.3242,921.2366,527.9132,915.6476,527.04,924.184,531.9521" style="stroke: #A80036; stroke-width: 1.0;"/><text fill="#000000" font-family="sans-serif" font-size="13" lengthAdjust="spacingAndGlyphs" textLength="65" x="883.25" y="457.02">integrates</text><path d="M814.809,369.7331 C852.19,381.5231 911.273,402.3581 958.25,428.9531 C1006.99,456.5451 1056.97,497.1131 1089.81,525.7791 " fill="none" style="stroke: #A80036; stroke-width: 1.0;"/><polygon fill="#A80036" points="1093.73,529.2141,1089.5851,520.28,1089.965,525.924,1084.3209,526.304,1093.73,529.2141" style="stroke: #A80036; stroke-width: 1.0;"/><text fill="#000000" font-family="sans-serif" font-size="13" lengthAdjust="spacingAndGlyphs" textLength="65" x="1027.25" y="457.02">integrates</text><path d="M814.5,362.7731 C895.202,372.5331 1093.85,403.6151 1237.25,484.9531 C1258.09,496.7741 1279.62,512.2371 1297.41,526.0491 " fill="none" style="stroke: #A80036; stroke-width: 1.0;"/><polygon fill="#A80036" points="1301.39,529.1521,1296.7512,520.4641,1297.4466,526.0781,1291.8327,526.7735,1301.39,529.1521" style="stroke: #A80036; stroke-width: 1.0;"/><text fill="#000000" font-family="sans-serif" font-size="13" lengthAdjust="spacingAndGlyphs" textLength="65" x="1215.25" y="457.02">integrates</text><path d="M741.912,365.5931 C675.007,379.1331 529.893,414.7821 428.25,484.9531 C411.028,496.8421 394.527,513.2141 381.584,527.6281 " fill="none" style="stroke: #A80036; stroke-width: 1.0;"/><polygon fill="#A80036" points="378.03,531.6371,386.9937,527.5564,381.347,527.8958,381.0076,522.2492,378.03,531.6371" style="stroke: #A80036; stroke-width: 1.0;"/><text fill="#000000" font-family="sans-serif" font-size="13" lengthAdjust="spacingAndGlyphs" textLength="65" x="527.25" y="457.02">integrates</text><path d="M747.982,381.1031 C729.824,394.6031 706.414,412.3961 686.25,428.9531 C647.546,460.7341 604.869,498.8551 575.33,525.7591 " fill="none" style="stroke: #A80036; stroke-width: 1.0;"/><polygon fill="#A80036" points="571.432,529.3131,580.7768,526.2028,575.1259,525.9434,575.3853,520.2925,571.432,529.3131" style="stroke: #A80036; stroke-width: 1.0;"/><text fill="#000000" font-family="sans-serif" font-size="13" lengthAdjust="spacingAndGlyphs" textLength="65" x="687.25" y="457.02">integrates</text><path d="M775.036,381.2331 C770.043,415.8331 760.38,482.8071 754.405,524.2211 " fill="none" style="stroke: #A80036; stroke-width: 1.0;"/><polygon fill="#A80036" points="753.66,529.3901,758.9047,521.0539,754.3743,524.4414,750.9868,519.911,753.66,529.3901" style="stroke: #A80036; stroke-width: 1.0;"/><text fill="#000000" font-family="sans-serif" font-size="13" lengthAdjust="spacingAndGlyphs" textLength="65" x="769.25" y="457.02">integrates</text><path d="M944.25,595.4161 C944.25,638.6311 944.25,713.7991 944.25,760.2681 " fill="none" style="stroke: #A80036; stroke-width: 1.0; stroke-dasharray: 7.0,7.0;"/><polygon fill="#A80036" points="944.25,590.3081,940.25,599.3081,944.25,595.3081,948.25,599.3081,944.25,590.3081" style="stroke: #A80036; stroke-width: 1.0;"/><text fill="#000000" font-family="sans-serif" font-size="13" lengthAdjust="spacingAndGlyphs" textLength="52" x="945.25" y="686.02">updates</text><path d="M1510.1457,368.0052 C1510.0297,368.1347 1509.9126,368.2654 1509.7945,368.3974 C1508.8491,369.4529 1507.8329,370.5875 1506.7505,371.7961 C1504.5857,374.2133 1502.1557,376.9265 1499.4959,379.8965 C1488.8569,391.7761 1474.5413,407.7617 1458.8125,425.3255 C1427.355,460.4531 1390.245,501.8936 1365.59,529.4251 " fill="none" style="stroke: #A80036; stroke-width: 1.0; stroke-dasharray: 7.0,7.0;"/><polygon fill="#A80036" points="1510.1457,368.0052,1501.1615,372.0407,1506.8098,371.7298,1507.1208,377.3781,1510.1457,368.0052" style="stroke: #A80036; stroke-width: 1.0;"/><text fill="#000000" font-family="sans-serif" font-size="13" lengthAdjust="spacingAndGlyphs" textLength="84" x="1464.25" y="442.02">writes inputs,</text><text fill="#000000" font-family="sans-serif" font-size="13" lengthAdjust="spacingAndGlyphs" textLength="102" x="1455.25" y="457.1528">runs simulation,</text><text fill="#000000" font-family="sans-serif" font-size="13" lengthAdjust="spacingAndGlyphs" textLength="89" x="1461.75" y="472.2856">reads outputs</text><path d="M1625.26,357.9531 C1646.81,357.9531 1668.35,357.9531 1689.9,357.9531 " fill="none" style="stroke: #A80036; stroke-width: 1.0;"/><polygon fill="#A80036" points="1695.08,357.9531,1686.08,353.9531,1690.08,357.9531,1686.08,361.9531,1695.08,357.9531" style="stroke: #A80036; stroke-width: 1.0;"/><path d="M1841.52,357.9531 C1862.96,357.9531 1884.4,357.9531 1905.83,357.9531 " fill="none" style="stroke: #A80036; stroke-width: 1.0;"/><polygon fill="#A80036" points="1910.99,357.9531,1901.99,353.9531,1905.99,357.9531,1901.99,361.9531,1910.99,357.9531" style="stroke: #A80036; stroke-width: 1.0;"/><path d="M548.587,592.7641 C566.079,649.0631 597.878,772.2261 579.25,874.9531 C571.902,915.4731 548.012,957.0421 530.621,983.1491 " fill="none" style="stroke: #A80036; stroke-width: 1.0; stroke-dasharray: 7.0,7.0;"/><polygon fill="#A80036" points="527.672,987.5221,536.0204,982.2967,530.4675,983.3767,529.3876,977.8238,527.672,987.5221" style="stroke: #A80036; stroke-width: 1.0;"/><text fill="#000000" font-family="sans-serif" font-size="13" lengthAdjust="spacingAndGlyphs" textLength="43" x="586.25" y="798.52">parses</text><text fill="#000000" font-family="sans-serif" font-size="13" lengthAdjust="spacingAndGlyphs" textLength="25" x="595.25" y="813.6528">AST</text><path d="M372.787,594.9561 C399.057,644.3941 447.935,736.3761 470.399,778.6511 " fill="none" style="stroke: #A80036; stroke-width: 1.0; stroke-dasharray: 7.0,7.0;"/><polygon fill="#A80036" points="370.317,590.3081,371.0092,600.1326,372.6638,594.7232,378.0732,596.3778,370.317,590.3081" style="stroke: #A80036; stroke-width: 1.0;"/><text fill="#000000" font-family="sans-serif" font-size="13" lengthAdjust="spacingAndGlyphs" textLength="108" x="453.25" y="678.52">augments library</text><text fill="#000000" font-family="sans-serif" font-size="13" lengthAdjust="spacingAndGlyphs" textLength="158" x="428.25" y="693.6528">by generating C++ code</text><path d="M485.354,825.1061 C490.692,863.2131 501.599,941.0661 507.408,982.5321 " fill="none" style="stroke: #A80036; stroke-width: 1.0; stroke-dasharray: 7.0,7.0;"/><polygon fill="#A80036" points="508.125,987.6471,510.8365,978.1789,507.4307,982.6956,502.914,979.2898,508.125,987.6471" style="stroke: #A80036; stroke-width: 1.0;"/><text fill="#000000" font-family="sans-serif" font-size="13" lengthAdjust="spacingAndGlyphs" textLength="43" x="502.25" y="918.52">parses</text><text fill="#000000" font-family="sans-serif" font-size="13" lengthAdjust="spacingAndGlyphs" textLength="25" x="511.25" y="933.6528">AST</text><path d="M741.925,592.6201 C727.425,650.2511 691.85,777.6751 639.25,874.9531 C615.286,919.2721 572.998,959.7071 543.617,984.5341 " fill="none" style="stroke: #A80036; stroke-width: 1.0; stroke-dasharray: 7.0,7.0;"/><polygon fill="#A80036" points="539.74,987.7831,549.2075,985.0691,543.5725,984.572,544.0696,978.937,539.74,987.7831" style="stroke: #A80036; stroke-width: 1.0;"/><text fill="#000000" font-family="sans-serif" font-size="13" lengthAdjust="spacingAndGlyphs" textLength="84" x="711.25" y="791.02">writes inputs,</text><text fill="#000000" font-family="sans-serif" font-size="13" lengthAdjust="spacingAndGlyphs" textLength="102" x="702.25" y="806.1528">runs simulation,</text><text fill="#000000" font-family="sans-serif" font-size="13" lengthAdjust="spacingAndGlyphs" textLength="89" x="708.75" y="821.2856">reads outputs</text><path d="M508.406,1033.9601 C505.267,1058.2391 500.182,1097.5831 496.555,1125.6431 " fill="none" style="stroke: #A80036; stroke-width: 1.0;"/><polygon fill="#A80036" points="495.896,1130.7441,501.0172,1122.3315,496.5373,1125.7854,493.0833,1121.3054,495.896,1130.7441" style="stroke: #A80036; stroke-width: 1.0;"/><text fill="#000000" font-family="sans-serif" font-size="13" lengthAdjust="spacingAndGlyphs" textLength="49" x="503.25" y="1096.02">imports</text><path d="M448.425,828.2071 C429.437,842.2181 405.214,859.8181 383.25,874.9531 C335.379,907.9401 280.191,943.8281 238.844,970.3041 " fill="none" style="stroke: #A80036; stroke-width: 1.0; stroke-dasharray: 7.0,7.0;"/><polygon fill="#A80036" points="452.64,825.0921,443.0245,827.2235,448.6187,828.0635,447.7787,833.6576,452.64,825.0921" style="stroke: #A80036; stroke-width: 1.0;"/><text fill="#000000" font-family="sans-serif" font-size="13" lengthAdjust="spacingAndGlyphs" textLength="48" x="340.25" y="926.02">invokes</text><path d="M491.288,1194.2531 C490.472,1222.4681 489.3,1263.0291 488.428,1293.1831 " fill="none" style="stroke: #A80036; stroke-width: 1.0; stroke-dasharray: 7.0,7.0;"/><polygon fill="#A80036" points="491.436,1189.1331,487.1779,1198.0139,491.2917,1194.131,495.1746,1198.2448,491.436,1189.1331" style="stroke: #A80036; stroke-width: 1.0;"/><text fill="#000000" font-family="sans-serif" font-size="13" lengthAdjust="spacingAndGlyphs" textLength="111" x="492.25" y="1234.02">adds annotations</text><path d="M715.778,1192.2781 C742.348,1212.1121 775.252,1239.5101 799.25,1268.9531 C806.457,1277.7951 812.883,1288.3451 818.2,1298.3471 " fill="none" style="stroke: #A80036; stroke-width: 1.0; stroke-dasharray: 7.0,7.0;"/><polygon fill="#A80036" points="711.57,1189.1601,716.421,1197.7314,715.5878,1192.1363,721.1829,1191.303,711.57,1189.1601" style="stroke: #A80036; stroke-width: 1.0;"/><text fill="#000000" font-family="sans-serif" font-size="13" lengthAdjust="spacingAndGlyphs" textLength="111" x="772.25" y="1234.02">adds annotations</text><path d="M579.613,74.4331 C646.86,94.2631 750.782,126.6531 763.25,140.9531 C776.192,155.8031 779.236,178.5331 779.471,195.2631 " fill="none" style="stroke: #A80036; stroke-width: 1.0; stroke-dasharray: 7.0,7.0;"/><polygon fill="#A80036" points="779.453,200.6931,783.5044,191.7161,779.4816,195.6932,775.5045,191.6704,779.453,200.6931" style="stroke: #A80036; stroke-width: 1.0;"/><text fill="#000000" font-family="sans-serif" font-size="13" lengthAdjust="spacingAndGlyphs" textLength="30" x="750.25" y="128.02">uses</text><path d="M878.121,80.0631 C855.099,111.6131 813.231,169.0031 791.752,198.4431 " fill="none" style="stroke: #A80036; stroke-width: 1.0; stroke-dasharray: 7.0,7.0;"/><polygon fill="#A80036" points="788.736,202.5831,797.2682,197.6636,791.6799,198.5417,790.8019,192.9534,788.736,202.5831" style="stroke: #A80036; stroke-width: 1.0;"/><text fill="#000000" font-family="sans-serif" font-size="13" lengthAdjust="spacingAndGlyphs" textLength="30" x="851.25" y="128.02">uses</text><path d="M535.054,1033.9601 C561.751,1058.6421 605.287,1098.8931 635.721,1127.0301 " fill="none" style="stroke: #A80036; stroke-width: 1.0;"/><polygon fill="#A80036" points="639.739,1130.7441,635.8459,1121.6974,636.0676,1127.3499,630.4151,1127.5716,639.739,1130.7441" style="stroke: #A80036; stroke-width: 1.0;"/><text fill="#000000" font-family="sans-serif" font-size="13" lengthAdjust="spacingAndGlyphs" textLength="49" x="606.25" y="1096.02">imports</text><path d="M542.912,592.6031 C545.781,623.9901 544.543,671.9001 516.25,698.9531 C474.054,739.3011 310.959,711.4911 255.25,728.9531 C249.076,730.8881 242.856,733.1131 236.656,735.5531 " fill="none" style="stroke: #A80036; stroke-width: 1.0; stroke-dasharray: 7.0,7.0;"/><path d="M252.25,84.5631 C252.25,95.7031 252.25,109.3781 252.25,123.6658 C252.25,130.8096 252.25,138.1066 252.25,145.3165 C252.25,148.9214 252.25,152.5045 252.25,156.0359 C252.25,156.2566 252.25,156.4771 252.25,156.6974 " fill="none" style="stroke: #A80036; stroke-width: 1.0; stroke-dasharray: 7.0,7.0;"/></g></svg>