<?xml version="1.0" encoding="UTF-8" standalone="no"?><svg xmlns="http://www.w3.org/2000/svg" xmlns:xlink="http://www.w3.org/1999/xlink" contentScriptType="application/ecmascript" contentStyleType="text/css" height="737.2533px" preserveAspectRatio="none" style="width:1005px;height:737px;" version="1.1" viewBox="0 0 1005 737" width="1005.953px" zoomAndPan="magnify"><defs><filter height="300%" id="fxkea6m" width="300%" x="-1" y="-1"><feGaussianBlur result="blurOut" stdDeviation="1.3368146214099217"/><feColorMatrix in="blurOut" result="blurOut2" type="matrix" values="0 0 0 0 0 0 0 0 0 0 0 0 0 0 0 0 0 0 .4 0"/><feOffset dx="2.6736292428198434" dy="2.6736292428198434" in="blurOut2" result="blurOut3"/><feBlend in="SourceGraphic" in2="blurOut3" mode="normal"/></filter></defs><g><text fill="#000000" font-family="sans-serif" font-size="12.0313" lengthAdjust="spacingAndGlyphs" textLength="173.7859" x="425.107" y="11.1678">Overall software architecture</text><!--cluster OpenStudio--><polygon fill="#FFFFFF" filter="url(#fxkea6m)" points="184.4804,103.2376,249.9843,103.2376,254.6632,118.141,1001.2742,118.141,1001.2742,349.2115,184.4804,349.2115,184.4804,103.2376" style="stroke: #000000; stroke-width: 1.3368146214099217;"/><line style="stroke: #000000; stroke-width: 1.3368146214099217;" x1="184.4804" x2="254.6632" y1="118.141" y2="118.141"/><text fill="#000000" font-family="sans-serif" font-size="9.3577" font-weight="bold" lengthAdjust="spacingAndGlyphs" textLength="61.4935" x="187.154" y="113.2604">OpenStudio</text><!--cluster Legacy-Mode--><polygon fill="#FFFFFF" filter="url(#fxkea6m)" points="607.5822,244.2715,681.7755,244.2715,686.4543,259.1749,985.2324,259.1749,985.2324,333.1697,607.5822,333.1697,607.5822,244.2715" style="stroke: #000000; stroke-width: 1.3368146214099217;"/><line style="stroke: #000000; stroke-width: 1.3368146214099217;" x1="607.5822" x2="686.4543" y1="259.1749" y2="259.1749"/><text fill="#000000" font-family="sans-serif" font-size="9.3577" font-weight="bold" lengthAdjust="spacingAndGlyphs" textLength="70.1828" x="610.2559" y="254.2944">Legacy-Mode</text><!--cluster SOEP-Mode--><polygon fill="#FFFFFF" filter="url(#fxkea6m)" points="200.5222,244.2715,264.6893,244.2715,269.3681,259.1749,591.5405,259.1749,591.5405,333.1697,200.5222,333.1697,200.5222,244.2715" style="stroke: #000000; stroke-width: 1.3368146214099217;"/><line style="stroke: #000000; stroke-width: 1.3368146214099217;" x1="200.5222" x2="269.3681" y1="259.1749" y2="259.1749"/><text fill="#000000" font-family="sans-serif" font-size="9.3577" font-weight="bold" lengthAdjust="spacingAndGlyphs" textLength="60.1567" x="203.1958" y="254.2944">SOEP-Mode</text><!--cluster SOEP--><polygon fill="#FFFFFF" filter="url(#fxkea6m)" points="72.8564,402.0157,104.2715,402.0157,108.9504,416.9191,572.1567,416.9191,572.1567,487.5718,72.8564,487.5718,72.8564,402.0157" style="stroke: #000000; stroke-width: 1.3368146214099217;"/><line style="stroke: #000000; stroke-width: 1.3368146214099217;" x1="72.8564" x2="108.9504" y1="416.9191" y2="416.9191"/><text fill="#000000" font-family="sans-serif" font-size="9.3577" font-weight="bold" lengthAdjust="spacingAndGlyphs" textLength="27.4047" x="75.53" y="412.0385">SOEP</text><!--cluster EnergyPlus--><polygon fill="#FFFFFF" filter="url(#fxkea6m)" points="20.7206,97.8903,83.5509,97.8903,88.2298,112.7937,163.0914,112.7937,163.0914,186.1201,20.7206,186.1201,20.7206,97.8903" style="stroke: #000000; stroke-width: 1.3368146214099217;"/><line style="stroke: #000000; stroke-width: 1.3368146214099217;" x1="20.7206" x2="88.2298" y1="112.7937" y2="112.7937"/><text fill="#000000" font-family="sans-serif" font-size="9.3577" font-weight="bold" lengthAdjust="spacingAndGlyphs" textLength="58.8198" x="23.3943" y="107.9132">EnergyPlus</text><!--entity API--><ellipse cx="501.3055" cy="149.3577" fill="#FEFECE" filter="url(#fxkea6m)" rx="5.3473" ry="5.3473" style="stroke: #A80036; stroke-width: 1.3368146214099217;"/><text fill="#000000" font-family="sans-serif" font-size="9.3577" lengthAdjust="spacingAndGlyphs" textLength="14.0366" x="494.2872" y="164.0594">API</text><!--entity Core--><rect fill="#FEFECE" filter="url(#fxkea6m)" height="30.9452" style="stroke: #A80036; stroke-width: 1.0026109660574414;" width="48.7937" x="555.1123" y="139.3316"/><rect fill="#FEFECE" height="6.6841" style="stroke: #A80036; stroke-width: 1.0026109660574414;" width="10.0261" x="590.5379" y="142.6736"/><rect fill="#FEFECE" height="1.3368" style="stroke: #A80036; stroke-width: 1.0026109660574414;" width="2.6736" x="589.201" y="144.0104"/><rect fill="#FEFECE" height="1.3368" style="stroke: #A80036; stroke-width: 1.0026109660574414;" width="2.6736" x="589.201" y="146.6841"/><text fill="#000000" font-family="sans-serif" font-size="9.3577" lengthAdjust="spacingAndGlyphs" textLength="22.0574" x="565.1384" y="161.3858">Core</text><!--entity Legacy\nModel Library--><path d="M753.9634,288.7206 C753.9634,282.0366 790.7258,282.0366 790.7258,282.0366 C790.7258,282.0366 827.4883,282.0366 827.4883,288.7206 L827.4883,313.8486 C827.4883,320.5326 790.7258,320.5326 790.7258,320.5326 C790.7258,320.5326 753.9634,320.5326 753.9634,313.8486 L753.9634,288.7206 " fill="#FEFECE" filter="url(#fxkea6m)" style="stroke: #000000; stroke-width: 1.0026109660574414;"/><path d="M753.9634,288.7206 C753.9634,295.4047 790.7258,295.4047 790.7258,295.4047 C790.7258,295.4047 827.4883,295.4047 827.4883,288.7206 " fill="none" style="stroke: #000000; stroke-width: 1.0026109660574414;"/><text fill="#000000" font-family="sans-serif" font-size="9.3577" lengthAdjust="spacingAndGlyphs" textLength="32.0836" x="774.6841" y="304.0907">Legacy</text><text fill="#000000" font-family="sans-serif" font-size="9.3577" lengthAdjust="spacingAndGlyphs" textLength="60.1567" x="760.6475" y="314.9837">Model Library</text><!--entity HVAC Systems Editor\n(Legacy Mode)--><rect fill="#FEFECE" filter="url(#fxkea6m)" height="41.8381" style="stroke: #A80036; stroke-width: 1.0026109660574414;" width="123.6554" x="851.2167" y="280.3655"/><rect fill="#FEFECE" height="6.6841" style="stroke: #A80036; stroke-width: 1.0026109660574414;" width="10.0261" x="961.5039" y="283.7076"/><rect fill="#FEFECE" height="1.3368" style="stroke: #A80036; stroke-width: 1.0026109660574414;" width="2.6736" x="960.1671" y="285.0444"/><rect fill="#FEFECE" height="1.3368" style="stroke: #A80036; stroke-width: 1.0026109660574414;" width="2.6736" x="960.1671" y="287.718"/><text fill="#000000" font-family="sans-serif" font-size="9.3577" lengthAdjust="spacingAndGlyphs" textLength="96.9191" x="861.2428" y="302.4197">HVAC Systems Editor</text><text fill="#000000" font-family="sans-serif" font-size="9.3577" lengthAdjust="spacingAndGlyphs" textLength="67.5091" x="875.9478" y="313.3127">(Legacy Mode)</text><!--entity EnergyPlus\nSimulator Interface--><rect fill="#FEFECE" filter="url(#fxkea6m)" height="41.8381" style="stroke: #A80036; stroke-width: 1.0026109660574414;" width="112.2924" x="618.2768" y="280.3655"/><rect fill="#FEFECE" height="6.6841" style="stroke: #A80036; stroke-width: 1.0026109660574414;" width="10.0261" x="717.201" y="283.7076"/><rect fill="#FEFECE" height="1.3368" style="stroke: #A80036; stroke-width: 1.0026109660574414;" width="2.6736" x="715.8642" y="285.0444"/><rect fill="#FEFECE" height="1.3368" style="stroke: #A80036; stroke-width: 1.0026109660574414;" width="2.6736" x="715.8642" y="287.718"/><text fill="#000000" font-family="sans-serif" font-size="9.3577" lengthAdjust="spacingAndGlyphs" textLength="51.4674" x="645.3473" y="302.4197">EnergyPlus</text><text fill="#000000" font-family="sans-serif" font-size="9.3577" lengthAdjust="spacingAndGlyphs" textLength="85.5561" x="628.3029" y="313.3127">Simulator Interface</text><!--entity Model Library--><rect fill="#FEFECE" filter="url(#fxkea6m)" height="30.9452" style="stroke: #A80036; stroke-width: 1.0026109660574414;" width="86.893" x="358.2663" y="286.047"/><rect fill="#FEFECE" height="6.6841" style="stroke: #A80036; stroke-width: 1.0026109660574414;" width="10.0261" x="431.7911" y="289.389"/><rect fill="#FEFECE" height="1.3368" style="stroke: #A80036; stroke-width: 1.0026109660574414;" width="2.6736" x="430.4543" y="290.7258"/><rect fill="#FEFECE" height="1.3368" style="stroke: #A80036; stroke-width: 1.0026109660574414;" width="2.6736" x="430.4543" y="293.3995"/><text fill="#000000" font-family="sans-serif" font-size="9.3577" lengthAdjust="spacingAndGlyphs" textLength="60.1567" x="368.2924" y="308.1012">Model Library</text><!--entity HVAC Systems Editor\n(SOEP Mode)--><rect fill="#FEFECE" filter="url(#fxkea6m)" height="41.8381" style="stroke: #A80036; stroke-width: 1.0026109660574414;" width="123.6554" x="210.8825" y="280.3655"/><rect fill="#FEFECE" height="6.6841" style="stroke: #A80036; stroke-width: 1.0026109660574414;" width="10.0261" x="321.1697" y="283.7076"/><rect fill="#FEFECE" height="1.3368" style="stroke: #A80036; stroke-width: 1.0026109660574414;" width="2.6736" x="319.8329" y="285.0444"/><rect fill="#FEFECE" height="1.3368" style="stroke: #A80036; stroke-width: 1.0026109660574414;" width="2.6736" x="319.8329" y="287.718"/><text fill="#000000" font-family="sans-serif" font-size="9.3577" lengthAdjust="spacingAndGlyphs" textLength="96.9191" x="220.9086" y="302.4197">HVAC Systems Editor</text><text fill="#000000" font-family="sans-serif" font-size="9.3577" lengthAdjust="spacingAndGlyphs" textLength="60.8251" x="238.9556" y="313.3127">(SOEP Mode)</text><!--entity SOEP\nSimulator Interface--><rect fill="#FEFECE" filter="url(#fxkea6m)" height="41.8381" style="stroke: #A80036; stroke-width: 1.0026109660574414;" width="112.2924" x="468.5535" y="280.3655"/><rect fill="#FEFECE" height="6.6841" style="stroke: #A80036; stroke-width: 1.0026109660574414;" width="10.0261" x="567.4778" y="283.7076"/><rect fill="#FEFECE" height="1.3368" style="stroke: #A80036; stroke-width: 1.0026109660574414;" width="2.6736" x="566.141" y="285.0444"/><rect fill="#FEFECE" height="1.3368" style="stroke: #A80036; stroke-width: 1.0026109660574414;" width="2.6736" x="566.141" y="287.718"/><text fill="#000000" font-family="sans-serif" font-size="9.3577" lengthAdjust="spacingAndGlyphs" textLength="25.3995" x="508.658" y="302.4197">SOEP</text><text fill="#000000" font-family="sans-serif" font-size="9.3577" lengthAdjust="spacingAndGlyphs" textLength="85.5561" x="478.5796" y="313.3127">Simulator Interface</text><!--entity mod_AST--><path d="M259.6762,444.7937 C259.6762,438.1097 291.4256,438.1097 291.4256,438.1097 C291.4256,438.1097 323.1749,438.1097 323.1749,444.7937 L323.1749,469.9217 C323.1749,476.6057 291.4256,476.6057 291.4256,476.6057 C291.4256,476.6057 259.6762,476.6057 259.6762,469.9217 L259.6762,444.7937 " fill="#FEFECE" filter="url(#fxkea6m)" style="stroke: #000000; stroke-width: 1.0026109660574414;"/><path d="M259.6762,444.7937 C259.6762,451.4778 291.4256,451.4778 291.4256,451.4778 C291.4256,451.4778 323.1749,451.4778 323.1749,444.7937 " fill="none" style="stroke: #000000; stroke-width: 1.0026109660574414;"/><text fill="#000000" font-family="sans-serif" font-size="9.3577" lengthAdjust="spacingAndGlyphs" textLength="40.7728" x="271.0392" y="460.1638">Modelica</text><text fill="#000000" font-family="sans-serif" font-size="9.3577" lengthAdjust="spacingAndGlyphs" textLength="50.1305" x="266.3603" y="471.0568">Library AST</text><!--entity Modelica\nBuildings Library--><path d="M473.5666,444.7937 C473.5666,438.1097 517.3473,438.1097 517.3473,438.1097 C517.3473,438.1097 561.1279,438.1097 561.1279,444.7937 L561.1279,469.9217 C561.1279,476.6057 517.3473,476.6057 517.3473,476.6057 C517.3473,476.6057 473.5666,476.6057 473.5666,469.9217 L473.5666,444.7937 " fill="#FEFECE" filter="url(#fxkea6m)" style="stroke: #000000; stroke-width: 1.0026109660574414;"/><path d="M473.5666,444.7937 C473.5666,451.4778 517.3473,451.4778 517.3473,451.4778 C517.3473,451.4778 561.1279,451.4778 561.1279,444.7937 " fill="none" style="stroke: #000000; stroke-width: 1.0026109660574414;"/><text fill="#000000" font-family="sans-serif" font-size="9.3577" lengthAdjust="spacingAndGlyphs" textLength="40.7728" x="496.9608" y="460.1638">Modelica</text><text fill="#000000" font-family="sans-serif" font-size="9.3577" lengthAdjust="spacingAndGlyphs" textLength="74.1932" x="480.2507" y="471.0568">Buildings Library</text><!--entity Conversion Script--><rect fill="#FEFECE" filter="url(#fxkea6m)" height="30.9452" style="stroke: #A80036; stroke-width: 1.0026109660574414;" width="107.6136" x="83.8851" y="442.1201"/><rect fill="#FEFECE" height="6.6841" style="stroke: #A80036; stroke-width: 1.0026109660574414;" width="10.0261" x="178.1305" y="445.4621"/><rect fill="#FEFECE" height="1.3368" style="stroke: #A80036; stroke-width: 1.0026109660574414;" width="2.6736" x="176.7937" y="446.799"/><rect fill="#FEFECE" height="1.3368" style="stroke: #A80036; stroke-width: 1.0026109660574414;" width="2.6736" x="176.7937" y="449.4726"/><text fill="#000000" font-family="sans-serif" font-size="9.3577" lengthAdjust="spacingAndGlyphs" textLength="80.8773" x="93.9112" y="464.1743">Conversion Script</text><!--entity JModelica--><rect fill="#FEFECE" filter="url(#fxkea6m)" height="30.9452" style="stroke: #A80036; stroke-width: 1.0026109660574414;" width="69.5144" x="346.9034" y="442.1201"/><rect fill="#FEFECE" height="6.6841" style="stroke: #A80036; stroke-width: 1.0026109660574414;" width="10.0261" x="403.0496" y="445.4621"/><rect fill="#FEFECE" height="1.3368" style="stroke: #A80036; stroke-width: 1.0026109660574414;" width="2.6736" x="401.7128" y="446.799"/><rect fill="#FEFECE" height="1.3368" style="stroke: #A80036; stroke-width: 1.0026109660574414;" width="2.6736" x="401.7128" y="449.4726"/><text fill="#000000" font-family="sans-serif" font-size="9.3577" lengthAdjust="spacingAndGlyphs" textLength="42.7781" x="356.9295" y="464.1743">JModelica</text><!--entity EnergyPlus.exe--><rect fill="#FEFECE" filter="url(#fxkea6m)" height="30.9452" style="stroke: #A80036; stroke-width: 1.0026109660574414;" width="97.5875" x="49.4621" y="139.3316"/><rect fill="#FEFECE" height="6.6841" style="stroke: #A80036; stroke-width: 1.0026109660574414;" width="10.0261" x="133.6815" y="142.6736"/><rect fill="#FEFECE" height="1.3368" style="stroke: #A80036; stroke-width: 1.0026109660574414;" width="2.6736" x="132.3446" y="144.0104"/><rect fill="#FEFECE" height="1.3368" style="stroke: #A80036; stroke-width: 1.0026109660574414;" width="2.6736" x="132.3446" y="146.6841"/><text fill="#000000" font-family="sans-serif" font-size="9.3577" lengthAdjust="spacingAndGlyphs" textLength="70.8512" x="59.4883" y="161.3858">EnergyPlus.exe</text><!--entity epdev--><ellipse cx="790.7258" cy="436.4386" fill="#FEFECE" filter="url(#fxkea6m)" rx="5.3473" ry="5.3473" style="stroke: #A80036; stroke-width: 1.3368146214099217;"/><path d="M790.7258,441.7859 L790.7258,459.8329 M782.0366,447.1332 L799.4151,447.1332 M790.7258,459.8329 L782.0366,469.859 M790.7258,459.8329 L799.4151,469.859 " fill="#FEFECE" filter="url(#fxkea6m)" style="stroke: #A80036; stroke-width: 1.3368146214099217;"/><text fill="#000000" font-family="sans-serif" font-size="9.3577" lengthAdjust="spacingAndGlyphs" textLength="47.4569" x="766.9974" y="483.2239">Developer</text><!--entity modev--><ellipse cx="137.6919" cy="543.3838" fill="#FEFECE" filter="url(#fxkea6m)" rx="5.3473" ry="5.3473" style="stroke: #A80036; stroke-width: 1.3368146214099217;"/><path d="M137.6919,548.7311 L137.6919,566.7781 M129.0026,554.0783 L146.3812,554.0783 M137.6919,566.7781 L129.0026,576.8042 M137.6919,566.7781 L146.3812,576.8042 " fill="#FEFECE" filter="url(#fxkea6m)" style="stroke: #A80036; stroke-width: 1.3368146214099217;"/><text fill="#000000" font-family="sans-serif" font-size="9.3577" lengthAdjust="spacingAndGlyphs" textLength="83.5509" x="95.9164" y="590.1691">Developer or User</text><!--entity budev--><ellipse cx="517.3473" cy="543.3838" fill="#FEFECE" filter="url(#fxkea6m)" rx="5.3473" ry="5.3473" style="stroke: #A80036; stroke-width: 1.3368146214099217;"/><path d="M517.3473,548.7311 L517.3473,566.7781 M508.658,554.0783 L526.0366,554.0783 M517.3473,566.7781 L508.658,576.8042 M517.3473,566.7781 L526.0366,576.8042 " fill="#FEFECE" filter="url(#fxkea6m)" style="stroke: #A80036; stroke-width: 1.3368146214099217;"/><text fill="#000000" font-family="sans-serif" font-size="9.3577" lengthAdjust="spacingAndGlyphs" textLength="47.4569" x="493.6188" y="590.1691">Developer</text><!--entity mouse--><ellipse cx="326.8512" cy="666.3708" fill="#FEFECE" filter="url(#fxkea6m)" rx="5.3473" ry="5.3473" style="stroke: #A80036; stroke-width: 1.3368146214099217;"/><path d="M326.8512,671.718 L326.8512,689.765 M318.1619,677.0653 L335.5405,677.0653 M326.8512,689.765 L318.1619,699.7911 M326.8512,689.765 L335.5405,699.7911 " fill="#FEFECE" filter="url(#fxkea6m)" style="stroke: #A80036; stroke-width: 1.3368146214099217;"/><text fill="#000000" font-family="sans-serif" font-size="9.3577" lengthAdjust="spacingAndGlyphs" textLength="21.389" x="316.1567" y="713.156">User</text><!--entity User-Provided\nModelica Library--><path d="M338.5483,551.7389 C338.5483,545.0548 381.6606,545.0548 381.6606,545.0548 C381.6606,545.0548 424.7728,545.0548 424.7728,551.7389 L424.7728,576.8668 C424.7728,583.5509 381.6606,583.5509 381.6606,583.5509 C381.6606,583.5509 338.5483,583.5509 338.5483,576.8668 L338.5483,551.7389 " fill="#FEFECE" filter="url(#fxkea6m)" style="stroke: #000000; stroke-width: 1.0026109660574414;"/><path d="M338.5483,551.7389 C338.5483,558.423 381.6606,558.423 381.6606,558.423 C381.6606,558.423 424.7728,558.423 424.7728,551.7389 " fill="none" style="stroke: #000000; stroke-width: 1.0026109660574414;"/><text fill="#000000" font-family="sans-serif" font-size="9.3577" lengthAdjust="spacingAndGlyphs" textLength="64.8355" x="349.2428" y="567.109">User-Provided</text><text fill="#000000" font-family="sans-serif" font-size="9.3577" lengthAdjust="spacingAndGlyphs" textLength="72.8564" x="345.2324" y="578.002">Modelica Library</text><!--entity Application--><rect fill="#FEFECE" filter="url(#fxkea6m)" height="30.9452" style="stroke: #A80036; stroke-width: 1.0026109660574414;" width="76.8668" x="276.3864" y="19.6867"/><rect fill="#FEFECE" height="6.6841" style="stroke: #A80036; stroke-width: 1.0026109660574414;" width="10.0261" x="339.8851" y="23.0287"/><rect fill="#FEFECE" height="1.3368" style="stroke: #A80036; stroke-width: 1.0026109660574414;" width="2.6736" x="338.5483" y="24.3655"/><rect fill="#FEFECE" height="1.3368" style="stroke: #A80036; stroke-width: 1.0026109660574414;" width="2.6736" x="338.5483" y="27.0392"/><text fill="#000000" font-family="sans-serif" font-size="9.3577" lengthAdjust="spacingAndGlyphs" textLength="50.1305" x="286.4125" y="41.7409">Application</text><!--entity Measures--><rect fill="#FEFECE" filter="url(#fxkea6m)" height="30.9452" style="stroke: #A80036; stroke-width: 1.0026109660574414;" width="72.188" x="527.3734" y="19.6867"/><rect fill="#FEFECE" height="6.6841" style="stroke: #A80036; stroke-width: 1.0026109660574414;" width="10.0261" x="586.1932" y="23.0287"/><rect fill="#FEFECE" height="1.3368" style="stroke: #A80036; stroke-width: 1.0026109660574414;" width="2.6736" x="584.8564" y="24.3655"/><rect fill="#FEFECE" height="1.3368" style="stroke: #A80036; stroke-width: 1.0026109660574414;" width="2.6736" x="584.8564" y="27.0392"/><text fill="#000000" font-family="sans-serif" font-size="9.3577" lengthAdjust="spacingAndGlyphs" textLength="45.4517" x="537.3995" y="41.7409">Measures</text><polygon fill="#FBFB77" filter="url(#fxkea6m)" points="4.0104,288.0522,4.0104,314.9661,173.7859,314.9661,173.7859,294.7363,167.1018,288.0522,4.0104,288.0522" style="stroke: #A80036; stroke-width: 0.6684073107049608;"/><polygon fill="#FBFB77" points="4.0104,288.0522,4.0104,314.9661,102.9708,314.9661,266.6076,437.8637,108.3181,314.9661,173.7859,314.9661,173.7859,294.7363,167.1018,288.0522,4.0104,288.0522" style="stroke: #A80036; stroke-width: 0.6684073107049608;"/><line style="stroke: #A80036; stroke-width: 0.6684073107049608;" x1="167.1018" x2="167.1018" y1="288.0522" y2="294.7363"/><line style="stroke: #A80036; stroke-width: 0.6684073107049608;" x1="173.7859" x2="167.1018" y1="294.7363" y2="294.7363"/><text fill="#000000" font-family="sans-serif" font-size="8.6893" lengthAdjust="spacingAndGlyphs" textLength="155.7389" x="8.0209" y="299.4599">Used as an intermediate format and</text><text fill="#000000" font-family="sans-serif" font-size="8.6893" lengthAdjust="spacingAndGlyphs" textLength="133.0131" x="8.0209" y="309.5747">to verify incompatible changes.</text><polygon fill="#FBFB77" filter="url(#fxkea6m)" points="361.2742,643.6449,361.2742,731.248,511.6658,731.248,511.6658,650.329,504.9817,643.6449,361.2742,643.6449" style="stroke: #A80036; stroke-width: 0.6684073107049608;"/><line style="stroke: #A80036; stroke-width: 0.6684073107049608;" x1="504.9817" x2="504.9817" y1="643.6449" y2="650.329"/><line style="stroke: #A80036; stroke-width: 0.6684073107049608;" x1="511.6658" x2="504.9817" y1="650.329" y2="650.329"/><text fill="#000000" font-family="sans-serif" font-size="8.6893" lengthAdjust="spacingAndGlyphs" textLength="104.9399" x="365.2846" y="655.0525">Allows companies to use</text><text fill="#000000" font-family="sans-serif" font-size="8.6893" lengthAdjust="spacingAndGlyphs" textLength="114.9661" x="365.2846" y="665.1674">their own Modelica libraries</text><text fill="#000000" font-family="sans-serif" font-size="8.6893" lengthAdjust="spacingAndGlyphs" textLength="136.3551" x="365.2846" y="675.2823">with custom HVAC systems and</text><text fill="#000000" font-family="sans-serif" font-size="8.6893" lengthAdjust="spacingAndGlyphs" textLength="92.2402" x="365.2846" y="685.3972">control sequences, or</text><text fill="#000000" font-family="sans-serif" font-size="8.6893" lengthAdjust="spacingAndGlyphs" textLength="107.6136" x="365.2846" y="695.5121">to integrate an electronic</text><text fill="#000000" font-family="sans-serif" font-size="8.6893" lengthAdjust="spacingAndGlyphs" textLength="99.5927" x="365.2846" y="705.627">equipment catalog or a</text><text fill="#000000" font-family="sans-serif" font-size="8.6893" lengthAdjust="spacingAndGlyphs" textLength="125.6606" x="365.2846" y="715.7418">library used for an equipment</text><text fill="#000000" font-family="sans-serif" font-size="8.6893" lengthAdjust="spacingAndGlyphs" textLength="43.4465" x="365.2846" y="725.8567">sales tool.</text><polygon fill="#FBFB77" filter="url(#fxkea6m)" points="399.7076,21.6919,399.7076,48.6057,503.9791,48.6057,503.9791,28.376,497.295,21.6919,399.7076,21.6919" style="stroke: #A80036; stroke-width: 0.6684073107049608;"/><polygon fill="#FBFB77" points="399.7076,21.6919,399.7076,32.3864,353.3575,35.0601,399.7076,37.7337,399.7076,48.6057,503.9791,48.6057,503.9791,28.376,497.295,21.6919,399.7076,21.6919" style="stroke: #A80036; stroke-width: 0.6684073107049608;"/><line style="stroke: #A80036; stroke-width: 0.6684073107049608;" x1="497.295" x2="497.295" y1="21.6919" y2="28.376"/><line style="stroke: #A80036; stroke-width: 0.6684073107049608;" x1="503.9791" x2="497.295" y1="28.376" y2="28.376"/><text fill="#000000" font-family="sans-serif" font-size="8.6893" lengthAdjust="spacingAndGlyphs" textLength="89.5666" x="403.718" y="33.0995">Application that uses</text><text fill="#000000" font-family="sans-serif" font-size="8.6893" lengthAdjust="spacingAndGlyphs" textLength="90.235" x="403.718" y="43.2144">the OpenStudio SDK.</text><path d="M508.3318,154.705 C523.9017,154.705 539.4715,154.705 555.0421,154.705 " fill="none" style="stroke: #A80036; stroke-width: 0.6684073107049608;"/><path d="M604.1774,163.5714 C638.2521,175.8153 700.297,201.5155 742.6005,238.9243 C755.8617,250.6528 768.0802,266.4373 776.8831,279.1216 " fill="none" style="stroke: #A80036; stroke-width: 0.6684073107049608;"/><polygon fill="#A80036" points="778.8215,281.9436,777.6136,275.4724,776.9269,279.1906,773.2087,278.5038,778.8215,281.9436" style="stroke: #A80036; stroke-width: 0.6684073107049608;"/><text fill="#000000" font-family="sans-serif" font-size="8.6893" lengthAdjust="spacingAndGlyphs" textLength="43.4465" x="735.248" y="220.922">integrates</text><path d="M604.1039,158.0316 C643.5519,162.9351 722.8157,175.4443 784.7102,202.1619 C811.6403,213.7862 816.0785,221.2897 839.5196,238.9243 C855.9557,251.2898 873.6217,266.0897 887.5112,278.109 " fill="none" style="stroke: #A80036; stroke-width: 0.6684073107049608;"/><polygon fill="#A80036" points="890.0645,280.3194,887.2677,274.36,887.5383,278.1314,883.7669,278.402,890.0645,280.3194" style="stroke: #A80036; stroke-width: 0.6684073107049608;"/><text fill="#000000" font-family="sans-serif" font-size="8.6893" lengthAdjust="spacingAndGlyphs" textLength="43.4465" x="832.1671" y="220.922">integrates</text><path d="M590.1669,170.208 C596.6631,179.3458 605.071,191.3444 612.2611,202.1619 C629.129,227.5393 647.6626,257.1765 660.0649,277.2802 " fill="none" style="stroke: #A80036; stroke-width: 0.6684073107049608;"/><polygon fill="#A80036" points="661.8496,280.175,660.9694,273.6511,660.0961,277.3299,656.4172,276.4566,661.8496,280.175" style="stroke: #A80036; stroke-width: 0.6684073107049608;"/><text fill="#000000" font-family="sans-serif" font-size="8.6893" lengthAdjust="spacingAndGlyphs" textLength="43.4465" x="631.6449" y="220.922">integrates</text><path d="M561.7449,170.1545 C550.4074,178.9581 535.0614,189.7556 520.0209,196.8146 C511.9305,200.6118 508.5557,198.0198 500.6371,202.1619 C478.0222,213.9914 474.8426,221.1553 456.5222,238.9243 C441.9716,253.037 426.7841,270.4083 416.0963,283.1408 " fill="none" style="stroke: #A80036; stroke-width: 0.6684073107049608;"/><polygon fill="#A80036" points="413.7508,285.9467,419.6607,283.0467,415.8946,283.3828,415.5584,279.6167,413.7508,285.9467" style="stroke: #A80036; stroke-width: 0.6684073107049608;"/><text fill="#000000" font-family="sans-serif" font-size="8.6893" lengthAdjust="spacingAndGlyphs" textLength="43.4465" x="501.3055" y="220.922">integrates</text><path d="M563.7214,170.0944 C552.462,179.5998 536.4597,191.204 520.0209,196.8146 C497.2202,204.5962 434.8899,195.4952 411.7389,202.1619 C379.658,211.3999 373.6878,219.9281 346.235,238.9243 C329.1919,250.717 311.3709,265.6292 297.5422,277.8537 " fill="none" style="stroke: #A80036; stroke-width: 0.6684073107049608;"/><polygon fill="#A80036" points="295.0076,280.1035,301.2813,278.1094,297.5069,277.8849,297.7315,274.1104,295.0076,280.1035" style="stroke: #A80036; stroke-width: 0.6684073107049608;"/><text fill="#000000" font-family="sans-serif" font-size="8.6893" lengthAdjust="spacingAndGlyphs" textLength="43.4465" x="412.4073" y="220.922">integrates</text><path d="M573.952,170.1131 C564.4726,195.2566 545.0969,246.6491 533.6771,276.9406 " fill="none" style="stroke: #A80036; stroke-width: 0.6684073107049608;"/><polygon fill="#A80036" points="532.4613,280.1657,537.0855,275.4803,533.6405,277.0386,532.0822,273.5936,532.4613,280.1657" style="stroke: #A80036; stroke-width: 0.6684073107049608;"/><text fill="#000000" font-family="sans-serif" font-size="8.6893" lengthAdjust="spacingAndGlyphs" textLength="43.4465" x="562.799" y="220.922">integrates</text><path d="M391.3979,317.027 C379.0598,334.828 357.7082,365.4197 338.8825,391.3211 C337.136,393.7241 336.6333,394.2762 334.8721,396.6684 C325.509,409.3895 315.1487,423.7249 306.8939,435.2094 " fill="none" style="stroke: #A80036; stroke-width: 0.6684073107049608;"/><polygon fill="#A80036" points="304.8425,438.0649,310.5234,434.7386,306.7922,435.3505,306.1804,431.6192,304.8425,438.0649" style="stroke: #A80036; stroke-width: 0.6684073107049608;"/><text fill="#000000" font-family="sans-serif" font-size="8.6893" lengthAdjust="spacingAndGlyphs" textLength="48.7937" x="360.9399" y="373.6531">parses json</text><text fill="#000000" font-family="sans-serif" font-size="8.6893" lengthAdjust="spacingAndGlyphs" textLength="16.7102" x="376.9817" y="383.768">AST</text><path d="M275.1953,322.6363 C278.7091,351.6879 285.1045,404.5603 288.7292,434.5323 " fill="none" style="stroke: #A80036; stroke-width: 0.6684073107049608; stroke-dasharray: 7.0,7.0;"/><polygon fill="#A80036" points="289.1356,437.8931,291.0681,431.6001,288.7346,434.5752,285.7595,432.2417,289.1356,437.8931" style="stroke: #A80036; stroke-width: 0.6684073107049608;"/><text fill="#000000" font-family="sans-serif" font-size="8.6893" lengthAdjust="spacingAndGlyphs" textLength="48.7937" x="284.0731" y="373.6531">parses json</text><text fill="#000000" font-family="sans-serif" font-size="8.6893" lengthAdjust="spacingAndGlyphs" textLength="16.7102" x="300.1149" y="383.768">AST</text><path d="M149.4372,442.07 C164.4556,423.7616 192.365,394.2133 224.2507,382.2977 C252.2128,371.8478 323.4877,389.7537 334.8721,396.6684 C351.4927,406.7634 364.3702,425.1198 372.3704,439.0354 " fill="none" style="stroke: #A80036; stroke-width: 0.6684073107049608; stroke-dasharray: 7.0,7.0;"/><polygon fill="#A80036" points="374.1016,442.1114,373.4813,435.5577,372.4625,439.1989,368.8212,438.1802,374.1016,442.1114" style="stroke: #A80036; stroke-width: 0.6684073107049608;"/><text fill="#000000" font-family="sans-serif" font-size="8.6893" lengthAdjust="spacingAndGlyphs" textLength="28.7415" x="224.9191" y="373.6531">parses</text><text fill="#000000" font-family="sans-serif" font-size="8.6893" lengthAdjust="spacingAndGlyphs" textLength="16.7102" x="230.9347" y="383.768">AST</text><path d="M505.7049,322.6363 C477.3043,353.3603 424.2749,410.7257 397.7023,439.4712 " fill="none" style="stroke: #A80036; stroke-width: 0.6684073107049608; stroke-dasharray: 7.0,7.0;"/><polygon fill="#A80036" points="395.3703,441.9944,401.4172,439.3923,397.639,439.5405,397.4908,435.7623,395.3703,441.9944" style="stroke: #A80036; stroke-width: 0.6684073107049608;"/><text fill="#000000" font-family="sans-serif" font-size="8.6893" lengthAdjust="spacingAndGlyphs" textLength="56.1462" x="477.2428" y="368.64">writes inputs,</text><text fill="#000000" font-family="sans-serif" font-size="8.6893" lengthAdjust="spacingAndGlyphs" textLength="68.1775" x="471.2272" y="378.7549">runs simulation,</text><text fill="#000000" font-family="sans-serif" font-size="8.6893" lengthAdjust="spacingAndGlyphs" textLength="59.4883" x="475.5718" y="388.8698">reads outputs</text><path d="M191.6765,457.4935 C213.0161,457.4935 236.9437,457.4935 256.0147,457.4935 " fill="none" style="stroke: #A80036; stroke-width: 0.6684073107049608;"/><polygon fill="#A80036" points="259.5172,457.4935,253.5015,454.8198,256.1751,457.4935,253.5015,460.1671,259.5172,457.4935" style="stroke: #A80036; stroke-width: 0.6684073107049608;"/><text fill="#000000" font-family="sans-serif" font-size="8.6893" lengthAdjust="spacingAndGlyphs" textLength="43.4465" x="203.8642" y="452.8593">generates</text><path d="M416.4271,457.4935 C432.6955,457.4935 452.3233,457.4935 469.9278,457.4935 " fill="none" style="stroke: #A80036; stroke-width: 0.6684073107049608;"/><polygon fill="#A80036" points="473.4202,457.4935,467.4045,454.8198,470.0782,457.4935,467.4045,460.1671,473.4202,457.4935" style="stroke: #A80036; stroke-width: 0.6684073107049608;"/><text fill="#000000" font-family="sans-serif" font-size="8.6893" lengthAdjust="spacingAndGlyphs" textLength="32.752" x="428.6162" y="452.8593">imports</text><path d="M790.7258,324.5219 C790.7258,352.3457 790.7258,399.7478 790.7258,429.6175 " fill="none" style="stroke: #A80036; stroke-width: 0.6684073107049608; stroke-dasharray: 7.0,7.0;"/><polygon fill="#A80036" points="790.7258,321.0622,788.0522,327.0778,790.7258,324.4042,793.3995,327.0778,790.7258,321.0622" style="stroke: #A80036; stroke-width: 0.6684073107049608;"/><text fill="#000000" font-family="sans-serif" font-size="8.6893" lengthAdjust="spacingAndGlyphs" textLength="34.7572" x="791.3943" y="378.6661">updates</text><path d="M137.6919,476.4742 C137.6919,493.0287 137.6919,517.6227 137.6919,536.4912 " fill="none" style="stroke: #A80036; stroke-width: 0.6684073107049608; stroke-dasharray: 7.0,7.0;"/><polygon fill="#A80036" points="137.6919,473.0687,135.0183,479.0844,137.6919,476.4107,140.3655,479.0844,137.6919,473.0687" style="stroke: #A80036; stroke-width: 0.6684073107049608;"/><text fill="#000000" font-family="sans-serif" font-size="8.6893" lengthAdjust="spacingAndGlyphs" textLength="32.0836" x="138.3603" y="514.0186">invokes</text><path d="M517.3473,480.4386 C517.3473,496.7938 517.3473,519.0999 517.3473,536.5186 " fill="none" style="stroke: #A80036; stroke-width: 0.6684073107049608; stroke-dasharray: 7.0,7.0;"/><polygon fill="#A80036" points="517.3473,477.0424,514.6736,483.058,517.3473,480.3844,520.0209,483.058,517.3473,477.0424" style="stroke: #A80036; stroke-width: 0.6684073107049608;"/><text fill="#000000" font-family="sans-serif" font-size="8.6893" lengthAdjust="spacingAndGlyphs" textLength="74.1932" x="518.0157" y="514.0186">adds annotations</text><path d="M360.8043,586.6197 C354.4383,594.2022 347.9648,603.1187 343.5614,612.2298 C336.4061,627.0337 332.2619,644.9817 329.8904,659.555 " fill="none" style="stroke: #A80036; stroke-width: 0.6684073107049608; stroke-dasharray: 7.0,7.0;"/><polygon fill="#A80036" points="363.1403,583.8886,357.1974,586.7201,360.9671,586.4276,361.2597,590.1973,363.1403,583.8886" style="stroke: #A80036; stroke-width: 0.6684073107049608;"/><text fill="#000000" font-family="sans-serif" font-size="8.6893" lengthAdjust="spacingAndGlyphs" textLength="74.1932" x="344.2298" y="620.9638">adds annotations</text><path d="M338.061,50.4735 C379.0411,76.4706 462.5312,129.4378 491.2994,147.6887 " fill="none" style="stroke: #A80036; stroke-width: 0.6684073107049608; stroke-dasharray: 7.0,7.0;"/><polygon fill="#A80036" points="494.2217,149.5422,490.5747,144.0617,491.3998,147.7516,487.7098,148.5767,494.2217,149.5422" style="stroke: #A80036; stroke-width: 0.6684073107049608;"/><text fill="#000000" font-family="sans-serif" font-size="8.6893" lengthAdjust="spacingAndGlyphs" textLength="20.0522" x="387.0078" y="79.2196">uses</text><path d="M555.7205,50.4735 C543.6223,73.4982 520.4092,117.6779 508.5971,140.1591 " fill="none" style="stroke: #A80036; stroke-width: 0.6684073107049608; stroke-dasharray: 7.0,7.0;"/><polygon fill="#A80036" points="506.9395,143.3133,512.1046,139.2319,508.4941,140.3549,507.3711,136.7444,506.9395,143.3133" style="stroke: #A80036; stroke-width: 0.6684073107049608;"/><text fill="#000000" font-family="sans-serif" font-size="8.6893" lengthAdjust="spacingAndGlyphs" textLength="20.0522" x="546.0888" y="79.2196">uses</text><path d="M381.6606,473.0687 C381.6606,490.9132 381.6606,520.9614 381.6606,541.547 " fill="none" style="stroke: #A80036; stroke-width: 0.6684073107049608;"/><polygon fill="#A80036" points="381.6606,545.0207,384.3342,539.0051,381.6606,541.6787,378.9869,539.0051,381.6606,545.0207" style="stroke: #A80036; stroke-width: 0.6684073107049608;"/><text fill="#000000" font-family="sans-serif" font-size="8.6893" lengthAdjust="spacingAndGlyphs" textLength="32.752" x="382.329" y="514.0186">imports</text><path d="M32.3443,186.2485 C32.5818,186.7946 32.8282,187.3371 33.084,187.8749 C33.5955,188.9504 34.1443,190.0072 34.7331,191.0366 C35.9107,193.0954 37.2483,195.0445 38.7676,196.8146 C63.2581,225.3469 78.3581,224.9913 114.9661,233.577 C140.7445,239.6228 566.4578,230.4429 591.5405,238.9243 C616.0289,247.2045 639.1926,265.7321 654.7731,280.3589 " fill="none" style="stroke: #A80036; stroke-width: 0.6684073107049608; stroke-dasharray: 7.0,7.0;"/><polygon fill="#A80036" points="32.3443,186.2485,32.2913,192.8314,33.677,189.3134,37.195,190.6991,32.3443,186.2485" style="stroke: #A80036; stroke-width: 0.6684073107049608;"/><text fill="#000000" font-family="sans-serif" font-size="8.6893" lengthAdjust="spacingAndGlyphs" textLength="56.1462" x="121.6501" y="210.8959">writes inputs,</text><text fill="#000000" font-family="sans-serif" font-size="8.6893" lengthAdjust="spacingAndGlyphs" textLength="68.1775" x="115.6345" y="221.0108">runs simulation,</text><text fill="#000000" font-family="sans-serif" font-size="8.6893" lengthAdjust="spacingAndGlyphs" textLength="59.4883" x="119.9791" y="231.1257">reads outputs</text><path d="M401.5223,583.8953 C408.9389,591.949 416.7653,601.8795 421.765,612.2298 C426.4399,621.9083 429.6282,632.9778 431.8032,643.5721 " fill="none" style="stroke: #A80036; stroke-width: 0.6684073107049608; stroke-dasharray: 7.0,7.0;"/></g></svg>