<?xml version="1.0" encoding="UTF-8" standalone="no"?><svg xmlns="http://www.w3.org/2000/svg" xmlns:xlink="http://www.w3.org/1999/xlink" contentScriptType="application/ecmascript" contentStyleType="text/css" height="1398px" preserveAspectRatio="none" style="width:2066px;height:1398px;" version="1.1" viewBox="0 0 2066 1398" width="2066px" zoomAndPan="magnify"><defs><filter height="300%" id="fku6971" width="300%" x="-1" y="-1"><feGaussianBlur result="blurOut" stdDeviation="2.0"/><feColorMatrix in="blurOut" result="blurOut2" type="matrix" values="0 0 0 0 0 0 0 0 0 0 0 0 0 0 0 0 0 0 .4 0"/><feOffset dx="4.0" dy="4.0" in="blurOut2" result="blurOut3"/><feBlend in="SourceGraphic" in2="blurOut3" mode="normal"/></filter></defs><g><text fill="#000000" font-family="sans-serif" font-size="18" lengthAdjust="spacingAndGlyphs" textLength="576" x="762.5" y="17.4023">Overall software architecture (with one editor for the SOEP mode).</text><!--cluster OpenStudio--><polygon fill="#FFFFFF" filter="url(#fku6971)" points="235,156.1992,325,156.1992,332,178.6875,1469,178.6875,1469,634.1992,235,634.1992,235,156.1992" style="stroke: #000000; stroke-width: 2.0;"/><line style="stroke: #000000; stroke-width: 2.0;" x1="235" x2="332" y1="178.6875" y2="178.6875"/><text fill="#000000" font-family="sans-serif" font-size="14" font-weight="bold" lengthAdjust="spacingAndGlyphs" textLength="84" x="239" y="171.7344">OpenStudio</text><!--cluster Legacy-Mode--><polygon fill="#FFFFFF" filter="url(#fku6971)" points="868,488.1992,970,488.1992,977,510.6875,1437,510.6875,1437,602.1992,868,602.1992,868,488.1992" style="stroke: #000000; stroke-width: 2.0;"/><line style="stroke: #000000; stroke-width: 2.0;" x1="868" x2="977" y1="510.6875" y2="510.6875"/><text fill="#000000" font-family="sans-serif" font-size="14" font-weight="bold" lengthAdjust="spacingAndGlyphs" textLength="96" x="872" y="503.7344">Legacy-Mode</text><!--cluster SOEP-Mode--><polygon fill="#FFFFFF" filter="url(#fku6971)" points="275,488.1992,366,488.1992,373,510.6875,844,510.6875,844,602.1992,275,602.1992,275,488.1992" style="stroke: #000000; stroke-width: 2.0;"/><line style="stroke: #000000; stroke-width: 2.0;" x1="275" x2="373" y1="510.6875" y2="510.6875"/><text fill="#000000" font-family="sans-serif" font-size="14" font-weight="bold" lengthAdjust="spacingAndGlyphs" textLength="85" x="279" y="503.7344">SOEP-Mode</text><!--cluster EnergyPlus--><polygon fill="#FFFFFF" filter="url(#fku6971)" points="1509,288.1992,1594,288.1992,1601,310.6875,2059,310.6875,2059,401.1992,1509,401.1992,1509,288.1992" style="stroke: #000000; stroke-width: 2.0;"/><line style="stroke: #000000; stroke-width: 2.0;" x1="1509" x2="1601" y1="310.6875" y2="310.6875"/><text fill="#000000" font-family="sans-serif" font-size="14" font-weight="bold" lengthAdjust="spacingAndGlyphs" textLength="79" x="1513" y="303.7344">EnergyPlus</text><!--cluster SOEP--><polygon fill="#FFFFFF" filter="url(#fku6971)" points="249,730.1992,292,730.1992,299,752.6875,576,752.6875,576,1194.1992,249,1194.1992,249,730.1992" style="stroke: #000000; stroke-width: 2.0;"/><line style="stroke: #000000; stroke-width: 2.0;" x1="249" x2="299" y1="752.6875" y2="752.6875"/><text fill="#000000" font-family="sans-serif" font-size="14" font-weight="bold" lengthAdjust="spacingAndGlyphs" textLength="37" x="253" y="745.7344">SOEP</text><!--entity API--><ellipse cx="770" cy="208.1992" fill="#FEFECE" filter="url(#fku6971)" rx="8" ry="8" style="stroke: #A80036; stroke-width: 2.0;"/><text fill="#000000" font-family="sans-serif" font-size="14" lengthAdjust="spacingAndGlyphs" textLength="22" x="759" y="230.7344">API</text><!--entity Core--><rect fill="#FEFECE" filter="url(#fku6971)" height="46.4883" style="stroke: #A80036; stroke-width: 1.5;" width="73" x="733.5" y="331.1992"/><rect fill="#FEFECE" height="10" style="stroke: #A80036; stroke-width: 1.5;" width="15" x="786.5" y="336.1992"/><rect fill="#FEFECE" height="2" style="stroke: #A80036; stroke-width: 1.5;" width="4" x="784.5" y="338.1992"/><rect fill="#FEFECE" height="2" style="stroke: #A80036; stroke-width: 1.5;" width="4" x="784.5" y="342.1992"/><text fill="#000000" font-family="sans-serif" font-size="14" lengthAdjust="spacingAndGlyphs" textLength="33" x="748.5" y="364.7344">Core</text><!--entity Legacy\nModel Library--><path d="M884.5,535.6992 C884.5,525.6992 941,525.6992 941,525.6992 C941,525.6992 997.5,525.6992 997.5,535.6992 L997.5,573.6758 C997.5,583.6758 941,583.6758 941,583.6758 C941,583.6758 884.5,583.6758 884.5,573.6758 L884.5,535.6992 " fill="#FEFECE" filter="url(#fku6971)" style="stroke: #000000; stroke-width: 1.5;"/><path d="M884.5,535.6992 C884.5,545.6992 941,545.6992 941,545.6992 C941,545.6992 997.5,545.6992 997.5,535.6992 " fill="none" style="stroke: #000000; stroke-width: 1.5;"/><text fill="#000000" font-family="sans-serif" font-size="14" lengthAdjust="spacingAndGlyphs" textLength="46" x="918" y="559.2344">Legacy</text><text fill="#000000" font-family="sans-serif" font-size="14" lengthAdjust="spacingAndGlyphs" textLength="93" x="894.5" y="575.7227">Model Library</text><!--entity HVAC Systems Editor\n(Legacy Mode)--><rect fill="#FEFECE" filter="url(#fku6971)" height="62.9766" style="stroke: #A80036; stroke-width: 1.5;" width="183" x="1032.5" y="523.1992"/><rect fill="#FEFECE" height="10" style="stroke: #A80036; stroke-width: 1.5;" width="15" x="1195.5" y="528.1992"/><rect fill="#FEFECE" height="2" style="stroke: #A80036; stroke-width: 1.5;" width="4" x="1193.5" y="530.1992"/><rect fill="#FEFECE" height="2" style="stroke: #A80036; stroke-width: 1.5;" width="4" x="1193.5" y="534.1992"/><text fill="#000000" font-family="sans-serif" font-size="14" lengthAdjust="spacingAndGlyphs" textLength="143" x="1047.5" y="556.7344">HVAC Systems Editor</text><text fill="#000000" font-family="sans-serif" font-size="14" lengthAdjust="spacingAndGlyphs" textLength="98" x="1070" y="573.2227">(Legacy Mode)</text><!--entity EnergyPlus\nSimulator Interface--><rect fill="#FEFECE" filter="url(#fku6971)" height="62.9766" style="stroke: #A80036; stroke-width: 1.5;" width="170" x="1251" y="523.1992"/><rect fill="#FEFECE" height="10" style="stroke: #A80036; stroke-width: 1.5;" width="15" x="1401" y="528.1992"/><rect fill="#FEFECE" height="2" style="stroke: #A80036; stroke-width: 1.5;" width="4" x="1399" y="530.1992"/><rect fill="#FEFECE" height="2" style="stroke: #A80036; stroke-width: 1.5;" width="4" x="1399" y="534.1992"/><text fill="#000000" font-family="sans-serif" font-size="14" lengthAdjust="spacingAndGlyphs" textLength="75" x="1293.5" y="556.7344">EnergyPlus</text><text fill="#000000" font-family="sans-serif" font-size="14" lengthAdjust="spacingAndGlyphs" textLength="130" x="1266" y="573.2227">Simulator Interface</text><!--entity SOEP\nModel Library--><path d="M291.5,535.6992 C291.5,525.6992 348,525.6992 348,525.6992 C348,525.6992 404.5,525.6992 404.5,535.6992 L404.5,573.6758 C404.5,583.6758 348,583.6758 348,583.6758 C348,583.6758 291.5,583.6758 291.5,573.6758 L291.5,535.6992 " fill="#FEFECE" filter="url(#fku6971)" style="stroke: #000000; stroke-width: 1.5;"/><path d="M291.5,535.6992 C291.5,545.6992 348,545.6992 348,545.6992 C348,545.6992 404.5,545.6992 404.5,535.6992 " fill="none" style="stroke: #000000; stroke-width: 1.5;"/><text fill="#000000" font-family="sans-serif" font-size="14" lengthAdjust="spacingAndGlyphs" textLength="35" x="330.5" y="559.2344">SOEP</text><text fill="#000000" font-family="sans-serif" font-size="14" lengthAdjust="spacingAndGlyphs" textLength="93" x="301.5" y="575.7227">Model Library</text><!--entity HVAC Systems Editor\n(SOEP Mode)--><rect fill="#FEFECE" filter="url(#fku6971)" height="62.9766" style="stroke: #A80036; stroke-width: 1.5;" width="183" x="439.5" y="523.1992"/><rect fill="#FEFECE" height="10" style="stroke: #A80036; stroke-width: 1.5;" width="15" x="602.5" y="528.1992"/><rect fill="#FEFECE" height="2" style="stroke: #A80036; stroke-width: 1.5;" width="4" x="600.5" y="530.1992"/><rect fill="#FEFECE" height="2" style="stroke: #A80036; stroke-width: 1.5;" width="4" x="600.5" y="534.1992"/><text fill="#000000" font-family="sans-serif" font-size="14" lengthAdjust="spacingAndGlyphs" textLength="143" x="454.5" y="556.7344">HVAC Systems Editor</text><text fill="#000000" font-family="sans-serif" font-size="14" lengthAdjust="spacingAndGlyphs" textLength="87" x="482.5" y="573.2227">(SOEP Mode)</text><!--entity SOEP\nSimulator Interface--><rect fill="#FEFECE" filter="url(#fku6971)" height="62.9766" style="stroke: #A80036; stroke-width: 1.5;" width="170" x="658" y="523.1992"/><rect fill="#FEFECE" height="10" style="stroke: #A80036; stroke-width: 1.5;" width="15" x="808" y="528.1992"/><rect fill="#FEFECE" height="2" style="stroke: #A80036; stroke-width: 1.5;" width="4" x="806" y="530.1992"/><rect fill="#FEFECE" height="2" style="stroke: #A80036; stroke-width: 1.5;" width="4" x="806" y="534.1992"/><text fill="#000000" font-family="sans-serif" font-size="14" lengthAdjust="spacingAndGlyphs" textLength="35" x="720.5" y="556.7344">SOEP</text><text fill="#000000" font-family="sans-serif" font-size="14" lengthAdjust="spacingAndGlyphs" textLength="130" x="673" y="573.2227">Simulator Interface</text><!--entity in.idf--><rect fill="#FEFECE" filter="url(#fku6971)" height="46.4883" style="stroke: #A80036; stroke-width: 1.5;" width="75" x="1552.5" y="331.1992"/><rect fill="#FEFECE" height="10" style="stroke: #A80036; stroke-width: 1.5;" width="15" x="1607.5" y="336.1992"/><rect fill="#FEFECE" height="2" style="stroke: #A80036; stroke-width: 1.5;" width="4" x="1605.5" y="338.1992"/><rect fill="#FEFECE" height="2" style="stroke: #A80036; stroke-width: 1.5;" width="4" x="1605.5" y="342.1992"/><text fill="#000000" font-family="sans-serif" font-size="14" lengthAdjust="spacingAndGlyphs" textLength="35" x="1567.5" y="364.7344">in.idf</text><!--entity EnergyPlus.exe--><rect fill="#FEFECE" filter="url(#fku6971)" height="46.4883" style="stroke: #A80036; stroke-width: 1.5;" width="144" x="1697" y="331.1992"/><rect fill="#FEFECE" height="10" style="stroke: #A80036; stroke-width: 1.5;" width="15" x="1821" y="336.1992"/><rect fill="#FEFECE" height="2" style="stroke: #A80036; stroke-width: 1.5;" width="4" x="1819" y="338.1992"/><rect fill="#FEFECE" height="2" style="stroke: #A80036; stroke-width: 1.5;" width="4" x="1819" y="342.1992"/><text fill="#000000" font-family="sans-serif" font-size="14" lengthAdjust="spacingAndGlyphs" textLength="104" x="1712" y="364.7344">EnergyPlus.exe</text><!--entity eplusout.sql--><rect fill="#FEFECE" filter="url(#fku6971)" height="46.4883" style="stroke: #A80036; stroke-width: 1.5;" width="124" x="1911" y="331.1992"/><rect fill="#FEFECE" height="10" style="stroke: #A80036; stroke-width: 1.5;" width="15" x="2015" y="336.1992"/><rect fill="#FEFECE" height="2" style="stroke: #A80036; stroke-width: 1.5;" width="4" x="2013" y="338.1992"/><rect fill="#FEFECE" height="2" style="stroke: #A80036; stroke-width: 1.5;" width="4" x="2013" y="342.1992"/><text fill="#000000" font-family="sans-serif" font-size="14" lengthAdjust="spacingAndGlyphs" textLength="84" x="1926" y="364.7344">eplusout.sql</text><!--entity JModelica--><rect fill="#FEFECE" filter="url(#fku6971)" height="46.4883" style="stroke: #A80036; stroke-width: 1.5;" width="105" x="454.5" y="978.6992"/><rect fill="#FEFECE" height="10" style="stroke: #A80036; stroke-width: 1.5;" width="15" x="539.5" y="983.6992"/><rect fill="#FEFECE" height="2" style="stroke: #A80036; stroke-width: 1.5;" width="4" x="537.5" y="985.6992"/><rect fill="#FEFECE" height="2" style="stroke: #A80036; stroke-width: 1.5;" width="4" x="537.5" y="989.6992"/><text fill="#000000" font-family="sans-serif" font-size="14" lengthAdjust="spacingAndGlyphs" textLength="65" x="469.5" y="1012.2344">JModelica</text><!--entity Conversion Script--><rect fill="#FEFECE" filter="url(#fku6971)" height="46.4883" style="stroke: #A80036; stroke-width: 1.5;" width="161" x="398.5" y="771.1992"/><rect fill="#FEFECE" height="10" style="stroke: #A80036; stroke-width: 1.5;" width="15" x="539.5" y="776.1992"/><rect fill="#FEFECE" height="2" style="stroke: #A80036; stroke-width: 1.5;" width="4" x="537.5" y="778.1992"/><rect fill="#FEFECE" height="2" style="stroke: #A80036; stroke-width: 1.5;" width="4" x="537.5" y="782.1992"/><text fill="#000000" font-family="sans-serif" font-size="14" lengthAdjust="spacingAndGlyphs" textLength="121" x="413.5" y="804.7344">Conversion Script</text><!--entity Modelica\nLibrary AST--><path d="M265,775.1992 C265,765.1992 314,765.1992 314,765.1992 C314,765.1992 363,765.1992 363,775.1992 L363,813.1758 C363,823.1758 314,823.1758 314,823.1758 C314,823.1758 265,823.1758 265,813.1758 L265,775.1992 " fill="#FEFECE" filter="url(#fku6971)" style="stroke: #000000; stroke-width: 1.5;"/><path d="M265,775.1992 C265,785.1992 314,785.1992 314,785.1992 C314,785.1992 363,785.1992 363,775.1992 " fill="none" style="stroke: #000000; stroke-width: 1.5;"/><text fill="#000000" font-family="sans-serif" font-size="14" lengthAdjust="spacingAndGlyphs" textLength="61" x="283.5" y="798.7344">Modelica</text><text fill="#000000" font-family="sans-serif" font-size="14" lengthAdjust="spacingAndGlyphs" textLength="78" x="275" y="815.2227">Library AST</text><!--entity Modelica\nBuildings Library--><path d="M422,1130.1992 C422,1120.1992 489,1120.1992 489,1120.1992 C489,1120.1992 556,1120.1992 556,1130.1992 L556,1168.1758 C556,1178.1758 489,1178.1758 489,1178.1758 C489,1178.1758 422,1178.1758 422,1168.1758 L422,1130.1992 " fill="#FEFECE" filter="url(#fku6971)" style="stroke: #000000; stroke-width: 1.5;"/><path d="M422,1130.1992 C422,1140.1992 489,1140.1992 489,1140.1992 C489,1140.1992 556,1140.1992 556,1130.1992 " fill="none" style="stroke: #000000; stroke-width: 1.5;"/><text fill="#000000" font-family="sans-serif" font-size="14" lengthAdjust="spacingAndGlyphs" textLength="61" x="458.5" y="1153.7344">Modelica</text><text fill="#000000" font-family="sans-serif" font-size="14" lengthAdjust="spacingAndGlyphs" textLength="114" x="432" y="1170.2227">Buildings Library</text><!--entity epdev--><ellipse cx="941" cy="762.6992" fill="#FEFECE" filter="url(#fku6971)" rx="8" ry="8" style="stroke: #A80036; stroke-width: 2.0;"/><path d="M941,770.6992 L941,797.6992 M928,778.6992 L954,778.6992 M941,797.6992 L928,812.6992 M941,797.6992 L954,812.6992 " fill="#FEFECE" filter="url(#fku6971)" style="stroke: #A80036; stroke-width: 2.0;"/><text fill="#000000" font-family="sans-serif" font-size="14" lengthAdjust="spacingAndGlyphs" textLength="69" x="906.5" y="833.2344">Developer</text><!--entity modev--><ellipse cx="171" cy="970.1992" fill="#FEFECE" filter="url(#fku6971)" rx="8" ry="8" style="stroke: #A80036; stroke-width: 2.0;"/><path d="M171,978.1992 L171,1005.1992 M158,986.1992 L184,986.1992 M171,1005.1992 L158,1020.1992 M171,1005.1992 L184,1020.1992 " fill="#FEFECE" filter="url(#fku6971)" style="stroke: #A80036; stroke-width: 2.0;"/><text fill="#000000" font-family="sans-serif" font-size="14" lengthAdjust="spacingAndGlyphs" textLength="123" x="109.5" y="1040.7344">Developer or User</text><!--entity budev--><ellipse cx="485" cy="1291.6992" fill="#FEFECE" filter="url(#fku6971)" rx="8" ry="8" style="stroke: #A80036; stroke-width: 2.0;"/><path d="M485,1299.6992 L485,1326.6992 M472,1307.6992 L498,1307.6992 M485,1326.6992 L472,1341.6992 M485,1326.6992 L498,1341.6992 " fill="#FEFECE" filter="url(#fku6971)" style="stroke: #A80036; stroke-width: 2.0;"/><text fill="#000000" font-family="sans-serif" font-size="14" lengthAdjust="spacingAndGlyphs" textLength="69" x="450.5" y="1362.2344">Developer</text><!--entity mouse--><ellipse cx="828" cy="1291.6992" fill="#FEFECE" filter="url(#fku6971)" rx="8" ry="8" style="stroke: #A80036; stroke-width: 2.0;"/><path d="M828,1299.6992 L828,1326.6992 M815,1307.6992 L841,1307.6992 M828,1326.6992 L815,1341.6992 M828,1326.6992 L841,1341.6992 " fill="#FEFECE" filter="url(#fku6971)" style="stroke: #A80036; stroke-width: 2.0;"/><text fill="#000000" font-family="sans-serif" font-size="14" lengthAdjust="spacingAndGlyphs" textLength="31" x="812.5" y="1362.2344">User</text><!--entity User-Provided\nModelica Library--><path d="M600,1130.1992 C600,1120.1992 666,1120.1992 666,1120.1992 C666,1120.1992 732,1120.1992 732,1130.1992 L732,1168.1758 C732,1178.1758 666,1178.1758 666,1178.1758 C666,1178.1758 600,1178.1758 600,1168.1758 L600,1130.1992 " fill="#FEFECE" filter="url(#fku6971)" style="stroke: #000000; stroke-width: 1.5;"/><path d="M600,1130.1992 C600,1140.1992 666,1140.1992 666,1140.1992 C666,1140.1992 732,1140.1992 732,1130.1992 " fill="none" style="stroke: #000000; stroke-width: 1.5;"/><text fill="#000000" font-family="sans-serif" font-size="14" lengthAdjust="spacingAndGlyphs" textLength="99" x="616.5" y="1153.7344">User-Provided</text><text fill="#000000" font-family="sans-serif" font-size="14" lengthAdjust="spacingAndGlyphs" textLength="112" x="610" y="1170.2227">Modelica Library</text><!--entity Application--><rect fill="#FEFECE" filter="url(#fku6971)" height="46.4883" style="stroke: #A80036; stroke-width: 1.5;" width="118" x="455" y="34.1992"/><rect fill="#FEFECE" height="10" style="stroke: #A80036; stroke-width: 1.5;" width="15" x="553" y="39.1992"/><rect fill="#FEFECE" height="2" style="stroke: #A80036; stroke-width: 1.5;" width="4" x="551" y="41.1992"/><rect fill="#FEFECE" height="2" style="stroke: #A80036; stroke-width: 1.5;" width="4" x="551" y="45.1992"/><text fill="#000000" font-family="sans-serif" font-size="14" lengthAdjust="spacingAndGlyphs" textLength="78" x="470" y="67.7344">Application</text><!--entity Measures--><rect fill="#FEFECE" filter="url(#fku6971)" height="46.4883" style="stroke: #A80036; stroke-width: 1.5;" width="105" x="832.5" y="34.1992"/><rect fill="#FEFECE" height="10" style="stroke: #A80036; stroke-width: 1.5;" width="15" x="917.5" y="39.1992"/><rect fill="#FEFECE" height="2" style="stroke: #A80036; stroke-width: 1.5;" width="4" x="915.5" y="41.1992"/><rect fill="#FEFECE" height="2" style="stroke: #A80036; stroke-width: 1.5;" width="4" x="915.5" y="45.1992"/><text fill="#000000" font-family="sans-serif" font-size="14" lengthAdjust="spacingAndGlyphs" textLength="65" x="847.5" y="67.7344">Measures</text><polygon fill="#FBFB77" filter="url(#fku6971)" points="6,720.1992,6,867.9941,230,867.9941,230,730.1992,220,720.1992,6,720.1992" style="stroke: #A80036; stroke-width: 1.0;"/><line style="stroke: #A80036; stroke-width: 1.0;" x1="220" x2="220" y1="720.1992" y2="730.1992"/><line style="stroke: #A80036; stroke-width: 1.0;" x1="230" x2="220" y1="730.1992" y2="730.1992"/><text fill="#000000" font-family="sans-serif" font-size="13" lengthAdjust="spacingAndGlyphs" textLength="180" x="12" y="737.7676">Allows free graphical editing</text><text fill="#000000" font-family="sans-serif" font-size="13" lengthAdjust="spacingAndGlyphs" textLength="189" x="12" y="753.0781">of Modelica models. However,</text><text fill="#000000" font-family="sans-serif" font-size="13" lengthAdjust="spacingAndGlyphs" textLength="203" x="12" y="768.3887">after editing, many OS Measures</text><text fill="#000000" font-family="sans-serif" font-size="13" lengthAdjust="spacingAndGlyphs" textLength="170" x="12" y="783.6992">cannot be applied anymore</text><text fill="#000000" font-family="sans-serif" font-size="13" lengthAdjust="spacingAndGlyphs" textLength="203" x="12" y="799.0098">(as models may be incompatible</text><text fill="#000000" font-family="sans-serif" font-size="13" lengthAdjust="spacingAndGlyphs" textLength="122" x="12" y="814.3203">with the Measures).</text><text fill="#000000" font-family="sans-serif" font-size="13" lengthAdjust="spacingAndGlyphs" textLength="191" x="12" y="829.6309">However, OS can still simulate</text><text fill="#000000" font-family="sans-serif" font-size="13" lengthAdjust="spacingAndGlyphs" textLength="182" x="12" y="844.9414">these models and parse their</text><text fill="#000000" font-family="sans-serif" font-size="13" lengthAdjust="spacingAndGlyphs" textLength="53" x="12" y="860.252">outputs.</text><polygon fill="#FBFB77" filter="url(#fku6971)" points="555,1257.1992,555,1389.6836,777,1389.6836,777,1267.1992,767,1257.1992,555,1257.1992" style="stroke: #A80036; stroke-width: 1.0;"/><polygon fill="#FBFB77" points="555,1257.1992,555,1389.6836,777,1389.6836,777,1267.1992,767,1257.1992,670,1257.1992,666,1178.2172,662,1257.1992,555,1257.1992" style="stroke: #A80036; stroke-width: 1.0;"/><line style="stroke: #A80036; stroke-width: 1.0;" x1="767" x2="767" y1="1257.1992" y2="1267.1992"/><line style="stroke: #A80036; stroke-width: 1.0;" x1="777" x2="767" y1="1267.1992" y2="1267.1992"/><text fill="#000000" font-family="sans-serif" font-size="13" lengthAdjust="spacingAndGlyphs" textLength="157" x="561" y="1274.7676">Allows companies to use</text><text fill="#000000" font-family="sans-serif" font-size="13" lengthAdjust="spacingAndGlyphs" textLength="174" x="561" y="1290.0781">their own Modelica libraries</text><text fill="#000000" font-family="sans-serif" font-size="13" lengthAdjust="spacingAndGlyphs" textLength="201" x="561" y="1305.3887">with custom HVAC systems and</text><text fill="#000000" font-family="sans-serif" font-size="13" lengthAdjust="spacingAndGlyphs" textLength="136" x="561" y="1320.6992">control sequences, or</text><text fill="#000000" font-family="sans-serif" font-size="13" lengthAdjust="spacingAndGlyphs" textLength="158" x="561" y="1336.0098">to integrate an electronic</text><text fill="#000000" font-family="sans-serif" font-size="13" lengthAdjust="spacingAndGlyphs" textLength="145" x="561" y="1351.3203">equipment catalog or a</text><text fill="#000000" font-family="sans-serif" font-size="13" lengthAdjust="spacingAndGlyphs" textLength="186" x="561" y="1366.6309">library used for an equipment</text><text fill="#000000" font-family="sans-serif" font-size="13" lengthAdjust="spacingAndGlyphs" textLength="65" x="561" y="1381.9414">sales tool.</text><polygon fill="#FBFB77" filter="url(#fku6971)" points="171,29.1992,171,85.1309,315,85.1309,315,39.1992,305,29.1992,171,29.1992" style="stroke: #A80036; stroke-width: 1.0;"/><line style="stroke: #A80036; stroke-width: 1.0;" x1="305" x2="305" y1="29.1992" y2="39.1992"/><line style="stroke: #A80036; stroke-width: 1.0;" x1="315" x2="305" y1="39.1992" y2="39.1992"/><text fill="#000000" font-family="sans-serif" font-size="13" lengthAdjust="spacingAndGlyphs" textLength="106" x="177" y="46.7676">Not yet shown is</text><text fill="#000000" font-family="sans-serif" font-size="13" lengthAdjust="spacingAndGlyphs" textLength="103" x="177" y="62.0781">how to integrate</text><text fill="#000000" font-family="sans-serif" font-size="13" lengthAdjust="spacingAndGlyphs" textLength="123" x="177" y="77.3887">the building model.</text><polygon fill="#FBFB77" filter="url(#fku6971)" points="642.5,36.6992,642.5,77.3203,797.5,77.3203,797.5,46.6992,787.5,36.6992,642.5,36.6992" style="stroke: #A80036; stroke-width: 1.0;"/><polygon fill="#FBFB77" points="642.5,36.6992,642.5,53.1992,573.145,57.1992,642.5,61.1992,642.5,77.3203,797.5,77.3203,797.5,46.6992,787.5,36.6992,642.5,36.6992" style="stroke: #A80036; stroke-width: 1.0;"/><line style="stroke: #A80036; stroke-width: 1.0;" x1="787.5" x2="787.5" y1="36.6992" y2="46.6992"/><line style="stroke: #A80036; stroke-width: 1.0;" x1="797.5" x2="787.5" y1="46.6992" y2="46.6992"/><text fill="#000000" font-family="sans-serif" font-size="13" lengthAdjust="spacingAndGlyphs" textLength="134" x="648.5" y="54.2676">Application that uses</text><text fill="#000000" font-family="sans-serif" font-size="13" lengthAdjust="spacingAndGlyphs" textLength="130" x="648.5" y="69.5781">the OpenStudio SDK.</text><path d="M770,233.3392 C770,257.5392 770,303.3292 770,330.7692 " fill="none" style="stroke: #A80036; stroke-width: 1.0;"/><path d="M790.339,377.4092 C802.776,391.0872 818.944,409.0382 833,425.1992 C861.23,457.6542 892.81,495.4022 914.492,521.5502 " fill="none" style="stroke: #A80036; stroke-width: 1.0;"/><polygon fill="#A80036" points="917.885,525.6452,915.2229,516.163,914.6949,521.7951,909.0628,521.2671,917.885,525.6452" style="stroke: #A80036; stroke-width: 1.0;"/><text fill="#000000" font-family="sans-serif" font-size="13" lengthAdjust="spacingAndGlyphs" textLength="63" x="874" y="453.7676">integrates</text><path d="M806.571,366.7792 C843.014,378.9992 900.02,399.9652 946,425.1992 C995.928,452.5992 1048.21,491.7922 1083.1,519.6762 " fill="none" style="stroke: #A80036; stroke-width: 1.0;"/><polygon fill="#A80036" points="1087.26,523.0192,1082.7427,514.2674,1083.3598,519.8905,1077.7368,520.5077,1087.26,523.0192" style="stroke: #A80036; stroke-width: 1.0;"/><text fill="#000000" font-family="sans-serif" font-size="13" lengthAdjust="spacingAndGlyphs" textLength="63" x="1018" y="453.7676">integrates</text><path d="M806.631,359.3192 C887.747,369.6392 1086.9,401.6152 1233,480.1992 C1254.04,491.5182 1275.8,506.4882 1293.86,519.9622 " fill="none" style="stroke: #A80036; stroke-width: 1.0;"/><polygon fill="#A80036" points="1297.9,522.9922,1293.103,514.3906,1293.901,519.9908,1288.3008,520.7889,1297.9,522.9922" style="stroke: #A80036; stroke-width: 1.0;"/><text fill="#000000" font-family="sans-serif" font-size="13" lengthAdjust="spacingAndGlyphs" textLength="63" x="1211" y="453.7676">integrates</text><path d="M733.309,362.2592 C666.805,376.3192 523.818,412.4582 422,480.1992 C404.775,491.6592 388.185,507.5312 375.094,521.5932 " fill="none" style="stroke: #A80036; stroke-width: 1.0;"/><polygon fill="#A80036" points="371.497,525.5062,380.5327,521.5876,374.8809,521.8253,374.6432,516.1734,371.497,525.5062" style="stroke: #A80036; stroke-width: 1.0;"/><text fill="#000000" font-family="sans-serif" font-size="13" lengthAdjust="spacingAndGlyphs" textLength="63" x="522" y="453.7676">integrates</text><path d="M741.671,377.3492 C724.328,391.0012 701.748,408.9502 682,425.1992 C643.715,456.7022 600.711,493.4332 570.417,519.5372 " fill="none" style="stroke: #A80036; stroke-width: 1.0;"/><polygon fill="#A80036" points="566.415,522.9872,575.8431,520.1393,570.2017,519.7221,570.6189,514.0807,566.415,522.9872" style="stroke: #A80036; stroke-width: 1.0;"/><text fill="#000000" font-family="sans-serif" font-size="13" lengthAdjust="spacingAndGlyphs" textLength="63" x="683" y="453.7676">integrates</text><path d="M767.007,377.1992 C762.373,411.2742 753.414,477.1382 747.847,518.0632 " fill="none" style="stroke: #A80036; stroke-width: 1.0;"/><polygon fill="#A80036" points="747.152,523.1732,752.3292,514.7949,747.8263,518.2189,744.4023,513.716,747.152,523.1732" style="stroke: #A80036; stroke-width: 1.0;"/><text fill="#000000" font-family="sans-serif" font-size="13" lengthAdjust="spacingAndGlyphs" textLength="63" x="761" y="453.7676">integrates</text><path d="M941,588.9362 C941,631.7472 941,706.1312 941,752.3462 " fill="none" style="stroke: #A80036; stroke-width: 1.0; stroke-dasharray: 7.0,7.0;"/><polygon fill="#A80036" points="941,583.8762,937,592.8762,941,588.8762,945,592.8762,941,583.8762" style="stroke: #A80036; stroke-width: 1.0;"/><text fill="#000000" font-family="sans-serif" font-size="13" lengthAdjust="spacingAndGlyphs" textLength="50" x="942" y="679.2676">updates</text><path d="M1508.9227,364.1808 C1508.8627,364.2475 1508.8024,364.3145 1508.7418,364.3818 C1508.4994,364.6511 1508.2526,364.9253 1508.0015,365.2042 C1506.9973,366.3198 1505.9247,367.5111 1504.792,368.7688 C1502.5266,371.2842 1500.0206,374.0654 1497.34,377.0385 C1486.6175,388.9307 1473.1,403.8932 1461,417.1992 C1427.81,453.6892 1389.48,495.4962 1364.11,523.1242 " fill="none" style="stroke: #A80036; stroke-width: 1.0; stroke-dasharray: 7.0,7.0;"/><polygon fill="#A80036" points="1508.9227,364.1808,1499.9288,368.1944,1505.5778,367.8972,1505.875,373.5462,1508.9227,364.1808" style="stroke: #A80036; stroke-width: 1.0;"/><text fill="#000000" font-family="sans-serif" font-size="13" lengthAdjust="spacingAndGlyphs" textLength="86" x="1459.5" y="438.7676">writes inputs,</text><text fill="#000000" font-family="sans-serif" font-size="13" lengthAdjust="spacingAndGlyphs" textLength="103" x="1451" y="454.0781">runs simulation,</text><text fill="#000000" font-family="sans-serif" font-size="13" lengthAdjust="spacingAndGlyphs" textLength="87" x="1459" y="469.3887">reads outputs</text><path d="M1627.76,354.1992 C1649.13,354.1992 1670.49,354.1992 1691.86,354.1992 " fill="none" style="stroke: #A80036; stroke-width: 1.0;"/><polygon fill="#A80036" points="1697,354.1992,1688,350.1992,1692,354.1992,1688,358.1992,1697,354.1992" style="stroke: #A80036; stroke-width: 1.0;"/><path d="M1841.12,354.1992 C1862.66,354.1992 1884.2,354.1992 1905.74,354.1992 " fill="none" style="stroke: #A80036; stroke-width: 1.0;"/><polygon fill="#A80036" points="1910.92,354.1992,1901.92,350.1992,1905.92,354.1992,1901.92,358.1992,1910.92,354.1992" style="stroke: #A80036; stroke-width: 1.0;"/><path d="M542.812,586.5462 C562.781,642.8942 598.991,766.0732 577,868.1992 C568.458,907.8692 544.339,948.3862 526.796,973.9912 " fill="none" style="stroke: #A80036; stroke-width: 1.0; stroke-dasharray: 7.0,7.0;"/><polygon fill="#A80036" points="523.821,978.2822,532.2362,973.1651,526.6699,974.1732,525.6618,968.6069,523.821,978.2822" style="stroke: #A80036; stroke-width: 1.0;"/><text fill="#000000" font-family="sans-serif" font-size="13" lengthAdjust="spacingAndGlyphs" textLength="41" x="585" y="791.7676">parses</text><text fill="#000000" font-family="sans-serif" font-size="13" lengthAdjust="spacingAndGlyphs" textLength="24" x="593.5" y="807.0781">AST</text><path d="M366.09,588.4952 C393.187,637.6222 443.604,729.0272 466.776,771.0372 " fill="none" style="stroke: #A80036; stroke-width: 1.0; stroke-dasharray: 7.0,7.0;"/><polygon fill="#A80036" points="363.542,583.8762,364.3848,593.6889,365.9563,588.2547,371.3905,589.8261,363.542,583.8762" style="stroke: #A80036; stroke-width: 1.0;"/><text fill="#000000" font-family="sans-serif" font-size="13" lengthAdjust="spacingAndGlyphs" textLength="106" x="446.5" y="671.7676">augments library</text><text fill="#000000" font-family="sans-serif" font-size="13" lengthAdjust="spacingAndGlyphs" textLength="153" x="423" y="687.0781">by generating C++ code</text><path d="M482.05,817.5822 C487.229,855.5902 497.722,932.6052 503.307,973.5982 " fill="none" style="stroke: #A80036; stroke-width: 1.0; stroke-dasharray: 7.0,7.0;"/><polygon fill="#A80036" points="503.996,978.6542,506.7457,969.197,503.3217,973.6999,498.8188,970.2759,503.996,978.6542" style="stroke: #A80036; stroke-width: 1.0;"/><text fill="#000000" font-family="sans-serif" font-size="13" lengthAdjust="spacingAndGlyphs" textLength="41" x="499" y="911.7676">parses</text><text fill="#000000" font-family="sans-serif" font-size="13" lengthAdjust="spacingAndGlyphs" textLength="24" x="507.5" y="927.0781">AST</text><path d="M735.956,586.3502 C721.965,643.9472 687.43,771.2572 635,868.1992 C611.41,911.8172 569.446,951.2012 540.015,975.4812 " fill="none" style="stroke: #A80036; stroke-width: 1.0; stroke-dasharray: 7.0,7.0;"/><polygon fill="#A80036" points="536.13,978.6592,545.6288,976.0569,540.0001,975.4934,540.5635,969.8647,536.13,978.6592" style="stroke: #A80036; stroke-width: 1.0;"/><text fill="#000000" font-family="sans-serif" font-size="13" lengthAdjust="spacingAndGlyphs" textLength="86" x="707.5" y="784.2676">writes inputs,</text><text fill="#000000" font-family="sans-serif" font-size="13" lengthAdjust="spacingAndGlyphs" textLength="103" x="699" y="799.5781">runs simulation,</text><text fill="#000000" font-family="sans-serif" font-size="13" lengthAdjust="spacingAndGlyphs" textLength="87" x="707" y="814.8887">reads outputs</text><path d="M504.266,1024.7972 C501.294,1048.8212 496.512,1087.4742 493.092,1115.1192 " fill="none" style="stroke: #A80036; stroke-width: 1.0;"/><polygon fill="#A80036" points="492.47,1120.1462,497.5456,1111.7059,493.0844,1115.1841,489.6062,1110.7229,492.47,1120.1462" style="stroke: #A80036; stroke-width: 1.0;"/><text fill="#000000" font-family="sans-serif" font-size="13" lengthAdjust="spacingAndGlyphs" textLength="49" x="499" y="1086.7676">imports</text><path d="M445.715,820.6492 C426.703,834.9562 402.282,852.9492 380,868.1992 C331.252,901.5642 274.576,937.3122 232.552,963.2582 " fill="none" style="stroke: #A80036; stroke-width: 1.0; stroke-dasharray: 7.0,7.0;"/><polygon fill="#A80036" points="449.933,817.4692,440.3388,819.6944,445.9409,820.4797,445.1556,826.0818,449.933,817.4692" style="stroke: #A80036; stroke-width: 1.0;"/><text fill="#000000" font-family="sans-serif" font-size="13" lengthAdjust="spacingAndGlyphs" textLength="49" x="336" y="919.2676">invokes</text><path d="M488.23,1183.3062 C487.578,1211.3582 486.64,1251.6852 485.943,1281.6652 " fill="none" style="stroke: #A80036; stroke-width: 1.0; stroke-dasharray: 7.0,7.0;"/><polygon fill="#A80036" points="488.348,1178.2172,484.1408,1187.1222,488.2323,1183.2159,492.1386,1187.3074,488.348,1178.2172" style="stroke: #A80036; stroke-width: 1.0;"/><text fill="#000000" font-family="sans-serif" font-size="13" lengthAdjust="spacingAndGlyphs" textLength="109" x="489" y="1223.7676">adds annotations</text><path d="M711.595,1181.3332 C737.954,1200.9252 770.454,1227.9762 794,1257.1992 C801.031,1265.9262 807.246,1276.3342 812.375,1286.2352 " fill="none" style="stroke: #A80036; stroke-width: 1.0; stroke-dasharray: 7.0,7.0;"/><polygon fill="#A80036" points="707.419,1178.2532,712.2857,1186.8157,711.4422,1181.222,717.0358,1180.3785,707.419,1178.2532" style="stroke: #A80036; stroke-width: 1.0;"/><text fill="#000000" font-family="sans-serif" font-size="13" lengthAdjust="spacingAndGlyphs" textLength="109" x="768" y="1223.7676">adds annotations</text><path d="M573.126,74.9592 C640.402,94.5492 742.613,126.0792 755,140.1992 C767.824,154.8192 770.885,177.2492 771.156,193.7792 " fill="none" style="stroke: #A80036; stroke-width: 1.0; stroke-dasharray: 7.0,7.0;"/><polygon fill="#A80036" points="771.151,199.1392,775.151,190.1392,771.151,194.1392,767.151,190.1392,771.151,199.1392" style="stroke: #A80036; stroke-width: 1.0;"/><text fill="#000000" font-family="sans-serif" font-size="13" lengthAdjust="spacingAndGlyphs" textLength="29" x="742" y="128.7676">uses</text><path d="M868.767,80.3592 C846.225,111.1392 805.797,166.3292 784.321,195.6492 " fill="none" style="stroke: #A80036; stroke-width: 1.0; stroke-dasharray: 7.0,7.0;"/><polygon fill="#A80036" points="781.294,199.7792,789.8408,194.8852,784.25,195.7466,783.3886,190.1557,781.294,199.7792" style="stroke: #A80036; stroke-width: 1.0;"/><text fill="#000000" font-family="sans-serif" font-size="13" lengthAdjust="spacingAndGlyphs" textLength="29" x="843" y="128.7676">uses</text><path d="M531.149,1024.7972 C557.837,1049.2202 601.047,1088.7612 631.345,1116.4862 " fill="none" style="stroke: #A80036; stroke-width: 1.0;"/><polygon fill="#A80036" points="635.345,1120.1462,631.4043,1111.1201,631.6558,1116.7714,626.0045,1117.0228,635.345,1120.1462" style="stroke: #A80036; stroke-width: 1.0;"/><text fill="#000000" font-family="sans-serif" font-size="13" lengthAdjust="spacingAndGlyphs" textLength="49" x="602" y="1086.7676">imports</text><path d="M534.225,586.2052 C535.642,617.1312 532.364,664.0442 504,690.1992 C462.054,728.8782 303.29,702.6442 249,720.1992 C242.807,722.2022 236.574,724.5092 230.368,727.0432 " fill="none" style="stroke: #A80036; stroke-width: 1.0; stroke-dasharray: 7.0,7.0;"/><path d="M243,85.5492 C243,96.6192 243,110.0923 243,124.1155 C243,131.127 243,138.2761 243,145.331 C243,148.8585 243,152.3624 243,155.8138 " fill="none" style="stroke: #A80036; stroke-width: 1.0; stroke-dasharray: 7.0,7.0;"/></g></svg>