<?xml version="1.0" encoding="UTF-8" standalone="no"?><svg xmlns="http://www.w3.org/2000/svg" xmlns:xlink="http://www.w3.org/1999/xlink" contentScriptType="application/ecmascript" contentStyleType="text/css" height="534px" preserveAspectRatio="none" style="width:657px;height:534px;" version="1.1" viewBox="0 0 657 534" width="657px" zoomAndPan="magnify"><defs><filter height="300%" id="f6sxsiu" width="300%" x="-1" y="-1"><feGaussianBlur result="blurOut" stdDeviation="2.0"/><feColorMatrix in="blurOut" result="blurOut2" type="matrix" values="0 0 0 0 0 0 0 0 0 0 0 0 0 0 0 0 0 0 .4 0"/><feOffset dx="4.0" dy="4.0" in="blurOut2" result="blurOut3"/><feBlend in="SourceGraphic" in2="blurOut3" mode="normal"/></filter></defs><g><text fill="#000000" font-family="sans-serif" font-size="14" font-weight="bold" lengthAdjust="spacingAndGlyphs" textLength="260" x="200.5" y="23.5352">Apply OS measure to set of models.</text><rect fill="#FFFFFF" filter="url(#f6sxsiu)" height="238.1289" style="stroke: #000000; stroke-width: 2.0;" width="635" x="13" y="240.9082"/><rect fill="#FFFFFF" height="191.5078" style="stroke: none; stroke-width: 1.0;" width="635" x="13" y="287.5293"/><rect fill="#FFFFFF" filter="url(#f6sxsiu)" height="120.2422" style="stroke: #000000; stroke-width: 2.0;" width="615" x="23" y="351.7949"/><rect fill="#FFFFFF" filter="url(#f6sxsiu)" height="46.6211" style="stroke: #000000; stroke-width: 2.0;" width="595" x="33" y="418.416"/><line style="stroke: #A80036; stroke-width: 1.0; stroke-dasharray: 5.0,5.0;" x1="98" x2="98" y1="68.9766" y2="496.0371"/><line style="stroke: #A80036; stroke-width: 1.0; stroke-dasharray: 5.0,5.0;" x1="263.5" x2="263.5" y1="68.9766" y2="496.0371"/><line style="stroke: #A80036; stroke-width: 1.0; stroke-dasharray: 5.0,5.0;" x1="393" x2="393" y1="68.9766" y2="496.0371"/><line style="stroke: #A80036; stroke-width: 1.0; stroke-dasharray: 5.0,5.0;" x1="543" x2="543" y1="68.9766" y2="496.0371"/><rect fill="#FEFECE" filter="url(#f6sxsiu)" height="30.4883" style="stroke: #A80036; stroke-width: 1.5;" width="106" x="43" y="33.4883"/><text fill="#000000" font-family="sans-serif" font-size="14" lengthAdjust="spacingAndGlyphs" textLength="92" x="50" y="54.0234">Update Script</text><rect fill="#FEFECE" filter="url(#f6sxsiu)" height="30.4883" style="stroke: #A80036; stroke-width: 1.5;" width="106" x="43" y="495.0371"/><text fill="#000000" font-family="sans-serif" font-size="14" lengthAdjust="spacingAndGlyphs" textLength="92" x="50" y="515.5723">Update Script</text><rect fill="#FEFECE" filter="url(#f6sxsiu)" height="30.4883" style="stroke: #A80036; stroke-width: 1.5;" width="79" x="222.5" y="33.4883"/><text fill="#000000" font-family="sans-serif" font-size="14" lengthAdjust="spacingAndGlyphs" textLength="65" x="229.5" y="54.0234">JModelica</text><rect fill="#FEFECE" filter="url(#f6sxsiu)" height="30.4883" style="stroke: #A80036; stroke-width: 1.5;" width="79" x="222.5" y="495.0371"/><text fill="#000000" font-family="sans-serif" font-size="14" lengthAdjust="spacingAndGlyphs" textLength="65" x="229.5" y="515.5723">JModelica</text><rect fill="#FEFECE" filter="url(#f6sxsiu)" height="30.4883" style="stroke: #A80036; stroke-width: 1.5;" width="126" x="328" y="33.4883"/><text fill="#000000" font-family="sans-serif" font-size="14" lengthAdjust="spacingAndGlyphs" textLength="112" x="335" y="54.0234">Modelica Library</text><rect fill="#FEFECE" filter="url(#f6sxsiu)" height="30.4883" style="stroke: #A80036; stroke-width: 1.5;" width="126" x="328" y="495.0371"/><text fill="#000000" font-family="sans-serif" font-size="14" lengthAdjust="spacingAndGlyphs" textLength="112" x="335" y="515.5723">Modelica Library</text><rect fill="#FEFECE" filter="url(#f6sxsiu)" height="30.4883" style="stroke: #A80036; stroke-width: 1.5;" width="146" x="468" y="33.4883"/><text fill="#000000" font-family="sans-serif" font-size="14" lengthAdjust="spacingAndGlyphs" textLength="132" x="475" y="54.0234">OpenStudio Library</text><rect fill="#FEFECE" filter="url(#f6sxsiu)" height="30.4883" style="stroke: #A80036; stroke-width: 1.5;" width="146" x="468" y="495.0371"/><text fill="#000000" font-family="sans-serif" font-size="14" lengthAdjust="spacingAndGlyphs" textLength="132" x="475" y="515.5723">OpenStudio Library</text><polygon fill="#A80036" points="252,95.9766,262,99.9766,252,103.9766,256,99.9766" style="stroke: #A80036; stroke-width: 1.0;"/><line style="stroke: #A80036; stroke-width: 1.0;" x1="98" x2="258" y1="99.9766" y2="99.9766"/><text fill="#000000" font-family="sans-serif" font-size="13" lengthAdjust="spacingAndGlyphs" textLength="105" x="105" y="95.5449">getInstanceAST()</text><polygon fill="#A80036" points="381,125.2871,391,129.2871,381,133.2871,385,129.2871" style="stroke: #A80036; stroke-width: 1.0;"/><line style="stroke: #A80036; stroke-width: 1.0;" x1="264" x2="387" y1="129.2871" y2="129.2871"/><text fill="#000000" font-family="sans-serif" font-size="13" lengthAdjust="spacingAndGlyphs" textLength="105" x="271" y="124.8555">getInstanceAST()</text><polygon fill="#A80036" points="275,139.5977,265,143.5977,275,147.5977,271,143.5977" style="stroke: #A80036; stroke-width: 1.0;"/><line style="stroke: #A80036; stroke-width: 1.0;" x1="269" x2="392" y1="143.5977" y2="143.5977"/><polygon fill="#A80036" points="109,153.5977,99,157.5977,109,161.5977,105,157.5977" style="stroke: #A80036; stroke-width: 1.0;"/><line style="stroke: #A80036; stroke-width: 1.0;" x1="103" x2="263" y1="157.5977" y2="157.5977"/><polygon fill="#A80036" points="531,207.5977,541,211.5977,531,215.5977,535,211.5977" style="stroke: #A80036; stroke-width: 1.0;"/><line style="stroke: #A80036; stroke-width: 1.0;" x1="98" x2="537" y1="211.5977" y2="211.5977"/><text fill="#000000" font-family="sans-serif" font-size="13" lengthAdjust="spacingAndGlyphs" textLength="105" x="105" y="207.166">getInstanceAST()</text><polygon fill="#A80036" points="109,221.9082,99,225.9082,109,229.9082,105,225.9082" style="stroke: #A80036; stroke-width: 1.0;"/><line style="stroke: #A80036; stroke-width: 1.0;" x1="103" x2="542" y1="225.9082" y2="225.9082"/><rect fill="none" height="238.1289" style="stroke: #000000; stroke-width: 2.0;" width="635" x="13" y="240.9082"/><polygon fill="#EEEEEE" points="13,240.9082,75,240.9082,75,247.9082,65,257.9082,13,257.9082,13,240.9082" style="stroke: #000000; stroke-width: 2.0;"/><text fill="#000000" font-family="sans-serif" font-size="13" font-weight="bold" lengthAdjust="spacingAndGlyphs" textLength="17" x="28" y="254.4766">alt</text><text fill="#000000" font-family="sans-serif" font-size="11" font-weight="bold" lengthAdjust="spacingAndGlyphs" textLength="245" x="90" y="253.543">[no OpenStudio Library has been populated]</text><polygon fill="#A80036" points="531,275.2188,541,279.2188,531,283.2188,535,279.2188" style="stroke: #A80036; stroke-width: 1.0;"/><line style="stroke: #A80036; stroke-width: 1.0;" x1="98" x2="537" y1="279.2188" y2="279.2188"/><text fill="#000000" font-family="sans-serif" font-size="13" lengthAdjust="spacingAndGlyphs" textLength="89" x="105" y="274.7871">createLibrary()</text><line style="stroke: #000000; stroke-width: 1.0; stroke-dasharray: 2.0,2.0;" x1="13" x2="648" y1="288.5293" y2="288.5293"/><text fill="#000000" font-family="sans-serif" font-size="11" font-weight="bold" lengthAdjust="spacingAndGlyphs" textLength="156" x="18" y="299.1641">[Update the existing library]</text><line style="stroke: #A80036; stroke-width: 1.0;" x1="98" x2="140" y1="323.7949" y2="323.7949"/><line style="stroke: #A80036; stroke-width: 1.0;" x1="140" x2="140" y1="323.7949" y2="336.7949"/><line style="stroke: #A80036; stroke-width: 1.0;" x1="99" x2="140" y1="336.7949" y2="336.7949"/><polygon fill="#A80036" points="109,332.7949,99,336.7949,109,340.7949,105,336.7949" style="stroke: #A80036; stroke-width: 1.0;"/><text fill="#000000" font-family="sans-serif" font-size="13" lengthAdjust="spacingAndGlyphs" textLength="57" x="105" y="319.0527">validate()</text><rect fill="none" height="120.2422" style="stroke: #000000; stroke-width: 2.0;" width="615" x="23" y="351.7949"/><polygon fill="#EEEEEE" points="23,351.7949,85,351.7949,85,358.7949,75,368.7949,23,368.7949,23,351.7949" style="stroke: #000000; stroke-width: 2.0;"/><text fill="#000000" font-family="sans-serif" font-size="13" font-weight="bold" lengthAdjust="spacingAndGlyphs" textLength="17" x="38" y="365.3633">alt</text><text fill="#000000" font-family="sans-serif" font-size="11" font-weight="bold" lengthAdjust="spacingAndGlyphs" textLength="160" x="100" y="364.4297">[incompatible changes exist]</text><line style="stroke: #A80036; stroke-width: 1.0;" x1="98" x2="140" y1="390.416" y2="390.416"/><line style="stroke: #A80036; stroke-width: 1.0;" x1="140" x2="140" y1="390.416" y2="403.416"/><line style="stroke: #A80036; stroke-width: 1.0;" x1="99" x2="140" y1="403.416" y2="403.416"/><polygon fill="#A80036" points="109,399.416,99,403.416,109,407.416,105,403.416" style="stroke: #A80036; stroke-width: 1.0;"/><text fill="#000000" font-family="sans-serif" font-size="13" lengthAdjust="spacingAndGlyphs" textLength="152" x="105" y="385.6738">reportIncompatibilities()</text><rect fill="none" height="46.6211" style="stroke: #000000; stroke-width: 2.0;" width="595" x="33" y="418.416"/><polygon fill="#EEEEEE" points="33,418.416,95,418.416,95,425.416,85,435.416,33,435.416,33,418.416" style="stroke: #000000; stroke-width: 2.0;"/><text fill="#000000" font-family="sans-serif" font-size="13" font-weight="bold" lengthAdjust="spacingAndGlyphs" textLength="17" x="48" y="431.9844">alt</text><text fill="#000000" font-family="sans-serif" font-size="11" font-weight="bold" lengthAdjust="spacingAndGlyphs" textLength="169" x="110" y="431.0508">[accept incompatible changes]</text><polygon fill="#A80036" points="531,452.7266,541,456.7266,531,460.7266,535,456.7266" style="stroke: #A80036; stroke-width: 1.0;"/><line style="stroke: #A80036; stroke-width: 1.0;" x1="98" x2="537" y1="456.7266" y2="456.7266"/><text fill="#000000" font-family="sans-serif" font-size="13" lengthAdjust="spacingAndGlyphs" textLength="89" x="105" y="452.2949">createLibrary()</text></g></svg>