<?xml version="1.0" encoding="UTF-8" standalone="no"?><svg xmlns="http://www.w3.org/2000/svg" xmlns:xlink="http://www.w3.org/1999/xlink" contentScriptType="application/ecmascript" contentStyleType="text/css" height="534px" preserveAspectRatio="none" style="width:772px;height:534px;" version="1.1" viewBox="0 0 772 534" width="772px" zoomAndPan="magnify"><defs><filter height="300%" id="f5lstha" width="300%" x="-1" y="-1"><feGaussianBlur result="blurOut" stdDeviation="2.0"/><feColorMatrix in="blurOut" result="blurOut2" type="matrix" values="0 0 0 0 0 0 0 0 0 0 0 0 0 0 0 0 0 0 .4 0"/><feOffset dx="4.0" dy="4.0" in="blurOut2" result="blurOut3"/><feBlend in="SourceGraphic" in2="blurOut3" mode="normal"/></filter></defs><g><text fill="#000000" font-family="sans-serif" font-size="14" font-weight="bold" lengthAdjust="spacingAndGlyphs" textLength="283" x="246.5" y="23.5352">Updating an OpenStudio Model Library.</text><rect fill="#FFFFFF" filter="url(#f5lstha)" height="238.1289" style="stroke: #000000; stroke-width: 2.0;" width="750" x="13" y="240.9082"/><rect fill="#FFFFFF" height="191.5078" style="stroke: none; stroke-width: 1.0;" width="750" x="13" y="287.5293"/><rect fill="#FFFFFF" filter="url(#f5lstha)" height="120.2422" style="stroke: #000000; stroke-width: 2.0;" width="730" x="23" y="351.7949"/><rect fill="#FFFFFF" filter="url(#f5lstha)" height="46.6211" style="stroke: #000000; stroke-width: 2.0;" width="710" x="33" y="418.416"/><line style="stroke: #A80036; stroke-width: 1.0; stroke-dasharray: 5.0,5.0;" x1="112" x2="112" y1="68.9766" y2="496.0371"/><line style="stroke: #A80036; stroke-width: 1.0; stroke-dasharray: 5.0,5.0;" x1="278" x2="278" y1="68.9766" y2="496.0371"/><line style="stroke: #A80036; stroke-width: 1.0; stroke-dasharray: 5.0,5.0;" x1="428" x2="428" y1="68.9766" y2="496.0371"/><line style="stroke: #A80036; stroke-width: 1.0; stroke-dasharray: 5.0,5.0;" x1="635" x2="635" y1="68.9766" y2="496.0371"/><rect fill="#FEFECE" filter="url(#f5lstha)" height="30.4883" style="stroke: #A80036; stroke-width: 1.5;" width="135" x="43" y="33.4883"/><text fill="#000000" font-family="sans-serif" font-size="14" lengthAdjust="spacingAndGlyphs" textLength="121" x="50" y="54.0234">Conversion Script</text><rect fill="#FEFECE" filter="url(#f5lstha)" height="30.4883" style="stroke: #A80036; stroke-width: 1.5;" width="135" x="43" y="495.0371"/><text fill="#000000" font-family="sans-serif" font-size="14" lengthAdjust="spacingAndGlyphs" textLength="121" x="50" y="515.5723">Conversion Script</text><rect fill="#FEFECE" filter="url(#f5lstha)" height="30.4883" style="stroke: #A80036; stroke-width: 1.5;" width="79" x="237" y="33.4883"/><text fill="#000000" font-family="sans-serif" font-size="14" lengthAdjust="spacingAndGlyphs" textLength="65" x="244" y="54.0234">JModelica</text><rect fill="#FEFECE" filter="url(#f5lstha)" height="30.4883" style="stroke: #A80036; stroke-width: 1.5;" width="79" x="237" y="495.0371"/><text fill="#000000" font-family="sans-serif" font-size="14" lengthAdjust="spacingAndGlyphs" textLength="65" x="244" y="515.5723">JModelica</text><rect fill="#FEFECE" filter="url(#f5lstha)" height="30.4883" style="stroke: #A80036; stroke-width: 1.5;" width="193" x="330" y="33.4883"/><text fill="#000000" font-family="sans-serif" font-size="14" lengthAdjust="spacingAndGlyphs" textLength="179" x="337" y="54.0234">Modelica Buildings Library</text><rect fill="#FEFECE" filter="url(#f5lstha)" height="30.4883" style="stroke: #A80036; stroke-width: 1.5;" width="193" x="330" y="495.0371"/><text fill="#000000" font-family="sans-serif" font-size="14" lengthAdjust="spacingAndGlyphs" textLength="179" x="337" y="515.5723">Modelica Buildings Library</text><rect fill="#FEFECE" filter="url(#f5lstha)" height="30.4883" style="stroke: #A80036; stroke-width: 1.5;" width="192" x="537" y="33.4883"/><text fill="#000000" font-family="sans-serif" font-size="14" lengthAdjust="spacingAndGlyphs" textLength="178" x="544" y="54.0234">OpenStudio Model Library</text><rect fill="#FEFECE" filter="url(#f5lstha)" height="30.4883" style="stroke: #A80036; stroke-width: 1.5;" width="192" x="537" y="495.0371"/><text fill="#000000" font-family="sans-serif" font-size="14" lengthAdjust="spacingAndGlyphs" textLength="178" x="544" y="515.5723">OpenStudio Model Library</text><polygon fill="#A80036" points="266.5,95.9766,276.5,99.9766,266.5,103.9766,270.5,99.9766" style="stroke: #A80036; stroke-width: 1.0;"/><line style="stroke: #A80036; stroke-width: 1.0;" x1="112.5" x2="272.5" y1="99.9766" y2="99.9766"/><text fill="#000000" font-family="sans-serif" font-size="13" lengthAdjust="spacingAndGlyphs" textLength="105" x="119.5" y="95.5449">getInstanceAST()</text><polygon fill="#A80036" points="416.5,125.2871,426.5,129.2871,416.5,133.2871,420.5,129.2871" style="stroke: #A80036; stroke-width: 1.0;"/><line style="stroke: #A80036; stroke-width: 1.0;" x1="278.5" x2="422.5" y1="129.2871" y2="129.2871"/><text fill="#000000" font-family="sans-serif" font-size="13" lengthAdjust="spacingAndGlyphs" textLength="78" x="285.5" y="124.8555">loadLibrary()</text><polygon fill="#A80036" points="289.5,139.5977,279.5,143.5977,289.5,147.5977,285.5,143.5977" style="stroke: #A80036; stroke-width: 1.0;"/><line style="stroke: #A80036; stroke-width: 1.0;" x1="283.5" x2="427.5" y1="143.5977" y2="143.5977"/><polygon fill="#A80036" points="123.5,153.5977,113.5,157.5977,123.5,161.5977,119.5,157.5977" style="stroke: #A80036; stroke-width: 1.0;"/><line style="stroke: #A80036; stroke-width: 1.0;" x1="117.5" x2="277.5" y1="157.5977" y2="157.5977"/><polygon fill="#A80036" points="623,207.5977,633,211.5977,623,215.5977,627,211.5977" style="stroke: #A80036; stroke-width: 1.0;"/><line style="stroke: #A80036; stroke-width: 1.0;" x1="112.5" x2="629" y1="211.5977" y2="211.5977"/><text fill="#000000" font-family="sans-serif" font-size="13" lengthAdjust="spacingAndGlyphs" textLength="105" x="119.5" y="207.166">getInstanceAST()</text><polygon fill="#A80036" points="123.5,221.9082,113.5,225.9082,123.5,229.9082,119.5,225.9082" style="stroke: #A80036; stroke-width: 1.0;"/><line style="stroke: #A80036; stroke-width: 1.0;" x1="117.5" x2="634" y1="225.9082" y2="225.9082"/><rect fill="none" height="238.1289" style="stroke: #000000; stroke-width: 2.0;" width="750" x="13" y="240.9082"/><polygon fill="#EEEEEE" points="13,240.9082,75,240.9082,75,247.9082,65,257.9082,13,257.9082,13,240.9082" style="stroke: #000000; stroke-width: 2.0;"/><text fill="#000000" font-family="sans-serif" font-size="13" font-weight="bold" lengthAdjust="spacingAndGlyphs" textLength="17" x="28" y="254.4766">alt</text><text fill="#000000" font-family="sans-serif" font-size="11" font-weight="bold" lengthAdjust="spacingAndGlyphs" textLength="283" x="90" y="253.543">[no OpenStudio Model Library has been populated]</text><polygon fill="#A80036" points="623,275.2188,633,279.2188,623,283.2188,627,279.2188" style="stroke: #A80036; stroke-width: 1.0;"/><line style="stroke: #A80036; stroke-width: 1.0;" x1="112.5" x2="629" y1="279.2188" y2="279.2188"/><text fill="#000000" font-family="sans-serif" font-size="13" lengthAdjust="spacingAndGlyphs" textLength="89" x="119.5" y="274.7871">createLibrary()</text><line style="stroke: #000000; stroke-width: 1.0; stroke-dasharray: 2.0,2.0;" x1="13" x2="763" y1="288.5293" y2="288.5293"/><text fill="#000000" font-family="sans-serif" font-size="11" font-weight="bold" lengthAdjust="spacingAndGlyphs" textLength="156" x="18" y="299.1641">[Update the existing library]</text><line style="stroke: #A80036; stroke-width: 1.0;" x1="112.5" x2="154.5" y1="323.7949" y2="323.7949"/><line style="stroke: #A80036; stroke-width: 1.0;" x1="154.5" x2="154.5" y1="323.7949" y2="336.7949"/><line style="stroke: #A80036; stroke-width: 1.0;" x1="113.5" x2="154.5" y1="336.7949" y2="336.7949"/><polygon fill="#A80036" points="123.5,332.7949,113.5,336.7949,123.5,340.7949,119.5,336.7949" style="stroke: #A80036; stroke-width: 1.0;"/><text fill="#000000" font-family="sans-serif" font-size="13" lengthAdjust="spacingAndGlyphs" textLength="57" x="119.5" y="319.0527">validate()</text><rect fill="none" height="120.2422" style="stroke: #000000; stroke-width: 2.0;" width="730" x="23" y="351.7949"/><polygon fill="#EEEEEE" points="23,351.7949,85,351.7949,85,358.7949,75,368.7949,23,368.7949,23,351.7949" style="stroke: #000000; stroke-width: 2.0;"/><text fill="#000000" font-family="sans-serif" font-size="13" font-weight="bold" lengthAdjust="spacingAndGlyphs" textLength="17" x="38" y="365.3633">alt</text><text fill="#000000" font-family="sans-serif" font-size="11" font-weight="bold" lengthAdjust="spacingAndGlyphs" textLength="160" x="100" y="364.4297">[incompatible changes exist]</text><line style="stroke: #A80036; stroke-width: 1.0;" x1="112.5" x2="154.5" y1="390.416" y2="390.416"/><line style="stroke: #A80036; stroke-width: 1.0;" x1="154.5" x2="154.5" y1="390.416" y2="403.416"/><line style="stroke: #A80036; stroke-width: 1.0;" x1="113.5" x2="154.5" y1="403.416" y2="403.416"/><polygon fill="#A80036" points="123.5,399.416,113.5,403.416,123.5,407.416,119.5,403.416" style="stroke: #A80036; stroke-width: 1.0;"/><text fill="#000000" font-family="sans-serif" font-size="13" lengthAdjust="spacingAndGlyphs" textLength="152" x="119.5" y="385.6738">reportIncompatibilities()</text><rect fill="none" height="46.6211" style="stroke: #000000; stroke-width: 2.0;" width="710" x="33" y="418.416"/><polygon fill="#EEEEEE" points="33,418.416,95,418.416,95,425.416,85,435.416,33,435.416,33,418.416" style="stroke: #000000; stroke-width: 2.0;"/><text fill="#000000" font-family="sans-serif" font-size="13" font-weight="bold" lengthAdjust="spacingAndGlyphs" textLength="17" x="48" y="431.9844">alt</text><text fill="#000000" font-family="sans-serif" font-size="11" font-weight="bold" lengthAdjust="spacingAndGlyphs" textLength="169" x="110" y="431.0508">[accept incompatible changes]</text><polygon fill="#A80036" points="623,452.7266,633,456.7266,623,460.7266,627,456.7266" style="stroke: #A80036; stroke-width: 1.0;"/><line style="stroke: #A80036; stroke-width: 1.0;" x1="112.5" x2="629" y1="456.7266" y2="456.7266"/><text fill="#000000" font-family="sans-serif" font-size="13" lengthAdjust="spacingAndGlyphs" textLength="89" x="119.5" y="452.2949">createLibrary()</text></g></svg>