<?xml version="1.0" encoding="UTF-8" standalone="no"?><svg xmlns="http://www.w3.org/2000/svg" xmlns:xlink="http://www.w3.org/1999/xlink" contentScriptType="application/ecmascript" contentStyleType="text/css" height="428px" preserveAspectRatio="none" style="width:403px;height:428px;" version="1.1" viewBox="0 0 403 428" width="403px" zoomAndPan="magnify"><defs><filter height="300%" id="fl21xww" width="300%" x="-1" y="-1"><feGaussianBlur result="blurOut" stdDeviation="2.0"/><feColorMatrix in="blurOut" result="blurOut2" type="matrix" values="0 0 0 0 0 0 0 0 0 0 0 0 0 0 0 0 0 0 .4 0"/><feOffset dx="4.0" dy="4.0" in="blurOut2" result="blurOut3"/><feBlend in="SourceGraphic" in2="blurOut3" mode="normal"/></filter></defs><g><text fill="#000000" font-family="sans-serif" font-size="14" font-weight="bold" lengthAdjust="spacingAndGlyphs" textLength="356" x="25" y="23.5352">Apply OpenStudio measure to a single parameter</text><rect fill="#FFFFFF" filter="url(#fl21xww)" height="90.9316" style="stroke: #000000; stroke-width: 2.0;" width="302" x="13" y="282.2188"/><rect fill="#FFFFFF" height="44.3105" style="stroke: none; stroke-width: 1.0;" width="302" x="13" y="328.8398"/><line style="stroke: #A80036; stroke-width: 1.0; stroke-dasharray: 5.0,5.0;" x1="61" x2="61" y1="68.9766" y2="390.1504"/><line style="stroke: #A80036; stroke-width: 1.0; stroke-dasharray: 5.0,5.0;" x1="207" x2="207" y1="68.9766" y2="390.1504"/><line style="stroke: #A80036; stroke-width: 1.0; stroke-dasharray: 5.0,5.0;" x1="356" x2="356" y1="68.9766" y2="390.1504"/><rect fill="#FEFECE" filter="url(#fl21xww)" height="30.4883" style="stroke: #A80036; stroke-width: 1.5;" width="72" x="23" y="33.4883"/><text fill="#000000" font-family="sans-serif" font-size="14" lengthAdjust="spacingAndGlyphs" textLength="58" x="30" y="54.0234">Measure</text><rect fill="#FEFECE" filter="url(#fl21xww)" height="30.4883" style="stroke: #A80036; stroke-width: 1.5;" width="72" x="23" y="389.1504"/><text fill="#000000" font-family="sans-serif" font-size="14" lengthAdjust="spacingAndGlyphs" textLength="58" x="30" y="409.6855">Measure</text><rect fill="#FEFECE" filter="url(#fl21xww)" height="30.4883" style="stroke: #A80036; stroke-width: 1.5;" width="192" x="109" y="33.4883"/><text fill="#000000" font-family="sans-serif" font-size="14" lengthAdjust="spacingAndGlyphs" textLength="178" x="116" y="54.0234">OpenStudio Model Library</text><rect fill="#FEFECE" filter="url(#fl21xww)" height="30.4883" style="stroke: #A80036; stroke-width: 1.5;" width="192" x="109" y="389.1504"/><text fill="#000000" font-family="sans-serif" font-size="14" lengthAdjust="spacingAndGlyphs" textLength="178" x="116" y="409.6855">OpenStudio Model Library</text><rect fill="#FEFECE" filter="url(#fl21xww)" height="30.4883" style="stroke: #A80036; stroke-width: 1.5;" width="79" x="315" y="33.4883"/><text fill="#000000" font-family="sans-serif" font-size="14" lengthAdjust="spacingAndGlyphs" textLength="65" x="322" y="54.0234">JModelica</text><rect fill="#FEFECE" filter="url(#fl21xww)" height="30.4883" style="stroke: #A80036; stroke-width: 1.5;" width="79" x="315" y="389.1504"/><text fill="#000000" font-family="sans-serif" font-size="14" lengthAdjust="spacingAndGlyphs" textLength="65" x="322" y="409.6855">JModelica</text><polygon fill="#A80036" points="195,95.9766,205,99.9766,195,103.9766,199,99.9766" style="stroke: #A80036; stroke-width: 1.0;"/><line style="stroke: #A80036; stroke-width: 1.0;" x1="61" x2="201" y1="99.9766" y2="99.9766"/><text fill="#000000" font-family="sans-serif" font-size="13" lengthAdjust="spacingAndGlyphs" textLength="105" x="68" y="95.5449">getInstanceAST()</text><polygon fill="#A80036" points="344.5,125.2871,354.5,129.2871,344.5,133.2871,348.5,129.2871" style="stroke: #A80036; stroke-width: 1.0;"/><line style="stroke: #A80036; stroke-width: 1.0;" x1="207" x2="350.5" y1="129.2871" y2="129.2871"/><text fill="#000000" font-family="sans-serif" font-size="13" lengthAdjust="spacingAndGlyphs" textLength="105" x="214" y="124.8555">getInstanceAST()</text><polygon fill="#A80036" points="218,139.5977,208,143.5977,218,147.5977,214,143.5977" style="stroke: #A80036; stroke-width: 1.0;"/><line style="stroke: #A80036; stroke-width: 1.0;" x1="212" x2="355.5" y1="143.5977" y2="143.5977"/><polygon fill="#A80036" points="72,153.5977,62,157.5977,72,161.5977,68,157.5977" style="stroke: #A80036; stroke-width: 1.0;"/><line style="stroke: #A80036; stroke-width: 1.0;" x1="66" x2="206" y1="157.5977" y2="157.5977"/><line style="stroke: #A80036; stroke-width: 1.0;" x1="61" x2="103" y1="211.9082" y2="211.9082"/><line style="stroke: #A80036; stroke-width: 1.0;" x1="103" x2="103" y1="211.9082" y2="224.9082"/><line style="stroke: #A80036; stroke-width: 1.0;" x1="62" x2="103" y1="224.9082" y2="224.9082"/><polygon fill="#A80036" points="72,220.9082,62,224.9082,72,228.9082,68,224.9082" style="stroke: #A80036; stroke-width: 1.0;"/><text fill="#000000" font-family="sans-serif" font-size="13" lengthAdjust="spacingAndGlyphs" textLength="111" x="68" y="207.166">searchParameter()</text><line style="stroke: #A80036; stroke-width: 1.0;" x1="61" x2="103" y1="254.2188" y2="254.2188"/><line style="stroke: #A80036; stroke-width: 1.0;" x1="103" x2="103" y1="254.2188" y2="267.2188"/><line style="stroke: #A80036; stroke-width: 1.0;" x1="62" x2="103" y1="267.2188" y2="267.2188"/><polygon fill="#A80036" points="72,263.2188,62,267.2188,72,271.2188,68,267.2188" style="stroke: #A80036; stroke-width: 1.0;"/><text fill="#000000" font-family="sans-serif" font-size="13" lengthAdjust="spacingAndGlyphs" textLength="57" x="68" y="249.4766">validate()</text><rect fill="none" height="90.9316" style="stroke: #000000; stroke-width: 2.0;" width="302" x="13" y="282.2188"/><polygon fill="#EEEEEE" points="13,282.2188,75,282.2188,75,289.2188,65,299.2188,13,299.2188,13,282.2188" style="stroke: #000000; stroke-width: 2.0;"/><text fill="#000000" font-family="sans-serif" font-size="13" font-weight="bold" lengthAdjust="spacingAndGlyphs" textLength="17" x="28" y="295.7871">alt</text><text fill="#000000" font-family="sans-serif" font-size="11" font-weight="bold" lengthAdjust="spacingAndGlyphs" textLength="101" x="90" y="294.8535">[found parameter]</text><polygon fill="#A80036" points="195,316.5293,205,320.5293,195,324.5293,199,320.5293" style="stroke: #A80036; stroke-width: 1.0;"/><line style="stroke: #A80036; stroke-width: 1.0;" x1="61" x2="201" y1="320.5293" y2="320.5293"/><text fill="#000000" font-family="sans-serif" font-size="13" lengthAdjust="spacingAndGlyphs" textLength="61" x="68" y="316.0977">setValue()</text><line style="stroke: #000000; stroke-width: 1.0; stroke-dasharray: 2.0,2.0;" x1="13" x2="315" y1="329.8398" y2="329.8398"/><line style="stroke: #A80036; stroke-width: 1.0;" x1="61" x2="103" y1="352.1504" y2="352.1504"/><line style="stroke: #A80036; stroke-width: 1.0;" x1="103" x2="103" y1="352.1504" y2="365.1504"/><line style="stroke: #A80036; stroke-width: 1.0;" x1="62" x2="103" y1="365.1504" y2="365.1504"/><polygon fill="#A80036" points="72,361.1504,62,365.1504,72,369.1504,68,365.1504" style="stroke: #A80036; stroke-width: 1.0;"/><text fill="#000000" font-family="sans-serif" font-size="13" lengthAdjust="spacingAndGlyphs" textLength="76" x="68" y="347.4082">reportError()</text></g></svg>