<?xml version="1.0" encoding="UTF-8" standalone="no"?><svg xmlns="http://www.w3.org/2000/svg" xmlns:xlink="http://www.w3.org/1999/xlink" contentScriptType="application/ecmascript" contentStyleType="text/css" height="1545px" preserveAspectRatio="none" style="width:2077px;height:1545px;" version="1.1" viewBox="0 0 2077 1545" width="2077px" zoomAndPan="magnify"><defs><filter height="300%" id="fnzodxs" width="300%" x="-1" y="-1"><feGaussianBlur result="blurOut" stdDeviation="2.0"/><feColorMatrix in="blurOut" result="blurOut2" type="matrix" values="0 0 0 0 0 0 0 0 0 0 0 0 0 0 0 0 0 0 .4 0"/><feOffset dx="4.0" dy="4.0" in="blurOut2" result="blurOut3"/><feBlend in="SourceGraphic" in2="blurOut3" mode="normal"/></filter></defs><g><text fill="#000000" font-family="sans-serif" font-size="18" lengthAdjust="spacingAndGlyphs" textLength="585" x="750.5" y="17.4023">Overall software architecture (with two editors for the SOEP mode).</text><!--cluster OpenStudio--><polygon fill="#FFFFFF" filter="url(#fnzodxs)" points="620,156.6992,710,156.6992,717,179.1875,1854,179.1875,1854,634.6992,620,634.6992,620,156.6992" style="stroke: #000000; stroke-width: 2.0;"/><line style="stroke: #000000; stroke-width: 2.0;" x1="620" x2="717" y1="179.1875" y2="179.1875"/><text fill="#000000" font-family="sans-serif" font-size="14" font-weight="bold" lengthAdjust="spacingAndGlyphs" textLength="84" x="624" y="172.2344">OpenStudio</text><!--cluster Legacy-Mode--><polygon fill="#FFFFFF" filter="url(#fnzodxs)" points="660,488.6992,762,488.6992,769,511.1875,1229,511.1875,1229,602.6992,660,602.6992,660,488.6992" style="stroke: #000000; stroke-width: 2.0;"/><line style="stroke: #000000; stroke-width: 2.0;" x1="660" x2="769" y1="511.1875" y2="511.1875"/><text fill="#000000" font-family="sans-serif" font-size="14" font-weight="bold" lengthAdjust="spacingAndGlyphs" textLength="96" x="664" y="504.2344">Legacy-Mode</text><!--cluster SOEP-Mode--><polygon fill="#FFFFFF" filter="url(#fnzodxs)" points="1253,488.6992,1344,488.6992,1351,511.1875,1822,511.1875,1822,602.6992,1253,602.6992,1253,488.6992" style="stroke: #000000; stroke-width: 2.0;"/><line style="stroke: #000000; stroke-width: 2.0;" x1="1253" x2="1351" y1="511.1875" y2="511.1875"/><text fill="#000000" font-family="sans-serif" font-size="14" font-weight="bold" lengthAdjust="spacingAndGlyphs" textLength="85" x="1257" y="504.2344">SOEP-Mode</text><!--cluster EnergyPlus--><polygon fill="#FFFFFF" filter="url(#fnzodxs)" points="30,288.6992,115,288.6992,122,311.1875,580,311.1875,580,401.6992,30,401.6992,30,288.6992" style="stroke: #000000; stroke-width: 2.0;"/><line style="stroke: #000000; stroke-width: 2.0;" x1="30" x2="122" y1="311.1875" y2="311.1875"/><text fill="#000000" font-family="sans-serif" font-size="14" font-weight="bold" lengthAdjust="spacingAndGlyphs" textLength="79" x="34" y="304.2344">EnergyPlus</text><!--cluster SOEP--><polygon fill="#FFFFFF" filter="url(#fnzodxs)" points="1339,691.6992,1382,691.6992,1389,714.1875,1722,714.1875,1722,1341.1992,1339,1341.1992,1339,691.6992" style="stroke: #000000; stroke-width: 2.0;"/><line style="stroke: #000000; stroke-width: 2.0;" x1="1339" x2="1389" y1="714.1875" y2="714.1875"/><text fill="#000000" font-family="sans-serif" font-size="14" font-weight="bold" lengthAdjust="spacingAndGlyphs" textLength="37" x="1343" y="707.2344">SOEP</text><!--entity API--><ellipse cx="1224" cy="208.6992" fill="#FEFECE" filter="url(#fnzodxs)" rx="8" ry="8" style="stroke: #A80036; stroke-width: 2.0;"/><text fill="#000000" font-family="sans-serif" font-size="14" lengthAdjust="spacingAndGlyphs" textLength="22" x="1213" y="231.2344">API</text><!--entity Core--><rect fill="#FEFECE" filter="url(#fnzodxs)" height="46.4883" style="stroke: #A80036; stroke-width: 1.5;" width="73" x="1187.5" y="331.6992"/><rect fill="#FEFECE" height="10" style="stroke: #A80036; stroke-width: 1.5;" width="15" x="1240.5" y="336.6992"/><rect fill="#FEFECE" height="2" style="stroke: #A80036; stroke-width: 1.5;" width="4" x="1238.5" y="338.6992"/><rect fill="#FEFECE" height="2" style="stroke: #A80036; stroke-width: 1.5;" width="4" x="1238.5" y="342.6992"/><text fill="#000000" font-family="sans-serif" font-size="14" lengthAdjust="spacingAndGlyphs" textLength="33" x="1202.5" y="365.2344">Core</text><!--entity Legacy\nModel Library--><path d="M1099.5,536.1992 C1099.5,526.1992 1156,526.1992 1156,526.1992 C1156,526.1992 1212.5,526.1992 1212.5,536.1992 L1212.5,574.1758 C1212.5,584.1758 1156,584.1758 1156,584.1758 C1156,584.1758 1099.5,584.1758 1099.5,574.1758 L1099.5,536.1992 " fill="#FEFECE" filter="url(#fnzodxs)" style="stroke: #000000; stroke-width: 1.5;"/><path d="M1099.5,536.1992 C1099.5,546.1992 1156,546.1992 1156,546.1992 C1156,546.1992 1212.5,546.1992 1212.5,536.1992 " fill="none" style="stroke: #000000; stroke-width: 1.5;"/><text fill="#000000" font-family="sans-serif" font-size="14" lengthAdjust="spacingAndGlyphs" textLength="46" x="1133" y="559.7344">Legacy</text><text fill="#000000" font-family="sans-serif" font-size="14" lengthAdjust="spacingAndGlyphs" textLength="93" x="1109.5" y="576.2227">Model Library</text><!--entity HVAC Systems Editor\n(Legacy Mode)--><rect fill="#FEFECE" filter="url(#fnzodxs)" height="62.9766" style="stroke: #A80036; stroke-width: 1.5;" width="183" x="881.5" y="523.6992"/><rect fill="#FEFECE" height="10" style="stroke: #A80036; stroke-width: 1.5;" width="15" x="1044.5" y="528.6992"/><rect fill="#FEFECE" height="2" style="stroke: #A80036; stroke-width: 1.5;" width="4" x="1042.5" y="530.6992"/><rect fill="#FEFECE" height="2" style="stroke: #A80036; stroke-width: 1.5;" width="4" x="1042.5" y="534.6992"/><text fill="#000000" font-family="sans-serif" font-size="14" lengthAdjust="spacingAndGlyphs" textLength="143" x="896.5" y="557.2344">HVAC Systems Editor</text><text fill="#000000" font-family="sans-serif" font-size="14" lengthAdjust="spacingAndGlyphs" textLength="98" x="919" y="573.7227">(Legacy Mode)</text><!--entity EnergyPlus\nSimulator Interface--><rect fill="#FEFECE" filter="url(#fnzodxs)" height="62.9766" style="stroke: #A80036; stroke-width: 1.5;" width="170" x="676" y="523.6992"/><rect fill="#FEFECE" height="10" style="stroke: #A80036; stroke-width: 1.5;" width="15" x="826" y="528.6992"/><rect fill="#FEFECE" height="2" style="stroke: #A80036; stroke-width: 1.5;" width="4" x="824" y="530.6992"/><rect fill="#FEFECE" height="2" style="stroke: #A80036; stroke-width: 1.5;" width="4" x="824" y="534.6992"/><text fill="#000000" font-family="sans-serif" font-size="14" lengthAdjust="spacingAndGlyphs" textLength="75" x="718.5" y="557.2344">EnergyPlus</text><text fill="#000000" font-family="sans-serif" font-size="14" lengthAdjust="spacingAndGlyphs" textLength="130" x="691" y="573.7227">Simulator Interface</text><!--entity SOEP\nModel Library--><path d="M1269.5,536.1992 C1269.5,526.1992 1326,526.1992 1326,526.1992 C1326,526.1992 1382.5,526.1992 1382.5,536.1992 L1382.5,574.1758 C1382.5,584.1758 1326,584.1758 1326,584.1758 C1326,584.1758 1269.5,584.1758 1269.5,574.1758 L1269.5,536.1992 " fill="#FEFECE" filter="url(#fnzodxs)" style="stroke: #000000; stroke-width: 1.5;"/><path d="M1269.5,536.1992 C1269.5,546.1992 1326,546.1992 1326,546.1992 C1326,546.1992 1382.5,546.1992 1382.5,536.1992 " fill="none" style="stroke: #000000; stroke-width: 1.5;"/><text fill="#000000" font-family="sans-serif" font-size="14" lengthAdjust="spacingAndGlyphs" textLength="35" x="1308.5" y="559.7344">SOEP</text><text fill="#000000" font-family="sans-serif" font-size="14" lengthAdjust="spacingAndGlyphs" textLength="93" x="1279.5" y="576.2227">Model Library</text><!--entity HVAC Systems Editor\n(SOEP Mode)--><rect fill="#FEFECE" filter="url(#fnzodxs)" height="62.9766" style="stroke: #A80036; stroke-width: 1.5;" width="183" x="1417.5" y="523.6992"/><rect fill="#FEFECE" height="10" style="stroke: #A80036; stroke-width: 1.5;" width="15" x="1580.5" y="528.6992"/><rect fill="#FEFECE" height="2" style="stroke: #A80036; stroke-width: 1.5;" width="4" x="1578.5" y="530.6992"/><rect fill="#FEFECE" height="2" style="stroke: #A80036; stroke-width: 1.5;" width="4" x="1578.5" y="534.6992"/><text fill="#000000" font-family="sans-serif" font-size="14" lengthAdjust="spacingAndGlyphs" textLength="143" x="1432.5" y="557.2344">HVAC Systems Editor</text><text fill="#000000" font-family="sans-serif" font-size="14" lengthAdjust="spacingAndGlyphs" textLength="87" x="1460.5" y="573.7227">(SOEP Mode)</text><!--entity SOEP\nSimulator Interface--><rect fill="#FEFECE" filter="url(#fnzodxs)" height="62.9766" style="stroke: #A80036; stroke-width: 1.5;" width="170" x="1636" y="523.6992"/><rect fill="#FEFECE" height="10" style="stroke: #A80036; stroke-width: 1.5;" width="15" x="1786" y="528.6992"/><rect fill="#FEFECE" height="2" style="stroke: #A80036; stroke-width: 1.5;" width="4" x="1784" y="530.6992"/><rect fill="#FEFECE" height="2" style="stroke: #A80036; stroke-width: 1.5;" width="4" x="1784" y="534.6992"/><text fill="#000000" font-family="sans-serif" font-size="14" lengthAdjust="spacingAndGlyphs" textLength="35" x="1698.5" y="557.2344">SOEP</text><text fill="#000000" font-family="sans-serif" font-size="14" lengthAdjust="spacingAndGlyphs" textLength="130" x="1651" y="573.7227">Simulator Interface</text><!--entity in.idf--><rect fill="#FEFECE" filter="url(#fnzodxs)" height="46.4883" style="stroke: #A80036; stroke-width: 1.5;" width="75" x="73.5" y="331.6992"/><rect fill="#FEFECE" height="10" style="stroke: #A80036; stroke-width: 1.5;" width="15" x="128.5" y="336.6992"/><rect fill="#FEFECE" height="2" style="stroke: #A80036; stroke-width: 1.5;" width="4" x="126.5" y="338.6992"/><rect fill="#FEFECE" height="2" style="stroke: #A80036; stroke-width: 1.5;" width="4" x="126.5" y="342.6992"/><text fill="#000000" font-family="sans-serif" font-size="14" lengthAdjust="spacingAndGlyphs" textLength="35" x="88.5" y="365.2344">in.idf</text><!--entity EnergyPlus.exe--><rect fill="#FEFECE" filter="url(#fnzodxs)" height="46.4883" style="stroke: #A80036; stroke-width: 1.5;" width="144" x="218" y="331.6992"/><rect fill="#FEFECE" height="10" style="stroke: #A80036; stroke-width: 1.5;" width="15" x="342" y="336.6992"/><rect fill="#FEFECE" height="2" style="stroke: #A80036; stroke-width: 1.5;" width="4" x="340" y="338.6992"/><rect fill="#FEFECE" height="2" style="stroke: #A80036; stroke-width: 1.5;" width="4" x="340" y="342.6992"/><text fill="#000000" font-family="sans-serif" font-size="14" lengthAdjust="spacingAndGlyphs" textLength="104" x="233" y="365.2344">EnergyPlus.exe</text><!--entity eplusout.sql--><rect fill="#FEFECE" filter="url(#fnzodxs)" height="46.4883" style="stroke: #A80036; stroke-width: 1.5;" width="124" x="432" y="331.6992"/><rect fill="#FEFECE" height="10" style="stroke: #A80036; stroke-width: 1.5;" width="15" x="536" y="336.6992"/><rect fill="#FEFECE" height="2" style="stroke: #A80036; stroke-width: 1.5;" width="4" x="534" y="338.6992"/><rect fill="#FEFECE" height="2" style="stroke: #A80036; stroke-width: 1.5;" width="4" x="534" y="342.6992"/><text fill="#000000" font-family="sans-serif" font-size="14" lengthAdjust="spacingAndGlyphs" textLength="84" x="447" y="365.2344">eplusout.sql</text><!--entity Schematic Editor--><rect fill="#FEFECE" filter="url(#fnzodxs)" height="46.4883" style="stroke: #A80036; stroke-width: 1.5;" width="154" x="1552" y="904.1992"/><rect fill="#FEFECE" height="10" style="stroke: #A80036; stroke-width: 1.5;" width="15" x="1686" y="909.1992"/><rect fill="#FEFECE" height="2" style="stroke: #A80036; stroke-width: 1.5;" width="4" x="1684" y="911.1992"/><rect fill="#FEFECE" height="2" style="stroke: #A80036; stroke-width: 1.5;" width="4" x="1684" y="915.1992"/><text fill="#000000" font-family="sans-serif" font-size="14" lengthAdjust="spacingAndGlyphs" textLength="114" x="1567" y="937.7344">Schematic Editor</text><!--entity JModelica--><rect fill="#FEFECE" filter="url(#fnzodxs)" height="46.4883" style="stroke: #A80036; stroke-width: 1.5;" width="105" x="1581.5" y="1093.1992"/><rect fill="#FEFECE" height="10" style="stroke: #A80036; stroke-width: 1.5;" width="15" x="1666.5" y="1098.1992"/><rect fill="#FEFECE" height="2" style="stroke: #A80036; stroke-width: 1.5;" width="4" x="1664.5" y="1100.1992"/><rect fill="#FEFECE" height="2" style="stroke: #A80036; stroke-width: 1.5;" width="4" x="1664.5" y="1104.1992"/><text fill="#000000" font-family="sans-serif" font-size="14" lengthAdjust="spacingAndGlyphs" textLength="65" x="1596.5" y="1126.7344">JModelica</text><!--entity Conversion Script--><rect fill="#FEFECE" filter="url(#fnzodxs)" height="46.4883" style="stroke: #A80036; stroke-width: 1.5;" width="161" x="1355.5" y="904.1992"/><rect fill="#FEFECE" height="10" style="stroke: #A80036; stroke-width: 1.5;" width="15" x="1496.5" y="909.1992"/><rect fill="#FEFECE" height="2" style="stroke: #A80036; stroke-width: 1.5;" width="4" x="1494.5" y="911.1992"/><rect fill="#FEFECE" height="2" style="stroke: #A80036; stroke-width: 1.5;" width="4" x="1494.5" y="915.1992"/><text fill="#000000" font-family="sans-serif" font-size="14" lengthAdjust="spacingAndGlyphs" textLength="121" x="1370.5" y="937.7344">Conversion Script</text><!--entity Modelica\nLibrary AST--><path d="M1455,736.6992 C1455,726.6992 1504,726.6992 1504,726.6992 C1504,726.6992 1553,726.6992 1553,736.6992 L1553,774.6758 C1553,784.6758 1504,784.6758 1504,784.6758 C1504,784.6758 1455,784.6758 1455,774.6758 L1455,736.6992 " fill="#FEFECE" filter="url(#fnzodxs)" style="stroke: #000000; stroke-width: 1.5;"/><path d="M1455,736.6992 C1455,746.6992 1504,746.6992 1504,746.6992 C1504,746.6992 1553,746.6992 1553,736.6992 " fill="none" style="stroke: #000000; stroke-width: 1.5;"/><text fill="#000000" font-family="sans-serif" font-size="14" lengthAdjust="spacingAndGlyphs" textLength="61" x="1473.5" y="760.2344">Modelica</text><text fill="#000000" font-family="sans-serif" font-size="14" lengthAdjust="spacingAndGlyphs" textLength="78" x="1465" y="776.7227">Library AST</text><!--entity Modelica\nBuildings Library--><path d="M1567,1277.1992 C1567,1267.1992 1634,1267.1992 1634,1267.1992 C1634,1267.1992 1701,1267.1992 1701,1277.1992 L1701,1315.1758 C1701,1325.1758 1634,1325.1758 1634,1325.1758 C1634,1325.1758 1567,1325.1758 1567,1315.1758 L1567,1277.1992 " fill="#FEFECE" filter="url(#fnzodxs)" style="stroke: #000000; stroke-width: 1.5;"/><path d="M1567,1277.1992 C1567,1287.1992 1634,1287.1992 1634,1287.1992 C1634,1287.1992 1701,1287.1992 1701,1277.1992 " fill="none" style="stroke: #000000; stroke-width: 1.5;"/><text fill="#000000" font-family="sans-serif" font-size="14" lengthAdjust="spacingAndGlyphs" textLength="61" x="1603.5" y="1300.7344">Modelica</text><text fill="#000000" font-family="sans-serif" font-size="14" lengthAdjust="spacingAndGlyphs" textLength="114" x="1577" y="1317.2227">Buildings Library</text><!--entity epdev--><ellipse cx="1156" cy="724.1992" fill="#FEFECE" filter="url(#fnzodxs)" rx="8" ry="8" style="stroke: #A80036; stroke-width: 2.0;"/><path d="M1156,732.1992 L1156,759.1992 M1143,740.1992 L1169,740.1992 M1156,759.1992 L1143,774.1992 M1156,759.1992 L1169,774.1992 " fill="#FEFECE" filter="url(#fnzodxs)" style="stroke: #A80036; stroke-width: 2.0;"/><text fill="#000000" font-family="sans-serif" font-size="14" lengthAdjust="spacingAndGlyphs" textLength="69" x="1121.5" y="794.7344">Developer</text><!--entity modev--><ellipse cx="1002" cy="1084.6992" fill="#FEFECE" filter="url(#fnzodxs)" rx="8" ry="8" style="stroke: #A80036; stroke-width: 2.0;"/><path d="M1002,1092.6992 L1002,1119.6992 M989,1100.6992 L1015,1100.6992 M1002,1119.6992 L989,1134.6992 M1002,1119.6992 L1015,1134.6992 " fill="#FEFECE" filter="url(#fnzodxs)" style="stroke: #A80036; stroke-width: 2.0;"/><text fill="#000000" font-family="sans-serif" font-size="14" lengthAdjust="spacingAndGlyphs" textLength="123" x="940.5" y="1155.2344">Developer or User</text><!--entity budev--><ellipse cx="1634" cy="1438.6992" fill="#FEFECE" filter="url(#fnzodxs)" rx="8" ry="8" style="stroke: #A80036; stroke-width: 2.0;"/><path d="M1634,1446.6992 L1634,1473.6992 M1621,1454.6992 L1647,1454.6992 M1634,1473.6992 L1621,1488.6992 M1634,1473.6992 L1647,1488.6992 " fill="#FEFECE" filter="url(#fnzodxs)" style="stroke: #A80036; stroke-width: 2.0;"/><text fill="#000000" font-family="sans-serif" font-size="14" lengthAdjust="spacingAndGlyphs" textLength="69" x="1599.5" y="1509.2344">Developer</text><!--entity mouse--><ellipse cx="1795" cy="1438.6992" fill="#FEFECE" filter="url(#fnzodxs)" rx="8" ry="8" style="stroke: #A80036; stroke-width: 2.0;"/><path d="M1795,1446.6992 L1795,1473.6992 M1782,1454.6992 L1808,1454.6992 M1795,1473.6992 L1782,1488.6992 M1795,1473.6992 L1808,1488.6992 " fill="#FEFECE" filter="url(#fnzodxs)" style="stroke: #A80036; stroke-width: 2.0;"/><text fill="#000000" font-family="sans-serif" font-size="14" lengthAdjust="spacingAndGlyphs" textLength="31" x="1779.5" y="1509.2344">User</text><!--entity User-Provided\nModelica Library--><path d="M1738,1277.1992 C1738,1267.1992 1804,1267.1992 1804,1267.1992 C1804,1267.1992 1870,1267.1992 1870,1277.1992 L1870,1315.1758 C1870,1325.1758 1804,1325.1758 1804,1325.1758 C1804,1325.1758 1738,1325.1758 1738,1315.1758 L1738,1277.1992 " fill="#FEFECE" filter="url(#fnzodxs)" style="stroke: #000000; stroke-width: 1.5;"/><path d="M1738,1277.1992 C1738,1287.1992 1804,1287.1992 1804,1287.1992 C1804,1287.1992 1870,1287.1992 1870,1277.1992 " fill="none" style="stroke: #000000; stroke-width: 1.5;"/><text fill="#000000" font-family="sans-serif" font-size="14" lengthAdjust="spacingAndGlyphs" textLength="99" x="1754.5" y="1300.7344">User-Provided</text><text fill="#000000" font-family="sans-serif" font-size="14" lengthAdjust="spacingAndGlyphs" textLength="112" x="1748" y="1317.2227">Modelica Library</text><!--entity Application--><rect fill="#FEFECE" filter="url(#fnzodxs)" height="46.4883" style="stroke: #A80036; stroke-width: 1.5;" width="118" x="1275" y="34.6992"/><rect fill="#FEFECE" height="10" style="stroke: #A80036; stroke-width: 1.5;" width="15" x="1373" y="39.6992"/><rect fill="#FEFECE" height="2" style="stroke: #A80036; stroke-width: 1.5;" width="4" x="1371" y="41.6992"/><rect fill="#FEFECE" height="2" style="stroke: #A80036; stroke-width: 1.5;" width="4" x="1371" y="45.6992"/><text fill="#000000" font-family="sans-serif" font-size="14" lengthAdjust="spacingAndGlyphs" textLength="78" x="1290" y="68.2344">Application</text><!--entity Measures--><rect fill="#FEFECE" filter="url(#fnzodxs)" height="46.4883" style="stroke: #A80036; stroke-width: 1.5;" width="105" x="1134.5" y="34.6992"/><rect fill="#FEFECE" height="10" style="stroke: #A80036; stroke-width: 1.5;" width="15" x="1219.5" y="39.6992"/><rect fill="#FEFECE" height="2" style="stroke: #A80036; stroke-width: 1.5;" width="4" x="1217.5" y="41.6992"/><rect fill="#FEFECE" height="2" style="stroke: #A80036; stroke-width: 1.5;" width="4" x="1217.5" y="45.6992"/><text fill="#000000" font-family="sans-serif" font-size="14" lengthAdjust="spacingAndGlyphs" textLength="65" x="1149.5" y="68.2344">Measures</text><polygon fill="#FBFB77" filter="url(#fnzodxs)" points="1099,1042.1992,1099,1189.9941,1323,1189.9941,1323,1052.1992,1313,1042.1992,1099,1042.1992" style="stroke: #A80036; stroke-width: 1.0;"/><line style="stroke: #A80036; stroke-width: 1.0;" x1="1313" x2="1313" y1="1042.1992" y2="1052.1992"/><line style="stroke: #A80036; stroke-width: 1.0;" x1="1323" x2="1313" y1="1052.1992" y2="1052.1992"/><text fill="#000000" font-family="sans-serif" font-size="13" lengthAdjust="spacingAndGlyphs" textLength="180" x="1105" y="1059.7676">Allows free graphical editing</text><text fill="#000000" font-family="sans-serif" font-size="13" lengthAdjust="spacingAndGlyphs" textLength="189" x="1105" y="1075.0781">of Modelica models. However,</text><text fill="#000000" font-family="sans-serif" font-size="13" lengthAdjust="spacingAndGlyphs" textLength="203" x="1105" y="1090.3887">after editing, many OS Measures</text><text fill="#000000" font-family="sans-serif" font-size="13" lengthAdjust="spacingAndGlyphs" textLength="170" x="1105" y="1105.6992">cannot be applied anymore</text><text fill="#000000" font-family="sans-serif" font-size="13" lengthAdjust="spacingAndGlyphs" textLength="203" x="1105" y="1121.0098">(as models may be incompatible</text><text fill="#000000" font-family="sans-serif" font-size="13" lengthAdjust="spacingAndGlyphs" textLength="122" x="1105" y="1136.3203">with the Measures).</text><text fill="#000000" font-family="sans-serif" font-size="13" lengthAdjust="spacingAndGlyphs" textLength="191" x="1105" y="1151.6309">However, OS can still simulate</text><text fill="#000000" font-family="sans-serif" font-size="13" lengthAdjust="spacingAndGlyphs" textLength="182" x="1105" y="1166.9414">these models and parse their</text><text fill="#000000" font-family="sans-serif" font-size="13" lengthAdjust="spacingAndGlyphs" textLength="53" x="1105" y="1182.252">outputs.</text><polygon fill="#FBFB77" filter="url(#fnzodxs)" points="1846,1404.1992,1846,1536.6836,2068,1536.6836,2068,1414.1992,2058,1404.1992,1846,1404.1992" style="stroke: #A80036; stroke-width: 1.0;"/><line style="stroke: #A80036; stroke-width: 1.0;" x1="2058" x2="2058" y1="1404.1992" y2="1414.1992"/><line style="stroke: #A80036; stroke-width: 1.0;" x1="2068" x2="2058" y1="1414.1992" y2="1414.1992"/><text fill="#000000" font-family="sans-serif" font-size="13" lengthAdjust="spacingAndGlyphs" textLength="157" x="1852" y="1421.7676">Allows companies to use</text><text fill="#000000" font-family="sans-serif" font-size="13" lengthAdjust="spacingAndGlyphs" textLength="174" x="1852" y="1437.0781">their own Modelica libraries</text><text fill="#000000" font-family="sans-serif" font-size="13" lengthAdjust="spacingAndGlyphs" textLength="201" x="1852" y="1452.3887">with custom HVAC systems and</text><text fill="#000000" font-family="sans-serif" font-size="13" lengthAdjust="spacingAndGlyphs" textLength="136" x="1852" y="1467.6992">control sequences, or</text><text fill="#000000" font-family="sans-serif" font-size="13" lengthAdjust="spacingAndGlyphs" textLength="158" x="1852" y="1483.0098">to integrate an electronic</text><text fill="#000000" font-family="sans-serif" font-size="13" lengthAdjust="spacingAndGlyphs" textLength="145" x="1852" y="1498.3203">equipment catalog or a</text><text fill="#000000" font-family="sans-serif" font-size="13" lengthAdjust="spacingAndGlyphs" textLength="186" x="1852" y="1513.6309">library used for an equipment</text><text fill="#000000" font-family="sans-serif" font-size="13" lengthAdjust="spacingAndGlyphs" textLength="65" x="1852" y="1528.9414">sales tool.</text><polygon fill="#FBFB77" filter="url(#fnzodxs)" points="556,29.6992,556,85.6309,700,85.6309,700,39.6992,690,29.6992,556,29.6992" style="stroke: #A80036; stroke-width: 1.0;"/><line style="stroke: #A80036; stroke-width: 1.0;" x1="690" x2="690" y1="29.6992" y2="39.6992"/><line style="stroke: #A80036; stroke-width: 1.0;" x1="700" x2="690" y1="39.6992" y2="39.6992"/><text fill="#000000" font-family="sans-serif" font-size="13" lengthAdjust="spacingAndGlyphs" textLength="106" x="562" y="47.2676">Not yet shown is</text><text fill="#000000" font-family="sans-serif" font-size="13" lengthAdjust="spacingAndGlyphs" textLength="103" x="562" y="62.5781">how to integrate</text><text fill="#000000" font-family="sans-serif" font-size="13" lengthAdjust="spacingAndGlyphs" textLength="123" x="562" y="77.8887">the building model.</text><polygon fill="#FBFB77" filter="url(#fnzodxs)" points="1462.5,37.1992,1462.5,77.8203,1617.5,77.8203,1617.5,47.1992,1607.5,37.1992,1462.5,37.1992" style="stroke: #A80036; stroke-width: 1.0;"/><polygon fill="#FBFB77" points="1462.5,37.1992,1462.5,53.6992,1393.14,57.6992,1462.5,61.6992,1462.5,77.8203,1617.5,77.8203,1617.5,47.1992,1607.5,37.1992,1462.5,37.1992" style="stroke: #A80036; stroke-width: 1.0;"/><line style="stroke: #A80036; stroke-width: 1.0;" x1="1607.5" x2="1607.5" y1="37.1992" y2="47.1992"/><line style="stroke: #A80036; stroke-width: 1.0;" x1="1617.5" x2="1607.5" y1="47.1992" y2="47.1992"/><text fill="#000000" font-family="sans-serif" font-size="13" lengthAdjust="spacingAndGlyphs" textLength="134" x="1468.5" y="54.7676">Application that uses</text><text fill="#000000" font-family="sans-serif" font-size="13" lengthAdjust="spacingAndGlyphs" textLength="130" x="1468.5" y="70.0781">the OpenStudio SDK.</text><path d="M1224,233.8392 C1224,258.0392 1224,303.8292 1224,331.2692 " fill="none" style="stroke: #A80036; stroke-width: 1.0;"/><path d="M1216.46,377.6992 C1204.53,412.5192 1181.23,480.5492 1167.3,521.2192 " fill="none" style="stroke: #A80036; stroke-width: 1.0;"/><polygon fill="#A80036" points="1165.65,526.0392,1172.3432,518.8142,1167.2654,521.3074,1164.7722,516.2296,1165.65,526.0392" style="stroke: #A80036; stroke-width: 1.0;"/><text fill="#000000" font-family="sans-serif" font-size="13" lengthAdjust="spacingAndGlyphs" textLength="63" x="1200" y="454.2676">integrates</text><path d="M1187.45,375.8992 C1164.72,389.0392 1135.3,407.1392 1111,425.6992 C1072.78,454.8892 1032.98,492.8892 1006,519.9792 " fill="none" style="stroke: #A80036; stroke-width: 1.0;"/><polygon fill="#A80036" points="1002.446,523.5592,1011.6291,519.9996,1005.9722,520.0144,1005.9574,514.3576,1002.446,523.5592" style="stroke: #A80036; stroke-width: 1.0;"/><text fill="#000000" font-family="sans-serif" font-size="13" lengthAdjust="spacingAndGlyphs" textLength="63" x="1112" y="454.2676">integrates</text><path d="M1187.29,363.4992 C1119.88,378.8792 973.261,417.2092 864,480.6992 C843.863,492.3992 822.74,507.0192 804.901,520.1192 " fill="none" style="stroke: #A80036; stroke-width: 1.0;"/><polygon fill="#A80036" points="800.439,523.4192,810.0558,521.2938,804.4622,520.4504,805.3056,514.8567,800.439,523.4192" style="stroke: #A80036; stroke-width: 1.0;"/><text fill="#000000" font-family="sans-serif" font-size="13" lengthAdjust="spacingAndGlyphs" textLength="63" x="979" y="454.2676">integrates</text><path d="M1239.92,377.7992 C1249.28,391.2792 1261,409.0792 1270,425.6992 C1287.01,457.1292 1302.94,494.7892 1313.42,521.1792 " fill="none" style="stroke: #A80036; stroke-width: 1.0;"/><polygon fill="#A80036" points="1315.31,525.9792,1315.7179,516.1388,1313.4703,521.33,1308.2791,519.0824,1315.31,525.9792" style="stroke: #A80036; stroke-width: 1.0;"/><text fill="#000000" font-family="sans-serif" font-size="13" lengthAdjust="spacingAndGlyphs" textLength="63" x="1293" y="454.2676">integrates</text><path d="M1260.52,370.5892 C1289.89,383.3192 1331.61,403.1192 1365,425.6992 C1406.17,453.5492 1447.98,492.2692 1475.86,519.9092 " fill="none" style="stroke: #A80036; stroke-width: 1.0;"/><polygon fill="#A80036" points="1479.53,523.5592,1475.9759,514.374,1475.9873,520.0308,1470.3305,520.0423,1479.53,523.5592" style="stroke: #A80036; stroke-width: 1.0;"/><text fill="#000000" font-family="sans-serif" font-size="13" lengthAdjust="spacingAndGlyphs" textLength="63" x="1424" y="454.2676">integrates</text><path d="M1260.62,361.8792 C1332.85,375.2192 1497.14,411.2292 1618,480.6992 C1638.54,492.5092 1660.05,507.4092 1678.07,520.6992 " fill="none" style="stroke: #A80036; stroke-width: 1.0;"/><polygon fill="#A80036" points="1682.1,523.6892,1677.2657,515.1085,1678.088,520.7052,1672.4913,521.5276,1682.1,523.6892" style="stroke: #A80036; stroke-width: 1.0;"/><text fill="#000000" font-family="sans-serif" font-size="13" lengthAdjust="spacingAndGlyphs" textLength="63" x="1599" y="454.2676">integrates</text><path d="M1156,589.5552 C1156,623.8652 1156,677.3412 1156,714.0912 " fill="none" style="stroke: #A80036; stroke-width: 1.0; stroke-dasharray: 7.0,7.0;"/><polygon fill="#A80036" points="1156,584.2182,1152,593.2182,1156,589.2182,1160,593.2182,1156,584.2182" style="stroke: #A80036; stroke-width: 1.0;"/><text fill="#000000" font-family="sans-serif" font-size="13" lengthAdjust="spacingAndGlyphs" textLength="50" x="1157" y="672.2676">updates</text><path d="M45.7858,401.7193 C45.9667,402.1206 46.1517,402.5199 46.3409,402.9171 C46.7192,403.7115 47.1143,404.4973 47.5269,405.2725 C48.3521,406.8231 49.2473,408.3317 50.2182,409.7837 C52.1601,412.6878 54.4051,415.3655 57,417.6992 C147.311,498.9192 508.946,535.6292 675.828,548.4932 " fill="none" style="stroke: #A80036; stroke-width: 1.0; stroke-dasharray: 7.0,7.0;"/><polygon fill="#A80036" points="45.7858,401.7193,45.8377,411.568,47.8405,406.2776,53.1309,408.2805,45.7858,401.7193" style="stroke: #A80036; stroke-width: 1.0;"/><text fill="#000000" font-family="sans-serif" font-size="13" lengthAdjust="spacingAndGlyphs" textLength="86" x="185.5" y="439.2676">writes inputs,</text><text fill="#000000" font-family="sans-serif" font-size="13" lengthAdjust="spacingAndGlyphs" textLength="103" x="177" y="454.5781">runs simulation,</text><text fill="#000000" font-family="sans-serif" font-size="13" lengthAdjust="spacingAndGlyphs" textLength="87" x="185" y="469.8887">reads outputs</text><path d="M148.758,354.6992 C170.125,354.6992 191.493,354.6992 212.861,354.6992 " fill="none" style="stroke: #A80036; stroke-width: 1.0;"/><polygon fill="#A80036" points="218,354.6992,209,350.6992,213,354.6992,209,358.6992,218,354.6992" style="stroke: #A80036; stroke-width: 1.0;"/><path d="M362.117,354.6992 C383.659,354.6992 405.2,354.6992 426.741,354.6992 " fill="none" style="stroke: #A80036; stroke-width: 1.0;"/><polygon fill="#A80036" points="431.922,354.6992,422.922,350.6992,426.922,354.6992,422.922,358.6992,431.922,354.6992" style="stroke: #A80036; stroke-width: 1.0;"/><path d="M1629.59,950.3852 C1630.51,984.6872 1632.27,1050.5192 1633.27,1087.7622 " fill="none" style="stroke: #A80036; stroke-width: 1.0; stroke-dasharray: 7.0,7.0;"/><polygon fill="#A80036" points="1633.41,1093.0422,1637.1669,1083.9381,1633.2758,1088.044,1629.1698,1084.1529,1633.41,1093.0422" style="stroke: #A80036; stroke-width: 1.0;"/><text fill="#000000" font-family="sans-serif" font-size="13" lengthAdjust="spacingAndGlyphs" textLength="41" x="1632" y="993.7676">parses</text><text fill="#000000" font-family="sans-serif" font-size="13" lengthAdjust="spacingAndGlyphs" textLength="24" x="1640.5" y="1009.0781">AST</text><path d="M1534.64,587.0612 C1549.49,606.4812 1567.3,632.7122 1578,658.6992 C1612.2,741.7982 1623.73,848.9642 1627.4,898.6492 " fill="none" style="stroke: #A80036; stroke-width: 1.0; stroke-dasharray: 7.0,7.0;"/><polygon fill="#A80036" points="1627.77,903.8472,1631.1194,894.5854,1627.4142,898.8599,1623.1396,895.1547,1627.77,903.8472" style="stroke: #A80036; stroke-width: 1.0;"/><text fill="#000000" font-family="sans-serif" font-size="13" lengthAdjust="spacingAndGlyphs" textLength="74" x="1621" y="745.7676">calls editor,</text><text fill="#000000" font-family="sans-serif" font-size="13" lengthAdjust="spacingAndGlyphs" textLength="86" x="1615" y="761.0781">which returns</text><text fill="#000000" font-family="sans-serif" font-size="13" lengthAdjust="spacingAndGlyphs" textLength="48" x="1634" y="776.3887">.mo file</text><path d="M1308.43,588.8172 C1285.18,636.6732 1250.72,727.7542 1283,797.1992 C1305.56,845.7182 1356.34,882.5452 1393.23,904.1892 " fill="none" style="stroke: #A80036; stroke-width: 1.0; stroke-dasharray: 7.0,7.0;"/><polygon fill="#A80036" points="1310.64,584.3232,1303.0759,590.6307,1308.4314,588.809,1310.2531,594.1645,1310.64,584.3232" style="stroke: #A80036; stroke-width: 1.0;"/><text fill="#000000" font-family="sans-serif" font-size="13" lengthAdjust="spacingAndGlyphs" textLength="106" x="1307.5" y="753.2676">augments library</text><text fill="#000000" font-family="sans-serif" font-size="13" lengthAdjust="spacingAndGlyphs" textLength="153" x="1284" y="768.5781">by generating C++ code</text><path d="M1459.49,950.3852 C1496.41,985.2502 1567.81,1052.6862 1606.86,1089.5702 " fill="none" style="stroke: #A80036; stroke-width: 1.0; stroke-dasharray: 7.0,7.0;"/><polygon fill="#A80036" points="1610.54,1093.0422,1606.7572,1083.9488,1606.9102,1089.6036,1601.2554,1089.7565,1610.54,1093.0422" style="stroke: #A80036; stroke-width: 1.0;"/><text fill="#000000" font-family="sans-serif" font-size="13" lengthAdjust="spacingAndGlyphs" textLength="41" x="1524" y="993.7676">parses</text><text fill="#000000" font-family="sans-serif" font-size="13" lengthAdjust="spacingAndGlyphs" textLength="24" x="1532.5" y="1009.0781">AST</text><path d="M1726.42,586.7342 C1737.22,653.7952 1757.59,818.4602 1724,950.1992 C1710.51,1003.0882 1676.23,1057.3072 1654.08,1088.5372 " fill="none" style="stroke: #A80036; stroke-width: 1.0; stroke-dasharray: 7.0,7.0;"/><polygon fill="#A80036" points="1650.9,1092.9752,1659.3876,1087.9791,1653.8074,1088.9074,1652.8791,1083.3273,1650.9,1092.9752" style="stroke: #A80036; stroke-width: 1.0;"/><text fill="#000000" font-family="sans-serif" font-size="13" lengthAdjust="spacingAndGlyphs" textLength="86" x="1750.5" y="840.7676">writes inputs,</text><text fill="#000000" font-family="sans-serif" font-size="13" lengthAdjust="spacingAndGlyphs" textLength="103" x="1742" y="856.0781">runs simulation,</text><text fill="#000000" font-family="sans-serif" font-size="13" lengthAdjust="spacingAndGlyphs" textLength="87" x="1750" y="871.3887">reads outputs</text><path d="M1508.23,586.7802 C1507.31,623.1622 1505.79,683.6922 1504.84,721.2792 " fill="none" style="stroke: #A80036; stroke-width: 1.0; stroke-dasharray: 7.0,7.0;"/><polygon fill="#A80036" points="1504.71,726.6532,1508.935,717.7566,1504.8357,721.6548,1500.9375,717.5555,1504.71,726.6532" style="stroke: #A80036; stroke-width: 1.0;"/><text fill="#000000" font-family="sans-serif" font-size="13" lengthAdjust="spacingAndGlyphs" textLength="62" x="1507" y="672.2676">reads AST</text><path d="M1490.68,789.9112 C1477.15,823.6202 1456.59,874.8662 1444.92,903.9642 " fill="none" style="stroke: #A80036; stroke-width: 1.0; stroke-dasharray: 7.0,7.0;"/><polygon fill="#A80036" points="1492.62,785.0692,1485.5563,791.9325,1490.7581,789.7096,1492.981,794.9115,1492.62,785.0692" style="stroke: #A80036; stroke-width: 1.0;"/><text fill="#000000" font-family="sans-serif" font-size="13" lengthAdjust="spacingAndGlyphs" textLength="61" x="1475" y="848.2676">generates</text><text fill="#000000" font-family="sans-serif" font-size="13" lengthAdjust="spacingAndGlyphs" textLength="24" x="1493.5" y="863.5781">AST</text><path d="M1634,1139.3832 C1634,1170.2062 1634,1226.2252 1634,1262.0282 " fill="none" style="stroke: #A80036; stroke-width: 1.0;"/><polygon fill="#A80036" points="1634,1267.1582,1638,1258.1582,1634,1262.1582,1630,1258.1582,1634,1267.1582" style="stroke: #A80036; stroke-width: 1.0;"/><text fill="#000000" font-family="sans-serif" font-size="13" lengthAdjust="spacingAndGlyphs" textLength="49" x="1635" y="1233.7676">imports</text><path d="M1350.06,944.7652 C1275.34,961.6702 1166.03,992.5672 1081,1042.1992 C1066.16,1050.8602 1051.79,1062.7232 1039.46,1074.3692 " fill="none" style="stroke: #A80036; stroke-width: 1.0; stroke-dasharray: 7.0,7.0;"/><polygon fill="#A80036" points="1355.38,943.5722,1345.7206,941.6498,1350.5024,944.672,1347.4802,949.4538,1355.38,943.5722" style="stroke: #A80036; stroke-width: 1.0;"/><text fill="#000000" font-family="sans-serif" font-size="13" lengthAdjust="spacingAndGlyphs" textLength="49" x="1221" y="1001.2676">invokes</text><path d="M1634,1330.3062 C1634,1358.3582 1634,1398.6852 1634,1428.6652 " fill="none" style="stroke: #A80036; stroke-width: 1.0; stroke-dasharray: 7.0,7.0;"/><polygon fill="#A80036" points="1634,1325.2172,1630,1334.2172,1634,1330.2172,1638,1334.2172,1634,1325.2172" style="stroke: #A80036; stroke-width: 1.0;"/><text fill="#000000" font-family="sans-serif" font-size="13" lengthAdjust="spacingAndGlyphs" textLength="109" x="1635" y="1370.7676">adds annotations</text><path d="M1802.27,1330.3062 C1800.8,1358.3582 1798.69,1398.6852 1797.12,1428.6652 " fill="none" style="stroke: #A80036; stroke-width: 1.0; stroke-dasharray: 7.0,7.0;"/><polygon fill="#A80036" points="1802.53,1325.2172,1798.0655,1333.9961,1802.2689,1330.2104,1806.0546,1334.4138,1802.53,1325.2172" style="stroke: #A80036; stroke-width: 1.0;"/><text fill="#000000" font-family="sans-serif" font-size="13" lengthAdjust="spacingAndGlyphs" textLength="109" x="1801" y="1370.7676">adds annotations</text><path d="M1318.47,80.8592 C1297.02,111.4792 1258.65,166.2492 1238.02,195.6892 " fill="none" style="stroke: #A80036; stroke-width: 1.0; stroke-dasharray: 7.0,7.0;"/><polygon fill="#A80036" points="1235.11,199.8392,1243.5493,194.762,1237.9783,195.7437,1236.9965,190.1727,1235.11,199.8392" style="stroke: #A80036; stroke-width: 1.0;"/><text fill="#000000" font-family="sans-serif" font-size="13" lengthAdjust="spacingAndGlyphs" textLength="29" x="1293" y="129.2676">uses</text><path d="M1193.37,80.8792 C1197.99,97.3192 1204.23,120.3192 1209,140.6992 C1213.2,158.6592 1217.26,179.2192 1220.09,194.2592 " fill="none" style="stroke: #A80036; stroke-width: 1.0; stroke-dasharray: 7.0,7.0;"/><polygon fill="#A80036" points="1221.08,199.5392,1223.3663,189.9594,1220.1655,194.6236,1215.5013,191.4227,1221.08,199.5392" style="stroke: #A80036; stroke-width: 1.0;"/><text fill="#000000" font-family="sans-serif" font-size="13" lengthAdjust="spacingAndGlyphs" textLength="29" x="1208" y="129.2676">uses</text><path d="M1655.19,1139.3832 C1684.99,1170.5852 1739.45,1227.6072 1773.57,1263.3392 " fill="none" style="stroke: #A80036; stroke-width: 1.0;"/><polygon fill="#A80036" points="1777.22,1267.1582,1773.8934,1257.8882,1773.7654,1263.5436,1768.11,1263.4156,1777.22,1267.1582" style="stroke: #A80036; stroke-width: 1.0;"/><text fill="#000000" font-family="sans-serif" font-size="13" lengthAdjust="spacingAndGlyphs" textLength="49" x="1745" y="1233.7676">imports</text><path d="M1563.73,950.2972 C1504.05,971.3292 1413.94,1005.1902 1339,1042.1992 C1333.84,1044.7482 1328.6,1047.4122 1323.33,1050.1532 " fill="none" style="stroke: #A80036; stroke-width: 1.0; stroke-dasharray: 7.0,7.0;"/><path d="M1870.02,1320.9052 C1887.88,1329.9582 1905.89,1341.8952 1919,1357.1992 C1930.42,1370.5302 1938.46,1387.4492 1944.09,1404.0732 " fill="none" style="stroke: #A80036; stroke-width: 1.0; stroke-dasharray: 7.0,7.0;"/><path d="M628,86.0492 C628,97.1192 628,110.5923 628,124.6155 C628,131.627 628,138.7761 628,145.831 C628,149.3585 628,152.8624 628,156.3138 " fill="none" style="stroke: #A80036; stroke-width: 1.0; stroke-dasharray: 7.0,7.0;"/></g></svg>