<?xml version="1.0" encoding="UTF-8" standalone="no"?><svg xmlns="http://www.w3.org/2000/svg" xmlns:xlink="http://www.w3.org/1999/xlink" contentScriptType="application/ecmascript" contentStyleType="text/css" height="526px" preserveAspectRatio="none" style="width:878px;height:526px;" version="1.1" viewBox="0 0 878 526" width="878px" zoomAndPan="magnify"><defs><filter height="300%" id="fbpwkvp" width="300%" x="-1" y="-1"><feGaussianBlur result="blurOut" stdDeviation="2.0"/><feColorMatrix in="blurOut" result="blurOut2" type="matrix" values="0 0 0 0 0 0 0 0 0 0 0 0 0 0 0 0 0 0 .4 0"/><feOffset dx="4.0" dy="4.0" in="blurOut2" result="blurOut3"/><feBlend in="SourceGraphic" in2="blurOut3" mode="normal"/></filter></defs><g><text fill="#000000" font-family="sans-serif" font-size="18" lengthAdjust="spacingAndGlyphs" textLength="504" x="200.5" y="16.708">Software architecture for QSS integration with JModelica</text><!--cluster Optimica--><polygon fill="#FFFFFF" filter="url(#fbpwkvp)" points="171,44.9531,245,44.9531,252,67.25,369,67.25,369,272.9531,171,272.9531,171,44.9531" style="stroke: #000000; stroke-width: 2.0;"/><line style="stroke: #000000; stroke-width: 2.0;" x1="171" x2="252" y1="67.25" y2="67.25"/><text fill="#000000" font-family="sans-serif" font-size="14" font-weight="bold" lengthAdjust="spacingAndGlyphs" textLength="68" x="175" y="59.9482">Optimica</text><!--cluster PyFMI--><polygon fill="#FFFFFF" filter="url(#fbpwkvp)" points="683,174.9531,734,174.9531,741,197.25,871,197.25,871,403.9531,683,403.9531,683,174.9531" style="stroke: #000000; stroke-width: 2.0;"/><line style="stroke: #000000; stroke-width: 2.0;" x1="683" x2="741" y1="197.25" y2="197.25"/><text fill="#000000" font-family="sans-serif" font-size="14" font-weight="bold" lengthAdjust="spacingAndGlyphs" textLength="45" x="687" y="189.9482">PyFMI</text><!--entity qss_lib--><rect fill="#FEFECE" filter="url(#fbpwkvp)" height="46.2969" style="stroke: #A80036; stroke-width: 1.5;" width="113" x="213.75" y="80.9531"/><rect fill="#FEFECE" height="10" style="stroke: #A80036; stroke-width: 1.5;" width="15" x="306.75" y="85.9531"/><rect fill="#FEFECE" height="2" style="stroke: #A80036; stroke-width: 1.5;" width="4" x="304.75" y="87.9531"/><rect fill="#FEFECE" height="2" style="stroke: #A80036; stroke-width: 1.5;" width="4" x="304.75" y="91.9531"/><text fill="#000000" font-family="sans-serif" font-size="14" lengthAdjust="spacingAndGlyphs" textLength="73" x="228.75" y="113.9482">QSS library</text><!--entity JModelica compiler--><rect fill="#FEFECE" filter="url(#fbpwkvp)" height="46.2969" style="stroke: #A80036; stroke-width: 1.5;" width="167" x="186.75" y="210.9531"/><rect fill="#FEFECE" height="10" style="stroke: #A80036; stroke-width: 1.5;" width="15" x="333.75" y="215.9531"/><rect fill="#FEFECE" height="2" style="stroke: #A80036; stroke-width: 1.5;" width="4" x="331.75" y="217.9531"/><rect fill="#FEFECE" height="2" style="stroke: #A80036; stroke-width: 1.5;" width="4" x="331.75" y="221.9531"/><text fill="#000000" font-family="sans-serif" font-size="14" lengthAdjust="spacingAndGlyphs" textLength="127" x="201.75" y="243.9482">JModelica compiler</text><!--entity Master algorithm--><rect fill="#FEFECE" filter="url(#fbpwkvp)" height="46.2969" style="stroke: #A80036; stroke-width: 1.5;" width="155" x="699.75" y="210.9531"/><rect fill="#FEFECE" height="10" style="stroke: #A80036; stroke-width: 1.5;" width="15" x="834.75" y="215.9531"/><rect fill="#FEFECE" height="2" style="stroke: #A80036; stroke-width: 1.5;" width="4" x="832.75" y="217.9531"/><rect fill="#FEFECE" height="2" style="stroke: #A80036; stroke-width: 1.5;" width="4" x="832.75" y="221.9531"/><text fill="#000000" font-family="sans-serif" font-size="14" lengthAdjust="spacingAndGlyphs" textLength="115" x="714.75" y="243.9482">Master algorithm</text><!--entity Sundials--><rect fill="#FEFECE" filter="url(#fbpwkvp)" height="46.2969" style="stroke: #A80036; stroke-width: 1.5;" width="98" x="757.5" y="341.9531"/><rect fill="#FEFECE" height="10" style="stroke: #A80036; stroke-width: 1.5;" width="15" x="835.5" y="346.9531"/><rect fill="#FEFECE" height="2" style="stroke: #A80036; stroke-width: 1.5;" width="4" x="833.5" y="348.9531"/><rect fill="#FEFECE" height="2" style="stroke: #A80036; stroke-width: 1.5;" width="4" x="833.5" y="352.9531"/><text fill="#000000" font-family="sans-serif" font-size="14" lengthAdjust="spacingAndGlyphs" textLength="58" x="772.5" y="374.9482">Sundials</text><!--entity FMU_QSS--><rect fill="#FEFECE" filter="url(#fbpwkvp)" height="46.2969" style="stroke: #A80036; stroke-width: 1.5;" width="96" x="280" y="341.9531"/><rect fill="#FEFECE" height="10" style="stroke: #A80036; stroke-width: 1.5;" width="15" x="356" y="346.9531"/><rect fill="#FEFECE" height="2" style="stroke: #A80036; stroke-width: 1.5;" width="4" x="354" y="348.9531"/><rect fill="#FEFECE" height="2" style="stroke: #A80036; stroke-width: 1.5;" width="4" x="354" y="352.9531"/><text fill="#000000" font-family="sans-serif" font-size="14" lengthAdjust="spacingAndGlyphs" textLength="56" x="295" y="374.9482">FMU-ME</text><!--entity Modelica model--><rect fill="#FEFECE" filter="url(#fbpwkvp)" height="46.2969" style="stroke: #A80036; stroke-width: 1.5;" width="148" x="385" y="80.9531"/><rect fill="#FEFECE" height="10" style="stroke: #A80036; stroke-width: 1.5;" width="15" x="513" y="85.9531"/><rect fill="#FEFECE" height="2" style="stroke: #A80036; stroke-width: 1.5;" width="4" x="511" y="87.9531"/><rect fill="#FEFECE" height="2" style="stroke: #A80036; stroke-width: 1.5;" width="4" x="511" y="91.9531"/><text fill="#000000" font-family="sans-serif" font-size="14" lengthAdjust="spacingAndGlyphs" textLength="108" x="400" y="113.9482">Modelica model</text><!--entity FMU-ME--><rect fill="#FEFECE" filter="url(#fbpwkvp)" height="46.2969" style="stroke: #A80036; stroke-width: 1.5;" width="96" x="758" y="470.9531"/><rect fill="#FEFECE" height="10" style="stroke: #A80036; stroke-width: 1.5;" width="15" x="834" y="475.9531"/><rect fill="#FEFECE" height="2" style="stroke: #A80036; stroke-width: 1.5;" width="4" x="832" y="477.9531"/><rect fill="#FEFECE" height="2" style="stroke: #A80036; stroke-width: 1.5;" width="4" x="832" y="481.9531"/><text fill="#000000" font-family="sans-serif" font-size="14" lengthAdjust="spacingAndGlyphs" textLength="56" x="773" y="503.9482">FMU-ME</text><!--entity FMU-CS--><rect fill="#FEFECE" filter="url(#fbpwkvp)" height="46.2969" style="stroke: #A80036; stroke-width: 1.5;" width="94" x="573" y="341.9531"/><rect fill="#FEFECE" height="10" style="stroke: #A80036; stroke-width: 1.5;" width="15" x="647" y="346.9531"/><rect fill="#FEFECE" height="2" style="stroke: #A80036; stroke-width: 1.5;" width="4" x="645" y="348.9531"/><rect fill="#FEFECE" height="2" style="stroke: #A80036; stroke-width: 1.5;" width="4" x="645" y="352.9531"/><text fill="#000000" font-family="sans-serif" font-size="14" lengthAdjust="spacingAndGlyphs" textLength="54" x="588" y="374.9482">FMU-CS</text><polygon fill="#FBFB77" filter="url(#fbpwkvp)" points="6.5,337.4531,6.5,392.8516,210.5,392.8516,210.5,347.4531,200.5,337.4531,6.5,337.4531" style="stroke: #A80036; stroke-width: 1.0;"/><polygon fill="#FBFB77" points="6.5,337.4531,6.5,392.8516,210.5,392.8516,210.5,368.9531,279.996,364.9531,210.5,360.9531,210.5,347.4531,200.5,337.4531,6.5,337.4531" style="stroke: #A80036; stroke-width: 1.0;"/><line style="stroke: #A80036; stroke-width: 1.0;" x1="200.5" x2="200.5" y1="337.4531" y2="347.4531"/><line style="stroke: #A80036; stroke-width: 1.0;" x1="210.5" x2="200.5" y1="347.4531" y2="347.4531"/><text fill="#000000" font-family="sans-serif" font-size="13" lengthAdjust="spacingAndGlyphs" textLength="146" x="12.5" y="354.52">FMU-ME 2.0 API, sends</text><text fill="#000000" font-family="sans-serif" font-size="13" lengthAdjust="spacingAndGlyphs" textLength="130" x="12.5" y="369.6528">next event time, but</text><text fill="#000000" font-family="sans-serif" font-size="13" lengthAdjust="spacingAndGlyphs" textLength="183" x="12.5" y="384.7856">exposes no state derivatives</text><path d="M270,126.9571 C270,148.7541 270,182.1851 270,205.6611 " fill="none" style="stroke: #A80036; stroke-width: 1.0;"/><polygon fill="#A80036" points="270,210.8081,274,201.8081,270,205.8081,266,201.8081,270,210.8081" style="stroke: #A80036; stroke-width: 1.0;"/><path d="M426.51,126.9571 C393.244,149.4861 341.623,184.4461 306.853,207.9941 " fill="none" style="stroke: #A80036; stroke-width: 1.0;"/><polygon fill="#A80036" points="302.699,210.8081,312.3937,209.0725,306.8387,208.004,307.9072,202.449,302.699,210.8081" style="stroke: #A80036; stroke-width: 1.0;"/><path d="M275.169,257.2531 C278.93,271.7681 284.645,290.9141 292,306.9531 C296.78,317.3791 303.176,328.1741 309.25,337.5301 " fill="none" style="stroke: #A80036; stroke-width: 1.0;"/><polygon fill="#A80036" points="312.011,341.7201,310.3992,332.004,309.26,337.545,303.719,336.4057,312.011,341.7201" style="stroke: #A80036; stroke-width: 1.0;"/><path d="M699.564,244.3441 C641.294,252.6591 559.958,266.9461 491,288.9531 C449.846,302.0871 405.446,323.0011 373.394,339.4111 " fill="none" style="stroke: #A80036; stroke-width: 1.0;"/><polygon fill="#A80036" points="368.756,341.7981,378.5887,341.234,373.2012,339.5091,374.9262,334.1216,368.756,341.7981" style="stroke: #A80036; stroke-width: 1.0;"/><text fill="#000000" font-family="sans-serif" font-size="13" lengthAdjust="spacingAndGlyphs" textLength="124" x="492" y="302.02">states, inputs, time</text><path d="M694.528,243.6471 C567.833,257.1871 339.167,282.4401 333,288.9531 C319.989,302.6921 320.113,324.9291 322.667,341.6291 " fill="none" style="stroke: #A80036; stroke-width: 1.0;"/><polygon fill="#A80036" points="699.737,243.0901,690.3629,240.0691,694.7653,243.6214,691.213,248.0238,699.737,243.0901" style="stroke: #A80036; stroke-width: 1.0;"/><text fill="#000000" font-family="sans-serif" font-size="13" lengthAdjust="spacingAndGlyphs" textLength="101" x="334" y="302.02">next event time</text><path d="M800.889,257.1871 C808.886,266.1841 816.824,277.2181 821,288.9531 C827.143,306.2171 822.304,326.6631 816.538,341.8431 " fill="none" style="stroke: #A80036; stroke-width: 1.0;"/><path d="M783.633,388.1071 C771.758,402.6221 760.781,422.2964 767,440.9531 C770.041,450.0763 775.379,458.8878 781.148,466.5842 " fill="none" style="stroke: #A80036; stroke-width: 1.0;"/><polygon fill="#A80036" points="784.385,470.7401,782.0095,461.182,781.3122,466.7958,775.6985,466.0985,784.385,470.7401" style="stroke: #A80036; stroke-width: 1.0;"/><text fill="#000000" font-family="sans-serif" font-size="13" lengthAdjust="spacingAndGlyphs" textLength="30" x="768" y="436.02">(x, t)</text><path d="M806,393.1461 C806,416.2671 806,449.06 806,470.6588 " fill="none" style="stroke: #A80036; stroke-width: 1.0;"/><polygon fill="#A80036" points="806,388.0751,802,397.0751,806,393.0751,810,397.0751,806,388.0751" style="stroke: #A80036; stroke-width: 1.0;"/><text fill="#000000" font-family="sans-serif" font-size="13" lengthAdjust="spacingAndGlyphs" textLength="32" x="807" y="436.02">dx/dt</text><path d="M699.415,249.5831 C676.026,257.5851 652.272,269.9301 636,288.9531 C624.803,302.0421 620.837,321.0571 619.653,336.6641 " fill="none" style="stroke: #A80036; stroke-width: 1.0;"/><polygon fill="#A80036" points="619.352,341.8131,623.8698,333.0616,619.6434,336.8216,615.8834,332.5953,619.352,341.8131" style="stroke: #A80036; stroke-width: 1.0;"/><text fill="#000000" font-family="sans-serif" font-size="13" lengthAdjust="spacingAndGlyphs" textLength="76" x="637" y="302.02">hRequested</text><path d="M759.203,261.6381 C748.653,276.1691 734.366,293.8111 719,306.9531 C703.325,320.3591 684.047,332.2801 666.681,341.7101 " fill="none" style="stroke: #A80036; stroke-width: 1.0;"/><polygon fill="#A80036" points="762.354,257.2371,753.8611,262.2242,759.4423,261.3018,760.3647,266.883,762.354,257.2371" style="stroke: #A80036; stroke-width: 1.0;"/><text fill="#000000" font-family="sans-serif" font-size="13" lengthAdjust="spacingAndGlyphs" textLength="59" x="739" y="302.02">(x, hMax)</text></g></svg>