<?xml version="1.0" encoding="UTF-8" standalone="no"?><svg xmlns="http://www.w3.org/2000/svg" xmlns:xlink="http://www.w3.org/1999/xlink" contentScriptType="application/ecmascript" contentStyleType="text/css" height="421px" preserveAspectRatio="none" style="width:875px;height:421px;" version="1.1" viewBox="0 0 875 421" width="875px" zoomAndPan="magnify"><defs><filter height="300%" id="fqbbz4v" width="300%" x="-1" y="-1"><feGaussianBlur result="blurOut" stdDeviation="2.0"/><feColorMatrix in="blurOut" result="blurOut2" type="matrix" values="0 0 0 0 0 0 0 0 0 0 0 0 0 0 0 0 0 0 .4 0"/><feOffset dx="4.0" dy="4.0" in="blurOut2" result="blurOut3"/><feBlend in="SourceGraphic" in2="blurOut3" mode="normal"/></filter></defs><g><text fill="#000000" font-family="sans-serif" font-size="18" lengthAdjust="spacingAndGlyphs" textLength="712" x="95" y="16.708">Software architecture for QSS integration with JModelica with extended FMI API</text><!--cluster FMU-ME--><polygon fill="#FFFFFF" filter="url(#fqbbz4v)" points="234,190.9531,301,190.9531,308,213.25,540,213.25,540,414.9531,234,414.9531,234,190.9531" style="stroke: #000000; stroke-width: 2.0;"/><line style="stroke: #000000; stroke-width: 2.0;" x1="234" x2="308" y1="213.25" y2="213.25"/><text fill="#000000" font-family="sans-serif" font-size="14" font-weight="bold" lengthAdjust="spacingAndGlyphs" textLength="61" x="238" y="205.9482">FMU-ME</text><!--cluster PyFMI--><polygon fill="#FFFFFF" filter="url(#fqbbz4v)" points="22,44.9531,73,44.9531,80,67.25,210,67.25,210,288.9531,22,288.9531,22,44.9531" style="stroke: #000000; stroke-width: 2.0;"/><line style="stroke: #000000; stroke-width: 2.0;" x1="22" x2="80" y1="67.25" y2="67.25"/><text fill="#000000" font-family="sans-serif" font-size="14" font-weight="bold" lengthAdjust="spacingAndGlyphs" textLength="45" x="26" y="59.9482">PyFMI</text><!--cluster Optimica--><polygon fill="#FFFFFF" filter="url(#fqbbz4v)" points="670,190.9531,744,190.9531,751,213.25,868,213.25,868,288.9531,670,288.9531,670,190.9531" style="stroke: #000000; stroke-width: 2.0;"/><line style="stroke: #000000; stroke-width: 2.0;" x1="670" x2="751" y1="213.25" y2="213.25"/><text fill="#000000" font-family="sans-serif" font-size="14" font-weight="bold" lengthAdjust="spacingAndGlyphs" textLength="68" x="674" y="205.9482">Optimica</text><!--entity qss_sol--><rect fill="#FEFECE" filter="url(#fqbbz4v)" height="46.2969" style="stroke: #A80036; stroke-width: 1.5;" width="114" x="250" y="226.9531"/><rect fill="#FEFECE" height="10" style="stroke: #A80036; stroke-width: 1.5;" width="15" x="344" y="231.9531"/><rect fill="#FEFECE" height="2" style="stroke: #A80036; stroke-width: 1.5;" width="4" x="342" y="233.9531"/><rect fill="#FEFECE" height="2" style="stroke: #A80036; stroke-width: 1.5;" width="4" x="342" y="237.9531"/><text fill="#000000" font-family="sans-serif" font-size="14" lengthAdjust="spacingAndGlyphs" textLength="74" x="265" y="259.9482">QSS solver</text><!--entity FMU_QSS--><rect fill="#FEFECE" filter="url(#fqbbz4v)" height="46.2969" style="stroke: #A80036; stroke-width: 1.5;" width="96" x="404" y="352.9531"/><rect fill="#FEFECE" height="10" style="stroke: #A80036; stroke-width: 1.5;" width="15" x="480" y="357.9531"/><rect fill="#FEFECE" height="2" style="stroke: #A80036; stroke-width: 1.5;" width="4" x="478" y="359.9531"/><rect fill="#FEFECE" height="2" style="stroke: #A80036; stroke-width: 1.5;" width="4" x="478" y="363.9531"/><text fill="#000000" font-family="sans-serif" font-size="14" lengthAdjust="spacingAndGlyphs" textLength="56" x="419" y="385.9482">FMU-ME</text><!--entity Master algorithm--><rect fill="#FEFECE" filter="url(#fqbbz4v)" height="46.2969" style="stroke: #A80036; stroke-width: 1.5;" width="155" x="38.75" y="80.9531"/><rect fill="#FEFECE" height="10" style="stroke: #A80036; stroke-width: 1.5;" width="15" x="173.75" y="85.9531"/><rect fill="#FEFECE" height="2" style="stroke: #A80036; stroke-width: 1.5;" width="4" x="171.75" y="87.9531"/><rect fill="#FEFECE" height="2" style="stroke: #A80036; stroke-width: 1.5;" width="4" x="171.75" y="91.9531"/><text fill="#000000" font-family="sans-serif" font-size="14" lengthAdjust="spacingAndGlyphs" textLength="115" x="53.75" y="113.9482">Master algorithm</text><!--entity Sundials--><rect fill="#FEFECE" filter="url(#fqbbz4v)" height="46.2969" style="stroke: #A80036; stroke-width: 1.5;" width="98" x="67.5" y="226.9531"/><rect fill="#FEFECE" height="10" style="stroke: #A80036; stroke-width: 1.5;" width="15" x="145.5" y="231.9531"/><rect fill="#FEFECE" height="2" style="stroke: #A80036; stroke-width: 1.5;" width="4" x="143.5" y="233.9531"/><rect fill="#FEFECE" height="2" style="stroke: #A80036; stroke-width: 1.5;" width="4" x="143.5" y="237.9531"/><text fill="#000000" font-family="sans-serif" font-size="14" lengthAdjust="spacingAndGlyphs" textLength="58" x="82.5" y="259.9482">Sundials</text><!--entity jmc--><rect fill="#FEFECE" filter="url(#fqbbz4v)" height="46.2969" style="stroke: #A80036; stroke-width: 1.5;" width="167" x="685.75" y="226.9531"/><rect fill="#FEFECE" height="10" style="stroke: #A80036; stroke-width: 1.5;" width="15" x="832.75" y="231.9531"/><rect fill="#FEFECE" height="2" style="stroke: #A80036; stroke-width: 1.5;" width="4" x="830.75" y="233.9531"/><rect fill="#FEFECE" height="2" style="stroke: #A80036; stroke-width: 1.5;" width="4" x="830.75" y="237.9531"/><text fill="#000000" font-family="sans-serif" font-size="14" lengthAdjust="spacingAndGlyphs" textLength="127" x="700.75" y="259.9482">JModelica compiler</text><!--entity FMU-ME--><rect fill="#FEFECE" filter="url(#fqbbz4v)" height="46.2969" style="stroke: #A80036; stroke-width: 1.5;" width="96" x="65" y="352.9531"/><rect fill="#FEFECE" height="10" style="stroke: #A80036; stroke-width: 1.5;" width="15" x="141" y="357.9531"/><rect fill="#FEFECE" height="2" style="stroke: #A80036; stroke-width: 1.5;" width="4" x="139" y="359.9531"/><rect fill="#FEFECE" height="2" style="stroke: #A80036; stroke-width: 1.5;" width="4" x="139" y="363.9531"/><text fill="#000000" font-family="sans-serif" font-size="14" lengthAdjust="spacingAndGlyphs" textLength="56" x="80" y="385.9482">FMU-ME</text><!--entity FMU-CS--><rect fill="#FEFECE" filter="url(#fqbbz4v)" height="46.2969" style="stroke: #A80036; stroke-width: 1.5;" width="94" x="556" y="226.9531"/><rect fill="#FEFECE" height="10" style="stroke: #A80036; stroke-width: 1.5;" width="15" x="630" y="231.9531"/><rect fill="#FEFECE" height="2" style="stroke: #A80036; stroke-width: 1.5;" width="4" x="628" y="233.9531"/><rect fill="#FEFECE" height="2" style="stroke: #A80036; stroke-width: 1.5;" width="4" x="628" y="237.9531"/><text fill="#000000" font-family="sans-serif" font-size="14" lengthAdjust="spacingAndGlyphs" textLength="54" x="571" y="259.9482">FMU-CS</text><path d="M126.084,127.1431 C134.477,143.0131 147.965,163.5151 166,174.9531 C182.785,185.5981 191.606,175.4211 210,182.9531 C234.359,192.9281 258.842,209.6501 277.118,223.7661 " fill="none" style="stroke: #A80036; stroke-width: 1.0;"/><polygon fill="#A80036" points="281.155,226.9201,276.526,218.2269,277.2151,223.8416,271.6004,224.5308,281.155,226.9201" style="stroke: #A80036; stroke-width: 1.0;"/><text fill="#000000" font-family="sans-serif" font-size="13" lengthAdjust="spacingAndGlyphs" textLength="76" x="167" y="170.02">inputs, time</text><path d="M198.39,127.7671 C216.276,135.1861 234.237,144.7561 249,156.9531 C271.853,175.8341 288.49,206.1591 297.94,226.7891 " fill="none" style="stroke: #A80036; stroke-width: 1.0;"/><polygon fill="#A80036" points="193.349,125.7311,200.1961,132.8105,197.9852,127.6036,203.192,125.3926,193.349,125.7311" style="stroke: #A80036; stroke-width: 1.0;"/><text fill="#000000" font-family="sans-serif" font-size="13" lengthAdjust="spacingAndGlyphs" textLength="149" x="267" y="170.02">next event time, states</text><path d="M116,127.1371 C116,154.1191 116,199.4071 116,226.5061 " fill="none" style="stroke: #A80036; stroke-width: 1.0;"/><path d="M93.4026,273.1011 C85.6919,282.1671 78.0086,293.2701 74,304.9531 C68.7674,320.2041 76.2662,335.993 86.0412,348.7074 " fill="none" style="stroke: #A80036; stroke-width: 1.0;"/><polygon fill="#A80036" points="89.4284,352.8961,86.8795,343.3828,86.2844,349.0083,80.6589,348.4132,89.4284,352.8961" style="stroke: #A80036; stroke-width: 1.0;"/><text fill="#000000" font-family="sans-serif" font-size="13" lengthAdjust="spacingAndGlyphs" textLength="30" x="75" y="318.02">(x, t)</text><path d="M115.338,278.3061 C114.799,300.6071 114.046,331.7173 113.542,352.5582 " fill="none" style="stroke: #A80036; stroke-width: 1.0;"/><polygon fill="#A80036" points="115.464,273.1221,111.2466,282.0223,115.3426,278.1207,119.2443,282.2166,115.464,273.1221" style="stroke: #A80036; stroke-width: 1.0;"/><text fill="#000000" font-family="sans-serif" font-size="13" lengthAdjust="spacingAndGlyphs" textLength="32" x="116" y="318.02">dx/dt</text><path d="M193.441,114.5361 C256.57,123.1601 347.759,137.4761 426,156.9531 C450.549,163.0641 455.352,169.2561 480,174.9531 C506.212,181.0121 516.022,170.7551 540,182.9531 C557.913,192.0661 573.545,208.3571 584.757,222.4731 " fill="none" style="stroke: #A80036; stroke-width: 1.0;"/><polygon fill="#A80036" points="588.092,226.7741,585.7376,217.2108,585.0279,222.823,579.4158,222.1133,588.092,226.7741" style="stroke: #A80036; stroke-width: 1.0;"/><text fill="#000000" font-family="sans-serif" font-size="13" lengthAdjust="spacingAndGlyphs" textLength="76" x="481" y="170.02">hRequested</text><path d="M198.854,104.9451 C311.95,106.5271 507.023,115.4291 563,156.9531 C585.381,173.5551 595.411,205.3421 599.786,226.8481 " fill="none" style="stroke: #A80036; stroke-width: 1.0;"/><polygon fill="#A80036" points="193.532,104.8751,202.4786,108.9931,198.5316,104.9409,202.5838,100.9938,193.532,104.8751" style="stroke: #A80036; stroke-width: 1.0;"/><text fill="#000000" font-family="sans-serif" font-size="13" lengthAdjust="spacingAndGlyphs" textLength="59" x="580" y="170.02">(x, hMax)</text><path d="M722.578,273.0461 C705.544,280.9001 686.022,289.6091 668,296.9531 C613.072,319.3361 549.04,342.0454 505.035,357.1429 " fill="none" style="stroke: #A80036; stroke-width: 1.0;"/><polygon fill="#A80036" points="500.038,358.8541,509.8485,359.7224,504.7683,357.2341,507.2565,352.1539,500.038,358.8541" style="stroke: #A80036; stroke-width: 1.0;"/><path d="M443.733,352.8614 C437.226,337.8543 426.925,318.3701 413,304.9531 C400.398,292.8101 384.525,282.7901 368.927,274.8171 " fill="none" style="stroke: #A80036; stroke-width: 1.0;"/><polygon fill="#A80036" points="364.1,272.4081,370.3668,280.006,368.5738,274.6408,373.939,272.8478,364.1,272.4081" style="stroke: #A80036; stroke-width: 1.0;"/><text fill="#000000" font-family="sans-serif" font-size="13" lengthAdjust="spacingAndGlyphs" textLength="69" x="428" y="318.02">derivatives</text><path d="M287.115,273.2371 C276.186,288.2821 266.891,308.0391 278,322.9531 C292.583,342.5311 353.193,357.4509 398.809,366.1842 " fill="none" style="stroke: #A80036; stroke-width: 1.0;"/><polygon fill="#A80036" points="403.733,367.1141,395.6308,361.5146,398.8197,366.187,394.1474,369.3758,403.733,367.1141" style="stroke: #A80036; stroke-width: 1.0;"/><text fill="#000000" font-family="sans-serif" font-size="13" lengthAdjust="spacingAndGlyphs" textLength="124" x="279" y="318.02">inputs, time, states</text></g></svg>