<?xml version="1.0" encoding="UTF-8" standalone="no"?><svg xmlns="http://www.w3.org/2000/svg" xmlns:xlink="http://www.w3.org/1999/xlink" contentScriptType="application/ecmascript" contentStyleType="text/css" height="419px" preserveAspectRatio="none" style="width:959px;height:419px;" version="1.1" viewBox="0 0 959 419" width="959px" zoomAndPan="magnify"><defs><filter height="300%" id="fxuj2ii" width="300%" x="-1" y="-1"><feGaussianBlur result="blurOut" stdDeviation="2.0"/><feColorMatrix in="blurOut" result="blurOut2" type="matrix" values="0 0 0 0 0 0 0 0 0 0 0 0 0 0 0 0 0 0 .4 0"/><feOffset dx="4.0" dy="4.0" in="blurOut2" result="blurOut3"/><feBlend in="SourceGraphic" in2="blurOut3" mode="normal"/></filter></defs><g><text fill="#000000" font-family="sans-serif" font-size="18" lengthAdjust="spacingAndGlyphs" textLength="712" x="137" y="16.708">Software architecture for QSS integration with JModelica with extended FMI API</text><!--cluster FMU-QSS--><polygon fill="#FFFFFF" filter="url(#fxuj2ii)" points="23.1819,190.9531,100.1819,190.9531,107.1819,213.25,327.182,213.25,327.182,412.9531,23.1819,412.9531,23.1819,190.9531" style="stroke: #000000; stroke-width: 2.0;"/><line style="stroke: #000000; stroke-width: 2.0;" x1="23.1819" x2="107.1819" y1="213.25" y2="213.25"/><text fill="#000000" font-family="sans-serif" font-size="14" font-weight="bold" lengthAdjust="spacingAndGlyphs" textLength="71" x="27.1819" y="205.9482">FMU-QSS</text><!--cluster PyFMI--><polygon fill="#FFFFFF" filter="url(#fxuj2ii)" points="311.182,44.9531,362.182,44.9531,369.182,67.25,666.182,67.25,666.182,141.9531,311.182,141.9531,311.182,44.9531" style="stroke: #000000; stroke-width: 2.0;"/><line style="stroke: #000000; stroke-width: 2.0;" x1="311.182" x2="369.182" y1="67.25" y2="67.25"/><text fill="#000000" font-family="sans-serif" font-size="14" font-weight="bold" lengthAdjust="spacingAndGlyphs" textLength="45" x="315.182" y="59.9482">PyFMI</text><!--cluster Optimica--><polygon fill="#FFFFFF" filter="url(#fxuj2ii)" points="754.182,190.9531,828.182,190.9531,835.182,213.25,952.182,213.25,952.182,287.9531,754.182,287.9531,754.182,190.9531" style="stroke: #000000; stroke-width: 2.0;"/><line style="stroke: #000000; stroke-width: 2.0;" x1="754.182" x2="835.182" y1="213.25" y2="213.25"/><text fill="#000000" font-family="sans-serif" font-size="14" font-weight="bold" lengthAdjust="spacingAndGlyphs" textLength="68" x="758.182" y="205.9482">Optimica</text><!--entity qss_sol--><rect fill="#FEFECE" filter="url(#fxuj2ii)" height="46.2969" style="stroke: #A80036; stroke-width: 1.5;" width="114" x="58.1819" y="225.9531"/><rect fill="#FEFECE" height="10" style="stroke: #A80036; stroke-width: 1.5;" width="15" x="152.1819" y="230.9531"/><rect fill="#FEFECE" height="2" style="stroke: #A80036; stroke-width: 1.5;" width="4" x="150.1819" y="232.9531"/><rect fill="#FEFECE" height="2" style="stroke: #A80036; stroke-width: 1.5;" width="4" x="150.1819" y="236.9531"/><text fill="#000000" font-family="sans-serif" font-size="14" lengthAdjust="spacingAndGlyphs" textLength="74" x="73.1819" y="258.9482">QSS solver</text><!--entity FMU_QSS--><rect fill="#FEFECE" filter="url(#fxuj2ii)" height="46.2969" style="stroke: #A80036; stroke-width: 1.5;" width="96" x="192.182" y="350.9531"/><rect fill="#FEFECE" height="10" style="stroke: #A80036; stroke-width: 1.5;" width="15" x="268.182" y="355.9531"/><rect fill="#FEFECE" height="2" style="stroke: #A80036; stroke-width: 1.5;" width="4" x="266.182" y="357.9531"/><rect fill="#FEFECE" height="2" style="stroke: #A80036; stroke-width: 1.5;" width="4" x="266.182" y="361.9531"/><text fill="#000000" font-family="sans-serif" font-size="14" lengthAdjust="spacingAndGlyphs" textLength="56" x="207.182" y="383.9482">FMU-ME</text><!--entity Master algorithm--><rect fill="#FEFECE" filter="url(#fxuj2ii)" height="46.2969" style="stroke: #A80036; stroke-width: 1.5;" width="155" x="327.682" y="79.9531"/><rect fill="#FEFECE" height="10" style="stroke: #A80036; stroke-width: 1.5;" width="15" x="462.682" y="84.9531"/><rect fill="#FEFECE" height="2" style="stroke: #A80036; stroke-width: 1.5;" width="4" x="460.682" y="86.9531"/><rect fill="#FEFECE" height="2" style="stroke: #A80036; stroke-width: 1.5;" width="4" x="460.682" y="90.9531"/><text fill="#000000" font-family="sans-serif" font-size="14" lengthAdjust="spacingAndGlyphs" textLength="115" x="342.682" y="112.9482">Master algorithm</text><!--entity Sundials--><rect fill="#FEFECE" filter="url(#fxuj2ii)" height="46.2969" style="stroke: #A80036; stroke-width: 1.5;" width="98" x="552.182" y="79.9531"/><rect fill="#FEFECE" height="10" style="stroke: #A80036; stroke-width: 1.5;" width="15" x="630.182" y="84.9531"/><rect fill="#FEFECE" height="2" style="stroke: #A80036; stroke-width: 1.5;" width="4" x="628.182" y="86.9531"/><rect fill="#FEFECE" height="2" style="stroke: #A80036; stroke-width: 1.5;" width="4" x="628.182" y="90.9531"/><text fill="#000000" font-family="sans-serif" font-size="14" lengthAdjust="spacingAndGlyphs" textLength="58" x="567.182" y="112.9482">Sundials</text><!--entity jmc--><rect fill="#FEFECE" filter="url(#fxuj2ii)" height="46.2969" style="stroke: #A80036; stroke-width: 1.5;" width="167" x="769.682" y="225.9531"/><rect fill="#FEFECE" height="10" style="stroke: #A80036; stroke-width: 1.5;" width="15" x="916.682" y="230.9531"/><rect fill="#FEFECE" height="2" style="stroke: #A80036; stroke-width: 1.5;" width="4" x="914.682" y="232.9531"/><rect fill="#FEFECE" height="2" style="stroke: #A80036; stroke-width: 1.5;" width="4" x="914.682" y="236.9531"/><text fill="#000000" font-family="sans-serif" font-size="14" lengthAdjust="spacingAndGlyphs" textLength="127" x="784.682" y="258.9482">JModelica compiler</text><!--entity ode--><rect fill="#FEFECE" filter="url(#fxuj2ii)" height="46.2969" style="stroke: #A80036; stroke-width: 1.5;" width="96" x="638.182" y="225.9531"/><rect fill="#FEFECE" height="10" style="stroke: #A80036; stroke-width: 1.5;" width="15" x="714.182" y="230.9531"/><rect fill="#FEFECE" height="2" style="stroke: #A80036; stroke-width: 1.5;" width="4" x="712.182" y="232.9531"/><rect fill="#FEFECE" height="2" style="stroke: #A80036; stroke-width: 1.5;" width="4" x="712.182" y="236.9531"/><text fill="#000000" font-family="sans-serif" font-size="14" lengthAdjust="spacingAndGlyphs" textLength="56" x="653.182" y="258.9482">FMU-ME</text><!--entity ep_env--><rect fill="#FEFECE" filter="url(#fxuj2ii)" height="46.2969" style="stroke: #A80036; stroke-width: 1.5;" width="174" x="343.182" y="225.9531"/><rect fill="#FEFECE" height="10" style="stroke: #A80036; stroke-width: 1.5;" width="15" x="497.182" y="230.9531"/><rect fill="#FEFECE" height="2" style="stroke: #A80036; stroke-width: 1.5;" width="4" x="495.182" y="232.9531"/><rect fill="#FEFECE" height="2" style="stroke: #A80036; stroke-width: 1.5;" width="4" x="495.182" y="236.9531"/><text fill="#000000" font-family="sans-serif" font-size="14" lengthAdjust="spacingAndGlyphs" textLength="134" x="358.182" y="258.9482">FMU-ME (envelope)</text><path d="M327.644,103.1131 C225.231,103.8531 53.1316,112.1231 13.1819,157.9531 C-8.1295,182.4011 22.7792,206.5201 56.0131,223.6261 " fill="none" style="stroke: #A80036; stroke-width: 1.0;"/><polygon fill="#A80036" points="60.499,225.8871,54.2631,218.2639,56.0343,223.6363,50.6618,225.4075,60.499,225.8871" style="stroke: #A80036; stroke-width: 1.0;"/><text fill="#000000" font-family="sans-serif" font-size="13" lengthAdjust="spacingAndGlyphs" textLength="76" x="14.1819" y="171.02">inputs, time</text><path d="M322.536,105.9151 C272.683,110.8781 210.305,124.1811 165.182,157.9531 C142.572,174.8751 128.825,205.1921 121.614,225.9231 " fill="none" style="stroke: #A80036; stroke-width: 1.0;"/><polygon fill="#A80036" points="327.627,105.4331,318.29,102.2994,322.6493,105.9045,319.0442,110.2637,327.627,105.4331" style="stroke: #A80036; stroke-width: 1.0;"/><text fill="#000000" font-family="sans-serif" font-size="13" lengthAdjust="spacingAndGlyphs" textLength="204" x="166.182" y="171.02">next event time, discrete states</text><path d="M482.893,102.9531 C505.842,102.9531 528.792,102.9531 551.741,102.9531 " fill="none" style="stroke: #A80036; stroke-width: 1.0;"/><path d="M619.021,126.2001 C626.289,135.7171 634.529,147.1161 641.182,157.9531 C653.714,178.3651 665.73,202.7291 674.188,220.9561 " fill="none" style="stroke: #A80036; stroke-width: 1.0;"/><polygon fill="#A80036" points="676.477,225.9261,676.3456,216.0781,674.3855,221.3846,669.0791,219.4245,676.477,225.9261" style="stroke: #A80036; stroke-width: 1.0;"/><text fill="#000000" font-family="sans-serif" font-size="13" lengthAdjust="spacingAndGlyphs" textLength="30" x="652.182" y="171.02">(x, t)</text><path d="M654.718,124.2081 C669.118,132.4011 682.964,143.4391 691.182,157.9531 C702.902,178.6521 698.941,206.5001 693.79,225.7091 " fill="none" style="stroke: #A80036; stroke-width: 1.0;"/><polygon fill="#A80036" points="650.237,121.7561,656.213,129.5847,654.6235,124.1558,660.0525,122.5663,650.237,121.7561" style="stroke: #A80036; stroke-width: 1.0;"/><text fill="#000000" font-family="sans-serif" font-size="13" lengthAdjust="spacingAndGlyphs" textLength="32" x="697.182" y="171.02">dx/dt</text><path d="M389.676,126.1911 C381.886,140.1131 375.08,158.4751 380.182,174.9531 C385.494,192.1081 396.381,208.8181 406.644,221.9131 " fill="none" style="stroke: #A80036; stroke-width: 1.0;"/><polygon fill="#A80036" points="409.802,225.8571,407.2981,216.3319,406.6764,221.9545,401.0538,221.3328,409.802,225.8571" style="stroke: #A80036; stroke-width: 1.0;"/><text fill="#000000" font-family="sans-serif" font-size="13" lengthAdjust="spacingAndGlyphs" textLength="8" x="381.182" y="171.02">h</text><path d="M409.947,131.4021 C414.688,158.7091 421.874,200.1001 426.285,225.5061 " fill="none" style="stroke: #A80036; stroke-width: 1.0;"/><polygon fill="#A80036" points="409.033,126.1371,406.6325,135.689,409.8888,131.0633,414.5144,134.3197,409.033,126.1371" style="stroke: #A80036; stroke-width: 1.0;"/><text fill="#000000" font-family="sans-serif" font-size="13" lengthAdjust="spacingAndGlyphs" textLength="214" x="418.182" y="171.02">(next event time, discrete states)</text><path d="M811.437,272.1291 C793.616,280.7551 772.317,289.9811 752.182,295.9531 C589.367,344.2418 388.009,363.194 293.674,369.8102 " fill="none" style="stroke: #A80036; stroke-width: 1.0;"/><polygon fill="#A80036" points="288.439,370.1723,297.694,373.5405,293.427,369.8266,297.1409,365.5596,288.439,370.1723" style="stroke: #A80036; stroke-width: 1.0;"/><path d="M231.174,350.9243 C224.454,336.3901 214.2,317.5881 201.182,303.9531 C190.463,292.7261 176.944,282.8341 163.819,274.6871 " fill="none" style="stroke: #A80036; stroke-width: 1.0;"/><polygon fill="#A80036" points="159.388,271.9911,164.998,280.0861,163.6596,274.5898,169.1559,273.2515,159.388,271.9911" style="stroke: #A80036; stroke-width: 1.0;"/><text fill="#000000" font-family="sans-serif" font-size="13" lengthAdjust="spacingAndGlyphs" textLength="69" x="216.182" y="317.02">derivatives</text><path d="M84.7622,272.0581 C68.9937,286.2511 55.2847,304.9541 67.1819,320.9531 C94.4055,357.5626 146.551,369.3568 186.505,372.7167 " fill="none" style="stroke: #A80036; stroke-width: 1.0;"/><polygon fill="#A80036" points="191.809,373.1197,183.1377,368.4498,186.8234,372.7411,182.532,376.4268,191.809,373.1197" style="stroke: #A80036; stroke-width: 1.0;"/><text fill="#000000" font-family="sans-serif" font-size="13" lengthAdjust="spacingAndGlyphs" textLength="124" x="68.1819" y="317.02">inputs, time, states</text></g></svg>