<?xml version="1.0" encoding="UTF-8" standalone="no"?><svg xmlns="http://www.w3.org/2000/svg" xmlns:xlink="http://www.w3.org/1999/xlink" contentScriptType="application/ecmascript" contentStyleType="text/css" height="974px" preserveAspectRatio="none" style="width:950px;height:974px;" version="1.1" viewBox="0 0 950 974" width="950px" zoomAndPan="magnify"><defs><filter height="300%" id="f06fhk8" width="300%" x="-1" y="-1"><feGaussianBlur result="blurOut" stdDeviation="2.0"/><feColorMatrix in="blurOut" result="blurOut2" type="matrix" values="0 0 0 0 0 0 0 0 0 0 0 0 0 0 0 0 0 0 .4 0"/><feOffset dx="4.0" dy="4.0" in="blurOut2" result="blurOut3"/><feBlend in="SourceGraphic" in2="blurOut3" mode="normal"/></filter></defs><g><text fill="#000000" font-family="sans-serif" font-size="18" lengthAdjust="spacingAndGlyphs" textLength="250" x="355" y="17.4023">Overall software architecture</text><!--cluster SOEP--><polygon fill="#FFFFFF" filter="url(#f06fhk8)" points="22,138.1992,65,138.1992,72,160.6875,670,160.6875,670,786.1992,22,786.1992,22,138.1992" style="stroke: #000000; stroke-width: 2.0;"/><line style="stroke: #000000; stroke-width: 2.0;" x1="22" x2="72" y1="160.6875" y2="160.6875"/><text fill="#000000" font-family="sans-serif" font-size="14" font-weight="bold" lengthAdjust="spacingAndGlyphs" textLength="37" x="26" y="153.7344">SOEP</text><!--cluster OpenStudio--><polygon fill="#FFFFFF" filter="url(#f06fhk8)" points="54,189.1992,144,189.1992,151,211.6875,638,211.6875,638,530.1992,54,530.1992,54,189.1992" style="stroke: #000000; stroke-width: 2.0;"/><line style="stroke: #000000; stroke-width: 2.0;" x1="54" x2="151" y1="211.6875" y2="211.6875"/><text fill="#000000" font-family="sans-serif" font-size="14" font-weight="bold" lengthAdjust="spacingAndGlyphs" textLength="84" x="58" y="204.7344">OpenStudio</text><!--entity Conversion Script--><rect fill="#FEFECE" filter="url(#f06fhk8)" height="46.4883" style="stroke: #A80036; stroke-width: 1.5;" width="161" x="162.5" y="601.1992"/><rect fill="#FEFECE" height="10" style="stroke: #A80036; stroke-width: 1.5;" width="15" x="303.5" y="606.1992"/><rect fill="#FEFECE" height="2" style="stroke: #A80036; stroke-width: 1.5;" width="4" x="301.5" y="608.1992"/><rect fill="#FEFECE" height="2" style="stroke: #A80036; stroke-width: 1.5;" width="4" x="301.5" y="612.1992"/><text fill="#000000" font-family="sans-serif" font-size="14" lengthAdjust="spacingAndGlyphs" textLength="121" x="177.5" y="634.7344">Conversion Script</text><!--entity Modelica Library--><rect fill="#FEFECE" filter="url(#f06fhk8)" height="46.4883" style="stroke: #A80036; stroke-width: 1.5;" width="152" x="167" y="724.1992"/><rect fill="#FEFECE" height="10" style="stroke: #A80036; stroke-width: 1.5;" width="15" x="299" y="729.1992"/><rect fill="#FEFECE" height="2" style="stroke: #A80036; stroke-width: 1.5;" width="4" x="297" y="731.1992"/><rect fill="#FEFECE" height="2" style="stroke: #A80036; stroke-width: 1.5;" width="4" x="297" y="735.1992"/><text fill="#000000" font-family="sans-serif" font-size="14" lengthAdjust="spacingAndGlyphs" textLength="112" x="182" y="757.7344">Modelica Library</text><!--entity JModelica--><rect fill="#FEFECE" filter="url(#f06fhk8)" height="46.4883" style="stroke: #A80036; stroke-width: 1.5;" width="105" x="468.5" y="601.1992"/><rect fill="#FEFECE" height="10" style="stroke: #A80036; stroke-width: 1.5;" width="15" x="553.5" y="606.1992"/><rect fill="#FEFECE" height="2" style="stroke: #A80036; stroke-width: 1.5;" width="4" x="551.5" y="608.1992"/><rect fill="#FEFECE" height="2" style="stroke: #A80036; stroke-width: 1.5;" width="4" x="551.5" y="612.1992"/><text fill="#000000" font-family="sans-serif" font-size="14" lengthAdjust="spacingAndGlyphs" textLength="65" x="483.5" y="634.7344">JModelica</text><!--entity Modelica Buildings Library--><rect fill="#FEFECE" filter="url(#f06fhk8)" height="46.4883" style="stroke: #A80036; stroke-width: 1.5;" width="219" x="411.5" y="724.1992"/><rect fill="#FEFECE" height="10" style="stroke: #A80036; stroke-width: 1.5;" width="15" x="610.5" y="729.1992"/><rect fill="#FEFECE" height="2" style="stroke: #A80036; stroke-width: 1.5;" width="4" x="608.5" y="731.1992"/><rect fill="#FEFECE" height="2" style="stroke: #A80036; stroke-width: 1.5;" width="4" x="608.5" y="735.1992"/><text fill="#000000" font-family="sans-serif" font-size="14" lengthAdjust="spacingAndGlyphs" textLength="179" x="426.5" y="757.7344">Modelica Buildings Library</text><!--entity API--><ellipse cx="324" cy="241.1992" fill="#FEFECE" filter="url(#f06fhk8)" rx="8" ry="8" style="stroke: #A80036; stroke-width: 2.0;"/><text fill="#000000" font-family="sans-serif" font-size="14" lengthAdjust="spacingAndGlyphs" textLength="22" x="313" y="263.7344">API</text><!--entity Core--><rect fill="#FEFECE" filter="url(#f06fhk8)" height="46.4883" style="stroke: #A80036; stroke-width: 1.5;" width="73" x="287.5" y="332.1992"/><rect fill="#FEFECE" height="10" style="stroke: #A80036; stroke-width: 1.5;" width="15" x="340.5" y="337.1992"/><rect fill="#FEFECE" height="2" style="stroke: #A80036; stroke-width: 1.5;" width="4" x="338.5" y="339.1992"/><rect fill="#FEFECE" height="2" style="stroke: #A80036; stroke-width: 1.5;" width="4" x="338.5" y="343.1992"/><text fill="#000000" font-family="sans-serif" font-size="14" lengthAdjust="spacingAndGlyphs" textLength="33" x="302.5" y="365.7344">Core</text><!--entity Model Library--><rect fill="#FEFECE" filter="url(#f06fhk8)" height="46.4883" style="stroke: #A80036; stroke-width: 1.5;" width="133" x="78.5" y="460.1992"/><rect fill="#FEFECE" height="10" style="stroke: #A80036; stroke-width: 1.5;" width="15" x="191.5" y="465.1992"/><rect fill="#FEFECE" height="2" style="stroke: #A80036; stroke-width: 1.5;" width="4" x="189.5" y="467.1992"/><rect fill="#FEFECE" height="2" style="stroke: #A80036; stroke-width: 1.5;" width="4" x="189.5" y="471.1992"/><text fill="#000000" font-family="sans-serif" font-size="14" lengthAdjust="spacingAndGlyphs" textLength="93" x="93.5" y="493.7344">Model Library</text><!--entity Schematic Editor--><rect fill="#FEFECE" filter="url(#f06fhk8)" height="46.4883" style="stroke: #A80036; stroke-width: 1.5;" width="154" x="247" y="460.1992"/><rect fill="#FEFECE" height="10" style="stroke: #A80036; stroke-width: 1.5;" width="15" x="381" y="465.1992"/><rect fill="#FEFECE" height="2" style="stroke: #A80036; stroke-width: 1.5;" width="4" x="379" y="467.1992"/><rect fill="#FEFECE" height="2" style="stroke: #A80036; stroke-width: 1.5;" width="4" x="379" y="471.1992"/><text fill="#000000" font-family="sans-serif" font-size="14" lengthAdjust="spacingAndGlyphs" textLength="114" x="262" y="493.7344">Schematic Editor</text><!--entity Simulator Interface--><rect fill="#FEFECE" filter="url(#f06fhk8)" height="46.4883" style="stroke: #A80036; stroke-width: 1.5;" width="170" x="436" y="460.1992"/><rect fill="#FEFECE" height="10" style="stroke: #A80036; stroke-width: 1.5;" width="15" x="586" y="465.1992"/><rect fill="#FEFECE" height="2" style="stroke: #A80036; stroke-width: 1.5;" width="4" x="584" y="467.1992"/><rect fill="#FEFECE" height="2" style="stroke: #A80036; stroke-width: 1.5;" width="4" x="584" y="471.1992"/><text fill="#000000" font-family="sans-serif" font-size="14" lengthAdjust="spacingAndGlyphs" textLength="130" x="451" y="493.7344">Simulator Interface</text><!--entity Application--><rect fill="#FEFECE" filter="url(#f06fhk8)" height="46.4883" style="stroke: #A80036; stroke-width: 1.5;" width="118" x="265" y="29.1992"/><rect fill="#FEFECE" height="10" style="stroke: #A80036; stroke-width: 1.5;" width="15" x="363" y="34.1992"/><rect fill="#FEFECE" height="2" style="stroke: #A80036; stroke-width: 1.5;" width="4" x="361" y="36.1992"/><rect fill="#FEFECE" height="2" style="stroke: #A80036; stroke-width: 1.5;" width="4" x="361" y="40.1992"/><text fill="#000000" font-family="sans-serif" font-size="14" lengthAdjust="spacingAndGlyphs" textLength="78" x="280" y="62.7344">Application</text><!--entity User-Provided Modelica Library--><rect fill="#FEFECE" filter="url(#f06fhk8)" height="46.4883" style="stroke: #A80036; stroke-width: 1.5;" width="255" x="686.5" y="724.1992"/><rect fill="#FEFECE" height="10" style="stroke: #A80036; stroke-width: 1.5;" width="15" x="921.5" y="729.1992"/><rect fill="#FEFECE" height="2" style="stroke: #A80036; stroke-width: 1.5;" width="4" x="919.5" y="731.1992"/><rect fill="#FEFECE" height="2" style="stroke: #A80036; stroke-width: 1.5;" width="4" x="919.5" y="735.1992"/><text fill="#000000" font-family="sans-serif" font-size="14" lengthAdjust="spacingAndGlyphs" textLength="215" x="701.5" y="757.7344">User-Provided Modelica Library</text><polygon fill="#FBFB77" filter="url(#f06fhk8)" points="703,833.1992,703,965.6836,925,965.6836,925,843.1992,915,833.1992,703,833.1992" style="stroke: #A80036; stroke-width: 1.0;"/><polygon fill="#FBFB77" points="703,833.1992,703,965.6836,925,965.6836,925,843.1992,915,833.1992,818,833.1992,814,770.3322,810,833.1992,703,833.1992" style="stroke: #A80036; stroke-width: 1.0;"/><line style="stroke: #A80036; stroke-width: 1.0;" x1="915" x2="915" y1="833.1992" y2="843.1992"/><line style="stroke: #A80036; stroke-width: 1.0;" x1="925" x2="915" y1="843.1992" y2="843.1992"/><text fill="#000000" font-family="sans-serif" font-size="13" lengthAdjust="spacingAndGlyphs" textLength="157" x="709" y="850.7676">Allows companies to use</text><text fill="#000000" font-family="sans-serif" font-size="13" lengthAdjust="spacingAndGlyphs" textLength="174" x="709" y="866.0781">their own Modelica libraries</text><text fill="#000000" font-family="sans-serif" font-size="13" lengthAdjust="spacingAndGlyphs" textLength="201" x="709" y="881.3887">with custom HVAC systems and</text><text fill="#000000" font-family="sans-serif" font-size="13" lengthAdjust="spacingAndGlyphs" textLength="136" x="709" y="896.6992">control sequences, or</text><text fill="#000000" font-family="sans-serif" font-size="13" lengthAdjust="spacingAndGlyphs" textLength="158" x="709" y="912.0098">to integrate an electronic</text><text fill="#000000" font-family="sans-serif" font-size="13" lengthAdjust="spacingAndGlyphs" textLength="145" x="709" y="927.3203">equipment catalog or a</text><text fill="#000000" font-family="sans-serif" font-size="13" lengthAdjust="spacingAndGlyphs" textLength="186" x="709" y="942.6309">library used for an equipment</text><text fill="#000000" font-family="sans-serif" font-size="13" lengthAdjust="spacingAndGlyphs" textLength="65" x="709" y="957.9414">sales tool.</text><polygon fill="#FBFB77" filter="url(#f06fhk8)" points="686.5,327.1992,686.5,383.1309,843.5,383.1309,843.5,337.1992,833.5,327.1992,686.5,327.1992" style="stroke: #A80036; stroke-width: 1.0;"/><line style="stroke: #A80036; stroke-width: 1.0;" x1="833.5" x2="833.5" y1="327.1992" y2="337.1992"/><line style="stroke: #A80036; stroke-width: 1.0;" x1="843.5" x2="833.5" y1="337.1992" y2="337.1992"/><text fill="#000000" font-family="sans-serif" font-size="13" lengthAdjust="spacingAndGlyphs" textLength="136" x="692.5" y="344.7676">Not yet shown is how</text><text fill="#000000" font-family="sans-serif" font-size="13" lengthAdjust="spacingAndGlyphs" textLength="129" x="692.5" y="360.0781">to integrate building</text><text fill="#000000" font-family="sans-serif" font-size="13" lengthAdjust="spacingAndGlyphs" textLength="39" x="692.5" y="375.3887">model</text><polygon fill="#FBFB77" filter="url(#f06fhk8)" points="452.5,31.6992,452.5,72.3203,607.5,72.3203,607.5,41.6992,597.5,31.6992,452.5,31.6992" style="stroke: #A80036; stroke-width: 1.0;"/><polygon fill="#FBFB77" points="452.5,31.6992,452.5,48.1992,383.145,52.1992,452.5,56.1992,452.5,72.3203,607.5,72.3203,607.5,41.6992,597.5,31.6992,452.5,31.6992" style="stroke: #A80036; stroke-width: 1.0;"/><line style="stroke: #A80036; stroke-width: 1.0;" x1="597.5" x2="597.5" y1="31.6992" y2="41.6992"/><line style="stroke: #A80036; stroke-width: 1.0;" x1="607.5" x2="597.5" y1="41.6992" y2="41.6992"/><text fill="#000000" font-family="sans-serif" font-size="13" lengthAdjust="spacingAndGlyphs" textLength="134" x="458.5" y="49.2676">Application that uses</text><text fill="#000000" font-family="sans-serif" font-size="13" lengthAdjust="spacingAndGlyphs" textLength="130" x="458.5" y="64.5781">the OpenStudio SDK.</text><path d="M324,266.4492 C324,284.0452 324,312.2252 324,331.8882 " fill="none" style="stroke: #A80036; stroke-width: 1.0;"/><path d="M292.41,378.4352 C261.097,400.4772 213.21,434.1862 180.574,457.1582 " fill="none" style="stroke: #A80036; stroke-width: 1.0;"/><polygon fill="#A80036" points="176.274,460.1852,185.9358,458.2747,180.3624,457.3068,181.3303,451.7334,176.274,460.1852" style="stroke: #A80036; stroke-width: 1.0;"/><text fill="#000000" font-family="sans-serif" font-size="13" lengthAdjust="spacingAndGlyphs" textLength="63" x="241" y="426.7676">integrates</text><path d="M324,378.4352 C324,399.8472 324,432.2692 324,455.1632 " fill="none" style="stroke: #A80036; stroke-width: 1.0;"/><polygon fill="#A80036" points="324,460.1852,328,451.1852,324,455.1852,320,451.1852,324,460.1852" style="stroke: #A80036; stroke-width: 1.0;"/><text fill="#000000" font-family="sans-serif" font-size="13" lengthAdjust="spacingAndGlyphs" textLength="63" x="325" y="426.7676">integrates</text><path d="M358.766,378.4352 C393.369,400.5672 446.362,434.4612 482.287,457.4392 " fill="none" style="stroke: #A80036; stroke-width: 1.0;"/><polygon fill="#A80036" points="486.581,460.1852,481.1553,451.9656,482.3692,457.4907,476.8441,458.7045,486.581,460.1852" style="stroke: #A80036; stroke-width: 1.0;"/><text fill="#000000" font-family="sans-serif" font-size="13" lengthAdjust="spacingAndGlyphs" textLength="63" x="436" y="426.7676">integrates</text><path d="M163.624,510.6142 C182.028,536.7182 209.873,576.2122 227.22,600.8172 " fill="none" style="stroke: #A80036; stroke-width: 1.0; stroke-dasharray: 7.0,7.0;"/><polygon fill="#A80036" points="160.528,506.2242,162.4446,515.8848,163.409,510.3108,168.983,511.2752,160.528,506.2242" style="stroke: #A80036; stroke-width: 1.0;"/><text fill="#000000" font-family="sans-serif" font-size="13" lengthAdjust="spacingAndGlyphs" textLength="106" x="207" y="567.7676">augments library</text><path d="M243,647.3922 C243,667.6042 243,697.5062 243,719.1182 " fill="none" style="stroke: #A80036; stroke-width: 1.0; stroke-dasharray: 7.0,7.0;"/><polygon fill="#A80036" points="243,724.1462,247,715.1462,243,719.1462,239,715.1462,243,724.1462" style="stroke: #A80036; stroke-width: 1.0;"/><text fill="#000000" font-family="sans-serif" font-size="13" lengthAdjust="spacingAndGlyphs" textLength="69" x="244" y="690.7676">parses AST</text><path d="M521,506.2242 C521,530.4812 521,569.5182 521,595.7492 " fill="none" style="stroke: #A80036; stroke-width: 1.0; stroke-dasharray: 7.0,7.0;"/><polygon fill="#A80036" points="521,600.8172,525,591.8172,521,595.8172,517,591.8172,521,600.8172" style="stroke: #A80036; stroke-width: 1.0;"/><path d="M347.483,506.3482 C367.695,524.8322 398.088,551.2772 427,571.1992 C441.196,580.9812 457.396,590.4782 472.302,598.6212 " fill="none" style="stroke: #A80036; stroke-width: 1.0; stroke-dasharray: 7.0,7.0;"/><polygon fill="#A80036" points="476.882,601.1042,470.8741,593.3001,472.4857,598.7225,467.0633,600.3341,476.882,601.1042" style="stroke: #A80036; stroke-width: 1.0;"/><text fill="#000000" font-family="sans-serif" font-size="13" lengthAdjust="spacingAndGlyphs" textLength="84" x="428" y="567.7676">accesses AST</text><path d="M521,647.3922 C521,667.6042 521,697.5062 521,719.1182 " fill="none" style="stroke: #A80036; stroke-width: 1.0;"/><polygon fill="#A80036" points="521,724.1462,525,715.1462,521,719.1462,517,715.1462,521,724.1462" style="stroke: #A80036; stroke-width: 1.0;"/><text fill="#000000" font-family="sans-serif" font-size="13" lengthAdjust="spacingAndGlyphs" textLength="49" x="522" y="690.7676">imports</text><path d="M324,75.5682 C324,113.4222 324,189.6132 324,226.8002 " fill="none" style="stroke: #A80036; stroke-width: 1.0; stroke-dasharray: 7.0,7.0;"/><polygon fill="#A80036" points="324,231.9952,328,222.9952,324,226.9952,320,222.9952,324,231.9952" style="stroke: #A80036; stroke-width: 1.0;"/><text fill="#000000" font-family="sans-serif" font-size="13" lengthAdjust="spacingAndGlyphs" textLength="29" x="325" y="118.7676">uses</text><path d="M573.889,630.7322 C619.022,637.1092 684.586,650.3812 736,677.1992 C756.837,688.0672 776.623,705.6882 791.054,720.4022 " fill="none" style="stroke: #A80036; stroke-width: 1.0;"/><polygon fill="#A80036" points="794.604,724.0742,791.2231,714.8238,791.1282,720.4799,785.4722,720.385,794.604,724.0742" style="stroke: #A80036; stroke-width: 1.0;"/><text fill="#000000" font-family="sans-serif" font-size="13" lengthAdjust="spacingAndGlyphs" textLength="49" x="761" y="690.7676">imports</text><path d="M323.57,634.5552 C392.199,643.2562 493.195,657.7952 580,677.1992 C635.435,689.5912 697.009,707.9362 743.075,722.5962 " fill="none" style="stroke: #A80036; stroke-width: 1.0; stroke-dasharray: 7.0,7.0;"/><polygon fill="#A80036" points="748.048,724.1832,740.6919,717.6343,743.2851,722.6618,738.2576,725.2549,748.048,724.1832" style="stroke: #A80036; stroke-width: 1.0;"/><text fill="#000000" font-family="sans-serif" font-size="13" lengthAdjust="spacingAndGlyphs" textLength="69" x="646" y="690.7676">parses AST</text><path d="M638.2183,256.5298 C638.3057,256.5971 638.3938,256.665 638.4825,256.7333 C638.6598,256.8699 638.8396,257.0084 639.0218,257.1488 C639.7504,257.7101 640.5171,258.3007 641.3196,258.919 C647.7401,263.8651 656.4545,270.5785 666.3053,278.1672 C686.0068,293.3447 710.2535,312.0237 729.784,327.0692 " fill="none" style="stroke: #A80036; stroke-width: 1.0; stroke-dasharray: 7.0,7.0;"/></g></svg>