<?xml version="1.0" encoding="UTF-8" standalone="no"?><svg xmlns="http://www.w3.org/2000/svg" xmlns:xlink="http://www.w3.org/1999/xlink" contentScriptType="application/ecmascript" contentStyleType="text/css" height="981px" preserveAspectRatio="none" style="width:874px;height:981px;" version="1.1" viewBox="0 0 874 981" width="874px" zoomAndPan="magnify"><defs><filter height="300%" id="fv5a9gi" width="300%" x="-1" y="-1"><feGaussianBlur result="blurOut" stdDeviation="2.0"/><feColorMatrix in="blurOut" result="blurOut2" type="matrix" values="0 0 0 0 0 0 0 0 0 0 0 0 0 0 0 0 0 0 .4 0"/><feOffset dx="4.0" dy="4.0" in="blurOut2" result="blurOut3"/><feBlend in="SourceGraphic" in2="blurOut3" mode="normal"/></filter></defs><g><text fill="#000000" font-family="sans-serif" font-size="18" lengthAdjust="spacingAndGlyphs" textLength="712" x="94.5" y="16.708">Software architecture for QSS integration with JModelica with extended FMI API</text><!--cluster FMU-QSS--><polygon fill="#FFFFFF" filter="url(#fv5a9gi)" points="87,190.9531,164,190.9531,171,213.25,421,213.25,421,844.9531,87,844.9531,87,190.9531" style="stroke: #000000; stroke-width: 2.0;"/><line style="stroke: #000000; stroke-width: 2.0;" x1="87" x2="171" y1="213.25" y2="213.25"/><text fill="#000000" font-family="sans-serif" font-size="14" font-weight="bold" lengthAdjust="spacingAndGlyphs" textLength="71" x="91" y="205.9482">FMU-QSS</text><!--cluster PyFMI--><polygon fill="#FFFFFF" filter="url(#fv5a9gi)" points="22,44.9531,73,44.9531,80,67.25,867,67.25,867,141.9531,22,141.9531,22,44.9531" style="stroke: #000000; stroke-width: 2.0;"/><line style="stroke: #000000; stroke-width: 2.0;" x1="22" x2="80" y1="67.25" y2="67.25"/><text fill="#000000" font-family="sans-serif" font-size="14" font-weight="bold" lengthAdjust="spacingAndGlyphs" textLength="45" x="26" y="59.9482">PyFMI</text><!--cluster Optimica--><polygon fill="#FFFFFF" filter="url(#fv5a9gi)" points="158,877.9531,232,877.9531,239,900.25,356,900.25,356,974.9531,158,974.9531,158,877.9531" style="stroke: #000000; stroke-width: 2.0;"/><line style="stroke: #000000; stroke-width: 2.0;" x1="158" x2="239" y1="900.25" y2="900.25"/><text fill="#000000" font-family="sans-serif" font-size="14" font-weight="bold" lengthAdjust="spacingAndGlyphs" textLength="68" x="162" y="892.9482">Optimica</text><!--entity qss_sol--><rect fill="#FEFECE" filter="url(#fv5a9gi)" height="46.2969" style="stroke: #A80036; stroke-width: 1.5;" width="114" x="113" y="225.9531"/><rect fill="#FEFECE" height="10" style="stroke: #A80036; stroke-width: 1.5;" width="15" x="207" y="230.9531"/><rect fill="#FEFECE" height="2" style="stroke: #A80036; stroke-width: 1.5;" width="4" x="205" y="232.9531"/><rect fill="#FEFECE" height="2" style="stroke: #A80036; stroke-width: 1.5;" width="4" x="205" y="236.9531"/><text fill="#000000" font-family="sans-serif" font-size="14" lengthAdjust="spacingAndGlyphs" textLength="74" x="128" y="258.9482">QSS solver</text><!--entity FMU_QSS--><rect fill="#FEFECE" filter="url(#fv5a9gi)" height="46.2969" style="stroke: #A80036; stroke-width: 1.5;" width="96" x="209" y="782.9531"/><rect fill="#FEFECE" height="10" style="stroke: #A80036; stroke-width: 1.5;" width="15" x="285" y="787.9531"/><rect fill="#FEFECE" height="2" style="stroke: #A80036; stroke-width: 1.5;" width="4" x="283" y="789.9531"/><rect fill="#FEFECE" height="2" style="stroke: #A80036; stroke-width: 1.5;" width="4" x="283" y="793.9531"/><text fill="#000000" font-family="sans-serif" font-size="14" lengthAdjust="spacingAndGlyphs" textLength="56" x="224" y="815.9482">FMU-ME</text><!--entity Master algorithm--><rect fill="#FEFECE" filter="url(#fv5a9gi)" height="46.2969" style="stroke: #A80036; stroke-width: 1.5;" width="155" x="38.5" y="79.9531"/><rect fill="#FEFECE" height="10" style="stroke: #A80036; stroke-width: 1.5;" width="15" x="173.5" y="84.9531"/><rect fill="#FEFECE" height="2" style="stroke: #A80036; stroke-width: 1.5;" width="4" x="171.5" y="86.9531"/><rect fill="#FEFECE" height="2" style="stroke: #A80036; stroke-width: 1.5;" width="4" x="171.5" y="90.9531"/><text fill="#000000" font-family="sans-serif" font-size="14" lengthAdjust="spacingAndGlyphs" textLength="115" x="53.5" y="112.9482">Master algorithm</text><!--entity Sundials--><rect fill="#FEFECE" filter="url(#fv5a9gi)" height="46.2969" style="stroke: #A80036; stroke-width: 1.5;" width="98" x="753" y="79.9531"/><rect fill="#FEFECE" height="10" style="stroke: #A80036; stroke-width: 1.5;" width="15" x="831" y="84.9531"/><rect fill="#FEFECE" height="2" style="stroke: #A80036; stroke-width: 1.5;" width="4" x="829" y="86.9531"/><rect fill="#FEFECE" height="2" style="stroke: #A80036; stroke-width: 1.5;" width="4" x="829" y="90.9531"/><text fill="#000000" font-family="sans-serif" font-size="14" lengthAdjust="spacingAndGlyphs" textLength="58" x="768" y="112.9482">Sundials</text><!--entity jmc--><rect fill="#FEFECE" filter="url(#fv5a9gi)" height="46.2969" style="stroke: #A80036; stroke-width: 1.5;" width="167" x="173.5" y="912.9531"/><rect fill="#FEFECE" height="10" style="stroke: #A80036; stroke-width: 1.5;" width="15" x="320.5" y="917.9531"/><rect fill="#FEFECE" height="2" style="stroke: #A80036; stroke-width: 1.5;" width="4" x="318.5" y="919.9531"/><rect fill="#FEFECE" height="2" style="stroke: #A80036; stroke-width: 1.5;" width="4" x="318.5" y="923.9531"/><text fill="#000000" font-family="sans-serif" font-size="14" lengthAdjust="spacingAndGlyphs" textLength="127" x="188.5" y="945.9482">JModelica compiler</text><!--entity ode--><rect fill="#FEFECE" filter="url(#fv5a9gi)" height="46.2969" style="stroke: #A80036; stroke-width: 1.5;" width="96" x="754" y="225.9531"/><rect fill="#FEFECE" height="10" style="stroke: #A80036; stroke-width: 1.5;" width="15" x="830" y="230.9531"/><rect fill="#FEFECE" height="2" style="stroke: #A80036; stroke-width: 1.5;" width="4" x="828" y="232.9531"/><rect fill="#FEFECE" height="2" style="stroke: #A80036; stroke-width: 1.5;" width="4" x="828" y="236.9531"/><text fill="#000000" font-family="sans-serif" font-size="14" lengthAdjust="spacingAndGlyphs" textLength="56" x="769" y="258.9482">FMU-ME</text><path d="M108.2762,125.9575 C104.6673,140.4128 102.2847,159.2325 108,174.9531 C114.4352,192.6542 127.1676,209.074 139.4286,221.9266 " fill="none" style="stroke: #A80036; stroke-width: 1.0;"/><polygon fill="#A80036" points="143.2111,225.7983,139.783,216.5653,139.717,222.2218,134.0605,222.1559,143.2111,225.7983" style="stroke: #A80036; stroke-width: 1.0;"/><text fill="#000000" font-family="sans-serif" font-size="13" lengthAdjust="spacingAndGlyphs" textLength="76" x="109" y="171.02">inputs, time</text><path d="M164.8899,129.1351 C174.993,136.9824 184.2876,146.59 190,157.9531 C200.8254,179.4869 192.2741,206.7812 183.2346,225.8356 " fill="none" style="stroke: #A80036; stroke-width: 1.0;"/><polygon fill="#A80036" points="160.8303,126.1032,165.6475,134.6936,164.8363,129.0952,170.4347,128.284,160.8303,126.1032" style="stroke: #A80036; stroke-width: 1.0;"/><text fill="#000000" font-family="sans-serif" font-size="13" lengthAdjust="spacingAndGlyphs" textLength="204" x="196" y="171.02">next event time, discrete states</text><path d="M193.7109,102.9531 C380.1381,102.9531 566.5652,102.9531 752.9923,102.9531 " fill="none" style="stroke: #A80036; stroke-width: 1.0;"/><path d="M780.7813,126.0971 C773.6878,135.318 766.6596,146.4652 763,157.9531 C756.026,179.8451 766.9682,203.6859 779.018,221.4715 " fill="none" style="stroke: #A80036; stroke-width: 1.0;"/><polygon fill="#A80036" points="782.0952,225.858,780.2013,216.193,779.2238,221.7647,773.652,220.7873,782.0952,225.858" style="stroke: #A80036; stroke-width: 1.0;"/><text fill="#000000" font-family="sans-serif" font-size="13" lengthAdjust="spacingAndGlyphs" textLength="30" x="764" y="171.02">(x, t)</text><path d="M802,131.4138 C802,159.0068 802,200.342 802,225.9272 " fill="none" style="stroke: #A80036; stroke-width: 1.0;"/><polygon fill="#A80036" points="802,126.0872,798,135.0872,802,131.0872,806,135.0872,802,126.0872" style="stroke: #A80036; stroke-width: 1.0;"/><text fill="#000000" font-family="sans-serif" font-size="13" lengthAdjust="spacingAndGlyphs" textLength="32" x="803" y="171.02">dx/dt</text><path d="M257,834.3668 C257,857.9214 257,890.982 257,912.9129 " fill="none" style="stroke: #A80036; stroke-width: 1.0;"/><polygon fill="#A80036" points="257,829.1945,253,838.1945,257,834.1945,261,838.1945,257,829.1945" style="stroke: #A80036; stroke-width: 1.0;"/><path d="M295.5,782.7566 C314.75,767.9827 334,746.8577 334,721.4531 C334,333.4531 334,333.4531 334,333.4531 C334,285.862 278.7516,265.0496 232.3888,255.9629 " fill="none" style="stroke: #A80036; stroke-width: 1.0;"/><polygon fill="#A80036" points="227.3592,255.0156,235.4632,260.6125,232.2728,255.9412,236.9441,252.7508,227.3592,255.0156" style="stroke: #A80036; stroke-width: 1.0;"/><text fill="#000000" font-family="sans-serif" font-size="13" lengthAdjust="spacingAndGlyphs" textLength="69" x="335" y="532.02">derivatives</text><path d="M156.0574,272.1067 C147.4341,288.6104 138,311.6484 138,333.4531 C138,333.4531 138,333.4531 138,721.4531 C138,756.3509 172.4431,778.1565 204.2689,790.8563 " fill="none" style="stroke: #A80036; stroke-width: 1.0;"/><polygon fill="#A80036" points="208.9412,792.6645,201.9916,785.6857,204.2783,790.8598,199.1041,793.1464,208.9412,792.6645" style="stroke: #A80036; stroke-width: 1.0;"/><text fill="#000000" font-family="sans-serif" font-size="13" lengthAdjust="spacingAndGlyphs" textLength="124" x="139" y="532.02">inputs, time, states</text></g></svg>