<svg xmlns="http://www.w3.org/2000/svg" xmlns:xlink="http://www.w3.org/1999/xlink" width="814.14" height="700"><g transform="translate(-120 -40)"><path d="M200.54 60H840v660H200.54z" stroke="#000" stroke-width="2" fill="#fff"/><use xlink:href="#a" transform="matrix(1,0,0,1,205.53865339188013,65) translate(315 330.4)"/><path d="M320 240h120V120H320z" stroke="#000" stroke-width="2" fill="#fff"/><use xlink:href="#a" transform="matrix(1,0,0,1,325,125) translate(55 60.4)"/><path d="M360 141.3h42.03v77.4H360z" fill="none"/><path d="M373.4 204.7l11.97-47.96c1.3-5.26 4.47-14.33 12.35-14.33 2.63 0 4.27 1.4 4.27 2.97 0 2.17-1.58 3.87-3.42 3.87-1 0-2.04-.46-2.04-1.57 0-1.7 1.18-2.1 1.18-2.7 0-.33-.26-.52-.72-.52-3.3 0-4.93 4.73-6.64 11.63l-12.02 48.24c-1.32 5.32-4.6 13.27-11.97 13.27-2.62 0-4.27-1.4-4.27-2.97 0-2.17 1.58-3.87 3.42-3.87 1 0 2.04.6 2.04 1.7 0 1.9-1.2 1.84-1.2 2.57 0 .33.28.52.74.52 3.1 0 4.66-4.2 6.3-10.84"/><path d="M560 442h120V322H560z" stroke="#000" stroke-width="2" fill="#fff"/><use xlink:href="#a" transform="matrix(1,0,0,1,565,327) translate(55 60.4)"/><path d="M600 343.3h42.03v77.4H600z" fill="none"/><path d="M613.4 406.7l11.97-47.96c1.3-5.26 4.47-14.33 12.35-14.33 2.63 0 4.27 1.4 4.27 2.97 0 2.17-1.58 3.87-3.42 3.87-1 0-2.04-.46-2.04-1.57 0-1.7 1.18-2.1 1.18-2.7 0-.33-.26-.52-.72-.52-3.3 0-4.93 4.73-6.64 11.63l-12.02 48.24c-1.32 5.32-4.6 13.27-11.97 13.27-2.62 0-4.27-1.4-4.27-2.97 0-2.17 1.58-3.87 3.42-3.87 1 0 2.04.6 2.04 1.7 0 1.9-1.2 1.84-1.2 2.57 0 .33.28.52.74.52 3.1 0 4.66-4.2 6.3-10.84"/><path d="M440 180h400" stroke="#000" stroke-width="2" fill="none"/><path d="M840 180l-14.27 4.64v-9.28z"/><path d="M840 178.95v2.1L824.73 186v-12zm-13.27 4.3l10.03-3.25-10.03-3.26z"/><path d="M853.55 120h60.6v44.76h-60.6z" fill="none"/><path d="M871.07 137.88l1.38 7.23c5.58-9.26 8.02-14 8.02-16.88 0-.92-.46-1.32-1.7-2.1-1.33-.86-1.72-1.52-1.72-2.57 0-1.45 1.12-2.43 2.63-2.43 1.97 0 3.4 1.64 3.4 3.6 0 3.76-3.14 11-8.6 20.06-6.83 11.3-13.86 18.86-17.6 18.86-1.98 0-3.36-1.12-3.36-2.83 0-1.43 1.12-2.62 2.56-2.62 2.3 0 2.3 1.84 4 1.84.87 0 1.66-.52 3.17-2.17 1.18-1.24 4.14-5.12 4.66-5.98.4-.78.67-1.57.67-2.3 0-2.62-3.6-17.34-5.4-21.8-1.24-3.23-2.42-4.22-5.05-4.22-.72 0-1.3.07-2.04.26v-1.1l2.1-.4c1.32-.26 3.5-.66 7.04-1.18h.26c1 0 4.47 10.9 5.6 16.76M902.6 160h-12.84v-.7c3.44-.18 4.42-1.16 4.42-3.72v-20.86c0-1.58-.42-2.28-1.4-2.28-.46 0-1.25.23-2.1.56l-1.24.46v-.65l8.32-4.22.42.14v27.75c0 2 .92 2.83 4.4 2.83v.7"/><path d="M840 175h45v-9l15 14-15 14v-9h-45z" stroke="#000" stroke-width="2"/><use xlink:href="#a" transform="matrix(1,0,0,1,845,171) translate(25 14.4)"/><path d="M853.55 322h60.6v44.76h-60.6z" fill="none"/><path d="M871.07 339.88l1.38 7.23c5.58-9.26 8.02-14 8.02-16.88 0-.92-.46-1.32-1.7-2.1-1.33-.86-1.72-1.52-1.72-2.57 0-1.45 1.12-2.43 2.63-2.43 1.97 0 3.4 1.64 3.4 3.6 0 3.76-3.14 11-8.6 20.06-6.83 11.3-13.86 18.86-17.6 18.86-1.98 0-3.36-1.12-3.36-2.83 0-1.43 1.12-2.62 2.56-2.62 2.3 0 2.3 1.84 4 1.84.87 0 1.66-.52 3.17-2.17 1.18-1.24 4.14-5.12 4.66-5.98.4-.78.67-1.57.67-2.3 0-2.62-3.6-17.34-5.4-21.8-1.24-3.23-2.42-4.22-5.05-4.22-.72 0-1.3.07-2.04.26v-1.1l2.1-.4c1.32-.26 3.5-.66 7.04-1.18h.26c1 0 4.47 10.9 5.6 16.76M906.3 355.63l-2.5 6.37h-18.17v-.56l8.27-8.78c4.37-4.6 6.04-8.13 6.04-12.08 0-4.23-2.5-6.56-6.46-6.56-3.34 0-4.97 1.5-6.83 6.04l-.97-.23c.97-5.43 3.95-9.25 9.66-9.25 5.25 0 8.6 3.58 8.6 8.18 0 3.67-1.8 7.16-5.95 11.53l-7.68 8.17h10.88c1.95 0 2.92-.5 4.46-3.12"/><path d="M840 377h45v-9l15 14-15 14v-9h-45z" stroke="#000" stroke-width="2"/><use xlink:href="#a" transform="matrix(1,0,0,1,845,373) translate(25 14.4)"/><path d="M680 382h159" stroke="#000" stroke-width="2" fill="none"/><path d="M839 382l-14.27 4.64v-9.28z"/><path d="M840 381.27v1.46L823.73 388v-12zm-14.27 4l10.03-3.27-10.03-3.26z"/><path d="M440 180h60v202h60" stroke="#000" stroke-width="2" fill="none"/><path d="M560 382l-14.27 4.64v-9.28z"/><path d="M560 380.95v2.1L544.73 388v-12zm-13.27 4.3l10.03-3.25-10.03-3.26z"/><path d="M153.55 322h32.9v31.94h-32.9z" fill="none"/><path d="M183.85 344.28l.92.6c-4.27 6.5-5.98 7.8-9.07 7.8-1.97 0-3.15-1.1-3.15-3.14 0-1.45.85-5.85 2.95-12.95-7.75 12.74-11.04 16.22-15.7 16.22-2.3 0-3.5-1.05-3.5-3.48 0-1.25.6-3.6 1.8-8.4l2.3-9.15c.5-2.18.9-3.88.9-4.4 0-.47-.32-1-.7-1.2-.6-.32-.8-.4-3.3-.4v-.9c3.75-.47 6.1-.93 9.86-1.78l.26.2-5.85 23.33c-.06.2-.2.78-.2 1.05 0 .98.33 1.64 1.32 1.64 2.22 0 5.25-3.48 9.32-9.66 3.1-4.67 4-7.16 7.23-15.97h4.86l-5.18 19.66c-.33 1.25-1.25 4.34-1.25 5.13 0 .7.27 1.1.73 1.1 1.05 0 2.1-.92 5.45-5.32"/><path d="M140 377h45v-9l15 14-15 14v-9h-45z" stroke="#000" stroke-width="2"/><use xlink:href="#a" transform="matrix(1,0,0,1,145,373) translate(25 14.4)"/><path d="M200 382h50V180h70" stroke="#000" stroke-width="2" fill="none"/><path d="M200 383h-1.07l1.07-1-1.07-1H200zM320 180l-14.27 4.64v-9.28z"/><path d="M320 178.95v2.1L304.73 186v-12zm-13.27 4.3l10.03-3.25-10.03-3.26z"/><path d="M200 382h180v218h180" stroke="#000" stroke-width="2" fill="none"/><path d="M200 383h-1.07l1.07-1-1.07-1H200zM560 600l-14.27 4.64v-9.28z"/><path d="M560 598.95v2.1L544.73 606v-12zm-13.27 4.3l10.03-3.25-10.03-3.26z"/><path d="M853.55 540h60.6v44.76h-60.6z" fill="none"/><path d="M871.07 557.88l1.38 7.23c5.58-9.26 8.02-14 8.02-16.88 0-.92-.46-1.32-1.7-2.1-1.33-.86-1.72-1.52-1.72-2.57 0-1.45 1.12-2.43 2.63-2.43 1.97 0 3.4 1.64 3.4 3.6 0 3.76-3.14 11-8.6 20.06-6.83 11.3-13.86 18.86-17.6 18.86-1.98 0-3.36-1.12-3.36-2.83 0-1.43 1.12-2.62 2.56-2.62 2.3 0 2.3 1.84 4 1.84.87 0 1.66-.52 3.17-2.17 1.18-1.24 4.14-5.12 4.66-5.98.4-.78.67-1.57.67-2.3 0-2.62-3.6-17.34-5.4-21.8-1.24-3.23-2.42-4.22-5.05-4.22-.72 0-1.3.07-2.04.26v-1.1l2.1-.4c1.32-.26 3.5-.66 7.04-1.18h.26c1 0 4.47 10.9 5.6 16.76M887.12 556.3l-.75-.2c1.35-4.4 4.28-7.52 9.1-7.52 4.33 0 7.26 2.56 7.26 6.37 0 2.23-1.2 4.56-4.32 6.4 2.05.9 2.9 1.45 3.86 2.48 1.3 1.44 2.05 3.57 2.05 6 0 2.45-.78 4.73-2.13 6.5-2.23 2.97-6.64 4.32-10.78 4.32-3.4 0-5.2-.98-5.2-2.65 0-.98.82-1.67 1.9-1.67.78 0 1.53.28 2.83 1.2 1.72 1.2 2.7 1.45 4 1.45 3.43 0 6.03-3.16 6.03-7.1 0-3.55-1.62-5.82-4.83-6.75-1.02-.33-2.1-.47-4.74-.47V564c1.76-.6 2.96-1.1 3.9-1.66 2.27-1.3 3.76-3.4 3.76-6.23 0-3.15-1.95-4.73-5.02-4.73-2.88 0-5.02 1.5-6.92 4.93"/><path d="M840 595h45v-9l15 14-15 14v-9h-45z" stroke="#000" stroke-width="2"/><use xlink:href="#a" transform="matrix(1,0,0,1,845,591) translate(25 14.4)"/><path d="M680 600h79.5v1H839" stroke="#000" stroke-width="2" fill="none"/><path d="M680 601h-1.5l1.5-1-1.5-1h1.5zM839 601l-14.27 4.64v-9.28z"/><path d="M840 600.27v1.46L823.73 607v-12zm-14.27 4l10.03-3.27-10.03-3.26z"/><path d="M460 124.94h60.78V166H460z" fill="none"/><path d="M477.7 131.7l.8 3.76c4.6-7.03 7.03-9.4 9.92-9.4 1.58 0 2.7 1 2.7 2.43 0 1.37-.92 2.36-2.24 2.36-1.25 0-1.84-1.12-3.4-1.12-1.2 0-3.56 2.9-6.45 7.95 0 .45.13 1.37.52 2.95l2.1 8.8c.46 1.85 1.06 2.7 1.98 2.7.85 0 1.57-.66 3.08-2.63.6-.8.87-1.18 1.4-1.84l.98.6c-3.8 5.9-5.52 7.5-8.02 7.5-2.1 0-3.1-1.2-3.87-4.48l-1.92-7.82-5.78 7.82c-2.9 3.87-4.2 4.47-6.25 4.47-2.03 0-3.28-1.06-3.28-2.76 0-1.3.92-2.36 2.23-2.36.6 0 1.25.26 2.1.72.66.4 1.32.6 1.7.6.74 0 1.98-1.25 3.36-3.23l5.4-7.62-1.85-8.14c-.9-3.94-1.37-4.47-3-4.47-.54 0-1.32.12-2.57.45l-1.2.33-.18-1.05.72-.26c4-1.45 6.18-1.9 7.7-1.9 1.63 0 2.42 1.17 3.34 5.64M509.23 164.94H496.4v-.7c3.45-.18 4.42-1.16 4.42-3.7v-20.88c0-1.58-.42-2.28-1.4-2.28-.46 0-1.25.24-2.08.56l-1.26.47v-.64l8.32-4.23.42.14v27.74c0 2 .93 2.84 4.4 2.84v.7"/><path d="M700 323.47h60.78v41.06H700z" fill="none"/><path d="M717.7 330.24l.8 3.75c4.6-7.04 7.03-9.4 9.92-9.4 1.58 0 2.7.98 2.7 2.42 0 1.38-.92 2.37-2.24 2.37-1.25 0-1.84-1.13-3.4-1.13-1.2 0-3.56 2.9-6.45 7.95 0 .46.13 1.38.52 2.96l2.1 8.8c.46 1.85 1.06 2.7 1.98 2.7.85 0 1.57-.66 3.08-2.63.6-.8.87-1.18 1.4-1.84l.98.6c-3.8 5.92-5.52 7.5-8.02 7.5-2.1 0-3.1-1.2-3.87-4.47l-1.92-7.82-5.78 7.83c-2.9 3.87-4.2 4.46-6.25 4.46-2.03 0-3.28-1.06-3.28-2.77 0-1.3.92-2.36 2.23-2.36.6 0 1.25.26 2.1.72.66.4 1.32.58 1.7.58.74 0 1.98-1.25 3.36-3.22l5.4-7.62-1.85-8.15c-.9-3.95-1.37-4.48-3-4.48-.54 0-1.32.13-2.57.46l-1.2.33-.18-1.04.72-.26c4-1.45 6.18-1.9 7.7-1.9 1.63 0 2.42 1.17 3.34 5.64M752.95 357.1l-2.5 6.37h-18.18v-.56l8.27-8.77c4.37-4.6 6.04-8.13 6.04-12.08 0-4.23-2.5-6.55-6.46-6.55-3.34 0-4.97 1.48-6.83 6.04l-.98-.24c.97-5.43 3.95-9.24 9.66-9.24 5.25 0 8.6 3.57 8.6 8.17 0 3.68-1.8 7.16-5.95 11.53l-7.66 8.18h10.87c1.95 0 2.93-.5 4.46-3.12"/><path d="M700.22 544.94h74.17v47.85H700.2z" fill="none"/><path d="M730.5 562.82v1.05c-3.08.2-5.1 1.5-14.77 10.12l2.43 5.77c2.56 6.05 4.07 8.48 5.32 8.48 1 0 1.78-.72 2.96-2.76.33-.53.66-1.13.98-1.72l1 .73c-3.03 5.53-4.68 7.17-7.3 7.17-1.9 0-3.22-1.25-5.33-5.4-1.2-2.3-2.9-6.36-3.95-9.26l-2.63 2.12-3.15 11.83h-4.93l9.26-34.7c.86-3.16 1.06-4.67 1.2-5.8-.14-1.17-1.13-1.56-3.36-1.56h-1.2v-1.06c3.9-.46 6.45-.92 10.33-1.78l.4.4-7.9 29.96 2.83-2.17c6.18-4.73 9.4-7.88 9.4-9.2 0-.72-.8-1.18-2.43-1.18h-.92v-1.05h11.76M771.78 583.13l.92.6c-4.27 6.5-5.98 7.8-9.07 7.8-1.97 0-3.15-1.1-3.15-3.15 0-1.44.85-5.85 2.96-12.94-7.76 12.75-11.04 16.23-15.7 16.23-2.3 0-3.5-1.05-3.5-3.48 0-1.26.6-3.63 1.78-8.43l2.3-9.13c.53-2.17.92-3.88.92-4.4 0-.46-.33-1-.72-1.2-.6-.3-.8-.38-3.3-.38v-.92c3.76-.46 6.13-.92 9.87-1.77l.25.2-5.84 23.32c-.06.2-.2.78-.2 1.04 0 1 .34 1.65 1.32 1.65 2.24 0 5.26-3.5 9.33-9.67 3.1-4.67 4-7.17 7.23-15.97h4.87l-5.2 19.65c-.32 1.25-1.24 4.34-1.24 5.13 0 .72.27 1.12.73 1.12 1.05 0 2.1-.92 5.45-5.32"/><path d="M560 520v160l120-80z" stroke="#000" stroke-width="2" fill="#fff"/><use xlink:href="#a" transform="matrix(6.123233995736766e-17,1,-1,6.123233995736766e-17,675,525) translate(75 60.4)"/><path d="M580 576.08h30.33v47.84H580z" fill="none"/><path d="M610.3 593.95V595c-3.1.2-5.13 1.52-14.8 10.13l2.44 5.78c2.56 6.06 4.08 8.5 5.32 8.5 1 0 1.78-.74 2.96-2.77.33-.53.66-1.12 1-1.7l.97.7c-3.03 5.53-4.67 7.17-7.3 7.17-1.9 0-3.22-1.24-5.33-5.38-1.18-2.3-2.9-6.38-3.94-9.27l-2.63 2.1-3.15 11.83h-4.93l9.27-34.7c.84-3.15 1.04-4.66 1.17-5.78-.13-1.18-1.12-1.58-3.35-1.58h-1.2v-1.05c3.9-.46 6.45-.92 10.33-1.77l.4.4-7.9 29.96 2.84-2.17c6.16-4.74 9.38-7.9 9.38-9.2 0-.73-.78-1.2-2.43-1.2h-.92v-1.05h11.77"/></g></svg>